<?xml version="1.0" standalone="no"?>
<!DOCTYPE svg PUBLIC "-//W3C//DTD SVG 1.1//EN" "http://www.w3.org/Graphics/SVG/1.1/DTD/svg11.dtd" >
<svg xmlns="http://www.w3.org/2000/svg">
<metadata>
This is a custom SVG webfont generated by Font Squirrel.
Copyright   : Copyright c 2011 JM Sole infojmsolecl with Reserved Font Name Noticia Text
Designer    : JM Sole
Foundry     : JM Sole
</metadata>
<defs>
<font id="NoticiaTextBold" horiz-adv-x="550" >
<font-face units-per-em="2048" ascent="1638" descent="-410" />
<missing-glyph horiz-adv-x="500" />
<glyph unicode=" " />
<glyph unicode="!" horiz-adv-x="642" d="M170 99q0 41 9.5 78.5t26 66t38.5 45t47 16.5q43 0 80.5 -10t65 -26.5t43.5 -39t16 -47.5q0 -41 -9.5 -77.5t-26 -65t-39 -45t-47.5 -16.5q-43 0 -80 9.5t-64.5 26t-43.5 38.5t-16 47zM175 1540l307 22l20 -22l-73 -1130h-181z" />
<glyph unicode="&#x22;" horiz-adv-x="664" d="M80 1137v403h216v-42l-63 -361h-153zM358 1137v403h216v-42l-63 -361h-153z" />
<glyph unicode="#" horiz-adv-x="1387" d="M90 286v177h221l61 426h-216v177h241l41 287h195v-20l-38 -267h286l41 287h195v-20l-38 -267h188v-177h-213l-61 -426h208v-177h-233l-40 -286h-195v20l37 266h-286l-40 -286h-195v20l37 266h-196zM509 463h286l61 426h-286z" />
<glyph unicode="$" horiz-adv-x="1130" d="M79 1034q0 162 141 251q107 68 275 84v193h165v-188q76 -3 149 -13q98 -14 174 -38l21 -290l-155 -22l-83 197q-39 9 -84 13l-22 2v-408l4 -2q231 -130 318.5 -228.5t87.5 -239.5q0 -175 -146 -271q-105 -69 -264 -88v-212h-165v204q-100 2 -193 17q-107 17 -182 46 l-21 279l167 25l84 -197q41 -10 90 -16q27 -3 55 -4v447q-9 5 -18 11q-255 147 -326 237t-72 211zM379 1079q0 -63 49 -110q21 -20 67 -52v302q-50 -7 -97 -21q-8 -26 -13.5 -58t-5.5 -61zM660 137q44 7 80 18q12 24 21 60t9 71q0 80 -63 140q-19 18 -47 39v-328z" />
<glyph unicode="%" horiz-adv-x="1693" d="M90 1059q0 65 25 122.5t67.5 100.5t100 68t123.5 25q65 0 122.5 -25t100.5 -68t68 -100.5t25 -122.5q0 -66 -25 -123.5t-68 -100t-100.5 -67.5t-122.5 -25q-66 0 -123.5 25t-100 67.5t-67.5 100t-25 123.5zM231 0v20l966 1333h215v-20l-966 -1333h-215zM279 1059 q0 -83 34 -118t93 -35q25 0 48 8.5t40.5 26.5t27.5 47t10 71t-10 71t-27.5 47t-40.5 26.5t-48 8.5q-59 0 -93 -35t-34 -118zM921 294q0 65 25 122.5t67.5 100.5t100 68t123.5 25q65 0 122.5 -25t100.5 -68t68 -100.5t25 -122.5q0 -66 -25 -123.5t-68 -100t-100.5 -67.5 t-122.5 -25q-66 0 -123.5 25t-100 67.5t-67.5 100t-25 123.5zM1110 294q0 -83 34 -118t93 -35q25 0 48 8.5t40.5 26.5t27.5 47t10 71t-10 71t-27.5 47t-40.5 26.5t-48 8.5q-59 0 -93 -35t-34 -118z" />
<glyph unicode="&#x26;" horiz-adv-x="1581" d="M24 274v22q0 69 27 129.5t71.5 111t102 91.5t117.5 73q-44 50 -73 93.5t-46.5 81t-25 71t-7.5 63.5v19q0 69 33 131.5t96 110.5t155 76t211 28q97 0 170 -19t122 -53.5t73.5 -82.5t24.5 -107v-22q0 -60 -23 -110.5t-70.5 -99t-121.5 -97.5t-176 -105q77 -85 154.5 -169.5 t153.5 -157.5q20 40 30 85.5t10 98.5v6l-163 34l20 118l423 22v-187q0 -91 -36 -173.5t-105 -152.5q53 -36 102 -56t95 -20q42 0 78.5 5t65.5 12q33 7 61 17v-116q-27 -19 -63 -34q-31 -13 -75.5 -23t-101.5 -10q-82 0 -165 26t-168 74q-91 -48 -203.5 -74t-243.5 -26 q-125 0 -223 17.5t-166 53.5t-104 92t-36 133zM324 327q0 -99 65.5 -149.5t183.5 -50.5q152 0 263 61q-97 75 -191.5 169.5t-187.5 203.5q-30 -17 -55 -41.5t-42 -53.5t-26.5 -61t-9.5 -65v-13zM490 1056q0 -78 21 -136.5t60 -108.5q103 66 153.5 126t50.5 128v13 q0 70 -40 109t-102 39q-24 0 -45 -5t-36 -10q-18 -7 -32 -15q-9 -16 -15 -35q-6 -17 -10.5 -40.5t-4.5 -53.5v-11z" />
<glyph unicode="'" horiz-adv-x="386" d="M70 1137v403h216v-42l-63 -361h-153z" />
<glyph unicode="(" horiz-adv-x="743" d="M110 543q0 121 20 231.5t53 207.5t75.5 180.5t86.5 152.5q103 161 235 286l113 -60q-82 -120 -145 -274q-27 -66 -53.5 -145t-46.5 -170.5t-32.5 -194t-12.5 -214.5q0 -113 12.5 -215.5t32.5 -193.5t46.5 -170t53.5 -145q63 -154 145 -275l-113 -60q-132 124 -235 286 q-44 69 -86.5 152.5t-75.5 181t-53 207.5t-20 232z" />
<glyph unicode=")" horiz-adv-x="743" d="M50 -456q81 121 145 275q27 66 53 145t46.5 170t33 193.5t12.5 215.5q0 112 -12.5 214.5t-33 194t-46.5 170.5t-53 145q-64 154 -145 274l113 60q131 -125 235 -286q44 -69 86 -152.5t75 -180.5t53.5 -207.5t20.5 -231.5q0 -122 -20.5 -232t-53.5 -207.5t-75 -181 t-86 -152.5q-104 -162 -235 -286z" />
<glyph unicode="*" horiz-adv-x="895" d="M40 1296l105 183l48 -28l187 -153l-39 237v57h213v-57l-39 -236l187 152l48 28l104 -183l-47 -29l-224 -85l225 -85l47 -29l-105 -183l-48 28l-187 153l39 -237v-57h-213v57l39 236l-187 -152l-48 -28l-104 183l42 26l229 87l-225 86z" />
<glyph unicode="+" horiz-adv-x="1103" d="M160 490v207h288v308h207v-308h288v-207h-288v-308h-207v308h-288z" />
<glyph unicode="," horiz-adv-x="596" d="M100 98q0 42 10 79.5t26.5 66t38.5 45t47 16.5q23 0 48 -3.5t49 -11t45 -20t38 -29.5q10 -11 20 -26.5t17.5 -38t12 -53.5t4.5 -73q0 -60 -9 -116.5t-36.5 -114.5t-78 -120.5t-133.5 -134.5l-82 96q51 43 86 80.5t56 71t30 62t9 53.5q0 24 -18.5 37t-47.5 20 q-59 16 -95.5 46t-36.5 68z" />
<glyph unicode="-" horiz-adv-x="1053" d="M160 490v207h733v-207h-733z" />
<glyph unicode="." horiz-adv-x="566" d="M100 99q0 41 9.5 78.5t26 66t38.5 45t47 16.5q43 0 80.5 -9.5t65 -26.5t43.5 -39.5t16 -47.5q0 -41 -9.5 -77.5t-26 -65t-39 -45t-47.5 -16.5q-43 0 -80 9.5t-64.5 26t-43.5 38.5t-16 47z" />
<glyph unicode="/" horiz-adv-x="883" d="M70 -275l568 1815h215v-20l-568 -1815h-215v20z" />
<glyph unicode="0" horiz-adv-x="1236" d="M84 517v105q0 365 141 559t403 194q274 0 399 -132t125 -408v-104q0 -383 -136 -568t-425 -185q-253 0 -380 132.5t-127 406.5zM388 572q0 -227 54 -336t174 -109q124 0 178 122t54 393v140q0 220 -51 332t-179 112q-121 0 -175.5 -119.5t-54.5 -394.5v-140z" />
<glyph unicode="1" horiz-adv-x="826" d="M48 1259l345 94h201v-1201l192 -34l-20 -118h-645l-20 118l193 34v1004h-236z" />
<glyph unicode="2" horiz-adv-x="1080" d="M56 0v185q139 137 256.5 254t203.5 220.5t134.5 197t48.5 183.5q0 91 -47.5 138.5t-139.5 47.5q-59 0 -110.5 -10t-90.5 -25l-60 -213l-159 11v281q108 50 224.5 77.5t226.5 27.5q215 0 335.5 -88.5t120.5 -249.5q0 -92 -51 -188.5t-136 -197.5t-194 -206.5t-225 -214.5 l4 -10h377l82 193l154 -23l-23 -390h-931z" />
<glyph unicode="3" horiz-adv-x="1013" d="M52 72v278l156 12l55 -202q32 -12 85 -22.5t107 -10.5q95 0 149 67.5t54 193.5q0 124 -62 191.5t-161 67.5h-123v149h113q93 0 139 59.5t46 171.5q0 98 -44 148.5t-132 50.5q-35 0 -72 -5.5t-72 -16.5l-56 -203l-155 12v288q81 31 186 52.5t205 21.5q210 0 325 -84.5 t115 -239.5q0 -103 -54.5 -186t-168.5 -132q119 -33 194.5 -121.5t75.5 -206.5q0 -204 -142 -315.5t-375 -111.5q-97 0 -203.5 27.5t-184.5 66.5z" />
<glyph unicode="4" horiz-adv-x="1053" d="M2 444l588 909h294l-577 -872l5 -10h271v275h300v-275h142l24 -120l-166 -34v-165l162 -34l-20 -118h-625l-20 118l203 34v170h-551z" />
<glyph unicode="5" horiz-adv-x="1078" d="M80 66v277l165 8l61 -194q38 -13 89 -21.5t105 -8.5q104 0 165 73t61 208q0 125 -65 191t-192 66q-68 0 -137 -17t-115 -39l-113 97l37 647h813v-220h-644l-20 -362q50 22 117.5 36.5t147.5 14.5q218 0 344.5 -102t126.5 -289q-1 -207 -153.5 -330t-378.5 -123 q-100 0 -211 24.5t-203 63.5z" />
<glyph unicode="6" horiz-adv-x="1111" d="M74 500v72q0 352 208 577.5t500 225.5q43 0 94.5 -5.5t97.5 -16.5v-136q-45 4 -87 6.5t-83 2.5q-178 0 -301.5 -147t-123.5 -358l10 -4q61 43 125.5 61.5t148.5 18.5q175 0 292.5 -104t117.5 -266v-29q0 -192 -135.5 -306t-362.5 -114q-246 0 -373.5 134t-127.5 388z M379 521q0 -189 54 -291.5t159 -102.5q86 0 133.5 64.5t47.5 180.5v16q0 119 -59 189.5t-155 70.5q-41 0 -88 -13t-92 -38v-76z" />
<glyph unicode="7" horiz-adv-x="951" d="M46 938v415h923v-117l-490 -1236h-289l498 1123l-6 10h-418l-53 -203z" />
<glyph unicode="8" horiz-adv-x="1080" d="M42 292q0 120 78.5 213t211.5 144q-126 63 -182.5 141t-56.5 196q0 170 129 279.5t350 109.5q198 0 308.5 -76t110.5 -214q0 -93 -68.5 -176t-199.5 -141q152 -60 235.5 -153.5t83.5 -230.5q0 -182 -142 -294t-381 -112q-230 0 -353.5 82t-123.5 232zM342 346 q0 -105 51 -162t146 -57q97 0 150 55.5t53 152.5q0 86 -56 138.5t-196 107.5l-53 21q-41 -42 -68 -106.5t-27 -149.5zM392 1043q0 -88 51 -140t170 -94q38 42 58 104.5t20 141.5q0 83 -39 127t-102 44q-70 0 -114 -51t-44 -132z" />
<glyph unicode="9" horiz-adv-x="1088" d="M42 902v29q0 204 130 324t360 120q242 0 366 -133t124 -398v-78q0 -376 -181.5 -582t-510.5 -206q-44 0 -103 6t-112 17v136q32 -4 77.5 -7t89.5 -3q197 0 318 136t121 349l-10 4q-50 -39 -119.5 -61t-158.5 -22q-164 0 -277.5 102t-113.5 267zM342 941q0 -116 55 -187.5 t140 -71.5q43 0 92.5 15t91.5 39v62q0 208 -52.5 318t-151.5 110q-89 0 -132 -70t-43 -199v-16z" />
<glyph unicode=":" horiz-adv-x="566" d="M100 99q0 41 9.5 78.5t26 66t38.5 45t47 16.5q43 0 80.5 -9.5t65 -26.5t43.5 -39.5t16 -47.5q0 -41 -9.5 -77.5t-26 -65t-39 -45t-47.5 -16.5q-43 0 -80 9.5t-64.5 26t-43.5 38.5t-16 47zM100 810q0 41 9.5 78.5t26 66t38.5 45t47 16.5q43 0 80.5 -9.5t65 -26.5 t43.5 -39.5t16 -47.5q0 -41 -9.5 -77.5t-26 -65t-39 -45t-47.5 -16.5q-43 0 -80 9.5t-64.5 26t-43.5 38.5t-16 47z" />
<glyph unicode=";" horiz-adv-x="596" d="M100 98q0 42 10 79.5t26.5 66t38.5 45t47 16.5q23 0 48 -3.5t49 -11t45.5 -19.5t37.5 -30q10 -11 20 -26.5t17.5 -38t12 -53.5t4.5 -73q0 -60 -9 -116.5t-36.5 -114.5t-78 -120.5t-133.5 -134.5l-82 96q51 43 86 80.5t56 71t30 62t9 53.5q0 24 -18.5 36.5t-47.5 20.5 q-59 15 -95.5 45.5t-36.5 68.5zM101 810q0 41 9.5 78.5t26 66t38.5 45t47 16.5q43 0 80.5 -9.5t65 -26.5t43.5 -39.5t16 -47.5q0 -41 -9.5 -77.5t-26 -65t-39 -45t-47.5 -16.5q-43 0 -80 9.5t-64.5 26t-43.5 38.5t-16 47z" />
<glyph unicode="&#x3c;" horiz-adv-x="1168" d="M140 505v196l838 374h30v-209l-579 -255v-16l579 -254v-210h-30z" />
<glyph unicode="=" horiz-adv-x="1162" d="M160 277v217h842v-217h-842zM160 740v217h842v-217h-842z" />
<glyph unicode="&#x3e;" horiz-adv-x="1168" d="M160 131v210l579 254v16l-579 255v209h30l838 -374v-196l-838 -374h-30z" />
<glyph unicode="?" horiz-adv-x="1039" d="M120 1182v297q54 23 121 41q57 16 136 29t175 13q103 0 186 -18.5t141 -54t89 -87t31 -116.5q0 -62 -14 -111t-46 -97t-84 -100.5t-128 -121.5l-161 -146q-40 -36 -54.5 -64.5t-14.5 -60.5q0 -36 18.5 -52.5t48.5 -16.5q23 0 46 4.5t43 10.5q23 7 45 16v-121 q-27 -14 -62 -25q-30 -10 -73 -17.5t-97 -7.5q-58 0 -105.5 12t-81.5 37t-53 62t-19 88q0 41 11.5 77.5t35.5 73t61 76.5t88 87l182 168q36 34 60 61t38.5 52.5t20 51.5t5.5 56q0 29 -11.5 55t-34.5 46t-58.5 31.5t-84.5 11.5q-45 0 -77.5 -5t-55.5 -11q-26 -7 -45 -16 l-70 -225zM289 99q0 41 9.5 78.5t26 66t38.5 45t47 16.5q43 0 80.5 -10t65 -26.5t43.5 -39t16 -47.5q0 -41 -9.5 -77.5t-26 -65t-39 -45t-47.5 -16.5q-43 0 -80 9.5t-64.5 26t-43.5 38.5t-16 47z" />
<glyph unicode="@" horiz-adv-x="2030" d="M110 322q0 279 131 521.5t387 387t573 144.5q350 0 549.5 -153t199.5 -424q0 -216 -83 -371t-210.5 -234.5t-262.5 -90.5l-196 -14l-81 78l23 170q-81 -136 -161 -192t-185 -56q-134 0 -190 82t-33 265l12 93q34 245 178.5 390t360.5 145q91 0 202.5 -23.5t196.5 -54.5 l-108 -776q128 14 187.5 155t59.5 386q0 240 -129 362.5t-378 122.5q-223 0 -399 -120t-265 -321.5t-89 -434.5q0 -263 159 -396t460 -133q131 0 265.5 34t221.5 77v-106q-115 -65 -266 -105t-310 -40q-258 0 -440 67t-281.5 210t-98.5 355zM854.5 287q6.5 -71 60.5 -71 q28 0 61.5 28.5t67.5 71.5t65.5 93t55.5 94l60 443q-27 6 -56.5 9.5t-55.5 3.5q-36 0 -68.5 -6t-54.5 -14q-28 -49 -59.5 -144t-52.5 -236l-10 -69q-20 -132 -13.5 -203z" />
<glyph unicode="A" horiz-adv-x="1266" d="M-26 118l100 28l433 1207h263l423 -1207l99 -28l-20 -118h-494l-20 118l132 28l-82 240h-453l-84 -240l132 -28l-20 -118h-389zM406 535h352l-166 488h-16z" />
<glyph unicode="B" horiz-adv-x="1234" d="M70 118l143 34v1049l-143 34l20 118h569q212 0 331.5 -80.5t119.5 -231.5q0 -103 -64 -187.5t-172 -133.5l2 -16q135 -23 213.5 -102t78.5 -199q0 -181 -129.5 -292t-341.5 -111h-607zM513 149h87q60 0 120.5 5t117.5 20q13 41 21.5 100t8.5 118q0 113 -68 174.5 t-183 61.5h-104v-479zM513 777h81q44 0 91.5 7t90.5 20q14 37 24 91.5t10 107.5q0 109 -54.5 155t-177.5 46h-65v-427z" />
<glyph unicode="C" horiz-adv-x="1186" d="M70 515v89q0 379 167 575t498 196q91 0 186.5 -15t176.5 -44l21 -290l-155 -22l-85 199q-32 11 -78.5 17t-92.5 6q-75 0 -150.5 -22t-128.5 -56q-25 -92 -42 -214t-17 -251v-133q0 -208 98.5 -315.5t292.5 -107.5q85 0 180.5 28t180.5 76v-126q-89 -58 -206.5 -92.5 t-239.5 -34.5q-299 0 -452.5 137t-153.5 400z" />
<glyph unicode="D" horiz-adv-x="1428" d="M70 118l143 34v1049l-143 34l20 118h618q317 0 478.5 -151t161.5 -437v-78q0 -317 -170.5 -502t-459.5 -185h-628zM513 149h161q59 0 123 8t115 21q52 72 94 194t42 250v94q0 248 -100 368t-307 120h-128v-1055z" />
<glyph unicode="E" horiz-adv-x="1203" d="M70 118l143 34v1049l-143 34l20 118h987l24 -320l-133 -22l-83 193h-372v-422h287l34 112l119 -20v-334l-119 -20l-34 113h-287v-484h401l83 193l134 -23l-24 -319h-1017z" />
<glyph unicode="F" horiz-adv-x="1083" d="M68 118l143 34v1049l-143 34l20 118h927l24 -320l-123 -22l-83 193h-322v-422h250l34 112l118 -20v-334l-118 -20l-34 113h-250v-481l202 -34l-20 -118h-605z" />
<glyph unicode="G" horiz-adv-x="1330" d="M74 505v89q0 380 174.5 580.5t497.5 200.5q103 0 205 -14.5t188 -42.5l21 -290l-155 -22l-84 197q-46 12 -97.5 17.5t-100.5 5.5q-76 0 -150.5 -21t-139.5 -57q-26 -95 -42.5 -215.5t-16.5 -249.5v-133q0 -203 101.5 -313t261.5 -110q28 0 58 3t59 9v355l-143 34l20 118 h545l20 -118l-142 -34v-389q-97 -59 -216 -92.5t-263 -34.5q-290 0 -445.5 134t-155.5 393z" />
<glyph unicode="H" horiz-adv-x="1541" d="M66 118l143 34v1049l-143 34l20 118h545l20 -118l-142 -34v-413h524v413l-142 34l20 118h546l20 -118l-144 -34v-1049l144 -34l-20 -118h-546l-20 118l142 34v487h-524v-487l142 -34l-20 -118h-545z" />
<glyph unicode="I" horiz-adv-x="717" d="M68 118l143 34v1049l-143 34l20 118h545l20 -118l-142 -34v-1049l142 -34l-20 -118h-545z" />
<glyph unicode="J" horiz-adv-x="897" d="M22 311l153 22l84 -196q36 -11 77 -11q24 0 47 4t35 9q8 29 14.5 92.5t6.5 137.5v832l-193 34l20 118h595l20 -118l-142 -34v-865q0 -175 -101.5 -266.5t-310.5 -91.5q-73 0 -150 15.5t-134 37.5z" />
<glyph unicode="K" horiz-adv-x="1394" d="M64 118l143 34v1049l-143 34l20 118h545l20 -118l-142 -34v-467l14 -6l503 486l-109 20l20 119h448l20 -118l-141 -36l-397 -378l442 -674l117 -29l-20 -118h-344l-404 622l-149 -142v-328l142 -34l-20 -118h-545z" />
<glyph unicode="L" horiz-adv-x="1066" d="M68 118l143 34v1049l-143 34l20 118h545l20 -118l-142 -34v-1052h266l83 193l154 -22l-25 -320h-901z" />
<glyph unicode="M" horiz-adv-x="2011" d="M64 118l143 34v1049l-143 34l20 118h544l371 -981h16l357 981h555l20 -118l-142 -34v-1049l142 -34l-20 -118h-545l-20 118l143 34v983h-16l-424 -1135h-205l-437 1135h-16v-983l142 -34l-20 -118h-445z" />
<glyph unicode="N" horiz-adv-x="1579" d="M68 118l143 34v1049l-143 34l20 118h520l592 -1101h16v949l-144 34l20 118h447l20 -118l-142 -34v-1201h-399l-591 1100h-16v-948l162 -34l-20 -118h-465z" />
<glyph unicode="O" horiz-adv-x="1407" d="M86 525v79q0 394 166 582.5t482 188.5q302 0 457.5 -137t155.5 -411v-78q0 -385 -163 -578t-489 -193q-303 0 -456 137t-153 410zM386 570q0 -209 97.5 -326t253.5 -117q80 0 149.5 22t102.5 47q21 75 39.5 203.5t18.5 250.5v133q0 217 -88.5 330t-261.5 113 q-75 0 -142.5 -20t-109.5 -48q-18 -64 -38.5 -193t-20.5 -262v-133z" />
<glyph unicode="P" horiz-adv-x="1166" d="M70 118l143 34v1049l-143 34l20 118h575q246 0 369.5 -90t123.5 -266q0 -189 -132.5 -297.5t-339.5 -108.5h-173v-439l212 -34l-20 -118h-615zM513 740h110q58 0 114.5 8.5t88.5 19.5q13 39 20.5 94t7.5 106q0 120 -66.5 178t-194.5 58h-80v-464z" />
<glyph unicode="Q" horiz-adv-x="1438" d="M74 525v79q0 386 162.5 578.5t485.5 192.5q302 0 457.5 -137t155.5 -411v-78q0 -232 -58.5 -394t-179.5 -256q47 -89 85.5 -116.5t88.5 -27.5q24 0 59.5 7.5t59.5 17.5v-120q-39 -23 -101.5 -38.5t-125.5 -15.5q-106 0 -179 43t-121 140l-3 6q-83 -17 -177 -17 q-302 0 -455.5 137.5t-153.5 409.5zM374 570q0 -25 1 -48t4 -44q28 55 88 86t133 31q128 0 222.5 -64.5t165.5 -207.5l12 -25q12 64 23.5 158.5t11.5 193.5v133q0 222 -89.5 332.5t-260.5 110.5q-72 0 -140 -19.5t-112 -48.5q-22 -81 -40.5 -209.5t-18.5 -245.5v-133z M433 353q0 -26 5 -48t19 -43q50 -69 120.5 -102t147.5 -33q18 0 35 1t33 3l-44 92q-54 111 -107 167t-112 56q-48 0 -72.5 -28t-24.5 -65z" />
<glyph unicode="R" horiz-adv-x="1281" d="M70 118l143 34v1049l-143 34l20 118h559q225 0 348 -92.5t123 -273.5q0 -120 -57 -205.5t-167 -137.5l-6 -19l252 -472l123 -35l-20 -118h-309l-310 591h-113v-439l142 -34l-20 -118h-545zM513 740h73q70 0 122 7t82 20q12 41 19 94.5t7 107.5q0 136 -62 185.5t-190 49.5 h-51v-464z" />
<glyph unicode="S" horiz-adv-x="1130" d="M79 1034q0 162 141.5 251.5t390.5 89.5q101 0 198.5 -14t173.5 -38l21 -290l-155 -22l-83 197q-39 9 -83.5 13.5t-87.5 4.5q-50 0 -100 -7t-97 -21q-8 -26 -13.5 -58t-5.5 -61q0 -63 49.5 -110t235.5 -156q231 -130 318.5 -228.5t87.5 -239.5q0 -175 -146 -271t-399 -96 q-116 0 -223 17t-182 46l-21 279l167 25l84 -197q41 -10 90.5 -15.5t99.5 -5.5q53 0 106 8t94 20q12 24 21 60t9 71q0 80 -63 140t-230 160q-255 147 -326 237t-72 211z" />
<glyph unicode="T" horiz-adv-x="1207" d="M8 1043l15 310h1162l14 -310l-148 -9l-63 170h-234v-1052l143 -34l-20 -118h-546l-20 118l143 34v1052h-235l-62 -170z" />
<glyph unicode="U" horiz-adv-x="1400" d="M0 1235l20 118h546l20 -118l-142 -34v-655q0 -208 79 -313.5t224 -105.5q73 0 137 16.5t101 39.5q33 62 55.5 151.5t22.5 186.5v680l-143 34l20 118h436l20 -118l-142 -34v-657q0 -286 -136 -426t-420 -140q-287 0 -420.5 129t-133.5 384v710z" />
<glyph unicode="V" horiz-adv-x="1258" d="M-26 1234l20 119h506l20 -119l-143 -27l305 -905h16l304 904l-143 28l20 119h403l20 -119l-95 -30l-423 -1204h-291l-424 1204z" />
<glyph unicode="W" horiz-adv-x="2082" d="M-30 1234l20 119h497l20 -119l-144 -28l284 -866h16l318 1011v2h271l309 -1013h16l254 866l-148 28l20 119h403l20 -119l-88 -28l-371 -1206h-291l-298 956h-16l-302 -956h-292l-406 1206z" />
<glyph unicode="X" horiz-adv-x="1351" d="M36 118l123 33l357 537l-340 514l-122 32l20 119h541l20 -119l-126 -26l227 -345l231 345l-124 26l20 119h425l20 -119l-124 -32l-338 -506l360 -545l123 -33l-20 -118h-541l-20 118l126 27l-248 376l-251 -376l122 -27l-20 -118h-421z" />
<glyph unicode="Y" horiz-adv-x="1172" d="M-54 1234l20 119h520l20 -119l-142 -27l277 -444l264 444l-135 27l20 119h422l20 -119l-113 -31l-367 -616v-435l142 -34l-20 -118h-545l-20 118l143 34v434l-389 617z" />
<glyph unicode="Z" horiz-adv-x="1165" d="M50 0v145l695 1045l-5 14h-441l-82 -193l-154 22l25 320h1007v-144l-696 -1046l5 -14h482l82 193l153 -22l-24 -320h-1047z" />
<glyph unicode="[" horiz-adv-x="678" d="M150 -457v2134h468v-116h-191v-1902h191v-116h-468z" />
<glyph unicode="\" horiz-adv-x="883" d="M30 1520v20h215l568 -1815v-20h-215z" />
<glyph unicode="]" horiz-adv-x="678" d="M60 -341h191v1902h-191v116h468v-2134h-468v116z" />
<glyph unicode="^" horiz-adv-x="1104" d="M100 1049v30l381 483h122l381 -483v-30h-199l-235 294h-16l-234 -294h-200z" />
<glyph unicode="_" horiz-adv-x="1176" d="M70 -225h1036v-174h-1036v174z" />
<glyph unicode="`" horiz-adv-x="888" d="M200 1594v66l285 10l203 -363v-32l-168 -10z" />
<glyph unicode="a" horiz-adv-x="1188" d="M70 237q0 190 161.5 285t479.5 95v93q0 132 -45.5 194.5t-147.5 62.5q-42 0 -78.5 -4.5t-63.5 -10.5l-60 -212l-168 10v303q85 24 191.5 39t206.5 15q232 0 343.5 -92.5t111.5 -279.5v-583l143 -34l-20 -118l-335 -22l-57 158q-62 -71 -155.5 -114.5t-200.5 -43.5 q-148 0 -227 66.5t-79 192.5zM360 275q0 -76 31 -116.5t89 -40.5q63 0 126.5 38.5t104.5 88.5v232q-100 0 -186.5 -16t-134.5 -42q-12 -25 -21 -62.5t-9 -81.5z" />
<glyph unicode="b" horiz-adv-x="1206" d="M4 1422l20 118l413 22v-595l14 -6q64 71 144 108.5t170 37.5q195 0 284 -108.5t89 -332.5v-94q0 -273 -141.5 -433.5t-381.5 -160.5q-106 0 -236 25t-232 60v1325zM437 145q35 -10 90 -18.5t108 -8.5q42 0 88 12t82 30q19 73 31 164.5t12 198.5v119q0 168 -40 246.5 t-135 78.5q-59 0 -121.5 -41.5t-114.5 -107.5v-673z" />
<glyph unicode="c" horiz-adv-x="992" d="M62 399v93q0 302 141.5 458.5t390.5 156.5q81 0 168 -16.5t161 -46.5l19 -254l-170 -23l-73 190q-33 6 -64.5 8t-59.5 2q-47 0 -93.5 -11.5t-79.5 -28.5q-20 -67 -35 -168t-15 -207v-109q0 -160 73.5 -242.5t213.5 -82.5q64 0 148 23t147 50v-116q-76 -44 -177.5 -70.5 t-206.5 -26.5q-230 0 -359 109t-129 312z" />
<glyph unicode="d" horiz-adv-x="1242" d="M66 413v93q0 282 141 441.5t397 159.5q38 0 84 -5.5t89 -13.5v300l-143 34l20 118l413 22v-1410l143 -34l-20 -118l-335 -22l-57 158q-56 -71 -146.5 -114.5t-190.5 -43.5q-194 0 -294.5 109t-100.5 326zM356 423q0 -150 47.5 -227.5t139.5 -77.5q59 0 121.5 35.5 t112.5 91.5v697q-36 9 -88.5 17t-104.5 8q-57 0 -106.5 -13.5t-81.5 -33.5q-17 -69 -28.5 -164.5t-11.5 -202.5v-130z" />
<glyph unicode="e" horiz-adv-x="1078" d="M64 414v83q0 288 144 449t400 161q228 0 326 -108.5t98 -355.5v-130h-678v-66q0 -160 77.5 -244.5t234.5 -84.5q68 0 158 20t155 45v-116q-73 -37 -188 -63t-234 -26q-237 0 -365 112t-128 324zM357 653h385q0 175 -40 244.5t-136 69.5q-42 0 -84.5 -10t-79.5 -29 q-16 -58 -28.5 -132t-16.5 -143z" />
<glyph unicode="f" horiz-adv-x="757" d="M58 967l20 118h133v108q0 184 98 276.5t286 92.5q51 0 106.5 -10.5t95.5 -26.5l-43 -151q-44 16 -107.5 28.5t-115.5 12.5q-13 -35 -21.5 -88t-8.5 -118v-124h194l20 -118l-214 -34v-781l193 -34l-20 -118h-586l-20 118l143 34v781z" />
<glyph unicode="g" horiz-adv-x="1092" d="M38 -259q0 62 51.5 127t144.5 126q-70 18 -108 57.5t-38 98.5q0 66 53.5 136.5t134.5 126.5q-97 44 -142.5 113t-45.5 151v24q0 195 124 300.5t332 105.5q36 0 75 -5.5t76 -16.5h330l18 -127h-171l-4 -10q49 -28 84.5 -81t35.5 -117v-15q0 -169 -127.5 -268t-332.5 -99 q-36 0 -69 2.5t-63 7.5q-44 -38 -71 -72t-27 -55q0 -24 23.5 -33.5t67.5 -9.5h207q243 0 367.5 -77.5t124.5 -231.5q0 -172 -146 -264t-416 -92q-253 0 -370.5 47.5t-117.5 150.5zM268 -205q0 -67 65.5 -89.5t252.5 -22.5q71 0 139 10.5t126 30.5q12 21 19.5 52.5t7.5 62.5 q0 78 -66.5 108.5t-216.5 30.5h-220h-2q-46 -45 -75.5 -94.5t-29.5 -88.5zM378 706q0 -89 51.5 -143.5t118.5 -54.5q35 0 63.5 5.5t46.5 14.5q17 34 28.5 86.5t11.5 111.5v38q0 98 -48.5 150.5t-121.5 52.5q-29 0 -58.5 -5t-51.5 -15q-17 -38 -28.5 -92t-11.5 -111v-38z" />
<glyph unicode="h" horiz-adv-x="1378" d="M56 118l143 34v1236l-143 34l20 118l413 22v-595l14 -6q76 72 162.5 109t177.5 37q169 0 258.5 -86.5t89.5 -254.5v-614l143 -34l-20 -118h-536l-20 118l143 34v599q0 109 -34.5 162.5t-113.5 53.5q-60 0 -132.5 -43.5t-131.5 -105.5v-666l143 -34l-20 -118h-536z" />
<glyph unicode="i" horiz-adv-x="696" d="M68 118l143 34v781l-143 34l20 118l413 22v-955l143 -34l-20 -118h-536zM186 1395q0 71 37.5 124.5t87.5 53.5q73 0 125 -37t52 -90q0 -71 -38 -123.5t-87 -52.5q-72 0 -124.5 37t-52.5 88z" />
<glyph unicode="j" horiz-adv-x="656" d="M-116 -420l36 151q57 -16 127 -28t133 -13q17 33 28.5 92t11.5 132v1019l-173 34l20 118l443 22v-1154q0 -213 -85.5 -311.5t-276.5 -98.5q-70 0 -145 11t-119 26zM195 1395q0 71 37.5 124.5t87.5 53.5q73 0 125 -37t52 -90q0 -71 -38 -123.5t-87 -52.5q-72 0 -124.5 37 t-52.5 88z" />
<glyph unicode="k" horiz-adv-x="1274" d="M56 118l143 34v1236l-143 34l20 118l413 22v-943l14 -6l388 337l-106 17l20 118h415l20 -118l-112 -27l-325 -264l329 -524l126 -34l-20 -118h-318l-321 510l-110 -89v-269l143 -34l-20 -118h-536z" />
<glyph unicode="l" horiz-adv-x="664" d="M56 118l143 34v1236l-143 34l20 118l413 22v-1410l143 -34l-20 -118h-536z" />
<glyph unicode="m" horiz-adv-x="2094" d="M68 118l143 34v781l-143 34l20 118l335 22l58 -158q94 87 184 122.5t190 35.5q111 0 186 -35.5t131 -122.5q86 80 185 119t200 39q170 0 259 -86.5t89 -254.5v-614l143 -34l-20 -118h-536l-20 118l143 34v599q0 111 -35 163.5t-113 52.5q-58 0 -130.5 -42.5 t-133.5 -106.5v-666l143 -34l-20 -118h-536l-20 118l143 34v599q0 114 -36 165t-112 51q-57 0 -126 -39.5t-138 -109.5v-666l143 -34l-20 -118h-536z" />
<glyph unicode="n" horiz-adv-x="1392" d="M68 118l143 34v781l-143 34l20 118l335 22l58 -158q94 87 184 122.5t190 35.5q170 0 259 -87t89 -254v-614l143 -34l-20 -118h-536l-20 118l143 34v599q0 115 -36.5 165.5t-111.5 50.5q-53 0 -121.5 -37t-142.5 -112v-666l143 -34l-20 -118h-536z" />
<glyph unicode="o" horiz-adv-x="1168" d="M62 419v93q0 279 145 437t385 158q238 0 375 -115t137 -336v-94q0 -267 -143 -425.5t-395 -158.5q-241 0 -372.5 116t-131.5 325zM352 453q0 -160 71 -247.5t174 -87.5q50 0 93.5 11t73.5 29q22 57 36 147.5t14 197.5v119q0 168 -69.5 256.5t-176.5 88.5q-48 0 -91 -11 t-75 -29q-23 -70 -36.5 -163t-13.5 -192v-119z" />
<glyph unicode="p" horiz-adv-x="1244" d="M34 -316l143 34v1215l-143 34l20 118l335 22l58 -158q75 79 163.5 118.5t183.5 39.5q192 0 288 -112.5t96 -338.5v-94q0 -269 -138.5 -426.5t-379.5 -157.5q-51 0 -98.5 7t-94.5 18v-285l143 -34l-20 -119h-536zM467 145q49 -13 97 -20t86 -7q54 0 105 11t86 29 q16 54 31.5 152t15.5 193v119q0 174 -43 259.5t-143 85.5q-54 0 -117 -41.5t-118 -107.5v-673z" />
<glyph unicode="q" horiz-adv-x="1167" d="M64 409v83q0 278 144 446.5t381 168.5q97 0 219.5 -16.5t246.5 -47.5v-1500l-413 22l-20 118l143 34v379l-10 4q-57 -53 -147 -87.5t-186 -34.5q-172 0 -265 109.5t-93 321.5zM354 453q0 -166 44.5 -250.5t126.5 -84.5q56 0 120.5 35.5t119.5 91.5v699q-43 11 -91.5 17 t-96.5 6q-53 0 -101 -13t-82 -34q-16 -61 -28 -157.5t-12 -190.5v-119z" />
<glyph unicode="r" horiz-adv-x="919" d="M68 118l143 34v781l-143 34l20 118l335 22l58 -158q44 82 108 120t149 38q40 0 84 -11t81 -31l-25 -303h-192l-27 189q-7 2 -14 3t-13 1q-30 0 -64.5 -36.5t-66.5 -100.5v-666l176 -34l-20 -118h-569z" />
<glyph unicode="s" horiz-adv-x="962" d="M66 818q0 134 118.5 211.5t340.5 77.5q79 0 169.5 -17t175.5 -51l9 -261l-169 -20l-61 194q-32 8 -66.5 11.5t-64.5 3.5q-38 0 -79.5 -5.5t-73.5 -15.5q-5 -16 -7 -35t-2 -38q0 -47 43 -87t192 -122q185 -100 256 -178t71 -200q0 -147 -122.5 -227.5t-345.5 -80.5 q-107 0 -202.5 19.5t-163.5 50.5l-10 260l169 20l59 -189q34 -10 74 -15.5t81 -5.5q46 0 87 5.5t77 15.5q4 16 5.5 36.5t1.5 39.5q0 65 -49.5 113t-201.5 134q-172 94 -241.5 166.5t-69.5 189.5z" />
<glyph unicode="t" horiz-adv-x="772" d="M8 966l20 119h131l73 293l217 -20v-273h250l20 -119l-270 -32v-642q0 -83 26.5 -128.5t104.5 -45.5q29 0 67 11.5t73 27.5v-114q-54 -31 -124 -48t-140 -17q-160 0 -228.5 70.5t-68.5 221.5v664z" />
<glyph unicode="u" horiz-adv-x="1316" d="M8 967l20 118l413 22v-734q0 -132 38 -193.5t121 -61.5q54 0 115.5 40t117.5 109v666l-173 34l20 118l443 22v-955l143 -34l-20 -118l-335 -22l-58 158q-77 -79 -167.5 -118.5t-194.5 -39.5q-170 0 -255 95t-85 281v579z" />
<glyph unicode="v" horiz-adv-x="1100" d="M-24 967l20 118h450l20 -118l-123 -19l243 -726h16l240 726l-122 19l20 118h364l20 -118l-92 -19l-332 -948h-297l-335 947z" />
<glyph unicode="w" horiz-adv-x="1769" d="M-24 967l20 118h451l20 -118l-125 -19l219 -691h16l239 828h243l242 -828h16l198 691l-128 19l20 118h366l20 -118l-90 -19l-289 -948h-292l-217 699h-16l-212 -699h-292l-316 948z" />
<glyph unicode="x" horiz-adv-x="1168" d="M26 118l100 18l315 407l-308 406l-93 18l20 118h450l20 -118l-99 -14l194 -255l201 255l-95 14l20 118h363l20 -118l-96 -18l-307 -390l322 -423l99 -18l-20 -118h-457l-20 118l98 14l-206 272l-211 -272l97 -14l-20 -118h-367z" />
<glyph unicode="y" horiz-adv-x="1104" d="M-20 967l20 118h450l20 -118l-123 -19l243 -726h16l240 726l-122 19l20 118h364l20 -118l-92 -19l-333 -952q-86 -250 -176 -351.5t-228 -101.5q-71 0 -143 18t-132 49l41 171q75 -33 161.5 -57t143.5 -24q22 13 49.5 48t46.5 80l-394 1120z" />
<glyph unicode="z" horiz-adv-x="1039" d="M56 0v95l593 848l-6 12h-355l-52 -190l-144 11v309h907v-83l-601 -860l6 -12h386l52 190l144 -11v-309h-930z" />
<glyph unicode="{" horiz-adv-x="864" d="M130 552v116h96q61 0 85.5 24.5t24.5 85.5v619q0 60 21 111.5t58.5 89t89 58.5t111.5 21h188v-116h-21q-91 0 -130.5 -39.5t-39.5 -130.5v-563q0 -62 -13 -103t-34 -65.5t-48 -34.5t-55 -10v-10q28 0 55 -10t48 -34.5t34 -65.5t13 -103v-563q0 -91 39.5 -130.5 t130.5 -39.5h21v-116h-188q-60 0 -111.5 21t-89 58.5t-58.5 89t-21 111.5v619q0 61 -24.5 85.5t-85.5 24.5h-96z" />
<glyph unicode="|" horiz-adv-x="658" d="M245 -537v2207h168v-2207h-168z" />
<glyph unicode="}" horiz-adv-x="864" d="M60 -341h21q91 0 130.5 39.5t39.5 130.5v563q0 62 15 103t37.5 65.5t48.5 34.5t49 10v10q-23 0 -49 10t-48.5 34.5t-37.5 65.5t-15 103v563q0 91 -39.5 130.5t-130.5 39.5h-21v116h188q60 0 111.5 -21t89 -58.5t58.5 -89t21 -111.5v-619q0 -61 24.5 -85.5t85.5 -24.5h96 v-116h-96q-61 0 -85.5 -24.5t-24.5 -85.5v-619q0 -60 -21 -111.5t-58.5 -89t-89 -58.5t-111.5 -21h-188v116z" />
<glyph unicode="~" horiz-adv-x="1281" d="M140 499v75q0 56 20 99t54.5 72t82 43.5t103.5 14.5q38 0 84 -10t94.5 -24.5t97.5 -31.5t92.5 -31.5t78 -24.5t54.5 -10q19 0 37.5 7.5t33 22.5t23.5 37.5t9 52.5l137 10v-97q0 -53 -18 -95.5t-51 -72t-78.5 -45.5t-100.5 -16q-34 0 -80 10t-97.5 24.5t-103.5 31.5 t-98.5 31.5t-82.5 24.5t-55 10q-20 0 -39.5 -4t-34.5 -15t-24 -30t-9 -49z" />
<glyph unicode="&#xa0;" />
<glyph unicode="&#xa1;" horiz-adv-x="647" d="M146 -435l72 1110h181l72 -1110l-305 -22zM151 903q0 40 9.5 77t26 65.5t38.5 45t48 16.5q43 0 80 -9.5t64.5 -26t43.5 -38.5t16 -47q0 -41 -9.5 -78.5t-26 -66t-38.5 -45t-47 -16.5q-43 0 -80.5 10t-65 26.5t-43.5 39t-16 47.5z" />
<glyph unicode="&#xa2;" horiz-adv-x="1080" d="M110 399v93q0 302 141 458q110 121 284 149v254h158v-248q57 -3 117 -15q87 -16 161 -46l19 -254l-170 -23l-73 190q-28 5 -54 7v-846q62 1 142 23q84 23 147 50v-116q-76 -44 -178 -71q-55 -14 -111 -20v-229h-158v225q-185 14 -296 107q-129 109 -129 312zM400 443 q0 -160 73 -243q27 -29 62 -49v805q-3 0 -6 -1q-46 -11 -79 -28q-20 -67 -35 -168t-15 -207v-109z" />
<glyph unicode="&#xa3;" horiz-adv-x="1135" d="M70 684l107 28q-12 43 -20.5 80.5t-14 72.5t-8 71.5t-2.5 78.5q0 72 27.5 137t86.5 114.5t151.5 79t223.5 29.5q80 0 144.5 -13t110.5 -29q54 -18 95 -41v-297l-146 -15l-75 236q-17 5 -39 9q-19 4 -45 7t-58 3q-35 0 -64 -5t-50 -11q-25 -7 -44 -15q-8 -23 -14 -50 q-5 -23 -9.5 -55.5t-4.5 -70.5q0 -78 11 -151.5t31 -152.5h389v-149h-348q14 -54 21 -102t7 -98q0 -48 -7 -89.5t-15 -71.5q-10 -36 -21 -65h318l83 193l144 -22l-25 -320h-911l-20 118l141 29q0 1 5.5 16t11.5 40.5t11 60t5 75.5q0 28 -2 54.5t-6.5 55t-11.5 59.5t-17 67 h-126z" />
<glyph unicode="&#xa4;" horiz-adv-x="1248" d="M130 983l154 129l155 -184q41 20 86 30.5t95 10.5q48 0 93 -10.5t86 -30.5l154 184l155 -131l-154 -183q32 -46 49.5 -99t17.5 -111q0 -63 -20 -119.5t-55 -103.5l161 -191l-154 -128l-165 196q-78 -35 -168 -35q-45 0 -87.5 9t-80.5 26l-165 -197l-155 130l160 192 q-35 47 -54 102.5t-19 118.5q0 58 17 111.5t49 98.5zM445 588q0 -46 14 -81t37.5 -58.5t55.5 -35.5t68 -12t67.5 12t55.5 35.5t37.5 58.5t13.5 81t-13.5 81t-37.5 58.5t-55.5 35.5t-67.5 12t-68 -12t-55.5 -35.5t-37.5 -58.5t-14 -81z" />
<glyph unicode="&#xa5;" horiz-adv-x="1216" d="M-30 1234l20 119h520l20 -119l-142 -27l277 -444l264 444l-135 27l20 119h422l20 -119l-113 -31l-303 -508h182v-167h-246v-128h246v-167h-246v-81l142 -34l-20 -118h-545l-20 118l143 34v81h-257v167h257v128h-257v167h188l-320 508z" />
<glyph unicode="&#xa6;" horiz-adv-x="658" d="M245 320h168v-857h-168v857zM245 813v857h168v-857h-168z" />
<glyph unicode="&#xa7;" horiz-adv-x="1209" d="M120 733q0 48 15 86.5t41 70.5t62.5 58t78.5 47q-59 46 -88.5 96t-29.5 118q0 57 23.5 107.5t80 87.5t150.5 58.5t234 21.5q91 0 160.5 -10.5t117.5 -23.5q56 -15 98 -34l-24 -280h-151l-24 187q-22 6 -50 10q-24 4 -59 7.5t-80 3.5q-39 0 -74 -3.5t-62 -7.5 q-32 -4 -58 -10q-3 -9 -6 -20q-2 -10 -4 -24t-2 -32q0 -24 14 -43.5t47 -40.5t89 -48.5t140 -67.5q106 -51 183 -98.5t127.5 -96.5t75 -101.5t24.5 -112.5q0 -50 -14.5 -90t-41.5 -71.5t-64.5 -56.5t-83.5 -44q36 -26 61.5 -51t42 -52.5t24 -59t7.5 -69.5 q0 -142 -127.5 -207t-377.5 -65q-90 0 -161 10.5t-122 24.5q-60 15 -106 35l22 280h150l25 -187q22 -7 53 -12q26 -5 64.5 -8t89.5 -3t90 3.5t66 8.5q32 5 54 12q2 10 5 22q2 11 3.5 24.5t1.5 30.5q0 25 -17 47t-57 47t-105 56.5t-161 75.5q-94 43 -163.5 86.5t-115.5 90.5 t-68.5 100t-22.5 117zM390 802q0 -33 10.5 -59t37.5 -52t73 -54.5t117 -67.5q61 -33 112.5 -61t95.5 -53q30 24 46.5 53t16.5 64q0 37 -13 64t-45 53t-85.5 56t-133.5 72q-51 27 -96 50.5t-85 46.5q-27 -25 -39 -52.5t-12 -59.5z" />
<glyph unicode="&#xa8;" horiz-adv-x="1035" d="M150 1389q0 31 8.5 58.5t23 48t34 32.5t40.5 12q31 0 58.5 -8.5t47.5 -23.5t31.5 -34.5t11.5 -41.5q0 -30 -8.5 -57t-22.5 -48t-33.5 -33t-40.5 -12q-32 0 -59 8.5t-47.5 23.5t-32 34.5t-11.5 40.5zM630 1389q0 31 8.5 58.5t22.5 48t33.5 32.5t40.5 12q31 0 58.5 -8.5 t48 -23.5t32 -34.5t11.5 -41.5q0 -30 -8.5 -57t-23 -48t-34 -33t-41.5 -12q-32 0 -59 8.5t-46.5 23.5t-31 34.5t-11.5 40.5z" />
<glyph unicode="&#xa9;" horiz-adv-x="1347" d="M60 949q0 127 48.5 239t131.5 195t195 131t239 48t239 -48t195 -131t131 -195t48 -239t-48 -239t-131 -195t-195 -131.5t-239 -48.5q-85 0 -163.5 22t-146.5 62t-124 96t-96 124t-62 146.5t-22 163.5zM237 949q0 -91 34 -170.5t93.5 -139t139 -93.5t170.5 -34 q90 0 169.5 34t139 93.5t93.5 139t34 170.5q0 90 -34 169.5t-93.5 139t-139 93.5t-169.5 34q-91 0 -170.5 -34t-139 -93.5t-93.5 -139t-34 -169.5zM359 890v63q0 170 88.5 261t249.5 91q46 0 82 -6t62 -13q30 -9 52 -19l12 -203l-98 -14l-44 137q-7 3 -17 6q-8 2 -20.5 4 t-29.5 2q-22 0 -39.5 -3t-29.5 -6q-14 -4 -25 -9q-7 -24 -12 -57q-5 -28 -8 -67t-3 -89v-53q0 -58 10 -98.5t28 -66t42 -37t52 -11.5q38 0 72.5 7t60.5 16q31 10 57 23v-94q-28 -17 -62 -30q-29 -11 -69.5 -20t-90.5 -9q-68 0 -126.5 20.5t-101.5 58.5t-67.5 92.5 t-24.5 123.5z" />
<glyph unicode="&#xaa;" horiz-adv-x="633" d="M10 940q0 100 81 152t259 52v28q0 23 -5 43.5t-16 36t-30 24.5t-46 9q-15 0 -28.5 -1t-24.5 -3q-12 -2 -22 -4l-30 -116l-99 5v182q28 7 62 13q29 5 69.5 9.5t89.5 4.5q58 0 105.5 -10t80.5 -32t51 -57.5t18 -86.5v-272l92 -17l-10 -79l-218 -11l-26 73q-8 -9 -23 -21.5 t-37.5 -24t-52 -19.5t-66.5 -8q-78 0 -126 33.5t-48 96.5zM185 968q0 -37 14.5 -52.5t39.5 -15.5q21 0 40.5 10t35.5 22q18 14 35 32v90q-41 0 -69.5 -4.5t-47.5 -9.5q-22 -6 -37 -14q-3 -7 -6 -16q-5 -17 -5 -42z" />
<glyph unicode="&#xab;" horiz-adv-x="1103" d="M50 536v60l395 421h195v-22l-300 -419v-20l300 -419v-22h-195zM532 548v36l266 389h195v-22l-167 -385l167 -385v-22h-195z" />
<glyph unicode="&#xac;" horiz-adv-x="1243" d="M160 610v187h923v-492h-197v305h-726z" />
<glyph unicode="&#xad;" horiz-adv-x="959" d="M160 496l30 189l629 41l-30 -189z" />
<glyph unicode="&#xae;" horiz-adv-x="1347" d="M60 949q0 127 48.5 239t131.5 195t195 131t239 48t239 -48t195 -131t131 -195t48 -239t-48 -239t-131 -195t-195 -131.5t-239 -48.5q-85 0 -163.5 22t-146.5 62t-124 96t-96 124t-62 146.5t-22 163.5zM237 949q0 -91 34 -170.5t93.5 -139t139 -93.5t170.5 -34 q90 0 169.5 34t139 93.5t93.5 139t34 170.5q0 90 -34 169.5t-93.5 139t-139 93.5t-169.5 34q-91 0 -170.5 -34t-139 -93.5t-93.5 -139t-34 -169.5zM364 700l70 15v464l-70 17l9 65h321q116 0 177.5 -42t61.5 -136q0 -66 -24.5 -105t-59.5 -66v-6l76 -195l60 -11l-9 -65h-196 l-95 261h-59v-181l70 -15l-9 -65h-314zM626 990h26q34 0 54 3q11 2 19 4q3 12 7 26l4 27q3 15 3 32q0 36 -22 60.5t-75 24.5h-16v-177z" />
<glyph unicode="&#xaf;" horiz-adv-x="1050" d="M130 1333l20 160h750l-20 -160h-750z" />
<glyph unicode="&#xb0;" horiz-adv-x="654" d="M80 1305q0 53 21 100t57 82t84.5 55t104.5 20q55 0 104 -20t85 -55t57 -82t21 -100t-21 -100t-57 -82t-85 -55t-104 -20q-56 0 -104.5 20t-84.5 55t-57 82t-21 100zM235 1305q0 -58 32 -88t80 -30t80 30t32 88t-32 88t-80 30t-80 -30t-32 -88z" />
<glyph unicode="&#xb1;" horiz-adv-x="1103" d="M160 600v187h298v318h187v-318h298v-187h-298v-318h-187v318h-298zM187 0v187h733v-187h-733z" />
<glyph unicode="&#xb2;" horiz-adv-x="581" d="M28 1085v82q70 70 130 130.5t104 112.5t68.5 96.5t24.5 82.5q0 50 -25.5 69.5t-61.5 19.5q-20 0 -37.5 -3.5t-31.5 -8.5q-16 -5 -30 -12l-28 -110l-95 5v166q31 16 71 28q34 11 80 20t100 9q52 0 96 -10.5t75.5 -31.5t49 -52.5t17.5 -74.5q0 -45 -22.5 -93t-60.5 -98 t-87.5 -101.5t-102.5 -105.5l2 -5h148l41 106l92 -11l-11 -210h-506z" />
<glyph unicode="&#xb3;" horiz-adv-x="548" d="M24 1114v175l93 6l26 -106q14 -7 31 -11q14 -4 32.5 -7t38.5 -3q42 0 72 26.5t30 78.5q0 33 -8.5 56.5t-23 37.5t-34.5 20.5t-43 6.5h-54v94h56q42 0 62.5 26.5t20.5 76.5q0 46 -23 66t-59 20q-17 0 -32 -2.5t-27 -5.5q-14 -4 -26 -8l-26 -106l-93 6v174q32 10 69 18 q32 7 72.5 13t85.5 6q118 0 178.5 -42.5t60.5 -119.5q0 -36 -11.5 -62.5t-29 -46t-38 -32.5t-37.5 -22q26 -8 51 -21.5t44.5 -33t31.5 -45.5t12 -60q0 -54 -21 -94t-59.5 -67t-91 -40t-115.5 -13q-40 0 -78.5 6t-68.5 14q-36 9 -68 21z" />
<glyph unicode="&#xb4;" horiz-adv-x="855" d="M200 1275v32l183 363l272 -10v-66l-300 -329z" />
<glyph unicode="&#xb5;" horiz-adv-x="1368" d="M20 967l20 118l433 22v-704q0 -83 13 -138t36 -87.5t54.5 -46t68.5 -13.5q50 0 90.5 19.5t69.5 43.5q33 28 60 64v688l-193 34l20 118l463 22v-955l163 -34l-20 -118q-26 -7 -56 -11q-26 -5 -59 -8t-69 -3q-53 0 -91.5 14.5t-65.5 37.5t-44 51t-28 55q-20 -26 -47.5 -54 t-63 -51t-80 -38t-99.5 -15q-34 0 -61 7.5t-46.5 18.5t-33 23t-20.5 20l-10 -6l49 -476l-290 -22v1390z" />
<glyph unicode="&#xb6;" horiz-adv-x="1262" d="M90 908q0 112 37 196t103.5 139t158 82.5t199.5 27.5h634l20 -118l-162 -34v-1073q0 -104 -35 -184t-95.5 -135t-142.5 -83t-175 -28q-65 0 -118.5 7t-91.5 16q-45 11 -81 24v132q30 -9 65 -16q30 -6 70.5 -10.5t88.5 -4.5q53 0 93.5 15t67.5 49t40.5 88.5t13.5 134.5 v1071h-140v-719h-65q-93 0 -180.5 24t-155 75t-108.5 131t-41 193z" />
<glyph unicode="&#xb7;" horiz-adv-x="572" d="M140 648q0 37 8.5 70t23.5 58.5t34.5 40.5t41.5 15q39 0 72.5 -8.5t58.5 -23.5t39 -35t14 -43q0 -36 -8.5 -69.5t-23.5 -59t-35 -40.5t-42 -15q-39 0 -72 8.5t-58 23.5t-39 35t-14 43z" />
<glyph unicode="&#xb8;" horiz-adv-x="858" d="M200 -297q28 -11 59 -20q26 -8 58 -14t64 -6q37 0 58 3q11 2 21 4q1 7 3 15q2 7 3 14.5t1 15.5q0 17 -7 30.5t-24 24t-45 19t-71 15.5l-46 72l59 161h172l-52 -132q47 -9 85 -23t64.5 -35.5t41 -51t14.5 -70.5q0 -40 -17.5 -73.5t-50 -57.5t-78.5 -37.5t-102 -13.5 q-46 0 -84 7t-66 16q-33 11 -60 24v113z" />
<glyph unicode="&#xb9;" horiz-adv-x="446" d="M25 1705l182 57h116v-581l101 -17l-10 -79h-363l-10 79l102 17v467h-113z" />
<glyph unicode="&#xba;" horiz-adv-x="587" d="M10 1031v46q0 73 21 128.5t58.5 93t89 57t112.5 19.5q62 0 113.5 -13.5t88.5 -41t57.5 -70.5t20.5 -101v-47q0 -61 -17.5 -114.5t-53 -93t-89 -62t-125.5 -22.5q-70 0 -121.5 15.5t-86 44.5t-51.5 70t-17 91zM185 1048q0 -39 10 -67t26.5 -46t37 -26.5t42.5 -8.5 q13 0 26 3t24 7q12 4 25 10q6 17 10 40q4 20 7 48t3 65v59q0 44 -10 73.5t-26.5 47t-37 25t-41.5 7.5q-14 0 -27.5 -3t-24.5 -7q-13 -4 -24 -10q-6 -19 -10 -43q-4 -21 -7 -50t-3 -65v-59z" />
<glyph unicode="&#xbb;" horiz-adv-x="1103" d="M110 159v22l167 385l-167 385v22h195l266 -389v-36l-266 -389h-195zM463 115v22l300 419v20l-300 419v22h195l395 -421v-60l-395 -421h-195z" />
<glyph unicode="&#xbc;" horiz-adv-x="1339" d="M40 1296l182 57h116v-581l101 -17l-10 -79h-363l-10 79l102 17v467h-113zM99 0v20l979 1333h145v-20l-979 -1333h-145zM735 244l280 433h157l-275 -411h114v108h180v-108h86l12 -80l-98 -17v-73l96 -17l-10 -79h-372l-10 79l116 17v75h-264z" />
<glyph unicode="&#xbd;" horiz-adv-x="1339" d="M40 1296l182 57h116v-581l101 -17l-10 -79h-363l-10 79l102 17v467h-113zM99 0v20l979 1333h145v-20l-979 -1333h-145zM821 0v82q70 70 130 130.5t104 112.5t68.5 96.5t24.5 82.5q0 50 -25.5 69.5t-61.5 19.5q-20 0 -37.5 -3.5t-31.5 -8.5q-16 -5 -30 -12l-28 -110l-95 5 v166q31 16 71 28q34 11 80 20t100 9q52 0 96 -10.5t75.5 -31.5t49 -52.5t17.5 -74.5q0 -45 -22.5 -93t-60.5 -98t-87.5 -101.5t-102.5 -105.5l2 -5h148l41 106l92 -11l-11 -210h-506z" />
<glyph unicode="&#xbe;" horiz-adv-x="1339" d="M16 717v175l93 6l26 -106q14 -7 31 -11q14 -4 32.5 -7t38.5 -3q42 0 72 26.5t30 78.5q0 33 -8.5 56.5t-23 37.5t-34.5 20.5t-43 6.5h-54v94h56q42 0 62.5 26.5t20.5 76.5q0 46 -23 66t-59 20q-17 0 -32 -2.5t-27 -5.5q-14 -4 -26 -8l-26 -106l-93 6v174q32 10 69 18 q32 7 72.5 13t85.5 6q118 0 178.5 -42.5t60.5 -119.5q0 -36 -11.5 -62.5t-29 -46t-38 -32.5t-37.5 -22q26 -8 51 -21.5t44.5 -33t31.5 -45.5t12 -60q0 -54 -21 -94t-59.5 -67t-91 -40t-115.5 -13q-40 0 -78.5 6t-68.5 14q-36 9 -68 21zM99 0v20l979 1333h145v-20l-979 -1333 h-145zM735 244l280 433h157l-275 -411h114v108h180v-108h86l12 -80l-98 -17v-73l96 -17l-10 -79h-372l-10 79l116 17v75h-264z" />
<glyph unicode="&#xbf;" horiz-adv-x="1029" d="M56 -191q0 61 14.5 108.5t46.5 94t84 98t127 119.5l161 146q40 36 54.5 64.5t14.5 60.5q0 34 -19 51.5t-54 17.5q-20 0 -42.5 -5t-41.5 -11q-22 -7 -44 -15v121q27 14 62 25q30 9 73 17t97 8q58 0 105.5 -12t81.5 -37t53 -62t19 -88q0 -41 -11.5 -77.5t-35.5 -73 t-61 -76.5t-88 -87l-182 -168q-36 -33 -59.5 -59.5t-38 -50.5t-20.5 -48t-6 -53q0 -27 11 -51.5t34.5 -42.5t59 -29t84.5 -11q45 0 77.5 5t55.5 11q26 7 45 16l70 225l152 -17v-297q-54 -24 -121 -42q-57 -16 -136.5 -28.5t-174.5 -12.5q-104 0 -186.5 18t-140.5 52 t-89 83.5t-31 112.5zM440 903q0 40 9.5 77t26 65.5t38.5 45t48 16.5q43 0 80 -9.5t64.5 -26t43.5 -38.5t16 -47q0 -41 -9.5 -78.5t-26 -66t-38.5 -45t-47 -16.5q-43 0 -80.5 10t-65 26.5t-43.5 39t-16 47.5z" />
<glyph unicode="&#xc0;" horiz-adv-x="1266" d="M-26 118l100 28l433 1207h263l423 -1207l99 -28l-20 -118h-494l-20 118l132 28l-82 240h-453l-84 -240l132 -28l-20 -118h-389zM406 535h352l-166 488h-16zM237 1708v66l282 10l278 -281v-32l-165 -11z" />
<glyph unicode="&#xc1;" horiz-adv-x="1266" d="M-26 118l100 28l433 1207h263l423 -1207l99 -28l-20 -118h-494l-20 118l132 28l-82 240h-453l-84 -240l132 -28l-20 -118h-389zM406 535h352l-166 488h-16zM480 1471v32l278 281l282 -10v-66l-395 -248z" />
<glyph unicode="&#xc2;" horiz-adv-x="1266" d="M-26 118l100 28l433 1207h263l423 -1207l99 -28l-20 -118h-494l-20 118l132 28l-82 240h-453l-84 -240l132 -28l-20 -118h-389zM406 535h352l-166 488h-16zM277 1470v32l263 292l223 -10l253 -282v-32l-175 -10l-213 171l-206 -171z" />
<glyph unicode="&#xc3;" horiz-adv-x="1266" d="M-26 118l100 28l433 1207h263l423 -1207l99 -28l-20 -118h-494l-20 118l132 28l-82 240h-453l-84 -240l132 -28l-20 -118h-389zM406 535h352l-166 488h-16zM167 1473v50q0 127 67 190.5t183 63.5q66 0 133 -20.5t128.5 -45.5t113 -45.5t86.5 -20.5q43 0 68 29.5t25 90.5 l137 10v-72q0 -119 -61.5 -186.5t-176.5 -67.5q-58 0 -127 20.5t-135.5 45.5t-123.5 45.5t-91 20.5q-23 0 -40.5 -4t-30.5 -15t-19.5 -30t-6.5 -49z" />
<glyph unicode="&#xc4;" horiz-adv-x="1266" d="M-26 118l100 28l433 1207h263l423 -1207l99 -28l-20 -118h-494l-20 118l132 28l-82 240h-453l-84 -240l132 -28l-20 -118h-389zM406 535h352l-166 488h-16zM243 1577q0 31 8.5 58.5t23 48t34 32.5t40.5 12q31 0 58.5 -8.5t47.5 -23t31.5 -34.5t11.5 -42q0 -30 -8.5 -57 t-22.5 -48t-33.5 -33t-40.5 -12q-32 0 -59 8.5t-47.5 23.5t-32 34.5t-11.5 40.5zM785 1577q0 31 8.5 58.5t22.5 48t33.5 32.5t40.5 12q31 0 58.5 -8.5t48 -23t32 -34.5t11.5 -42q0 -30 -8.5 -57t-23 -48t-34 -33t-41.5 -12q-32 0 -59 8.5t-46.5 23.5t-31 34.5t-11.5 40.5z " />
<glyph unicode="&#xc5;" horiz-adv-x="1266" d="M-26 118l100 28l433 1207h263l423 -1207l99 -28l-20 -118h-494l-20 118l132 28l-82 240h-453l-84 -240l132 -28l-20 -118h-389zM406 535h352l-166 488h-16zM415 1570q0 58 19.5 101t52 71.5t76 42.5t91.5 14q44 0 83.5 -9.5t69.5 -29.5t47.5 -51t17.5 -75 q0 -61 -18.5 -104.5t-50.5 -71.5t-75.5 -41t-93.5 -13q-46 0 -86 9.5t-69.5 30t-46.5 51.5t-17 75zM570 1602q0 -51 22 -78t57 -27q14 0 24.5 1t18.5 3q9 2 17 5q2 11 4 26q2 13 3.5 30.5t1.5 39.5q0 51 -22 78t-57 27q-11 0 -20 -1.5t-16 -3.5q-8 -2 -14 -4q-6 -11 -10 -25 q-4 -12 -6.5 -30t-2.5 -41z" />
<glyph unicode="&#xc6;" horiz-adv-x="1784" d="M-34 118l125 31l645 1204h922l24 -320l-123 -22l-83 193h-382v-422h287l34 132l119 -20v-374l-119 -20l-34 133h-287v-484h411l83 193l124 -23l-24 -319h-1037l-20 118l163 34v234h-382l-127 -243l117 -25l-20 -118h-396zM490 535h304v579z" />
<glyph unicode="&#xc7;" horiz-adv-x="1186" d="M70 515v89q0 379 167 575t498 196q91 0 186.5 -15t176.5 -44l21 -290l-155 -22l-85 199q-32 11 -78.5 17t-92.5 6q-75 0 -150.5 -22t-128.5 -56q-25 -92 -42 -214t-17 -251v-133q0 -208 98.5 -315.5t292.5 -107.5q85 0 180.5 28t180.5 76v-126q-89 -58 -207 -93 q-88 -25 -179 -32l-29 -75q47 -9 85 -23t64.5 -35.5t41 -51t14.5 -70.5q0 -40 -17.5 -73.5t-50 -57.5t-78.5 -37.5t-102 -13.5q-46 0 -84 7t-66 16q-33 11 -60 24v113q28 -11 59 -20q26 -8 58 -14t64 -6q37 0 58 3q11 2 21 4q1 7 3 15q2 7 3 14.5t1 15.5q0 17 -7 30.5 t-24 24t-45 19t-71 15.5l-46 72l39 107q-220 21 -344 132q-153 137 -153 400z" />
<glyph unicode="&#xc8;" horiz-adv-x="1203" d="M70 118l143 34v1049l-143 34l20 118h987l24 -320l-133 -22l-83 193h-372v-422h287l34 112l119 -20v-334l-119 -20l-34 113h-287v-484h401l83 193l134 -23l-24 -319h-1017zM192 1708v66l282 10l278 -281v-32l-165 -11z" />
<glyph unicode="&#xc9;" horiz-adv-x="1203" d="M70 118l143 34v1049l-143 34l20 118h987l24 -320l-133 -22l-83 193h-372v-422h287l34 112l119 -20v-334l-119 -20l-34 113h-287v-484h401l83 193l134 -23l-24 -319h-1017zM435 1471v32l278 281l282 -10v-66l-395 -248z" />
<glyph unicode="&#xca;" horiz-adv-x="1203" d="M70 118l143 34v1049l-143 34l20 118h987l24 -320l-133 -22l-83 193h-372v-422h287l34 112l119 -20v-334l-119 -20l-34 113h-287v-484h401l83 193l134 -23l-24 -319h-1017zM232 1470v32l263 292l223 -10l253 -282v-32l-175 -10l-213 171l-206 -171z" />
<glyph unicode="&#xcb;" horiz-adv-x="1203" d="M70 118l143 34v1049l-143 34l20 118h987l24 -320l-133 -22l-83 193h-372v-422h287l34 112l119 -20v-334l-119 -20l-34 113h-287v-484h401l83 193l134 -23l-24 -319h-1017zM198 1577q0 31 8.5 58.5t23 48t34 32.5t40.5 12q31 0 58.5 -8.5t47.5 -23t31.5 -34.5t11.5 -42 q0 -30 -8.5 -57t-22.5 -48t-33.5 -33t-40.5 -12q-32 0 -59 8.5t-47.5 23.5t-32 34.5t-11.5 40.5zM740 1577q0 31 8.5 58.5t22.5 48t33.5 32.5t40.5 12q31 0 58.5 -8.5t48 -23t32 -34.5t11.5 -42q0 -30 -8.5 -57t-23 -48t-34 -33t-41.5 -12q-32 0 -59 8.5t-46.5 23.5 t-31 34.5t-11.5 40.5z" />
<glyph unicode="&#xcc;" horiz-adv-x="717" d="M68 118l143 34v1049l-143 34l20 118h545l20 -118l-142 -34v-1049l142 -34l-20 -118h-545zM-46 1708v66l282 10l278 -281v-32l-165 -11z" />
<glyph unicode="&#xcd;" horiz-adv-x="717" d="M68 118l143 34v1049l-143 34l20 118h545l20 -118l-142 -34v-1049l142 -34l-20 -118h-545zM196 1471v32l278 281l282 -10v-66l-395 -248z" />
<glyph unicode="&#xce;" horiz-adv-x="717" d="M68 118l143 34v1049l-143 34l20 118h545l20 -118l-142 -34v-1049l142 -34l-20 -118h-545zM-7 1470v32l263 292l223 -10l253 -282v-32l-175 -10l-213 171l-206 -171z" />
<glyph unicode="&#xcf;" horiz-adv-x="717" d="M68 118l143 34v1049l-143 34l20 118h545l20 -118l-142 -34v-1049l142 -34l-20 -118h-545zM-41 1577q0 31 8.5 58.5t23 48t34 32.5t40.5 12q31 0 58.5 -8.5t47.5 -23t31.5 -34.5t11.5 -42q0 -30 -8.5 -57t-22.5 -48t-33.5 -33t-40.5 -12q-32 0 -59 8.5t-47.5 23.5 t-32 34.5t-11.5 40.5zM501 1577q0 31 8.5 58.5t22.5 48t33.5 32.5t40.5 12q31 0 58.5 -8.5t48 -23t32 -34.5t11.5 -42q0 -30 -8.5 -57t-23 -48t-34 -33t-41.5 -12q-32 0 -59 8.5t-46.5 23.5t-31 34.5t-11.5 40.5z" />
<glyph unicode="&#xd0;" horiz-adv-x="1428" d="M50 609v169h163v423l-143 34l20 118h618q317 0 478.5 -151t161.5 -437v-78q0 -317 -170.5 -502t-459.5 -185h-628l-20 118l143 34v457h-163zM513 149h161q59 0 123 8t115 21q52 72 94 194t42 250v94q0 248 -100 368t-307 120h-128v-426h240v-169h-240v-460z" />
<glyph unicode="&#xd1;" horiz-adv-x="1579" d="M68 118l143 34v1049l-143 34l20 118h520l592 -1101h16v949l-144 34l20 118h447l20 -118l-142 -34v-1201h-399l-591 1100h-16v-948l162 -34l-20 -118h-465zM356 1473v50q0 127 67 190.5t183 63.5q66 0 133 -20.5t128.5 -45.5t113 -45.5t86.5 -20.5q43 0 68 29.5t25 90.5 l137 10v-72q0 -119 -61.5 -186.5t-176.5 -67.5q-58 0 -127 20.5t-135.5 45.5t-123.5 45.5t-91 20.5q-23 0 -40.5 -4t-30.5 -15t-19.5 -30t-6.5 -49z" />
<glyph unicode="&#xd2;" horiz-adv-x="1407" d="M86 525v79q0 394 166 582.5t482 188.5q302 0 457.5 -137t155.5 -411v-78q0 -385 -163 -578t-489 -193q-303 0 -456 137t-153 410zM386 570q0 -209 97.5 -326t253.5 -117q80 0 149.5 22t102.5 47q21 75 39.5 203.5t18.5 250.5v133q0 217 -88.5 330t-261.5 113 q-75 0 -142.5 -20t-109.5 -48q-18 -64 -38.5 -193t-20.5 -262v-133zM304 1708v66l282 10l278 -281v-32l-165 -11z" />
<glyph unicode="&#xd3;" horiz-adv-x="1407" d="M86 525v79q0 394 166 582.5t482 188.5q302 0 457.5 -137t155.5 -411v-78q0 -385 -163 -578t-489 -193q-303 0 -456 137t-153 410zM386 570q0 -209 97.5 -326t253.5 -117q80 0 149.5 22t102.5 47q21 75 39.5 203.5t18.5 250.5v133q0 217 -88.5 330t-261.5 113 q-75 0 -142.5 -20t-109.5 -48q-18 -64 -38.5 -193t-20.5 -262v-133zM547 1471v32l278 281l282 -10v-66l-395 -248z" />
<glyph unicode="&#xd4;" horiz-adv-x="1407" d="M86 525v79q0 394 166 582.5t482 188.5q302 0 457.5 -137t155.5 -411v-78q0 -385 -163 -578t-489 -193q-303 0 -456 137t-153 410zM386 570q0 -209 97.5 -326t253.5 -117q80 0 149.5 22t102.5 47q21 75 39.5 203.5t18.5 250.5v133q0 217 -88.5 330t-261.5 113 q-75 0 -142.5 -20t-109.5 -48q-18 -64 -38.5 -193t-20.5 -262v-133zM344 1470v32l263 292l223 -10l253 -282v-32l-175 -10l-213 171l-206 -171z" />
<glyph unicode="&#xd5;" horiz-adv-x="1407" d="M86 525v79q0 394 166 582.5t482 188.5q302 0 457.5 -137t155.5 -411v-78q0 -385 -163 -578t-489 -193q-303 0 -456 137t-153 410zM386 570q0 -209 97.5 -326t253.5 -117q80 0 149.5 22t102.5 47q21 75 39.5 203.5t18.5 250.5v133q0 217 -88.5 330t-261.5 113 q-75 0 -142.5 -20t-109.5 -48q-18 -64 -38.5 -193t-20.5 -262v-133zM234 1473v50q0 127 67 190.5t183 63.5q66 0 133 -20.5t128.5 -45.5t113 -45.5t86.5 -20.5q43 0 68 29.5t25 90.5l137 10v-72q0 -119 -61.5 -186.5t-176.5 -67.5q-58 0 -127 20.5t-135.5 45.5t-123.5 45.5 t-91 20.5q-23 0 -40.5 -4t-30.5 -15t-19.5 -30t-6.5 -49z" />
<glyph unicode="&#xd6;" horiz-adv-x="1407" d="M86 525v79q0 394 166 582.5t482 188.5q302 0 457.5 -137t155.5 -411v-78q0 -385 -163 -578t-489 -193q-303 0 -456 137t-153 410zM386 570q0 -209 97.5 -326t253.5 -117q80 0 149.5 22t102.5 47q21 75 39.5 203.5t18.5 250.5v133q0 217 -88.5 330t-261.5 113 q-75 0 -142.5 -20t-109.5 -48q-18 -64 -38.5 -193t-20.5 -262v-133zM310 1577q0 31 8.5 58.5t23 48t34 32.5t40.5 12q31 0 58.5 -8.5t47.5 -23t31.5 -34.5t11.5 -42q0 -30 -8.5 -57t-22.5 -48t-33.5 -33t-40.5 -12q-32 0 -59 8.5t-47.5 23.5t-32 34.5t-11.5 40.5zM852 1577 q0 31 8.5 58.5t22.5 48t33.5 32.5t40.5 12q31 0 58.5 -8.5t48 -23t32 -34.5t11.5 -42q0 -30 -8.5 -57t-23 -48t-34 -33t-41.5 -12q-32 0 -59 8.5t-46.5 23.5t-31 34.5t-11.5 40.5z" />
<glyph unicode="&#xd7;" horiz-adv-x="1109" d="M170 353l240 240l-240 241l144 144l240 -241l241 241l144 -144l-241 -241l241 -240l-144 -144l-241 240l-240 -240z" />
<glyph unicode="&#xd8;" horiz-adv-x="1407" d="M86 525v79q0 188 39 332t119 241.5t202 147.5t288 50q28 0 54 -1.5t52 -3.5l53 170h195v-20l-59 -189q158 -56 238 -181t80 -323v-78q0 -189 -39.5 -333t-120 -241.5t-203.5 -147t-289 -49.5q-47 0 -89 3l-66 -211h-195v20l71 227q-165 54 -247.5 180.5t-82.5 327.5z M386 570q0 -112 27 -194t73 -136l305 976q-23 5 -46.5 7.5t-47.5 2.5q-60 0 -106.5 -10.5t-78.5 -23.5q-38 -15 -67 -34q-17 -62 -30 -134q-11 -63 -20 -145t-9 -176v-133zM654 136q40 -9 83 -9q59 0 105 10.5t79 23.5q38 15 68 35q16 63 29 136q11 63 20 144.5t9 173.5v133 q0 115 -23 195.5t-64 132.5z" />
<glyph unicode="&#xd9;" horiz-adv-x="1400" d="M0 1235l20 118h546l20 -118l-142 -34v-655q0 -208 79 -313.5t224 -105.5q73 0 137 16.5t101 39.5q33 62 55.5 151.5t22.5 186.5v680l-143 34l20 118h436l20 -118l-142 -34v-657q0 -286 -136 -426t-420 -140q-287 0 -420.5 129t-133.5 384v710zM351 1708v66l282 10 l278 -281v-32l-165 -11z" />
<glyph unicode="&#xda;" horiz-adv-x="1400" d="M0 1235l20 118h546l20 -118l-142 -34v-655q0 -208 79 -313.5t224 -105.5q73 0 137 16.5t101 39.5q33 62 55.5 151.5t22.5 186.5v680l-143 34l20 118h436l20 -118l-142 -34v-657q0 -286 -136 -426t-420 -140q-287 0 -420.5 129t-133.5 384v710zM594 1471v32l278 281 l282 -10v-66l-395 -248z" />
<glyph unicode="&#xdb;" horiz-adv-x="1400" d="M0 1235l20 118h546l20 -118l-142 -34v-655q0 -208 79 -313.5t224 -105.5q73 0 137 16.5t101 39.5q33 62 55.5 151.5t22.5 186.5v680l-143 34l20 118h436l20 -118l-142 -34v-657q0 -286 -136 -426t-420 -140q-287 0 -420.5 129t-133.5 384v710zM391 1470v32l263 292 l223 -10l253 -282v-32l-175 -10l-213 171l-206 -171z" />
<glyph unicode="&#xdc;" horiz-adv-x="1400" d="M0 1235l20 118h546l20 -118l-142 -34v-655q0 -208 79 -313.5t224 -105.5q73 0 137 16.5t101 39.5q33 62 55.5 151.5t22.5 186.5v680l-143 34l20 118h436l20 -118l-142 -34v-657q0 -286 -136 -426t-420 -140q-287 0 -420.5 129t-133.5 384v710zM357 1577q0 31 8.5 58.5 t23 48t34 32.5t40.5 12q31 0 58.5 -8.5t47.5 -23t31.5 -34.5t11.5 -42q0 -30 -8.5 -57t-22.5 -48t-33.5 -33t-40.5 -12q-32 0 -59 8.5t-47.5 23.5t-32 34.5t-11.5 40.5zM899 1577q0 31 8.5 58.5t22.5 48t33.5 32.5t40.5 12q31 0 58.5 -8.5t48 -23t32 -34.5t11.5 -42 q0 -30 -8.5 -57t-23 -48t-34 -33t-41.5 -12q-32 0 -59 8.5t-46.5 23.5t-31 34.5t-11.5 40.5z" />
<glyph unicode="&#xdd;" horiz-adv-x="1172" d="M-54 1234l20 119h520l20 -119l-142 -27l277 -444l264 444l-135 27l20 119h422l20 -119l-113 -31l-367 -616v-435l142 -34l-20 -118h-545l-20 118l143 34v434l-389 617zM478 1471v32l278 281l282 -10v-66l-395 -248z" />
<glyph unicode="&#xde;" horiz-adv-x="1098" d="M7 118l163 34v1049l-163 34l20 118h585l20 -118l-162 -34v-116h117q115 0 206.5 -20.5t155.5 -63t97.5 -107.5t33.5 -154q0 -101 -38.5 -179t-103.5 -131t-150.5 -80t-179.5 -27h-138v-171l222 -34l-20 -118h-645zM470 472h75q45 0 82 4.5t64 9.5q32 6 57 14q8 29 14 62 q5 28 9.5 64t4.5 74q0 52 -13.5 95.5t-44.5 74.5t-81 48.5t-122 17.5h-45v-464z" />
<glyph unicode="&#xdf;" horiz-adv-x="1289" d="M16 967l20 118h153v64q0 95 30 171.5t91.5 130t155.5 82.5t223 29q88 0 167 -17t138.5 -55t94.5 -99.5t35 -150.5q0 -67 -21 -125t-56.5 -107.5t-81.5 -91.5t-97 -76q27 -15 59 -33q26 -16 60 -38t69 -50q54 -44 96.5 -87.5t72 -91t44.5 -101t15 -117.5q0 -82 -31 -146 t-87 -108t-133.5 -67t-169.5 -23q-71 0 -127 10.5t-95 24.5q-46 15 -81 35v251l151 10l46 -168q11 -7 27 -12q13 -5 32 -8t44 -3q23 0 41 2.5t31 6.5q15 4 27 10q9 16 17 35q7 17 12.5 39t5.5 48q0 39 -5.5 73t-22 69t-46 72.5t-78.5 82.5q-36 33 -73.5 59.5t-68.5 46.5 q-36 22 -69 40v116q51 50 89 98t63.5 96t38 98t12.5 105q0 108 -45 157.5t-130 49.5q-39 0 -66.5 -5t-44.5 -10q-20 -6 -33 -14q-10 -30 -18 -70q-7 -34 -12.5 -81.5t-5.5 -106.5v-1135h-433l-20 118l163 34v781z" />
<glyph unicode="&#xe0;" horiz-adv-x="1188" d="M70 237q0 190 161.5 285t479.5 95v93q0 132 -45.5 194.5t-147.5 62.5q-42 0 -78.5 -4.5t-63.5 -10.5l-60 -212l-168 10v303q85 24 191.5 39t206.5 15q232 0 343.5 -92.5t111.5 -279.5v-583l143 -34l-20 -118l-335 -22l-57 158q-62 -71 -155.5 -114.5t-200.5 -43.5 q-148 0 -227 66.5t-79 192.5zM360 275q0 -76 31 -116.5t89 -40.5q63 0 126.5 38.5t104.5 88.5v232q-100 0 -186.5 -16t-134.5 -42q-12 -25 -21 -62.5t-9 -81.5zM197 1594v66l285 10l203 -363v-32l-168 -10z" />
<glyph unicode="&#xe1;" horiz-adv-x="1188" d="M70 237q0 190 161.5 285t479.5 95v93q0 132 -45.5 194.5t-147.5 62.5q-42 0 -78.5 -4.5t-63.5 -10.5l-60 -212l-168 10v303q85 24 191.5 39t206.5 15q232 0 343.5 -92.5t111.5 -279.5v-583l143 -34l-20 -118l-335 -22l-57 158q-62 -71 -155.5 -114.5t-200.5 -43.5 q-148 0 -227 66.5t-79 192.5zM360 275q0 -76 31 -116.5t89 -40.5q63 0 126.5 38.5t104.5 88.5v232q-100 0 -186.5 -16t-134.5 -42q-12 -25 -21 -62.5t-9 -81.5zM440 1275v32l183 363l272 -10v-66l-300 -329z" />
<glyph unicode="&#xe2;" horiz-adv-x="1188" d="M70 237q0 190 161.5 285t479.5 95v93q0 132 -45.5 194.5t-147.5 62.5q-42 0 -78.5 -4.5t-63.5 -10.5l-60 -212l-168 10v303q85 24 191.5 39t206.5 15q232 0 343.5 -92.5t111.5 -279.5v-583l143 -34l-20 -118l-335 -22l-57 158q-62 -71 -155.5 -114.5t-200.5 -43.5 q-148 0 -227 66.5t-79 192.5zM360 275q0 -76 31 -116.5t89 -40.5q63 0 126.5 38.5t104.5 88.5v232q-100 0 -186.5 -16t-134.5 -42q-12 -25 -21 -62.5t-9 -81.5zM217 1275v32l223 373l243 -10l223 -363v-32l-175 -10l-188 219l-181 -219z" />
<glyph unicode="&#xe3;" horiz-adv-x="1188" d="M70 237q0 190 161.5 285t479.5 95v93q0 132 -45.5 194.5t-147.5 62.5q-42 0 -78.5 -4.5t-63.5 -10.5l-60 -212l-168 10v303q85 24 191.5 39t206.5 15q232 0 343.5 -92.5t111.5 -279.5v-583l143 -34l-20 -118l-335 -22l-57 158q-62 -71 -155.5 -114.5t-200.5 -43.5 q-148 0 -227 66.5t-79 192.5zM360 275q0 -76 31 -116.5t89 -40.5q63 0 126.5 38.5t104.5 88.5v232q-100 0 -186.5 -16t-134.5 -42q-12 -25 -21 -62.5t-9 -81.5zM134 1257v50q0 127 61.5 190.5t168.5 63.5q57 0 115.5 -20.5t111.5 -45.5t98.5 -45.5t75.5 -20.5 q34 0 53.5 29.5t19.5 90.5l137 10v-72q0 -119 -56 -186.5t-162 -67.5q-51 0 -111.5 20.5t-118.5 45.5t-108 45.5t-79 20.5q-36 0 -56.5 -19t-20.5 -79z" />
<glyph unicode="&#xe4;" horiz-adv-x="1188" d="M70 237q0 190 161.5 285t479.5 95v93q0 132 -45.5 194.5t-147.5 62.5q-42 0 -78.5 -4.5t-63.5 -10.5l-60 -212l-168 10v303q85 24 191.5 39t206.5 15q232 0 343.5 -92.5t111.5 -279.5v-583l143 -34l-20 -118l-335 -22l-57 158q-62 -71 -155.5 -114.5t-200.5 -43.5 q-148 0 -227 66.5t-79 192.5zM360 275q0 -76 31 -116.5t89 -40.5q63 0 126.5 38.5t104.5 88.5v232q-100 0 -186.5 -16t-134.5 -42q-12 -25 -21 -62.5t-9 -81.5zM181 1389q0 31 8.5 58.5t23 48t34 32.5t40.5 12q31 0 58.5 -8.5t47.5 -23.5t31.5 -34.5t11.5 -41.5 q0 -30 -8.5 -57t-22.5 -48t-33.5 -33t-40.5 -12q-32 0 -59 8.5t-47.5 23.5t-32 34.5t-11.5 40.5zM661 1389q0 31 8.5 58.5t22.5 48t33.5 32.5t40.5 12q31 0 58.5 -8.5t48 -23.5t32 -34.5t11.5 -41.5q0 -30 -8.5 -57t-23 -48t-34 -33t-41.5 -12q-32 0 -59 8.5t-46.5 23.5 t-31 34.5t-11.5 40.5z" />
<glyph unicode="&#xe5;" horiz-adv-x="1188" d="M70 237q0 190 161.5 285t479.5 95v93q0 132 -45.5 194.5t-147.5 62.5q-42 0 -78.5 -4.5t-63.5 -10.5l-60 -212l-168 10v303q85 24 191.5 39t206.5 15q232 0 343.5 -92.5t111.5 -279.5v-583l143 -34l-20 -118l-335 -22l-57 158q-62 -71 -155.5 -114.5t-200.5 -43.5 q-148 0 -227 66.5t-79 192.5zM360 275q0 -76 31 -116.5t89 -40.5q63 0 126.5 38.5t104.5 88.5v232q-100 0 -186.5 -16t-134.5 -42q-12 -25 -21 -62.5t-9 -81.5zM333 1436q0 61 19.5 106t52 74.5t76 44t91.5 14.5q44 0 83.5 -10t69.5 -31t47.5 -54.5t17.5 -79.5 q0 -64 -18.5 -109.5t-50.5 -74.5t-75.5 -42.5t-93.5 -13.5q-46 0 -86 10t-69.5 31.5t-46.5 55t-17 79.5zM488 1468q0 -56 22 -85.5t57 -29.5q14 0 24.5 1t18.5 3q9 2 17 5q2 12 4 29q2 14 3.5 33.5t1.5 43.5q0 56 -22 85.5t-57 29.5q-11 0 -20 -1.5t-16 -3.5q-8 -2 -14 -4 q-6 -11 -10 -27q-4 -14 -6.5 -33.5t-2.5 -45.5z" />
<glyph unicode="&#xe6;" horiz-adv-x="1685" d="M70 237q0 90 36 162.5t113.5 123t199 77.5t292.5 27v75q0 138 -48 201.5t-145 63.5q-31 0 -57 -2.5t-45 -5.5q-22 -4 -40 -7l-60 -212l-168 10v303q52 15 115 27q54 10 126 18.5t157 8.5q118 0 208.5 -24.5t149.5 -81.5q66 54 147 80t177 26q117 0 196 -30t126.5 -90.5 t68 -151.5t20.5 -212v-130h-638v-46q0 -93 23 -156t62 -101.5t90 -55t107 -16.5q54 0 107.5 10t97.5 22q51 14 98 33v-116q-50 -26 -112 -45q-54 -17 -127 -30.5t-163 -13.5q-68 0 -128.5 10.5t-113 32.5t-94.5 56.5t-72 81.5q-17 -21 -52 -52t-86 -59.5t-116 -49 t-141 -20.5q-153 0 -232 66.5t-79 192.5zM360 275q0 -42 10 -72t26.5 -49t38 -27.5t45.5 -8.5q50 0 94 21t77.5 47.5t54.5 49.5t24 27q-19 66 -19 151v73q-86 0 -146.5 -9t-99.5 -20q-46 -13 -75 -29q-9 -17 -15 -41q-6 -20 -10.5 -49t-4.5 -64zM1003 633h346q0 87 -7.5 150 t-25.5 104t-47 60.5t-71 19.5q-36 0 -63.5 -6t-46.5 -14q-22 -9 -37 -20q-11 -35 -21 -80q-8 -38 -16 -92.5t-11 -121.5z" />
<glyph unicode="&#xe7;" horiz-adv-x="992" d="M62 399v93q0 302 141.5 458.5t390.5 156.5q81 0 168 -16.5t161 -46.5l19 -254l-170 -23l-73 190q-33 6 -64.5 8t-59.5 2q-47 0 -93.5 -11.5t-79.5 -28.5q-20 -67 -35 -168t-15 -207v-109q0 -160 73.5 -242.5t213.5 -82.5q64 0 148 23t147 50v-116q-76 -44 -178 -71 q-72 -18 -146 -23l-29 -76q47 -9 85 -23t64.5 -35.5t41 -51t14.5 -70.5q0 -40 -17.5 -73.5t-50 -57.5t-78.5 -37.5t-102 -13.5q-46 0 -84 7t-66 16q-33 11 -60 24v113q28 -11 59 -20q26 -8 58 -14t64 -6q37 0 58 3q11 2 21 4q1 7 3 15q2 7 3 14.5t1 15.5q0 17 -7 30.5 t-24 24t-45 19t-71 15.5l-46 72l40 109q-154 20 -251 102q-129 109 -129 312z" />
<glyph unicode="&#xe8;" horiz-adv-x="1078" d="M64 414v83q0 288 144 449t400 161q228 0 326 -108.5t98 -355.5v-130h-678v-66q0 -160 77.5 -244.5t234.5 -84.5q68 0 158 20t155 45v-116q-73 -37 -188 -63t-234 -26q-237 0 -365 112t-128 324zM357 653h385q0 175 -40 244.5t-136 69.5q-42 0 -84.5 -10t-79.5 -29 q-16 -58 -28.5 -132t-16.5 -143zM243 1594v66l285 10l203 -363v-32l-168 -10z" />
<glyph unicode="&#xe9;" horiz-adv-x="1078" d="M64 414v83q0 288 144 449t400 161q228 0 326 -108.5t98 -355.5v-130h-678v-66q0 -160 77.5 -244.5t234.5 -84.5q68 0 158 20t155 45v-116q-73 -37 -188 -63t-234 -26q-237 0 -365 112t-128 324zM357 653h385q0 175 -40 244.5t-136 69.5q-42 0 -84.5 -10t-79.5 -29 q-16 -58 -28.5 -132t-16.5 -143zM487 1275v32l183 363l272 -10v-66l-300 -329z" />
<glyph unicode="&#xea;" horiz-adv-x="1078" d="M64 414v83q0 288 144 449t400 161q228 0 326 -108.5t98 -355.5v-130h-678v-66q0 -160 77.5 -244.5t234.5 -84.5q68 0 158 20t155 45v-116q-73 -37 -188 -63t-234 -26q-237 0 -365 112t-128 324zM357 653h385q0 175 -40 244.5t-136 69.5q-42 0 -84.5 -10t-79.5 -29 q-16 -58 -28.5 -132t-16.5 -143zM264 1275v32l223 373l243 -10l223 -363v-32l-175 -10l-188 219l-181 -219z" />
<glyph unicode="&#xeb;" horiz-adv-x="1078" d="M64 414v83q0 288 144 449t400 161q228 0 326 -108.5t98 -355.5v-130h-678v-66q0 -160 77.5 -244.5t234.5 -84.5q68 0 158 20t155 45v-116q-73 -37 -188 -63t-234 -26q-237 0 -365 112t-128 324zM357 653h385q0 175 -40 244.5t-136 69.5q-42 0 -84.5 -10t-79.5 -29 q-16 -58 -28.5 -132t-16.5 -143zM228 1389q0 31 8.5 58.5t23 48t34 32.5t40.5 12q31 0 58.5 -8.5t47.5 -23.5t31.5 -34.5t11.5 -41.5q0 -30 -8.5 -57t-22.5 -48t-33.5 -33t-40.5 -12q-32 0 -59 8.5t-47.5 23.5t-32 34.5t-11.5 40.5zM708 1389q0 31 8.5 58.5t22.5 48 t33.5 32.5t40.5 12q31 0 58.5 -8.5t48 -23.5t32 -34.5t11.5 -41.5q0 -30 -8.5 -57t-23 -48t-34 -33t-41.5 -12q-32 0 -59 8.5t-46.5 23.5t-31 34.5t-11.5 40.5z" />
<glyph unicode="&#xec;" horiz-adv-x="696" d="M68 118l143 34v781l-143 34l20 118l413 22v-955l143 -34l-20 -118h-536zM-33 1594v66l285 10l203 -363v-32l-168 -10z" />
<glyph unicode="&#xed;" horiz-adv-x="696" d="M68 118l143 34v781l-143 34l20 118l413 22v-955l143 -34l-20 -118h-536zM210 1275v32l183 363l272 -10v-66l-300 -329z" />
<glyph unicode="&#xee;" horiz-adv-x="696" d="M68 118l143 34v781l-143 34l20 118l413 22v-955l143 -34l-20 -118h-536zM-12 1275v32l223 373l243 -10l223 -363v-32l-175 -10l-188 219l-181 -219z" />
<glyph unicode="&#xef;" horiz-adv-x="696" d="M68 118l143 34v781l-143 34l20 118l413 22v-955l143 -34l-20 -118h-536zM-48 1389q0 31 8.5 58.5t23 48t34 32.5t40.5 12q31 0 58.5 -8.5t47.5 -23.5t31.5 -34.5t11.5 -41.5q0 -30 -8.5 -57t-22.5 -48t-33.5 -33t-40.5 -12q-32 0 -59 8.5t-47.5 23.5t-32 34.5t-11.5 40.5 zM432 1389q0 31 8.5 58.5t22.5 48t33.5 32.5t40.5 12q31 0 58.5 -8.5t48 -23.5t32 -34.5t11.5 -41.5q0 -30 -8.5 -57t-23 -48t-34 -33t-41.5 -12q-32 0 -59 8.5t-46.5 23.5t-31 34.5t-11.5 40.5z" />
<glyph unicode="&#xf0;" horiz-adv-x="1168" d="M62 419v93q0 145 39 256t108.5 186.5t164.5 114t206 38.5q45 0 90.5 -11t80.5 -31q-20 50 -55 103t-83 106l-245 -117l-57 120l201 95q-93 79 -203 138l159 52q106 -46 202 -115l242 115l57 -119l-185 -88q54 -50 101.5 -107.5t86.5 -121.5t67.5 -133.5t44.5 -143.5 q4 -17 7.5 -41.5t6.5 -50.5t4.5 -52.5t1.5 -48.5v-94q0 -123 -33 -229.5t-99.5 -185t-166 -124t-232.5 -45.5q-129 0 -224.5 31t-159.5 89t-95.5 139t-31.5 182zM352 453q0 -89 22 -152.5t57.5 -104t80.5 -59.5t91 -19q31 0 60 6t52 14q26 9 49 20q14 38 25 89 q9 44 17 107.5t8 148.5v119q0 102 -23 169t-59 106t-81 54.5t-88 15.5q-33 0 -62.5 -6t-51.5 -14q-26 -9 -47 -20q-14 -41 -25 -95q-10 -46 -17.5 -112t-7.5 -148v-119z" />
<glyph unicode="&#xf1;" horiz-adv-x="1392" d="M68 118l143 34v781l-143 34l20 118l335 22l58 -158q94 87 184 122.5t190 35.5q170 0 259 -87t89 -254v-614l143 -34l-20 -118h-536l-20 118l143 34v599q0 115 -36.5 165.5t-111.5 50.5q-53 0 -121.5 -37t-142.5 -112v-666l143 -34l-20 -118h-536zM299 1257v50 q0 127 61.5 190.5t168.5 63.5q57 0 115.5 -20.5t111.5 -45.5t98.5 -45.5t75.5 -20.5q34 0 53.5 29.5t19.5 90.5l137 10v-72q0 -119 -56 -186.5t-162 -67.5q-51 0 -111.5 20.5t-118.5 45.5t-108 45.5t-79 20.5q-36 0 -56.5 -19t-20.5 -79z" />
<glyph unicode="&#xf2;" horiz-adv-x="1168" d="M62 419v93q0 279 145 437t385 158q238 0 375 -115t137 -336v-94q0 -267 -143 -425.5t-395 -158.5q-241 0 -372.5 116t-131.5 325zM352 453q0 -160 71 -247.5t174 -87.5q50 0 93.5 11t73.5 29q22 57 36 147.5t14 197.5v119q0 168 -69.5 256.5t-176.5 88.5q-48 0 -91 -11 t-75 -29q-23 -70 -36.5 -163t-13.5 -192v-119zM274 1594v66l285 10l203 -363v-32l-168 -10z" />
<glyph unicode="&#xf3;" horiz-adv-x="1168" d="M62 419v93q0 279 145 437t385 158q238 0 375 -115t137 -336v-94q0 -267 -143 -425.5t-395 -158.5q-241 0 -372.5 116t-131.5 325zM352 453q0 -160 71 -247.5t174 -87.5q50 0 93.5 11t73.5 29q22 57 36 147.5t14 197.5v119q0 168 -69.5 256.5t-176.5 88.5q-48 0 -91 -11 t-75 -29q-23 -70 -36.5 -163t-13.5 -192v-119zM518 1275v32l183 363l272 -10v-66l-300 -329z" />
<glyph unicode="&#xf4;" horiz-adv-x="1168" d="M62 419v93q0 279 145 437t385 158q238 0 375 -115t137 -336v-94q0 -267 -143 -425.5t-395 -158.5q-241 0 -372.5 116t-131.5 325zM352 453q0 -160 71 -247.5t174 -87.5q50 0 93.5 11t73.5 29q22 57 36 147.5t14 197.5v119q0 168 -69.5 256.5t-176.5 88.5q-48 0 -91 -11 t-75 -29q-23 -70 -36.5 -163t-13.5 -192v-119zM295 1275v32l223 373l243 -10l223 -363v-32l-175 -10l-188 219l-181 -219z" />
<glyph unicode="&#xf5;" horiz-adv-x="1168" d="M62 419v93q0 279 145 437t385 158q238 0 375 -115t137 -336v-94q0 -267 -143 -425.5t-395 -158.5q-241 0 -372.5 116t-131.5 325zM352 453q0 -160 71 -247.5t174 -87.5q50 0 93.5 11t73.5 29q22 57 36 147.5t14 197.5v119q0 168 -69.5 256.5t-176.5 88.5q-48 0 -91 -11 t-75 -29q-23 -70 -36.5 -163t-13.5 -192v-119zM211 1257v50q0 127 61.5 190.5t168.5 63.5q57 0 115.5 -20.5t111.5 -45.5t98.5 -45.5t75.5 -20.5q34 0 53.5 29.5t19.5 90.5l137 10v-72q0 -119 -56 -186.5t-162 -67.5q-51 0 -111.5 20.5t-118.5 45.5t-108 45.5t-79 20.5 q-36 0 -56.5 -19t-20.5 -79z" />
<glyph unicode="&#xf6;" horiz-adv-x="1168" d="M62 419v93q0 279 145 437t385 158q238 0 375 -115t137 -336v-94q0 -267 -143 -425.5t-395 -158.5q-241 0 -372.5 116t-131.5 325zM352 453q0 -160 71 -247.5t174 -87.5q50 0 93.5 11t73.5 29q22 57 36 147.5t14 197.5v119q0 168 -69.5 256.5t-176.5 88.5q-48 0 -91 -11 t-75 -29q-23 -70 -36.5 -163t-13.5 -192v-119zM259 1389q0 31 8.5 58.5t23 48t34 32.5t40.5 12q31 0 58.5 -8.5t47.5 -23.5t31.5 -34.5t11.5 -41.5q0 -30 -8.5 -57t-22.5 -48t-33.5 -33t-40.5 -12q-32 0 -59 8.5t-47.5 23.5t-32 34.5t-11.5 40.5zM739 1389q0 31 8.5 58.5 t22.5 48t33.5 32.5t40.5 12q31 0 58.5 -8.5t48 -23.5t32 -34.5t11.5 -41.5q0 -30 -8.5 -57t-23 -48t-34 -33t-41.5 -12q-32 0 -59 8.5t-46.5 23.5t-31 34.5t-11.5 40.5z" />
<glyph unicode="&#xf7;" horiz-adv-x="1213" d="M160 500v187h893v-187h-893zM485 176q0 33 7.5 63.5t20.5 53t31 36t38 13.5q35 0 65 -8t52.5 -21.5t35 -32t12.5 -38.5q0 -32 -7.5 -61.5t-21 -52t-31.5 -36t-39 -13.5q-34 0 -64 7.5t-52 20.5t-34.5 31t-12.5 38zM485 941q0 33 8 63.5t21 53t30.5 36t37.5 13.5 q35 0 65 -8t52.5 -21.5t35 -31.5t12.5 -39q0 -32 -8 -61.5t-21.5 -52t-31.5 -36t-38 -13.5q-34 0 -64 7.5t-52 21t-34.5 31t-12.5 37.5z" />
<glyph unicode="&#xf8;" horiz-adv-x="1168" d="M62 419v93q0 145 39.5 256t110 186.5t167.5 114t213 38.5q24 0 47 -1t46 -4l65 209h165v-20l-71 -227q60 -23 108 -60t81.5 -87.5t52 -115.5t18.5 -145v-94q0 -123 -33 -229.5t-100 -185t-168 -124t-237 -45.5q-32 0 -62 3l-64 -207h-165v20l67 216q-141 47 -210.5 152.5 t-69.5 256.5zM352 453q0 -78 14.5 -136.5t40.5 -101.5l237 758q-39 14 -76 14t-67 -6t-52 -14q-26 -9 -47 -20q-14 -43 -25 -100q-10 -49 -17.5 -118t-7.5 -157v-119zM543 105q25 -7 54 -7q36 0 66.5 6t53.5 14q26 9 47 20q14 39 25 94q9 47 17 114t8 157v119q0 71 -11 125 t-29 95z" />
<glyph unicode="&#xf9;" horiz-adv-x="1316" d="M8 967l20 118l413 22v-734q0 -132 38 -193.5t121 -61.5q54 0 115.5 40t117.5 109v666l-173 34l20 118l443 22v-955l143 -34l-20 -118l-335 -22l-58 158q-77 -79 -167.5 -118.5t-194.5 -39.5q-170 0 -255 95t-85 281v579zM266 1594v66l285 10l203 -363v-32l-168 -10z" />
<glyph unicode="&#xfa;" horiz-adv-x="1316" d="M8 967l20 118l413 22v-734q0 -132 38 -193.5t121 -61.5q54 0 115.5 40t117.5 109v666l-173 34l20 118l443 22v-955l143 -34l-20 -118l-335 -22l-58 158q-77 -79 -167.5 -118.5t-194.5 -39.5q-170 0 -255 95t-85 281v579zM510 1275v32l183 363l272 -10v-66l-300 -329z" />
<glyph unicode="&#xfb;" horiz-adv-x="1316" d="M8 967l20 118l413 22v-734q0 -132 38 -193.5t121 -61.5q54 0 115.5 40t117.5 109v666l-173 34l20 118l443 22v-955l143 -34l-20 -118l-335 -22l-58 158q-77 -79 -167.5 -118.5t-194.5 -39.5q-170 0 -255 95t-85 281v579zM287 1275v32l223 373l243 -10l223 -363v-32 l-175 -10l-188 219l-181 -219z" />
<glyph unicode="&#xfc;" horiz-adv-x="1316" d="M8 967l20 118l413 22v-734q0 -132 38 -193.5t121 -61.5q54 0 115.5 40t117.5 109v666l-173 34l20 118l443 22v-955l143 -34l-20 -118l-335 -22l-58 158q-77 -79 -167.5 -118.5t-194.5 -39.5q-170 0 -255 95t-85 281v579zM251 1389q0 31 8.5 58.5t23 48t34 32.5t40.5 12 q31 0 58.5 -8.5t47.5 -23.5t31.5 -34.5t11.5 -41.5q0 -30 -8.5 -57t-22.5 -48t-33.5 -33t-40.5 -12q-32 0 -59 8.5t-47.5 23.5t-32 34.5t-11.5 40.5zM731 1389q0 31 8.5 58.5t22.5 48t33.5 32.5t40.5 12q31 0 58.5 -8.5t48 -23.5t32 -34.5t11.5 -41.5q0 -30 -8.5 -57 t-23 -48t-34 -33t-41.5 -12q-32 0 -59 8.5t-46.5 23.5t-31 34.5t-11.5 40.5z" />
<glyph unicode="&#xfd;" horiz-adv-x="1104" d="M-20 967l20 118h450l20 -118l-123 -19l243 -726h16l240 726l-122 19l20 118h364l20 -118l-92 -19l-333 -952q-86 -250 -176 -351.5t-228 -101.5q-71 0 -143 18t-132 49l41 171q75 -33 161.5 -57t143.5 -24q22 13 49.5 48t46.5 80l-394 1120zM511 1275v32l183 363l272 -10 v-66l-300 -329z" />
<glyph unicode="&#xfe;" horiz-adv-x="1206" d="M-16 -316l163 34v1670l-163 34l20 118l433 22v-595l14 -6q18 20 46.5 45.5t68.5 48t89.5 37.5t109.5 15q91 0 160.5 -24.5t117 -77.5t71.5 -136.5t24 -202.5v-94q0 -134 -35.5 -243.5t-103 -187.5t-164.5 -120.5t-220 -42.5q-45 0 -90 4t-88 11v-275l163 -34l-20 -119 h-576zM437 145q35 -10 88 -18.5t110 -8.5q33 0 63.5 6.5t54.5 14.5q27 9 52 21q11 46 21 102q8 48 15 114.5t7 146.5v119q0 96 -12 158.5t-35 99.5t-55.5 52t-72.5 15q-45 0 -87 -22.5t-74.5 -49.5t-52.5 -50.5t-22 -26.5v-673z" />
<glyph unicode="&#xff;" horiz-adv-x="1104" d="M-20 967l20 118h450l20 -118l-123 -19l243 -726h16l240 726l-122 19l20 118h364l20 -118l-92 -19l-333 -952q-86 -250 -176 -351.5t-228 -101.5q-71 0 -143 18t-132 49l41 171q75 -33 161.5 -57t143.5 -24q22 13 49.5 48t46.5 80l-394 1120zM252 1389q0 31 8.5 58.5 t23 48t34 32.5t40.5 12q31 0 58.5 -8.5t47.5 -23.5t31.5 -34.5t11.5 -41.5q0 -30 -8.5 -57t-22.5 -48t-33.5 -33t-40.5 -12q-32 0 -59 8.5t-47.5 23.5t-32 34.5t-11.5 40.5zM732 1389q0 31 8.5 58.5t22.5 48t33.5 32.5t40.5 12q31 0 58.5 -8.5t48 -23.5t32 -34.5t11.5 -41.5 q0 -30 -8.5 -57t-23 -48t-34 -33t-41.5 -12q-32 0 -59 8.5t-46.5 23.5t-31 34.5t-11.5 40.5z" />
<glyph unicode="&#x100;" horiz-adv-x="1266" d="M-26 118l100 28l433 1207h263l423 -1207l99 -28l-20 -118h-494l-20 118l132 28l-82 240h-453l-84 -240l132 -28l-20 -118h-389zM406 535h352l-166 488h-16zM225 1530l20 160h810l-20 -160h-810z" />
<glyph unicode="&#x101;" horiz-adv-x="1188" d="M70 237q0 190 161.5 285t479.5 95v93q0 132 -45.5 194.5t-147.5 62.5q-42 0 -78.5 -4.5t-63.5 -10.5l-60 -212l-168 10v303q85 24 191.5 39t206.5 15q232 0 343.5 -92.5t111.5 -279.5v-583l143 -34l-20 -118l-335 -22l-57 158q-62 -71 -155.5 -114.5t-200.5 -43.5 q-148 0 -227 66.5t-79 192.5zM360 275q0 -76 31 -116.5t89 -40.5q63 0 126.5 38.5t104.5 88.5v232q-100 0 -186.5 -16t-134.5 -42q-12 -25 -21 -62.5t-9 -81.5zM186 1333l20 160h750l-20 -160h-750z" />
<glyph unicode="&#x102;" horiz-adv-x="1266" d="M-26 118l100 28l433 1207h263l423 -1207l99 -28l-20 -118h-494l-20 118l132 28l-82 240h-453l-84 -240l132 -28l-20 -118h-389zM406 535h352l-166 488h-16zM294 1749l117 10q0 -12 9.5 -34.5t35.5 -44t72.5 -37.5t121.5 -16t121.5 16t72.5 37.5t35.5 44t9.5 34.5l117 -10 q0 -47 -21.5 -98.5t-65.5 -94.5t-111 -71t-158 -28t-158 28t-111 71t-65.5 94.5t-21.5 98.5z" />
<glyph unicode="&#x103;" horiz-adv-x="1188" d="M70 237q0 190 161.5 285t479.5 95v93q0 132 -45.5 194.5t-147.5 62.5q-42 0 -78.5 -4.5t-63.5 -10.5l-60 -212l-168 10v303q85 24 191.5 39t206.5 15q232 0 343.5 -92.5t111.5 -279.5v-583l143 -34l-20 -118l-335 -22l-57 158q-62 -71 -155.5 -114.5t-200.5 -43.5 q-148 0 -227 66.5t-79 192.5zM360 275q0 -76 31 -116.5t89 -40.5q63 0 126.5 38.5t104.5 88.5v232q-100 0 -186.5 -16t-134.5 -42q-12 -25 -21 -62.5t-9 -81.5zM236 1592l117 10q0 -18 11 -45t35.5 -52t64.5 -42.5t98 -17.5t98 17.5t64.5 42.5t35.5 52t11 45l117 -10 q0 -59 -21.5 -117.5t-62.5 -105t-102 -75.5t-140 -29t-140 29t-102 75.5t-62.5 105t-21.5 117.5z" />
<glyph unicode="&#x104;" horiz-adv-x="1266" d="M-26 118l100 28l433 1207h263l423 -1207l99 -28l-20 -118h-332q-38 -30 -68 -66t-51 -72.5t-32 -71.5t-11 -65q0 -35 14 -48.5t45 -13.5q26 0 54 12.5t51 27.5q27 18 53 40v-113q-29 -25 -65 -44q-32 -17 -75.5 -30t-98.5 -13q-81 0 -125 29t-44 104q0 64 27.5 123.5 t75.5 114.5t112 105q50 39 105 76l-99 291h-453l-84 -240l132 -28l-20 -118h-389zM406 535h352l-166 488h-16z" />
<glyph unicode="&#x105;" horiz-adv-x="1188" d="M70 237q0 190 161.5 285t479.5 95v93q0 132 -45.5 194.5t-147.5 62.5q-42 0 -78.5 -4.5t-63.5 -10.5l-60 -212l-168 10v303q85 24 191.5 39t206.5 15q232 0 343.5 -92.5t111.5 -279.5v-583l143 -34v-1l-20 -117q-47 -33 -82.5 -70.5t-60 -74t-37 -70.5t-12.5 -60 q0 -35 14 -48.5t45 -13.5q26 0 54 12.5t51 27.5q27 18 53 40v-113q-29 -25 -65 -44q-32 -17 -75.5 -30t-98.5 -13q-81 0 -125 29t-44 104q0 63 31 121.5t85 113.5q39 40 88 78l-156 -11l-57 158q-62 -71 -155.5 -114.5t-200.5 -43.5q-148 0 -227 66.5t-79 192.5zM360 275 q0 -76 31 -116.5t89 -40.5q63 0 126.5 38.5t104.5 88.5v232q-100 0 -186.5 -16t-134.5 -42q-12 -25 -21 -62.5t-9 -81.5z" />
<glyph unicode="&#x106;" horiz-adv-x="1186" d="M70 515v89q0 379 167 575t498 196q91 0 186.5 -15t176.5 -44l21 -290l-155 -22l-85 199q-32 11 -78.5 17t-92.5 6q-75 0 -150.5 -22t-128.5 -56q-25 -92 -42 -214t-17 -251v-133q0 -208 98.5 -315.5t292.5 -107.5q85 0 180.5 28t180.5 76v-126q-89 -58 -206.5 -92.5 t-239.5 -34.5q-299 0 -452.5 137t-153.5 400zM554 1471v32l278 281l282 -10v-66l-395 -248z" />
<glyph unicode="&#x107;" horiz-adv-x="992" d="M62 399v93q0 302 141.5 458.5t390.5 156.5q81 0 168 -16.5t161 -46.5l19 -254l-170 -23l-73 190q-33 6 -64.5 8t-59.5 2q-47 0 -93.5 -11.5t-79.5 -28.5q-20 -67 -35 -168t-15 -207v-109q0 -160 73.5 -242.5t213.5 -82.5q64 0 148 23t147 50v-116q-76 -44 -177.5 -70.5 t-206.5 -26.5q-230 0 -359 109t-129 312zM479 1275v32l183 363l272 -10v-66l-300 -329z" />
<glyph unicode="&#x108;" horiz-adv-x="1186" d="M70 515v89q0 379 167 575t498 196q91 0 186.5 -15t176.5 -44l21 -290l-155 -22l-85 199q-32 11 -78.5 17t-92.5 6q-75 0 -150.5 -22t-128.5 -56q-25 -92 -42 -214t-17 -251v-133q0 -208 98.5 -315.5t292.5 -107.5q85 0 180.5 28t180.5 76v-126q-89 -58 -206.5 -92.5 t-239.5 -34.5q-299 0 -452.5 137t-153.5 400zM351 1470v32l263 292l223 -10l253 -282v-32l-175 -10l-213 171l-206 -171z" />
<glyph unicode="&#x109;" horiz-adv-x="992" d="M62 399v93q0 302 141.5 458.5t390.5 156.5q81 0 168 -16.5t161 -46.5l19 -254l-170 -23l-73 190q-33 6 -64.5 8t-59.5 2q-47 0 -93.5 -11.5t-79.5 -28.5q-20 -67 -35 -168t-15 -207v-109q0 -160 73.5 -242.5t213.5 -82.5q64 0 148 23t147 50v-116q-76 -44 -177.5 -70.5 t-206.5 -26.5q-230 0 -359 109t-129 312zM256 1275v32l223 373l243 -10l223 -363v-32l-175 -10l-188 219l-181 -219z" />
<glyph unicode="&#x10a;" horiz-adv-x="1186" d="M70 515v89q0 379 167 575t498 196q91 0 186.5 -15t176.5 -44l21 -290l-155 -22l-85 199q-32 11 -78.5 17t-92.5 6q-75 0 -150.5 -22t-128.5 -56q-25 -92 -42 -214t-17 -251v-133q0 -208 98.5 -315.5t292.5 -107.5q85 0 180.5 28t180.5 76v-126q-89 -58 -206.5 -92.5 t-239.5 -34.5q-299 0 -452.5 137t-153.5 400zM587 1584q0 34 9.5 64t25.5 53t37.5 36.5t45.5 13.5q34 0 64.5 -9.5t53 -25.5t35.5 -37.5t13 -46.5q0 -33 -9.5 -63.5t-25.5 -53t-37.5 -36t-45.5 -13.5q-35 0 -65 9.5t-52.5 25.5t-35.5 37.5t-13 45.5z" />
<glyph unicode="&#x10b;" horiz-adv-x="992" d="M62 399v93q0 302 141.5 458.5t390.5 156.5q81 0 168 -16.5t161 -46.5l19 -254l-170 -23l-73 190q-33 6 -64.5 8t-59.5 2q-47 0 -93.5 -11.5t-79.5 -28.5q-20 -67 -35 -168t-15 -207v-109q0 -160 73.5 -242.5t213.5 -82.5q64 0 148 23t147 50v-116q-76 -44 -177.5 -70.5 t-206.5 -26.5q-230 0 -359 109t-129 312zM458 1395q0 34 9.5 64t25.5 53t37.5 36.5t45.5 13.5q34 0 64.5 -9.5t53 -25.5t35.5 -37.5t13 -46.5q0 -33 -9.5 -63.5t-25.5 -53t-37.5 -36t-45.5 -13.5q-35 0 -65 9.5t-52.5 25.5t-35.5 37.5t-13 45.5z" />
<glyph unicode="&#x10c;" horiz-adv-x="1186" d="M70 515v89q0 379 167 575t498 196q91 0 186.5 -15t176.5 -44l21 -290l-155 -22l-85 199q-32 11 -78.5 17t-92.5 6q-75 0 -150.5 -22t-128.5 -56q-25 -92 -42 -214t-17 -251v-133q0 -208 98.5 -315.5t292.5 -107.5q85 0 180.5 28t180.5 76v-126q-89 -58 -206.5 -92.5 t-239.5 -34.5q-299 0 -452.5 137t-153.5 400zM343 1752v32l175 10l213 -172l206 172l145 -10v-32l-263 -292l-223 10z" />
<glyph unicode="&#x10d;" horiz-adv-x="992" d="M62 399v93q0 302 141.5 458.5t390.5 156.5q81 0 168 -16.5t161 -46.5l19 -254l-170 -23l-73 190q-33 6 -64.5 8t-59.5 2q-47 0 -93.5 -11.5t-79.5 -28.5q-20 -67 -35 -168t-15 -207v-109q0 -160 73.5 -242.5t213.5 -82.5q64 0 148 23t147 50v-116q-76 -44 -177.5 -70.5 t-206.5 -26.5q-230 0 -359 109t-129 312zM256 1628v32l175 10l187 -220l182 220l145 -10v-32l-223 -373l-243 10z" />
<glyph unicode="&#x10e;" horiz-adv-x="1428" d="M70 118l143 34v1049l-143 34l20 118h618q317 0 478.5 -151t161.5 -437v-78q0 -317 -170.5 -502t-459.5 -185h-628zM513 149h161q59 0 123 8t115 21q52 72 94 194t42 250v94q0 248 -100 368t-307 120h-128v-1055zM247 1752v32l175 10l213 -172l206 172l145 -10v-32 l-263 -292l-223 10z" />
<glyph unicode="&#x10f;" horiz-adv-x="1242" d="M66 413v93q0 282 141 441.5t397 159.5q38 0 84 -5.5t89 -13.5v300l-143 34l20 118l413 22v-1410l143 -34l-20 -118l-335 -22l-57 158q-56 -71 -146.5 -114.5t-190.5 -43.5q-194 0 -294.5 109t-100.5 326zM356 423q0 -150 47.5 -227.5t139.5 -77.5q59 0 121.5 35.5 t112.5 91.5v697q-36 9 -88.5 17t-104.5 8q-57 0 -106.5 -13.5t-81.5 -33.5q-17 -69 -28.5 -164.5t-11.5 -202.5v-130zM1198 1157v383h206v-62l-63 -321h-143z" />
<glyph unicode="&#x110;" horiz-adv-x="1428" d="M50 609v169h163v423l-143 34l20 118h618q317 0 478.5 -151t161.5 -437v-78q0 -317 -170.5 -502t-459.5 -185h-628l-20 118l143 34v457h-163zM513 149h161q59 0 123 8t115 21q52 72 94 194t42 250v94q0 248 -100 368t-307 120h-128v-426h240v-169h-240v-460z" />
<glyph unicode="&#x111;" horiz-adv-x="1242" d="M66 413v93q0 282 141 441.5t397 159.5q38 0 84 -5.5t89 -13.5v105h-350v130h350v65l-143 34l20 118l413 22v-239h164v-130h-164v-1041l143 -34l-20 -118l-335 -22l-57 158q-56 -71 -146.5 -114.5t-190.5 -43.5q-194 0 -294.5 109t-100.5 326zM356 423q0 -150 47.5 -227.5 t139.5 -77.5q59 0 121.5 35.5t112.5 91.5v697q-36 9 -88.5 17t-104.5 8q-57 0 -106.5 -13.5t-81.5 -33.5q-17 -69 -28.5 -164.5t-11.5 -202.5v-130z" />
<glyph unicode="&#x112;" horiz-adv-x="1203" d="M70 118l143 34v1049l-143 34l20 118h987l24 -320l-133 -22l-83 193h-372v-422h287l34 112l119 -20v-334l-119 -20l-34 113h-287v-484h401l83 193l134 -23l-24 -319h-1017zM180 1530l20 160h810l-20 -160h-810z" />
<glyph unicode="&#x113;" horiz-adv-x="1078" d="M64 414v83q0 288 144 449t400 161q228 0 326 -108.5t98 -355.5v-130h-678v-66q0 -160 77.5 -244.5t234.5 -84.5q68 0 158 20t155 45v-116q-73 -37 -188 -63t-234 -26q-237 0 -365 112t-128 324zM357 653h385q0 175 -40 244.5t-136 69.5q-42 0 -84.5 -10t-79.5 -29 q-16 -58 -28.5 -132t-16.5 -143zM233 1333l20 160h750l-20 -160h-750z" />
<glyph unicode="&#x114;" horiz-adv-x="1203" d="M70 118l143 34v1049l-143 34l20 118h987l24 -320l-133 -22l-83 193h-372v-422h287l34 112l119 -20v-334l-119 -20l-34 113h-287v-484h401l83 193l134 -23l-24 -319h-1017zM249 1749l117 10q0 -12 9.5 -34.5t35.5 -44t72.5 -37.5t121.5 -16t121.5 16t72.5 37.5t35.5 44 t9.5 34.5l117 -10q0 -47 -21.5 -98.5t-65.5 -94.5t-111 -71t-158 -28t-158 28t-111 71t-65.5 94.5t-21.5 98.5z" />
<glyph unicode="&#x115;" horiz-adv-x="1078" d="M64 414v83q0 288 144 449t400 161q228 0 326 -108.5t98 -355.5v-130h-678v-66q0 -160 77.5 -244.5t234.5 -84.5q68 0 158 20t155 45v-116q-73 -37 -188 -63t-234 -26q-237 0 -365 112t-128 324zM357 653h385q0 175 -40 244.5t-136 69.5q-42 0 -84.5 -10t-79.5 -29 q-16 -58 -28.5 -132t-16.5 -143zM283 1592l117 10q0 -18 11 -45t35.5 -52t64.5 -42.5t98 -17.5t98 17.5t64.5 42.5t35.5 52t11 45l117 -10q0 -59 -21.5 -117.5t-62.5 -105t-102 -75.5t-140 -29t-140 29t-102 75.5t-62.5 105t-21.5 117.5z" />
<glyph unicode="&#x116;" horiz-adv-x="1203" d="M70 118l143 34v1049l-143 34l20 118h987l24 -320l-133 -22l-83 193h-372v-422h287l34 112l119 -20v-334l-119 -20l-34 113h-287v-484h401l83 193l134 -23l-24 -319h-1017zM468 1584q0 34 9.5 64t25.5 53t37.5 36.5t45.5 13.5q34 0 64.5 -9.5t53 -25.5t35.5 -37.5 t13 -46.5q0 -33 -9.5 -63.5t-25.5 -53t-37.5 -36t-45.5 -13.5q-35 0 -65 9.5t-52.5 25.5t-35.5 37.5t-13 45.5z" />
<glyph unicode="&#x117;" horiz-adv-x="1078" d="M64 414v83q0 288 144 449t400 161q228 0 326 -108.5t98 -355.5v-130h-678v-66q0 -160 77.5 -244.5t234.5 -84.5q68 0 158 20t155 45v-116q-73 -37 -188 -63t-234 -26q-237 0 -365 112t-128 324zM357 653h385q0 175 -40 244.5t-136 69.5q-42 0 -84.5 -10t-79.5 -29 q-16 -58 -28.5 -132t-16.5 -143zM466 1395q0 34 9.5 64t25.5 53t37.5 36.5t45.5 13.5q34 0 64.5 -9.5t53 -25.5t35.5 -37.5t13 -46.5q0 -33 -9.5 -63.5t-25.5 -53t-37.5 -36t-45.5 -13.5q-35 0 -65 9.5t-52.5 25.5t-35.5 37.5t-13 45.5z" />
<glyph unicode="&#x118;" horiz-adv-x="1203" d="M70 118l143 34v1049l-143 34l20 118h987l24 -320l-133 -22l-83 193h-372v-422h287l34 112l119 -20v-334l-119 -20l-34 113h-287v-484h401l83 193l134 -23l-24 -319q-38 -30 -68 -66t-51 -72.5t-32 -71.5t-11 -65q0 -35 14 -48.5t45 -13.5q26 0 54 12.5t51 27.5 q27 18 53 40v-113q-29 -25 -65 -44q-32 -17 -75.5 -30t-98.5 -13q-81 0 -125 29t-44 104q0 64 27.5 123.5t75.5 114.5q38 45 88 86h-855z" />
<glyph unicode="&#x119;" horiz-adv-x="1078" d="M64 414v83q0 288 144 449t400 161q228 0 326 -108.5t98 -355.5v-130h-678v-66q0 -160 77.5 -244.5t234.5 -84.5q68 0 158 20t155 45v-116q-47 -40 -82.5 -85t-60 -89.5t-37 -85.5t-12.5 -73q0 -42 15 -56.5t50 -14.5q23 0 50 12.5t50 27.5q26 18 52 40v-113 q-29 -25 -65 -44q-32 -17 -75.5 -30t-98.5 -13q-40 0 -71.5 7t-53 23.5t-33 44t-11.5 69.5q0 66 30.5 130.5t82.5 126.5q23 27 48 53q-99 -19 -200 -19q-237 0 -365 112t-128 324zM357 653h385q0 175 -40 244.5t-136 69.5q-42 0 -84.5 -10t-79.5 -29q-16 -58 -28.5 -132 t-16.5 -143z" />
<glyph unicode="&#x11a;" horiz-adv-x="1203" d="M70 118l143 34v1049l-143 34l20 118h987l24 -320l-133 -22l-83 193h-372v-422h287l34 112l119 -20v-334l-119 -20l-34 113h-287v-484h401l83 193l134 -23l-24 -319h-1017zM224 1752v32l175 10l213 -172l206 172l145 -10v-32l-263 -292l-223 10z" />
<glyph unicode="&#x11b;" horiz-adv-x="1078" d="M64 414v83q0 288 144 449t400 161q228 0 326 -108.5t98 -355.5v-130h-678v-66q0 -160 77.5 -244.5t234.5 -84.5q68 0 158 20t155 45v-116q-73 -37 -188 -63t-234 -26q-237 0 -365 112t-128 324zM357 653h385q0 175 -40 244.5t-136 69.5q-42 0 -84.5 -10t-79.5 -29 q-16 -58 -28.5 -132t-16.5 -143zM264 1628v32l175 10l187 -220l182 220l145 -10v-32l-223 -373l-243 10z" />
<glyph unicode="&#x11c;" horiz-adv-x="1330" d="M74 505v89q0 380 174.5 580.5t497.5 200.5q103 0 205 -14.5t188 -42.5l21 -290l-155 -22l-84 197q-46 12 -97.5 17.5t-100.5 5.5q-76 0 -150.5 -21t-139.5 -57q-26 -95 -42.5 -215.5t-16.5 -249.5v-133q0 -203 101.5 -313t261.5 -110q28 0 58 3t59 9v355l-143 34l20 118 h545l20 -118l-142 -34v-389q-97 -59 -216 -92.5t-263 -34.5q-290 0 -445.5 134t-155.5 393zM377 1470v32l263 292l223 -10l253 -282v-32l-175 -10l-213 171l-206 -171z" />
<glyph unicode="&#x11d;" horiz-adv-x="1083" d="M36 -259q0 62 51.5 127t144.5 126q-70 18 -108 57.5t-38 98.5q0 66 53.5 136.5t134.5 126.5q-97 44 -142.5 113t-45.5 151v24q0 195 124 300.5t332 105.5q36 0 75 -5.5t76 -16.5h330l18 -127h-171l-4 -10q49 -28 84.5 -81t35.5 -117v-15q0 -169 -127.5 -268t-332.5 -99 q-36 0 -69 2.5t-63 7.5q-44 -38 -71 -72t-27 -55q0 -24 23.5 -33.5t67.5 -9.5h207q243 0 367.5 -77.5t124.5 -231.5q0 -172 -146 -264t-416 -92q-253 0 -370.5 47.5t-117.5 150.5zM266 -205q0 -67 65.5 -89.5t252.5 -22.5q71 0 139 10.5t126 30.5q12 21 19.5 52.5t7.5 62.5 q0 78 -66.5 108.5t-216.5 30.5h-220h-2q-46 -45 -75.5 -94.5t-29.5 -88.5zM376 706q0 -89 51.5 -143.5t118.5 -54.5q35 0 63.5 5.5t46.5 14.5q17 34 28.5 86.5t11.5 111.5v38q0 98 -48.5 150.5t-121.5 52.5q-29 0 -58.5 -5t-51.5 -15q-17 -38 -28.5 -92t-11.5 -111v-38z M219 1275v32l223 373l243 -10l223 -363v-32l-175 -10l-188 219l-181 -219z" />
<glyph unicode="&#x11e;" horiz-adv-x="1330" d="M74 505v89q0 380 174.5 580.5t497.5 200.5q103 0 205 -14.5t188 -42.5l21 -290l-155 -22l-84 197q-46 12 -97.5 17.5t-100.5 5.5q-76 0 -150.5 -21t-139.5 -57q-26 -95 -42.5 -215.5t-16.5 -249.5v-133q0 -203 101.5 -313t261.5 -110q28 0 58 3t59 9v355l-143 34l20 118 h545l20 -118l-142 -34v-389q-97 -59 -216 -92.5t-263 -34.5q-290 0 -445.5 134t-155.5 393zM394 1749l117 10q0 -12 9.5 -34.5t35.5 -44t72.5 -37.5t121.5 -16t121.5 16t72.5 37.5t35.5 44t9.5 34.5l117 -10q0 -47 -21.5 -98.5t-65.5 -94.5t-111 -71t-158 -28t-158 28 t-111 71t-65.5 94.5t-21.5 98.5z" />
<glyph unicode="&#x11f;" horiz-adv-x="1083" d="M36 -259q0 62 51.5 127t144.5 126q-70 18 -108 57.5t-38 98.5q0 66 53.5 136.5t134.5 126.5q-97 44 -142.5 113t-45.5 151v24q0 195 124 300.5t332 105.5q36 0 75 -5.5t76 -16.5h330l18 -127h-171l-4 -10q49 -28 84.5 -81t35.5 -117v-15q0 -169 -127.5 -268t-332.5 -99 q-36 0 -69 2.5t-63 7.5q-44 -38 -71 -72t-27 -55q0 -24 23.5 -33.5t67.5 -9.5h207q243 0 367.5 -77.5t124.5 -231.5q0 -172 -146 -264t-416 -92q-253 0 -370.5 47.5t-117.5 150.5zM266 -205q0 -67 65.5 -89.5t252.5 -22.5q71 0 139 10.5t126 30.5q12 21 19.5 52.5t7.5 62.5 q0 78 -66.5 108.5t-216.5 30.5h-220h-2q-46 -45 -75.5 -94.5t-29.5 -88.5zM376 706q0 -89 51.5 -143.5t118.5 -54.5q35 0 63.5 5.5t46.5 14.5q17 34 28.5 86.5t11.5 111.5v38q0 98 -48.5 150.5t-121.5 52.5q-29 0 -58.5 -5t-51.5 -15q-17 -38 -28.5 -92t-11.5 -111v-38z M238 1592l117 10q0 -18 11 -45t35.5 -52t64.5 -42.5t98 -17.5t98 17.5t64.5 42.5t35.5 52t11 45l117 -10q0 -59 -21.5 -117.5t-62.5 -105t-102 -75.5t-140 -29t-140 29t-102 75.5t-62.5 105t-21.5 117.5z" />
<glyph unicode="&#x120;" horiz-adv-x="1330" d="M74 505v89q0 380 174.5 580.5t497.5 200.5q103 0 205 -14.5t188 -42.5l21 -290l-155 -22l-84 197q-46 12 -97.5 17.5t-100.5 5.5q-76 0 -150.5 -21t-139.5 -57q-26 -95 -42.5 -215.5t-16.5 -249.5v-133q0 -203 101.5 -313t261.5 -110q28 0 58 3t59 9v355l-143 34l20 118 h545l20 -118l-142 -34v-389q-97 -59 -216 -92.5t-263 -34.5q-290 0 -445.5 134t-155.5 393zM613 1584q0 34 9.5 64t25.5 53t37.5 36.5t45.5 13.5q34 0 64.5 -9.5t53 -25.5t35.5 -37.5t13 -46.5q0 -33 -9.5 -63.5t-25.5 -53t-37.5 -36t-45.5 -13.5q-35 0 -65 9.5t-52.5 25.5 t-35.5 37.5t-13 45.5z" />
<glyph unicode="&#x121;" horiz-adv-x="1083" d="M36 -259q0 62 51.5 127t144.5 126q-70 18 -108 57.5t-38 98.5q0 66 53.5 136.5t134.5 126.5q-97 44 -142.5 113t-45.5 151v24q0 195 124 300.5t332 105.5q36 0 75 -5.5t76 -16.5h330l18 -127h-171l-4 -10q49 -28 84.5 -81t35.5 -117v-15q0 -169 -127.5 -268t-332.5 -99 q-36 0 -69 2.5t-63 7.5q-44 -38 -71 -72t-27 -55q0 -24 23.5 -33.5t67.5 -9.5h207q243 0 367.5 -77.5t124.5 -231.5q0 -172 -146 -264t-416 -92q-253 0 -370.5 47.5t-117.5 150.5zM266 -205q0 -67 65.5 -89.5t252.5 -22.5q71 0 139 10.5t126 30.5q12 21 19.5 52.5t7.5 62.5 q0 78 -66.5 108.5t-216.5 30.5h-220h-2q-46 -45 -75.5 -94.5t-29.5 -88.5zM376 706q0 -89 51.5 -143.5t118.5 -54.5q35 0 63.5 5.5t46.5 14.5q17 34 28.5 86.5t11.5 111.5v38q0 98 -48.5 150.5t-121.5 52.5q-29 0 -58.5 -5t-51.5 -15q-17 -38 -28.5 -92t-11.5 -111v-38z M421 1395q0 34 9.5 64t25.5 53t37.5 36.5t45.5 13.5q34 0 64.5 -9.5t53 -25.5t35.5 -37.5t13 -46.5q0 -33 -9.5 -63.5t-25.5 -53t-37.5 -36t-45.5 -13.5q-35 0 -65 9.5t-52.5 25.5t-35.5 37.5t-13 45.5z" />
<glyph unicode="&#x122;" horiz-adv-x="1330" d="M74 505v89q0 380 174.5 580.5t497.5 200.5q103 0 205 -14.5t188 -42.5l21 -290l-155 -22l-84 197q-46 12 -97.5 17.5t-100.5 5.5q-76 0 -150.5 -21t-139.5 -57q-26 -95 -42.5 -215.5t-16.5 -249.5v-133q0 -203 101.5 -313t261.5 -110q28 0 58 3t59 9v355l-143 34l20 118 h545l20 -118l-142 -34v-389q-97 -59 -216 -92.5t-263 -34.5q-290 0 -445.5 134t-155.5 393zM596 -128h206v-62l-63 -321h-143v383z" />
<glyph unicode="&#x123;" horiz-adv-x="1083" d="M36 -259q0 62 51.5 127t144.5 126q-70 18 -108 57.5t-38 98.5q0 66 53.5 136.5t134.5 126.5q-97 44 -142.5 113t-45.5 151v24q0 195 124 300.5t332 105.5q36 0 75 -5.5t76 -16.5h330l18 -127h-171l-4 -10q49 -28 84.5 -81t35.5 -117v-15q0 -169 -127.5 -268t-332.5 -99 q-36 0 -69 2.5t-63 7.5q-44 -38 -71 -72t-27 -55q0 -24 23.5 -33.5t67.5 -9.5h207q243 0 367.5 -77.5t124.5 -231.5q0 -172 -146 -264t-416 -92q-253 0 -370.5 47.5t-117.5 150.5zM266 -205q0 -67 65.5 -89.5t252.5 -22.5q71 0 139 10.5t126 30.5q12 21 19.5 52.5t7.5 62.5 q0 78 -66.5 108.5t-216.5 30.5h-220h-2q-46 -45 -75.5 -94.5t-29.5 -88.5zM376 706q0 -89 51.5 -143.5t118.5 -54.5q35 0 63.5 5.5t46.5 14.5q17 34 28.5 86.5t11.5 111.5v38q0 98 -48.5 150.5t-121.5 52.5q-29 0 -58.5 -5t-51.5 -15q-17 -38 -28.5 -92t-11.5 -111v-38z M642.972 1264.99h-205.987v61.9961l62.9961 320.98h142.991v-382.977z" />
<glyph unicode="&#x124;" horiz-adv-x="1541" d="M66 118l143 34v1049l-143 34l20 118h545l20 -118l-142 -34v-413h524v413l-142 34l20 118h546l20 -118l-144 -34v-1049l144 -34l-20 -118h-546l-20 118l142 34v487h-524v-487l142 -34l-20 -118h-545zM421 1470v32l263 292l223 -10l253 -282v-32l-175 -10l-213 171 l-206 -171z" />
<glyph unicode="&#x125;" horiz-adv-x="1378" d="M56 118l143 34v1236l-143 34l20 118l413 22v-595l14 -6q76 72 162.5 109t177.5 37q169 0 258.5 -86.5t89.5 -254.5v-614l143 -34l-20 -118h-536l-20 118l143 34v599q0 109 -34.5 162.5t-113.5 53.5q-60 0 -132.5 -43.5t-131.5 -105.5v-666l143 -34l-20 -118h-536z M-49 1680v32l263 292l223 -10l253 -282v-32l-175 -10l-213 171l-206 -171z" />
<glyph unicode="&#x126;" horiz-adv-x="1541" d="M58 945v140h151v116l-143 34l20 118h545l20 -118l-142 -34v-116h524v116l-142 34l20 118h546l20 -118l-144 -34v-116h166v-140h-166v-793l144 -34l-20 -118h-546l-20 118l142 34v487h-524v-487l142 -34l-20 -118h-545l-20 118l143 34v793h-151zM509 788h524v157h-524 v-157z" />
<glyph unicode="&#x127;" horiz-adv-x="1378" d="M46 1173v140h153v75l-143 34l20 118l413 22v-249h310v-140h-310v-206l14 -6q76 72 162.5 109t177.5 37q169 0 258.5 -86.5t89.5 -254.5v-614l143 -34l-20 -118h-536l-20 118l143 34v599q0 109 -34.5 162.5t-113.5 53.5q-60 0 -132.5 -43.5t-131.5 -105.5v-666l143 -34 l-20 -118h-536l-20 118l143 34v1021h-153z" />
<glyph unicode="&#x128;" horiz-adv-x="717" d="M68 118l143 34v1049l-143 34l20 118h545l20 -118l-142 -34v-1049l142 -34l-20 -118h-545zM-117 1473v50q0 127 67 190.5t183 63.5q66 0 133 -20.5t128.5 -45.5t113 -45.5t86.5 -20.5q43 0 68 29.5t25 90.5l137 10v-72q0 -119 -61.5 -186.5t-176.5 -67.5q-58 0 -127 20.5 t-135.5 45.5t-123.5 45.5t-91 20.5q-23 0 -40.5 -4t-30.5 -15t-19.5 -30t-6.5 -49z" />
<glyph unicode="&#x129;" horiz-adv-x="696" d="M68 118l143 34v781l-143 34l20 118l413 22v-955l143 -34l-20 -118h-536zM-96 1257v50q0 127 61.5 190.5t168.5 63.5q57 0 115.5 -20.5t111.5 -45.5t98.5 -45.5t75.5 -20.5q34 0 53.5 29.5t19.5 90.5l137 10v-72q0 -119 -56 -186.5t-162 -67.5q-51 0 -111.5 20.5 t-118.5 45.5t-108 45.5t-79 20.5q-36 0 -56.5 -19t-20.5 -79z" />
<glyph unicode="&#x12a;" horiz-adv-x="717" d="M68 118l143 34v1049l-143 34l20 118h545l20 -118l-142 -34v-1049l142 -34l-20 -118h-545zM-59 1530l20 160h810l-20 -160h-810z" />
<glyph unicode="&#x12b;" horiz-adv-x="696" d="M68 118l143 34v781l-143 34l20 118l413 22v-955l143 -34l-20 -118h-536zM-43 1333l20 160h750l-20 -160h-750z" />
<glyph unicode="&#x12c;" horiz-adv-x="717" d="M68 118l143 34v1049l-143 34l20 118h545l20 -118l-142 -34v-1049l142 -34l-20 -118h-545zM10 1749l117 10q0 -12 9.5 -34.5t35.5 -44t72.5 -37.5t121.5 -16t121.5 16t72.5 37.5t35.5 44t9.5 34.5l117 -10q0 -47 -21.5 -98.5t-65.5 -94.5t-111 -71t-158 -28t-158 28 t-111 71t-65.5 94.5t-21.5 98.5z" />
<glyph unicode="&#x12d;" horiz-adv-x="696" d="M68 118l143 34v781l-143 34l20 118l413 22v-955l143 -34l-20 -118h-536zM7 1592l117 10q0 -18 11 -45t35.5 -52t64.5 -42.5t98 -17.5t98 17.5t64.5 42.5t35.5 52t11 45l117 -10q0 -59 -21.5 -117.5t-62.5 -105t-102 -75.5t-140 -29t-140 29t-102 75.5t-62.5 105 t-21.5 117.5z" />
<glyph unicode="&#x12e;" horiz-adv-x="717" d="M59 -324q0 64 27.5 123.5t75.5 114.5q38 45 88 86h-162l-20 118l143 34v1049l-143 34l20 118h545l20 -118l-142 -34v-1049l142 -34l-20 -118h-221q-38 -30 -68 -66t-51 -72.5t-32 -71.5t-11 -65q0 -35 14 -48.5t45 -13.5q26 0 54 12.5t51 27.5q27 18 53 40v-113 q-29 -25 -65 -44q-32 -17 -75.5 -30t-98.5 -13q-81 0 -125 29t-44 104z" />
<glyph unicode="&#x12f;" horiz-adv-x="696" d="M68 118l143 34v781l-143 34l20 118l413 22v-955l143 -34l-20 -118h-202q-38 -30 -68 -66t-51 -72.5t-32 -71.5t-11 -65q0 -35 14 -48.5t45 -13.5q26 0 54 12.5t51 27.5q27 18 53 40v-113q-29 -25 -65 -44q-32 -17 -75.5 -30t-98.5 -13q-81 0 -125 29t-44 104 q0 64 27.5 123.5t75.5 114.5q38 45 88 86h-172zM186 1395q0 71 37.5 124.5t87.5 53.5q73 0 125 -37t52 -90q0 -71 -38 -123.5t-87 -52.5q-72 0 -124.5 37t-52.5 88z" />
<glyph unicode="&#x130;" horiz-adv-x="717" d="M68 118l143 34v1049l-143 34l20 118h545l20 -118l-142 -34v-1049l142 -34l-20 -118h-545zM229 1584q0 34 9.5 64t25.5 53t37.5 36.5t45.5 13.5q34 0 64.5 -9.5t53 -25.5t35.5 -37.5t13 -46.5q0 -33 -9.5 -63.5t-25.5 -53t-37.5 -36t-45.5 -13.5q-35 0 -65 9.5t-52.5 25.5 t-35.5 37.5t-13 45.5z" />
<glyph unicode="&#x131;" horiz-adv-x="696" d="M68 118l143 34v781l-143 34l20 118l413 22v-955l143 -34l-20 -118h-536z" />
<glyph unicode="&#x132;" horiz-adv-x="1614" d="M68 118l143 34v1049l-143 34l20 118h545l20 -118l-142 -34v-1049l142 -34l-20 -118h-545zM739 311l153 22l84 -196q36 -11 77 -11q24 0 47 4t35 9q8 29 14.5 92.5t6.5 137.5v832l-193 34l20 118h595l20 -118l-142 -34v-865q0 -175 -101.5 -266.5t-310.5 -91.5 q-73 0 -150 15.5t-134 37.5z" />
<glyph unicode="&#x133;" horiz-adv-x="1352" d="M68 118l143 34v781l-143 34l20 118l413 22v-955l143 -34l-20 -118h-536zM186 1395q0 71 37.5 124.5t87.5 53.5q73 0 125 -37t52 -90q0 -71 -38 -123.5t-87 -52.5q-72 0 -124.5 37t-52.5 88zM580 -420l36 151q57 -16 127 -28t133 -13q17 33 28.5 92t11.5 132v1019l-173 34 l20 118l443 22v-1154q0 -213 -85.5 -311.5t-276.5 -98.5q-70 0 -145 11t-119 26zM891 1395q0 71 37.5 124.5t87.5 53.5q73 0 125 -37t52 -90q0 -71 -38 -123.5t-87 -52.5q-72 0 -124.5 37t-52.5 88z" />
<glyph unicode="&#x134;" horiz-adv-x="897" d="M22 311l153 22l84 -196q36 -11 77 -11q24 0 47 4t35 9q8 29 14.5 92.5t6.5 137.5v832l-193 34l20 118h595l20 -118l-142 -34v-865q0 -175 -101.5 -266.5t-310.5 -91.5q-73 0 -150 15.5t-134 37.5zM220 1470v32l263 292l223 -10l253 -282v-32l-175 -10l-213 171l-206 -171 z" />
<glyph unicode="&#x135;" horiz-adv-x="656" d="M-116 -420l36 151q42 -12 87 -21q38 -8 84 -14t89 -6q11 21 20 54q8 28 14 70t6 100v1019l-193 34l20 118l463 22v-1154q0 -119 -25.5 -198t-72.5 -126t-114 -66.5t-150 -19.5q-58 0 -106 5.5t-83 12.5q-41 8 -75 19zM-17 1275v32l223 373l243 -10l223 -363v-32l-175 -10 l-188 219l-181 -219z" />
<glyph unicode="&#x136;" horiz-adv-x="1394" d="M64 118l143 34v1049l-143 34l20 118h545l20 -118l-142 -34v-467l14 -6l503 486l-109 20l20 119h448l20 -118l-141 -36l-397 -378l442 -674l117 -29l-20 -118h-344l-404 622l-149 -142v-328l142 -34l-20 -118h-545zM627 -128h206v-62l-63 -321h-143v383z" />
<glyph unicode="&#x137;" horiz-adv-x="1274" d="M56 118l143 34v1236l-143 34l20 118l413 22v-943l14 -6l388 337l-106 17l20 118h415l20 -118l-112 -27l-325 -264l329 -524l126 -34l-20 -118h-318l-321 510l-110 -89v-269l143 -34l-20 -118h-536zM588 -128h206v-62l-63 -321h-143v383z" />
<glyph unicode="&#x138;" horiz-adv-x="1206" d="M56 118l143 34v781l-143 34l20 118l413 22v-520l10 -4q45 0 79 22.5t61.5 59.5t51.5 84t49.5 96t55 96t69 84t90.5 59.5t120 22.5q37 0 69 -7.5t55 -21t36.5 -32.5t13.5 -42q0 -32 -8.5 -63t-25 -55t-39.5 -39t-51 -15q-39 0 -67.5 21t-59.5 65q-21 0 -41 -23t-41 -60 t-44 -84.5t-51 -96.5l315 -502l126 -34l-20 -118h-318l-281 446q-33 -20 -71 -32t-83 -12v-250l143 -34l-20 -118h-536z" />
<glyph unicode="&#x139;" horiz-adv-x="1066" d="M68 118l143 34v1049l-143 34l20 118h545l20 -118l-142 -34v-1052h266l83 193l154 -22l-25 -320h-901zM200 1471v32l278 281l282 -10v-66l-395 -248z" />
<glyph unicode="&#x13a;" horiz-adv-x="664" d="M56 118l143 34v1236l-143 34l20 118l413 22v-1410l143 -34l-20 -118h-536zM150 1681v32l278 281l282 -10v-66l-395 -248z" />
<glyph unicode="&#x13b;" horiz-adv-x="1066" d="M68 118l143 34v1049l-143 34l20 118h545l20 -118l-142 -34v-1052h266l83 193l154 -22l-25 -320h-901zM445 -128h206v-62l-63 -321h-143v383z" />
<glyph unicode="&#x13c;" horiz-adv-x="664" d="M56 118l143 34v1236l-143 34l20 118l413 22v-1410l143 -34l-20 -118h-536zM248 -128h206v-62l-63 -321h-143v383z" />
<glyph unicode="&#x13d;" horiz-adv-x="1066" d="M68 118l143 34v1049l-143 34l20 118h545l20 -118l-142 -34v-1052h266l83 193l154 -22l-25 -320h-901zM741 1157v383h206v-62l-63 -321h-143z" />
<glyph unicode="&#x13e;" horiz-adv-x="802" d="M56 118l143 34v1236l-143 34l20 118l413 22v-1410l143 -34l-20 -118h-536zM620 1157v383h206v-62l-63 -321h-143z" />
<glyph unicode="&#x13f;" horiz-adv-x="1074" d="M68 118l143 34v1049l-143 34l20 118h545l20 -118l-142 -34v-1052h266l83 193l154 -22l-25 -320h-901zM784 648q0 37 8.5 70t23.5 58.5t34.5 40.5t41.5 15q39 0 72.5 -8.5t58.5 -23.5t39 -35t14 -43q0 -36 -8.5 -69.5t-23.5 -59t-35 -40.5t-42 -15q-39 0 -72 8.5t-58 23.5 t-39 35t-14 43z" />
<glyph unicode="&#x140;" horiz-adv-x="799" d="M56 118l143 34v1236l-143 34l20 118l413 22v-1410l143 -34l-20 -118h-536zM597 648q0 37 8.5 70t23.5 58.5t34.5 40.5t41.5 15q39 0 72.5 -8.5t58.5 -23.5t39 -35t14 -43q0 -36 -8.5 -69.5t-23.5 -59t-35 -40.5t-42 -15q-39 0 -72 8.5t-58 23.5t-39 35t-14 43z" />
<glyph unicode="&#x141;" horiz-adv-x="1066" d="M68 118l143 34v329l-140 -81v159l140 81v561l-143 34l20 118h545l20 -118l-142 -34v-388l289 168v-158l-289 -168v-506h266l83 193l154 -22l-25 -320h-901z" />
<glyph unicode="&#x142;" horiz-adv-x="664" d="M8 535v159l191 110v584l-143 34l20 118l413 22v-592l180 104v-158l-180 -104v-660l143 -34l-20 -118h-536l-20 118l143 34v493z" />
<glyph unicode="&#x143;" horiz-adv-x="1579" d="M68 118l143 34v1049l-143 34l20 118h520l592 -1101h16v949l-144 34l20 118h447l20 -118l-142 -34v-1201h-399l-591 1100h-16v-948l162 -34l-20 -118h-465zM669 1471v32l278 281l282 -10v-66l-395 -248z" />
<glyph unicode="&#x144;" horiz-adv-x="1392" d="M68 118l143 34v781l-143 34l20 118l335 22l58 -158q94 87 184 122.5t190 35.5q170 0 259 -87t89 -254v-614l143 -34l-20 -118h-536l-20 118l143 34v599q0 115 -36.5 165.5t-111.5 50.5q-53 0 -121.5 -37t-142.5 -112v-666l143 -34l-20 -118h-536zM677 1275v32l183 363 l272 -10v-66l-300 -329z" />
<glyph unicode="&#x145;" horiz-adv-x="1579" d="M68 118l143 34v1049l-143 34l20 118h520l592 -1101h16v949l-144 34l20 118h447l20 -118l-142 -34v-1201h-399l-591 1100h-16v-948l162 -34l-20 -118h-465zM705 -128h206v-62l-63 -321h-143v383z" />
<glyph unicode="&#x146;" horiz-adv-x="1392" d="M68 118l143 34v781l-143 34l20 118l335 22l58 -158q94 87 184 122.5t190 35.5q170 0 259 -87t89 -254v-614l143 -34l-20 -118h-536l-20 118l143 34v599q0 115 -36.5 165.5t-111.5 50.5q-53 0 -121.5 -37t-142.5 -112v-666l143 -34l-20 -118h-536zM675 -128h206v-62 l-63 -321h-143v383z" />
<glyph unicode="&#x147;" horiz-adv-x="1579" d="M68 118l143 34v1049l-143 34l20 118h520l592 -1101h16v949l-144 34l20 118h447l20 -118l-142 -34v-1201h-399l-591 1100h-16v-948l162 -34l-20 -118h-465zM458 1752v32l175 10l213 -172l206 172l145 -10v-32l-263 -292l-223 10z" />
<glyph unicode="&#x148;" horiz-adv-x="1392" d="M68 118l143 34v781l-143 34l20 118l335 22l58 -158q94 87 184 122.5t190 35.5q170 0 259 -87t89 -254v-614l143 -34l-20 -118h-536l-20 118l143 34v599q0 115 -36.5 165.5t-111.5 50.5q-53 0 -121.5 -37t-142.5 -112v-666l143 -34l-20 -118h-536zM454 1628v32l175 10 l187 -220l182 220l145 -10v-32l-223 -373l-243 10z" />
<glyph unicode="&#x149;" horiz-adv-x="1497" d="M173 118l143 34v781l-143 34l20 118l335 22l58 -158q94 87 184 122.5t190 35.5q170 0 259 -87t89 -254v-614l143 -34l-20 -118h-536l-20 118l143 34v599q0 115 -36.5 165.5t-111.5 50.5q-53 0 -121.5 -37t-142.5 -112v-666l143 -34l-20 -118h-536zM-179 1355 q0 42 10 79.5t26.5 66t38.5 45t47 16.5q23 0 48 -3.5t49 -11t45.5 -19.5t37.5 -30q10 -11 20 -26.5t17.5 -38t12 -53.5t4.5 -73q0 -60 -9 -116.5t-36.5 -114.5t-78 -120.5t-133.5 -134.5l-82 96q51 43 86 80.5t56 71t30 62t9 53.5q0 24 -18.5 36.5t-47.5 20.5 q-59 15 -95.5 45.5t-36.5 68.5z" />
<glyph unicode="&#x14a;" horiz-adv-x="1579" d="M68 118l143 34v1049l-143 34l20 118h520l592 -1101h16v949l-144 34l20 118h447l20 -118l-142 -34v-1201q0 -137 -25.5 -224t-72.5 -136.5t-114 -68.5t-150 -19q-67 0 -122 8.5t-96 19.5q-48 12 -86 29l36 151q63 -18 129 -31q56 -11 122.5 -20.5t127.5 -9.5q14 23 25 56 q9 29 17 73.5t8 107.5v64h-198l-591 1100h-16v-948l162 -34l-20 -118h-465z" />
<glyph unicode="&#x14b;" horiz-adv-x="1307" d="M68 118l143 34v781l-143 34l20 118l335 22l58 -158q27 25 62 52.5t80.5 51t102.5 39t129 15.5q79 0 143 -19.5t109.5 -61t70.5 -106t25 -154.5v-813q0 -119 -25.5 -198t-72.5 -126t-114 -66.5t-150 -19.5q-58 0 -106 5.5t-83 12.5q-41 8 -75 19l36 151q42 -12 87 -21 q38 -8 84 -14t89 -6q11 21 20 54q8 28 14 70t6 100v837q0 60 -10 101t-28.5 66.5t-46 37t-63.5 11.5q-48 0 -95.5 -23.5t-84.5 -51.5q-44 -33 -84 -74v-666l143 -34l-20 -118h-536z" />
<glyph unicode="&#x14c;" horiz-adv-x="1407" d="M86 525v79q0 394 166 582.5t482 188.5q302 0 457.5 -137t155.5 -411v-78q0 -385 -163 -578t-489 -193q-303 0 -456 137t-153 410zM386 570q0 -209 97.5 -326t253.5 -117q80 0 149.5 22t102.5 47q21 75 39.5 203.5t18.5 250.5v133q0 217 -88.5 330t-261.5 113 q-75 0 -142.5 -20t-109.5 -48q-18 -64 -38.5 -193t-20.5 -262v-133zM292 1530l20 160h810l-20 -160h-810z" />
<glyph unicode="&#x14d;" horiz-adv-x="1168" d="M62 419v93q0 279 145 437t385 158q238 0 375 -115t137 -336v-94q0 -267 -143 -425.5t-395 -158.5q-241 0 -372.5 116t-131.5 325zM352 453q0 -160 71 -247.5t174 -87.5q50 0 93.5 11t73.5 29q22 57 36 147.5t14 197.5v119q0 168 -69.5 256.5t-176.5 88.5q-48 0 -91 -11 t-75 -29q-23 -70 -36.5 -163t-13.5 -192v-119zM214 1333l20 160h750l-20 -160h-750z" />
<glyph unicode="&#x14e;" horiz-adv-x="1407" d="M86 525v79q0 394 166 582.5t482 188.5q302 0 457.5 -137t155.5 -411v-78q0 -385 -163 -578t-489 -193q-303 0 -456 137t-153 410zM386 570q0 -209 97.5 -326t253.5 -117q80 0 149.5 22t102.5 47q21 75 39.5 203.5t18.5 250.5v133q0 217 -88.5 330t-261.5 113 q-75 0 -142.5 -20t-109.5 -48q-18 -64 -38.5 -193t-20.5 -262v-133zM361 1749l117 10q0 -12 9.5 -34.5t35.5 -44t72.5 -37.5t121.5 -16t121.5 16t72.5 37.5t35.5 44t9.5 34.5l117 -10q0 -47 -21.5 -98.5t-65.5 -94.5t-111 -71t-158 -28t-158 28t-111 71t-65.5 94.5 t-21.5 98.5z" />
<glyph unicode="&#x14f;" horiz-adv-x="1168" d="M62 419v93q0 279 145 437t385 158q238 0 375 -115t137 -336v-94q0 -267 -143 -425.5t-395 -158.5q-241 0 -372.5 116t-131.5 325zM352 453q0 -160 71 -247.5t174 -87.5q50 0 93.5 11t73.5 29q22 57 36 147.5t14 197.5v119q0 168 -69.5 256.5t-176.5 88.5q-48 0 -91 -11 t-75 -29q-23 -70 -36.5 -163t-13.5 -192v-119zM314 1592l117 10q0 -18 11 -45t35.5 -52t64.5 -42.5t98 -17.5t98 17.5t64.5 42.5t35.5 52t11 45l117 -10q0 -59 -21.5 -117.5t-62.5 -105t-102 -75.5t-140 -29t-140 29t-102 75.5t-62.5 105t-21.5 117.5z" />
<glyph unicode="&#x150;" horiz-adv-x="1407" d="M86 525v79q0 394 166 582.5t482 188.5q302 0 457.5 -137t155.5 -411v-78q0 -385 -163 -578t-489 -193q-303 0 -456 137t-153 410zM386 570q0 -209 97.5 -326t253.5 -117q80 0 149.5 22t102.5 47q21 75 39.5 203.5t18.5 250.5v133q0 217 -88.5 330t-261.5 113 q-75 0 -142.5 -20t-109.5 -48q-18 -64 -38.5 -193t-20.5 -262v-133zM394 1471v32l278 281l282 -10v-66l-395 -248zM833 1471v32l278 281l282 -10v-66l-395 -248z" />
<glyph unicode="&#x151;" horiz-adv-x="1168" d="M62 419v93q0 279 145 437t385 158q238 0 375 -115t137 -336v-94q0 -267 -143 -425.5t-395 -158.5q-241 0 -372.5 116t-131.5 325zM352 453q0 -160 71 -247.5t174 -87.5q50 0 93.5 11t73.5 29q22 57 36 147.5t14 197.5v119q0 168 -69.5 256.5t-176.5 88.5q-48 0 -91 -11 t-75 -29q-23 -70 -36.5 -163t-13.5 -192v-119zM331 1275v32l183 363l272 -10v-66l-300 -329zM709 1275v32l183 363l272 -10v-66l-300 -329z" />
<glyph unicode="&#x152;" horiz-adv-x="1913" d="M86 525v79q0 188 39 332t118 241.5t199.5 147.5t284.5 50q62 0 116.5 -5.5t105.5 -16.5h864l24 -320l-123 -22l-83 193h-382v-422h287l34 132l119 -20v-374l-119 -20l-34 133h-287v-484h411l83 193l124 -23l-24 -319h-894q-54 -11 -113.5 -16.5t-128.5 -5.5 q-621 0 -621 547zM386 570q0 -115 28.5 -198.5t77 -138t112 -80.5t133.5 -26q69 0 124 10.5t88 20.5v1028q-98 40 -252 40q-55 0 -101 -10.5t-80 -23.5q-40 -15 -71 -34q-17 -62 -30 -134q-11 -63 -20 -145t-9 -176v-133z" />
<glyph unicode="&#x153;" horiz-adv-x="1830" d="M64 419v93q0 279 145 437t385 158q238 0 375 -115q10 -9 19 -18q140 133 372 133q228 0 326 -108.5t98 -355.5v-130h-678v-66q0 -160 77.5 -244.5t234.5 -84.5q68 0 158 20t155 45v-116q-73 -37 -188 -63t-234 -26q-237 0 -365 112l-14 13q-138 -125 -362 -125 q-241 0 -372.5 116t-131.5 325zM354 453q0 -160 71 -247.5t174 -87.5q50 0 93.5 11t73.5 29q22 57 36 147.5t14 197.5v8v111q0 168 -69.5 256.5t-176.5 88.5q-48 0 -91 -11t-75 -29q-23 -70 -36.5 -163t-13.5 -192v-119zM1109 653h385q0 175 -40 244.5t-136 69.5 q-42 0 -84.5 -10t-79.5 -29q-16 -58 -28.5 -132t-16.5 -143z" />
<glyph unicode="&#x154;" horiz-adv-x="1281" d="M70 118l143 34v1049l-143 34l20 118h559q225 0 348 -92.5t123 -273.5q0 -120 -57 -205.5t-167 -137.5l-6 -19l252 -472l123 -35l-20 -118h-309l-310 591h-113v-439l142 -34l-20 -118h-545zM513 740h73q70 0 122 7t82 20q12 41 19 94.5t7 107.5q0 136 -62 185.5t-190 49.5 h-51v-464zM398 1471v32l278 281l282 -10v-66l-395 -248z" />
<glyph unicode="&#x155;" horiz-adv-x="919" d="M68 118l143 34v781l-143 34l20 118l335 22l58 -158q44 82 108 120t149 38q40 0 84 -11t81 -31l-25 -303h-192l-27 189q-7 2 -14 3t-13 1q-30 0 -64.5 -36.5t-66.5 -100.5v-666l176 -34l-20 -118h-569zM378 1275v32l183 363l272 -10v-66l-300 -329z" />
<glyph unicode="&#x156;" horiz-adv-x="1281" d="M70 118l143 34v1049l-143 34l20 118h559q225 0 348 -92.5t123 -273.5q0 -120 -57 -205.5t-167 -137.5l-6 -19l252 -472l123 -35l-20 -118h-309l-310 591h-113v-439l142 -34l-20 -118h-545zM513 740h73q70 0 122 7t82 20q12 41 19 94.5t7 107.5q0 136 -62 185.5t-190 49.5 h-51v-464zM589 -128h206v-62l-63 -321h-143v383z" />
<glyph unicode="&#x157;" horiz-adv-x="919" d="M68 118l143 34v781l-143 34l20 118l335 22l58 -158q44 82 108 120t149 38q40 0 84 -11t81 -31l-25 -303h-192l-27 189q-7 2 -14 3t-13 1q-30 0 -64.5 -36.5t-66.5 -100.5v-666l176 -34l-20 -118h-569zM269 -128h206v-62l-63 -321h-143v383z" />
<glyph unicode="&#x158;" horiz-adv-x="1281" d="M70 118l143 34v1049l-143 34l20 118h559q225 0 348 -92.5t123 -273.5q0 -120 -57 -205.5t-167 -137.5l-6 -19l252 -472l123 -35l-20 -118h-309l-310 591h-113v-439l142 -34l-20 -118h-545zM513 740h73q70 0 122 7t82 20q12 41 19 94.5t7 107.5q0 136 -62 185.5t-190 49.5 h-51v-464zM187 1752v32l175 10l213 -172l206 172l145 -10v-32l-263 -292l-223 10z" />
<glyph unicode="&#x159;" horiz-adv-x="919" d="M68 118l143 34v781l-143 34l20 118l335 22l58 -158q44 82 108 120t149 38q40 0 84 -11t81 -31l-25 -303h-192l-27 189q-7 2 -14 3t-13 1q-30 0 -64.5 -36.5t-66.5 -100.5v-666l176 -34l-20 -118h-569zM156 1628v32l175 10l187 -220l182 220l145 -10v-32l-223 -373 l-243 10z" />
<glyph unicode="&#x15a;" horiz-adv-x="1130" d="M79 1034q0 162 141.5 251.5t390.5 89.5q101 0 198.5 -14t173.5 -38l21 -290l-155 -22l-83 197q-39 9 -83.5 13.5t-87.5 4.5q-50 0 -100 -7t-97 -21q-8 -26 -13.5 -58t-5.5 -61q0 -63 49.5 -110t235.5 -156q231 -130 318.5 -228.5t87.5 -239.5q0 -175 -146 -271t-399 -96 q-116 0 -223 17t-182 46l-21 279l167 25l84 -197q41 -10 90.5 -15.5t99.5 -5.5q53 0 106 8t94 20q12 24 21 60t9 71q0 80 -63 140t-230 160q-255 147 -326 237t-72 211zM429 1471v32l278 281l282 -10v-66l-395 -248z" />
<glyph unicode="&#x15b;" horiz-adv-x="962" d="M66 818q0 134 118.5 211.5t340.5 77.5q79 0 169.5 -17t175.5 -51l9 -261l-169 -20l-61 194q-32 8 -66.5 11.5t-64.5 3.5q-38 0 -79.5 -5.5t-73.5 -15.5q-5 -16 -7 -35t-2 -38q0 -47 43 -87t192 -122q185 -100 256 -178t71 -200q0 -147 -122.5 -227.5t-345.5 -80.5 q-107 0 -202.5 19.5t-163.5 50.5l-10 260l169 20l59 -189q34 -10 74 -15.5t81 -5.5q46 0 87 5.5t77 15.5q4 16 5.5 36.5t1.5 39.5q0 65 -49.5 113t-201.5 134q-172 94 -241.5 166.5t-69.5 189.5zM403 1275v32l183 363l272 -10v-66l-300 -329z" />
<glyph unicode="&#x15c;" horiz-adv-x="1130" d="M79 1034q0 162 141.5 251.5t390.5 89.5q101 0 198.5 -14t173.5 -38l21 -290l-155 -22l-83 197q-39 9 -83.5 13.5t-87.5 4.5q-50 0 -100 -7t-97 -21q-8 -26 -13.5 -58t-5.5 -61q0 -63 49.5 -110t235.5 -156q231 -130 318.5 -228.5t87.5 -239.5q0 -175 -146 -271t-399 -96 q-116 0 -223 17t-182 46l-21 279l167 25l84 -197q41 -10 90.5 -15.5t99.5 -5.5q53 0 106 8t94 20q12 24 21 60t9 71q0 80 -63 140t-230 160q-255 147 -326 237t-72 211zM226 1470v32l263 292l223 -10l253 -282v-32l-175 -10l-213 171l-206 -171z" />
<glyph unicode="&#x15d;" horiz-adv-x="962" d="M66 818q0 134 118.5 211.5t340.5 77.5q79 0 169.5 -17t175.5 -51l9 -261l-169 -20l-61 194q-32 8 -66.5 11.5t-64.5 3.5q-38 0 -79.5 -5.5t-73.5 -15.5q-5 -16 -7 -35t-2 -38q0 -47 43 -87t192 -122q185 -100 256 -178t71 -200q0 -147 -122.5 -227.5t-345.5 -80.5 q-107 0 -202.5 19.5t-163.5 50.5l-10 260l169 20l59 -189q34 -10 74 -15.5t81 -5.5q46 0 87 5.5t77 15.5q4 16 5.5 36.5t1.5 39.5q0 65 -49.5 113t-201.5 134q-172 94 -241.5 166.5t-69.5 189.5zM181 1275v32l223 373l243 -10l223 -363v-32l-175 -10l-188 219l-181 -219z " />
<glyph unicode="&#x15e;" horiz-adv-x="1130" d="M79 1034q0 162 141.5 251.5t390.5 89.5q101 0 198.5 -14t173.5 -38l21 -290l-155 -22l-83 197q-39 9 -83.5 13.5t-87.5 4.5q-50 0 -100 -7t-97 -21q-8 -26 -13.5 -58t-5.5 -61q0 -63 49.5 -110t235.5 -156q231 -130 318.5 -228.5t87.5 -239.5q0 -175 -146 -271 q-116 -76 -300 -92l-30 -77q47 -9 85 -23t64.5 -35.5t41 -51t14.5 -70.5q0 -40 -17.5 -73.5t-50 -57.5t-78.5 -37.5t-102 -13.5q-46 0 -84 7t-66 16q-33 11 -60 24v113q28 -11 59 -20q26 -8 58 -14t64 -6q37 0 58 3q11 2 21 4q1 7 3 15q2 7 3 14.5t1 15.5q0 17 -7 30.5 t-24 24t-45 19t-71 15.5l-46 72l38 104q-78 4 -151 15q-107 17 -182 46l-21 279l167 25l84 -197q41 -10 90.5 -15.5t99.5 -5.5q53 0 106 8t94 20q12 24 21 60t9 71q0 80 -63 140t-230 160q-255 147 -326 237t-72 211z" />
<glyph unicode="&#x15f;" horiz-adv-x="962" d="M66 818q0 134 118.5 211.5t340.5 77.5q79 0 169.5 -17t175.5 -51l9 -261l-169 -20l-61 194q-32 8 -66.5 11.5t-64.5 3.5q-38 0 -79.5 -5.5t-73.5 -15.5q-5 -16 -7 -35t-2 -38q0 -47 43 -87t192 -122q185 -100 256 -178t71 -200q0 -147 -123 -228q-97 -63 -256 -76 l-30 -77q47 -9 85 -23t64.5 -35.5t41 -51t14.5 -70.5q0 -40 -17.5 -73.5t-50 -57.5t-78.5 -37.5t-102 -13.5q-46 0 -84 7t-66 16q-33 11 -60 24v113q28 -11 59 -20q26 -8 58 -14t64 -6q37 0 58 3q11 2 21 4q1 7 3 15q2 7 3 14.5t1 15.5q0 17 -7 30.5t-24 24t-45 19t-71 15.5 l-46 72l38 105q-62 5 -121 17q-95 19 -163 50l-10 260l169 20l59 -189q34 -10 74 -15.5t81 -5.5q46 0 87 5.5t77 15.5q4 16 5.5 36.5t1.5 39.5q0 65 -49.5 113t-201.5 134q-172 94 -241.5 166.5t-69.5 189.5z" />
<glyph unicode="&#x160;" horiz-adv-x="1130" d="M79 1034q0 162 141.5 251.5t390.5 89.5q101 0 198.5 -14t173.5 -38l21 -290l-155 -22l-83 197q-39 9 -83.5 13.5t-87.5 4.5q-50 0 -100 -7t-97 -21q-8 -26 -13.5 -58t-5.5 -61q0 -63 49.5 -110t235.5 -156q231 -130 318.5 -228.5t87.5 -239.5q0 -175 -146 -271t-399 -96 q-116 0 -223 17t-182 46l-21 279l167 25l84 -197q41 -10 90.5 -15.5t99.5 -5.5q53 0 106 8t94 20q12 24 21 60t9 71q0 80 -63 140t-230 160q-255 147 -326 237t-72 211zM218 1752v32l175 10l213 -172l206 172l145 -10v-32l-263 -292l-223 10z" />
<glyph unicode="&#x161;" horiz-adv-x="962" d="M66 818q0 134 118.5 211.5t340.5 77.5q79 0 169.5 -17t175.5 -51l9 -261l-169 -20l-61 194q-32 8 -66.5 11.5t-64.5 3.5q-38 0 -79.5 -5.5t-73.5 -15.5q-5 -16 -7 -35t-2 -38q0 -47 43 -87t192 -122q185 -100 256 -178t71 -200q0 -147 -122.5 -227.5t-345.5 -80.5 q-107 0 -202.5 19.5t-163.5 50.5l-10 260l169 20l59 -189q34 -10 74 -15.5t81 -5.5q46 0 87 5.5t77 15.5q4 16 5.5 36.5t1.5 39.5q0 65 -49.5 113t-201.5 134q-172 94 -241.5 166.5t-69.5 189.5zM176 1628v32l175 10l187 -220l182 220l145 -10v-32l-223 -373l-243 10z" />
<glyph unicode="&#x162;" horiz-adv-x="1069" d="M-32 1043l15 310h1102l14 -310l-148 -9l-63 170h-204v-1052l143 -34l-20 -118h-204l-37 -95q47 -9 85 -23t64.5 -35.5t41 -51t14.5 -70.5q0 -40 -17.5 -73.5t-50 -57.5t-78.5 -37.5t-102 -13.5q-46 0 -84 7t-66 16q-33 11 -60 24v113q28 -11 59 -20q26 -8 58 -14t64 -6 q37 0 58 3q11 2 21 4q1 7 3 15q2 7 3 14.5t1 15.5q0 17 -7 30.5t-24 24t-45 19t-71 15.5l-46 72l45 124h-171l-20 118l143 34v1052h-205l-62 -170z" />
<glyph unicode="&#x163;" horiz-adv-x="772" d="M8 966l20 119h131l73 293l217 -20v-273h250l20 -119l-270 -32v-642q0 -83 26.5 -128.5t104.5 -45.5q29 0 67 11.5t73 27.5v-114q-54 -31 -124 -48q-46 -11 -91 -15l-29 -75q47 -9 85 -23t64.5 -35.5t41 -51t14.5 -70.5q0 -40 -17.5 -73.5t-50 -57.5t-78.5 -37.5 t-102 -13.5q-46 0 -84 7t-66 16q-33 11 -60 24v113q28 -11 59 -20q26 -8 58 -14t64 -6q37 0 58 3q11 2 21 4q1 7 3 15q2 7 3 14.5t1 15.5q0 17 -7 30.5t-24 24t-45 19t-71 15.5l-46 72l42 114q-72 17 -112 58q-68 71 -68 222v664z" />
<glyph unicode="&#x164;" horiz-adv-x="1207" d="M8 1043l15 310h1162l14 -310l-148 -9l-63 170h-234v-1052l143 -34l-20 -118h-546l-20 118l143 34v1052h-235l-62 -170zM229 1752v32l175 10l213 -172l206 172l145 -10v-32l-263 -292l-223 10z" />
<glyph unicode="&#x165;" horiz-adv-x="772" d="M8 966l20 119h131l73 293l217 -20v-273h250l20 -119l-270 -32v-642q0 -83 26.5 -128.5t104.5 -45.5q29 0 67 11.5t73 27.5v-114q-54 -31 -124 -48t-140 -17q-160 0 -228.5 70.5t-68.5 221.5v664zM580 1157v383h206v-62l-63 -321h-143z" />
<glyph unicode="&#x166;" horiz-adv-x="1147" d="M8 1043l15 310h1102l14 -310l-148 -9l-63 170h-204v-498h234v-157h-234v-397l143 -34l-20 -118h-546l-20 118l143 34v397h-244v157h244v498h-205l-62 -170z" />
<glyph unicode="&#x167;" horiz-adv-x="772" d="M-8 455v157h167v322l-151 32l20 119h131l73 293l217 -20v-273h250l20 -119l-270 -32v-322h276v-157h-276v-163q0 -83 26.5 -128.5t104.5 -45.5q29 0 67 11.5t73 27.5v-114q-54 -31 -124 -48t-140 -17q-160 0 -228.5 70.5t-68.5 221.5v185h-167z" />
<glyph unicode="&#x168;" horiz-adv-x="1400" d="M0 1235l20 118h546l20 -118l-142 -34v-655q0 -208 79 -313.5t224 -105.5q73 0 137 16.5t101 39.5q33 62 55.5 151.5t22.5 186.5v680l-143 34l20 118h436l20 -118l-142 -34v-657q0 -286 -136 -426t-420 -140q-287 0 -420.5 129t-133.5 384v710zM281 1473v50 q0 127 67 190.5t183 63.5q66 0 133 -20.5t128.5 -45.5t113 -45.5t86.5 -20.5q43 0 68 29.5t25 90.5l137 10v-72q0 -119 -61.5 -186.5t-176.5 -67.5q-58 0 -127 20.5t-135.5 45.5t-123.5 45.5t-91 20.5q-23 0 -40.5 -4t-30.5 -15t-19.5 -30t-6.5 -49z" />
<glyph unicode="&#x169;" horiz-adv-x="1316" d="M8 967l20 118l413 22v-734q0 -132 38 -193.5t121 -61.5q54 0 115.5 40t117.5 109v666l-173 34l20 118l443 22v-955l143 -34l-20 -118l-335 -22l-58 158q-77 -79 -167.5 -118.5t-194.5 -39.5q-170 0 -255 95t-85 281v579zM203 1257v50q0 127 61.5 190.5t168.5 63.5 q57 0 115.5 -20.5t111.5 -45.5t98.5 -45.5t75.5 -20.5q34 0 53.5 29.5t19.5 90.5l137 10v-72q0 -119 -56 -186.5t-162 -67.5q-51 0 -111.5 20.5t-118.5 45.5t-108 45.5t-79 20.5q-36 0 -56.5 -19t-20.5 -79z" />
<glyph unicode="&#x16a;" horiz-adv-x="1400" d="M0 1235l20 118h546l20 -118l-142 -34v-655q0 -208 79 -313.5t224 -105.5q73 0 137 16.5t101 39.5q33 62 55.5 151.5t22.5 186.5v680l-143 34l20 118h436l20 -118l-142 -34v-657q0 -286 -136 -426t-420 -140q-287 0 -420.5 129t-133.5 384v710zM339 1530l20 160h810 l-20 -160h-810z" />
<glyph unicode="&#x16b;" horiz-adv-x="1316" d="M8 967l20 118l413 22v-734q0 -132 38 -193.5t121 -61.5q54 0 115.5 40t117.5 109v666l-173 34l20 118l443 22v-955l143 -34l-20 -118l-335 -22l-58 158q-77 -79 -167.5 -118.5t-194.5 -39.5q-170 0 -255 95t-85 281v579zM256 1333l20 160h750l-20 -160h-750z" />
<glyph unicode="&#x16c;" horiz-adv-x="1400" d="M0 1235l20 118h546l20 -118l-142 -34v-655q0 -208 79 -313.5t224 -105.5q73 0 137 16.5t101 39.5q33 62 55.5 151.5t22.5 186.5v680l-143 34l20 118h436l20 -118l-142 -34v-657q0 -286 -136 -426t-420 -140q-287 0 -420.5 129t-133.5 384v710zM408 1749l117 10 q0 -12 9.5 -34.5t35.5 -44t72.5 -37.5t121.5 -16t121.5 16t72.5 37.5t35.5 44t9.5 34.5l117 -10q0 -47 -21.5 -98.5t-65.5 -94.5t-111 -71t-158 -28t-158 28t-111 71t-65.5 94.5t-21.5 98.5z" />
<glyph unicode="&#x16d;" horiz-adv-x="1316" d="M8 967l20 118l413 22v-734q0 -132 38 -193.5t121 -61.5q54 0 115.5 40t117.5 109v666l-173 34l20 118l443 22v-955l143 -34l-20 -118l-335 -22l-58 158q-77 -79 -167.5 -118.5t-194.5 -39.5q-170 0 -255 95t-85 281v579zM306 1592l117 10q0 -18 11 -45t35.5 -52 t64.5 -42.5t98 -17.5t98 17.5t64.5 42.5t35.5 52t11 45l117 -10q0 -59 -21.5 -117.5t-62.5 -105t-102 -75.5t-140 -29t-140 29t-102 75.5t-62.5 105t-21.5 117.5z" />
<glyph unicode="&#x16e;" horiz-adv-x="1400" d="M0 1235l20 118h546l20 -118l-142 -34v-655q0 -208 79 -313.5t224 -105.5q73 0 137 16.5t101 39.5q33 62 55.5 151.5t22.5 186.5v680l-143 34l20 118h436l20 -118l-142 -34v-657q0 -286 -136 -426t-420 -140q-287 0 -420.5 129t-133.5 384v710zM529 1570q0 58 19.5 101 t52 71.5t76 42.5t91.5 14q44 0 83.5 -9.5t69.5 -29.5t47.5 -51t17.5 -75q0 -61 -18.5 -104.5t-50.5 -71.5t-75.5 -41t-93.5 -13q-46 0 -86 9.5t-69.5 30t-46.5 51.5t-17 75zM684 1602q0 -51 22 -78t57 -27q14 0 24.5 1t18.5 3q9 2 17 5q2 11 4 26q2 13 3.5 30.5t1.5 39.5 q0 51 -22 78t-57 27q-11 0 -20 -1.5t-16 -3.5q-8 -2 -14 -4q-6 -11 -10 -25q-4 -12 -6.5 -30t-2.5 -41z" />
<glyph unicode="&#x16f;" horiz-adv-x="1316" d="M8 967l20 118l413 22v-734q0 -132 38 -193.5t121 -61.5q54 0 115.5 40t117.5 109v666l-173 34l20 118l443 22v-955l143 -34l-20 -118l-335 -22l-58 158q-77 -79 -167.5 -118.5t-194.5 -39.5q-170 0 -255 95t-85 281v579zM403 1436q0 61 19.5 106t52 74.5t76 44t91.5 14.5 q44 0 83.5 -10t69.5 -31t47.5 -54.5t17.5 -79.5q0 -64 -18.5 -109.5t-50.5 -74.5t-75.5 -42.5t-93.5 -13.5q-46 0 -86 10t-69.5 31.5t-46.5 55t-17 79.5zM558 1468q0 -56 22 -85.5t57 -29.5q14 0 24.5 1t18.5 3q9 2 17 5q2 12 4 29q2 14 3.5 33.5t1.5 43.5q0 56 -22 85.5 t-57 29.5q-11 0 -20 -1.5t-16 -3.5q-8 -2 -14 -4q-6 -11 -10 -27q-4 -14 -6.5 -33.5t-2.5 -45.5z" />
<glyph unicode="&#x170;" horiz-adv-x="1400" d="M0 1235l20 118h546l20 -118l-142 -34v-655q0 -208 79 -313.5t224 -105.5q73 0 137 16.5t101 39.5q33 62 55.5 151.5t22.5 186.5v680l-143 34l20 118h436l20 -118l-142 -34v-657q0 -286 -136 -426t-420 -140q-287 0 -420.5 129t-133.5 384v710zM441 1471v32l278 281 l282 -10v-66l-395 -248zM880 1471v32l278 281l282 -10v-66l-395 -248z" />
<glyph unicode="&#x171;" horiz-adv-x="1316" d="M8 967l20 118l413 22v-734q0 -132 38 -193.5t121 -61.5q54 0 115.5 40t117.5 109v666l-173 34l20 118l443 22v-955l143 -34l-20 -118l-335 -22l-58 158q-77 -79 -167.5 -118.5t-194.5 -39.5q-170 0 -255 95t-85 281v579zM323 1275v32l183 363l272 -10v-66l-300 -329z M701 1275v32l183 363l272 -10v-66l-300 -329z" />
<glyph unicode="&#x172;" horiz-adv-x="1400" d="M0 1235l20 118h546l20 -118l-142 -34v-655q0 -208 79 -313.5t224 -105.5q73 0 137 16.5t101 39.5q33 62 55.5 151.5t22.5 186.5v680l-143 34l20 118h436l20 -118l-142 -34v-657q0 -286 -136 -426q-27 -28 -59 -50v-3q-58 -40 -102.5 -85t-75 -90t-46.5 -87.5t-16 -77.5 t14 -48.5t45 -13.5q26 0 54 12.5t51 27.5q27 18 53 40v-113q-28 -25 -64 -44q-31 -17 -73.5 -30t-95.5 -13q-40 0 -72 7t-55 23.5t-35.5 45t-12.5 70.5q0 61 27.5 119t81.5 119q24 27 54 55q-44 -4 -93 -4q-287 0 -420.5 129t-133.5 384v710z" />
<glyph unicode="&#x173;" horiz-adv-x="1316" d="M8 967l20 118l413 22v-734q0 -132 38 -193.5t121 -61.5q54 0 115.5 40t117.5 109v666l-173 34l20 118l443 22v-955l143 -34v-1l-20 -117q-47 -33 -82.5 -70.5t-60 -74t-37 -70.5t-12.5 -60q0 -35 14 -48.5t45 -13.5q26 0 54 12.5t51 27.5q27 18 53 40v-113 q-29 -25 -65 -44q-32 -17 -75.5 -30t-98.5 -13q-81 0 -125 29t-44 104q0 63 31 121.5t85 113.5q39 40 88 78l-156 -11l-58 158q-77 -79 -167.5 -118.5t-194.5 -39.5q-170 0 -255 95t-85 281v579z" />
<glyph unicode="&#x174;" horiz-adv-x="2082" d="M-30 1234l20 119h497l20 -119l-144 -28l284 -866h16l318 1011v2h271l309 -1013h16l254 866l-148 28l20 119h403l20 -119l-88 -28l-371 -1206h-291l-298 956h-16l-302 -956h-292l-406 1206zM756 1470v32l263 292l223 -10l253 -282v-32l-175 -10l-213 171l-206 -171z" />
<glyph unicode="&#x175;" horiz-adv-x="1769" d="M-24 967l20 118h451l20 -118l-125 -19l219 -691h16l239 828h243l242 -828h16l198 691l-128 19l20 118h366l20 -118l-90 -19l-289 -948h-292l-217 699h-16l-212 -699h-292l-316 948zM599 1275v32l223 373l243 -10l223 -363v-32l-175 -10l-188 219l-181 -219z" />
<glyph unicode="&#x176;" horiz-adv-x="1172" d="M-54 1234l20 119h520l20 -119l-142 -27l277 -444l264 444l-135 27l20 119h422l20 -119l-113 -31l-367 -616v-435l142 -34l-20 -118h-545l-20 118l143 34v434l-389 617zM275 1470v32l263 292l223 -10l253 -282v-32l-175 -10l-213 171l-206 -171z" />
<glyph unicode="&#x177;" horiz-adv-x="1104" d="M-20 967l20 118h450l20 -118l-123 -19l243 -726h16l240 726l-122 19l20 118h364l20 -118l-92 -19l-333 -952q-86 -250 -176 -351.5t-228 -101.5q-71 0 -143 18t-132 49l41 171q75 -33 161.5 -57t143.5 -24q22 13 49.5 48t46.5 80l-394 1120zM274 1275v32l223 373l243 -10 l223 -363v-32l-175 -10l-188 219l-181 -219z" />
<glyph unicode="&#x178;" horiz-adv-x="1172" d="M-54 1234l20 119h520l20 -119l-142 -27l277 -444l264 444l-135 27l20 119h422l20 -119l-113 -31l-367 -616v-435l142 -34l-20 -118h-545l-20 118l143 34v434l-389 617zM241 1577q0 31 8.5 58.5t23 48t34 32.5t40.5 12q31 0 58.5 -8.5t47.5 -23t31.5 -34.5t11.5 -42 q0 -30 -8.5 -57t-22.5 -48t-33.5 -33t-40.5 -12q-32 0 -59 8.5t-47.5 23.5t-32 34.5t-11.5 40.5zM783 1577q0 31 8.5 58.5t22.5 48t33.5 32.5t40.5 12q31 0 58.5 -8.5t48 -23t32 -34.5t11.5 -42q0 -30 -8.5 -57t-23 -48t-34 -33t-41.5 -12q-32 0 -59 8.5t-46.5 23.5 t-31 34.5t-11.5 40.5z" />
<glyph unicode="&#x179;" horiz-adv-x="1165" d="M50 0v145l695 1045l-5 14h-441l-82 -193l-154 22l25 320h1007v-144l-696 -1046l5 -14h482l82 193l153 -22l-24 -320h-1047zM439 1471v32l278 281l282 -10v-66l-395 -248z" />
<glyph unicode="&#x17a;" horiz-adv-x="1039" d="M56 0v95l593 848l-6 12h-355l-52 -190l-144 11v309h907v-83l-601 -860l6 -12h386l52 190l144 -11v-309h-930zM453 1275v32l183 363l272 -10v-66l-300 -329z" />
<glyph unicode="&#x17b;" horiz-adv-x="1165" d="M50 0v145l695 1045l-5 14h-441l-82 -193l-154 22l25 320h1007v-144l-696 -1046l5 -14h482l82 193l153 -22l-24 -320h-1047zM472 1584q0 34 9.5 64t25.5 53t37.5 36.5t45.5 13.5q34 0 64.5 -9.5t53 -25.5t35.5 -37.5t13 -46.5q0 -33 -9.5 -63.5t-25.5 -53t-37.5 -36 t-45.5 -13.5q-35 0 -65 9.5t-52.5 25.5t-35.5 37.5t-13 45.5z" />
<glyph unicode="&#x17c;" horiz-adv-x="1039" d="M56 0v95l593 848l-6 12h-355l-52 -190l-144 11v309h907v-83l-601 -860l6 -12h386l52 190l144 -11v-309h-930zM432 1395q0 34 9.5 64t25.5 53t37.5 36.5t45.5 13.5q34 0 64.5 -9.5t53 -25.5t35.5 -37.5t13 -46.5q0 -33 -9.5 -63.5t-25.5 -53t-37.5 -36t-45.5 -13.5 q-35 0 -65 9.5t-52.5 25.5t-35.5 37.5t-13 45.5z" />
<glyph unicode="&#x17d;" horiz-adv-x="1165" d="M50 0v145l695 1045l-5 14h-441l-82 -193l-154 22l25 320h1007v-144l-696 -1046l5 -14h482l82 193l153 -22l-24 -320h-1047zM228 1752v32l175 10l213 -172l206 172l145 -10v-32l-263 -292l-223 10z" />
<glyph unicode="&#x17e;" horiz-adv-x="1039" d="M56 0v95l593 848l-6 12h-355l-52 -190l-144 11v309h907v-83l-601 -860l6 -12h386l52 190l144 -11v-309h-930zM230 1628v32l175 10l187 -220l182 220l145 -10v-32l-223 -373l-243 10z" />
<glyph unicode="&#x17f;" horiz-adv-x="657" d="M58 967l20 118h153v108q0 101 28 171.5t79 114.5t121.5 63.5t155.5 19.5q43 0 80 -6t64 -13q32 -8 58 -18l-43 -151q-34 11 -71 20q-32 8 -71.5 14.5t-80.5 6.5q-9 -20 -15 -50q-6 -26 -10.5 -64t-4.5 -92v-1209h-433l-20 118l163 34v781z" />
<glyph unicode="&#x18f;" horiz-adv-x="1335" d="M126 525v202h871v56q0 128 -25.5 213t-72 136t-110.5 72.5t-142 21.5q-94 0 -172.5 -20t-136.5 -44q-68 -28 -123 -64v146q43 26 96 50t113.5 42t128.5 28.5t140 10.5q295 0 449.5 -137t154.5 -411v-78q0 -377 -151 -574t-459 -197q-279 0 -420 137.5t-141 409.5z M426 564q0 -123 24 -206.5t63.5 -135t92 -73.5t111.5 -22q51 0 92 7.5t70 16.5q33 11 60 25q12 54 23 116q9 54 18 124t14 148h-568z" />
<glyph unicode="&#x192;" horiz-adv-x="872" d="M-20 -420l36 151q42 -12 87 -21q38 -8 84 -14t89 -6q11 21 20 54q8 28 14 70t6 100v647h-198v150h198v482q0 101 26 171.5t72.5 114.5t111.5 63.5t144 19.5q48 0 89.5 -6t73.5 -13q37 -8 69 -18l-43 -151q-35 11 -73 20q-32 8 -72 14.5t-78 6.5q-9 -20 -15 -50 q-6 -26 -10.5 -64t-4.5 -92v-498h184v-150h-184v-608q0 -119 -25.5 -198t-72.5 -126t-114 -66.5t-150 -19.5q-58 0 -106 5.5t-83 12.5q-41 8 -75 19z" />
<glyph unicode="&#x1a0;" horiz-adv-x="1500" d="M86 525v79q0 394 166 582.5t482 188.5q302 0 457 -137q39 -34 68 -77q10 6 20 11q48 25 77 50.5t41.5 53.5t12.5 64q0 33 -10.5 61t-23.5 48q-15 24 -33 43v40l210 57q48 -60 67.5 -114t19.5 -99q0 -62 -24 -113.5t-79.5 -97t-148.5 -87.5q-34 -15 -73 -31 q32 -96 32 -220v-78q0 -385 -163 -578t-489 -193q-303 0 -456 137t-153 410zM386 570q0 -209 97.5 -326t253.5 -117q80 0 149.5 22t102.5 47q21 75 39.5 203.5t18.5 250.5v133q0 217 -88.5 330t-261.5 113q-75 0 -142.5 -20t-109.5 -48q-18 -64 -38.5 -193t-20.5 -262v-133z " />
<glyph unicode="&#x1a1;" horiz-adv-x="1203" d="M62 419v93q0 279 145 437t385 158q198 0 326 -80q33 19 55 38q29 26 41.5 54t12.5 64q0 33 -10.5 61t-23.5 48q-15 24 -33 43v40l210 57q48 -60 67.5 -114t19.5 -99q0 -62 -24 -113.5t-80 -97.5q-49 -40 -128 -78q79 -106 79 -274v-94q0 -267 -143 -425.5t-395 -158.5 q-241 0 -372.5 116t-131.5 325zM352 453q0 -160 71 -247.5t174 -87.5q50 0 93.5 11t73.5 29q22 57 36 147.5t14 197.5v119q0 168 -69.5 256.5t-176.5 88.5q-48 0 -91 -11t-75 -29q-23 -70 -36.5 -163t-13.5 -192v-119z" />
<glyph unicode="&#x1af;" horiz-adv-x="1591" d="M-34 1235l20 118h546l20 -118l-142 -34v-655q0 -208 79 -313.5t224 -105.5q73 0 137 16.5t101 39.5q33 62 55.5 151.5t22.5 186.5v680l-143 34l20 118h436l20 -118l-142 -34v-62q38 17 68 33q48 25 77 50.5t41.5 53.5t12.5 64q0 33 -10.5 61t-23.5 48q-15 24 -33 43v40 l210 57q48 -60 67.5 -114t19.5 -99q0 -62 -24 -113.5t-79.5 -97t-148.5 -87.5q-74 -33 -177 -67v-467q0 -286 -136 -426t-420 -140q-287 0 -420.5 129t-133.5 384v710z" />
<glyph unicode="&#x1b0;" horiz-adv-x="1433" d="M8 967l20 118l413 22v-734q0 -132 38 -193.5t121 -61.5q54 0 115.5 40t117.5 109v666l-173 34l20 118l443 22v-117q27 13 49 25q48 25 77 50.5t41.5 53.5t12.5 64q0 33 -10.5 61t-23.5 48q-15 24 -33 43v40l210 57q48 -60 67.5 -114t19.5 -99q0 -62 -24 -113.5t-79.5 -97 t-148.5 -87.5q-67 -30 -158 -61v-708l143 -34l-20 -118l-335 -22l-58 158q-77 -79 -167.5 -118.5t-194.5 -39.5q-170 0 -255 95t-85 281v579z" />
<glyph unicode="&#x1cd;" horiz-adv-x="1266" d="M-26 118l100 28l433 1207h263l423 -1207l99 -28l-20 -118h-494l-20 118l132 28l-82 240h-453l-84 -240l132 -28l-20 -118h-389zM406 535h352l-166 488h-16zM269 1752v32l175 10l213 -172l206 172l145 -10v-32l-263 -292l-223 10z" />
<glyph unicode="&#x1ce;" horiz-adv-x="1188" d="M70 237q0 190 161.5 285t479.5 95v93q0 132 -45.5 194.5t-147.5 62.5q-42 0 -78.5 -4.5t-63.5 -10.5l-60 -212l-168 10v303q85 24 191.5 39t206.5 15q232 0 343.5 -92.5t111.5 -279.5v-583l143 -34l-20 -118l-335 -22l-57 158q-62 -71 -155.5 -114.5t-200.5 -43.5 q-148 0 -227 66.5t-79 192.5zM360 275q0 -76 31 -116.5t89 -40.5q63 0 126.5 38.5t104.5 88.5v232q-100 0 -186.5 -16t-134.5 -42q-12 -25 -21 -62.5t-9 -81.5zM217 1628v32l175 10l187 -220l182 220l145 -10v-32l-223 -373l-243 10z" />
<glyph unicode="&#x1cf;" horiz-adv-x="717" d="M68 118l143 34v1049l-143 34l20 118h545l20 -118l-142 -34v-1049l142 -34l-20 -118h-545zM-15 1752v32l175 10l213 -172l206 172l145 -10v-32l-263 -292l-223 10z" />
<glyph unicode="&#x1d0;" horiz-adv-x="696" d="M68 118l143 34v781l-143 34l20 118l413 22v-955l143 -34l-20 -118h-536zM-12 1628v32l175 10l187 -220l182 220l145 -10v-32l-223 -373l-243 10z" />
<glyph unicode="&#x1d1;" horiz-adv-x="1407" d="M86 525v79q0 394 166 582.5t482 188.5q302 0 457.5 -137t155.5 -411v-78q0 -385 -163 -578t-489 -193q-303 0 -456 137t-153 410zM386 570q0 -209 97.5 -326t253.5 -117q80 0 149.5 22t102.5 47q21 75 39.5 203.5t18.5 250.5v133q0 217 -88.5 330t-261.5 113 q-75 0 -142.5 -20t-109.5 -48q-18 -64 -38.5 -193t-20.5 -262v-133zM336 1752v32l175 10l213 -172l206 172l145 -10v-32l-263 -292l-223 10z" />
<glyph unicode="&#x1d2;" horiz-adv-x="1168" d="M62 419v93q0 279 145 437t385 158q238 0 375 -115t137 -336v-94q0 -267 -143 -425.5t-395 -158.5q-241 0 -372.5 116t-131.5 325zM352 453q0 -160 71 -247.5t174 -87.5q50 0 93.5 11t73.5 29q22 57 36 147.5t14 197.5v119q0 168 -69.5 256.5t-176.5 88.5q-48 0 -91 -11 t-75 -29q-23 -70 -36.5 -163t-13.5 -192v-119zM295 1628v32l175 10l187 -220l182 220l145 -10v-32l-223 -373l-243 10z" />
<glyph unicode="&#x1d3;" horiz-adv-x="1400" d="M0 1235l20 118h546l20 -118l-142 -34v-655q0 -208 79 -313.5t224 -105.5q73 0 137 16.5t101 39.5q33 62 55.5 151.5t22.5 186.5v680l-143 34l20 118h436l20 -118l-142 -34v-657q0 -286 -136 -426t-420 -140q-287 0 -420.5 129t-133.5 384v710zM383 1752v32l175 10 l213 -172l206 172l145 -10v-32l-263 -292l-223 10z" />
<glyph unicode="&#x1d4;" horiz-adv-x="1316" d="M8 967l20 118l413 22v-734q0 -132 38 -193.5t121 -61.5q54 0 115.5 40t117.5 109v666l-173 34l20 118l443 22v-955l143 -34l-20 -118l-335 -22l-58 158q-77 -79 -167.5 -118.5t-194.5 -39.5q-170 0 -255 95t-85 281v579zM287 1628v32l175 10l187 -220l182 220l145 -10 v-32l-223 -373l-243 10z" />
<glyph unicode="&#x1d5;" horiz-adv-x="1400" d="M0 1235l20 118h546l20 -118l-142 -34v-655q0 -208 79 -313.5t224 -105.5q73 0 137 16.5t101 39.5q33 62 55.5 151.5t22.5 186.5v680l-143 34l20 118h436l20 -118l-142 -34v-657q0 -286 -136 -426t-420 -140q-287 0 -420.5 129t-133.5 384v710zM375 1577q0 31 8.5 58.5 t23 48t34 32.5t40.5 12q31 0 58.5 -8.5t47.5 -23t31.5 -34.5t11.5 -42q0 -30 -8.5 -57t-22.5 -48t-33.5 -33t-40.5 -12q-32 0 -59 8.5t-47.5 23.5t-32 34.5t-11.5 40.5zM375 1782l20 160h810l-20 -160h-810zM917 1577q0 31 8.5 58.5t22.5 48t33.5 32.5t40.5 12 q31 0 58.5 -8.5t48 -23t32 -34.5t11.5 -42q0 -30 -8.5 -57t-23 -48t-34 -33t-41.5 -12q-32 0 -59 8.5t-46.5 23.5t-31 34.5t-11.5 40.5z" />
<glyph unicode="&#x1d6;" horiz-adv-x="1316" d="M8 967l20 118l413 22v-734q0 -132 38 -193.5t121 -61.5q54 0 115.5 40t117.5 109v666l-173 34l20 118l443 22v-955l143 -34l-20 -118l-335 -22l-58 158q-77 -79 -167.5 -118.5t-194.5 -39.5q-170 0 -255 95t-85 281v579zM230 1620l20 160h750l-20 -160h-750zM250 1389 q0 31 8.5 58.5t23 48t34 32.5t40.5 12q31 0 58.5 -8.5t47.5 -23.5t31.5 -34.5t11.5 -41.5q0 -30 -8.5 -57t-22.5 -48t-33.5 -33t-40.5 -12q-32 0 -59 8.5t-47.5 23.5t-32 34.5t-11.5 40.5zM730 1389q0 31 8.5 58.5t22.5 48t33.5 32.5t40.5 12q31 0 58.5 -8.5t48 -23.5 t32 -34.5t11.5 -41.5q0 -30 -8.5 -57t-23 -48t-34 -33t-41.5 -12q-32 0 -59 8.5t-46.5 23.5t-31 34.5t-11.5 40.5z" />
<glyph unicode="&#x1d7;" horiz-adv-x="1400" d="M0 1235l20 118h546l20 -118l-142 -34v-655q0 -208 79 -313.5t224 -105.5q73 0 137 16.5t101 39.5q33 62 55.5 151.5t22.5 186.5v680l-143 34l20 118h436l20 -118l-142 -34v-657q0 -286 -136 -426t-420 -140q-287 0 -420.5 129t-133.5 384v710zM382 1577q0 31 8.5 58.5 t23 48t34 32.5t40.5 12q31 0 58.5 -8.5t47.5 -23t31.5 -34.5t11.5 -42q0 -30 -8.5 -57t-22.5 -48t-33.5 -33t-40.5 -12q-32 0 -59 8.5t-47.5 23.5t-32 34.5t-11.5 40.5zM633 1756v32l278 281l282 -10v-66l-395 -248zM924 1577q0 31 8.5 58.5t22.5 48t33.5 32.5t40.5 12 q31 0 58.5 -8.5t48 -23t32 -34.5t11.5 -42q0 -30 -8.5 -57t-23 -48t-34 -33t-41.5 -12q-32 0 -59 8.5t-46.5 23.5t-31 34.5t-11.5 40.5z" />
<glyph unicode="&#x1d8;" horiz-adv-x="1316" d="M8 967l20 118l413 22v-734q0 -132 38 -193.5t121 -61.5q54 0 115.5 40t117.5 109v666l-173 34l20 118l443 22v-955l143 -34l-20 -118l-335 -22l-58 158q-77 -79 -167.5 -118.5t-194.5 -39.5q-170 0 -255 95t-85 281v579zM250 1389q0 31 8.5 58.5t23 48t34 32.5t40.5 12 q31 0 58.5 -8.5t47.5 -23.5t31.5 -34.5t11.5 -41.5q0 -30 -8.5 -57t-22.5 -48t-33.5 -33t-40.5 -12q-32 0 -59 8.5t-47.5 23.5t-32 34.5t-11.5 40.5zM513 1612v32l183 363l272 -10v-66l-300 -329zM730 1389q0 31 8.5 58.5t22.5 48t33.5 32.5t40.5 12q31 0 58.5 -8.5 t48 -23.5t32 -34.5t11.5 -41.5q0 -30 -8.5 -57t-23 -48t-34 -33t-41.5 -12q-32 0 -59 8.5t-46.5 23.5t-31 34.5t-11.5 40.5z" />
<glyph unicode="&#x1d9;" horiz-adv-x="1400" d="M0 1235l20 118h546l20 -118l-142 -34v-655q0 -208 79 -313.5t224 -105.5q73 0 137 16.5t101 39.5q33 62 55.5 151.5t22.5 186.5v680l-143 34l20 118h436l20 -118l-142 -34v-657q0 -286 -136 -426t-420 -140q-287 0 -420.5 129t-133.5 384v710zM371 1577q0 31 8.5 58.5 t23 48t34 32.5t40.5 12q31 0 58.5 -8.5t47.5 -23t31.5 -34.5t11.5 -42q0 -30 -8.5 -57t-22.5 -48t-33.5 -33t-40.5 -12q-32 0 -59 8.5t-47.5 23.5t-32 34.5t-11.5 40.5zM403 2037v32l175 10l213 -172l206 172l145 -10v-32l-263 -292l-223 10zM913 1577q0 31 8.5 58.5 t22.5 48t33.5 32.5t40.5 12q31 0 58.5 -8.5t48 -23t32 -34.5t11.5 -42q0 -30 -8.5 -57t-23 -48t-34 -33t-41.5 -12q-32 0 -59 8.5t-46.5 23.5t-31 34.5t-11.5 40.5z" />
<glyph unicode="&#x1da;" horiz-adv-x="1316" d="M8 967l20 118l413 22v-734q0 -132 38 -193.5t121 -61.5q54 0 115.5 40t117.5 109v666l-173 34l20 118l443 22v-955l143 -34l-20 -118l-335 -22l-58 158q-77 -79 -167.5 -118.5t-194.5 -39.5q-170 0 -255 95t-85 281v579zM250 1389q0 31 8.5 58.5t23 48t34 32.5t40.5 12 q31 0 58.5 -8.5t47.5 -23.5t31.5 -34.5t11.5 -41.5q0 -30 -8.5 -57t-22.5 -48t-33.5 -33t-40.5 -12q-32 0 -59 8.5t-47.5 23.5t-32 34.5t-11.5 40.5zM273 1965v32l175 10l187 -220l182 220l145 -10v-32l-223 -373l-243 10zM730 1389q0 31 8.5 58.5t22.5 48t33.5 32.5 t40.5 12q31 0 58.5 -8.5t48 -23.5t32 -34.5t11.5 -41.5q0 -30 -8.5 -57t-23 -48t-34 -33t-41.5 -12q-32 0 -59 8.5t-46.5 23.5t-31 34.5t-11.5 40.5z" />
<glyph unicode="&#x1db;" horiz-adv-x="1400" d="M0 1235l20 118h546l20 -118l-142 -34v-655q0 -208 79 -313.5t224 -105.5q73 0 137 16.5t101 39.5q33 62 55.5 151.5t22.5 186.5v680l-143 34l20 118h436l20 -118l-142 -34v-657q0 -286 -136 -426t-420 -140q-287 0 -420.5 129t-133.5 384v710zM364 1577q0 31 8.5 58.5 t23 48t34 32.5t40.5 12q31 0 58.5 -8.5t47.5 -23t31.5 -34.5t11.5 -42q0 -30 -8.5 -57t-22.5 -48t-33.5 -33t-40.5 -12q-32 0 -59 8.5t-47.5 23.5t-32 34.5t-11.5 40.5zM378 1993v66l282 10l278 -281v-32l-165 -11zM906 1577q0 31 8.5 58.5t22.5 48t33.5 32.5t40.5 12 q31 0 58.5 -8.5t48 -23t32 -34.5t11.5 -42q0 -30 -8.5 -57t-23 -48t-34 -33t-41.5 -12q-32 0 -59 8.5t-46.5 23.5t-31 34.5t-11.5 40.5z" />
<glyph unicode="&#x1dc;" horiz-adv-x="1316" d="M8 967l20 118l413 22v-734q0 -132 38 -193.5t121 -61.5q54 0 115.5 40t117.5 109v666l-173 34l20 118l443 22v-955l143 -34l-20 -118l-335 -22l-58 158q-77 -79 -167.5 -118.5t-194.5 -39.5q-170 0 -255 95t-85 281v579zM236 1931v66l285 10l203 -363v-32l-168 -10z M250 1389q0 31 8.5 58.5t23 48t34 32.5t40.5 12q31 0 58.5 -8.5t47.5 -23.5t31.5 -34.5t11.5 -41.5q0 -30 -8.5 -57t-22.5 -48t-33.5 -33t-40.5 -12q-32 0 -59 8.5t-47.5 23.5t-32 34.5t-11.5 40.5zM730 1389q0 31 8.5 58.5t22.5 48t33.5 32.5t40.5 12q31 0 58.5 -8.5 t48 -23.5t32 -34.5t11.5 -41.5q0 -30 -8.5 -57t-23 -48t-34 -33t-41.5 -12q-32 0 -59 8.5t-46.5 23.5t-31 34.5t-11.5 40.5z" />
<glyph unicode="&#x1e6;" horiz-adv-x="1330" d="M74 505v89q0 380 174.5 580.5t497.5 200.5q103 0 205 -14.5t188 -42.5l21 -290l-155 -22l-84 197q-46 12 -97.5 17.5t-100.5 5.5q-76 0 -150.5 -21t-139.5 -57q-26 -95 -42.5 -215.5t-16.5 -249.5v-133q0 -203 101.5 -313t261.5 -110q28 0 58 3t59 9v355l-143 34l20 118 h545l20 -118l-142 -34v-389q-97 -59 -216 -92.5t-263 -34.5q-290 0 -445.5 134t-155.5 393zM369 1752v32l175 10l213 -172l206 172l145 -10v-32l-263 -292l-223 10z" />
<glyph unicode="&#x1e7;" horiz-adv-x="1083" d="M36 -259q0 62 51.5 127t144.5 126q-70 18 -108 57.5t-38 98.5q0 66 53.5 136.5t134.5 126.5q-97 44 -142.5 113t-45.5 151v24q0 195 124 300.5t332 105.5q36 0 75 -5.5t76 -16.5h330l18 -127h-171l-4 -10q49 -28 84.5 -81t35.5 -117v-15q0 -169 -127.5 -268t-332.5 -99 q-36 0 -69 2.5t-63 7.5q-44 -38 -71 -72t-27 -55q0 -24 23.5 -33.5t67.5 -9.5h207q243 0 367.5 -77.5t124.5 -231.5q0 -172 -146 -264t-416 -92q-253 0 -370.5 47.5t-117.5 150.5zM266 -205q0 -67 65.5 -89.5t252.5 -22.5q71 0 139 10.5t126 30.5q12 21 19.5 52.5t7.5 62.5 q0 78 -66.5 108.5t-216.5 30.5h-220h-2q-46 -45 -75.5 -94.5t-29.5 -88.5zM376 706q0 -89 51.5 -143.5t118.5 -54.5q35 0 63.5 5.5t46.5 14.5q17 34 28.5 86.5t11.5 111.5v38q0 98 -48.5 150.5t-121.5 52.5q-29 0 -58.5 -5t-51.5 -15q-17 -38 -28.5 -92t-11.5 -111v-38z M219 1628v32l175 10l187 -220l182 220l145 -10v-32l-223 -373l-243 10z" />
<glyph unicode="&#x1f0;" horiz-adv-x="656" d="M-116 -420l36 151q42 -12 87 -21q38 -8 84 -14t89 -6q11 21 20 54q8 28 14 70t6 100v1019l-193 34l20 118l463 22v-1154q0 -119 -25.5 -198t-72.5 -126t-114 -66.5t-150 -19.5q-58 0 -106 5.5t-83 12.5q-41 8 -75 19zM-17 1628v32l175 10l187 -220l182 220l145 -10v-32 l-223 -373l-243 10z" />
<glyph unicode="&#x1f4;" horiz-adv-x="1330" d="M74 505v89q0 380 174.5 580.5t497.5 200.5q103 0 205 -14.5t188 -42.5l21 -290l-155 -22l-84 197q-46 12 -97.5 17.5t-100.5 5.5q-76 0 -150.5 -21t-139.5 -57q-26 -95 -42.5 -215.5t-16.5 -249.5v-133q0 -203 101.5 -313t261.5 -110q28 0 58 3t59 9v355l-143 34l20 118 h545l20 -118l-142 -34v-389q-97 -59 -216 -92.5t-263 -34.5q-290 0 -445.5 134t-155.5 393zM580 1471v32l278 281l282 -10v-66l-395 -248z" />
<glyph unicode="&#x1f5;" horiz-adv-x="1083" d="M36 -259q0 62 51.5 127t144.5 126q-70 18 -108 57.5t-38 98.5q0 66 53.5 136.5t134.5 126.5q-97 44 -142.5 113t-45.5 151v24q0 195 124 300.5t332 105.5q36 0 75 -5.5t76 -16.5h330l18 -127h-171l-4 -10q49 -28 84.5 -81t35.5 -117v-15q0 -169 -127.5 -268t-332.5 -99 q-36 0 -69 2.5t-63 7.5q-44 -38 -71 -72t-27 -55q0 -24 23.5 -33.5t67.5 -9.5h207q243 0 367.5 -77.5t124.5 -231.5q0 -172 -146 -264t-416 -92q-253 0 -370.5 47.5t-117.5 150.5zM266 -205q0 -67 65.5 -89.5t252.5 -22.5q71 0 139 10.5t126 30.5q12 21 19.5 52.5t7.5 62.5 q0 78 -66.5 108.5t-216.5 30.5h-220h-2q-46 -45 -75.5 -94.5t-29.5 -88.5zM376 706q0 -89 51.5 -143.5t118.5 -54.5q35 0 63.5 5.5t46.5 14.5q17 34 28.5 86.5t11.5 111.5v38q0 98 -48.5 150.5t-121.5 52.5q-29 0 -58.5 -5t-51.5 -15q-17 -38 -28.5 -92t-11.5 -111v-38z M442 1275v32l183 363l272 -10v-66l-300 -329z" />
<glyph unicode="&#x1fa;" horiz-adv-x="1266" d="M-26 118l100 28l433 1207h263l423 -1207l99 -28l-20 -118h-494l-20 118l132 28l-82 240h-453l-84 -240l132 -28l-20 -118h-389zM406 535h352l-166 488h-16zM410 1570q0 58 19.5 101t52 71.5t76 42.5t91.5 14q44 0 83.5 -9.5t69.5 -29.5t47.5 -51t17.5 -75 q0 -61 -18.5 -104.5t-50.5 -71.5t-75.5 -41t-93.5 -13q-46 0 -86 9.5t-69.5 30t-46.5 51.5t-17 75zM565 1602q0 -51 22 -78t57 -27q14 0 24.5 1t18.5 3q9 2 17 5q2 11 4 26q2 13 3.5 30.5t1.5 39.5q0 51 -22 78t-57 27q-11 0 -20 -1.5t-16 -3.5q-8 -2 -14 -4q-6 -11 -10 -25 q-4 -12 -6.5 -30t-2.5 -41zM489 1850v32l278 281l282 -10v-66l-395 -248z" />
<glyph unicode="&#x1fb;" horiz-adv-x="1188" d="M70 237q0 190 161.5 285t479.5 95v93q0 132 -45.5 194.5t-147.5 62.5q-42 0 -78.5 -4.5t-63.5 -10.5l-60 -212l-168 10v303q85 24 191.5 39t206.5 15q232 0 343.5 -92.5t111.5 -279.5v-583l143 -34l-20 -118l-335 -22l-57 158q-62 -71 -155.5 -114.5t-200.5 -43.5 q-148 0 -227 66.5t-79 192.5zM360 275q0 -76 31 -116.5t89 -40.5q63 0 126.5 38.5t104.5 88.5v232q-100 0 -186.5 -16t-134.5 -42q-12 -25 -21 -62.5t-9 -81.5zM317 1436q0 61 19.5 106t52 74.5t76 44t91.5 14.5q44 0 83.5 -10t69.5 -31t47.5 -54.5t17.5 -79.5 q0 -64 -18.5 -109.5t-50.5 -74.5t-75.5 -42.5t-93.5 -13.5q-46 0 -86 10t-69.5 31.5t-46.5 55t-17 79.5zM472 1468q0 -56 22 -85.5t57 -29.5q14 0 24.5 1t18.5 3q9 2 17 5q2 12 4 29q2 14 3.5 33.5t1.5 43.5q0 56 -22 85.5t-57 29.5q-11 0 -20 -1.5t-16 -3.5q-8 -2 -14 -4 q-6 -11 -10 -27q-4 -14 -6.5 -33.5t-2.5 -45.5zM422 1771v32l183 363l272 -10v-66l-300 -329z" />
<glyph unicode="&#x1fc;" horiz-adv-x="1784" d="M-34 118l125 31l645 1204h922l24 -320l-123 -22l-83 193h-382v-422h287l34 132l119 -20v-374l-119 -20l-34 133h-287v-484h411l83 193l124 -23l-24 -319h-1037l-20 118l163 34v234h-382l-127 -243l117 -25l-20 -118h-396zM490 535h304v579zM931 1471v32l278 281l282 -10 v-66l-395 -248z" />
<glyph unicode="&#x1fd;" horiz-adv-x="1685" d="M70 237q0 90 36 162.5t113.5 123t199 77.5t292.5 27v75q0 138 -48 201.5t-145 63.5q-31 0 -57 -2.5t-45 -5.5q-22 -4 -40 -7l-60 -212l-168 10v303q52 15 115 27q54 10 126 18.5t157 8.5q118 0 208.5 -24.5t149.5 -81.5q66 54 147 80t177 26q117 0 196 -30t126.5 -90.5 t68 -151.5t20.5 -212v-130h-638v-46q0 -93 23 -156t62 -101.5t90 -55t107 -16.5q54 0 107.5 10t97.5 22q51 14 98 33v-116q-50 -26 -112 -45q-54 -17 -127 -30.5t-163 -13.5q-68 0 -128.5 10.5t-113 32.5t-94.5 56.5t-72 81.5q-17 -21 -52 -52t-86 -59.5t-116 -49 t-141 -20.5q-153 0 -232 66.5t-79 192.5zM360 275q0 -42 10 -72t26.5 -49t38 -27.5t45.5 -8.5q50 0 94 21t77.5 47.5t54.5 49.5t24 27q-19 66 -19 151v73q-86 0 -146.5 -9t-99.5 -20q-46 -13 -75 -29q-9 -17 -15 -41q-6 -20 -10.5 -49t-4.5 -64zM1003 633h346q0 87 -7.5 150 t-25.5 104t-47 60.5t-71 19.5q-36 0 -63.5 -6t-46.5 -14q-22 -9 -37 -20q-11 -35 -21 -80q-8 -38 -16 -92.5t-11 -121.5zM775 1275v32l183 363l272 -10v-66l-300 -329z" />
<glyph unicode="&#x1fe;" horiz-adv-x="1407" d="M86 525v79q0 188 39 332t119 241.5t202 147.5t288 50q28 0 54 -1.5t52 -3.5l53 170h195v-20l-59 -189q158 -56 238 -181t80 -323v-78q0 -189 -39.5 -333t-120 -241.5t-203.5 -147t-289 -49.5q-47 0 -89 3l-66 -211h-195v20l71 227q-165 54 -247.5 180.5t-82.5 327.5z M386 570q0 -112 27 -194t73 -136l305 976q-23 5 -46.5 7.5t-47.5 2.5q-60 0 -106.5 -10.5t-78.5 -23.5q-38 -15 -67 -34q-17 -62 -30 -134q-11 -63 -20 -145t-9 -176v-133zM654 136q40 -9 83 -9q59 0 105 10.5t79 23.5q38 15 68 35q16 63 29 136q11 63 20 144.5t9 173.5v133 q0 115 -23 195.5t-64 132.5zM591 1471v32l278 281l282 -10v-66l-395 -248z" />
<glyph unicode="&#x1ff;" horiz-adv-x="1168" d="M62 419v93q0 145 39.5 256t110 186.5t167.5 114t213 38.5q24 0 47 -1t46 -4l65 209h165v-20l-71 -227q60 -23 108 -60t81.5 -87.5t52 -115.5t18.5 -145v-94q0 -123 -33 -229.5t-100 -185t-168 -124t-237 -45.5q-32 0 -62 3l-64 -207h-165v20l67 216q-141 47 -210.5 152.5 t-69.5 256.5zM352 453q0 -78 14.5 -136.5t40.5 -101.5l237 758q-39 14 -76 14t-67 -6t-52 -14q-26 -9 -47 -20q-14 -43 -25 -100q-10 -49 -17.5 -118t-7.5 -157v-119zM543 105q25 -7 54 -7q36 0 66.5 6t53.5 14q26 9 47 20q14 39 25 94q9 47 17 114t8 157v119q0 71 -11 125 t-29 95zM499 1275v32l183 363l272 -10v-66l-300 -329z" />
<glyph unicode="&#x218;" horiz-adv-x="1130" d="M79 1034q0 162 141.5 251.5t390.5 89.5q101 0 198.5 -14t173.5 -38l21 -290l-155 -22l-83 197q-39 9 -83.5 13.5t-87.5 4.5q-50 0 -100 -7t-97 -21q-8 -26 -13.5 -58t-5.5 -61q0 -63 49.5 -110t235.5 -156q231 -130 318.5 -228.5t87.5 -239.5q0 -175 -146 -271t-399 -96 q-116 0 -223 17t-182 46l-21 279l167 25l84 -197q41 -10 90.5 -15.5t99.5 -5.5q53 0 106 8t94 20q12 24 21 60t9 71q0 80 -63 140t-230 160q-255 147 -326 237t-72 211zM469 -128h206v-62l-63 -321h-143v383z" />
<glyph unicode="&#x219;" horiz-adv-x="962" d="M66 818q0 134 118.5 211.5t340.5 77.5q79 0 169.5 -17t175.5 -51l9 -261l-169 -20l-61 194q-32 8 -66.5 11.5t-64.5 3.5q-38 0 -79.5 -5.5t-73.5 -15.5q-5 -16 -7 -35t-2 -38q0 -47 43 -87t192 -122q185 -100 256 -178t71 -200q0 -147 -122.5 -227.5t-345.5 -80.5 q-107 0 -202.5 19.5t-163.5 50.5l-10 260l169 20l59 -189q34 -10 74 -15.5t81 -5.5q46 0 87 5.5t77 15.5q4 16 5.5 36.5t1.5 39.5q0 65 -49.5 113t-201.5 134q-172 94 -241.5 166.5t-69.5 189.5zM384 -128h206v-62l-63 -321h-143v383z" />
<glyph unicode="&#x21a;" horiz-adv-x="1207" d="M8 1043l15 310h1162l14 -310l-148 -9l-63 170h-234v-1052l143 -34l-20 -118h-546l-20 118l143 34v1052h-235l-62 -170zM511 -128h206v-62l-63 -321h-143v383z" />
<glyph unicode="&#x21b;" horiz-adv-x="772" d="M8 966l20 119h131l73 293l217 -20v-273h250l20 -119l-270 -32v-642q0 -83 26.5 -128.5t104.5 -45.5q29 0 67 11.5t73 27.5v-114q-54 -31 -124 -48t-140 -17q-160 0 -228.5 70.5t-68.5 221.5v664zM351 -128h206v-62l-63 -321h-143v383z" />
<glyph unicode="&#x237;" horiz-adv-x="656" d="M-116 -420l36 151q42 -12 87 -21q38 -8 84 -14t89 -6q11 21 20 54q8 28 14 70t6 100v1019l-193 34l20 118l463 22v-1154q0 -119 -25.5 -198t-72.5 -126t-114 -66.5t-150 -19.5q-58 0 -106 5.5t-83 12.5q-41 8 -75 19z" />
<glyph unicode="&#x251;" horiz-adv-x="1162" d="M38 373v188q0 112 31 211.5t94.5 173.5t160 117.5t227.5 43.5q80 0 159.5 -12.5t144.5 -26.5q76 -18 146 -39v-877l156 -34l-20 -118l-334 -22l-92 78v195q-6 -14 -19.5 -39t-34.5 -55.5t-50 -62t-66.5 -57.5t-83.5 -42.5t-101 -16.5q-69 0 -127.5 20t-100.5 66 t-66 121.5t-24 187.5zM328 461q0 -87 6.5 -149t20.5 -101t36 -57t52 -18q37 0 70.5 19.5t61.5 50t51 67t40.5 71.5t28.5 63t16 41v502q-3 1 -16 4.5t-33.5 7.5t-47.5 7.5t-57 3.5q-32 0 -62 -5t-53 -10q-27 -7 -51 -15q-17 -41 -31 -95q-12 -46 -22 -110.5t-10 -145.5v-131z " />
<glyph unicode="&#x259;" horiz-adv-x="1068" d="M29 442v130h708v66q0 92 -23.5 155t-61.5 101.5t-86.5 55.5t-98.5 17q-72 0 -137 -10.5t-116 -22.5q-60 -14 -112 -32v116q53 25 120 44q57 17 136 31t176 14q106 0 196.5 -27.5t156.5 -82.5t103 -136.5t37 -189.5v-83q0 -160 -35 -275t-104 -189.5t-172 -110t-239 -35.5 q-135 0 -222 31.5t-137 91t-69.5 145.5t-19.5 196zM319 432q0 -69 10.5 -126.5t34.5 -99t62.5 -65t95.5 -23.5q38 0 68.5 5t53.5 12q26 7 47 17q9 32 18 75q7 36 14 88t11 117h-415z" />
<glyph unicode="&#x261;" horiz-adv-x="1059" d="M38 373v188q0 112 31 211.5t94.5 173.5t160 117.5t227.5 43.5q80 0 159.5 -12.5t144.5 -26.5q76 -18 146 -39v-900q0 -146 -38.5 -255.5t-110.5 -183t-174.5 -110.5t-231.5 -37q-81 0 -144 8t-107 18q-52 11 -90 26l23 287l144 10l28 -194q23 -4 49 -8q23 -3 53 -5t65 -2 t65.5 4t53.5 9q26 6 47 14q21 46 39 104q14 50 26.5 119.5t12.5 155.5v162q-6 -14 -19.5 -39t-34.5 -55.5t-50 -62t-67 -57.5t-84.5 -42.5t-101.5 -16.5q-72 0 -130 20t-99.5 66t-64 121.5t-22.5 187.5zM328 461q0 -93 6.5 -155.5t20.5 -100t36 -53.5t52 -16q37 0 70.5 19.5 t61.5 50t51 67t40.5 71.5t28.5 63t16 41v522q-3 1 -16 4.5t-33.5 7.5t-47.5 7.5t-57 3.5q-32 0 -62 -5t-53 -10q-27 -7 -51 -15q-17 -44 -31 -100q-12 -48 -22 -116.5t-10 -154.5v-131z" />
<glyph unicode="&#x2bb;" horiz-adv-x="756" d="M200 1076q0 60 9 116.5t36.5 114.5t78 120.5t133.5 134.5l82 -96q-51 -43 -86 -80.5t-56 -71t-30 -62t-9 -53.5q0 -24 18.5 -36.5t47.5 -20.5q59 -15 95.5 -45.5t36.5 -68.5q0 -42 -10 -79.5t-26.5 -66t-38.5 -45t-47 -16.5q-23 0 -48 3.5t-49 11t-45.5 19.5t-37.5 30 q-10 11 -20 26.5t-17.5 38t-12 53.5t-4.5 73z" />
<glyph unicode="&#x2bc;" horiz-adv-x="756" d="M200 1355q0 42 10 79.5t26.5 66t38.5 45t47 16.5q23 0 48 -3.5t49 -11t45.5 -19.5t37.5 -30q10 -11 20 -26.5t17.5 -38t12 -53.5t4.5 -73q0 -60 -9 -116.5t-36.5 -114.5t-78 -120.5t-133.5 -134.5l-82 96q51 43 86 80.5t56 71t30 62t9 53.5q0 24 -18.5 36.5t-47.5 20.5 q-59 15 -95.5 45.5t-36.5 68.5z" />
<glyph unicode="&#x2be;" horiz-adv-x="548" d="M274 1260v93q30 0 48 5q10 3 17 6q2 11 4 27q2 14 3.5 33t1.5 44q0 31 -6 52.5t-16.5 35.5t-24 20.5t-27.5 6.5v92q46 0 87 -11t72.5 -34.5t50 -60.5t18.5 -89q0 -59 -17.5 -100.5t-48.5 -68t-72.5 -39t-89.5 -12.5z" />
<glyph unicode="&#x2bf;" horiz-adv-x="548" d="M45 1456q0 58 18.5 101t50 71.5t73 42.5t87.5 14v-102q-13 0 -23 -1.5t-17 -3.5q-9 -2 -15 -4q-6 -11 -10 -24q-4 -11 -6.5 -26.5t-2.5 -35.5q0 -71 22.5 -103t51.5 -32v-103q-48 0 -90 12t-73 37t-48.5 64t-17.5 93z" />
<glyph unicode="&#x2c6;" horiz-adv-x="1089" d="M200 1275v32l223 373l243 -10l223 -363v-32l-175 -10l-188 219l-181 -219z" />
<glyph unicode="&#x2c7;" horiz-adv-x="1089" d="M200 1628v32l175 10l187 -220l182 220l145 -10v-32l-223 -373l-243 10z" />
<glyph unicode="&#x2c8;" horiz-adv-x="758" d="M300 1266v404h158v-404h-158z" />
<glyph unicode="&#x2c9;" horiz-adv-x="1070" d="M150 1333l20 160h750l-20 -160h-750z" />
<glyph unicode="&#x2ca;" horiz-adv-x="855" d="M200 1275v32l183 363l272 -10v-66l-300 -329z" />
<glyph unicode="&#x2cb;" horiz-adv-x="888" d="M200 1594v66l285 10l203 -363v-32l-168 -10z" />
<glyph unicode="&#x2cc;" horiz-adv-x="758" d="M300 -189h158v-404h-158v404z" />
<glyph unicode="&#x2d8;" horiz-adv-x="952" d="M150 1592l117 10q0 -18 11 -45t35.5 -52t64.5 -42.5t98 -17.5t98 17.5t64.5 42.5t35.5 52t11 45l117 -10q0 -59 -21.5 -117.5t-62.5 -105t-102 -75.5t-140 -29t-140 29t-102 75.5t-62.5 105t-21.5 117.5z" />
<glyph unicode="&#x2d9;" horiz-adv-x="784" d="M250 1395q0 34 9.5 64t25.5 53t37.5 36.5t45.5 13.5q34 0 64.5 -9.5t53 -25.5t35.5 -37.5t13 -46.5q0 -33 -9.5 -63.5t-25.5 -53t-37.5 -36t-45.5 -13.5q-35 0 -65 9.5t-52.5 25.5t-35.5 37.5t-13 45.5z" />
<glyph unicode="&#x2da;" horiz-adv-x="857" d="M200 1436q0 61 19.5 106t52 74.5t76 44t91.5 14.5q44 0 83.5 -10t69.5 -31t47.5 -54.5t17.5 -79.5q0 -64 -18.5 -109.5t-50.5 -74.5t-75.5 -42.5t-93.5 -13.5q-46 0 -86 10t-69.5 31.5t-46.5 55t-17 79.5zM355 1468q0 -56 22 -85.5t57 -29.5q14 0 24.5 1t18.5 3q9 2 17 5 q2 12 4 29q2 14 3.5 33.5t1.5 43.5q0 56 -22 85.5t-57 29.5q-11 0 -20 -1.5t-16 -3.5q-8 -2 -14 -4q-6 -11 -10 -27q-4 -14 -6.5 -33.5t-2.5 -45.5z" />
<glyph unicode="&#x2db;" horiz-adv-x="808" d="M200 -324q0 64 27.5 123.5t75.5 114.5t112.5 105.5t137.5 97.5v-117q-38 -30 -68 -66t-51 -72.5t-32 -71.5t-11 -65q0 -35 14 -48.5t45 -13.5q26 0 54 12.5t51 27.5q27 18 53 40v-113q-29 -25 -65 -44q-32 -17 -75.5 -30t-98.5 -13q-81 0 -125 29t-44 104z" />
<glyph unicode="&#x2dc;" horiz-adv-x="1141" d="M150 1257v50q0 127 61.5 190.5t168.5 63.5q57 0 115.5 -20.5t111.5 -45.5t98.5 -45.5t75.5 -20.5q34 0 53.5 29.5t19.5 90.5l137 10v-72q0 -119 -56 -186.5t-162 -67.5q-51 0 -111.5 20.5t-118.5 45.5t-108 45.5t-79 20.5q-36 0 -56.5 -19t-20.5 -79z" />
<glyph unicode="&#x2dd;" horiz-adv-x="1133" d="M150 1275v32l183 363l272 -10v-66l-300 -329zM528 1275v32l183 363l272 -10v-66l-300 -329z" />
<glyph unicode="&#x2f3;" horiz-adv-x="857" d="M200 -402q0 61 19.5 106t52 74.5t76 44t91.5 14.5q44 0 83.5 -10t69.5 -31t47.5 -54.5t17.5 -79.5q0 -64 -18.5 -109.5t-50.5 -74.5t-75.5 -42.5t-93.5 -13.5q-46 0 -86 10t-69.5 31.5t-46.5 55t-17 79.5zM355 -370q0 -56 22 -85.5t57 -29.5q14 0 24.5 1t18.5 3q9 2 17 5 q2 12 4 29q2 14 3.5 33.5t1.5 43.5q0 56 -22 85.5t-57 29.5q-11 0 -20 -1.5t-16 -3.5q-8 -2 -14 -4q-6 -11 -10 -27q-4 -14 -6.5 -33.5t-2.5 -45.5z" />
<glyph unicode="&#x300;" horiz-adv-x="0" d="M-682 1594v66l285 10l203 -363v-32l-168 -10z" />
<glyph unicode="&#x301;" horiz-adv-x="0" d="M-652 1275v32l183 363l272 -10v-66l-300 -329z" />
<glyph unicode="&#x302;" horiz-adv-x="0" d="M-887 1275v32l223 373l243 -10l223 -363v-32l-175 -10l-188 219l-181 -219z" />
<glyph unicode="&#x303;" horiz-adv-x="0" d="M-988 1257v50q0 127 61.5 190.5t168.5 63.5q57 0 115.5 -20.5t111.5 -45.5t98.5 -45.5t75.5 -20.5q34 0 53.5 29.5t19.5 90.5l137 10v-72q0 -119 -56 -186.5t-162 -67.5q-51 0 -111.5 20.5t-118.5 45.5t-108 45.5t-79 20.5q-36 0 -56.5 -19t-20.5 -79z" />
<glyph unicode="&#x304;" horiz-adv-x="0" d="M-926 1333l20 160h750l-20 -160h-750z" />
<glyph unicode="&#x306;" horiz-adv-x="0" d="M-748 1592l117 10q0 -18 11 -45t35.5 -52t64.5 -42.5t98 -17.5t98 17.5t64.5 42.5t35.5 52t11 45l117 -10q0 -59 -21.5 -117.5t-62.5 -105t-102 -75.5t-140 -29t-140 29t-102 75.5t-62.5 105t-21.5 117.5z" />
<glyph unicode="&#x307;" horiz-adv-x="0" d="M-528 1395q0 34 9.5 64t25.5 53t37.5 36.5t45.5 13.5q34 0 64.5 -9.5t53 -25.5t35.5 -37.5t13 -46.5q0 -33 -9.5 -63.5t-25.5 -53t-37.5 -36t-45.5 -13.5q-35 0 -65 9.5t-52.5 25.5t-35.5 37.5t-13 45.5z" />
<glyph unicode="&#x308;" horiz-adv-x="0" d="M-888 1389q0 31 8.5 58.5t23 48t34 32.5t40.5 12q31 0 58.5 -8.5t47.5 -23.5t31.5 -34.5t11.5 -41.5q0 -30 -8.5 -57t-22.5 -48t-33.5 -33t-40.5 -12q-32 0 -59 8.5t-47.5 23.5t-32 34.5t-11.5 40.5zM-408 1389q0 31 8.5 58.5t22.5 48t33.5 32.5t40.5 12q31 0 58.5 -8.5 t48 -23.5t32 -34.5t11.5 -41.5q0 -30 -8.5 -57t-23 -48t-34 -33t-41.5 -12q-32 0 -59 8.5t-46.5 23.5t-31 34.5t-11.5 40.5z" />
<glyph unicode="&#x309;" horiz-adv-x="0" d="M-614 1482v133q29 15 64 27q30 11 70 19.5t87 8.5q94 0 146 -35t52 -95q0 -33 -8.5 -57.5t-24.5 -44.5t-39 -37t-52 -33q-40 -23 -56 -36.5t-16 -27.5q0 -12 5 -22q2 -6 5 -11l-102 -27q-10 13 -18 28q-7 13 -12 28.5t-5 32.5q0 15 3 29.5t12 29.5t24.5 30t40.5 32 q41 28 54 45t13 37q0 17 -10.5 28.5t-35.5 11.5q-14 0 -25.5 -3t-20.5 -6q-11 -4 -19 -9l-24 -81z" />
<glyph unicode="&#x30a;" horiz-adv-x="0" d="M-659 1436q0 61 19.5 106t52 74.5t76 44t91.5 14.5q44 0 83.5 -10t69.5 -31t47.5 -54.5t17.5 -79.5q0 -64 -18.5 -109.5t-50.5 -74.5t-75.5 -42.5t-93.5 -13.5q-46 0 -86 10t-69.5 31.5t-46.5 55t-17 79.5zM-504 1468q0 -56 22 -85.5t57 -29.5q14 0 24.5 1t18.5 3 q9 2 17 5q2 12 4 29q2 14 3.5 33.5t1.5 43.5q0 56 -22 85.5t-57 29.5q-11 0 -20 -1.5t-16 -3.5q-8 -2 -14 -4q-6 -11 -10 -27q-4 -14 -6.5 -33.5t-2.5 -45.5z" />
<glyph unicode="&#x30b;" horiz-adv-x="0" d="M-982 1275v32l183 363l272 -10v-66l-300 -329zM-604 1275v32l183 363l272 -10v-66l-300 -329z" />
<glyph unicode="&#x30c;" horiz-adv-x="0" d="M-887 1628v32l175 10l187 -220l182 220l145 -10v-32l-223 -373l-243 10z" />
<glyph unicode="&#x30f;" horiz-adv-x="1052" d="M-45 1594v66l285 10l203 -363v-32l-168 -10zM345 1594v66l285 10l203 -363v-32l-168 -10z" />
<glyph unicode="&#x31b;" horiz-adv-x="0" d="M-678 838v122q71 30 119 55t77 50.5t41.5 53.5t12.5 64q0 33 -10.5 61t-23.5 48q-15 24 -33 43v40l210 57q48 -60 67.5 -114t19.5 -99q0 -62 -24 -113.5t-79.5 -97t-148 -87t-228.5 -83.5z" />
<glyph unicode="&#x323;" horiz-adv-x="0" d="M-528 -339q0 34 9.5 64t25.5 53t37.5 36.5t45.5 13.5q34 0 64.5 -9.5t53 -25.5t35.5 -37.5t13 -46.5q0 -33 -9.5 -63.5t-25.5 -53t-37.5 -36t-45.5 -13.5q-35 0 -65 9.5t-52.5 25.5t-35.5 37.5t-13 45.5z" />
<glyph unicode="&#x324;" horiz-adv-x="0" d="M-887 -281q0 31 8.5 58.5t23 48t34 32.5t40.5 12q31 0 58.5 -8.5t47.5 -23.5t31.5 -34.5t11.5 -41.5q0 -30 -8.5 -57t-22.5 -48t-33.5 -33t-40.5 -12q-32 0 -59 8.5t-47.5 23.5t-32 34.5t-11.5 40.5zM-407 -281q0 31 8.5 58.5t22.5 48t33.5 32.5t40.5 12q31 0 58.5 -8.5 t48 -23.5t32 -34.5t11.5 -41.5q0 -30 -8.5 -57t-23 -48t-34 -33t-41.5 -12q-32 0 -59 8.5t-46.5 23.5t-31 34.5t-11.5 40.5z" />
<glyph unicode="&#x326;" horiz-adv-x="0" d="M-462 -128h206v-62l-63 -321h-143v383z" />
<glyph unicode="&#x327;" horiz-adv-x="0" d="M-652 -297q28 -11 59 -20q26 -8 58 -14t64 -6q37 0 58 3q11 2 21 4q1 7 3 15q2 7 3 14.5t1 15.5q0 17 -7 30.5t-24 24t-45 19t-71 15.5l-46 72l59 161h172l-52 -132q47 -9 85 -23t64.5 -35.5t41 -51t14.5 -70.5q0 -40 -17.5 -73.5t-50 -57.5t-78.5 -37.5t-102 -13.5 q-46 0 -84 7t-66 16q-33 11 -60 24v113z" />
<glyph unicode="&#x328;" horiz-adv-x="0" d="M-614 -324q0 64 27.5 123.5t75.5 114.5t112.5 105.5t137.5 97.5v-117q-38 -30 -68 -66t-51 -72.5t-32 -71.5t-11 -65q0 -35 14 -48.5t45 -13.5q26 0 54 12.5t51 27.5q27 18 53 40v-113q-29 -25 -65 -44q-32 -17 -75.5 -30t-98.5 -13q-81 0 -125 29t-44 104z" />
<glyph unicode="&#x32e;" horiz-adv-x="0" d="M-844 -176l117 10q0 -18 11 -45t35.5 -52t64.5 -42.5t98 -17.5t98 17.5t64.5 42.5t35.5 52t11 45l117 -10q0 -59 -21.5 -117.5t-62.5 -105t-102 -75.5t-140 -29t-140 29t-102 75.5t-62.5 105t-21.5 117.5z" />
<glyph unicode="&#x331;" horiz-adv-x="0" d="M-926 -335l20 160h750l-20 -160h-750z" />
<glyph unicode="&#x3bc;" horiz-adv-x="1368" d="M20 967l20 118l433 22v-704q0 -83 13 -138t36 -87.5t54.5 -46t68.5 -13.5q50 0 90.5 19.5t69.5 43.5q33 28 60 64v688l-193 34l20 118l463 22v-955l163 -34l-20 -118q-26 -7 -56 -11q-26 -5 -59 -8t-69 -3q-53 0 -91.5 14.5t-65.5 37.5t-44 51t-28 55q-20 -26 -47.5 -54 t-63 -51t-80 -38t-99.5 -15q-34 0 -61 7.5t-46.5 18.5t-33 23t-20.5 20l-10 -6l49 -476l-290 -22v1390z" />
<glyph unicode="&#x3c0;" horiz-adv-x="1495" d="M140 698q13 96 39 171.5t68 128.5t103 81t145 28q63 0 150 -5t178 -11t176.5 -11t145.5 -5q40 0 69 1.5t48 3.5q22 2 37 5l38 72l98 -22q-8 -56 -22.5 -117t-46 -112.5t-85.5 -85.5t-139 -35v-595l196 -34l-20 -156q-24 -7 -50 -11q-23 -5 -52 -8t-61 -3q-70 0 -126 15.5 t-95.5 47t-60.5 79t-21 111.5v565q-44 3 -86 6t-83 5q-12 -151 -34 -278.5t-49.5 -229.5t-57.5 -177.5t-58 -121.5l-271 -22l-20 110q30 36 72.5 100t86.5 155.5t82.5 210.5t59.5 263h-14q-48 0 -85 -4.5t-66.5 -19t-52.5 -41t-42 -71.5z" />
<glyph unicode="&#x1e00;" horiz-adv-x="1266" d="M-26 118l100 28l433 1207h263l423 -1207l99 -28l-20 -118h-494l-20 118l132 28l-82 240h-453l-84 -240l132 -28l-20 -118h-389zM406 535h352l-166 488h-16zM364 -402q0 61 19.5 106t52 74.5t76 44t91.5 14.5q44 0 83.5 -10t69.5 -31t47.5 -54.5t17.5 -79.5 q0 -64 -18.5 -109.5t-50.5 -74.5t-75.5 -42.5t-93.5 -13.5q-46 0 -86 10t-69.5 31.5t-46.5 55t-17 79.5zM519 -370q0 -56 22 -85.5t57 -29.5q14 0 24.5 1t18.5 3q9 2 17 5q2 12 4 29q2 14 3.5 33.5t1.5 43.5q0 56 -22 85.5t-57 29.5q-11 0 -20 -1.5t-16 -3.5q-8 -2 -14 -4 q-6 -11 -10 -27q-4 -14 -6.5 -33.5t-2.5 -45.5z" />
<glyph unicode="&#x1e01;" horiz-adv-x="1188" d="M70 237q0 190 161.5 285t479.5 95v93q0 132 -45.5 194.5t-147.5 62.5q-42 0 -78.5 -4.5t-63.5 -10.5l-60 -212l-168 10v303q85 24 191.5 39t206.5 15q232 0 343.5 -92.5t111.5 -279.5v-583l143 -34l-20 -118l-335 -22l-57 158q-62 -71 -155.5 -114.5t-200.5 -43.5 q-148 0 -227 66.5t-79 192.5zM360 275q0 -76 31 -116.5t89 -40.5q63 0 126.5 38.5t104.5 88.5v232q-100 0 -186.5 -16t-134.5 -42q-12 -25 -21 -62.5t-9 -81.5zM331 -402q0 61 19.5 106t52 74.5t76 44t91.5 14.5q44 0 83.5 -10t69.5 -31t47.5 -54.5t17.5 -79.5 q0 -64 -18.5 -109.5t-50.5 -74.5t-75.5 -42.5t-93.5 -13.5q-46 0 -86 10t-69.5 31.5t-46.5 55t-17 79.5zM486 -370q0 -56 22 -85.5t57 -29.5q14 0 24.5 1t18.5 3q9 2 17 5q2 12 4 29q2 14 3.5 33.5t1.5 43.5q0 56 -22 85.5t-57 29.5q-11 0 -20 -1.5t-16 -3.5q-8 -2 -14 -4 q-6 -11 -10 -27q-4 -14 -6.5 -33.5t-2.5 -45.5z" />
<glyph unicode="&#x1e0a;" horiz-adv-x="1428" d="M70 118l143 34v1049l-143 34l20 118h618q317 0 478.5 -151t161.5 -437v-78q0 -317 -170.5 -502t-459.5 -185h-628zM513 149h161q59 0 123 8t115 21q52 72 94 194t42 250v94q0 248 -100 368t-307 120h-128v-1055zM491 1584q0 34 9.5 64t25.5 53t37.5 36.5t45.5 13.5 q34 0 64.5 -9.5t53 -25.5t35.5 -37.5t13 -46.5q0 -33 -9.5 -63.5t-25.5 -53t-37.5 -36t-45.5 -13.5q-35 0 -65 9.5t-52.5 25.5t-35.5 37.5t-13 45.5z" />
<glyph unicode="&#x1e0c;" horiz-adv-x="1428" d="M70 118l143 34v1049l-143 34l20 118h618q317 0 478.5 -151t161.5 -437v-78q0 -317 -170.5 -502t-459.5 -185h-628zM513 149h161q59 0 123 8t115 21q52 72 94 194t42 250v94q0 248 -100 368t-307 120h-128v-1055zM481 -339q0 34 9.5 64t25.5 53t37.5 36.5t45.5 13.5 q34 0 64.5 -9.5t53 -25.5t35.5 -37.5t13 -46.5q0 -33 -9.5 -63.5t-25.5 -53t-37.5 -36t-45.5 -13.5q-35 0 -65 9.5t-52.5 25.5t-35.5 37.5t-13 45.5z" />
<glyph unicode="&#x1e0d;" horiz-adv-x="1242" d="M66 413v93q0 282 141 441.5t397 159.5q38 0 84 -5.5t89 -13.5v300l-143 34l20 118l413 22v-1410l143 -34l-20 -118l-335 -22l-57 158q-56 -71 -146.5 -114.5t-190.5 -43.5q-194 0 -294.5 109t-100.5 326zM356 423q0 -150 47.5 -227.5t139.5 -77.5q59 0 121.5 35.5 t112.5 91.5v697q-36 9 -88.5 17t-104.5 8q-57 0 -106.5 -13.5t-81.5 -33.5q-17 -69 -28.5 -164.5t-11.5 -202.5v-130zM466 -339q0 34 9.5 64t25.5 53t37.5 36.5t45.5 13.5q34 0 64.5 -9.5t53 -25.5t35.5 -37.5t13 -46.5q0 -33 -9.5 -63.5t-25.5 -53t-37.5 -36t-45.5 -13.5 q-35 0 -65 9.5t-52.5 25.5t-35.5 37.5t-13 45.5z" />
<glyph unicode="&#x1e0e;" horiz-adv-x="1428" d="M70 118l143 34v1049l-143 34l20 118h618q317 0 478.5 -151t161.5 -437v-78q0 -317 -170.5 -502t-459.5 -185h-628zM513 149h161q59 0 123 8t115 21q52 72 94 194t42 250v94q0 248 -100 368t-307 120h-128v-1055zM228 -335l20 160h750l-20 -160h-750z" />
<glyph unicode="&#x1e0f;" horiz-adv-x="1242" d="M66 413v93q0 282 141 441.5t397 159.5q38 0 84 -5.5t89 -13.5v300l-143 34l20 118l413 22v-1410l143 -34l-20 -118l-335 -22l-57 158q-56 -71 -146.5 -114.5t-190.5 -43.5q-194 0 -294.5 109t-100.5 326zM356 423q0 -150 47.5 -227.5t139.5 -77.5q59 0 121.5 35.5 t112.5 91.5v697q-36 9 -88.5 17t-104.5 8q-57 0 -106.5 -13.5t-81.5 -33.5q-17 -69 -28.5 -164.5t-11.5 -202.5v-130zM213 -335l20 160h750l-20 -160h-750z" />
<glyph unicode="&#x1e20;" horiz-adv-x="1330" d="M74 505v89q0 380 174.5 580.5t497.5 200.5q103 0 205 -14.5t188 -42.5l21 -290l-155 -22l-84 197q-46 12 -97.5 17.5t-100.5 5.5q-76 0 -150.5 -21t-139.5 -57q-26 -95 -42.5 -215.5t-16.5 -249.5v-133q0 -203 101.5 -313t261.5 -110q28 0 58 3t59 9v355l-143 34l20 118 h545l20 -118l-142 -34v-389q-97 -59 -216 -92.5t-263 -34.5q-290 0 -445.5 134t-155.5 393zM325 1530l20 160h810l-20 -160h-810z" />
<glyph unicode="&#x1e21;" horiz-adv-x="1083" d="M36 -259q0 62 51.5 127t144.5 126q-70 18 -108 57.5t-38 98.5q0 66 53.5 136.5t134.5 126.5q-97 44 -142.5 113t-45.5 151v24q0 195 124 300.5t332 105.5q36 0 75 -5.5t76 -16.5h330l18 -127h-171l-4 -10q49 -28 84.5 -81t35.5 -117v-15q0 -169 -127.5 -268t-332.5 -99 q-36 0 -69 2.5t-63 7.5q-44 -38 -71 -72t-27 -55q0 -24 23.5 -33.5t67.5 -9.5h207q243 0 367.5 -77.5t124.5 -231.5q0 -172 -146 -264t-416 -92q-253 0 -370.5 47.5t-117.5 150.5zM266 -205q0 -67 65.5 -89.5t252.5 -22.5q71 0 139 10.5t126 30.5q12 21 19.5 52.5t7.5 62.5 q0 78 -66.5 108.5t-216.5 30.5h-220h-2q-46 -45 -75.5 -94.5t-29.5 -88.5zM376 706q0 -89 51.5 -143.5t118.5 -54.5q35 0 63.5 5.5t46.5 14.5q17 34 28.5 86.5t11.5 111.5v38q0 98 -48.5 150.5t-121.5 52.5q-29 0 -58.5 -5t-51.5 -15q-17 -38 -28.5 -92t-11.5 -111v-38z M188 1333l20 160h750l-20 -160h-750z" />
<glyph unicode="&#x1e24;" horiz-adv-x="1541" d="M66 118l143 34v1049l-143 34l20 118h545l20 -118l-142 -34v-413h524v413l-142 34l20 118h546l20 -118l-144 -34v-1049l144 -34l-20 -118h-546l-20 118l142 34v487h-524v-487l142 -34l-20 -118h-545zM629 -339q0 34 9.5 64t25.5 53t37.5 36.5t45.5 13.5q34 0 64.5 -9.5 t53 -25.5t35.5 -37.5t13 -46.5q0 -33 -9.5 -63.5t-25.5 -53t-37.5 -36t-45.5 -13.5q-35 0 -65 9.5t-52.5 25.5t-35.5 37.5t-13 45.5z" />
<glyph unicode="&#x1e25;" horiz-adv-x="1378" d="M56 118l143 34v1236l-143 34l20 118l413 22v-595l14 -6q76 72 162.5 109t177.5 37q169 0 258.5 -86.5t89.5 -254.5v-614l143 -34l-20 -118h-536l-20 118l143 34v599q0 109 -34.5 162.5t-113.5 53.5q-60 0 -132.5 -43.5t-131.5 -105.5v-666l143 -34l-20 -118h-536z M541 -339q0 34 9.5 64t25.5 53t37.5 36.5t45.5 13.5q34 0 64.5 -9.5t53 -25.5t35.5 -37.5t13 -46.5q0 -33 -9.5 -63.5t-25.5 -53t-37.5 -36t-45.5 -13.5q-35 0 -65 9.5t-52.5 25.5t-35.5 37.5t-13 45.5z" />
<glyph unicode="&#x1e2a;" horiz-adv-x="1541" d="M66 118l143 34v1049l-143 34l20 118h545l20 -118l-142 -34v-413h524v413l-142 34l20 118h546l20 -118l-144 -34v-1049l144 -34l-20 -118h-546l-20 118l142 34v487h-524v-487l142 -34l-20 -118h-545zM439 -176l117 10q0 -18 11 -45t35.5 -52t64.5 -42.5t98 -17.5t98 17.5 t64.5 42.5t35.5 52t11 45l117 -10q0 -59 -21.5 -117.5t-62.5 -105t-102 -75.5t-140 -29t-140 29t-102 75.5t-62.5 105t-21.5 117.5z" />
<glyph unicode="&#x1e2b;" horiz-adv-x="1378" d="M56 118l143 34v1236l-143 34l20 118l413 22v-595l14 -6q76 72 162.5 109t177.5 37q169 0 258.5 -86.5t89.5 -254.5v-614l143 -34l-20 -118h-536l-20 118l143 34v599q0 109 -34.5 162.5t-113.5 53.5q-60 0 -132.5 -43.5t-131.5 -105.5v-666l143 -34l-20 -118h-536z M351 -176l117 10q0 -18 11 -45t35.5 -52t64.5 -42.5t98 -17.5t98 17.5t64.5 42.5t35.5 52t11 45l117 -10q0 -59 -21.5 -117.5t-62.5 -105t-102 -75.5t-140 -29t-140 29t-102 75.5t-62.5 105t-21.5 117.5z" />
<glyph unicode="&#x1e36;" horiz-adv-x="1066" d="M68 118l143 34v1049l-143 34l20 118h545l20 -118l-142 -34v-1052h266l83 193l154 -22l-25 -320h-901zM397 -339q0 34 9.5 64t25.5 53t37.5 36.5t45.5 13.5q34 0 64.5 -9.5t53 -25.5t35.5 -37.5t13 -46.5q0 -33 -9.5 -63.5t-25.5 -53t-37.5 -36t-45.5 -13.5q-35 0 -65 9.5 t-52.5 25.5t-35.5 37.5t-13 45.5z" />
<glyph unicode="&#x1e37;" horiz-adv-x="664" d="M56 118l143 34v1236l-143 34l20 118l413 22v-1410l143 -34l-20 -118h-536zM200 -339q0 34 9.5 64t25.5 53t37.5 36.5t45.5 13.5q34 0 64.5 -9.5t53 -25.5t35.5 -37.5t13 -46.5q0 -33 -9.5 -63.5t-25.5 -53t-37.5 -36t-45.5 -13.5q-35 0 -65 9.5t-52.5 25.5t-35.5 37.5 t-13 45.5z" />
<glyph unicode="&#x1e38;" horiz-adv-x="1066" d="M68 118l143 34v1049l-143 34l20 118h545l20 -118l-142 -34v-1052h266l83 193l154 -22l-25 -320h-901zM397 -339q0 34 9.5 64t25.5 53t37.5 36.5t45.5 13.5q34 0 64.5 -9.5t53 -25.5t35.5 -37.5t13 -46.5q0 -33 -9.5 -63.5t-25.5 -53t-37.5 -36t-45.5 -13.5q-35 0 -65 9.5 t-52.5 25.5t-35.5 37.5t-13 45.5zM-55 1530l20 160h810l-20 -160h-810z" />
<glyph unicode="&#x1e39;" horiz-adv-x="664" d="M56 118l143 34v1236l-143 34l20 118l413 22v-1410l143 -34l-20 -118h-536zM200 -339q0 34 9.5 64t25.5 53t37.5 36.5t45.5 13.5q34 0 64.5 -9.5t53 -25.5t35.5 -37.5t13 -46.5q0 -33 -9.5 -63.5t-25.5 -53t-37.5 -36t-45.5 -13.5q-35 0 -65 9.5t-52.5 25.5t-35.5 37.5 t-13 45.5zM-105 1740l20 160h810l-20 -160h-810z" />
<glyph unicode="&#x1e3a;" horiz-adv-x="1066" d="M68 118l143 34v1049l-143 34l20 118h545l20 -118l-142 -34v-1052h266l83 193l154 -22l-25 -320h-901zM144 -335l20 160h750l-20 -160h-750z" />
<glyph unicode="&#x1e3b;" horiz-adv-x="664" d="M56 118l143 34v1236l-143 34l20 118l413 22v-1410l143 -34l-20 -118h-536zM-53 -335l20 160h750l-20 -160h-750z" />
<glyph unicode="&#x1e3e;" horiz-adv-x="2011" d="M64 118l143 34v1049l-143 34l20 118h544l371 -981h16l357 981h555l20 -118l-142 -34v-1049l142 -34l-20 -118h-545l-20 118l143 34v983h-16l-424 -1135h-205l-437 1135h-16v-983l142 -34l-20 -118h-445zM850 1471v32l278 281l282 -10v-66l-395 -248z" />
<glyph unicode="&#x1e3f;" horiz-adv-x="2094" d="M68 118l143 34v781l-143 34l20 118l335 22l58 -158q94 87 184 122.5t190 35.5q111 0 186 -35.5t131 -122.5q86 80 185 119t200 39q170 0 259 -86.5t89 -254.5v-614l143 -34l-20 -118h-536l-20 118l143 34v599q0 111 -35 163.5t-113 52.5q-58 0 -130.5 -42.5 t-133.5 -106.5v-666l143 -34l-20 -118h-536l-20 118l143 34v599q0 114 -36 165t-112 51q-57 0 -126 -39.5t-138 -109.5v-666l143 -34l-20 -118h-536zM992 1275v32l183 363l272 -10v-66l-300 -329z" />
<glyph unicode="&#x1e42;" horiz-adv-x="2011" d="M64 118l143 34v1049l-143 34l20 118h544l371 -981h16l357 981h555l20 -118l-142 -34v-1049l142 -34l-20 -118h-545l-20 118l143 34v983h-16l-424 -1135h-205l-437 1135h-16v-983l142 -34l-20 -118h-445zM827 -339q0 34 9.5 64t25.5 53t37.5 36.5t45.5 13.5 q34 0 64.5 -9.5t53 -25.5t35.5 -37.5t13 -46.5q0 -33 -9.5 -63.5t-25.5 -53t-37.5 -36t-45.5 -13.5q-35 0 -65 9.5t-52.5 25.5t-35.5 37.5t-13 45.5z" />
<glyph unicode="&#x1e43;" horiz-adv-x="2094" d="M68 118l143 34v781l-143 34l20 118l335 22l58 -158q94 87 184 122.5t190 35.5q111 0 186 -35.5t131 -122.5q86 80 185 119t200 39q170 0 259 -86.5t89 -254.5v-614l143 -34l-20 -118h-536l-20 118l143 34v599q0 111 -35 163.5t-113 52.5q-58 0 -130.5 -42.5 t-133.5 -106.5v-666l143 -34l-20 -118h-536l-20 118l143 34v599q0 114 -36 165t-112 51q-57 0 -126 -39.5t-138 -109.5v-666l143 -34l-20 -118h-536zM918 -339q0 34 9.5 64t25.5 53t37.5 36.5t45.5 13.5q34 0 64.5 -9.5t53 -25.5t35.5 -37.5t13 -46.5q0 -33 -9.5 -63.5 t-25.5 -53t-37.5 -36t-45.5 -13.5q-35 0 -65 9.5t-52.5 25.5t-35.5 37.5t-13 45.5z" />
<glyph unicode="&#x1e44;" horiz-adv-x="1579" d="M68 118l143 34v1049l-143 34l20 118h520l592 -1101h16v949l-144 34l20 118h447l20 -118l-142 -34v-1201h-399l-591 1100h-16v-948l162 -34l-20 -118h-465zM702 1584q0 34 9.5 64t25.5 53t37.5 36.5t45.5 13.5q34 0 64.5 -9.5t53 -25.5t35.5 -37.5t13 -46.5 q0 -33 -9.5 -63.5t-25.5 -53t-37.5 -36t-45.5 -13.5q-35 0 -65 9.5t-52.5 25.5t-35.5 37.5t-13 45.5z" />
<glyph unicode="&#x1e45;" horiz-adv-x="1392" d="M68 118l143 34v781l-143 34l20 118l335 22l58 -158q94 87 184 122.5t190 35.5q170 0 259 -87t89 -254v-614l143 -34l-20 -118h-536l-20 118l143 34v599q0 115 -36.5 165.5t-111.5 50.5q-53 0 -121.5 -37t-142.5 -112v-666l143 -34l-20 -118h-536zM656 1395q0 34 9.5 64 t25.5 53t37.5 36.5t45.5 13.5q34 0 64.5 -9.5t53 -25.5t35.5 -37.5t13 -46.5q0 -33 -9.5 -63.5t-25.5 -53t-37.5 -36t-45.5 -13.5q-35 0 -65 9.5t-52.5 25.5t-35.5 37.5t-13 45.5z" />
<glyph unicode="&#x1e46;" horiz-adv-x="1579" d="M68 118l143 34v1049l-143 34l20 118h520l592 -1101h16v949l-144 34l20 118h447l20 -118l-142 -34v-1201h-399l-591 1100h-16v-948l162 -34l-20 -118h-465zM657 -339q0 34 9.5 64t25.5 53t37.5 36.5t45.5 13.5q34 0 64.5 -9.5t53 -25.5t35.5 -37.5t13 -46.5 q0 -33 -9.5 -63.5t-25.5 -53t-37.5 -36t-45.5 -13.5q-35 0 -65 9.5t-52.5 25.5t-35.5 37.5t-13 45.5z" />
<glyph unicode="&#x1e47;" horiz-adv-x="1392" d="M68 118l143 34v781l-143 34l20 118l335 22l58 -158q94 87 184 122.5t190 35.5q170 0 259 -87t89 -254v-614l143 -34l-20 -118h-536l-20 118l143 34v599q0 115 -36.5 165.5t-111.5 50.5q-53 0 -121.5 -37t-142.5 -112v-666l143 -34l-20 -118h-536zM627 -339q0 34 9.5 64 t25.5 53t37.5 36.5t45.5 13.5q34 0 64.5 -9.5t53 -25.5t35.5 -37.5t13 -46.5q0 -33 -9.5 -63.5t-25.5 -53t-37.5 -36t-45.5 -13.5q-35 0 -65 9.5t-52.5 25.5t-35.5 37.5t-13 45.5z" />
<glyph unicode="&#x1e48;" horiz-adv-x="1579" d="M68 118l143 34v1049l-143 34l20 118h520l592 -1101h16v949l-144 34l20 118h447l20 -118l-142 -34v-1201h-399l-591 1100h-16v-948l162 -34l-20 -118h-465zM404 -335l20 160h750l-20 -160h-750z" />
<glyph unicode="&#x1e49;" horiz-adv-x="1392" d="M68 118l143 34v781l-143 34l20 118l335 22l58 -158q94 87 184 122.5t190 35.5q170 0 259 -87t89 -254v-614l143 -34l-20 -118h-536l-20 118l143 34v599q0 115 -36.5 165.5t-111.5 50.5q-53 0 -121.5 -37t-142.5 -112v-666l143 -34l-20 -118h-536zM374 -335l20 160h750 l-20 -160h-750z" />
<glyph unicode="&#x1e59;" horiz-adv-x="919" d="M68 118l143 34v781l-143 34l20 118l335 22l58 -158q44 82 108 120t149 38q40 0 84 -11t81 -31l-25 -303h-192l-27 189q-7 2 -14 3t-13 1q-30 0 -64.5 -36.5t-66.5 -100.5v-666l176 -34l-20 -118h-569zM357 1395q0 34 9.5 64t25.5 53t37.5 36.5t45.5 13.5q34 0 64.5 -9.5 t53 -25.5t35.5 -37.5t13 -46.5q0 -33 -9.5 -63.5t-25.5 -53t-37.5 -36t-45.5 -13.5q-35 0 -65 9.5t-52.5 25.5t-35.5 37.5t-13 45.5z" />
<glyph unicode="&#x1e5a;" horiz-adv-x="1281" d="M70 118l143 34v1049l-143 34l20 118h559q225 0 348 -92.5t123 -273.5q0 -120 -57 -205.5t-167 -137.5l-6 -19l252 -472l123 -35l-20 -118h-309l-310 591h-113v-439l142 -34l-20 -118h-545zM513 740h73q70 0 122 7t82 20q12 41 19 94.5t7 107.5q0 136 -62 185.5t-190 49.5 h-51v-464zM541 -339q0 34 9.5 64t25.5 53t37.5 36.5t45.5 13.5q34 0 64.5 -9.5t53 -25.5t35.5 -37.5t13 -46.5q0 -33 -9.5 -63.5t-25.5 -53t-37.5 -36t-45.5 -13.5q-35 0 -65 9.5t-52.5 25.5t-35.5 37.5t-13 45.5z" />
<glyph unicode="&#x1e5b;" horiz-adv-x="919" d="M68 118l143 34v781l-143 34l20 118l335 22l58 -158q44 82 108 120t149 38q40 0 84 -11t81 -31l-25 -303h-192l-27 189q-7 2 -14 3t-13 1q-30 0 -64.5 -36.5t-66.5 -100.5v-666l176 -34l-20 -118h-569zM221 -339q0 34 9.5 64t25.5 53t37.5 36.5t45.5 13.5q34 0 64.5 -9.5 t53 -25.5t35.5 -37.5t13 -46.5q0 -33 -9.5 -63.5t-25.5 -53t-37.5 -36t-45.5 -13.5q-35 0 -65 9.5t-52.5 25.5t-35.5 37.5t-13 45.5z" />
<glyph unicode="&#x1e5c;" horiz-adv-x="1281" d="M70 118l143 34v1049l-143 34l20 118h559q225 0 348 -92.5t123 -273.5q0 -120 -57 -205.5t-167 -137.5l-6 -19l252 -472l123 -35l-20 -118h-309l-310 591h-113v-439l142 -34l-20 -118h-545zM513 740h73q70 0 122 7t82 20q12 41 19 94.5t7 107.5q0 136 -62 185.5t-190 49.5 h-51v-464zM541 -339q0 34 9.5 64t25.5 53t37.5 36.5t45.5 13.5q34 0 64.5 -9.5t53 -25.5t35.5 -37.5t13 -46.5q0 -33 -9.5 -63.5t-25.5 -53t-37.5 -36t-45.5 -13.5q-35 0 -65 9.5t-52.5 25.5t-35.5 37.5t-13 45.5zM143 1530l20 160h810l-20 -160h-810z" />
<glyph unicode="&#x1e5d;" horiz-adv-x="919" d="M68 118l143 34v781l-143 34l20 118l335 22l58 -158q44 82 108 120t149 38q40 0 84 -11t81 -31l-25 -303h-192l-27 189q-7 2 -14 3t-13 1q-30 0 -64.5 -36.5t-66.5 -100.5v-666l176 -34l-20 -118h-569zM221 -339q0 34 9.5 64t25.5 53t37.5 36.5t45.5 13.5q34 0 64.5 -9.5 t53 -25.5t35.5 -37.5t13 -46.5q0 -33 -9.5 -63.5t-25.5 -53t-37.5 -36t-45.5 -13.5q-35 0 -65 9.5t-52.5 25.5t-35.5 37.5t-13 45.5zM116 1333l20 160h750l-20 -160h-750z" />
<glyph unicode="&#x1e5e;" horiz-adv-x="1281" d="M70 118l143 34v1049l-143 34l20 118h559q225 0 348 -92.5t123 -273.5q0 -120 -57 -205.5t-167 -137.5l-6 -19l252 -472l123 -35l-20 -118h-309l-310 591h-113v-439l142 -34l-20 -118h-545zM513 740h73q70 0 122 7t82 20q12 41 19 94.5t7 107.5q0 136 -62 185.5t-190 49.5 h-51v-464zM288 -335l20 160h750l-20 -160h-750z" />
<glyph unicode="&#x1e5f;" horiz-adv-x="919" d="M68 118l143 34v781l-143 34l20 118l335 22l58 -158q44 82 108 120t149 38q40 0 84 -11t81 -31l-25 -303h-192l-27 189q-7 2 -14 3t-13 1q-30 0 -64.5 -36.5t-66.5 -100.5v-666l176 -34l-20 -118h-569zM-32 -335l20 160h750l-20 -160h-750z" />
<glyph unicode="&#x1e60;" horiz-adv-x="1130" d="M79 1034q0 162 141.5 251.5t390.5 89.5q101 0 198.5 -14t173.5 -38l21 -290l-155 -22l-83 197q-39 9 -83.5 13.5t-87.5 4.5q-50 0 -100 -7t-97 -21q-8 -26 -13.5 -58t-5.5 -61q0 -63 49.5 -110t235.5 -156q231 -130 318.5 -228.5t87.5 -239.5q0 -175 -146 -271t-399 -96 q-116 0 -223 17t-182 46l-21 279l167 25l84 -197q41 -10 90.5 -15.5t99.5 -5.5q53 0 106 8t94 20q12 24 21 60t9 71q0 80 -63 140t-230 160q-255 147 -326 237t-72 211zM462 1584q0 34 9.5 64t25.5 53t37.5 36.5t45.5 13.5q34 0 64.5 -9.5t53 -25.5t35.5 -37.5t13 -46.5 q0 -33 -9.5 -63.5t-25.5 -53t-37.5 -36t-45.5 -13.5q-35 0 -65 9.5t-52.5 25.5t-35.5 37.5t-13 45.5z" />
<glyph unicode="&#x1e61;" horiz-adv-x="962" d="M66 818q0 134 118.5 211.5t340.5 77.5q79 0 169.5 -17t175.5 -51l9 -261l-169 -20l-61 194q-32 8 -66.5 11.5t-64.5 3.5q-38 0 -79.5 -5.5t-73.5 -15.5q-5 -16 -7 -35t-2 -38q0 -47 43 -87t192 -122q185 -100 256 -178t71 -200q0 -147 -122.5 -227.5t-345.5 -80.5 q-107 0 -202.5 19.5t-163.5 50.5l-10 260l169 20l59 -189q34 -10 74 -15.5t81 -5.5q46 0 87 5.5t77 15.5q4 16 5.5 36.5t1.5 39.5q0 65 -49.5 113t-201.5 134q-172 94 -241.5 166.5t-69.5 189.5zM382 1395q0 34 9.5 64t25.5 53t37.5 36.5t45.5 13.5q34 0 64.5 -9.5t53 -25.5 t35.5 -37.5t13 -46.5q0 -33 -9.5 -63.5t-25.5 -53t-37.5 -36t-45.5 -13.5q-35 0 -65 9.5t-52.5 25.5t-35.5 37.5t-13 45.5z" />
<glyph unicode="&#x1e62;" horiz-adv-x="1130" d="M79 1034q0 162 141.5 251.5t390.5 89.5q101 0 198.5 -14t173.5 -38l21 -290l-155 -22l-83 197q-39 9 -83.5 13.5t-87.5 4.5q-50 0 -100 -7t-97 -21q-8 -26 -13.5 -58t-5.5 -61q0 -63 49.5 -110t235.5 -156q231 -130 318.5 -228.5t87.5 -239.5q0 -175 -146 -271t-399 -96 q-116 0 -223 17t-182 46l-21 279l167 25l84 -197q41 -10 90.5 -15.5t99.5 -5.5q53 0 106 8t94 20q12 24 21 60t9 71q0 80 -63 140t-230 160q-255 147 -326 237t-72 211zM421 -339q0 34 9.5 64t25.5 53t37.5 36.5t45.5 13.5q34 0 64.5 -9.5t53 -25.5t35.5 -37.5t13 -46.5 q0 -33 -9.5 -63.5t-25.5 -53t-37.5 -36t-45.5 -13.5q-35 0 -65 9.5t-52.5 25.5t-35.5 37.5t-13 45.5z" />
<glyph unicode="&#x1e63;" horiz-adv-x="962" d="M66 818q0 134 118.5 211.5t340.5 77.5q79 0 169.5 -17t175.5 -51l9 -261l-169 -20l-61 194q-32 8 -66.5 11.5t-64.5 3.5q-38 0 -79.5 -5.5t-73.5 -15.5q-5 -16 -7 -35t-2 -38q0 -47 43 -87t192 -122q185 -100 256 -178t71 -200q0 -147 -122.5 -227.5t-345.5 -80.5 q-107 0 -202.5 19.5t-163.5 50.5l-10 260l169 20l59 -189q34 -10 74 -15.5t81 -5.5q46 0 87 5.5t77 15.5q4 16 5.5 36.5t1.5 39.5q0 65 -49.5 113t-201.5 134q-172 94 -241.5 166.5t-69.5 189.5zM336 -339q0 34 9.5 64t25.5 53t37.5 36.5t45.5 13.5q34 0 64.5 -9.5t53 -25.5 t35.5 -37.5t13 -46.5q0 -33 -9.5 -63.5t-25.5 -53t-37.5 -36t-45.5 -13.5q-35 0 -65 9.5t-52.5 25.5t-35.5 37.5t-13 45.5z" />
<glyph unicode="&#x1e6c;" horiz-adv-x="1207" d="M8 1043l15 310h1162l14 -310l-148 -9l-63 170h-234v-1052l143 -34l-20 -118h-546l-20 118l143 34v1052h-235l-62 -170zM463 -339q0 34 9.5 64t25.5 53t37.5 36.5t45.5 13.5q34 0 64.5 -9.5t53 -25.5t35.5 -37.5t13 -46.5q0 -33 -9.5 -63.5t-25.5 -53t-37.5 -36 t-45.5 -13.5q-35 0 -65 9.5t-52.5 25.5t-35.5 37.5t-13 45.5z" />
<glyph unicode="&#x1e6d;" horiz-adv-x="772" d="M8 966l20 119h131l73 293l217 -20v-273h250l20 -119l-270 -32v-642q0 -83 26.5 -128.5t104.5 -45.5q29 0 67 11.5t73 27.5v-114q-54 -31 -124 -48t-140 -17q-160 0 -228.5 70.5t-68.5 221.5v664zM303 -339q0 34 9.5 64t25.5 53t37.5 36.5t45.5 13.5q34 0 64.5 -9.5 t53 -25.5t35.5 -37.5t13 -46.5q0 -33 -9.5 -63.5t-25.5 -53t-37.5 -36t-45.5 -13.5q-35 0 -65 9.5t-52.5 25.5t-35.5 37.5t-13 45.5z" />
<glyph unicode="&#x1e6e;" horiz-adv-x="1207" d="M8 1043l15 310h1162l14 -310l-148 -9l-63 170h-234v-1052l143 -34l-20 -118h-546l-20 118l143 34v1052h-235l-62 -170zM210 -335l20 160h750l-20 -160h-750z" />
<glyph unicode="&#x1e6f;" horiz-adv-x="772" d="M8 966l20 119h131l73 293l217 -20v-273h250l20 -119l-270 -32v-642q0 -83 26.5 -128.5t104.5 -45.5q29 0 67 11.5t73 27.5v-114q-54 -31 -124 -48t-140 -17q-160 0 -228.5 70.5t-68.5 221.5v664zM50 -335l20 160h750l-20 -160h-750z" />
<glyph unicode="&#x1e80;" horiz-adv-x="2082" d="M-30 1234l20 119h497l20 -119l-144 -28l284 -866h16l318 1011v2h271l309 -1013h16l254 866l-148 28l20 119h403l20 -119l-88 -28l-371 -1206h-291l-298 956h-16l-302 -956h-292l-406 1206zM716 1708v66l282 10l278 -281v-32l-165 -11z" />
<glyph unicode="&#x1e81;" horiz-adv-x="1769" d="M-24 967l20 118h451l20 -118l-125 -19l219 -691h16l239 828h243l242 -828h16l198 691l-128 19l20 118h366l20 -118l-90 -19l-289 -948h-292l-217 699h-16l-212 -699h-292l-316 948zM578 1594v66l285 10l203 -363v-32l-168 -10z" />
<glyph unicode="&#x1e82;" horiz-adv-x="2082" d="M-30 1234l20 119h497l20 -119l-144 -28l284 -866h16l318 1011v2h271l309 -1013h16l254 866l-148 28l20 119h403l20 -119l-88 -28l-371 -1206h-291l-298 956h-16l-302 -956h-292l-406 1206zM959 1471v32l278 281l282 -10v-66l-395 -248z" />
<glyph unicode="&#x1e83;" horiz-adv-x="1769" d="M-24 967l20 118h451l20 -118l-125 -19l219 -691h16l239 828h243l242 -828h16l198 691l-128 19l20 118h366l20 -118l-90 -19l-289 -948h-292l-217 699h-16l-212 -699h-292l-316 948zM822 1275v32l183 363l272 -10v-66l-300 -329z" />
<glyph unicode="&#x1e84;" horiz-adv-x="2082" d="M-30 1234l20 119h497l20 -119l-144 -28l284 -866h16l318 1011v2h271l309 -1013h16l254 866l-148 28l20 119h403l20 -119l-88 -28l-371 -1206h-291l-298 956h-16l-302 -956h-292l-406 1206zM722 1577q0 31 8.5 58.5t23 48t34 32.5t40.5 12q31 0 58.5 -8.5t47.5 -23 t31.5 -34.5t11.5 -42q0 -30 -8.5 -57t-22.5 -48t-33.5 -33t-40.5 -12q-32 0 -59 8.5t-47.5 23.5t-32 34.5t-11.5 40.5zM1264 1577q0 31 8.5 58.5t22.5 48t33.5 32.5t40.5 12q31 0 58.5 -8.5t48 -23t32 -34.5t11.5 -42q0 -30 -8.5 -57t-23 -48t-34 -33t-41.5 -12 q-32 0 -59 8.5t-46.5 23.5t-31 34.5t-11.5 40.5z" />
<glyph unicode="&#x1e85;" horiz-adv-x="1769" d="M-24 967l20 118h451l20 -118l-125 -19l219 -691h16l239 828h243l242 -828h16l198 691l-128 19l20 118h366l20 -118l-90 -19l-289 -948h-292l-217 699h-16l-212 -699h-292l-316 948zM563 1389q0 31 8.5 58.5t23 48t34 32.5t40.5 12q31 0 58.5 -8.5t47.5 -23.5t31.5 -34.5 t11.5 -41.5q0 -30 -8.5 -57t-22.5 -48t-33.5 -33t-40.5 -12q-32 0 -59 8.5t-47.5 23.5t-32 34.5t-11.5 40.5zM1043 1389q0 31 8.5 58.5t22.5 48t33.5 32.5t40.5 12q31 0 58.5 -8.5t48 -23.5t32 -34.5t11.5 -41.5q0 -30 -8.5 -57t-23 -48t-34 -33t-41.5 -12q-32 0 -59 8.5 t-46.5 23.5t-31 34.5t-11.5 40.5z" />
<glyph unicode="&#x1e86;" horiz-adv-x="2082" d="M-30 1234l20 119h497l20 -119l-144 -28l284 -866h16l318 1011v2h271l309 -1013h16l254 866l-148 28l20 119h403l20 -119l-88 -28l-371 -1206h-291l-298 956h-16l-302 -956h-292l-406 1206zM992 1584q0 34 9.5 64t25.5 53t37.5 36.5t45.5 13.5q34 0 64.5 -9.5t53 -25.5 t35.5 -37.5t13 -46.5q0 -33 -9.5 -63.5t-25.5 -53t-37.5 -36t-45.5 -13.5q-35 0 -65 9.5t-52.5 25.5t-35.5 37.5t-13 45.5z" />
<glyph unicode="&#x1e87;" horiz-adv-x="1769" d="M-24 967l20 118h451l20 -118l-125 -19l219 -691h16l239 828h243l242 -828h16l198 691l-128 19l20 118h366l20 -118l-90 -19l-289 -948h-292l-217 699h-16l-212 -699h-292l-316 948zM801 1395q0 34 9.5 64t25.5 53t37.5 36.5t45.5 13.5q34 0 64.5 -9.5t53 -25.5 t35.5 -37.5t13 -46.5q0 -33 -9.5 -63.5t-25.5 -53t-37.5 -36t-45.5 -13.5q-35 0 -65 9.5t-52.5 25.5t-35.5 37.5t-13 45.5z" />
<glyph unicode="&#x1e8e;" horiz-adv-x="1172" d="M-54 1234l20 119h520l20 -119l-142 -27l277 -444l264 444l-135 27l20 119h422l20 -119l-113 -31l-367 -616v-435l142 -34l-20 -118h-545l-20 118l143 34v434l-389 617zM511 1584q0 34 9.5 64t25.5 53t37.5 36.5t45.5 13.5q34 0 64.5 -9.5t53 -25.5t35.5 -37.5t13 -46.5 q0 -33 -9.5 -63.5t-25.5 -53t-37.5 -36t-45.5 -13.5q-35 0 -65 9.5t-52.5 25.5t-35.5 37.5t-13 45.5z" />
<glyph unicode="&#x1e8f;" horiz-adv-x="1104" d="M-20 967l20 118h450l20 -118l-123 -19l243 -726h16l240 726l-122 19l20 118h364l20 -118l-92 -19l-333 -952q-86 -250 -176 -351.5t-228 -101.5q-71 0 -143 18t-132 49l41 171q75 -33 161.5 -57t143.5 -24q22 13 49.5 48t46.5 80l-394 1120zM490 1395q0 34 9.5 64 t25.5 53t37.5 36.5t45.5 13.5q34 0 64.5 -9.5t53 -25.5t35.5 -37.5t13 -46.5q0 -33 -9.5 -63.5t-25.5 -53t-37.5 -36t-45.5 -13.5q-35 0 -65 9.5t-52.5 25.5t-35.5 37.5t-13 45.5z" />
<glyph unicode="&#x1e90;" horiz-adv-x="1165" d="M50 0v145l695 1045l-5 14h-441l-82 -193l-154 22l25 320h1007v-144l-696 -1046l5 -14h482l82 193l153 -22l-24 -320h-1047zM236 1470v32l263 292l223 -10l253 -282v-32l-175 -10l-213 171l-206 -171z" />
<glyph unicode="&#x1e91;" horiz-adv-x="1039" d="M56 0v95l593 848l-6 12h-355l-52 -190l-144 11v309h907v-83l-601 -860l6 -12h386l52 190l144 -11v-309h-930zM230 1275v32l223 373l243 -10l223 -363v-32l-175 -10l-188 219l-181 -219z" />
<glyph unicode="&#x1e92;" horiz-adv-x="1165" d="M50 0v145l695 1045l-5 14h-441l-82 -193l-154 22l25 320h1007v-144l-696 -1046l5 -14h482l82 193l153 -22l-24 -320h-1047zM443 -339q0 34 9.5 64t25.5 53t37.5 36.5t45.5 13.5q34 0 64.5 -9.5t53 -25.5t35.5 -37.5t13 -46.5q0 -33 -9.5 -63.5t-25.5 -53t-37.5 -36 t-45.5 -13.5q-35 0 -65 9.5t-52.5 25.5t-35.5 37.5t-13 45.5z" />
<glyph unicode="&#x1e93;" horiz-adv-x="1039" d="M56 0v95l593 848l-6 12h-355l-52 -190l-144 11v309h907v-83l-601 -860l6 -12h386l52 190l144 -11v-309h-930zM382 -339q0 34 9.5 64t25.5 53t37.5 36.5t45.5 13.5q34 0 64.5 -9.5t53 -25.5t35.5 -37.5t13 -46.5q0 -33 -9.5 -63.5t-25.5 -53t-37.5 -36t-45.5 -13.5 q-35 0 -65 9.5t-52.5 25.5t-35.5 37.5t-13 45.5z" />
<glyph unicode="&#x1e97;" horiz-adv-x="772" d="M8 966l20 119h131l73 293l217 -20v-273h250l20 -119l-270 -32v-642q0 -83 26.5 -128.5t104.5 -45.5q29 0 67 11.5t73 27.5v-114q-54 -31 -124 -48t-140 -17q-160 0 -228.5 70.5t-68.5 221.5v664zM-50 1577q0 31 8.5 58.5t23 48t34 32.5t40.5 12q31 0 58.5 -8.5t47.5 -23 t31.5 -34.5t11.5 -42q0 -30 -8.5 -57t-22.5 -48t-33.5 -33t-40.5 -12q-32 0 -59 8.5t-47.5 23.5t-32 34.5t-11.5 40.5zM492 1577q0 31 8.5 58.5t22.5 48t33.5 32.5t40.5 12q31 0 58.5 -8.5t48 -23t32 -34.5t11.5 -42q0 -30 -8.5 -57t-23 -48t-34 -33t-41.5 -12 q-32 0 -59 8.5t-46.5 23.5t-31 34.5t-11.5 40.5z" />
<glyph unicode="&#x1e98;" horiz-adv-x="1769" d="M-24 967l20 118h451l20 -118l-125 -19l219 -691h16l239 828h243l242 -828h16l198 691l-128 19l20 118h366l20 -118l-90 -19l-289 -948h-292l-217 699h-16l-212 -699h-292l-316 948zM715 1436q0 61 19.5 106t52 74.5t76 44t91.5 14.5q44 0 83.5 -10t69.5 -31t47.5 -54.5 t17.5 -79.5q0 -64 -18.5 -109.5t-50.5 -74.5t-75.5 -42.5t-93.5 -13.5q-46 0 -86 10t-69.5 31.5t-46.5 55t-17 79.5zM870 1468q0 -56 22 -85.5t57 -29.5q14 0 24.5 1t18.5 3q9 2 17 5q2 12 4 29q2 14 3.5 33.5t1.5 43.5q0 56 -22 85.5t-57 29.5q-11 0 -20 -1.5t-16 -3.5 q-8 -2 -14 -4q-6 -11 -10 -27q-4 -14 -6.5 -33.5t-2.5 -45.5z" />
<glyph unicode="&#x1e99;" horiz-adv-x="1104" d="M-20 967l20 118h450l20 -118l-123 -19l243 -726h16l240 726l-122 19l20 118h364l20 -118l-92 -19l-333 -952q-86 -250 -176 -351.5t-228 -101.5q-71 0 -143 18t-132 49l41 171q75 -33 161.5 -57t143.5 -24q22 13 49.5 48t46.5 80l-394 1120zM404 1436q0 61 19.5 106 t52 74.5t76 44t91.5 14.5q44 0 83.5 -10t69.5 -31t47.5 -54.5t17.5 -79.5q0 -64 -18.5 -109.5t-50.5 -74.5t-75.5 -42.5t-93.5 -13.5q-46 0 -86 10t-69.5 31.5t-46.5 55t-17 79.5zM559 1468q0 -56 22 -85.5t57 -29.5q14 0 24.5 1t18.5 3q9 2 17 5q2 12 4 29q2 14 3.5 33.5 t1.5 43.5q0 56 -22 85.5t-57 29.5q-11 0 -20 -1.5t-16 -3.5q-8 -2 -14 -4q-6 -11 -10 -27q-4 -14 -6.5 -33.5t-2.5 -45.5z" />
<glyph unicode="&#x1e9e;" horiz-adv-x="1367" d="M8 118l163 34v1049l-163 34l20 118h1186v-94l-305 -408l55 -39q79 -56 147 -106t118 -103.5t78 -115.5t28 -142q0 -81 -29.5 -148t-85 -116t-136.5 -76t-184 -27q-75 0 -132.5 9.5t-98.5 21.5q-48 14 -84 32l-21 279l157 25l82 -194q14 -7 32 -12q15 -5 34 -8.5t41 -3.5 q18 0 34.5 2.5t30.5 6.5q16 4 30 9q8 15 15 35q5 17 10 43t5 61q0 46 -16.5 84.5t-47 73.5t-73.5 70t-97 75l-151 112v87l314 418h-513v-1204h-423z" />
<glyph unicode="&#x1ea0;" horiz-adv-x="1266" d="M-26 118l100 28l433 1207h263l423 -1207l99 -28l-20 -118h-494l-20 118l132 28l-82 240h-453l-84 -240l132 -28l-20 -118h-389zM406 535h352l-166 488h-16zM476 -339q0 34 9.5 64t25.5 53t37.5 36.5t45.5 13.5q34 0 64.5 -9.5t53 -25.5t35.5 -37.5t13 -46.5 q0 -33 -9.5 -63.5t-25.5 -53t-37.5 -36t-45.5 -13.5q-35 0 -65 9.5t-52.5 25.5t-35.5 37.5t-13 45.5z" />
<glyph unicode="&#x1ea1;" horiz-adv-x="1188" d="M70 237q0 190 161.5 285t479.5 95v93q0 132 -45.5 194.5t-147.5 62.5q-42 0 -78.5 -4.5t-63.5 -10.5l-60 -212l-168 10v303q85 24 191.5 39t206.5 15q232 0 343.5 -92.5t111.5 -279.5v-583l143 -34l-20 -118l-335 -22l-57 158q-62 -71 -155.5 -114.5t-200.5 -43.5 q-148 0 -227 66.5t-79 192.5zM360 275q0 -76 31 -116.5t89 -40.5q63 0 126.5 38.5t104.5 88.5v232q-100 0 -186.5 -16t-134.5 -42q-12 -25 -21 -62.5t-9 -81.5zM445 -339q0 34 9.5 64t25.5 53t37.5 36.5t45.5 13.5q34 0 64.5 -9.5t53 -25.5t35.5 -37.5t13 -46.5 q0 -33 -9.5 -63.5t-25.5 -53t-37.5 -36t-45.5 -13.5q-35 0 -65 9.5t-52.5 25.5t-35.5 37.5t-13 45.5z" />
<glyph unicode="&#x1ea2;" horiz-adv-x="1266" d="M-26 118l100 28l433 1207h263l423 -1207l99 -28l-20 -118h-494l-20 118l132 28l-82 240h-453l-84 -240l132 -28l-20 -118h-389zM406 535h352l-166 488h-16zM468 1677v133q29 15 64 27q30 11 70 19.5t87 8.5q94 0 146 -35t52 -95q0 -33 -8.5 -57.5t-24.5 -44.5t-39 -37 t-52 -33q-40 -23 -56 -36.5t-16 -27.5q0 -12 5 -22q2 -6 5 -11l-102 -27q-10 13 -18 28q-7 13 -12 28.5t-5 32.5q0 15 3 29.5t12 29.5t24.5 30t40.5 32q41 28 54 45t13 37q0 17 -10.5 28.5t-35.5 11.5q-14 0 -25.5 -3t-20.5 -6q-11 -4 -19 -9l-24 -81z" />
<glyph unicode="&#x1ea3;" horiz-adv-x="1188" d="M70 237q0 190 161.5 285t479.5 95v93q0 132 -45.5 194.5t-147.5 62.5q-42 0 -78.5 -4.5t-63.5 -10.5l-60 -212l-168 10v303q85 24 191.5 39t206.5 15q232 0 343.5 -92.5t111.5 -279.5v-583l143 -34l-20 -118l-335 -22l-57 158q-62 -71 -155.5 -114.5t-200.5 -43.5 q-148 0 -227 66.5t-79 192.5zM360 275q0 -76 31 -116.5t89 -40.5q63 0 126.5 38.5t104.5 88.5v232q-100 0 -186.5 -16t-134.5 -42q-12 -25 -21 -62.5t-9 -81.5zM364 1482v133q29 15 64 27q30 11 70 19.5t87 8.5q94 0 146 -35t52 -95q0 -33 -8.5 -57.5t-24.5 -44.5t-39 -37 t-52 -33q-40 -23 -56 -36.5t-16 -27.5q0 -12 5 -22q2 -6 5 -11l-102 -27q-10 13 -18 28q-7 13 -12 28.5t-5 32.5q0 15 3 29.5t12 29.5t24.5 30t40.5 32q41 28 54 45t13 37q0 17 -10.5 28.5t-35.5 11.5q-14 0 -25.5 -3t-20.5 -6q-11 -4 -19 -9l-24 -81z" />
<glyph unicode="&#x1ea4;" horiz-adv-x="1266" d="M-26 118l100 28l433 1207h263l423 -1207l99 -28l-20 -118h-494l-20 118l132 28l-82 240h-453l-84 -240l132 -28l-20 -118h-389zM406 535h352l-166 488h-16zM284 1470v32l263 292l223 -10l253 -282v-32l-175 -10l-213 171l-206 -171zM904 1702v32l191 182l222 -10v-66 l-278 -149z" />
<glyph unicode="&#x1ea5;" horiz-adv-x="1188" d="M70 237q0 190 161.5 285t479.5 95v93q0 132 -45.5 194.5t-147.5 62.5q-42 0 -78.5 -4.5t-63.5 -10.5l-60 -212l-168 10v303q85 24 191.5 39t206.5 15q232 0 343.5 -92.5t111.5 -279.5v-583l143 -34l-20 -118l-335 -22l-57 158q-62 -71 -155.5 -114.5t-200.5 -43.5 q-148 0 -227 66.5t-79 192.5zM360 275q0 -76 31 -116.5t89 -40.5q63 0 126.5 38.5t104.5 88.5v232q-100 0 -186.5 -16t-134.5 -42q-12 -25 -21 -62.5t-9 -81.5zM210 1275v32l223 373l243 -10l223 -363v-32l-175 -10l-188 219l-181 -219zM816 1540v32l129 237l212 -10v-66 l-216 -203z" />
<glyph unicode="&#x1ea6;" horiz-adv-x="1266" d="M-26 118l100 28l433 1207h263l423 -1207l99 -28l-20 -118h-494l-20 118l132 28l-82 240h-453l-84 -240l132 -28l-20 -118h-389zM406 535h352l-166 488h-16zM-8 1840v66l222 10l191 -182v-32l-135 -11zM284 1470v32l263 292l223 -10l253 -282v-32l-175 -10l-213 171 l-206 -171z" />
<glyph unicode="&#x1ea7;" horiz-adv-x="1188" d="M70 237q0 190 161.5 285t479.5 95v93q0 132 -45.5 194.5t-147.5 62.5q-42 0 -78.5 -4.5t-63.5 -10.5l-60 -212l-168 10v303q85 24 191.5 39t206.5 15q232 0 343.5 -92.5t111.5 -279.5v-583l143 -34l-20 -118l-335 -22l-57 158q-62 -71 -155.5 -114.5t-200.5 -43.5 q-148 0 -227 66.5t-79 192.5zM360 275q0 -76 31 -116.5t89 -40.5q63 0 126.5 38.5t104.5 88.5v232q-100 0 -186.5 -16t-134.5 -42q-12 -25 -21 -62.5t-9 -81.5zM-79 1733v66l225 10l143 -237v-32l-138 -10zM210 1275v32l223 373l243 -10l223 -363v-32l-175 -10l-188 219 l-181 -219z" />
<glyph unicode="&#x1ea8;" horiz-adv-x="1266" d="M-26 118l100 28l433 1207h263l423 -1207l99 -28l-20 -118h-494l-20 118l132 28l-82 240h-453l-84 -240l132 -28l-20 -118h-389zM406 535h352l-166 488h-16zM284 1470v32l263 292l223 -10l253 -282v-32l-175 -10l-213 171l-206 -171zM842 1913v133q29 15 64 27 q30 11 70 19.5t87 8.5q94 0 146 -35t52 -95q0 -33 -8.5 -57.5t-24.5 -44.5t-39 -37t-52 -33q-40 -23 -56 -36.5t-16 -27.5q0 -12 5 -22q2 -6 5 -11l-102 -27q-10 13 -18 28q-7 13 -12 28.5t-5 32.5q0 15 3 29.5t12 29.5t24.5 30t40.5 32q41 28 54 45t13 37q0 17 -10.5 28.5 t-35.5 11.5q-14 0 -25.5 -3t-20.5 -6q-11 -4 -19 -9l-24 -81z" />
<glyph unicode="&#x1ea9;" horiz-adv-x="1188" d="M70 237q0 190 161.5 285t479.5 95v93q0 132 -45.5 194.5t-147.5 62.5q-42 0 -78.5 -4.5t-63.5 -10.5l-60 -212l-168 10v303q85 24 191.5 39t206.5 15q232 0 343.5 -92.5t111.5 -279.5v-583l143 -34l-20 -118l-335 -22l-57 158q-62 -71 -155.5 -114.5t-200.5 -43.5 q-148 0 -227 66.5t-79 192.5zM360 275q0 -76 31 -116.5t89 -40.5q63 0 126.5 38.5t104.5 88.5v232q-100 0 -186.5 -16t-134.5 -42q-12 -25 -21 -62.5t-9 -81.5zM210 1275v32l223 373l243 -10l223 -363v-32l-175 -10l-188 219l-181 -219zM725 1751v133q29 15 64 27 q30 11 70 19.5t87 8.5q94 0 146 -35t52 -95q0 -33 -8.5 -57.5t-24.5 -44.5t-39 -37t-52 -33q-40 -23 -56 -36.5t-16 -27.5q0 -12 5 -22q2 -6 5 -11l-102 -27q-10 13 -18 28q-7 13 -12 28.5t-5 32.5q0 15 3 29.5t12 29.5t24.5 30t40.5 32q41 28 54 45t13 37q0 17 -10.5 28.5 t-35.5 11.5q-14 0 -25.5 -3t-20.5 -6q-11 -4 -19 -9l-24 -81z" />
<glyph unicode="&#x1eaa;" horiz-adv-x="1266" d="M-26 118l100 28l433 1207h263l423 -1207l99 -28l-20 -118h-494l-20 118l132 28l-82 240h-453l-84 -240l132 -28l-20 -118h-389zM406 535h352l-166 488h-16zM182 1882v50q0 127 67 190.5t183 63.5q66 0 133 -20.5t128.5 -45.5t113 -45.5t86.5 -20.5q43 0 68 29.5t25 90.5 l137 10v-72q0 -119 -61.5 -186.5t-176.5 -67.5q-58 0 -127 20.5t-135.5 45.5t-123.5 45.5t-91 20.5q-23 0 -40.5 -4t-30.5 -15t-19.5 -30t-6.5 -49zM284 1470v32l263 292l223 -10l253 -282v-32l-175 -10l-213 171l-206 -171z" />
<glyph unicode="&#x1eab;" horiz-adv-x="1188" d="M70 237q0 190 161.5 285t479.5 95v93q0 132 -45.5 194.5t-147.5 62.5q-42 0 -78.5 -4.5t-63.5 -10.5l-60 -212l-168 10v303q85 24 191.5 39t206.5 15q232 0 343.5 -92.5t111.5 -279.5v-583l143 -34l-20 -118l-335 -22l-57 158q-62 -71 -155.5 -114.5t-200.5 -43.5 q-148 0 -227 66.5t-79 192.5zM360 275q0 -76 31 -116.5t89 -40.5q63 0 126.5 38.5t104.5 88.5v232q-100 0 -186.5 -16t-134.5 -42q-12 -25 -21 -62.5t-9 -81.5zM125 1770v50q0 127 61.5 190.5t168.5 63.5q57 0 115.5 -20.5t111.5 -45.5t98.5 -45.5t75.5 -20.5 q34 0 53.5 29.5t19.5 90.5l137 10v-72q0 -119 -56 -186.5t-162 -67.5q-51 0 -111.5 20.5t-118.5 45.5t-108 45.5t-79 20.5q-36 0 -56.5 -19t-20.5 -79zM210 1275v32l223 373l243 -10l223 -363v-32l-175 -10l-188 219l-181 -219z" />
<glyph unicode="&#x1eac;" horiz-adv-x="1266" d="M-26 118l100 28l433 1207h263l423 -1207l99 -28l-20 -118h-494l-20 118l132 28l-82 240h-453l-84 -240l132 -28l-20 -118h-389zM406 535h352l-166 488h-16zM476 -339q0 34 9.5 64t25.5 53t37.5 36.5t45.5 13.5q34 0 64.5 -9.5t53 -25.5t35.5 -37.5t13 -46.5 q0 -33 -9.5 -63.5t-25.5 -53t-37.5 -36t-45.5 -13.5q-35 0 -65 9.5t-52.5 25.5t-35.5 37.5t-13 45.5zM277 1470v32l263 292l223 -10l253 -282v-32l-175 -10l-213 171l-206 -171z" />
<glyph unicode="&#x1ead;" horiz-adv-x="1188" d="M70 237q0 190 161.5 285t479.5 95v93q0 132 -45.5 194.5t-147.5 62.5q-42 0 -78.5 -4.5t-63.5 -10.5l-60 -212l-168 10v303q85 24 191.5 39t206.5 15q232 0 343.5 -92.5t111.5 -279.5v-583l143 -34l-20 -118l-335 -22l-57 158q-62 -71 -155.5 -114.5t-200.5 -43.5 q-148 0 -227 66.5t-79 192.5zM360 275q0 -76 31 -116.5t89 -40.5q63 0 126.5 38.5t104.5 88.5v232q-100 0 -186.5 -16t-134.5 -42q-12 -25 -21 -62.5t-9 -81.5zM445 -339q0 34 9.5 64t25.5 53t37.5 36.5t45.5 13.5q34 0 64.5 -9.5t53 -25.5t35.5 -37.5t13 -46.5 q0 -33 -9.5 -63.5t-25.5 -53t-37.5 -36t-45.5 -13.5q-35 0 -65 9.5t-52.5 25.5t-35.5 37.5t-13 45.5zM209 1275v32l223 373l243 -10l223 -363v-32l-175 -10l-188 219l-181 -219z" />
<glyph unicode="&#x1eae;" horiz-adv-x="1266" d="M-26 118l100 28l433 1207h263l423 -1207l99 -28l-20 -118h-494l-20 118l132 28l-82 240h-453l-84 -240l132 -28l-20 -118h-389zM406 535h352l-166 488h-16zM280 1749l117 10q0 -12 9.5 -34.5t35.5 -44t72.5 -37.5t121.5 -16t121.5 16t72.5 37.5t35.5 44t9.5 34.5l117 -10 q0 -47 -21.5 -98.5t-65.5 -94.5t-111 -71t-158 -28t-158 28t-111 71t-65.5 94.5t-21.5 98.5zM513 1750v32l278 281l282 -10v-66l-395 -248z" />
<glyph unicode="&#x1eaf;" horiz-adv-x="1188" d="M70 237q0 190 161.5 285t479.5 95v93q0 132 -45.5 194.5t-147.5 62.5q-42 0 -78.5 -4.5t-63.5 -10.5l-60 -212l-168 10v303q85 24 191.5 39t206.5 15q232 0 343.5 -92.5t111.5 -279.5v-583l143 -34l-20 -118l-335 -22l-57 158q-62 -71 -155.5 -114.5t-200.5 -43.5 q-148 0 -227 66.5t-79 192.5zM360 275q0 -76 31 -116.5t89 -40.5q63 0 126.5 38.5t104.5 88.5v232q-100 0 -186.5 -16t-134.5 -42q-12 -25 -21 -62.5t-9 -81.5zM214 1592l117 10q0 -18 11 -45t35.5 -52t64.5 -42.5t98 -17.5t98 17.5t64.5 42.5t35.5 52t11 45l117 -10 q0 -59 -21.5 -117.5t-62.5 -105t-102 -75.5t-140 -29t-140 29t-102 75.5t-62.5 105t-21.5 117.5zM437 1600v32l183 363l272 -10v-66l-300 -329z" />
<glyph unicode="&#x1eb0;" horiz-adv-x="1266" d="M-26 118l100 28l433 1207h263l423 -1207l99 -28l-20 -118h-494l-20 118l132 28l-82 240h-453l-84 -240l132 -28l-20 -118h-389zM406 535h352l-166 488h-16zM194 1987v66l282 10l278 -281v-32l-165 -11zM280 1749l117 10q0 -12 9.5 -34.5t35.5 -44t72.5 -37.5t121.5 -16 t121.5 16t72.5 37.5t35.5 44t9.5 34.5l117 -10q0 -47 -21.5 -98.5t-65.5 -94.5t-111 -71t-158 -28t-158 28t-111 71t-65.5 94.5t-21.5 98.5z" />
<glyph unicode="&#x1eb1;" horiz-adv-x="1188" d="M70 237q0 190 161.5 285t479.5 95v93q0 132 -45.5 194.5t-147.5 62.5q-42 0 -78.5 -4.5t-63.5 -10.5l-60 -212l-168 10v303q85 24 191.5 39t206.5 15q232 0 343.5 -92.5t111.5 -279.5v-583l143 -34l-20 -118l-335 -22l-57 158q-62 -71 -155.5 -114.5t-200.5 -43.5 q-148 0 -227 66.5t-79 192.5zM360 275q0 -76 31 -116.5t89 -40.5q63 0 126.5 38.5t104.5 88.5v232q-100 0 -186.5 -16t-134.5 -42q-12 -25 -21 -62.5t-9 -81.5zM177 1919v66l285 10l203 -363v-32l-168 -10zM214 1592l117 10q0 -18 11 -45t35.5 -52t64.5 -42.5t98 -17.5 t98 17.5t64.5 42.5t35.5 52t11 45l117 -10q0 -59 -21.5 -117.5t-62.5 -105t-102 -75.5t-140 -29t-140 29t-102 75.5t-62.5 105t-21.5 117.5z" />
<glyph unicode="&#x1eb2;" horiz-adv-x="1266" d="M-26 118l100 28l433 1207h263l423 -1207l99 -28l-20 -118h-494l-20 118l132 28l-82 240h-453l-84 -240l132 -28l-20 -118h-389zM406 535h352l-166 488h-16zM280 1749l117 10q0 -12 9.5 -34.5t35.5 -44t72.5 -37.5t121.5 -16t121.5 16t72.5 37.5t35.5 44t9.5 34.5l117 -10 q0 -47 -21.5 -98.5t-65.5 -94.5t-111 -71t-158 -28t-158 28t-111 71t-65.5 94.5t-21.5 98.5zM456 2014v133q29 15 64 27q30 11 70 19.5t87 8.5q94 0 146 -35t52 -95q0 -33 -8.5 -57.5t-24.5 -44.5t-39 -37t-52 -33q-40 -23 -56 -36.5t-16 -27.5q0 -12 5 -22q2 -6 5 -11 l-102 -27q-10 13 -18 28q-7 13 -12 28.5t-5 32.5q0 15 3 29.5t12 29.5t24.5 30t40.5 32q41 28 54 45t13 37q0 17 -10.5 28.5t-35.5 11.5q-14 0 -25.5 -3t-20.5 -6q-11 -4 -19 -9l-24 -81z" />
<glyph unicode="&#x1eb3;" horiz-adv-x="1188" d="M70 237q0 190 161.5 285t479.5 95v93q0 132 -45.5 194.5t-147.5 62.5q-42 0 -78.5 -4.5t-63.5 -10.5l-60 -212l-168 10v303q85 24 191.5 39t206.5 15q232 0 343.5 -92.5t111.5 -279.5v-583l143 -34l-20 -118l-335 -22l-57 158q-62 -71 -155.5 -114.5t-200.5 -43.5 q-148 0 -227 66.5t-79 192.5zM360 275q0 -76 31 -116.5t89 -40.5q63 0 126.5 38.5t104.5 88.5v232q-100 0 -186.5 -16t-134.5 -42q-12 -25 -21 -62.5t-9 -81.5zM214 1592l117 10q0 -18 11 -45t35.5 -52t64.5 -42.5t98 -17.5t98 17.5t64.5 42.5t35.5 52t11 45l117 -10 q0 -59 -21.5 -117.5t-62.5 -105t-102 -75.5t-140 -29t-140 29t-102 75.5t-62.5 105t-21.5 117.5zM369 1807v133q29 15 64 27q30 11 70 19.5t87 8.5q94 0 146 -35t52 -95q0 -33 -8.5 -57.5t-24.5 -44.5t-39 -37t-52 -33q-40 -23 -56 -36.5t-16 -27.5q0 -12 5 -22q2 -6 5 -11 l-102 -27q-10 13 -18 28q-7 13 -12 28.5t-5 32.5q0 15 3 29.5t12 29.5t24.5 30t40.5 32q41 28 54 45t13 37q0 17 -10.5 28.5t-35.5 11.5q-14 0 -25.5 -3t-20.5 -6q-11 -4 -19 -9l-24 -81z" />
<glyph unicode="&#x1eb4;" horiz-adv-x="1266" d="M-26 118l100 28l433 1207h263l423 -1207l99 -28l-20 -118h-494l-20 118l132 28l-82 240h-453l-84 -240l132 -28l-20 -118h-389zM406 535h352l-166 488h-16zM164 1812v50q0 127 67 190.5t183 63.5q66 0 133 -20.5t128.5 -45.5t113 -45.5t86.5 -20.5q43 0 68 29.5t25 90.5 l137 10v-72q0 -119 -61.5 -186.5t-176.5 -67.5q-58 0 -127 20.5t-135.5 45.5t-123.5 45.5t-91 20.5q-23 0 -40.5 -4t-30.5 -15t-19.5 -30t-6.5 -49zM280 1749l117 10q0 -12 9.5 -34.5t35.5 -44t72.5 -37.5t121.5 -16t121.5 16t72.5 37.5t35.5 44t9.5 34.5l117 -10 q0 -47 -21.5 -98.5t-65.5 -94.5t-111 -71t-158 -28t-158 28t-111 71t-65.5 94.5t-21.5 98.5z" />
<glyph unicode="&#x1eb5;" horiz-adv-x="1188" d="M70 237q0 190 161.5 285t479.5 95v93q0 132 -45.5 194.5t-147.5 62.5q-42 0 -78.5 -4.5t-63.5 -10.5l-60 -212l-168 10v303q85 24 191.5 39t206.5 15q232 0 343.5 -92.5t111.5 -279.5v-583l143 -34l-20 -118l-335 -22l-57 158q-62 -71 -155.5 -114.5t-200.5 -43.5 q-148 0 -227 66.5t-79 192.5zM360 275q0 -76 31 -116.5t89 -40.5q63 0 126.5 38.5t104.5 88.5v232q-100 0 -186.5 -16t-134.5 -42q-12 -25 -21 -62.5t-9 -81.5zM118 1662v50q0 127 61.5 190.5t168.5 63.5q57 0 115.5 -20.5t111.5 -45.5t98.5 -45.5t75.5 -20.5 q34 0 53.5 29.5t19.5 90.5l137 10v-72q0 -119 -56 -186.5t-162 -67.5q-51 0 -111.5 20.5t-118.5 45.5t-108 45.5t-79 20.5q-36 0 -56.5 -19t-20.5 -79zM214 1592l117 10q0 -18 11 -45t35.5 -52t64.5 -42.5t98 -17.5t98 17.5t64.5 42.5t35.5 52t11 45l117 -10 q0 -59 -21.5 -117.5t-62.5 -105t-102 -75.5t-140 -29t-140 29t-102 75.5t-62.5 105t-21.5 117.5z" />
<glyph unicode="&#x1eb6;" horiz-adv-x="1266" d="M-26 118l100 28l433 1207h263l423 -1207l99 -28l-20 -118h-494l-20 118l132 28l-82 240h-453l-84 -240l132 -28l-20 -118h-389zM406 535h352l-166 488h-16zM476 -339q0 34 9.5 64t25.5 53t37.5 36.5t45.5 13.5q34 0 64.5 -9.5t53 -25.5t35.5 -37.5t13 -46.5 q0 -33 -9.5 -63.5t-25.5 -53t-37.5 -36t-45.5 -13.5q-35 0 -65 9.5t-52.5 25.5t-35.5 37.5t-13 45.5zM294 1749l117 10q0 -12 9.5 -34.5t35.5 -44t72.5 -37.5t121.5 -16t121.5 16t72.5 37.5t35.5 44t9.5 34.5l117 -10q0 -47 -21.5 -98.5t-65.5 -94.5t-111 -71t-158 -28 t-158 28t-111 71t-65.5 94.5t-21.5 98.5z" />
<glyph unicode="&#x1eb7;" horiz-adv-x="1188" d="M70 237q0 190 161.5 285t479.5 95v93q0 132 -45.5 194.5t-147.5 62.5q-42 0 -78.5 -4.5t-63.5 -10.5l-60 -212l-168 10v303q85 24 191.5 39t206.5 15q232 0 343.5 -92.5t111.5 -279.5v-583l143 -34l-20 -118l-335 -22l-57 158q-62 -71 -155.5 -114.5t-200.5 -43.5 q-148 0 -227 66.5t-79 192.5zM360 275q0 -76 31 -116.5t89 -40.5q63 0 126.5 38.5t104.5 88.5v232q-100 0 -186.5 -16t-134.5 -42q-12 -25 -21 -62.5t-9 -81.5zM445 -339q0 34 9.5 64t25.5 53t37.5 36.5t45.5 13.5q34 0 64.5 -9.5t53 -25.5t35.5 -37.5t13 -46.5 q0 -33 -9.5 -63.5t-25.5 -53t-37.5 -36t-45.5 -13.5q-35 0 -65 9.5t-52.5 25.5t-35.5 37.5t-13 45.5zM222 1592l117 10q0 -18 11 -45t35.5 -52t64.5 -42.5t98 -17.5t98 17.5t64.5 42.5t35.5 52t11 45l117 -10q0 -59 -21.5 -117.5t-62.5 -105t-102 -75.5t-140 -29t-140 29 t-102 75.5t-62.5 105t-21.5 117.5z" />
<glyph unicode="&#x1eb8;" horiz-adv-x="1203" d="M70 118l143 34v1049l-143 34l20 118h987l24 -320l-133 -22l-83 193h-372v-422h287l34 112l119 -20v-334l-119 -20l-34 113h-287v-484h401l83 193l134 -23l-24 -319h-1017zM467 -339q0 34 9.5 64t25.5 53t37.5 36.5t45.5 13.5q34 0 64.5 -9.5t53 -25.5t35.5 -37.5 t13 -46.5q0 -33 -9.5 -63.5t-25.5 -53t-37.5 -36t-45.5 -13.5q-35 0 -65 9.5t-52.5 25.5t-35.5 37.5t-13 45.5z" />
<glyph unicode="&#x1eb9;" horiz-adv-x="1078" d="M64 414v83q0 288 144 449t400 161q228 0 326 -108.5t98 -355.5v-130h-678v-66q0 -160 77.5 -244.5t234.5 -84.5q68 0 158 20t155 45v-116q-73 -37 -188 -63t-234 -26q-237 0 -365 112t-128 324zM357 653h385q0 175 -40 244.5t-136 69.5q-42 0 -84.5 -10t-79.5 -29 q-16 -58 -28.5 -132t-16.5 -143zM440 -339q0 34 9.5 64t25.5 53t37.5 36.5t45.5 13.5q34 0 64.5 -9.5t53 -25.5t35.5 -37.5t13 -46.5q0 -33 -9.5 -63.5t-25.5 -53t-37.5 -36t-45.5 -13.5q-35 0 -65 9.5t-52.5 25.5t-35.5 37.5t-13 45.5z" />
<glyph unicode="&#x1eba;" horiz-adv-x="1203" d="M70 118l143 34v1049l-143 34l20 118h987l24 -320l-133 -22l-83 193h-372v-422h287l34 112l119 -20v-334l-119 -20l-34 113h-287v-484h401l83 193l134 -23l-24 -319h-1017zM423 1677v133q29 15 64 27q30 11 70 19.5t87 8.5q94 0 146 -35t52 -95q0 -33 -8.5 -57.5 t-24.5 -44.5t-39 -37t-52 -33q-40 -23 -56 -36.5t-16 -27.5q0 -12 5 -22q2 -6 5 -11l-102 -27q-10 13 -18 28q-7 13 -12 28.5t-5 32.5q0 15 3 29.5t12 29.5t24.5 30t40.5 32q41 28 54 45t13 37q0 17 -10.5 28.5t-35.5 11.5q-14 0 -25.5 -3t-20.5 -6q-11 -4 -19 -9l-24 -81z " />
<glyph unicode="&#x1ebb;" horiz-adv-x="1078" d="M64 414v83q0 288 144 449t400 161q228 0 326 -108.5t98 -355.5v-130h-678v-66q0 -160 77.5 -244.5t234.5 -84.5q68 0 158 20t155 45v-116q-73 -37 -188 -63t-234 -26q-237 0 -365 112t-128 324zM357 653h385q0 175 -40 244.5t-136 69.5q-42 0 -84.5 -10t-79.5 -29 q-16 -58 -28.5 -132t-16.5 -143zM411 1482v133q29 15 64 27q30 11 70 19.5t87 8.5q94 0 146 -35t52 -95q0 -33 -8.5 -57.5t-24.5 -44.5t-39 -37t-52 -33q-40 -23 -56 -36.5t-16 -27.5q0 -12 5 -22q2 -6 5 -11l-102 -27q-10 13 -18 28q-7 13 -12 28.5t-5 32.5q0 15 3 29.5 t12 29.5t24.5 30t40.5 32q41 28 54 45t13 37q0 17 -10.5 28.5t-35.5 11.5q-14 0 -25.5 -3t-20.5 -6q-11 -4 -19 -9l-24 -81z" />
<glyph unicode="&#x1ebc;" horiz-adv-x="1203" d="M70 118l143 34v1049l-143 34l20 118h987l24 -320l-133 -22l-83 193h-372v-422h287l34 112l119 -20v-334l-119 -20l-34 113h-287v-484h401l83 193l134 -23l-24 -319h-1017zM122 1473v50q0 127 67 190.5t183 63.5q66 0 133 -20.5t128.5 -45.5t113 -45.5t86.5 -20.5 q43 0 68 29.5t25 90.5l137 10v-72q0 -119 -61.5 -186.5t-176.5 -67.5q-58 0 -127 20.5t-135.5 45.5t-123.5 45.5t-91 20.5q-23 0 -40.5 -4t-30.5 -15t-19.5 -30t-6.5 -49z" />
<glyph unicode="&#x1ebd;" horiz-adv-x="1078" d="M64 414v83q0 288 144 449t400 161q228 0 326 -108.5t98 -355.5v-130h-678v-66q0 -160 77.5 -244.5t234.5 -84.5q68 0 158 20t155 45v-116q-73 -37 -188 -63t-234 -26q-237 0 -365 112t-128 324zM357 653h385q0 175 -40 244.5t-136 69.5q-42 0 -84.5 -10t-79.5 -29 q-16 -58 -28.5 -132t-16.5 -143zM180 1257v50q0 127 61.5 190.5t168.5 63.5q57 0 115.5 -20.5t111.5 -45.5t98.5 -45.5t75.5 -20.5q34 0 53.5 29.5t19.5 90.5l137 10v-72q0 -119 -56 -186.5t-162 -67.5q-51 0 -111.5 20.5t-118.5 45.5t-108 45.5t-79 20.5q-36 0 -56.5 -19 t-20.5 -79z" />
<glyph unicode="&#x1ebe;" horiz-adv-x="1203" d="M70 118l143 34v1049l-143 34l20 118h987l24 -320l-133 -22l-83 193h-372v-422h287l34 112l119 -20v-334l-119 -20l-34 113h-287v-484h401l83 193l134 -23l-24 -319h-1017zM239 1470v32l263 292l223 -10l253 -282v-32l-175 -10l-213 171l-206 -171zM859 1702v32l191 182 l222 -10v-66l-278 -149z" />
<glyph unicode="&#x1ebf;" horiz-adv-x="1078" d="M64 414v83q0 288 144 449t400 161q228 0 326 -108.5t98 -355.5v-130h-678v-66q0 -160 77.5 -244.5t234.5 -84.5q68 0 158 20t155 45v-116q-73 -37 -188 -63t-234 -26q-237 0 -365 112t-128 324zM357 653h385q0 175 -40 244.5t-136 69.5q-42 0 -84.5 -10t-79.5 -29 q-16 -58 -28.5 -132t-16.5 -143zM257 1275v32l223 373l243 -10l223 -363v-32l-175 -10l-188 219l-181 -219zM863 1540v32l129 237l212 -10v-66l-216 -203z" />
<glyph unicode="&#x1ec0;" horiz-adv-x="1203" d="M70 118l143 34v1049l-143 34l20 118h987l24 -320l-133 -22l-83 193h-372v-422h287l34 112l119 -20v-334l-119 -20l-34 113h-287v-484h401l83 193l134 -23l-24 -319h-1017zM-53 1840v66l222 10l191 -182v-32l-135 -11zM239 1470v32l263 292l223 -10l253 -282v-32l-175 -10 l-213 171l-206 -171z" />
<glyph unicode="&#x1ec1;" horiz-adv-x="1078" d="M64 414v83q0 288 144 449t400 161q228 0 326 -108.5t98 -355.5v-130h-678v-66q0 -160 77.5 -244.5t234.5 -84.5q68 0 158 20t155 45v-116q-73 -37 -188 -63t-234 -26q-237 0 -365 112t-128 324zM357 653h385q0 175 -40 244.5t-136 69.5q-42 0 -84.5 -10t-79.5 -29 q-16 -58 -28.5 -132t-16.5 -143zM-32 1733v66l225 10l143 -237v-32l-138 -10zM257 1275v32l223 373l243 -10l223 -363v-32l-175 -10l-188 219l-181 -219z" />
<glyph unicode="&#x1ec2;" horiz-adv-x="1203" d="M70 118l143 34v1049l-143 34l20 118h987l24 -320l-133 -22l-83 193h-372v-422h287l34 112l119 -20v-334l-119 -20l-34 113h-287v-484h401l83 193l134 -23l-24 -319h-1017zM239 1470v32l263 292l223 -10l253 -282v-32l-175 -10l-213 171l-206 -171zM797 1913v133 q29 15 64 27q30 11 70 19.5t87 8.5q94 0 146 -35t52 -95q0 -33 -8.5 -57.5t-24.5 -44.5t-39 -37t-52 -33q-40 -23 -56 -36.5t-16 -27.5q0 -12 5 -22q2 -6 5 -11l-102 -27q-10 13 -18 28q-7 13 -12 28.5t-5 32.5q0 15 3 29.5t12 29.5t24.5 30t40.5 32q41 28 54 45t13 37 q0 17 -10.5 28.5t-35.5 11.5q-14 0 -25.5 -3t-20.5 -6q-11 -4 -19 -9l-24 -81z" />
<glyph unicode="&#x1ec3;" horiz-adv-x="1078" d="M64 414v83q0 288 144 449t400 161q228 0 326 -108.5t98 -355.5v-130h-678v-66q0 -160 77.5 -244.5t234.5 -84.5q68 0 158 20t155 45v-116q-73 -37 -188 -63t-234 -26q-237 0 -365 112t-128 324zM357 653h385q0 175 -40 244.5t-136 69.5q-42 0 -84.5 -10t-79.5 -29 q-16 -58 -28.5 -132t-16.5 -143zM257 1275v32l223 373l243 -10l223 -363v-32l-175 -10l-188 219l-181 -219zM772 1751v133q29 15 64 27q30 11 70 19.5t87 8.5q94 0 146 -35t52 -95q0 -33 -8.5 -57.5t-24.5 -44.5t-39 -37t-52 -33q-40 -23 -56 -36.5t-16 -27.5q0 -12 5 -22 q2 -6 5 -11l-102 -27q-10 13 -18 28q-7 13 -12 28.5t-5 32.5q0 15 3 29.5t12 29.5t24.5 30t40.5 32q41 28 54 45t13 37q0 17 -10.5 28.5t-35.5 11.5q-14 0 -25.5 -3t-20.5 -6q-11 -4 -19 -9l-24 -81z" />
<glyph unicode="&#x1ec4;" horiz-adv-x="1203" d="M70 118l143 34v1049l-143 34l20 118h987l24 -320l-133 -22l-83 193h-372v-422h287l34 112l119 -20v-334l-119 -20l-34 113h-287v-484h401l83 193l134 -23l-24 -319h-1017zM137 1882v50q0 127 67 190.5t183 63.5q66 0 133 -20.5t128.5 -45.5t113 -45.5t86.5 -20.5 q43 0 68 29.5t25 90.5l137 10v-72q0 -119 -61.5 -186.5t-176.5 -67.5q-58 0 -127 20.5t-135.5 45.5t-123.5 45.5t-91 20.5q-23 0 -40.5 -4t-30.5 -15t-19.5 -30t-6.5 -49zM239 1470v32l263 292l223 -10l253 -282v-32l-175 -10l-213 171l-206 -171z" />
<glyph unicode="&#x1ec5;" horiz-adv-x="1078" d="M64 414v83q0 288 144 449t400 161q228 0 326 -108.5t98 -355.5v-130h-678v-66q0 -160 77.5 -244.5t234.5 -84.5q68 0 158 20t155 45v-116q-73 -37 -188 -63t-234 -26q-237 0 -365 112t-128 324zM357 653h385q0 175 -40 244.5t-136 69.5q-42 0 -84.5 -10t-79.5 -29 q-16 -58 -28.5 -132t-16.5 -143zM172 1770v50q0 127 61.5 190.5t168.5 63.5q57 0 115.5 -20.5t111.5 -45.5t98.5 -45.5t75.5 -20.5q34 0 53.5 29.5t19.5 90.5l137 10v-72q0 -119 -56 -186.5t-162 -67.5q-51 0 -111.5 20.5t-118.5 45.5t-108 45.5t-79 20.5q-36 0 -56.5 -19 t-20.5 -79zM257 1275v32l223 373l243 -10l223 -363v-32l-175 -10l-188 219l-181 -219z" />
<glyph unicode="&#x1ec6;" horiz-adv-x="1203" d="M70 118l143 34v1049l-143 34l20 118h987l24 -320l-133 -22l-83 193h-372v-422h287l34 112l119 -20v-334l-119 -20l-34 113h-287v-484h401l83 193l134 -23l-24 -319h-1017zM467 -339q0 34 9.5 64t25.5 53t37.5 36.5t45.5 13.5q34 0 64.5 -9.5t53 -25.5t35.5 -37.5 t13 -46.5q0 -33 -9.5 -63.5t-25.5 -53t-37.5 -36t-45.5 -13.5q-35 0 -65 9.5t-52.5 25.5t-35.5 37.5t-13 45.5zM232 1470v32l263 292l223 -10l253 -282v-32l-175 -10l-213 171l-206 -171z" />
<glyph unicode="&#x1ec7;" horiz-adv-x="1078" d="M64 414v83q0 288 144 449t400 161q228 0 326 -108.5t98 -355.5v-130h-678v-66q0 -160 77.5 -244.5t234.5 -84.5q68 0 158 20t155 45v-116q-73 -37 -188 -63t-234 -26q-237 0 -365 112t-128 324zM357 653h385q0 175 -40 244.5t-136 69.5q-42 0 -84.5 -10t-79.5 -29 q-16 -58 -28.5 -132t-16.5 -143zM440 -339q0 34 9.5 64t25.5 53t37.5 36.5t45.5 13.5q34 0 64.5 -9.5t53 -25.5t35.5 -37.5t13 -46.5q0 -33 -9.5 -63.5t-25.5 -53t-37.5 -36t-45.5 -13.5q-35 0 -65 9.5t-52.5 25.5t-35.5 37.5t-13 45.5zM256 1275v32l223 373l243 -10 l223 -363v-32l-175 -10l-188 219l-181 -219z" />
<glyph unicode="&#x1ec8;" horiz-adv-x="717" d="M68 118l143 34v1049l-143 34l20 118h545l20 -118l-142 -34v-1049l142 -34l-20 -118h-545zM184 1677v133q29 15 64 27q30 11 70 19.5t87 8.5q94 0 146 -35t52 -95q0 -33 -8.5 -57.5t-24.5 -44.5t-39 -37t-52 -33q-40 -23 -56 -36.5t-16 -27.5q0 -12 5 -22q2 -6 5 -11 l-102 -27q-10 13 -18 28q-7 13 -12 28.5t-5 32.5q0 15 3 29.5t12 29.5t24.5 30t40.5 32q41 28 54 45t13 37q0 17 -10.5 28.5t-35.5 11.5q-14 0 -25.5 -3t-20.5 -6q-11 -4 -19 -9l-24 -81z" />
</font>
</defs>
</svg>
