<?xml version="1.0" standalone="no"?>
<!DOCTYPE svg PUBLIC "-//W3C//DTD SVG 1.1//EN" "http://www.w3.org/Graphics/SVG/1.1/DTD/svg11.dtd" >
<svg xmlns="http://www.w3.org/2000/svg">
<metadata>
This is a custom SVG webfont generated by Font Squirrel.
Copyright   : Copyright c 2011 JM Sole infojmsolecl with Reserved Font Name Noticia Text
Designer    : JM Sole
Foundry     : JM Sole
</metadata>
<defs>
<font id="NoticiaTextItalic" horiz-adv-x="1161" >
<font-face units-per-em="2048" ascent="1638" descent="-410" />
<missing-glyph horiz-adv-x="550" />
<glyph unicode=" "  horiz-adv-x="550" />
<glyph unicode="&#x09;" horiz-adv-x="550" />
<glyph unicode="&#xa0;" horiz-adv-x="550" />
<glyph unicode="!" horiz-adv-x="619" d="M120 79q0 34 8 65.5t21.5 55t32 37.5t39.5 14q36 0 67 -8t54.5 -22.5t36.5 -33t13 -39.5q0 -34 -8 -64.5t-21.5 -54t-32.5 -37.5t-40 -14q-36 0 -67 8t-54 21.5t-36 32t-13 39.5zM212 370l126 1170l200 22l17 -22l-202 -1170h-141z" />
<glyph unicode="&#x22;" horiz-adv-x="737" d="M150 1157l53 383h196l-5 -42l-111 -341h-133zM418 1157l53 383h196l-5 -42l-111 -341h-133z" />
<glyph unicode="#" horiz-adv-x="1341" d="M40 321l30 107h234l140 496h-253l29 107h255l91 322h155l-3 -20l-86 -302h287l91 322h155l-3 -20l-86 -302h225l-29 -107h-226l-140 -496h245l-30 -107h-245l-91 -321h-155l3 20l85 301h-286l-91 -321h-155l3 20l85 301h-234zM462 428h286l140 496h-286z" />
<glyph unicode="$" horiz-adv-x="1083" d="M60 41l16 259h100l45 -199q45 -12 98 -18q48 -6 102 -6l77 545l-9 6q-207 132 -266 213.5t-44 192.5q22 155 162 248q108 71 262 88l27 192h125l-26 -187q77 -3 149 -14q87 -14 145 -38l-17 -270h-88l-45 201q-36 9 -90 15q-34 4 -68 6l-72 -508q4 -3 8 -5 q173 -112 246.5 -203.5t55.5 -213.5q-23 -165 -166 -266q-106 -76 -254 -94l-29 -211h-125l28 204q-97 2 -184 17q-97 16 -163 46zM376 1086q-11 -76 42 -142q33 -39 111 -98l60 425q-22 -2 -43 -6q-64 -10 -114 -27q-23 -40 -36.5 -77.5t-19.5 -74.5zM547 84l19 3 q67 11 119 28q20 28 40.5 75t27.5 91q13 83 -37 157q-30 44 -105 103z" />
<glyph unicode="%" horiz-adv-x="1630" d="M114 1074q9 62 41.5 117t80.5 96t107.5 64.5t124.5 23.5q64 0 117.5 -23.5t90 -64.5t53 -96t7.5 -117q-9 -63 -41 -117.5t-80 -95.5t-108 -64.5t-124 -23.5q-65 0 -118.5 23.5t-90 64.5t-53 95.5t-7.5 117.5zM139 0l3 20l1154 1333h175l-3 -20l-1154 -1333h-175z M265 1074q-6 -49 2.5 -87t27.5 -64.5t46.5 -40t59.5 -13.5t62.5 13.5t55.5 40t42.5 64.5t23.5 87t-2 87t-27 64t-46.5 40t-59.5 14t-62.5 -14t-55.5 -40t-43 -64t-24 -87zM874 279q9 62 41 117t80 96t107.5 64.5t124.5 23.5q64 0 117.5 -23.5t90.5 -64.5t53.5 -96t7.5 -117 q-9 -63 -41.5 -117.5t-80.5 -95.5t-108 -64.5t-124 -23.5q-65 0 -118.5 23.5t-90 64.5t-52.5 95.5t-7 117.5zM1025 279q-6 -49 2 -87t27 -64.5t46.5 -40t59.5 -13.5t62.5 13.5t55.5 40t43 64.5t24 87t-2.5 87t-27.5 64t-46.5 40t-59.5 14t-62.5 -14t-55.5 -40t-42.5 -64 t-23.5 -87z" />
<glyph unicode="&#x26;" horiz-adv-x="1468" d="M24 272l2 14q10 69 44.5 127t83.5 107t108.5 89t118.5 73q-27 48 -48.5 95.5t-36 91.5t-20 84.5t-0.5 75.5l3 21q9 61 44 119.5t94.5 104t142.5 73.5t187 28q86 0 147.5 -21t99 -56t52.5 -80.5t8 -94.5l-2 -16q-9 -63 -46 -116.5t-96.5 -103t-139.5 -98t-175 -101.5 q81 -121 162 -228t162 -190q43 52 70.5 116t37.5 140l8 57l-132 33l14 68l306 22l-27 -187q-13 -93 -60.5 -178t-125.5 -155q63 -52 124.5 -80.5t121.5 -28.5q45 0 83 5t66 12q33 7 59 17l-3 -66q-30 -19 -68 -34q-33 -13 -79 -23t-103 -10q-81 0 -160.5 32t-157.5 89 q-95 -57 -211.5 -89t-250.5 -32q-104 0 -184.5 17.5t-133.5 53.5t-76.5 91.5t-12.5 131.5zM218 295q-6 -48 8 -88.5t46.5 -69t82 -44.5t114.5 -16q97 0 182.5 23.5t155.5 68.5q-97 87 -189 200t-182 243q-41 -24 -77 -54.5t-64.5 -68t-48 -81.5t-26.5 -95zM466.5 978.5 q2.5 -33.5 13 -68t28.5 -71t42 -77.5q61 34 114.5 71t94.5 77t66.5 82t31.5 86l3 22q4 37 -3.5 69t-27.5 56t-51 37.5t-73 13.5q-32 0 -57.5 -3t-44.5 -7q-22 -4 -39 -10q-23 -21 -41 -50q-17 -25 -32 -60.5t-20 -81.5l-2 -17q-5 -35 -2.5 -68.5z" />
<glyph unicode="'" horiz-adv-x="409" d="M70 1157l53 383h196l-5 -42l-111 -341h-133z" />
<glyph unicode="(" horiz-adv-x="709" d="M111 311q-2 110 15 232q17 121 50 231.5t75.5 207.5t91 180.5t96.5 152.5q113 161 245 286l85 -60q-107 -120 -199 -274q-39 -66 -79 -145t-75 -170.5t-63 -194t-44 -214.5q-16 -113 -17 -215.5t9 -193.5t27.5 -170t38.5 -145q48 -154 121 -275l-101 -60 q-97 124 -165 286q-29 69 -54 152.5t-40 181t-17 207.5z" />
<glyph unicode=")" horiz-adv-x="698" d="M-90 -456q106 121 198 275q39 66 79 145t75 170t63.5 193.5t44.5 215.5q16 112 16.5 214.5t-9.5 194t-27.5 170.5t-38.5 145q-49 154 -121 274l101 60q97 -125 165 -286q29 -69 54 -152.5t40 -180.5t17.5 -207.5t-14.5 -231.5q-17 -122 -50.5 -232t-76 -207.5t-91 -181 t-96.5 -152.5q-113 -162 -244 -286z" />
<glyph unicode="*" horiz-adv-x="937" d="M160 1058l21 12l270 112l-240 112l-18 12l94 132l20 -12l202 -165l8 277l3 24h153l-3 -24l-70 -277l248 165l22 12l57 -132l-22 -12l-270 -112l240 -112l18 -12l-94 -132l-20 12l-202 165l-8 -277l-3 -24h-153l3 24l70 277l-248 -165l-22 -12z" />
<glyph unicode="+" horiz-adv-x="1043" d="M160 520v147h298v318h147v-318h298v-147h-298v-318h-147v318h-298z" />
<glyph unicode="," horiz-adv-x="639" d="M90 -289q97 73 137.5 128.5t40.5 96.5q0 20 -16 31t-39 17q-45 13 -75 38t-30 57t8 61.5t22 52.5t32 37t39 14q39 0 78.5 -12t66.5 -40q9 -9 17 -22t14 -31t10 -42.5t4 -57.5q0 -60 -11.5 -110.5t-39 -98t-74.5 -95t-119 -101.5z" />
<glyph unicode="-" horiz-adv-x="1014" d="M160 520l21 147h693l-21 -147h-693z" />
<glyph unicode="." horiz-adv-x="605" d="M90 71q0 35 7 66.5t19.5 55t29 37.5t36.5 14q36 0 67.5 -7.5t55 -20.5t37 -30.5t13.5 -36.5q0 -36 -7 -67t-20 -54t-30 -36.5t-37 -13.5q-36 0 -67 7t-54 20t-36.5 29.5t-13.5 36.5z" />
<glyph unicode="/" horiz-adv-x="879" d="M-50 -295l2 20l822 1815h165l-2 -20l-823 -1815h-164z" />
<glyph unicode="0" horiz-adv-x="1176" d="M86.5 267.5q-16.5 102.5 4.5 249.5l15 105q27 188 79.5 329t127.5 235.5t171.5 141.5t211.5 47q114 0 196.5 -30t132 -95t65 -167.5t-5.5 -247.5l-15 -104q-29 -197 -80.5 -339t-127 -234t-175.5 -136t-224 -44q-104 0 -182.5 29t-127.5 93.5t-65.5 167zM280.5 339.5 q6.5 -94.5 34.5 -153t76.5 -84t113.5 -25.5q67 0 123.5 27.5t101 93t78 174t55.5 270.5l19 140q21 154 12.5 250.5t-39 150.5t-79.5 73.5t-108 19.5q-72 0 -129 -30.5t-100.5 -98t-74.5 -174.5t-52 -261l-19 -140q-19 -138 -12.5 -232.5z" />
<glyph unicode="1" horiz-adv-x="735" d="M92 85l141 20l156 1111h-206v59l305 78h111l-176 -1248l141 -20l-17 -85h-447z" />
<glyph unicode="2" horiz-adv-x="991" d="M-8 0v115q156 147 289.5 274t233.5 238.5t161 211.5t73 195q16 123 -39 182.5t-165 59.5q-44 0 -84.5 -7.5t-71.5 -16.5q-37 -11 -68 -23l-85 -220h-87l36 261q51 29 114 52q54 20 127 36.5t161 16.5q91 0 162.5 -19t118 -59t66.5 -101t8 -146q-10 -70 -43 -142 t-83.5 -145t-117 -147.5t-143 -151t-161 -155t-171.5 -159.5l3 -10h457l109 213l81 -13l-71 -340h-810z" />
<glyph unicode="3" horiz-adv-x="996" d="M2 72l37 258h86l25 -211q30 -12 65 -21q30 -8 69 -14.5t83 -6.5q61 0 112 16t90 51t65 90.5t36 134.5q10 80 -2.5 137.5t-44 94t-79.5 54t-109 17.5h-91l18 99h93q48 0 91.5 17t78 51.5t58.5 86t33 119.5q8 64 -4.5 108.5t-39.5 71.5t-66 39t-85 12q-38 0 -72.5 -5 t-61.5 -11q-32 -7 -60 -16l-80 -211h-83l37 268q49 20 108 37q50 14 116.5 25.5t141.5 11.5q190 0 276.5 -83t63.5 -241q-9 -66 -34 -118t-58.5 -91t-71.5 -66t-74 -43q45 -14 84.5 -42.5t66.5 -71.5t39 -100.5t2 -129.5q-14 -101 -56.5 -178t-109 -128.5t-154.5 -78 t-193 -26.5q-73 0 -136 14.5t-110 32.5q-55 20 -100 47z" />
<glyph unicode="4" horiz-adv-x="1006" d="M12 408l711 945h174l-683 -892l4 -10h361l55 396h190l-56 -396h118l8 -85l-141 -20l-34 -241l142 -20l-17 -85h-447l-8 85l139 20l33 247h-538z" />
<glyph unicode="5" horiz-adv-x="1046" d="M28 66l36 257h96l34 -216q27 -9 60 -15q29 -6 68 -10.5t86 -4.5q59 0 113.5 19.5t98 58.5t73.5 97.5t40 136.5q11 82 -3.5 140.5t-48 96.5t-84.5 56t-114 18q-60 0 -107 -8.5t-81 -18.5q-40 -11 -71 -26l-89 60l128 646h713l-14 -140h-584l-93 -450q17 7 43 15t57.5 14.5 t66 10.5t69.5 4q100 0 181.5 -21.5t136 -69.5t78.5 -124t9 -184q-15 -105 -61 -185.5t-116 -134.5t-159 -82t-191 -28q-84 0 -152 13.5t-117 30.5q-57 19 -102 44z" />
<glyph unicode="6" horiz-adv-x="1049" d="M77.5 296q-11.5 97 4.5 212l9 64q27 189 98 338.5t171.5 252.5t222.5 157.5t249 54.5q34 0 63.5 -3.5t50.5 -7.5q25 -5 45 -11l-7 -86q-22 2 -47 4q-21 2 -49 3.5t-57 1.5q-91 0 -177.5 -41.5t-158 -119t-122.5 -187t-72 -244.5l9 -4q25 17 57.5 33.5t71 29.5t83.5 21 t97 8q88 0 155 -26t109.5 -75t58 -119.5t2.5 -158.5q-12 -91 -50 -167.5t-99.5 -131.5t-146 -85.5t-190.5 -30.5q-120 0 -200 40t-124.5 110.5t-56 167.5zM279 521q-29 -218 26.5 -331t177.5 -113t184.5 75.5t85.5 224.5q11 72 0.5 127t-39.5 92.5t-74 57t-103 19.5 q-50 0 -94.5 -10t-78.5 -22q-40 -14 -73 -31z" />
<glyph unicode="7" horiz-adv-x="911" d="M80 988l52 365h865v-63l-683 -1290h-169l663 1203l-4 10h-548l-82 -225h-94z" />
<glyph unicode="8" horiz-adv-x="1031" d="M44 304q10 67 40 124.5t74.5 104t99.5 82.5t115 59q-48 27 -85 60t-60.5 74.5t-32 93t0.5 116.5q10 72 45.5 137t93.5 113.5t137 77.5t177 29q83 0 146.5 -18t104 -54t57 -90.5t6.5 -127.5q-9 -60 -37.5 -111.5t-69.5 -94.5t-90.5 -76.5t-100.5 -56.5q66 -30 117 -67 t83 -83.5t44.5 -104t2.5 -129.5q-12 -82 -51.5 -152.5t-105 -122t-155.5 -80.5t-201 -29q-92 0 -163 20.5t-117.5 61t-66.5 102t-8 142.5zM240 346q-17 -128 34.5 -198.5t159.5 -70.5q61 0 110 18.5t85 50t58.5 74.5t28.5 93q7 52 -1.5 95.5t-34.5 80.5t-70.5 68.5 t-110.5 58.5l-46 19q-36 -19 -71 -45.5t-64 -62.5t-50 -81t-28 -100zM387 964.5q5 -40.5 27 -73.5t63 -60t106 -51q37 19 68 44.5t55 60t40.5 78t23.5 98.5q15 112 -27.5 163.5t-126.5 51.5q-48 0 -87.5 -18.5t-69 -49.5t-47.5 -70.5t-23 -81.5q-7 -51 -2 -91.5z" />
<glyph unicode="9" horiz-adv-x="1055" d="M48 1l6 86q22 -3 48 -5q22 -2 50 -3.5t58 -1.5q106 0 198.5 42t164 116.5t118.5 177t63 224.5l-10 4q-22 -14 -53.5 -28.5t-69.5 -26.5t-82 -20t-92 -8q-81 0 -146.5 28.5t-108.5 80.5t-60.5 125.5t-3.5 163.5q15 95 53.5 172.5t100 132t145.5 84.5t191 30 q115 0 191.5 -34.5t119 -102t52.5 -166.5t-8 -228l-11 -78q-29 -204 -96.5 -352.5t-164 -245t-218 -143.5t-256.5 -47q-35 0 -67 3t-57 8q-29 5 -55 12zM320 969q-10 -77 0.5 -135t38 -97.5t70 -59.5t95.5 -20q45 0 88 8t77 19q40 11 76 27l11 87q15 114 13.5 203t-22.5 150 t-64 93t-110 32q-65 0 -112 -21t-79.5 -61t-52.5 -96.5t-29 -128.5z" />
<glyph unicode=":" horiz-adv-x="683" d="M110 71q0 35 7 66.5t19.5 55t29 37.5t36.5 14q36 0 67.5 -7.5t55 -20.5t37 -30.5t13.5 -36.5q0 -36 -7 -67t-20 -54t-30 -36.5t-37 -13.5q-36 0 -67 7t-54 20t-36.5 29.5t-13.5 36.5zM218 837q0 35 7 66.5t19.5 55t29 37.5t36.5 14q36 0 67.5 -7.5t55 -20.5t37 -30.5 t13.5 -36.5q0 -36 -7 -67t-20 -54t-30 -36.5t-37 -13.5q-36 0 -67 7t-54 20t-36.5 29.5t-13.5 36.5z" />
<glyph unicode=";" horiz-adv-x="702" d="M110 -289q97 73 137.5 128.5t40.5 96.5q0 20 -16 31t-39 17q-45 13 -75 38t-30 57t8 61.5t22 52.5t32 37t39 14q39 0 78.5 -12t66.5 -40q9 -9 17 -22t14 -31t10 -42.5t4 -57.5q0 -60 -11.5 -110.5t-39 -98t-74.5 -95t-119 -101.5zM237 836q0 35 7 66.5t19.5 55t29 37.5 t36.5 14q36 0 67.5 -7.5t55 -20.5t37 -30.5t13.5 -36.5q0 -36 -7 -67t-20 -54t-30 -36.5t-37 -13.5q-36 0 -67 7t-54 20t-36.5 29.5t-13.5 36.5z" />
<glyph unicode="&#x3c;" horiz-adv-x="1148" d="M140 555v96l798 374h30v-139l-592 -278v-10l592 -277v-140h-30z" />
<glyph unicode="=" horiz-adv-x="1102" d="M160 307v157h802v-157h-802zM160 770v157h802v-157h-802z" />
<glyph unicode="&#x3e;" horiz-adv-x="1148" d="M180 181v140l592 277v10l-592 278v139h30l798 -374v-96l-798 -374h-30z" />
<glyph unicode="?" horiz-adv-x="1083" d="M180 1202l39 277q50 23 112 41q54 16 127 29t163 13q98 0 171.5 -18.5t120.5 -54.5t66.5 -88t10.5 -119q-8 -57 -25.5 -103t-49.5 -89.5t-81 -89.5t-120 -104l-170 -138q-71 -56 -105.5 -97.5t-39.5 -84.5q-6 -45 15.5 -67.5t65.5 -22.5q28 0 54 4.5t46 10.5q23 7 43 16 l-14 -91q-23 -14 -53 -25q-26 -10 -60.5 -17.5t-76.5 -7.5q-45 0 -84.5 12t-67.5 37t-41.5 62t-6.5 88q5 36 19.5 71t40.5 71.5t65 75.5t94 84l171 140q51 42 87 74.5t59.5 62t36 58t17.5 61.5q5 37 -4.5 69.5t-37 57t-74 38.5t-116.5 14q-48 0 -86.5 -5t-64.5 -11 q-32 -7 -55 -16l-101 -235zM202 79q0 34 8 65.5t21.5 55t32 37.5t39.5 14q36 0 67 -8t54.5 -22.5t36.5 -33t13 -39.5q0 -34 -8 -64.5t-21.5 -54t-32.5 -37.5t-40 -14q-36 0 -67 8t-54 21.5t-36 32t-13 39.5z" />
<glyph unicode="@" horiz-adv-x="1863" d="M116 350q16 151 62.5 285.5t119 248.5t167 205t207 154.5t239.5 97.5t263 34q168 0 295 -45t209.5 -127t118.5 -197.5t21 -255.5q-13 -123 -45.5 -217.5t-77.5 -165.5t-99.5 -120t-110.5 -80t-110.5 -46.5t-100.5 -18.5l-147 -14l-34 78l26 190q-6 -11 -21 -35t-38 -54 t-54 -61.5t-69 -57.5t-82.5 -43t-94.5 -17q-58 0 -101.5 19t-70 60.5t-35 107.5t3.5 160l12 93q15 112 53 209.5t98 170t142.5 114t185.5 41.5q61 0 121 -12.5t109 -26.5q56 -18 109 -39l-112 -796q52 4 108 27t106.5 80.5t89 157t55.5 256.5q30 281 -97 413t-406 132 q-107 0 -206.5 -31.5t-187.5 -89t-162.5 -137.5t-131.5 -177.5t-94 -209t-50 -230.5q-11 -108 3 -192.5t48 -148t87 -107.5t119 -71t143 -39t161 -12q105 0 197 17t161 38q81 25 149 56l-9 -86q-76 -41 -164 -73q-76 -27 -175.5 -49.5t-211.5 -22.5q-109 0 -206 14 t-178.5 45.5t-144 82.5t-103 124.5t-56.5 171t-3 222.5zM745.5 281q18.5 -85 89.5 -85q37 0 72.5 19t67.5 48t60 64t49.5 67t35 56.5t17.5 32.5l64 463q-21 9 -47 16q-22 6 -51 11.5t-61 5.5q-35 0 -66 -8t-55 -17q-28 -11 -52 -25q-24 -38 -45 -93q-19 -47 -38 -115.5 t-32 -161.5l-5 -36q-22 -157 -3.5 -242z" />
<glyph unicode="A" d="M-124 85l111 20l622 1248h149l261 -1248l112 -20l-17 -85h-417l-8 85l141 20l-64 321h-476l-157 -321l142 -20l-17 -85h-374zM338 525h408l-115 579h-10z" />
<glyph unicode="B" horiz-adv-x="1142" d="M8 85l141 20l161 1143l-141 20l17 85h483q217 -1 314 -79q78 -63 79 -182q0 -28 -5 -60q-15 -106 -80 -186t-161 -122v-16q112 -27 169 -111q44 -65 44 -150q0 -25 -4 -52q-26 -184 -152.5 -289.5t-319.5 -105.5h-537zM338 99h142q87 0 164 13t131 36q16 40 31.5 96.5 t27.5 139.5q3 25 3 47q1 93 -57 151q-72 70 -212 71h-152zM430 752h133q55 0 117 10t116 29q20 39 40 100t28 122q4 26 4 50q0 80 -42 128q-54 63 -215 63h-110z" />
<glyph unicode="C" horiz-adv-x="1163" d="M69 515l12 89q52 380 233 575.5t481 195.5q101 0 194.5 -15.5t159.5 -43.5l-17 -270h-88l-45 203q-42 12 -107 19.5t-142 7.5q-79 0 -158 -23.5t-144 -64.5q-58 -96 -101.5 -226t-64.5 -279l-18 -133q-7 -53 -7 -100q1 -154 77 -249q100 -124 300 -124q90 0 189 27 t195 77l-15 -76q-95 -57 -213.5 -92t-233.5 -35q-283 0 -403 136q-92 105 -92 286q0 54 8 115z" />
<glyph unicode="D" horiz-adv-x="1335" d="M8 85l141 20l161 1143l-141 20l17 85h546q300 0 431 -153q100 -117 100 -321q0 -64 -10 -137l-12 -88q-44 -310 -218.5 -482t-441.5 -172h-565zM338 99h216q74 0 148.5 16t135.5 43q68 69 127 187.5t82 276.5l13 94q9 68 9 128q-1 168 -73 270q-98 140 -322 140h-173z " />
<glyph unicode="E" horiz-adv-x="1165" d="M2 85l141 20l161 1143l-141 20l17 85h943l-19 -300h-86l-40 201h-483l-70 -497h386l40 137l83 -20l-52 -355l-87 -5v144h-384l-79 -559h511l105 203l80 -13l-66 -289h-952z" />
<glyph unicode="F" horiz-adv-x="1035" d="M8 85l141 20l161 1143l-141 20l17 85h873l-19 -300h-86l-40 201h-413l-70 -497h316l40 137l83 -20l-52 -355l-87 -5v144h-314l-78 -553l191 -20l-17 -85h-497z" />
<glyph unicode="G" horiz-adv-x="1275" d="M71 505l13 89q55 378 240 579.5t482 201.5q100 0 191.5 -14.5t163.5 -42.5l-17 -270h-88l-45 201q-53 13 -117.5 20t-128.5 7q-81 0 -163.5 -24t-149.5 -64q-59 -98 -101.5 -223t-64.5 -282l-18 -133q-6 -48 -6 -92q0 -161 84 -258q108 -123 270 -123q48 0 100 9.5 t100 25.5l60 429l-141 20l17 85h447l8 -85l-141 -20l-61 -436q-104 -59 -224.5 -93t-232.5 -34q-263 0 -388 135q-97 105 -97 283q0 52 8 109z" />
<glyph unicode="H" horiz-adv-x="1451" d="M4 85l141 20l161 1143l-141 20l17 85h447l8 -85l-141 -20l-68 -480h624l68 480l-141 20l17 85h447l8 -85l-141 -20l-161 -1143l141 -20l-17 -85h-447l-8 85l141 20l79 564h-624l-79 -564l141 -20l-17 -85h-447z" />
<glyph unicode="I" horiz-adv-x="637" d="M4 85l141 20l161 1143l-141 20l17 85h447l8 -85l-141 -20l-161 -1143l141 -20l-17 -85h-447z" />
<glyph unicode="J" horiz-adv-x="890" d="M36 31l16 260h86l46 -204q16 -4 41.5 -7.5t50.5 -3.5q24 0 50.5 5t52.5 16q20 42 39 111.5t32 160.5l123 879l-191 20l17 85h497l8 -85l-141 -20l-128 -912q-24 -174 -120 -266t-256 -92q-58 0 -117 14t-106 39z" />
<glyph unicode="K" horiz-adv-x="1272" d="M4 85l141 20l161 1143l-141 20l17 85h447l8 -85l-141 -20l-84 -594l13 -6l627 600l-109 20l17 85h354l8 -85l-91 -20l-508 -481l383 -662l112 -20l-17 -85h-248l-368 637l-202 -191l-48 -341l141 -20l-17 -85h-447z" />
<glyph unicode="L" horiz-adv-x="976" d="M6 85l141 20l161 1143l-141 20l17 85h477l8 -85l-171 -20l-162 -1149h361l110 213l81 -12l-68 -300h-806z" />
<glyph unicode="M" horiz-adv-x="1868" d="M4 85l141 20l161 1143l-141 20l17 85h429l269 -1042h16l545 1042h419l8 -85l-141 -20l-161 -1143l141 -20l-17 -85h-447l-8 85l141 20l154 1095h-16l-637 -1200h-105l-317 1200h-16l-154 -1095l141 -20l-17 -85h-397z" />
<glyph unicode="N" horiz-adv-x="1524" d="M4 85l141 20l161 1143l-141 20l17 85h426l484 -1217h16l156 1112l-141 20l17 85h398l8 -85l-141 -20l-176 -1248h-287l-484 1218h-16l-157 -1113l141 -20l-17 -85h-397z" />
<glyph unicode="O" horiz-adv-x="1346" d="M80 525l11 79q55 388 229 579.5t461 191.5q276 0 399 -137q93 -104 93 -287q0 -58 -9 -124l-11 -78q-53 -378 -225.5 -574.5t-463.5 -196.5q-279 0 -400 138q-93 105 -93 289q0 56 9 120zM277 570q-8 -59 -8 -111q0 -155 71 -253q95 -130 272 -129q76 0 151 24t134 65 q53 101 93.5 228.5t58.5 255.5l18 133q9 68 9 127q0 150 -60 240q-84 126 -283 126q-73 0 -148 -23.5t-137 -64.5q-56 -108 -96 -235t-57 -250z" />
<glyph unicode="P" horiz-adv-x="1106" d="M8 85l141 20l161 1143l-141 20l17 85h507q225 0 329 -84q84 -68 84 -196q0 -31 -5 -65q-26 -179 -159 -285.5t-319 -106.5h-212l-72 -511l191 -20l-17 -85h-497zM425 715h162q65 0 128 9.5t117 28.5q20 39 40 96.5t29 118.5q5 32 5 61q0 97 -53 153q-68 72 -227 72h-125z " />
<glyph unicode="Q" horiz-adv-x="1356" d="M78 525l11 79q53 377 227.5 574t462.5 197q276 0 399 -137q93 -104 93 -287q0 -58 -9 -124l-11 -78q-32 -225 -106 -385t-190 -255l1 -1q35 -105 64 -154t79 -49q35 0 70.5 6.5t67.5 18.5l-14 -70q-38 -24 -86.5 -39t-97.5 -15q-92 0 -148 40.5t-92 142.5l-9 27 q-105 -38 -228 -38q-280 0 -401 138q-92 105 -92 287q0 57 9 122zM267 474q44 60 109 90.5t146 30.5q160 0 238 -70.5t121 -201.5l41 -119q36 82 72 204.5t53 241.5l19 133q10 71 10 132q0 154 -64 241q-88 120 -281 120q-76 0 -153.5 -23.5t-141.5 -64.5q-46 -96 -85 -223 t-58 -262l-18 -133q-4 -28 -6 -52.5t-2 -43.5zM288 314q4 -19 11 -38q40 -98 124 -148.5t188 -50.5q43 0 80 6t70 16l-43 124q-45 136 -97.5 204.5t-153.5 68.5q-76 0 -123 -38t-55 -98q-2 -14 -2 -26q0 -10 1 -20z" />
<glyph unicode="R" horiz-adv-x="1201" d="M8 85l141 20l161 1143l-141 20l17 85h498q204 0 303 -88q80 -71 80 -197q0 -31 -5 -65q-18 -125 -91.5 -219t-178.5 -137l-8 -19l217 -523l122 -20l-17 -85h-259l-255 616h-181l-72 -511l141 -20l-17 -85h-447zM425 715h125q67 0 133.5 13.5t113.5 35.5q24 42 42 97 t25 108q5 36 5 67q0 96 -46 148q-61 70 -226 70h-96z" />
<glyph unicode="S" horiz-adv-x="1047" d="M32 41l16 259h100l45 -199q45 -12 98 -18t113 -6q68 0 134.5 10.5t118.5 27.5q20 28 40.5 75t27.5 91q3 17 3 34q0 64 -40 123q-50 74 -227 190q-207 132 -266 214q-47 65 -47 148q0 21 3 44q22 155 162 248t358 93q93 0 179.5 -14t144.5 -38l-17 -270h-88l-45 201 q-36 9 -90 15.5t-108 6.5q-65 0 -129 -10.5t-114 -27.5q-23 -40 -36.5 -77.5t-19.5 -74.5q-2 -13 -2 -26q0 -62 44 -116q54 -66 233 -182q173 -112 247 -204q59 -74 59 -166q0 -23 -4 -47q-23 -165 -165.5 -266t-358.5 -101q-109 0 -206 16.5t-163 46.5z" />
<glyph unicode="T" horiz-adv-x="1038" d="M38 1063l56 290h1032l-27 -290h-79l-30 191h-294l-162 -1149l141 -20l-17 -85h-447l-8 85l141 20l162 1149h-305l-75 -191h-88z" />
<glyph unicode="U" horiz-adv-x="1384" d="M132 1268l17 85h447l8 -85l-141 -20l-98 -702q-9 -68 -9 -127q0 -139 53 -223q76 -119 247 -119q78 0 151.5 21.5t123.5 54.5q38 63 71.5 163.5t47.5 204.5l102 727l-141 20l17 85h398l8 -85l-141 -20l-102 -730q-40 -281 -184.5 -410.5t-408.5 -129.5q-253 0 -360 126 q-80 94 -80 264q0 57 9 123l106 757z" />
<glyph unicode="V" horiz-adv-x="1231" d="M58 1268l17 85h417l8 -85l-141 -20l209 -1066h16l508 1066l-142 20l17 85h374l8 -85l-111 -20l-614 -1248h-191l-263 1248z" />
<glyph unicode="W" horiz-adv-x="2028" d="M40 1268l17 85h417l8 -85l-141 -20l200 -1016h16l500 1121h191l176 -1121h16l454 1016l-141 20l17 85h374l8 -85l-111 -20l-569 -1248h-191l-177 1107h-16l-493 -1107h-192l-253 1248z" />
<glyph unicode="X" horiz-adv-x="1253" d="M-60 85l110 20l479 597l-283 546l-112 20l17 85h400l8 -85l-109 -16l224 -429h16l336 429l-113 16l17 85h351l8 -85l-109 -20l-444 -548l309 -595l112 -20l-17 -85h-405l-8 85l114 16l-248 479h-16l-373 -479l114 -16l-17 -85h-353z" />
<glyph unicode="Y" horiz-adv-x="1086" d="M4 1268l17 85h401l8 -85l-111 -16l262 -530h16l394 529l-116 17l17 85h356l8 -85l-111 -20l-504 -672l-66 -471l141 -20l-17 -85h-447l-8 85l141 20l66 473l-335 670z" />
<glyph unicode="Z" horiz-adv-x="1142" d="M14 0v95l867 1145l-3 14h-536l-99 -213l-91 12l68 300h890v-94l-868 -1146l3 -14h577l99 213l90 -12l-67 -300h-930z" />
<glyph unicode="[" horiz-adv-x="696" d="M80 -457l298 2134h358l-13 -96h-192l-272 -1942h191l-13 -96h-357z" />
<glyph unicode="\" horiz-adv-x="840" d="M170 1520l2 20h165l313 -1815l-2 -20h-165z" />
<glyph unicode="]" horiz-adv-x="696" d="M-40 -457l13 96h190l272 1942h-190l13 96h358l-299 -2134h-357z" />
<glyph unicode="^" horiz-adv-x="854" d="M70 1049v30l364 461h96l364 -461v-30h-139l-268 335h-10l-267 -335h-140z" />
<glyph unicode="_" horiz-adv-x="976" d="M-90 -235h1036v-144h-1036v144z" />
<glyph unicode="`" horiz-adv-x="738" d="M200 1594l10 66l176 10l152 -363l-5 -32l-89 -10z" />
<glyph unicode="a" horiz-adv-x="1158" d="M92 373l26 188q37 252 177.5 399t342.5 147q81 0 179.5 -20.5t199.5 -57.5l-129 -924l142 -20l-17 -85l-230 -22l-81 78l26 190q-78 -122 -179 -195t-206 -73q-165 0 -222 95q-38 64 -38 177q0 55 9 123zM281 178q24 -92 123 -92q84 0 175 81t167 206l85 617 q-46 16 -99 24.5t-100 8.5q-55 0 -108.5 -14t-94.5 -36q-40 -66 -72.5 -159.5t-53.5 -221.5l-19 -131q-14 -102 -14 -175q0 -65 11 -108z" />
<glyph unicode="b" horiz-adv-x="1117" d="M100 56l192 1379l-141 20l17 85l230 22l81 -78l-90 -645q82 124 182.5 196t200.5 72q164 0 223 -92q40 -62 40 -177q0 -57 -10 -126l-26 -188q-36 -250 -174.5 -398t-344.5 -148q-82 0 -183 21t-197 57zM285 95q37 -14 91 -23.5t109 -9.5q52 0 109 14t104 36 q43 77 71.5 170.5t45.5 210.5l18 131q15 105 15 179q0 67 -12 109q-26 87 -122 87q-81 0 -173 -79.5t-170 -207.5z" />
<glyph unicode="c" horiz-adv-x="926" d="M90 429l14 93q41 277 188 431t353 154q80 0 153 -13t126 -39l-56 -237l-86 -10v181q-32 14 -73 21t-86 7q-51 0 -100 -14t-85 -35q-54 -78 -91.5 -178.5t-57.5 -227.5l-17 -119q-7 -52 -7 -97q1 -114 45 -182q62 -96 171 -96q64 0 140.5 24.5t142.5 65.5v-86 q-64 -43 -153 -68.5t-184 -25.5q-195 0 -281 111q-64 82 -64 227q0 53 8 113z" />
<glyph unicode="d" d="M92 373l26 188q37 257 176 401.5t344 144.5q49 0 101.5 -7t105.5 -19l49 354l-141 20l17 85l230 22l81 -78l-193 -1379l142 -20l-17 -85l-230 -22l-81 78l26 190q-80 -122 -179.5 -195t-202.5 -73q-170 0 -226 96q-38 65 -37 177q0 55 9 122zM284 167q30 -81 120 -81 q84 0 175.5 81.5t166.5 206.5l86 616q-38 14 -92.5 23.5t-107.5 9.5q-54 0 -108 -14t-95 -36q-40 -65 -75.5 -169t-50.5 -212l-19 -131q-15 -107 -15 -181q0 -73 15 -113z" />
<glyph unicode="e" horiz-adv-x="937" d="M89 429l13 93q37 268 173.5 426.5t338.5 158.5q161 0 234 -73q59 -59 58 -151q0 -23 -3 -48q-22 -159 -139 -251t-290 -92q-61 0 -112 3t-83 7l-8 -59q-7 -54 -8 -100q0 -111 43 -179q60 -96 164 -96q61 0 131 26.5t122 63.5v-86q-55 -41 -135.5 -67.5t-171.5 -26.5 q-190 0 -274 112q-61 81 -62 223q0 54 9 116zM291 583q56 -3 110.5 -5t106.5 -2q43 0 83.5 10.5t72.5 29.5q20 41 32.5 84.5t20.5 101.5q4 30 4 56q1 62 -23 102q-34 57 -116 57q-36 0 -75 -13t-74 -36q-46 -68 -84.5 -170t-57.5 -215z" />
<glyph unicode="f" horiz-adv-x="648" d="M-278 -410l45 111q57 -20 131.5 -35.5t137.5 -15.5q31 43 55 111t38 165l148 1075h-189l11 84h191q39 229 133 353t255 124q47 0 95.5 -12.5t88.5 -34.5l-40 -111q-47 21 -109.5 36t-118.5 15q-39 -48 -72.5 -140.5t-49.5 -207.5l-3 -22h214l-11 -84h-215l-145 -1048 q-29 -208 -112.5 -309t-248.5 -101q-60 0 -121.5 13t-107.5 34z" />
<glyph unicode="g" horiz-adv-x="1114" d="M6 -387l33 140q119 -44 236.5 -70.5t197.5 -26.5q90 52 151.5 165t82.5 268l21 156q-83 -125 -181.5 -196t-199.5 -71q-174 0 -228 100q-36 66 -36 173q0 55 10 122l26 188q35 246 174.5 396t345.5 150q85 0 187 -22t192 -56l-126 -900q-40 -288 -183.5 -437t-359.5 -149 q-93 0 -186.5 21t-156.5 49zM284 168q29 -82 121 -82q80 0 170 76.5t171 209.5l86 618q-40 14 -94 23.5t-105 9.5q-56 0 -110 -14t-93 -36q-43 -69 -77 -173t-49 -208l-19 -131q-15 -107 -15 -181q0 -71 14 -112z" />
<glyph unicode="h" horiz-adv-x="1263" d="M132 0l200 1435l-141 20l17 85l230 22l81 -78l-90 -646q90 123 204 196t228 73q135 0 187 -70q38 -50 37 -140q0 -36 -6 -78l-98 -714l142 -20l-17 -85l-230 -22l-82 78l93 675q10 72 10 123q0 50 -10 82q-20 62 -94 63q-88 0 -187.5 -75t-193.5 -210l-102 -736z" />
<glyph unicode="i" horiz-adv-x="637" d="M146 1000l17 85l231 22l81 -78l-129 -924l141 -20l-17 -85l-230 -22l-81 78l128 924zM326 1410q0 52 20.5 91t49.5 39q51 0 90.5 -20.5t39.5 -49.5q0 -55 -21 -92.5t-49 -37.5q-55 0 -92.5 20.5t-37.5 49.5z" />
<glyph unicode="j" horiz-adv-x="579" d="M-268 -410l45 111q75 -24 147 -37.5t127 -13.5q29 43 51 109t35 155l147 1066l-141 20l17 85l231 22l81 -78l-152 -1076q-31 -215 -116.5 -312.5t-242.5 -97.5q-62 0 -124 14t-105 33zM323 1410q0 52 20.5 91t49.5 39q51 0 90.5 -20.5t39.5 -49.5q0 -55 -21 -92.5 t-49 -37.5q-55 0 -92.5 20.5t-37.5 49.5z" />
<glyph unicode="k" horiz-adv-x="1110" d="M132 0l200 1435l-141 20l17 85l231 22l81 -78l-125 -897q77 34 149 79.5t136.5 97.5t121 109t101.5 115l-84 12l17 85l148 22l104 -98q-29 -42 -71 -91.5t-95.5 -101.5t-117.5 -104.5t-137 -101.5l250 -506l141 -19l-17 -85l-213 -22l-81 78l-231 465q-33 -17 -68 -33.5 t-71 -30.5l-67 -479z" />
<glyph unicode="l" horiz-adv-x="620" d="M142 56l192 1379l-141 20l17 85l231 22l81 -78l-193 -1379l141 -20l-17 -85l-230 -22z" />
<glyph unicode="m" horiz-adv-x="1933" d="M145 1000l17 85l231 22l81 -78l-27 -190q87 119 201.5 193.5t230.5 74.5q137 -1 187 -71q37 -53 37 -139q0 -28 -4 -60q94 128 207.5 199t225.5 71q136 1 188 -71q37 -51 36 -139q0 -36 -6 -78l-98 -714l141 -20l-17 -85l-230 -22l-81 78l93 675q10 72 10 124q0 49 -9 81 q-19 64 -95 63q-93 0 -195 -81t-187 -205l-83 -608l141 -20l-17 -85l-230 -22l-81 78l93 675q10 73 10.5 125t-10.5 82q-21 61 -94 61q-84 0 -183.5 -72t-197.5 -213l-103 -736l-176 22l135 980z" />
<glyph unicode="n" horiz-adv-x="1279" d="M145 1000l17 85l231 22l81 -78l-27 -190q95 127 208.5 197.5t223.5 70.5q135 0 187 -70q37 -50 37 -141q0 -35 -6 -77l-98 -714l141 -20l-17 -85l-230 -22l-81 78l93 675q10 74 10 125.5t-10 81.5q-20 60 -94 61q-88 0 -187.5 -75t-193.5 -210l-103 -736l-176 22l135 980 z" />
<glyph unicode="o" horiz-adv-x="1089" d="M90 429l14 93q40 271 188 428t363 157q205 0 291 -115q62 -84 63 -228q0 -54 -9 -117l-13 -95q-36 -254 -189.5 -414t-360.5 -160q-203 0 -291 113q-64 82 -65 224q0 53 9 114zM272 443q-7 -52 -7 -98q1 -113 43 -181q60 -96 161 -96q44 0 91.5 12.5t97.5 37.5 q46 60 85.5 160t58.5 235l16 119q9 66 9 120q0 103 -32 167q-49 98 -172 98q-51 0 -100.5 -14t-88.5 -35q-50 -75 -89 -182t-56 -224z" />
<glyph unicode="p" horiz-adv-x="1152" d="M-58 -350l140 20l183 1310l-141 20l17 85l230 22l81 -78l-27 -191q82 125 183 197t201 72q171 0 227 -97q36 -64 36 -172q0 -57 -10 -126l-26 -188q-36 -253 -176 -399.5t-343 -146.5q-50 0 -104.5 7.5t-103.5 18.5l-47 -334l142 -20l-17 -85h-437zM322 95 q39 -14 92 -23.5t108 -9.5h6q43 0 98 12q59 14 109 38q35 59 67.5 159t49.5 222l18 131q15 104 15 178q0 65 -11 107q-25 90 -123 90q-82 0 -173.5 -79.5t-169.5 -208.5z" />
<glyph unicode="q" horiz-adv-x="1099" d="M92 373l26 188q36 247 175 396.5t345 149.5q87 0 191 -23t188 -55l-190 -1359l142 -20l-17 -85h-437l-8 85l140 20l80 575q-87 -132 -186 -199.5t-195 -67.5q-166 0 -224 94q-40 63 -40 176q0 56 10 125zM283 168q29 -82 121 -82q77 0 164.5 71t176.5 215l86 618 q-47 16 -99 24.5t-100 8.5t-102 -13t-101 -37q-41 -67 -74.5 -165.5t-51.5 -215.5l-19 -131q-15 -107 -15 -181q0 -71 14 -112z" />
<glyph unicode="r" horiz-adv-x="925" d="M38 85l140 20l122 875l-141 20l17 85l231 22l81 -78l-29 -209q63 136 147.5 211.5t176.5 75.5q42 0 82.5 -14.5t69.5 -37.5l-56 -237l-106 -12v173q-7 5 -20 7.5t-28 2.5q-60 0 -135.5 -86.5t-154.5 -251.5l-76 -546l142 -20l-17 -85h-438z" />
<glyph unicode="s" horiz-adv-x="923" d="M82 48l24 240h82l31 -197q33 -11 79 -17t96 -6q48 0 95 8.5t78 19.5q18 21 32.5 52t20.5 72q2 14 2 28q0 54 -31 98q-39 56 -203 160q-155 96 -201 164q-36 53 -36 120q0 19 3 38q19 122 129 200.5t286 78.5q80 0 154 -18t124 -50l-25 -241h-81l-33 199q-28 9 -70 14.5 t-85 5.5q-44 0 -88 -8.5t-71 -19.5q-21 -22 -34.5 -49t-18.5 -58q-3 -17 -3 -33q0 -55 32 -91q40 -48 170 -126q177 -108 229 -184q41 -60 41 -136q0 -20 -3 -41q-20 -139 -140.5 -216t-298.5 -77q-83 0 -159 19.5t-127 50.5z" />
<glyph unicode="t" horiz-adv-x="765" d="M88 1001l11 84h176l29 207l193 83l-41 -290h307l-11 -84h-308l-91 -653q-8 -57 -8 -102q0 -64 16 -106q27 -72 105 -72q42 0 96.5 21.5t96.5 48.5v-86q-55 -34 -120.5 -54t-132.5 -20q-156 0 -208 89q-36 60 -35 161q0 48 8 106l92 667h-175z" />
<glyph unicode="u" horiz-adv-x="1263" d="M122 1000l17 85l231 22l81 -78l-93 -675q-10 -71 -10 -122q0 -56 12 -86q22 -60 92 -60q89 0 189 75.5t190 206.5l85 612l-141 20l17 85l231 22l81 -78l-129 -924l141 -20l-17 -85l-230 -22l-81 78l26 188q-91 -123 -204 -194.5t-226 -71.5q-133 0 -186 70 q-38 50 -38 140q0 36 6 78l97 714z" />
<glyph unicode="v" horiz-adv-x="953" d="M31 1000l17 85l204 22l81 -78l125 -894q67 100 123 210t98.5 220t70 216.5t38.5 198.5l-141 20l17 85l190 22l81 -78q0 -83 -19.5 -174t-53 -185t-78.5 -187.5t-95.5 -182.5t-104 -171t-104.5 -151l-174 22l-138 980z" />
<glyph unicode="w" horiz-adv-x="1565" d="M31 1000l17 85l204 22l81 -78l115 -827l384 905l105 -22l133 -950q67 100 123 210t98.5 220t70 216.5t38.5 198.5l-141 20l17 85l190 22l81 -78q0 -83 -19.5 -174t-53 -185t-78.5 -187.5t-95.5 -182.5t-104 -171t-104.5 -151l-174 22l-109 776l-329 -798l-174 22 l-138 980z" />
<glyph unicode="x" horiz-adv-x="1019" d="M18 76q10 28 33 64t55 76t71 83.5t81 87t85.5 85t85.5 79.5l-203 429l-139 20l17 85l211 22l81 -78l176 -373q165 176 262 330l-100 14l17 85l148 22l104 -98q-15 -41 -54 -97t-92 -117.5t-114.5 -124.5t-121.5 -118l212 -448l140 -19l-17 -85l-211 -22l-81 78l-187 395 q-88 -94 -161.5 -183t-126.5 -170l98 -13l-17 -85l-148 -22z" />
<glyph unicode="y" horiz-adv-x="1204" d="M94 -387l33 140q108 -40 228 -68.5t206 -28.5q84 47 148 159.5t86 273.5l21 156q-93 -127 -205.5 -197t-224.5 -70q-133 0 -186 70q-38 49 -38 140q0 36 6 78l97 714l-141 20l17 85l231 22l81 -78l-93 -675q-10 -68 -10 -118.5t10 -83.5q19 -66 94 -66q88 1 185.5 73 t193.5 210l85 611l-141 20l17 85l231 22l81 -78l-126 -900q-41 -287 -183.5 -436.5t-359.5 -149.5q-89 0 -180 19.5t-163 50.5z" />
<glyph unicode="z" horiz-adv-x="953" d="M22 0l11 95l699 910h-419l-82 -174l-103 26l50 228h767l-10 -83l-709 -922h428l82 174l103 -26l-50 -228h-767z" />
<glyph unicode="{" horiz-adv-x="820" d="M130 562l13 96h96q61 0 89 24.5t37 85.5l88 629q9 60 37 111.5t70.5 89t97 58.5t114.5 21h78l-13 -96h-21q-91 0 -136 -39.5t-58 -130.5l-82 -583q-9 -62 -25 -103t-36 -65.5t-43.5 -34.5t-45.5 -10l-1 -10q22 0 42.5 -10t34 -34.5t18 -65.5t-4.5 -103l-82 -583 q-13 -91 21 -130.5t125 -39.5h21l-13 -96h-78q-60 0 -108.5 21t-81 58.5t-46.5 89t-5 111.5l88 629q9 61 -12 85.5t-82 24.5h-96z" />
<glyph unicode="|" horiz-adv-x="638" d="M270 -537v2207h118v-2207h-118z" />
<glyph unicode="}" horiz-adv-x="819" d="M-30 -457l13 96h21q90 0 135 39.5t58 130.5l82 583q9 62 25 103t36 65.5t43 34.5t46 10l1 10q-23 0 -43 10t-33.5 34.5t-18 65.5t4.5 103l82 583q13 91 -21 130.5t-125 39.5h-21l13 96h78q60 0 108.5 -21t81 -58.5t46.5 -89t5 -111.5l-88 -629q-9 -61 12 -85.5t82 -24.5 h96l-13 -96h-96q-61 0 -89 -24.5t-37 -85.5l-88 -629q-9 -60 -37 -111.5t-70.5 -89t-97 -58.5t-114.5 -21h-77z" />
<glyph unicode="~" horiz-adv-x="1103" d="M120 524v25q0 56 18.5 99t50.5 72t76 43.5t95 14.5q36 0 80.5 -10t91.5 -24.5t94 -31.5t88.5 -31.5t74.5 -24.5t52 -10t37.5 7.5t33 22.5t23.5 37.5t9 52.5l117 10v-47q0 -53 -17 -95.5t-47 -72t-72 -45.5t-92 -16q-32 0 -76.5 10t-93.5 24.5t-99.5 31.5t-95 31.5 t-79.5 24.5t-53 10q-20 0 -39.5 -4t-34.5 -15t-24 -30t-9 -49z" />
<glyph unicode="&#xa1;" horiz-adv-x="621" d="M64 -435l199 1150h141l-125 -1150l-198 -22zM229 937q0 34 8 64.5t21.5 54t32.5 37.5t40 14q36 0 67 -8t54 -21.5t36 -32t13 -39.5q0 -35 -8 -66t-21.5 -54.5t-32 -37.5t-39.5 -14q-36 0 -67 8t-54.5 22.5t-36.5 33t-13 39.5z" />
<glyph unicode="&#xa2;" horiz-adv-x="966" d="M85.5 242.5q-11.5 82.5 4.5 186.5l14 93q20 131 64.5 233t107.5 175t142 115.5t169 55.5l36 252h98l-35 -246q70 -2 122 -10.5t87 -17.5q40 -11 69 -24l-56 -237l-86 -10v181q-15 7 -37 12q-19 5 -46.5 9t-65.5 6l-133 -946q53 5 101 19.5t84 29.5q42 18 79 39v-86 q-32 -20 -73 -38q-35 -15 -86.5 -30t-116.5 -22l-32 -227h-98l31 224q-105 2 -177 34t-113.5 89.5t-53 140zM267.5 289q9.5 -65 35 -109.5t62.5 -70t78 -35.5l132 937q-29 -5 -53 -12t-41 -14q-20 -8 -37 -17q-34 -46 -64 -107q-26 -52 -51.5 -127t-39.5 -172l-17 -119 q-14 -89 -4.5 -154z" />
<glyph unicode="&#xa3;" horiz-adv-x="1159" d="M78 85l120 17q13 22 29 59q14 31 27.5 76t23.5 102q5 31 6.5 61t0 62t-5.5 68t-10 80h-120l-7 61l113 30q-6 46 -9.5 84.5t-4 75t2 74t8.5 80.5q10 72 43 137t91.5 114.5t144 79t200.5 29.5q82 0 145 -13t106 -29q50 -18 87 -41l-38 -277h-79l-39 244q-23 7 -53 13 q-26 5 -63.5 9t-85.5 4q-44 0 -83 -6.5t-68 -14.5q-34 -9 -63 -20q-14 -26 -26 -59q-11 -29 -21.5 -68t-16.5 -89q-11 -81 -10.5 -157.5t11.5 -159.5h436l-18 -101h-403q8 -65 11 -121t-7 -114q-11 -63 -27.5 -114t-32.5 -87q-18 -42 -38 -75h449l110 213l81 -12l-68 -300 h-841z" />
<glyph unicode="&#xa4;" horiz-adv-x="1221" d="M190 970l128 107l138 -165q42 23 90 35t100 12q51 0 98.5 -12t89.5 -34l138 164l129 -109l-138 -164q35 -46 54.5 -101t19.5 -115q0 -65 -22 -123t-61 -106l144 -170l-128 -107l-148 175q-82 -40 -176 -40q-48 0 -92 10t-84 29l-146 -174l-129 109l141 169 q-38 48 -59.5 105.5t-21.5 122.5q0 61 19.5 116t54.5 101zM431 588q0 -56 17 -98t46 -71t68.5 -43.5t83.5 -14.5t83 14.5t68 43.5t46 71t17 98q0 55 -17 97.5t-46 71.5t-68 43.5t-83 14.5t-83.5 -14.5t-68.5 -43.5t-46 -71.5t-17 -97.5z" />
<glyph unicode="&#xa5;" horiz-adv-x="1086" d="M4 1268l17 85h401l8 -85l-111 -16l262 -530h16l394 529l-116 17l17 85h356l8 -85l-111 -20l-427 -569h235l-20 -107h-293l-26 -188h297l-20 -107h-292l-24 -172l141 -20l-17 -85h-447l-8 85l141 20l24 172h-320l20 107h315l26 188h-319l20 107h249l-284 569z" />
<glyph unicode="&#xa6;" horiz-adv-x="638" d="M270 320h118v-857h-118v857zM270 813v857h118v-857h-118z" />
<glyph unicode="&#xa7;" horiz-adv-x="1174" d="M110 -58l59 260h90v-217q24 -7 57 -12q28 -5 68 -8t91 -3q50 0 91.5 5.5t72.5 13.5q36 9 66 20q10 14 18 30q7 14 13.5 31t9.5 36q6 40 -10.5 75t-57.5 71.5t-107.5 77.5t-162.5 93q-70 38 -124 75.5t-89 80t-49 92.5t-5 114q13 86 65.5 149t126.5 111q-32 37 -45.5 80 t-5.5 100q7 52 34 100.5t79.5 85.5t134 59t198.5 22q80 0 140.5 -10.5t102.5 -23.5q48 -15 83 -34l-60 -260h-91v217q-23 6 -52 10q-25 4 -59.5 7.5t-76.5 3.5q-51 0 -92.5 -5.5t-70.5 -12.5q-34 -8 -61 -18q-9 -14 -18 -29q-8 -13 -15 -29.5t-9 -33.5q-6 -41 7 -72 t47 -62.5t91.5 -67t141.5 -84.5q78 -45 139.5 -87.5t102 -89t58 -100t7.5 -120.5q-13 -85 -65.5 -144.5t-128.5 -104.5q38 -44 53.5 -93.5t6.5 -115.5q-17 -128 -132.5 -190.5t-311.5 -62.5q-85 0 -150.5 10.5t-111.5 24.5q-54 15 -93 35zM306 812q-5 -38 4.5 -69 t37.5 -61.5t76 -63t120 -73.5q72 -42 131 -76.5t104 -69.5q42 32 67.5 71.5t33.5 91.5q6 41 -7.5 74.5t-48 65.5t-90 67.5t-133.5 80.5q-60 35 -110.5 65t-90.5 61q-43 -35 -64.5 -72.5t-29.5 -91.5z" />
<glyph unicode="&#xa8;" horiz-adv-x="916" d="M150 1371q0 25 5 47.5t14 39.5t21 27t26 10q25 0 47.5 -5.5t39.5 -14.5t27 -21t10 -26q0 -52 -19.5 -87.5t-47.5 -35.5q-52 0 -87.5 19t-35.5 47zM576 1371q0 25 5 47.5t14 39.5t21 27t26 10q25 0 47.5 -5.5t39.5 -14.5t27 -21t10 -26q0 -52 -19.5 -87.5t-47.5 -35.5 q-52 0 -87.5 19t-35.5 47z" />
<glyph unicode="&#xa9;" horiz-adv-x="1307" d="M70 949q0 127 48.5 239t131.5 195t195 131t239 48t239 -48t195 -131t131 -195t48 -239t-48 -239t-131 -195t-195 -131.5t-239 -48.5q-85 0 -163.5 22t-146.5 62t-124 96t-96 124t-62 146.5t-22 163.5zM209 949q0 -99 37 -185.5t101.5 -151t151 -101.5t185.5 -37t185.5 37 t151 101.5t101.5 151t37 185.5t-37 185.5t-101.5 151t-151 101.5t-185.5 37t-185.5 -37t-151 -101.5t-101.5 -151t-37 -185.5zM405 861v58q0 97 21 169.5t60 120.5t94 72t123 24q44 0 79 -6t60 -13q29 -9 52 -19l12 -193l-68 -14l-44 137q-11 3 -25 6q-12 2 -29 4t-38 2 q-29 0 -52 -4.5t-39 -9.5q-19 -6 -33 -14q-7 -27 -12 -61q-5 -29 -8 -70.5t-3 -92.5v-68q0 -51 14.5 -88t38 -61.5t52 -36t57.5 -11.5q36 0 69 7t59 16q30 10 57 23v-84q-28 -17 -61 -30q-29 -11 -68.5 -20t-87.5 -9q-61 0 -112.5 16t-88.5 48.5t-58 82.5t-21 119z" />
<glyph unicode="&#xaa;" horiz-adv-x="609" d="M82 914q-5 38 3 94l13 94q8 56 29.5 105.5t58 87t87.5 59t117 21.5q33 0 68 -6t64 -14q33 -9 66 -19l-62 -443l73 -9l-10 -63l-148 -11l-41 39l13 93q-6 -9 -22.5 -31t-43 -44.5t-62 -39.5t-79.5 -17q-35 0 -61 10t-42 33t-21 61zM210 923q11 -39 51 -39q30 0 57 18.5 t49 42.5t37 47t20 33l38 272q-7 3 -30 9.5t-57 6.5q-20 0 -36.5 -4t-30.5 -9q-16 -5 -29 -12q-12 -18 -23 -44q-10 -22 -20 -53.5t-15 -73.5l-9 -65q-13 -90 -2 -129z" />
<glyph unicode="&#xab;" horiz-adv-x="1075" d="M150 536l9 60l454 421h85l-3 -22l-359 -419l-3 -20l241 -419l-3 -22h-85zM544 548l5 36l321 389h85l-3 -22l-221 -385l112 -385l-3 -22h-85z" />
<glyph unicode="&#xac;" horiz-adv-x="1163" d="M160 620v137h863v-452h-147v315h-716z" />
<glyph unicode="&#xad;" horiz-adv-x="899" d="M160 516l30 149l589 41l-30 -149z" />
<glyph unicode="&#xae;" horiz-adv-x="1307" d="M70 949q0 127 48.5 239t131.5 195t195 131t239 48t239 -48t195 -131t131 -195t48 -239t-48 -239t-131 -195t-195 -131.5t-239 -48.5q-85 0 -163.5 22t-146.5 62t-124 96t-96 124t-62 146.5t-22 163.5zM209 949q0 -99 37 -185.5t101.5 -151t151 -101.5t185.5 -37t185.5 37 t151 101.5t101.5 151t37 185.5t-37 185.5t-101.5 151t-151 101.5t-185.5 37t-185.5 -37t-151 -101.5t-101.5 -151t-37 -185.5zM427 700l70 15v484l-70 17l9 55h261q103 0 156 -40.5t53 -127.5q0 -67 -30 -108t-74 -68v-6l124 -207l72 -14l-9 -55h-156l-155 266h-59v-196 l70 -15l-9 -55h-244zM619 995h56q22 0 39 2.5t29 5.5q14 4 25 9q3 10 7 23q2 11 4.5 26t2.5 33q0 38 -27 65.5t-90 27.5h-46v-192z" />
<glyph unicode="&#xaf;" horiz-adv-x="1028" d="M150 1353l17 110h711l-18 -110h-710z" />
<glyph unicode="&#xb0;" horiz-adv-x="634" d="M110 1305q0 53 20 100t55 82t82 55t100 20t100 -20t82 -55t55 -82t20 -100t-20 -100t-55 -82t-82 -55t-100 -20t-100 20t-82 55t-55 82t-20 100zM239 1305q0 -36 10 -63.5t27.5 -46.5t40.5 -28.5t50 -9.5t50 9.5t40.5 28.5t27.5 46.5t10 63.5t-10 63.5t-27.5 46.5 t-40.5 28.5t-50 9.5t-50 -9.5t-40.5 -28.5t-27.5 -46.5t-10 -63.5z" />
<glyph unicode="&#xb1;" horiz-adv-x="1043" d="M160 620v147h298v318h147v-318h298v-147h-298v-318h-147v318h-298zM187 0v147h693v-147h-693z" />
<glyph unicode="&#xb2;" horiz-adv-x="581" d="M0 1085l11 82q80 70 148.5 130.5t119.5 112.5t82 96.5t36 82.5q4 28 -2 47t-19 30.5t-31.5 16.5t-40.5 5q-20 0 -38.5 -3.5t-32.5 -8.5q-17 -5 -31 -12l-44 -110l-74 5l22 156q31 16 69 28q32 11 74.5 20t90.5 9q47 0 85 -10.5t63 -31.5t36 -52.5t5 -74.5 q-6 -47 -36 -95.5t-75 -99.5t-101.5 -104.5t-117.5 -108.5l1 -5h178l56 106l70 -11l-39 -200h-465z" />
<glyph unicode="&#xb3;" horiz-adv-x="548" d="M0 1114l23 165l74 6l11 -106q14 -7 31 -11q14 -4 32.5 -7t40.5 -3q23 0 45 7.5t40.5 21.5t31 35.5t16.5 50.5q5 34 -1.5 58t-21.5 39t-37.5 22t-50.5 7h-44l12 84h46q52 0 81.5 28.5t36.5 79.5q4 28 -0.5 46.5t-16.5 29.5t-30.5 15.5t-40.5 4.5q-17 0 -33 -2.5t-28 -5.5 q-14 -4 -27 -8l-40 -106l-73 6l23 164q27 10 60 18q28 7 65 13t79 6q109 0 157.5 -42.5t37.5 -119.5q-5 -36 -19.5 -62.5t-33.5 -46t-39 -32.5t-37 -22q23 -8 44 -21.5t36.5 -33t23 -45.5t2.5 -60q-8 -54 -32.5 -94t-62 -67t-85.5 -40t-102 -13q-41 0 -76 6t-61 14 q-31 9 -57 21z" />
<glyph unicode="&#xb4;" horiz-adv-x="840" d="M200 1275l5 32l254 363l181 -10l-10 -66l-356 -329z" />
<glyph unicode="&#xb5;" horiz-adv-x="1262" d="M66 -457l196 1437l-141 20l17 85l231 22l81 -78l-93 -675q-11 -79 -9.5 -131t14 -82.5t36 -42.5t57.5 -12q57 0 111 28.5t102.5 71t89.5 92t73 92.5l84 610l-141 20l17 85l231 22l81 -78l-128 -924l140 -20l-17 -85q-21 -7 -44 -11q-20 -5 -43.5 -8t-46.5 -3 q-95 0 -133 62t-18 201q-17 -20 -41 -47.5t-53.5 -56.5t-64.5 -57.5t-74 -51t-82 -36.5t-88 -14q-29 0 -53.5 7t-43 19t-30.5 26.5t-17 29.5l-11 -4l-6 -491z" />
<glyph unicode="&#xb6;" horiz-adv-x="1138" d="M147 935q14 102 58.5 180.5t112 131t153.5 79.5t183 27h500l8 -85l-141 -20l-152 -1084q-18 -132 -58 -221t-96.5 -143.5t-126 -78t-146.5 -23.5q-60 0 -108 7t-82 16q-40 11 -71 24l16 82q30 -9 65 -16q30 -6 70 -10.5t85 -4.5q51 0 92.5 20t74.5 63.5t56 111.5t37 165 l155 1098h-140l-108 -769h-65q-84 0 -159 24.5t-128 78t-77.5 139t-7.5 208.5z" />
<glyph unicode="&#xb7;" horiz-adv-x="584" d="M220 654q0 31 7 59t19.5 49t29 33.5t34.5 12.5q33 0 61 -7t48.5 -19.5t32.5 -29.5t12 -36q0 -30 -7 -58t-19.5 -49t-29 -33.5t-35.5 -12.5q-32 0 -60 7t-48.5 19.5t-32.5 29t-12 35.5z" />
<glyph unicode="&#xb8;" horiz-adv-x="842" d="M200 -410l23 63q25 -11 52 -20q23 -8 52.5 -14t60.5 -6q20 0 36 2t27 4q12 3 22 7q5 12 9 26q4 12 7.5 27t5.5 32q5 54 -25.5 85t-99.5 51l-36 52l72 138h132l-68 -135q40 -11 73.5 -25t56 -35t32.5 -51t4 -72q-5 -38 -24.5 -70t-52 -55.5t-76.5 -37t-99 -13.5 q-40 0 -73 7t-58 16q-29 11 -53 24z" />
<glyph unicode="&#xb9;" horiz-adv-x="446" d="M28 1085v69l104 17l68 487h-113l2 47l190 57h66l-83 -591l99 -17l-20 -69h-313z" />
<glyph unicode="&#xba;" horiz-adv-x="594" d="M85 1036l7 46q11 73 38.5 127.5t66.5 91.5t88 55.5t103 18.5q52 0 91.5 -12.5t64.5 -39.5t34.5 -71t1.5 -107l-6 -48q-8 -61 -33 -113.5t-64 -91t-89.5 -60.5t-108.5 -22q-119 0 -164.5 60t-29.5 166zM204 964q5 -32 18 -51.5t32.5 -28.5t40.5 -9q23 0 40 3.5t29 8.5 q14 5 25 13q13 18 25 44q10 23 20.5 56t16.5 78l8 59q7 52 3 85.5t-16.5 53t-32 27t-41.5 7.5t-39.5 -4t-29.5 -9q-15 -5 -26 -12q-13 -21 -24 -48q-10 -23 -20.5 -57t-17.5 -78l-9 -59q-7 -47 -2 -79z" />
<glyph unicode="&#xbb;" horiz-adv-x="1075" d="M120 159l3 22l222 385l-113 385l3 22h85l211 -389l-5 -36l-321 -389h-85zM377 115l3 22l359 419l3 20l-241 419l3 22h85l336 -421l-9 -60l-454 -421h-85z" />
<glyph unicode="&#xbc;" horiz-adv-x="1374" d="M14 0l3 20l1167 1333h105l-3 -20l-1167 -1333h-105zM68 676v69l104 17l68 487h-113l2 47l190 57h66l-83 -591l99 -17l-20 -69h-313zM743 224l334 453h127l-326 -431h144l21 148h130l-21 -148h86l3 -70l-101 -17l-10 -73l94 -17l-20 -69h-322v69l118 17l11 75h-264z" />
<glyph unicode="&#xbd;" horiz-adv-x="1433" d="M34 0l3 20l1167 1333h105l-3 -20l-1167 -1333h-105zM88 676v69l104 17l68 487h-113l2 47l190 57h66l-83 -591l99 -17l-20 -69h-313zM798 0l11 82q80 70 148.5 130.5t119.5 112.5t82 96.5t36 82.5q4 28 -2 47t-19 30.5t-31.5 16.5t-40.5 5q-20 0 -38.5 -3.5t-32.5 -8.5 q-17 -5 -31 -12l-44 -110l-74 5l22 156q31 16 69 28q32 11 74.5 20t90.5 9q47 0 85 -10.5t63 -31.5t36 -52.5t5 -74.5q-6 -47 -36 -95.5t-75 -99.5t-101.5 -104.5t-117.5 -108.5l1 -5h178l56 106l70 -11l-39 -200h-465z" />
<glyph unicode="&#xbe;" horiz-adv-x="1423" d="M63 0l3 20l1167 1333h105l-3 -20l-1167 -1333h-105zM66 717l23 165l74 6l11 -106q14 -7 31 -11q14 -4 32.5 -7t40.5 -3q23 0 45 7.5t40.5 21.5t31 35.5t16.5 50.5q5 34 -1.5 58t-21.5 39t-37.5 22t-50.5 7h-44l12 84h46q52 0 81.5 28.5t36.5 79.5q4 28 -0.5 46.5 t-16.5 29.5t-30.5 15.5t-40.5 4.5q-17 0 -33 -2.5t-28 -5.5q-14 -4 -27 -8l-40 -106l-73 6l23 164q27 10 60 18q28 7 65 13t79 6q109 0 157.5 -42.5t37.5 -119.5q-5 -36 -19.5 -62.5t-33.5 -46t-39 -32.5t-37 -22q23 -8 44 -21.5t36.5 -33t23 -45.5t2.5 -60 q-8 -54 -32.5 -94t-62 -67t-85.5 -40t-102 -13q-41 0 -76 6t-61 14q-31 9 -57 21zM792 224l334 453h127l-326 -431h144l21 148h130l-21 -148h86l3 -70l-101 -17l-10 -73l94 -17l-20 -69h-322v69l118 17l11 75h-264z" />
<glyph unicode="&#xbf;" horiz-adv-x="1048" d="M77 -184q7 52 26.5 97.5t53 89t81.5 88.5t113 98l171 138q70 57 104.5 100t40.5 88q5 44 -16 64t-65 20q-29 0 -54.5 -5t-45.5 -11q-24 -7 -44 -15l14 91q23 14 53 25q26 9 60.5 17t76.5 8q45 0 84.5 -12t67.5 -36t42 -60.5t7 -84.5q-5 -39 -19.5 -75t-40.5 -72.5 t-65 -76t-94 -84.5l-172 -140q-51 -42 -87 -76t-60 -64t-36.5 -58t-16.5 -58q-5 -33 5 -62t38 -50.5t75 -34t117 -12.5q48 0 86 4.5t64 9.5q31 6 54 14l104 239l89 -17l-39 -277q-50 -24 -112 -42q-54 -16 -127 -28.5t-162 -12.5q-197 0 -293.5 69.5t-77.5 203.5zM593 937 q0 34 8 64.5t21.5 54t32.5 37.5t40 14q36 0 67 -8t54 -21.5t36 -32t13 -39.5q0 -35 -8 -66t-21.5 -54.5t-32 -37.5t-39.5 -14q-36 0 -67 8t-54.5 22.5t-36.5 33t-13 39.5z" />
<glyph unicode="&#xc0;" d="M-124 85l111 20l622 1248h149l261 -1248l112 -20l-17 -85h-417l-8 85l141 20l-64 321h-476l-157 -321l142 -20l-17 -85h-374zM338 525h408l-115 579h-10zM350 1708l9 66l193 10l239 -281l-5 -32l-96 -11z" />
<glyph unicode="&#xc1;" d="M-124 85l111 20l622 1248h149l261 -1248l112 -20l-17 -85h-417l-8 85l141 20l-64 321h-476l-157 -321l142 -20l-17 -85h-374zM338 525h408l-115 579h-10zM571 1471l5 32l337 281l191 -10l-9 -66l-430 -248z" />
<glyph unicode="&#xc2;" d="M-124 85l111 20l622 1248h149l261 -1248l112 -20l-17 -85h-417l-8 85l141 20l-64 321h-476l-157 -321l142 -20l-17 -85h-374zM338 525h408l-115 579h-10zM367 1470l5 32l323 292l132 -10l213 -282l-5 -32l-106 -10l-196 198l-273 -198z" />
<glyph unicode="&#xc3;" d="M-124 85l111 20l622 1248h149l261 -1248l112 -20l-17 -85h-417l-8 85l141 20l-64 321h-476l-157 -321l142 -20l-17 -85h-374zM338 525h408l-115 579h-10zM296 1495l4 25q8 54 28.5 94.5t50.5 68.5t66.5 42t76.5 14q65 0 123.5 -20.5t109.5 -45.5t94 -45.5t77 -20.5 q36 0 66.5 32t40.5 98l99 10l-7 -47q-8 -51 -27 -91.5t-47.5 -69t-64.5 -43.5t-78 -15q-57 0 -117 20.5t-115.5 45.5t-104 45.5t-83.5 20.5q-17 0 -33 -4.5t-29.5 -16.5t-23.5 -33t-15 -54z" />
<glyph unicode="&#xc4;" d="M-124 85l111 20l622 1248h149l261 -1248l112 -20l-17 -85h-417l-8 85l141 20l-64 321h-476l-157 -321l142 -20l-17 -85h-374zM338 525h408l-115 579h-10zM387 1571q0 26 5.5 49.5t14.5 41.5t21.5 28.5t27.5 10.5q26 0 49.5 -5.5t41.5 -15.5t28.5 -22.5t10.5 -27.5 q0 -27 -5.5 -50.5t-15 -41t-22 -27.5t-27.5 -10q-27 0 -51 5.5t-41 15t-27 22t-10 27.5zM823 1571q0 26 5.5 49.5t14.5 41.5t21.5 28.5t27.5 10.5q27 0 50.5 -5.5t41 -15.5t28 -22.5t10.5 -27.5q0 -27 -5.5 -50.5t-15 -41t-22 -27.5t-27.5 -10q-27 0 -50.5 5.5t-41 15 t-27.5 22t-10 27.5z" />
<glyph unicode="&#xc5;" d="M-124 85l111 20l622 1248h149l261 -1248l112 -20l-17 -85h-417l-8 85l141 20l-64 321h-476l-157 -321l142 -20l-17 -85h-374zM338 525h408l-115 579h-10zM534 1570q7 52 28.5 92t52.5 67t69 41t79 14q36 0 67 -9t53 -27.5t32 -47t5 -66.5q-8 -55 -29 -95.5t-51.5 -66.5 t-68.5 -39t-79 -13q-37 0 -68.5 9.5t-53 28t-31.5 46.5t-5 66zM639 1602q-7 -53 15.5 -83.5t58.5 -30.5q17 0 32 3t26 7q12 4 23 11q4 11 8 25q4 12 8 29t7 39q7 54 -16 84.5t-59 30.5q-17 0 -31 -3.5t-25 -7.5q-13 -4 -24 -10q-4 -7 -8 -19q-4 -11 -8 -28.5t-7 -46.5z" />
<glyph unicode="&#xc6;" horiz-adv-x="1596" d="M-172 85l113 20l770 1248h841l-19 -300h-86l-40 201h-433l-70 -497h336l40 137l83 -20l-52 -355l-87 -5v144h-334l-79 -559h461l105 203l80 -13l-66 -289h-902l-8 85l141 20l45 321h-375l-196 -323l131 -18l-17 -85h-374zM352 525h329l100 707z" />
<glyph unicode="&#xc7;" horiz-adv-x="1163" d="M69 515l12 89q52 380 233 575.5t481 195.5q101 0 194.5 -15.5t159.5 -43.5l-17 -270h-88l-45 203q-42 12 -107 19.5t-142 7.5q-79 0 -158 -23.5t-144 -64.5q-58 -96 -101.5 -226t-64.5 -279l-18 -133q-31 -225 69.5 -349t300.5 -124q90 0 189 27t195 77l-15 -76 q-95 -57 -214 -92q-100 -29 -197 -34l-38 -77q40 -11 73.5 -25t56 -35t32.5 -51t4 -72q-5 -38 -24.5 -70t-52 -55.5t-76.5 -37t-99 -13.5q-40 0 -73 7t-58 16q-29 11 -53 24l23 63q25 -11 52 -20q23 -8 52.5 -14t60.5 -6q20 0 36 2t27 4q12 3 22 7q5 12 9 26q4 12 7.5 27 t5.5 32q5 54 -25.5 85t-99.5 51l-36 52l43 83q-209 20 -308 132q-120 137 -84 401z" />
<glyph unicode="&#xc8;" horiz-adv-x="1165" d="M2 85l141 20l161 1143l-141 20l17 85h943l-19 -300h-86l-40 201h-483l-70 -497h386l40 137l83 -20l-52 -355l-87 -5v144h-384l-79 -559h511l105 203l80 -13l-66 -289h-952zM352 1708l9 66l193 10l239 -281l-5 -32l-96 -11z" />
<glyph unicode="&#xc9;" horiz-adv-x="1165" d="M2 85l141 20l161 1143l-141 20l17 85h943l-19 -300h-86l-40 201h-483l-70 -497h386l40 137l83 -20l-52 -355l-87 -5v144h-384l-79 -559h511l105 203l80 -13l-66 -289h-952zM573 1471l5 32l337 281l191 -10l-9 -66l-430 -248z" />
<glyph unicode="&#xca;" horiz-adv-x="1165" d="M2 85l141 20l161 1143l-141 20l17 85h943l-19 -300h-86l-40 201h-483l-70 -497h386l40 137l83 -20l-52 -355l-87 -5v144h-384l-79 -559h511l105 203l80 -13l-66 -289h-952zM369 1470l5 32l323 292l132 -10l213 -282l-5 -32l-106 -10l-196 198l-273 -198z" />
<glyph unicode="&#xcb;" horiz-adv-x="1165" d="M2 85l141 20l161 1143l-141 20l17 85h943l-19 -300h-86l-40 201h-483l-70 -497h386l40 137l83 -20l-52 -355l-87 -5v144h-384l-79 -559h511l105 203l80 -13l-66 -289h-952zM389 1571q0 26 5.5 49.5t14.5 41.5t21.5 28.5t27.5 10.5q26 0 49.5 -5.5t41.5 -15.5t28.5 -22.5 t10.5 -27.5q0 -27 -5.5 -50.5t-15 -41t-22 -27.5t-27.5 -10q-27 0 -51 5.5t-41 15t-27 22t-10 27.5zM825 1571q0 26 5.5 49.5t14.5 41.5t21.5 28.5t27.5 10.5q27 0 50.5 -5.5t41 -15.5t28 -22.5t10.5 -27.5q0 -27 -5.5 -50.5t-15 -41t-22 -27.5t-27.5 -10q-27 0 -50.5 5.5 t-41 15t-27.5 22t-10 27.5z" />
<glyph unicode="&#xcc;" horiz-adv-x="637" d="M4 85l141 20l161 1143l-141 20l17 85h447l8 -85l-141 -20l-161 -1143l141 -20l-17 -85h-447zM73 1708l9 66l193 10l239 -281l-5 -32l-96 -11z" />
<glyph unicode="&#xcd;" horiz-adv-x="637" d="M4 85l141 20l161 1143l-141 20l17 85h447l8 -85l-141 -20l-161 -1143l141 -20l-17 -85h-447zM293 1471l5 32l337 281l191 -10l-9 -66l-430 -248z" />
<glyph unicode="&#xce;" horiz-adv-x="637" d="M4 85l141 20l161 1143l-141 20l17 85h447l8 -85l-141 -20l-161 -1143l141 -20l-17 -85h-447zM89 1470l5 32l323 292l132 -10l213 -282l-5 -32l-106 -10l-196 198l-273 -198z" />
<glyph unicode="&#xcf;" horiz-adv-x="637" d="M4 85l141 20l161 1143l-141 20l17 85h447l8 -85l-141 -20l-161 -1143l141 -20l-17 -85h-447zM109 1571q0 26 5.5 49.5t14.5 41.5t21.5 28.5t27.5 10.5q26 0 49.5 -5.5t41.5 -15.5t28.5 -22.5t10.5 -27.5q0 -27 -5.5 -50.5t-15 -41t-22 -27.5t-27.5 -10q-27 0 -51 5.5 t-41 15t-27 22t-10 27.5zM545 1571q0 26 5.5 49.5t14.5 41.5t21.5 28.5t27.5 10.5q27 0 50.5 -5.5t41 -15.5t28 -22.5t10.5 -27.5q0 -27 -5.5 -50.5t-15 -41t-22 -27.5t-27.5 -10q-27 0 -50.5 5.5t-41 15t-27.5 22t-10 27.5z" />
<glyph unicode="&#xd0;" horiz-adv-x="1335" d="M-3 640l15 110h228l70 498l-141 20l17 85h546q300 0 431 -153t90 -458l-12 -88q-44 -310 -218.5 -482t-441.5 -172h-565l-8 85l141 20l75 535h-227zM338 99h216q74 0 148.5 16t135.5 43q68 69 127 187.5t82 276.5l13 94q35 259 -63.5 398.5t-322.5 139.5h-173l-71 -504 h238l-15 -110h-239z" />
<glyph unicode="&#xd1;" horiz-adv-x="1524" d="M4 85l141 20l161 1143l-141 20l17 85h426l484 -1217h16l156 1112l-141 20l17 85h398l8 -85l-141 -20l-176 -1248h-287l-484 1218h-16l-157 -1113l141 -20l-17 -85h-397zM496 1495l4 25q8 54 28.5 94.5t50.5 68.5t66.5 42t76.5 14q65 0 123.5 -20.5t109.5 -45.5t94 -45.5 t77 -20.5q36 0 66.5 32t40.5 98l99 10l-7 -47q-8 -51 -27 -91.5t-47.5 -69t-64.5 -43.5t-78 -15q-57 0 -117 20.5t-115.5 45.5t-104 45.5t-83.5 20.5q-17 0 -33 -4.5t-29.5 -16.5t-23.5 -33t-15 -54z" />
<glyph unicode="&#xd2;" horiz-adv-x="1346" d="M80 525l11 79q55 388 229 579.5t461 191.5q276 0 399 -137q93 -104 93 -287q0 -58 -9 -124l-11 -78q-53 -378 -225.5 -574.5t-463.5 -196.5q-279 0 -400 138q-93 105 -93 289q0 56 9 120zM277 570q-8 -59 -8 -111q0 -155 71 -253q95 -130 272 -129q76 0 151 24t134 65 q53 101 93.5 228.5t58.5 255.5l18 133q9 68 9 127q0 150 -60 240q-84 126 -283 126q-73 0 -148 -23.5t-137 -64.5q-56 -108 -96 -235t-57 -250zM471 1708l9 66l193 10l239 -281l-5 -32l-96 -11z" />
<glyph unicode="&#xd3;" horiz-adv-x="1346" d="M80 525l11 79q55 388 229 579.5t461 191.5q276 0 399 -137q93 -104 93 -287q0 -58 -9 -124l-11 -78q-53 -378 -225.5 -574.5t-463.5 -196.5q-279 0 -400 138q-93 105 -93 289q0 56 9 120zM277 570q-8 -59 -8 -111q0 -155 71 -253q95 -130 272 -129q76 0 151 24t134 65 q53 101 93.5 228.5t58.5 255.5l18 133q9 68 9 127q0 150 -60 240q-84 126 -283 126q-73 0 -148 -23.5t-137 -64.5q-56 -108 -96 -235t-57 -250zM692 1471l5 32l337 281l191 -10l-9 -66l-430 -248z" />
<glyph unicode="&#xd4;" horiz-adv-x="1346" d="M80 525l11 79q55 388 229 579.5t461 191.5q276 0 399 -137q93 -104 93 -287q0 -58 -9 -124l-11 -78q-53 -378 -225.5 -574.5t-463.5 -196.5q-279 0 -400 138q-93 105 -93 289q0 56 9 120zM277 570q-8 -59 -8 -111q0 -155 71 -253q95 -130 272 -129q76 0 151 24t134 65 q53 101 93.5 228.5t58.5 255.5l18 133q9 68 9 127q0 150 -60 240q-84 126 -283 126q-73 0 -148 -23.5t-137 -64.5q-56 -108 -96 -235t-57 -250zM488 1470l5 32l323 292l132 -10l213 -282l-5 -32l-106 -10l-196 198l-273 -198z" />
<glyph unicode="&#xd5;" horiz-adv-x="1346" d="M80 525l11 79q55 388 229 579.5t461 191.5q276 0 399 -137q93 -104 93 -287q0 -58 -9 -124l-11 -78q-53 -378 -225.5 -574.5t-463.5 -196.5q-279 0 -400 138q-93 105 -93 289q0 56 9 120zM277 570q-8 -59 -8 -111q0 -155 71 -253q95 -130 272 -129q76 0 151 24t134 65 q53 101 93.5 228.5t58.5 255.5l18 133q9 68 9 127q0 150 -60 240q-84 126 -283 126q-73 0 -148 -23.5t-137 -64.5q-56 -108 -96 -235t-57 -250zM417 1495l4 25q8 54 28.5 94.5t50.5 68.5t66.5 42t76.5 14q65 0 123.5 -20.5t109.5 -45.5t94 -45.5t77 -20.5q36 0 66.5 32 t40.5 98l99 10l-7 -47q-8 -51 -27 -91.5t-47.5 -69t-64.5 -43.5t-78 -15q-57 0 -117 20.5t-115.5 45.5t-104 45.5t-83.5 20.5q-17 0 -33 -4.5t-29.5 -16.5t-23.5 -33t-15 -54z" />
<glyph unicode="&#xd6;" horiz-adv-x="1346" d="M80 525l11 79q55 388 229 579.5t461 191.5q276 0 399 -137q93 -104 93 -287q0 -58 -9 -124l-11 -78q-53 -378 -225.5 -574.5t-463.5 -196.5q-279 0 -400 138q-93 105 -93 289q0 56 9 120zM277 570q-8 -59 -8 -111q0 -155 71 -253q95 -130 272 -129q76 0 151 24t134 65 q53 101 93.5 228.5t58.5 255.5l18 133q9 68 9 127q0 150 -60 240q-84 126 -283 126q-73 0 -148 -23.5t-137 -64.5q-56 -108 -96 -235t-57 -250zM508 1571q0 26 5.5 49.5t14.5 41.5t21.5 28.5t27.5 10.5q26 0 49.5 -5.5t41.5 -15.5t28.5 -22.5t10.5 -27.5q0 -27 -5.5 -50.5 t-15 -41t-22 -27.5t-27.5 -10q-27 0 -51 5.5t-41 15t-27 22t-10 27.5zM944 1571q0 26 5.5 49.5t14.5 41.5t21.5 28.5t27.5 10.5q27 0 50.5 -5.5t41 -15.5t28 -22.5t10.5 -27.5q0 -27 -5.5 -50.5t-15 -41t-22 -27.5t-27.5 -10q-27 0 -50.5 5.5t-41 15t-27.5 22t-10 27.5z" />
<glyph unicode="&#xd7;" horiz-adv-x="1001" d="M160 347l246 246l-246 247l104 104l246 -247l247 247l104 -104l-247 -247l247 -246l-104 -104l-247 246l-246 -246z" />
<glyph unicode="&#xd8;" horiz-adv-x="1346" d="M80 525l11 79q26 188 82 332t141.5 241.5t202 147.5t264.5 50q38 0 74 -3t68 -8l80 176h135l-2 -20l-87 -191q134 -57 188.5 -181.5t26.5 -320.5l-11 -78q-53 -377 -225 -574t-464 -197q-33 0 -63.5 2t-59.5 6l-78 -174h-134l2 20l83 184q-291 107 -234 509zM277 570 q-20 -149 9.5 -250t92.5 -160l495 1095q-32 11 -67.5 16t-73.5 5q-62 0 -114 -13.5t-90 -30.5q-45 -19 -81 -44q-33 -61 -62 -137q-26 -65 -51.5 -153.5t-39.5 -194.5zM491 95q57 -18 121 -18q62 0 114 13.5t90 30.5q45 19 81 45q33 63 62 140q25 66 50.5 153.5t39.5 190.5 l18 133q20 153 -3.5 250.5t-78.5 153.5z" />
<glyph unicode="&#xd9;" horiz-adv-x="1384" d="M132 1268l17 85h447l8 -85l-141 -20l-98 -702q-9 -68 -9 -127q0 -139 53 -223q76 -119 247 -119q78 0 151.5 21.5t123.5 54.5q38 63 71.5 163.5t47.5 204.5l102 727l-141 20l17 85h398l8 -85l-141 -20l-102 -730q-40 -281 -184.5 -410.5t-408.5 -129.5q-253 0 -360 126 q-80 94 -80 264q0 57 9 123l106 757zM483 1708l9 66l193 10l239 -281l-5 -32l-96 -11z" />
<glyph unicode="&#xda;" horiz-adv-x="1384" d="M132 1268l17 85h447l8 -85l-141 -20l-98 -702q-9 -68 -9 -127q0 -139 53 -223q76 -119 247 -119q78 0 151.5 21.5t123.5 54.5q38 63 71.5 163.5t47.5 204.5l102 727l-141 20l17 85h398l8 -85l-141 -20l-102 -730q-40 -281 -184.5 -410.5t-408.5 -129.5q-253 0 -360 126 q-80 94 -80 264q0 57 9 123l106 757zM704 1471l5 32l337 281l191 -10l-9 -66l-430 -248z" />
<glyph unicode="&#xdb;" horiz-adv-x="1384" d="M132 1268l17 85h447l8 -85l-141 -20l-98 -702q-9 -68 -9 -127q0 -139 53 -223q76 -119 247 -119q78 0 151.5 21.5t123.5 54.5q38 63 71.5 163.5t47.5 204.5l102 727l-141 20l17 85h398l8 -85l-141 -20l-102 -730q-40 -281 -184.5 -410.5t-408.5 -129.5q-253 0 -360 126 q-80 94 -80 264q0 57 9 123l106 757zM500 1470l5 32l323 292l132 -10l213 -282l-5 -32l-106 -10l-196 198l-273 -198z" />
<glyph unicode="&#xdc;" horiz-adv-x="1384" d="M132 1268l17 85h447l8 -85l-141 -20l-98 -702q-9 -68 -9 -127q0 -139 53 -223q76 -119 247 -119q78 0 151.5 21.5t123.5 54.5q38 63 71.5 163.5t47.5 204.5l102 727l-141 20l17 85h398l8 -85l-141 -20l-102 -730q-40 -281 -184.5 -410.5t-408.5 -129.5q-253 0 -360 126 q-80 94 -80 264q0 57 9 123l106 757zM520 1571q0 26 5.5 49.5t14.5 41.5t21.5 28.5t27.5 10.5q26 0 49.5 -5.5t41.5 -15.5t28.5 -22.5t10.5 -27.5q0 -27 -5.5 -50.5t-15 -41t-22 -27.5t-27.5 -10q-27 0 -51 5.5t-41 15t-27 22t-10 27.5zM956 1571q0 26 5.5 49.5t14.5 41.5 t21.5 28.5t27.5 10.5q27 0 50.5 -5.5t41 -15.5t28 -22.5t10.5 -27.5q0 -27 -5.5 -50.5t-15 -41t-22 -27.5t-27.5 -10q-27 0 -50.5 5.5t-41 15t-27.5 22t-10 27.5z" />
<glyph unicode="&#xdd;" horiz-adv-x="1086" d="M4 1268l17 85h401l8 -85l-111 -16l262 -530h16l394 529l-116 17l17 85h356l8 -85l-111 -20l-504 -672l-66 -471l141 -20l-17 -85h-447l-8 85l141 20l66 473l-335 670zM546 1471l5 32l337 281l191 -10l-9 -66l-430 -248z" />
<glyph unicode="&#xde;" horiz-adv-x="1030" d="M3 85l141 20l161 1143l-141 20l17 85h447l8 -85l-141 -20l-25 -176h168q213 0 314 -78.5t77 -246.5q-13 -90 -55 -159.5t-104 -116.5t-139.5 -71.5t-161.5 -24.5h-197l-38 -270l191 -20l-17 -85h-497zM386 474h152q52 0 93 5.5t70 12.5q33 8 60 18q15 27 29 60 q12 28 23.5 65.5t17.5 82.5q7 55 -2.5 101.5t-38.5 80.5t-79.5 53.5t-125.5 19.5h-129z" />
<glyph unicode="&#xdf;" horiz-adv-x="1218" d="M-275 -410l45 111q42 -15 88 -26q39 -10 86.5 -17.5t94.5 -7.5q18 25 36 65q15 34 30.5 86t26.5 125l151 1075h-189l11 84h190l9 64q13 95 47.5 171.5t91.5 130t136 82.5t183 29q75 0 139 -17t108 -55t64.5 -99.5t8.5 -150.5q-10 -72 -34 -131t-59.5 -110.5t-81.5 -98 t-100 -91.5q19 -17 41 -37q19 -17 42 -40l50 -50q34 -37 67 -77.5t56 -87.5t34 -101t2 -117q-10 -74 -41.5 -133t-81 -101t-116.5 -64.5t-148 -22.5q-66 0 -114.5 10.5t-81.5 24.5q-39 15 -66 35l32 231h93l22 -188q13 -7 31 -12q16 -5 39 -8t55 -3q31 0 56.5 5t42.5 11 q20 7 36 17q12 17 23 40q9 19 18 45.5t14 58.5q13 85 -28.5 166.5t-121.5 165.5q-30 31 -58 57.5t-50 46.5q-26 23 -48 42l9 65q64 54 113.5 105t84.5 103t56 106t29 113q16 133 -31.5 195t-151.5 62q-38 0 -67 -7.5t-49 -16.5q-23 -11 -40 -23q-14 -31 -28 -73 q-12 -36 -25.5 -90.5t-23.5 -126.5l-167 -1182q-17 -121 -50 -200.5t-79.5 -126t-105 -65t-126.5 -18.5q-51 0 -93 7t-72 16q-35 11 -64 24z" />
<glyph unicode="&#xe0;" horiz-adv-x="1158" d="M92 373l26 188q37 252 177.5 399t342.5 147q81 0 179.5 -20.5t199.5 -57.5l-129 -924l142 -20l-17 -85l-230 -22l-81 78l26 190q-78 -122 -179 -195t-206 -73q-165 0 -222 95q-38 64 -38 177q0 55 9 123zM281 178q24 -92 123 -92q84 0 175 81t167 206l85 617 q-46 16 -99 24.5t-100 8.5q-55 0 -108.5 -14t-94.5 -36q-40 -66 -72.5 -159.5t-53.5 -221.5l-19 -131q-14 -102 -14 -175q0 -65 11 -108zM419 1594l10 66l176 10l152 -363l-5 -32l-89 -10z" />
<glyph unicode="&#xe1;" horiz-adv-x="1158" d="M92 373l26 188q37 252 177.5 399t342.5 147q81 0 179.5 -20.5t199.5 -57.5l-129 -924l142 -20l-17 -85l-230 -22l-81 78l26 190q-78 -122 -179 -195t-206 -73q-165 0 -222 95q-38 64 -38 177q0 55 9 123zM281 178q24 -92 123 -92q84 0 175 81t167 206l85 617 q-46 16 -99 24.5t-100 8.5q-55 0 -108.5 -14t-94.5 -36q-40 -66 -72.5 -159.5t-53.5 -221.5l-19 -131q-14 -102 -14 -175q0 -65 11 -108zM650 1275l5 32l254 363l181 -10l-10 -66l-356 -329z" />
<glyph unicode="&#xe2;" horiz-adv-x="1158" d="M92 373l26 188q37 252 177.5 399t342.5 147q81 0 179.5 -20.5t199.5 -57.5l-129 -924l142 -20l-17 -85l-230 -22l-81 78l26 190q-78 -122 -179 -195t-206 -73q-165 0 -222 95q-38 64 -38 177q0 55 9 123zM281 178q24 -92 123 -92q84 0 175 81t167 206l85 617 q-46 16 -99 24.5t-100 8.5q-55 0 -108.5 -14t-94.5 -36q-40 -66 -72.5 -159.5t-53.5 -221.5l-19 -131q-14 -102 -14 -175q0 -65 11 -108zM379 1275l4 32l286 373l131 -10l152 -363l-4 -32l-97 -10l-149 262l-230 -262z" />
<glyph unicode="&#xe3;" horiz-adv-x="1158" d="M92 373l26 188q37 252 177.5 399t342.5 147q81 0 179.5 -20.5t199.5 -57.5l-129 -924l142 -20l-17 -85l-230 -22l-81 78l26 190q-78 -122 -179 -195t-206 -73q-165 0 -222 95q-38 64 -38 177q0 55 9 123zM281 178q24 -92 123 -92q84 0 175 81t167 206l85 617 q-46 16 -99 24.5t-100 8.5q-55 0 -108.5 -14t-94.5 -36q-40 -66 -72.5 -159.5t-53.5 -221.5l-19 -131q-14 -102 -14 -175q0 -65 11 -108zM286 1282l4 25q16 108 82.5 163.5t169.5 55.5q54 0 106.5 -20.5t101.5 -45.5t92.5 -45.5t78.5 -20.5q41 0 71.5 32t41.5 98l89 10 l-7 -47q-15 -102 -77 -160.5t-163 -58.5q-49 0 -104 20.5t-109 45.5t-103 45.5t-85 20.5q-18 0 -35.5 -4.5t-31.5 -16.5t-25 -33t-16 -54z" />
<glyph unicode="&#xe4;" horiz-adv-x="1158" d="M92 373l26 188q37 252 177.5 399t342.5 147q81 0 179.5 -20.5t199.5 -57.5l-129 -924l142 -20l-17 -85l-230 -22l-81 78l26 190q-78 -122 -179 -195t-206 -73q-165 0 -222 95q-38 64 -38 177q0 55 9 123zM281 178q24 -92 123 -92q84 0 175 81t167 206l85 617 q-46 16 -99 24.5t-100 8.5q-55 0 -108.5 -14t-94.5 -36q-40 -66 -72.5 -159.5t-53.5 -221.5l-19 -131q-14 -102 -14 -175q0 -65 11 -108zM390 1371q0 25 5 47.5t14 39.5t21 27t26 10q25 0 47.5 -5.5t39.5 -14.5t27 -21t10 -26q0 -52 -19.5 -87.5t-47.5 -35.5q-52 0 -87.5 19 t-35.5 47zM816 1371q0 25 5 47.5t14 39.5t21 27t26 10q25 0 47.5 -5.5t39.5 -14.5t27 -21t10 -26q0 -52 -19.5 -87.5t-47.5 -35.5q-52 0 -87.5 19t-35.5 47z" />
<glyph unicode="&#xe5;" horiz-adv-x="1158" d="M92 373l26 188q37 252 177.5 399t342.5 147q81 0 179.5 -20.5t199.5 -57.5l-129 -924l142 -20l-17 -85l-230 -22l-81 78l26 190q-78 -122 -179 -195t-206 -73q-165 0 -222 95q-38 64 -38 177q0 55 9 123zM281 178q24 -92 123 -92q84 0 175 81t167 206l85 617 q-46 16 -99 24.5t-100 8.5q-55 0 -108.5 -14t-94.5 -36q-40 -66 -72.5 -159.5t-53.5 -221.5l-19 -131q-14 -102 -14 -175q0 -65 11 -108zM516 1436q8 59 31 103t56 73t73 43.5t82 14.5q38 0 71 -10t55.5 -30.5t33 -52.5t4.5 -77q-9 -62 -31 -106.5t-54.5 -73t-72.5 -42 t-83 -13.5q-39 0 -72.5 10t-56 31t-32.5 53.5t-4 76.5zM626 1468q-10 -66 13 -103t62 -37q16 0 30 2.5t25 6.5q12 4 23 10q7 13 13 31q5 15 11 38t11 52q11 66 -10 103t-66 37q-13 0 -24.5 -3t-21.5 -7q-11 -4 -22 -9q-9 -11 -17 -29q-7 -15 -14.5 -37.5t-12.5 -54.5z" />
<glyph unicode="&#xe6;" horiz-adv-x="1554" d="M41 228q12 85 57.5 152t128 114t205 72.5t290.5 25.5l16 110q11 79 7.5 138t-27 98.5t-68.5 59t-118 19.5q-32 0 -60.5 -2.5t-51.5 -5.5q-26 -4 -49 -7l-90 -232h-87l40 283q41 15 91 27q43 10 102 18.5t128 8.5q131 0 218.5 -33.5t126.5 -109.5q67 72 149.5 107.5 t175.5 35.5q158 0 232 -71.5t55 -218.5q-9 -72 -44.5 -132t-91 -102.5t-130 -66.5t-161.5 -24q-61 0 -112 3t-83 7l-8 -59q-15 -104 -1.5 -175.5t44 -115.5t72 -64t82.5 -20q50 0 96 14t81 31q41 19 78 45v-86q-35 -27 -82 -47q-40 -18 -96.5 -32.5t-128.5 -14.5 q-128 0 -205 47.5t-109 138.5q-25 -24 -64.5 -56t-93 -61t-120 -49t-145.5 -20q-60 0 -110 17t-83.5 49t-49 78.5t-6.5 105.5zM225 255q-6 -48 5 -83t32.5 -58.5t50 -34.5t58.5 -11q58 0 113.5 20t100.5 45.5t75.5 49t39.5 31.5q-18 92 0 215l10 73q-116 -1 -197.5 -12 t-132.5 -25q-61 -16 -98 -37q-13 -21 -24 -47q-10 -23 -19 -54.5t-14 -71.5zM902 583q18 -1 43 -2.5t54 -2.5t59.5 -1.5t60.5 -0.5q35 0 64.5 6t49.5 14q24 9 42 20q11 22 21 49q8 23 17 55t14 71q8 66 0.5 110t-26.5 69.5t-47 36t-61 10.5q-31 0 -58 -8t-47 -17 q-24 -11 -44 -24q-30 -43 -56 -101q-23 -50 -47 -121t-39 -163z" />
<glyph unicode="&#xe7;" horiz-adv-x="926" d="M90 429l14 93q41 277 188 431t353 154q80 0 153 -13t126 -39l-56 -237l-86 -10v181q-32 14 -73 21t-86 7q-51 0 -100 -14t-85 -35q-54 -78 -91.5 -178.5t-57.5 -227.5l-17 -119q-25 -182 37.5 -278.5t171.5 -96.5q64 0 140.5 24.5t142.5 65.5v-86q-64 -43 -153 -69 q-52 -14 -107 -20l-40 -81q40 -11 73.5 -25t56 -35t32.5 -51t4 -72q-5 -38 -24.5 -70t-52 -55.5t-76.5 -37t-99 -13.5q-40 0 -73 7t-58 16q-29 11 -53 24l23 63q25 -11 52 -20q23 -8 52.5 -14t60.5 -6q20 0 36 2t27 4q12 3 22 7q5 12 9 26q4 12 7.5 27t5.5 32q5 54 -25.5 85 t-99.5 51l-36 52l42 82q-151 14 -225 108q-86 111 -55 340z" />
<glyph unicode="&#xe8;" horiz-adv-x="937" d="M89 429l13 93q37 268 173.5 426.5t338.5 158.5q161 0 234 -73q59 -59 58 -151q0 -23 -3 -48q-22 -159 -139 -251t-290 -92q-61 0 -112 3t-83 7l-8 -59q-7 -54 -8 -100q0 -111 43 -179q60 -96 164 -96q61 0 131 26.5t122 63.5v-86q-55 -41 -135.5 -67.5t-171.5 -26.5 q-190 0 -274 112q-61 81 -62 223q0 54 9 116zM291 583q56 -3 110.5 -5t106.5 -2q43 0 83.5 10.5t72.5 29.5q20 41 32.5 84.5t20.5 101.5q4 30 4 56q1 62 -23 102q-34 57 -116 57q-36 0 -75 -13t-74 -36q-46 -68 -84.5 -170t-57.5 -215zM382 1594l10 66l176 10l152 -363 l-5 -32l-89 -10z" />
<glyph unicode="&#xe9;" horiz-adv-x="937" d="M89 429l13 93q37 268 173.5 426.5t338.5 158.5q161 0 234 -73q59 -59 58 -151q0 -23 -3 -48q-22 -159 -139 -251t-290 -92q-61 0 -112 3t-83 7l-8 -59q-7 -54 -8 -100q0 -111 43 -179q60 -96 164 -96q61 0 131 26.5t122 63.5v-86q-55 -41 -135.5 -67.5t-171.5 -26.5 q-190 0 -274 112q-61 81 -62 223q0 54 9 116zM291 583q56 -3 110.5 -5t106.5 -2q43 0 83.5 10.5t72.5 29.5q20 41 32.5 84.5t20.5 101.5q4 30 4 56q1 62 -23 102q-34 57 -116 57q-36 0 -75 -13t-74 -36q-46 -68 -84.5 -170t-57.5 -215zM613 1275l5 32l254 363l181 -10 l-10 -66l-356 -329z" />
<glyph unicode="&#xea;" horiz-adv-x="937" d="M89 429l13 93q37 268 173.5 426.5t338.5 158.5q161 0 234 -73q59 -59 58 -151q0 -23 -3 -48q-22 -159 -139 -251t-290 -92q-61 0 -112 3t-83 7l-8 -59q-7 -54 -8 -100q0 -111 43 -179q60 -96 164 -96q61 0 131 26.5t122 63.5v-86q-55 -41 -135.5 -67.5t-171.5 -26.5 q-190 0 -274 112q-61 81 -62 223q0 54 9 116zM291 583q56 -3 110.5 -5t106.5 -2q43 0 83.5 10.5t72.5 29.5q20 41 32.5 84.5t20.5 101.5q4 30 4 56q1 62 -23 102q-34 57 -116 57q-36 0 -75 -13t-74 -36q-46 -68 -84.5 -170t-57.5 -215zM342 1275l4 32l286 373l131 -10 l152 -363l-4 -32l-97 -10l-149 262l-230 -262z" />
<glyph unicode="&#xeb;" horiz-adv-x="937" d="M89 429l13 93q37 268 173.5 426.5t338.5 158.5q161 0 234 -73q59 -59 58 -151q0 -23 -3 -48q-22 -159 -139 -251t-290 -92q-61 0 -112 3t-83 7l-8 -59q-7 -54 -8 -100q0 -111 43 -179q60 -96 164 -96q61 0 131 26.5t122 63.5v-86q-55 -41 -135.5 -67.5t-171.5 -26.5 q-190 0 -274 112q-61 81 -62 223q0 54 9 116zM291 583q56 -3 110.5 -5t106.5 -2q43 0 83.5 10.5t72.5 29.5q20 41 32.5 84.5t20.5 101.5q4 30 4 56q1 62 -23 102q-34 57 -116 57q-36 0 -75 -13t-74 -36q-46 -68 -84.5 -170t-57.5 -215zM353 1371q0 25 5 47.5t14 39.5t21 27 t26 10q25 0 47.5 -5.5t39.5 -14.5t27 -21t10 -26q0 -52 -19.5 -87.5t-47.5 -35.5q-52 0 -87.5 19t-35.5 47zM779 1371q0 25 5 47.5t14 39.5t21 27t26 10q25 0 47.5 -5.5t39.5 -14.5t27 -21t10 -26q0 -52 -19.5 -87.5t-47.5 -35.5q-52 0 -87.5 19t-35.5 47z" />
<glyph unicode="&#xec;" horiz-adv-x="637" d="M146 1000l17 85l231 22l81 -78l-129 -924l141 -20l-17 -85l-230 -22l-81 78l128 924zM115 1594l10 66l176 10l152 -363l-5 -32l-89 -10z" />
<glyph unicode="&#xed;" horiz-adv-x="637" d="M146 1000l17 85l231 22l81 -78l-129 -924l141 -20l-17 -85l-230 -22l-81 78l128 924zM345 1275l5 32l254 363l181 -10l-10 -66l-356 -329z" />
<glyph unicode="&#xee;" horiz-adv-x="637" d="M146 1000l17 85l231 22l81 -78l-129 -924l141 -20l-17 -85l-230 -22l-81 78l128 924zM75 1275l4 32l286 373l131 -10l152 -363l-4 -32l-97 -10l-149 262l-230 -262z" />
<glyph unicode="&#xef;" horiz-adv-x="637" d="M146 1000l17 85l231 22l81 -78l-129 -924l141 -20l-17 -85l-230 -22l-81 78l128 924zM86 1371q0 25 5 47.5t14 39.5t21 27t26 10q25 0 47.5 -5.5t39.5 -14.5t27 -21t10 -26q0 -52 -19.5 -87.5t-47.5 -35.5q-52 0 -87.5 19t-35.5 47zM512 1371q0 25 5 47.5t14 39.5t21 27 t26 10q25 0 47.5 -5.5t39.5 -14.5t27 -21t10 -26q0 -52 -19.5 -87.5t-47.5 -35.5q-52 0 -87.5 19t-35.5 47z" />
<glyph unicode="&#xf0;" horiz-adv-x="1089" d="M86 239.5q-12 83.5 4 189.5l14 93q22 145 72.5 254.5t123.5 183t163.5 110.5t191.5 37q36 0 71.5 -8.5t66.5 -27.5q-17 59 -48.5 116t-76.5 112l-279 -124l-27 84l245 109q-45 47 -97 90t-109 82l132 22q56 -29 105 -64t91 -76l265 118l27 -83l-229 -102 q65 -78 110 -167.5t70.5 -181.5t32 -184t-4.5 -175l-13 -95q-17 -121 -64 -225.5t-119 -182t-165 -122t-202 -44.5q-107 0 -181 31t-116 89t-54 141.5zM270.5 267.5q13.5 -71.5 44 -115.5t72 -64t82.5 -20q36 0 70 7.5t60 17.5q31 11 59 25q30 40 58 98q23 50 47.5 123.5 t38.5 173.5l16 119q16 116 5 191t-40 118t-71.5 59.5t-88.5 16.5q-40 0 -74 -8t-60 -17q-30 -11 -55 -24q-31 -46 -59 -107q-24 -52 -48 -127t-38 -172l-17 -119q-15 -104 -1.5 -175.5z" />
<glyph unicode="&#xf1;" horiz-adv-x="1279" d="M145 1000l17 85l231 22l81 -78l-27 -190q95 127 208.5 197.5t223.5 70.5q135 0 187 -70q37 -50 37 -141q0 -35 -6 -77l-98 -714l141 -20l-17 -85l-230 -22l-81 78l93 675q10 74 10 125.5t-10 81.5q-20 60 -94 61q-88 0 -187.5 -75t-193.5 -210l-103 -736l-176 22l135 980 zM377 1282l4 25q16 108 82.5 163.5t169.5 55.5q54 0 106.5 -20.5t101.5 -45.5t92.5 -45.5t78.5 -20.5q41 0 71.5 32t41.5 98l89 10l-7 -47q-15 -102 -77 -160.5t-163 -58.5q-49 0 -104 20.5t-109 45.5t-103 45.5t-85 20.5q-18 0 -35.5 -4.5t-31.5 -16.5t-25 -33t-16 -54z " />
<glyph unicode="&#xf2;" horiz-adv-x="1089" d="M90 429l14 93q40 271 188 428t363 157q205 0 291 -115q62 -84 63 -228q0 -54 -9 -117l-13 -95q-36 -254 -189.5 -414t-360.5 -160q-203 0 -291 113q-64 82 -65 224q0 53 9 114zM272 443q-7 -52 -7 -98q1 -113 43 -181q60 -96 161 -96q44 0 91.5 12.5t97.5 37.5 q46 60 85.5 160t58.5 235l16 119q9 66 9 120q0 103 -32 167q-49 98 -172 98q-51 0 -100.5 -14t-88.5 -35q-50 -75 -89 -182t-56 -224zM437 1594l10 66l176 10l152 -363l-5 -32l-89 -10z" />
<glyph unicode="&#xf3;" horiz-adv-x="1089" d="M90 429l14 93q40 271 188 428t363 157q205 0 291 -115q62 -84 63 -228q0 -54 -9 -117l-13 -95q-36 -254 -189.5 -414t-360.5 -160q-203 0 -291 113q-64 82 -65 224q0 53 9 114zM272 443q-7 -52 -7 -98q1 -113 43 -181q60 -96 161 -96q44 0 91.5 12.5t97.5 37.5 q46 60 85.5 160t58.5 235l16 119q9 66 9 120q0 103 -32 167q-49 98 -172 98q-51 0 -100.5 -14t-88.5 -35q-50 -75 -89 -182t-56 -224zM668 1275l5 32l254 363l181 -10l-10 -66l-356 -329z" />
<glyph unicode="&#xf4;" horiz-adv-x="1089" d="M90 429l14 93q40 271 188 428t363 157q205 0 291 -115q62 -84 63 -228q0 -54 -9 -117l-13 -95q-36 -254 -189.5 -414t-360.5 -160q-203 0 -291 113q-64 82 -65 224q0 53 9 114zM272 443q-7 -52 -7 -98q1 -113 43 -181q60 -96 161 -96q44 0 91.5 12.5t97.5 37.5 q46 60 85.5 160t58.5 235l16 119q9 66 9 120q0 103 -32 167q-49 98 -172 98q-51 0 -100.5 -14t-88.5 -35q-50 -75 -89 -182t-56 -224zM397 1275l4 32l286 373l131 -10l152 -363l-4 -32l-97 -10l-149 262l-230 -262z" />
<glyph unicode="&#xf5;" horiz-adv-x="1089" d="M90 429l14 93q40 271 188 428t363 157q205 0 291 -115q62 -84 63 -228q0 -54 -9 -117l-13 -95q-36 -254 -189.5 -414t-360.5 -160q-203 0 -291 113q-64 82 -65 224q0 53 9 114zM272 443q-7 -52 -7 -98q1 -113 43 -181q60 -96 161 -96q44 0 91.5 12.5t97.5 37.5 q46 60 85.5 160t58.5 235l16 119q9 66 9 120q0 103 -32 167q-49 98 -172 98q-51 0 -100.5 -14t-88.5 -35q-50 -75 -89 -182t-56 -224zM304 1282l4 25q16 108 82.5 163.5t169.5 55.5q54 0 106.5 -20.5t101.5 -45.5t92.5 -45.5t78.5 -20.5q41 0 71.5 32t41.5 98l89 10l-7 -47 q-15 -102 -77 -160.5t-163 -58.5q-49 0 -104 20.5t-109 45.5t-103 45.5t-85 20.5q-18 0 -35.5 -4.5t-31.5 -16.5t-25 -33t-16 -54z" />
<glyph unicode="&#xf6;" horiz-adv-x="1089" d="M90 429l14 93q40 271 188 428t363 157q205 0 291 -115q62 -84 63 -228q0 -54 -9 -117l-13 -95q-36 -254 -189.5 -414t-360.5 -160q-203 0 -291 113q-64 82 -65 224q0 53 9 114zM272 443q-7 -52 -7 -98q1 -113 43 -181q60 -96 161 -96q44 0 91.5 12.5t97.5 37.5 q46 60 85.5 160t58.5 235l16 119q9 66 9 120q0 103 -32 167q-49 98 -172 98q-51 0 -100.5 -14t-88.5 -35q-50 -75 -89 -182t-56 -224zM408 1371q0 25 5 47.5t14 39.5t21 27t26 10q25 0 47.5 -5.5t39.5 -14.5t27 -21t10 -26q0 -52 -19.5 -87.5t-47.5 -35.5q-52 0 -87.5 19 t-35.5 47zM834 1371q0 25 5 47.5t14 39.5t21 27t26 10q25 0 47.5 -5.5t39.5 -14.5t27 -21t10 -26q0 -52 -19.5 -87.5t-47.5 -35.5q-52 0 -87.5 19t-35.5 47z" />
<glyph unicode="&#xf7;" horiz-adv-x="1153" d="M160 520v147h853v-147h-853zM487 182q0 28 6.5 53t17.5 44t25.5 30t31.5 11q29 0 54 -6.5t43.5 -18t29 -26.5t10.5 -32q0 -27 -6.5 -51.5t-17.5 -43.5t-26 -30t-32 -11q-29 0 -53.5 6.5t-43 17.5t-29 25.5t-10.5 31.5zM487 947q0 28 6.5 53t17.5 44t25.5 30t31.5 11 q29 0 54 -6.5t43.5 -18t29 -26.5t10.5 -32q0 -27 -6.5 -51.5t-17.5 -43.5t-26 -30t-32 -11q-29 0 -53.5 6.5t-43 17.5t-29 25.5t-10.5 31.5z" />
<glyph unicode="&#xf8;" horiz-adv-x="1089" d="M90 429l14 93q22 145 72.5 254.5t123.5 183t163.5 110.5t191.5 37q33 0 63 -3l73 161h135l-2 -20l-79 -173q47 -22 81.5 -58t55 -88t25.5 -121.5t-7 -157.5l-13 -95q-17 -121 -64 -225.5t-119 -182t-165 -122t-202 -44.5q-46 0 -85 6l-77 -172h-134l2 20l85 189 q-95 51 -128 155t-10 253zM267.5 287.5q8.5 -64.5 31.5 -109.5l377 833q-26 6 -53 6q-40 0 -74 -8t-60 -17q-30 -11 -55 -24q-31 -46 -59 -107q-24 -52 -48 -127t-38 -172l-17 -119q-13 -91 -4.5 -155.5zM397 82q34 -14 72 -14q36 0 70 7.5t60 17.5q31 11 59 25q30 40 58 98 q23 50 47.5 123.5t38.5 173.5l16 119q15 115 5 188.5t-38 117.5z" />
<glyph unicode="&#xf9;" horiz-adv-x="1263" d="M122 1000l17 85l231 22l81 -78l-93 -675q-10 -71 -10 -122q0 -56 12 -86q22 -60 92 -60q89 0 189 75.5t190 206.5l85 612l-141 20l17 85l231 22l81 -78l-129 -924l141 -20l-17 -85l-230 -22l-81 78l26 188q-91 -123 -204 -194.5t-226 -71.5q-133 0 -186 70 q-38 50 -38 140q0 36 6 78l97 714zM417 1594l10 66l176 10l152 -363l-5 -32l-89 -10z" />
<glyph unicode="&#xfa;" horiz-adv-x="1263" d="M122 1000l17 85l231 22l81 -78l-93 -675q-10 -71 -10 -122q0 -56 12 -86q22 -60 92 -60q89 0 189 75.5t190 206.5l85 612l-141 20l17 85l231 22l81 -78l-129 -924l141 -20l-17 -85l-230 -22l-81 78l26 188q-91 -123 -204 -194.5t-226 -71.5q-133 0 -186 70 q-38 50 -38 140q0 36 6 78l97 714zM648 1275l5 32l254 363l181 -10l-10 -66l-356 -329z" />
<glyph unicode="&#xfb;" horiz-adv-x="1263" d="M122 1000l17 85l231 22l81 -78l-93 -675q-10 -71 -10 -122q0 -56 12 -86q22 -60 92 -60q89 0 189 75.5t190 206.5l85 612l-141 20l17 85l231 22l81 -78l-129 -924l141 -20l-17 -85l-230 -22l-81 78l26 188q-91 -123 -204 -194.5t-226 -71.5q-133 0 -186 70 q-38 50 -38 140q0 36 6 78l97 714zM377 1275l4 32l286 373l131 -10l152 -363l-4 -32l-97 -10l-149 262l-230 -262z" />
<glyph unicode="&#xfc;" horiz-adv-x="1263" d="M122 1000l17 85l231 22l81 -78l-93 -675q-10 -71 -10 -122q0 -56 12 -86q22 -60 92 -60q89 0 189 75.5t190 206.5l85 612l-141 20l17 85l231 22l81 -78l-129 -924l141 -20l-17 -85l-230 -22l-81 78l26 188q-91 -123 -204 -194.5t-226 -71.5q-133 0 -186 70 q-38 50 -38 140q0 36 6 78l97 714zM388 1371q0 25 5 47.5t14 39.5t21 27t26 10q25 0 47.5 -5.5t39.5 -14.5t27 -21t10 -26q0 -52 -19.5 -87.5t-47.5 -35.5q-52 0 -87.5 19t-35.5 47zM814 1371q0 25 5 47.5t14 39.5t21 27t26 10q25 0 47.5 -5.5t39.5 -14.5t27 -21t10 -26 q0 -52 -19.5 -87.5t-47.5 -35.5q-52 0 -87.5 19t-35.5 47z" />
<glyph unicode="&#xfd;" horiz-adv-x="1204" d="M94 -387l33 140q108 -40 228 -68.5t206 -28.5q84 47 148 159.5t86 273.5l21 156q-93 -127 -205.5 -197t-224.5 -70q-133 0 -186 70q-38 49 -38 140q0 36 6 78l97 714l-141 20l17 85l231 22l81 -78l-93 -675q-10 -68 -10 -118.5t10 -83.5q19 -66 94 -66q88 1 185.5 73 t193.5 210l85 611l-141 20l17 85l231 22l81 -78l-126 -900q-41 -287 -183.5 -436.5t-359.5 -149.5q-89 0 -180 19.5t-163 50.5zM650 1275l5 32l254 363l181 -10l-10 -66l-356 -329z" />
<glyph unicode="&#xfe;" horiz-adv-x="1117" d="M-96 -350l142 20l246 1765l-141 20l10 85l237 22l81 -78l-91 -645q7 11 24 35t43 54t59.5 61.5t74 57.5t86.5 43t97 17q76 0 131 -20t87.5 -66t41 -121.5t-6.5 -187.5l-26 -188q-15 -112 -56 -211.5t-106.5 -173.5t-155 -117.5t-201.5 -43.5q-54 0 -107 7.5t-101 18.5 l-46 -334l141 -20l-10 -85h-443zM285 95q25 -10 57 -17q27 -6 63 -11t80 -5q42 0 81 7.5t68 17.5q34 11 64 25q24 41 46 98q19 48 38.5 119t32.5 164l18 131q14 100 15 171.5t-13 116.5t-43.5 66t-77.5 21q-42 0 -82 -19t-76.5 -48t-68 -63.5t-55.5 -66.5t-40 -56.5 t-21 -33.5z" />
<glyph unicode="&#xff;" horiz-adv-x="1204" d="M94 -387l33 140q108 -40 228 -68.5t206 -28.5q84 47 148 159.5t86 273.5l21 156q-93 -127 -205.5 -197t-224.5 -70q-133 0 -186 70q-38 49 -38 140q0 36 6 78l97 714l-141 20l17 85l231 22l81 -78l-93 -675q-10 -68 -10 -118.5t10 -83.5q19 -66 94 -66q88 1 185.5 73 t193.5 210l85 611l-141 20l17 85l231 22l81 -78l-126 -900q-41 -287 -183.5 -436.5t-359.5 -149.5q-89 0 -180 19.5t-163 50.5zM390 1371q0 25 5 47.5t14 39.5t21 27t26 10q25 0 47.5 -5.5t39.5 -14.5t27 -21t10 -26q0 -52 -19.5 -87.5t-47.5 -35.5q-52 0 -87.5 19t-35.5 47 zM816 1371q0 25 5 47.5t14 39.5t21 27t26 10q25 0 47.5 -5.5t39.5 -14.5t27 -21t10 -26q0 -52 -19.5 -87.5t-47.5 -35.5q-52 0 -87.5 19t-35.5 47z" />
<glyph unicode="&#x100;" d="M-124 85l111 20l622 1248h149l261 -1248l112 -20l-17 -85h-417l-8 85l141 20l-64 321h-476l-157 -321l142 -20l-17 -85h-374zM338 525h408l-115 579h-10zM327 1540l19 120h771l-20 -120h-770z" />
<glyph unicode="&#x101;" horiz-adv-x="1158" d="M92 373l26 188q37 252 177.5 399t342.5 147q81 0 179.5 -20.5t199.5 -57.5l-129 -924l142 -20l-17 -85l-230 -22l-81 78l26 190q-78 -122 -179 -195t-206 -73q-165 0 -222 95q-38 64 -38 177q0 55 9 123zM281 178q24 -92 123 -92q84 0 175 81t167 206l85 617 q-46 16 -99 24.5t-100 8.5q-55 0 -108.5 -14t-94.5 -36q-40 -66 -72.5 -159.5t-53.5 -221.5l-19 -131q-14 -102 -14 -175q0 -65 11 -108zM351 1353l17 110h711l-18 -110h-710z" />
<glyph unicode="&#x102;" d="M-124 85l111 20l622 1248h149l261 -1248l112 -20l-17 -85h-417l-8 85l141 20l-64 321h-476l-157 -321l142 -20l-17 -85h-374zM338 525h408l-115 579h-10zM417 1749l78 10q-2 -14 7 -40.5t35.5 -52.5t73.5 -45t121 -19q73 0 125.5 19t86 45t50.5 52.5t19 40.5l75 -10 q-7 -50 -36.5 -99.5t-78.5 -89t-115 -64t-145 -24.5t-137.5 24.5t-96 64t-53.5 89t-9 99.5z" />
<glyph unicode="&#x103;" horiz-adv-x="1158" d="M92 373l26 188q37 252 177.5 399t342.5 147q81 0 179.5 -20.5t199.5 -57.5l-129 -924l142 -20l-17 -85l-230 -22l-81 78l26 190q-78 -122 -179 -195t-206 -73q-165 0 -222 95q-38 64 -38 177q0 55 9 123zM281 178q24 -92 123 -92q84 0 175 81t167 206l85 617 q-46 16 -99 24.5t-100 8.5q-55 0 -108.5 -14t-94.5 -36q-40 -66 -72.5 -159.5t-53.5 -221.5l-19 -131q-14 -102 -14 -175q0 -65 11 -108zM415 1592l68 10q-2 -16 7 -45.5t34 -59t67 -51t106 -21.5q61 0 109.5 21.5t82 51t52 59t20.5 45.5l66 -10q-8 -54 -37 -107t-75 -95 t-106 -68.5t-130 -26.5t-122.5 26.5t-86.5 68.5t-48.5 95t-6.5 107z" />
<glyph unicode="&#x104;" d="M-124 85l111 20l622 1248h149l261 -1248l112 -20l-17 -85h-262q-45 -28 -92.5 -63.5t-88 -76t-69 -84.5t-33.5 -89q-4 -34 13 -49t48 -15q29 0 58 12.5t53 27.5q28 18 55 40l-8 -73q-28 -25 -63 -44q-30 -17 -70.5 -30t-88.5 -13q-37 0 -65.5 7t-46.5 23.5t-25 43.5 t-1 68q12 62 50 122t93.5 116t127.5 106q63 43 131 81l-64 316h-476l-157 -321l142 -20l-17 -85h-374zM338 525h408l-115 579h-10z" />
<glyph unicode="&#x105;" horiz-adv-x="1158" d="M92 373l26 188q37 252 177.5 399t342.5 147q81 0 179.5 -20.5t199.5 -57.5l-129 -924l142 -20l-17 -85q-48 -32 -95 -69.5t-85.5 -78t-64.5 -82.5t-31 -83q-4 -34 13 -49t48 -15q29 0 58 12.5t53 27.5q28 18 55 40l-8 -73q-28 -25 -63 -44q-30 -17 -70.5 -30t-88.5 -13 q-37 0 -65.5 7t-46.5 23.5t-25 43.5t-1 68q9 55 43.5 107.5t90.5 103.5q50 45 117 88l-64 -6l-81 78l26 190q-78 -122 -179 -195t-206 -73q-165 0 -222 95t-29 300zM281 177.5q24 -91.5 123 -91.5q84 0 175 81t167 206l85 617q-46 16 -99 24.5t-100 8.5q-55 0 -108.5 -14 t-94.5 -36q-40 -66 -72.5 -159.5t-53.5 -221.5l-19 -131q-27 -192 -3 -283.5z" />
<glyph unicode="&#x106;" horiz-adv-x="1163" d="M69 515l12 89q52 380 233 575.5t481 195.5q101 0 194.5 -15.5t159.5 -43.5l-17 -270h-88l-45 203q-42 12 -107 19.5t-142 7.5q-79 0 -158 -23.5t-144 -64.5q-58 -96 -101.5 -226t-64.5 -279l-18 -133q-7 -53 -7 -100q1 -154 77 -249q100 -124 300 -124q90 0 189 27 t195 77l-15 -76q-95 -57 -213.5 -92t-233.5 -35q-283 0 -403 136q-92 105 -92 286q0 54 8 115zM691 1471l5 32l337 281l191 -10l-9 -66l-430 -248z" />
<glyph unicode="&#x107;" horiz-adv-x="926" d="M90 429l14 93q41 277 188 431t353 154q80 0 153 -13t126 -39l-56 -237l-86 -10v181q-32 14 -73 21t-86 7q-51 0 -100 -14t-85 -35q-54 -78 -91.5 -178.5t-57.5 -227.5l-17 -119q-7 -52 -7 -97q1 -114 45 -182q62 -96 171 -96q64 0 140.5 24.5t142.5 65.5v-86 q-64 -43 -153 -68.5t-184 -25.5q-195 0 -281 111q-64 82 -64 227q0 53 8 113zM623 1275l5 32l254 363l181 -10l-10 -66l-356 -329z" />
<glyph unicode="&#x108;" horiz-adv-x="1163" d="M69 515l12 89q52 380 233 575.5t481 195.5q101 0 194.5 -15.5t159.5 -43.5l-17 -270h-88l-45 203q-42 12 -107 19.5t-142 7.5q-79 0 -158 -23.5t-144 -64.5q-58 -96 -101.5 -226t-64.5 -279l-18 -133q-7 -53 -7 -100q1 -154 77 -249q100 -124 300 -124q90 0 189 27 t195 77l-15 -76q-95 -57 -213.5 -92t-233.5 -35q-283 0 -403 136q-92 105 -92 286q0 54 8 115zM487 1470l5 32l323 292l132 -10l213 -282l-5 -32l-106 -10l-196 198l-273 -198z" />
<glyph unicode="&#x109;" horiz-adv-x="926" d="M90 429l14 93q41 277 188 431t353 154q80 0 153 -13t126 -39l-56 -237l-86 -10v181q-32 14 -73 21t-86 7q-51 0 -100 -14t-85 -35q-54 -78 -91.5 -178.5t-57.5 -227.5l-17 -119q-7 -52 -7 -97q1 -114 45 -182q62 -96 171 -96q64 0 140.5 24.5t142.5 65.5v-86 q-64 -43 -153 -68.5t-184 -25.5q-195 0 -281 111q-64 82 -64 227q0 53 8 113zM352 1275l4 32l286 373l131 -10l152 -363l-4 -32l-97 -10l-149 262l-230 -262z" />
<glyph unicode="&#x10a;" horiz-adv-x="1163" d="M69 515l12 89q52 380 233 575.5t481 195.5q101 0 194.5 -15.5t159.5 -43.5l-17 -270h-88l-45 203q-42 12 -107 19.5t-142 7.5q-79 0 -158 -23.5t-144 -64.5q-58 -96 -101.5 -226t-64.5 -279l-18 -133q-7 -53 -7 -100q1 -154 77 -249q100 -124 300 -124q90 0 189 27 t195 77l-15 -76q-95 -57 -213.5 -92t-233.5 -35q-283 0 -403 136q-92 105 -92 286q0 54 8 115zM752 1599q4 27 14.5 51t26 42t33.5 28.5t37 10.5q27 0 50 -7.5t39 -20t24 -30t5 -36.5q-4 -26 -14.5 -50t-26 -42t-33.5 -28.5t-37 -10.5q-27 0 -50 7.5t-39 20t-24 29.5t-5 36z " />
<glyph unicode="&#x10b;" horiz-adv-x="926" d="M90 429l14 93q41 277 188 431t353 154q80 0 153 -13t126 -39l-56 -237l-86 -10v181q-32 14 -73 21t-86 7q-51 0 -100 -14t-85 -35q-54 -78 -91.5 -178.5t-57.5 -227.5l-17 -119q-7 -52 -7 -97q1 -114 45 -182q62 -96 171 -96q64 0 140.5 24.5t142.5 65.5v-86 q-64 -43 -153 -68.5t-184 -25.5q-195 0 -281 111q-64 82 -64 227q0 53 8 113zM593 1410q0 26 5.5 49.5t15 41.5t22 28.5t27.5 10.5q26 0 49.5 -5.5t41.5 -15t28.5 -22.5t10.5 -27q0 -27 -5.5 -51t-15 -41.5t-22.5 -27.5t-27 -10q-27 0 -51 5.5t-41.5 15t-27.5 22t-10 27.5z " />
<glyph unicode="&#x10c;" horiz-adv-x="1163" d="M69 515l12 89q52 380 233 575.5t481 195.5q101 0 194.5 -15.5t159.5 -43.5l-17 -270h-88l-45 203q-42 12 -107 19.5t-142 7.5q-79 0 -158 -23.5t-144 -64.5q-58 -96 -101.5 -226t-64.5 -279l-18 -133q-7 -53 -7 -100q1 -154 77 -249q100 -124 300 -124q90 0 189 27 t195 77l-15 -76q-95 -57 -213.5 -92t-233.5 -35q-283 0 -403 136q-92 105 -92 286q0 54 8 115zM538 1752l5 32l105 10l198 -202l271 202l94 -10l-5 -32l-324 -292l-132 10z" />
<glyph unicode="&#x10d;" horiz-adv-x="926" d="M90 429l14 93q41 277 188 431t353 154q80 0 153 -13t126 -39l-56 -237l-86 -10v181q-32 14 -73 21t-86 7q-51 0 -100 -14t-85 -35q-54 -78 -91.5 -178.5t-57.5 -227.5l-17 -119q-7 -52 -7 -97q1 -114 45 -182q62 -96 171 -96q64 0 140.5 24.5t142.5 65.5v-86 q-64 -43 -153 -68.5t-184 -25.5q-195 0 -281 111q-64 82 -64 227q0 53 8 113zM436 1628l4 32l97 10l141 -262l238 262l93 -10l-4 -32l-286 -373l-131 10z" />
<glyph unicode="&#x10e;" horiz-adv-x="1335" d="M8 85l141 20l161 1143l-141 20l17 85h546q300 0 431 -153q100 -117 100 -321q0 -64 -10 -137l-12 -88q-44 -310 -218.5 -482t-441.5 -172h-565zM338 99h216q74 0 148.5 16t135.5 43q68 69 127 187.5t82 276.5l13 94q9 68 9 128q-1 168 -73 270q-98 140 -322 140h-173z M422 1752l5 32l105 10l198 -202l271 202l94 -10l-5 -32l-324 -292l-132 10z" />
<glyph unicode="&#x10f;" d="M92 373l26 188q37 257 176 401.5t344 144.5q49 0 101.5 -7t105.5 -19l49 354l-141 20l17 85l230 22l81 -78l-193 -1379l142 -20l-17 -85l-230 -22l-81 78l26 190q-80 -122 -179.5 -195t-202.5 -73q-170 0 -226 96q-38 65 -37 177q0 55 9 122zM284 167q30 -81 120 -81 q84 0 175.5 81.5t166.5 206.5l86 616q-38 14 -92.5 23.5t-107.5 9.5q-54 0 -108 -14t-95 -36q-40 -65 -75.5 -169t-50.5 -212l-19 -131q-15 -107 -15 -181q0 -73 15 -113zM1179 1157l53 383h166l-5 -42l-111 -341h-103z" />
<glyph unicode="&#x110;" horiz-adv-x="1335" d="M-3 640l15 110h228l70 498l-141 20l17 85h546q300 0 431 -153t90 -458l-12 -88q-44 -310 -218.5 -482t-441.5 -172h-565l-8 85l141 20l75 535h-227zM338 99h216q74 0 148.5 16t135.5 43q68 69 127 187.5t82 276.5l13 94q35 259 -63.5 398.5t-322.5 139.5h-173l-71 -504 h238l-15 -110h-239z" />
<glyph unicode="&#x111;" d="M92 373l26 188q37 257 176 401.5t344 144.5q49 0 101.5 -7t105.5 -19l21 150h-371l14 97h370l15 107l-141 20l17 85l230 22l81 -78l-21 -156h142l-14 -97h-142l-158 -1126l142 -20l-17 -85l-230 -22l-81 78l26 190q-80 -122 -179.5 -195t-202.5 -73q-169 0 -225.5 96.5 t-28.5 298.5zM283.5 167q29.5 -81 120.5 -81q84 0 175.5 81.5t166.5 206.5l86 616q-38 14 -92.5 23.5t-107.5 9.5q-54 0 -108 -14t-95 -36q-40 -65 -75.5 -169t-50.5 -212l-19 -131q-30 -213 -0.5 -294z" />
<glyph unicode="&#x112;" horiz-adv-x="1165" d="M2 85l141 20l161 1143l-141 20l17 85h943l-19 -300h-86l-40 201h-483l-70 -497h386l40 137l83 -20l-52 -355l-87 -5v144h-384l-79 -559h511l105 203l80 -13l-66 -289h-952zM329 1540l19 120h771l-20 -120h-770z" />
<glyph unicode="&#x113;" horiz-adv-x="937" d="M89 429l13 93q37 268 173.5 426.5t338.5 158.5q161 0 234 -73q59 -59 58 -151q0 -23 -3 -48q-22 -159 -139 -251t-290 -92q-61 0 -112 3t-83 7l-8 -59q-7 -54 -8 -100q0 -111 43 -179q60 -96 164 -96q61 0 131 26.5t122 63.5v-86q-55 -41 -135.5 -67.5t-171.5 -26.5 q-190 0 -274 112q-61 81 -62 223q0 54 9 116zM291 583q56 -3 110.5 -5t106.5 -2q43 0 83.5 10.5t72.5 29.5q20 41 32.5 84.5t20.5 101.5q4 30 4 56q1 62 -23 102q-34 57 -116 57q-36 0 -75 -13t-74 -36q-46 -68 -84.5 -170t-57.5 -215zM314 1353l17 110h711l-18 -110h-710z " />
<glyph unicode="&#x114;" horiz-adv-x="1165" d="M2 85l141 20l161 1143l-141 20l17 85h943l-19 -300h-86l-40 201h-483l-70 -497h386l40 137l83 -20l-52 -355l-87 -5v144h-384l-79 -559h511l105 203l80 -13l-66 -289h-952zM419 1749l78 10q-2 -14 7 -40.5t35.5 -52.5t73.5 -45t121 -19q73 0 125.5 19t86 45t50.5 52.5 t19 40.5l75 -10q-7 -50 -36.5 -99.5t-78.5 -89t-115 -64t-145 -24.5t-137.5 24.5t-96 64t-53.5 89t-9 99.5z" />
<glyph unicode="&#x115;" horiz-adv-x="937" d="M89 429l13 93q37 268 173.5 426.5t338.5 158.5q161 0 234 -73q59 -59 58 -151q0 -23 -3 -48q-22 -159 -139 -251t-290 -92q-61 0 -112 3t-83 7l-8 -59q-7 -54 -8 -100q0 -111 43 -179q60 -96 164 -96q61 0 131 26.5t122 63.5v-86q-55 -41 -135.5 -67.5t-171.5 -26.5 q-190 0 -274 112q-61 81 -62 223q0 54 9 116zM291 583q56 -3 110.5 -5t106.5 -2q43 0 83.5 10.5t72.5 29.5q20 41 32.5 84.5t20.5 101.5q4 30 4 56q1 62 -23 102q-34 57 -116 57q-36 0 -75 -13t-74 -36q-46 -68 -84.5 -170t-57.5 -215zM378 1592l68 10q-2 -16 7 -45.5 t34 -59t67 -51t106 -21.5q61 0 109.5 21.5t82 51t52 59t20.5 45.5l66 -10q-8 -54 -37 -107t-75 -95t-106 -68.5t-130 -26.5t-122.5 26.5t-86.5 68.5t-48.5 95t-6.5 107z" />
<glyph unicode="&#x116;" horiz-adv-x="1165" d="M2 85l141 20l161 1143l-141 20l17 85h943l-19 -300h-86l-40 201h-483l-70 -497h386l40 137l83 -20l-52 -355l-87 -5v144h-384l-79 -559h511l105 203l80 -13l-66 -289h-952zM634 1599q4 27 14.5 51t26 42t33.5 28.5t37 10.5q27 0 50 -7.5t39 -20t24 -30t5 -36.5 q-4 -26 -14.5 -50t-26 -42t-33.5 -28.5t-37 -10.5q-27 0 -50 7.5t-39 20t-24 29.5t-5 36z" />
<glyph unicode="&#x117;" horiz-adv-x="937" d="M89 429l13 93q37 268 173.5 426.5t338.5 158.5q161 0 234 -73q59 -59 58 -151q0 -23 -3 -48q-22 -159 -139 -251t-290 -92q-61 0 -112 3t-83 7l-8 -59q-7 -54 -8 -100q0 -111 43 -179q60 -96 164 -96q61 0 131 26.5t122 63.5v-86q-55 -41 -135.5 -67.5t-171.5 -26.5 q-190 0 -274 112q-61 81 -62 223q0 54 9 116zM291 583q56 -3 110.5 -5t106.5 -2q43 0 83.5 10.5t72.5 29.5q20 41 32.5 84.5t20.5 101.5q4 30 4 56q1 62 -23 102q-34 57 -116 57q-36 0 -75 -13t-74 -36q-46 -68 -84.5 -170t-57.5 -215zM583 1410q0 26 5.5 49.5t15 41.5 t22 28.5t27.5 10.5q26 0 49.5 -5.5t41.5 -15t28.5 -22.5t10.5 -27q0 -27 -5.5 -51t-15 -41.5t-22.5 -27.5t-27 -10q-27 0 -51 5.5t-41.5 15t-27.5 22t-10 27.5z" />
<glyph unicode="&#x118;" horiz-adv-x="1165" d="M2 85l141 20l161 1143l-141 20l17 85h943l-19 -300h-86l-40 201h-483l-70 -497h386l40 137l83 -20l-52 -355l-87 -5v144h-384l-79 -559h511l105 203l80 -13l-66 -289q-45 -28 -92.5 -63.5t-88 -76t-69 -84.5t-33.5 -89q-4 -34 13 -49t48 -15q29 0 58 12.5t53 27.5 q28 18 55 40l-8 -73q-28 -25 -63 -44q-30 -17 -70.5 -30t-88.5 -13q-37 0 -65.5 7t-47 23.5t-25.5 43.5t0 68q9 51 46 106t94 109q55 52 124 100h-792z" />
<glyph unicode="&#x119;" horiz-adv-x="937" d="M89 429l13 93q37 268 173.5 426.5t338.5 158.5q161 0 234 -73t55 -199q-22 -159 -139 -251t-290 -92q-61 0 -112 3t-83 7l-8 -59q-25 -182 35 -278.5t164 -96.5q61 0 131 26q48 19 88 42l34 22v-86l-12 -8q-43 -33 -85 -75q-48 -48 -88 -100t-66.5 -104.5t-31.5 -97.5 q-4 -34 13 -49t48 -15q29 0 58 12.5t53 27.5q28 18 55 40l-8 -73q-28 -25 -63 -44q-30 -17 -70.5 -30t-88.5 -13q-37 0 -65.5 7t-47 23.5t-25.5 43.5t0 68q9 56 47 117.5t95 123.5q26 29 56 58q-39 -6 -81 -6q-190 0 -274.5 112t-52.5 339zM291 583q56 -3 110.5 -5t106.5 -2 q43 0 83.5 10.5t72.5 29.5q20 41 32.5 84.5t20.5 101.5q14 101 -19.5 158t-115.5 57q-36 0 -75 -13t-74 -36q-46 -68 -84.5 -170t-57.5 -215z" />
<glyph unicode="&#x11a;" horiz-adv-x="1165" d="M2 85l141 20l161 1143l-141 20l17 85h943l-19 -300h-86l-40 201h-483l-70 -497h386l40 137l83 -20l-52 -355l-87 -5v144h-384l-79 -559h511l105 203l80 -13l-66 -289h-952zM420 1752l5 32l105 10l198 -202l271 202l94 -10l-5 -32l-324 -292l-132 10z" />
<glyph unicode="&#x11b;" horiz-adv-x="937" d="M89 429l13 93q37 268 173.5 426.5t338.5 158.5q161 0 234 -73q59 -59 58 -151q0 -23 -3 -48q-22 -159 -139 -251t-290 -92q-61 0 -112 3t-83 7l-8 -59q-7 -54 -8 -100q0 -111 43 -179q60 -96 164 -96q61 0 131 26.5t122 63.5v-86q-55 -41 -135.5 -67.5t-171.5 -26.5 q-190 0 -274 112q-61 81 -62 223q0 54 9 116zM291 583q56 -3 110.5 -5t106.5 -2q43 0 83.5 10.5t72.5 29.5q20 41 32.5 84.5t20.5 101.5q4 30 4 56q1 62 -23 102q-34 57 -116 57q-36 0 -75 -13t-74 -36q-46 -68 -84.5 -170t-57.5 -215zM426 1628l4 32l97 10l141 -262 l238 262l93 -10l-4 -32l-286 -373l-131 10z" />
<glyph unicode="&#x11c;" horiz-adv-x="1275" d="M71 505l13 89q55 378 240 579.5t482 201.5q100 0 191.5 -14.5t163.5 -42.5l-17 -270h-88l-45 201q-53 13 -117.5 20t-128.5 7q-81 0 -163.5 -24t-149.5 -64q-59 -98 -101.5 -223t-64.5 -282l-18 -133q-6 -48 -6 -92q0 -161 84 -258q108 -123 270 -123q48 0 100 9.5 t100 25.5l60 429l-141 20l17 85h447l8 -85l-141 -20l-61 -436q-104 -59 -224.5 -93t-232.5 -34q-263 0 -388 135q-97 105 -97 283q0 52 8 109zM479 1470l5 32l323 292l132 -10l213 -282l-5 -32l-106 -10l-196 198l-273 -198z" />
<glyph unicode="&#x11d;" horiz-adv-x="1114" d="M6 -387l33 140q119 -44 236.5 -70.5t197.5 -26.5q90 52 151.5 165t82.5 268l21 156q-83 -125 -181.5 -196t-199.5 -71q-174 0 -228 100q-36 66 -36 173q0 55 10 122l26 188q35 246 174.5 396t345.5 150q85 0 187 -22t192 -56l-126 -900q-40 -288 -183.5 -437t-359.5 -149 q-93 0 -186.5 21t-156.5 49zM284 168q29 -82 121 -82q80 0 170 76.5t171 209.5l86 618q-40 14 -94 23.5t-105 9.5q-56 0 -110 -14t-93 -36q-43 -69 -77 -173t-49 -208l-19 -131q-15 -107 -15 -181q0 -71 14 -112zM367 1275l4 32l286 373l131 -10l152 -363l-4 -32l-97 -10 l-149 262l-230 -262z" />
<glyph unicode="&#x11e;" horiz-adv-x="1275" d="M71 505l13 89q55 378 240 579.5t482 201.5q100 0 191.5 -14.5t163.5 -42.5l-17 -270h-88l-45 201q-53 13 -117.5 20t-128.5 7q-81 0 -163.5 -24t-149.5 -64q-59 -98 -101.5 -223t-64.5 -282l-18 -133q-6 -48 -6 -92q0 -161 84 -258q108 -123 270 -123q48 0 100 9.5 t100 25.5l60 429l-141 20l17 85h447l8 -85l-141 -20l-61 -436q-104 -59 -224.5 -93t-232.5 -34q-263 0 -388 135q-97 105 -97 283q0 52 8 109zM529 1749l78 10q-2 -14 7 -40.5t35.5 -52.5t73.5 -45t121 -19q73 0 125.5 19t86 45t50.5 52.5t19 40.5l75 -10 q-7 -50 -36.5 -99.5t-78.5 -89t-115 -64t-145 -24.5t-137.5 24.5t-96 64t-53.5 89t-9 99.5z" />
<glyph unicode="&#x11f;" horiz-adv-x="1114" d="M6 -387l33 140q119 -44 236.5 -70.5t197.5 -26.5q90 52 151.5 165t82.5 268l21 156q-83 -125 -181.5 -196t-199.5 -71q-174 0 -228 100q-36 66 -36 173q0 55 10 122l26 188q35 246 174.5 396t345.5 150q85 0 187 -22t192 -56l-126 -900q-40 -288 -183.5 -437t-359.5 -149 q-93 0 -186.5 21t-156.5 49zM284 168q29 -82 121 -82q80 0 170 76.5t171 209.5l86 618q-40 14 -94 23.5t-105 9.5q-56 0 -110 -14t-93 -36q-43 -69 -77 -173t-49 -208l-19 -131q-15 -107 -15 -181q0 -71 14 -112zM403 1592l68 10q-2 -16 7 -45.5t34 -59t67 -51t106 -21.5 q61 0 109.5 21.5t82 51t52 59t20.5 45.5l66 -10q-8 -54 -37 -107t-75 -95t-106 -68.5t-130 -26.5t-122.5 26.5t-86.5 68.5t-48.5 95t-6.5 107z" />
<glyph unicode="&#x120;" horiz-adv-x="1275" d="M71 505l13 89q55 378 240 579.5t482 201.5q100 0 191.5 -14.5t163.5 -42.5l-17 -270h-88l-45 201q-53 13 -117.5 20t-128.5 7q-81 0 -163.5 -24t-149.5 -64q-59 -98 -101.5 -223t-64.5 -282l-18 -133q-6 -48 -6 -92q0 -161 84 -258q108 -123 270 -123q48 0 100 9.5 t100 25.5l60 429l-141 20l17 85h447l8 -85l-141 -20l-61 -436q-104 -59 -224.5 -93t-232.5 -34q-263 0 -388 135q-97 105 -97 283q0 52 8 109zM744 1599q4 27 14.5 51t26 42t33.5 28.5t37 10.5q27 0 50 -7.5t39 -20t24 -30t5 -36.5q-4 -26 -14.5 -50t-26 -42t-33.5 -28.5 t-37 -10.5q-27 0 -50 7.5t-39 20t-24 29.5t-5 36z" />
<glyph unicode="&#x121;" horiz-adv-x="1114" d="M6 -387l33 140q119 -44 236.5 -70.5t197.5 -26.5q90 52 151.5 165t82.5 268l21 156q-83 -125 -181.5 -196t-199.5 -71q-174 0 -228 100q-36 66 -36 173q0 55 10 122l26 188q35 246 174.5 396t345.5 150q85 0 187 -22t192 -56l-126 -900q-40 -288 -183.5 -437t-359.5 -149 q-93 0 -186.5 21t-156.5 49zM284 168q29 -82 121 -82q80 0 170 76.5t171 209.5l86 618q-40 14 -94 23.5t-105 9.5q-56 0 -110 -14t-93 -36q-43 -69 -77 -173t-49 -208l-19 -131q-15 -107 -15 -181q0 -71 14 -112zM608 1410q0 26 5.5 49.5t15 41.5t22 28.5t27.5 10.5 q26 0 49.5 -5.5t41.5 -15t28.5 -22.5t10.5 -27q0 -27 -5.5 -51t-15 -41.5t-22.5 -27.5t-27 -10q-27 0 -51 5.5t-41.5 15t-27.5 22t-10 27.5z" />
<glyph unicode="&#x122;" horiz-adv-x="1275" d="M71 505l13 89q55 378 240 579.5t482 201.5q100 0 191.5 -14.5t163.5 -42.5l-17 -270h-88l-45 201q-53 13 -117.5 20t-128.5 7q-81 0 -163.5 -24t-149.5 -64q-59 -98 -101.5 -223t-64.5 -282l-18 -133q-6 -48 -6 -92q0 -161 84 -258q108 -123 270 -123q48 0 100 9.5 t100 25.5l60 429l-141 20l17 85h447l8 -85l-141 -20l-61 -436q-104 -59 -224.5 -93t-232.5 -34q-263 0 -388 135q-97 105 -97 283q0 52 8 109zM404 -534l53 383h166l-5 -42l-111 -341h-103z" />
<glyph unicode="&#x123;" horiz-adv-x="1114" d="M6 -387l33 140q119 -44 236.5 -70.5t197.5 -26.5q90 52 151.5 165t82.5 268l21 156q-83 -125 -181.5 -196t-199.5 -71q-174 0 -228 100q-36 66 -36 173q0 55 10 122l26 188q35 246 174.5 396t345.5 150q85 0 187 -22t192 -56l-126 -900q-40 -288 -183.5 -437t-359.5 -149 q-93 0 -186.5 21t-156.5 49zM284 168q29 -82 121 -82q80 0 170 76.5t171 209.5l86 618q-40 14 -94 23.5t-105 9.5q-56 0 -110 -14t-93 -36q-43 -69 -77 -173t-49 -208l-19 -131q-15 -107 -15 -181q0 -71 14 -112zM634 1265l53 383h166l-5 -42l-111 -341h-103z" />
<glyph unicode="&#x124;" horiz-adv-x="1451" d="M4 85l141 20l161 1143l-141 20l17 85h447l8 -85l-141 -20l-68 -480h624l68 480l-141 20l17 85h447l8 -85l-141 -20l-161 -1143l141 -20l-17 -85h-447l-8 85l141 20l79 564h-624l-79 -564l141 -20l-17 -85h-447zM517 1470l5 32l323 292l132 -10l213 -282l-5 -32l-106 -10 l-196 198l-273 -198z" />
<glyph unicode="&#x125;" horiz-adv-x="1263" d="M132 0l200 1435l-141 20l17 85l230 22l81 -78l-90 -646q90 123 204 196t228 73q135 0 187 -70q38 -50 37 -140q0 -36 -6 -78l-98 -714l142 -20l-17 -85l-230 -22l-82 78l93 675q10 72 10 123q0 50 -10 82q-20 62 -94 63q-88 0 -187.5 -75t-193.5 -210l-102 -736zM86 1680 l5 32l323 292l132 -10l213 -282l-5 -32l-106 -10l-196 198l-273 -198z" />
<glyph unicode="&#x126;" horiz-adv-x="1451" d="M4 85l141 20l122 869h-157l15 110h158l23 164l-141 20l17 85h447l8 -85l-141 -20l-24 -164h624l24 164l-141 20l17 85h447l8 -85l-141 -20l-23 -164h146l-15 -110h-147l-122 -869l141 -20l-17 -85h-447l-8 85l141 20l79 564h-624l-79 -564l141 -20l-17 -85h-447zM428 768 h624l29 206h-624z" />
<glyph unicode="&#x127;" horiz-adv-x="1263" d="M84 1236l17 117h219l12 82l-141 20l17 85l230 22l81 -78l-18 -131h293l-17 -117h-293l-55 -398q90 123 204 196t228 73q134 0 186.5 -70t31.5 -218l-98 -714l142 -20l-17 -85l-230 -22l-82 78l93 675q20 143 0 205.5t-94 62.5q-88 0 -187.5 -75t-193.5 -210l-102 -736 l-178 22l172 1236h-220z" />
<glyph unicode="&#x128;" horiz-adv-x="637" d="M4 85l141 20l161 1143l-141 20l17 85h447l8 -85l-141 -20l-161 -1143l141 -20l-17 -85h-447zM18 1495l4 25q8 54 28.5 94.5t50.5 68.5t66.5 42t76.5 14q65 0 123.5 -20.5t109.5 -45.5t94 -45.5t77 -20.5q36 0 66.5 32t40.5 98l99 10l-7 -47q-8 -51 -27 -91.5t-47.5 -69 t-64.5 -43.5t-78 -15q-57 0 -117 20.5t-115.5 45.5t-104 45.5t-83.5 20.5q-17 0 -33 -4.5t-29.5 -16.5t-23.5 -33t-15 -54z" />
<glyph unicode="&#x129;" horiz-adv-x="637" d="M146 1000l17 85l231 22l81 -78l-129 -924l141 -20l-17 -85l-230 -22l-81 78l128 924zM-18 1282l4 25q16 108 82.5 163.5t169.5 55.5q54 0 106.5 -20.5t101.5 -45.5t92.5 -45.5t78.5 -20.5q41 0 71.5 32t41.5 98l89 10l-7 -47q-15 -102 -77 -160.5t-163 -58.5 q-49 0 -104 20.5t-109 45.5t-103 45.5t-85 20.5q-18 0 -35.5 -4.5t-31.5 -16.5t-25 -33t-16 -54z" />
<glyph unicode="&#x12a;" horiz-adv-x="637" d="M4 85l141 20l161 1143l-141 20l17 85h447l8 -85l-141 -20l-161 -1143l141 -20l-17 -85h-447zM49 1540l19 120h771l-20 -120h-770z" />
<glyph unicode="&#x12b;" horiz-adv-x="637" d="M146 1000l17 85l231 22l81 -78l-129 -924l141 -20l-17 -85l-230 -22l-81 78l128 924zM47 1353l17 110h711l-18 -110h-710z" />
<glyph unicode="&#x12c;" horiz-adv-x="637" d="M4 85l141 20l161 1143l-141 20l17 85h447l8 -85l-141 -20l-161 -1143l141 -20l-17 -85h-447zM139 1749l78 10q-2 -14 7 -40.5t35.5 -52.5t73.5 -45t121 -19q73 0 125.5 19t86 45t50.5 52.5t19 40.5l75 -10q-7 -50 -36.5 -99.5t-78.5 -89t-115 -64t-145 -24.5t-137.5 24.5 t-96 64t-53.5 89t-9 99.5z" />
<glyph unicode="&#x12d;" horiz-adv-x="637" d="M146 1000l17 85l231 22l81 -78l-129 -924l141 -20l-17 -85l-230 -22l-81 78l128 924zM111 1592l68 10q-2 -16 7 -45.5t34 -59t67 -51t106 -21.5q61 0 109.5 21.5t82 51t52 59t20.5 45.5l66 -10q-8 -54 -37 -107t-75 -95t-106 -68.5t-130 -26.5t-122.5 26.5t-86.5 68.5 t-48.5 95t-6.5 107z" />
<glyph unicode="&#x12e;" horiz-adv-x="637" d="M-122 -315q9 54 46 108.5t94 107.5q54 51 123 99h-129l-8 85l141 20l161 1143l-141 20l17 85h447l8 -85l-141 -20l-161 -1143l141 -20l-17 -85h-157q-45 -28 -92.5 -63.5t-88 -76t-69 -84.5t-33.5 -89q-4 -34 13 -49t48 -15q29 0 58 12.5t53 27.5q28 18 55 40l-8 -73 q-28 -25 -63 -44q-30 -17 -70.5 -30t-88.5 -13q-37 0 -65.5 7t-46.5 23.5t-25 43.5t-1 68z" />
<glyph unicode="&#x12f;" horiz-adv-x="637" d="M53 -315q9 55 43.5 107.5t90.5 102.5q51 46 118 90l-65 -7l-81 78l128 924l-141 20l17 85l231 22l81 -78l-129 -924l141 -20l-17 -85q-48 -32 -95 -69.5t-85.5 -78t-64.5 -82.5t-31 -83q-4 -34 13 -49t48 -15q29 0 58 12.5t53 27.5q28 18 55 40l-8 -73q-28 -25 -63 -44 q-30 -17 -70.5 -30t-88.5 -13q-37 0 -65.5 7t-46.5 23.5t-25 43.5t-1 68zM326 1410q0 52 20.5 91t49.5 39q51 0 90.5 -20.5t39.5 -49.5q0 -55 -21 -92.5t-49 -37.5q-55 0 -92.5 20.5t-37.5 49.5z" />
<glyph unicode="&#x130;" horiz-adv-x="637" d="M4 85l141 20l161 1143l-141 20l17 85h447l8 -85l-141 -20l-161 -1143l141 -20l-17 -85h-447zM354 1599q4 27 14.5 51t26 42t33.5 28.5t37 10.5q27 0 50 -7.5t39 -20t24 -30t5 -36.5q-4 -26 -14.5 -50t-26 -42t-33.5 -28.5t-37 -10.5q-27 0 -50 7.5t-39 20t-24 29.5t-5 36 z" />
<glyph unicode="&#x131;" horiz-adv-x="637" d="M146 1000l17 85l231 22l81 -78l-129 -924l141 -20l-17 -85l-230 -22l-81 78l128 924z" />
<glyph unicode="&#x132;" horiz-adv-x="1527" d="M4 85l141 20l161 1143l-141 20l17 85h447l8 -85l-141 -20l-161 -1143l141 -20l-17 -85h-447zM673 31l16 260h86l46 -204q16 -4 41.5 -7.5t50.5 -3.5q24 0 50.5 5t52.5 16q20 42 39 111.5t32 160.5l123 879l-191 20l17 85h497l8 -85l-141 -20l-128 -912 q-24 -174 -120 -266t-256 -92q-58 0 -117 14t-106 39z" />
<glyph unicode="&#x133;" horiz-adv-x="1216" d="M146 1000l17 85l231 22l81 -78l-129 -924l141 -20l-17 -85l-230 -22l-81 78l128 924zM326 1410q0 52 20.5 91t49.5 39q51 0 90.5 -20.5t39.5 -49.5q0 -55 -21 -92.5t-49 -37.5q-55 0 -92.5 20.5t-37.5 49.5zM369 -410l45 111q75 -24 147 -37.5t127 -13.5q29 43 51 109 t35 155l147 1066l-141 20l17 85l231 22l81 -78l-152 -1076q-31 -215 -116.5 -312.5t-242.5 -97.5q-62 0 -124 14t-105 33zM960 1410q0 52 20.5 91t49.5 39q51 0 90.5 -20.5t39.5 -49.5q0 -55 -21 -92.5t-49 -37.5q-55 0 -92.5 20.5t-37.5 49.5z" />
<glyph unicode="&#x134;" horiz-adv-x="890" d="M36 31l16 260h86l46 -204q16 -4 41.5 -7.5t50.5 -3.5q24 0 50.5 5t52.5 16q20 42 39 111.5t32 160.5l123 879l-191 20l17 85h497l8 -85l-141 -20l-128 -912q-24 -174 -120 -266t-256 -92q-58 0 -117 14t-106 39zM344 1470l5 32l323 292l132 -10l213 -282l-5 -32l-106 -10 l-196 198l-273 -198z" />
<glyph unicode="&#x135;" horiz-adv-x="579" d="M-268 -410l45 111q43 -15 90 -26q40 -10 88.5 -17.5t95.5 -7.5q18 26 34 64q14 32 28 81.5t24 118.5l147 1066l-141 20l17 85l231 22l81 -78l-152 -1076q-17 -119 -49.5 -198t-78.5 -126t-104.5 -66.5t-126.5 -19.5q-48 0 -90 7t-73 16q-36 11 -66 24zM79 1275l4 32 l286 373l131 -10l152 -363l-4 -32l-97 -10l-149 262l-230 -262z" />
<glyph unicode="&#x136;" horiz-adv-x="1272" d="M4 85l141 20l161 1143l-141 20l17 85h447l8 -85l-141 -20l-84 -594l13 -6l627 600l-109 20l17 85h354l8 -85l-91 -20l-508 -481l383 -662l112 -20l-17 -85h-248l-368 637l-202 -191l-48 -341l141 -20l-17 -85h-447zM434 -534l53 383h166l-5 -42l-111 -341h-103z" />
<glyph unicode="&#x137;" horiz-adv-x="1110" d="M132 0l200 1435l-141 20l17 85l231 22l81 -78l-125 -897q77 34 149 79.5t136.5 97.5t121 109t101.5 115l-84 12l17 85l148 22l104 -98q-29 -42 -71 -91.5t-95.5 -101.5t-117.5 -104.5t-137 -101.5l250 -506l141 -19l-17 -85l-213 -22l-81 78l-231 465q-33 -17 -68 -33.5 t-71 -30.5l-67 -479zM358 -534l53 383h166l-5 -42l-111 -341h-103z" />
<glyph unicode="&#x138;" horiz-adv-x="1206" d="M55 85l141 20l122 875l-140 20l17 85l231 22l81 -78l-70 -493l8 -3q42 0 81 24.5t76 65t73 92t72.5 105.5t75.5 105.5t81 92t88.5 65t99.5 24.5q28 0 51.5 -7.5t39.5 -21t24 -32.5t5 -42t-12 -45t-22.5 -39t-31.5 -27.5t-38 -10.5q-36 0 -60 12t-49 34q-20 0 -46.5 -28 t-59 -73t-70.5 -100.5t-82 -109.5l264 -513l141 -19l-17 -85l-213 -22l-82 78l-221 427q-45 -37 -94 -59t-101 -22l-43 -297l141 -20l-17 -85h-436z" />
<glyph unicode="&#x139;" horiz-adv-x="976" d="M6 85l141 20l161 1143l-141 20l17 85h477l8 -85l-171 -20l-162 -1149h361l110 213l81 -12l-68 -300h-806zM302 1471l5 32l337 281l191 -10l-9 -66l-430 -248z" />
<glyph unicode="&#x13a;" horiz-adv-x="620" d="M142 56l192 1379l-141 20l17 85l231 22l81 -78l-193 -1379l141 -20l-17 -85l-230 -22zM304 1681l5 32l337 281l191 -10l-9 -66l-430 -248z" />
<glyph unicode="&#x13b;" horiz-adv-x="976" d="M6 85l141 20l161 1143l-141 20l17 85h477l8 -85l-171 -20l-162 -1149h361l110 213l81 -12l-68 -300h-806zM250 -534l53 383h166l-5 -42l-111 -341h-103z" />
<glyph unicode="&#x13c;" horiz-adv-x="620" d="M142 56l192 1379l-141 20l17 85l231 22l81 -78l-193 -1379l141 -20l-17 -85l-230 -22zM88 -534l53 383h166l-5 -42l-111 -341h-103z" />
<glyph unicode="&#x13d;" horiz-adv-x="976" d="M6 85l141 20l161 1143l-141 20l17 85h477l8 -85l-171 -20l-162 -1149h361l110 213l81 -12l-68 -300h-806zM704 1157l53 383h166l-5 -42l-111 -341h-103z" />
<glyph unicode="&#x13e;" horiz-adv-x="695" d="M142 56l192 1379l-141 20l17 85l231 22l81 -78l-193 -1379l141 -20l-17 -85l-230 -22zM621 1157l53 383h166l-5 -42l-111 -341h-103z" />
<glyph unicode="&#x13f;" horiz-adv-x="976" d="M6 85l141 20l161 1143l-141 20l17 85h477l8 -85l-171 -20l-162 -1149h361l110 213l81 -12l-68 -300h-806zM757 654q0 31 7 59t19.5 49t29 33.5t34.5 12.5q33 0 61 -7t48.5 -19.5t32.5 -29.5t12 -36q0 -30 -7 -58t-19.5 -49t-29 -33.5t-35.5 -12.5q-32 0 -60 7t-48.5 19.5 t-32.5 29t-12 35.5z" />
<glyph unicode="&#x140;" horiz-adv-x="765" d="M142 56l192 1379l-141 20l17 85l231 22l81 -78l-193 -1379l141 -20l-17 -85l-230 -22zM579 654q0 31 7 59t19.5 49t29 33.5t34.5 12.5q33 0 61 -7t48.5 -19.5t32.5 -29.5t12 -36q0 -30 -7 -58t-19.5 -49t-29 -33.5t-35.5 -12.5q-32 0 -60 7t-48.5 19.5t-32.5 29t-12 35.5 z" />
<glyph unicode="&#x141;" horiz-adv-x="976" d="M190 410l19 139l228 122l82 577l-141 20l17 85h477l8 -85l-171 -20l-66 -467l354 190l-19 -138l-355 -190l-76 -544h361l110 213l81 -12l-68 -300h-806l-8 85l141 20l60 427z" />
<glyph unicode="&#x142;" horiz-adv-x="620" d="M-35 545l20 139l264 141l85 610l-141 20l17 85l231 22l81 -78l-78 -555l254 135l-19 -138l-254 -136l-96 -685l141 -20l-17 -85l-230 -22l-81 78l88 630z" />
<glyph unicode="&#x143;" horiz-adv-x="1524" d="M4 85l141 20l161 1143l-141 20l17 85h426l484 -1217h16l156 1112l-141 20l17 85h398l8 -85l-141 -20l-176 -1248h-287l-484 1218h-16l-157 -1113l141 -20l-17 -85h-397zM771 1471l5 32l337 281l191 -10l-9 -66l-430 -248z" />
<glyph unicode="&#x144;" horiz-adv-x="1279" d="M145 1000l17 85l231 22l81 -78l-27 -190q95 127 208.5 197.5t223.5 70.5q135 0 187 -70q37 -50 37 -141q0 -35 -6 -77l-98 -714l141 -20l-17 -85l-230 -22l-81 78l93 675q10 74 10 125.5t-10 81.5q-20 60 -94 61q-88 0 -187.5 -75t-193.5 -210l-103 -736l-176 22l135 980 zM741 1275l5 32l254 363l181 -10l-10 -66l-356 -329z" />
<glyph unicode="&#x145;" horiz-adv-x="1524" d="M4 85l141 20l161 1143l-141 20l17 85h426l484 -1217h16l156 1112l-141 20l17 85h398l8 -85l-141 -20l-176 -1248h-287l-484 1218h-16l-157 -1113l141 -20l-17 -85h-397zM486 -534l53 383h166l-5 -42l-111 -341h-103z" />
<glyph unicode="&#x146;" horiz-adv-x="1279" d="M145 1000l17 85l231 22l81 -78l-27 -190q95 127 208.5 197.5t223.5 70.5q135 0 187 -70q37 -50 37 -141q0 -35 -6 -77l-98 -714l141 -20l-17 -85l-230 -22l-81 78l93 675q10 74 10 125.5t-10 81.5q-20 60 -94 61q-88 0 -187.5 -75t-193.5 -210l-103 -736l-176 22l135 980 zM431 -534l53 383h166l-5 -42l-111 -341h-103z" />
<glyph unicode="&#x147;" horiz-adv-x="1524" d="M4 85l141 20l161 1143l-141 20l17 85h426l484 -1217h16l156 1112l-141 20l17 85h398l8 -85l-141 -20l-176 -1248h-287l-484 1218h-16l-157 -1113l141 -20l-17 -85h-397zM618 1752l5 32l105 10l198 -202l271 202l94 -10l-5 -32l-324 -292l-132 10z" />
<glyph unicode="&#x148;" horiz-adv-x="1279" d="M145 1000l17 85l231 22l81 -78l-27 -190q95 127 208.5 197.5t223.5 70.5q135 0 187 -70q37 -50 37 -141q0 -35 -6 -77l-98 -714l141 -20l-17 -85l-230 -22l-81 78l93 675q10 74 10 125.5t-10 81.5q-20 60 -94 61q-88 0 -187.5 -75t-193.5 -210l-103 -736l-176 22l135 980 zM554 1628l4 32l97 10l141 -262l238 262l93 -10l-4 -32l-286 -373l-131 10z" />
<glyph unicode="&#x149;" horiz-adv-x="1279" d="M145 1000l17 85l231 22l81 -78l-27 -190q95 127 208.5 197.5t223.5 70.5q135 0 187 -70q37 -50 37 -141q0 -35 -6 -77l-98 -714l141 -20l-17 -85l-230 -22l-81 78l93 675q10 74 10 125.5t-10 81.5q-20 60 -94 61q-88 0 -187.5 -75t-193.5 -210l-103 -736l-176 22l135 980 zM-99 1068q88 66 125.5 116.5t42.5 88.5q2 18 -11 28t-34 16q-44 11 -68.5 34.5t-20.5 52.5q4 32 15.5 60.5t27.5 50.5t34.5 34.5t37.5 12.5q36 0 73.5 -11t58.5 -37q13 -17 21 -50t-1 -97q-6 -46 -19 -89t-40.5 -88t-73 -92.5t-116.5 -102.5z" />
<glyph unicode="&#x14a;" horiz-adv-x="1524" d="M4 85l141 20l161 1143l-141 20l17 85h426l484 -1217h16l156 1112l-141 20l17 85h398l8 -85l-141 -20l-176 -1248q-18 -132 -52 -220t-80 -140.5t-103 -74.5t-122 -22q-59 0 -107.5 10t-84.5 23q-42 15 -76 34l45 111q48 -20 100 -36q45 -14 98 -24.5t106 -10.5 q28 26 53 65q21 33 41.5 82t30.5 117l12 86h-148l-484 1218h-16l-157 -1113l141 -20l-17 -85h-397z" />
<glyph unicode="&#x14b;" horiz-adv-x="1235" d="M145 1000l17 85l231 22l81 -78l-27 -190q8 11 27 35t48 54t67 61.5t83 57.5t97 43t110 17q63 0 109 -15.5t74 -50t37 -89.5t-2 -133l-112 -819q-19 -137 -53 -225.5t-80.5 -140t-105.5 -71.5t-127 -20q-48 0 -90 7t-73 16q-36 11 -66 24l45 111q40 -15 85 -26 q38 -10 85 -17.5t94 -7.5q20 26 38 64q15 32 30.5 81.5t25.5 118.5l112 817q11 78 10.5 129.5t-12.5 82t-35 43.5t-57 13q-46 0 -90 -18.5t-84 -46.5t-75 -62t-62 -66t-45 -57t-25 -35l-103 -736l-176 22l135 980z" />
<glyph unicode="&#x14c;" horiz-adv-x="1346" d="M80 525l11 79q55 388 229 579.5t461 191.5q276 0 399 -137q93 -104 93 -287q0 -58 -9 -124l-11 -78q-53 -378 -225.5 -574.5t-463.5 -196.5q-279 0 -400 138q-93 105 -93 289q0 56 9 120zM277 570q-8 -59 -8 -111q0 -155 71 -253q95 -130 272 -129q76 0 151 24t134 65 q53 101 93.5 228.5t58.5 255.5l18 133q9 68 9 127q0 150 -60 240q-84 126 -283 126q-73 0 -148 -23.5t-137 -64.5q-56 -108 -96 -235t-57 -250zM448 1540l19 120h771l-20 -120h-770z" />
<glyph unicode="&#x14d;" horiz-adv-x="1089" d="M90 429l14 93q40 271 188 428t363 157q205 0 291 -115q62 -84 63 -228q0 -54 -9 -117l-13 -95q-36 -254 -189.5 -414t-360.5 -160q-203 0 -291 113q-64 82 -65 224q0 53 9 114zM272 443q-7 -52 -7 -98q1 -113 43 -181q60 -96 161 -96q44 0 91.5 12.5t97.5 37.5 q46 60 85.5 160t58.5 235l16 119q9 66 9 120q0 103 -32 167q-49 98 -172 98q-51 0 -100.5 -14t-88.5 -35q-50 -75 -89 -182t-56 -224zM369 1353l17 110h711l-18 -110h-710z" />
<glyph unicode="&#x14e;" horiz-adv-x="1346" d="M80 525l11 79q55 388 229 579.5t461 191.5q276 0 399 -137q93 -104 93 -287q0 -58 -9 -124l-11 -78q-53 -378 -225.5 -574.5t-463.5 -196.5q-279 0 -400 138q-93 105 -93 289q0 56 9 120zM277 570q-8 -59 -8 -111q0 -155 71 -253q95 -130 272 -129q76 0 151 24t134 65 q53 101 93.5 228.5t58.5 255.5l18 133q9 68 9 127q0 150 -60 240q-84 126 -283 126q-73 0 -148 -23.5t-137 -64.5q-56 -108 -96 -235t-57 -250zM538 1749l78 10q-2 -14 7 -40.5t35.5 -52.5t73.5 -45t121 -19q73 0 125.5 19t86 45t50.5 52.5t19 40.5l75 -10 q-7 -50 -36.5 -99.5t-78.5 -89t-115 -64t-145 -24.5t-137.5 24.5t-96 64t-53.5 89t-9 99.5z" />
<glyph unicode="&#x14f;" horiz-adv-x="1089" d="M90 429l14 93q40 271 188 428t363 157q205 0 291 -115q62 -84 63 -228q0 -54 -9 -117l-13 -95q-36 -254 -189.5 -414t-360.5 -160q-203 0 -291 113q-64 82 -65 224q0 53 9 114zM272 443q-7 -52 -7 -98q1 -113 43 -181q60 -96 161 -96q44 0 91.5 12.5t97.5 37.5 q46 60 85.5 160t58.5 235l16 119q9 66 9 120q0 103 -32 167q-49 98 -172 98q-51 0 -100.5 -14t-88.5 -35q-50 -75 -89 -182t-56 -224zM433 1592l68 10q-2 -16 7 -45.5t34 -59t67 -51t106 -21.5q61 0 109.5 21.5t82 51t52 59t20.5 45.5l66 -10q-8 -54 -37 -107t-75 -95 t-106 -68.5t-130 -26.5t-122.5 26.5t-86.5 68.5t-48.5 95t-6.5 107z" />
<glyph unicode="&#x150;" horiz-adv-x="1346" d="M80 525l11 79q55 388 229 579.5t461 191.5q276 0 399 -137q93 -104 93 -287q0 -58 -9 -124l-11 -78q-53 -378 -225.5 -574.5t-463.5 -196.5q-279 0 -400 138q-93 105 -93 289q0 56 9 120zM277 570q-8 -59 -8 -111q0 -155 71 -253q95 -130 272 -129q76 0 151 24t134 65 q53 101 93.5 228.5t58.5 255.5l18 133q9 68 9 127q0 150 -60 240q-84 126 -283 126q-73 0 -148 -23.5t-137 -64.5q-56 -108 -96 -235t-57 -250zM542 1471l5 32l336 281l191 -10l-9 -66l-429 -248zM960 1471l5 32l337 281l191 -10l-9 -66l-430 -248z" />
<glyph unicode="&#x151;" horiz-adv-x="1089" d="M90 429l14 93q40 271 188 428t363 157q205 0 291 -115q62 -84 63 -228q0 -54 -9 -117l-13 -95q-36 -254 -189.5 -414t-360.5 -160q-203 0 -291 113q-64 82 -65 224q0 53 9 114zM272 443q-7 -52 -7 -98q1 -113 43 -181q60 -96 161 -96q44 0 91.5 12.5t97.5 37.5 q46 60 85.5 160t58.5 235l16 119q9 66 9 120q0 103 -32 167q-49 98 -172 98q-51 0 -100.5 -14t-88.5 -35q-50 -75 -89 -182t-56 -224zM417 1275l5 32l254 363l181 -10l-10 -66l-356 -329zM795 1275l5 32l254 363l181 -10l-10 -66l-356 -329z" />
<glyph unicode="&#x152;" horiz-adv-x="1776" d="M80 525l11 79q26 188 82 332t141.5 241.5t202 147.5t264.5 50q113 0 197 -22h754l-19 -300h-86l-40 201h-433l-70 -497h336l40 137l83 -20l-52 -355l-87 -5v144h-334l-79 -559h461l105 203l80 -13l-66 -289h-784q-30 -5 -89.5 -13.5t-133.5 -8.5q-281 0 -401.5 136.5 t-82.5 410.5zM277 570q-17 -128 3 -221t67.5 -153.5t116 -89.5t148.5 -29q63 0 108.5 12t83.5 30l154 1093q-45 34 -102.5 49t-122.5 15q-62 0 -114 -13.5t-90 -30.5q-45 -19 -81 -44q-33 -61 -62 -137q-26 -65 -51.5 -153.5t-39.5 -194.5z" />
<glyph unicode="&#x153;" horiz-adv-x="1643" d="M90 429l14 93q40 271 188 428t363 157q206 0 291 -115q16 -21 27 -46l2 2q137 159 339 159q161 0 234 -73t55 -199q-22 -159 -139 -251t-290 -92q-61 0 -112 3t-83 7l-8 -59q-25 -182 35 -278.5t164 -96.5q61 0 131 26.5t122 63.5v-86q-55 -41 -135.5 -67.5t-171.5 -26.5 q-190 0 -275 112q-20 26 -33 59q-5 -6 -11 -11q-153 -160 -360 -160q-203 0 -291.5 113t-55.5 338zM272 443q-24 -182 35.5 -278.5t161.5 -96.5q44 0 91.5 12.5t97.5 37.5q46 60 85 160q32 79 50 180l25 174q26 189 -23 287t-172 98q-51 0 -100.5 -14t-88.5 -35 q-50 -75 -89 -182t-56 -224zM991 583q56 -3 110.5 -5t106.5 -2q43 0 83.5 10.5t72.5 29.5q20 41 32.5 84.5t20.5 101.5q14 101 -19.5 158t-115.5 57q-36 0 -75 -13t-74 -36q-46 -68 -84.5 -170t-57.5 -215z" />
<glyph unicode="&#x154;" horiz-adv-x="1201" d="M8 85l141 20l161 1143l-141 20l17 85h498q204 0 303 -88q80 -71 80 -197q0 -31 -5 -65q-18 -125 -91.5 -219t-178.5 -137l-8 -19l217 -523l122 -20l-17 -85h-259l-255 616h-181l-72 -511l141 -20l-17 -85h-447zM425 715h125q67 0 133.5 13.5t113.5 35.5q24 42 42 97 t25 108q5 36 5 67q0 96 -46 148q-61 70 -226 70h-96zM500 1471l5 32l337 281l191 -10l-9 -66l-430 -248z" />
<glyph unicode="&#x155;" horiz-adv-x="925" d="M38 85l140 20l122 875l-141 20l17 85l231 22l81 -78l-29 -209q63 136 147.5 211.5t176.5 75.5q42 0 82.5 -14.5t69.5 -37.5l-56 -237l-106 -12v173q-7 5 -20 7.5t-28 2.5q-60 0 -135.5 -86.5t-154.5 -251.5l-76 -546l142 -20l-17 -85h-438zM571 1275l5 32l254 363 l181 -10l-10 -66l-356 -329z" />
<glyph unicode="&#x156;" horiz-adv-x="1201" d="M8 85l141 20l161 1143l-141 20l17 85h498q204 0 303 -88q80 -71 80 -197q0 -31 -5 -65q-18 -125 -91.5 -219t-178.5 -137l-8 -19l217 -523l122 -20l-17 -85h-259l-255 616h-181l-72 -511l141 -20l-17 -85h-447zM425 715h125q67 0 133.5 13.5t113.5 35.5q24 42 42 97 t25 108q5 36 5 67q0 96 -46 148q-61 70 -226 70h-96zM377 -534l53 383h166l-5 -42l-111 -341h-103z" />
<glyph unicode="&#x157;" horiz-adv-x="925" d="M38 85l140 20l122 875l-141 20l17 85l231 22l81 -78l-29 -209q63 136 147.5 211.5t176.5 75.5q42 0 82.5 -14.5t69.5 -37.5l-56 -237l-106 -12v173q-7 5 -20 7.5t-28 2.5q-60 0 -135.5 -86.5t-154.5 -251.5l-76 -546l142 -20l-17 -85h-438zM90 -534l53 383h166l-5 -42 l-111 -341h-103z" />
<glyph unicode="&#x158;" horiz-adv-x="1201" d="M8 85l141 20l161 1143l-141 20l17 85h498q204 0 303 -88q80 -71 80 -197q0 -31 -5 -65q-18 -125 -91.5 -219t-178.5 -137l-8 -19l217 -523l122 -20l-17 -85h-259l-255 616h-181l-72 -511l141 -20l-17 -85h-447zM425 715h125q67 0 133.5 13.5t113.5 35.5q24 42 42 97 t25 108q5 36 5 67q0 96 -46 148q-61 70 -226 70h-96zM347 1752l5 32l105 10l198 -202l271 202l94 -10l-5 -32l-324 -292l-132 10z" />
<glyph unicode="&#x159;" horiz-adv-x="925" d="M38 85l140 20l122 875l-141 20l17 85l231 22l81 -78l-29 -209q63 136 147.5 211.5t176.5 75.5q42 0 82.5 -14.5t69.5 -37.5l-56 -237l-106 -12v173q-7 5 -20 7.5t-28 2.5q-60 0 -135.5 -86.5t-154.5 -251.5l-76 -546l142 -20l-17 -85h-438zM384 1628l4 32l97 10l141 -262 l238 262l93 -10l-4 -32l-286 -373l-131 10z" />
<glyph unicode="&#x15a;" horiz-adv-x="1047" d="M32 41l16 259h100l45 -199q45 -12 98 -18t113 -6q68 0 134.5 10.5t118.5 27.5q20 28 40.5 75t27.5 91q3 17 3 34q0 64 -40 123q-50 74 -227 190q-207 132 -266 214q-47 65 -47 148q0 21 3 44q22 155 162 248t358 93q93 0 179.5 -14t144.5 -38l-17 -270h-88l-45 201 q-36 9 -90 15.5t-108 6.5q-65 0 -129 -10.5t-114 -27.5q-23 -40 -36.5 -77.5t-19.5 -74.5q-2 -13 -2 -26q0 -62 44 -116q54 -66 233 -182q173 -112 247 -204q59 -74 59 -166q0 -23 -4 -47q-23 -165 -165.5 -266t-358.5 -101q-109 0 -206 16.5t-163 46.5zM544 1471l5 32 l337 281l191 -10l-9 -66l-430 -248z" />
<glyph unicode="&#x15b;" horiz-adv-x="923" d="M82 48l24 240h82l31 -197q33 -11 79 -17t96 -6q48 0 95 8.5t78 19.5q18 21 32.5 52t20.5 72q2 14 2 28q0 54 -31 98q-39 56 -203 160q-155 96 -201 164q-36 53 -36 120q0 19 3 38q19 122 129 200.5t286 78.5q80 0 154 -18t124 -50l-25 -241h-81l-33 199q-28 9 -70 14.5 t-85 5.5q-44 0 -88 -8.5t-71 -19.5q-21 -22 -34.5 -49t-18.5 -58q-3 -17 -3 -33q0 -55 32 -91q40 -48 170 -126q177 -108 229 -184q41 -60 41 -136q0 -20 -3 -41q-20 -139 -140.5 -216t-298.5 -77q-83 0 -159 19.5t-127 50.5zM552 1275l5 32l254 363l181 -10l-10 -66 l-356 -329z" />
<glyph unicode="&#x15c;" horiz-adv-x="1047" d="M32 41l16 259h100l45 -199q45 -12 98 -18t113 -6q68 0 134.5 10.5t118.5 27.5q20 28 40.5 75t27.5 91q3 17 3 34q0 64 -40 123q-50 74 -227 190q-207 132 -266 214q-47 65 -47 148q0 21 3 44q22 155 162 248t358 93q93 0 179.5 -14t144.5 -38l-17 -270h-88l-45 201 q-36 9 -90 15.5t-108 6.5q-65 0 -129 -10.5t-114 -27.5q-23 -40 -36.5 -77.5t-19.5 -74.5q-2 -13 -2 -26q0 -62 44 -116q54 -66 233 -182q173 -112 247 -204q59 -74 59 -166q0 -23 -4 -47q-23 -165 -165.5 -266t-358.5 -101q-109 0 -206 16.5t-163 46.5zM340 1470l5 32 l323 292l132 -10l213 -282l-5 -32l-106 -10l-196 198l-273 -198z" />
<glyph unicode="&#x15d;" horiz-adv-x="923" d="M82 48l24 240h82l31 -197q33 -11 79 -17t96 -6q48 0 95 8.5t78 19.5q18 21 32.5 52t20.5 72q2 14 2 28q0 54 -31 98q-39 56 -203 160q-155 96 -201 164q-36 53 -36 120q0 19 3 38q19 122 129 200.5t286 78.5q80 0 154 -18t124 -50l-25 -241h-81l-33 199q-28 9 -70 14.5 t-85 5.5q-44 0 -88 -8.5t-71 -19.5q-21 -22 -34.5 -49t-18.5 -58q-3 -17 -3 -33q0 -55 32 -91q40 -48 170 -126q177 -108 229 -184q41 -60 41 -136q0 -20 -3 -41q-20 -139 -140.5 -216t-298.5 -77q-83 0 -159 19.5t-127 50.5zM281 1275l4 32l286 373l131 -10l152 -363 l-4 -32l-97 -10l-149 262l-230 -262z" />
<glyph unicode="&#x15e;" horiz-adv-x="1047" d="M32 41l16 259h100l45 -199q45 -12 98 -18t113 -6q68 0 134.5 10.5t118.5 27.5q20 28 40.5 75t27.5 91q13 83 -37 157t-227 190q-207 132 -266 213.5t-44 192.5q22 155 162 248t358 93q93 0 179.5 -14t144.5 -38l-17 -270h-88l-45 201q-36 9 -90 15.5t-108 6.5 q-65 0 -129 -10.5t-114 -27.5q-23 -40 -36.5 -77.5t-19.5 -74.5q-11 -76 42.5 -141.5t232.5 -182.5q173 -112 246.5 -203.5t55.5 -213.5q-23 -165 -166 -266q-109 -78 -261 -95l-41 -82q40 -11 73.5 -25t56 -35t32.5 -51t4 -72q-5 -38 -24.5 -70t-52 -55.5t-76.5 -37 t-99 -13.5q-40 0 -73 7t-58 16q-29 11 -53 24l23 63q25 -11 52 -20q23 -8 52.5 -14t60.5 -6q20 0 36 2t27 4q12 3 22 7q5 12 9 26q4 12 7.5 27t5.5 32q5 54 -25.5 85t-99.5 51l-36 52l41 80q-87 2 -167 16q-97 16 -163 46z" />
<glyph unicode="&#x15f;" horiz-adv-x="923" d="M82 48l24 240h82l31 -197q33 -11 79 -17t96 -6q48 0 95 8.5t78 19.5q18 21 32.5 52t20.5 72q10 70 -29 126.5t-203 159.5q-155 96 -201 164.5t-33 157.5q19 122 129 200.5t286 78.5q80 0 154 -18t124 -50l-25 -241h-81l-33 199q-28 9 -70 14.5t-85 5.5q-44 0 -88 -8.5 t-71 -19.5q-21 -22 -34.5 -49t-18.5 -58q-12 -76 28.5 -123.5t170.5 -126.5q177 -108 229 -184.5t38 -176.5q-20 -139 -141 -216q-84 -54 -195 -70l-42 -83q40 -11 73.5 -25t56 -35t32.5 -51t4 -72q-5 -38 -24.5 -70t-52 -55.5t-76.5 -37t-99 -13.5q-40 0 -73 7t-58 16 q-29 11 -53 24l23 63q25 -11 52 -20q23 -8 52.5 -14t60.5 -6q20 0 36 2t27 4q12 3 22 7q5 12 9 26q4 12 7.5 27t5.5 32q5 54 -25.5 85t-99.5 51l-36 52l41 80q-65 3 -125 19q-76 19 -127 50z" />
<glyph unicode="&#x160;" horiz-adv-x="1047" d="M32 41l16 259h100l45 -199q45 -12 98 -18t113 -6q68 0 134.5 10.5t118.5 27.5q20 28 40.5 75t27.5 91q3 17 3 34q0 64 -40 123q-50 74 -227 190q-207 132 -266 214q-47 65 -47 148q0 21 3 44q22 155 162 248t358 93q93 0 179.5 -14t144.5 -38l-17 -270h-88l-45 201 q-36 9 -90 15.5t-108 6.5q-65 0 -129 -10.5t-114 -27.5q-23 -40 -36.5 -77.5t-19.5 -74.5q-2 -13 -2 -26q0 -62 44 -116q54 -66 233 -182q173 -112 247 -204q59 -74 59 -166q0 -23 -4 -47q-23 -165 -165.5 -266t-358.5 -101q-109 0 -206 16.5t-163 46.5zM391 1752l5 32 l105 10l198 -202l271 202l94 -10l-5 -32l-324 -292l-132 10z" />
<glyph unicode="&#x161;" horiz-adv-x="923" d="M82 48l24 240h82l31 -197q33 -11 79 -17t96 -6q48 0 95 8.5t78 19.5q18 21 32.5 52t20.5 72q2 14 2 28q0 54 -31 98q-39 56 -203 160q-155 96 -201 164q-36 53 -36 120q0 19 3 38q19 122 129 200.5t286 78.5q80 0 154 -18t124 -50l-25 -241h-81l-33 199q-28 9 -70 14.5 t-85 5.5q-44 0 -88 -8.5t-71 -19.5q-21 -22 -34.5 -49t-18.5 -58q-3 -17 -3 -33q0 -55 32 -91q40 -48 170 -126q177 -108 229 -184q41 -60 41 -136q0 -20 -3 -41q-20 -139 -140.5 -216t-298.5 -77q-83 0 -159 19.5t-127 50.5zM365 1628l4 32l97 10l141 -262l238 262l93 -10 l-4 -32l-286 -373l-131 10z" />
<glyph unicode="&#x162;" horiz-adv-x="1038" d="M38 1063l56 290h1032l-27 -290h-79l-30 191h-294l-162 -1149l141 -20l-17 -85h-171l-49 -98q40 -11 73.5 -25t56 -35t32.5 -51t4 -72q-5 -38 -24.5 -70t-52 -55.5t-76.5 -37t-99 -13.5q-40 0 -73 7t-58 16q-29 11 -53 24l23 63q25 -11 52 -20q23 -8 52.5 -14t60.5 -6 q20 0 36 2t27 4q12 3 22 7q5 12 9 26q4 12 7.5 27t5.5 32q5 54 -25.5 85t-99.5 51l-36 52l52 101h-143l-8 85l141 20l162 1149h-305l-75 -191h-88z" />
<glyph unicode="&#x163;" horiz-adv-x="765" d="M88 1001l11 84h176l29 207l193 83l-41 -290h307l-11 -84h-308l-91 -653q-19 -137 8 -208.5t105 -71.5q42 0 96.5 21.5t96.5 48.5v-86q-55 -34 -121 -54q-52 -16 -105 -19l-38 -77q40 -11 73.5 -25t56 -35t32.5 -51t4 -72q-5 -38 -24.5 -70t-52 -55.5t-76.5 -37t-99 -13.5 q-40 0 -73 7t-58 16q-29 11 -53 24l23 63q25 -11 52 -20q23 -8 52.5 -14t60.5 -6q20 0 36 2t27 4q12 3 22 7q5 12 9 26q4 12 7.5 27t5.5 32q5 54 -25.5 85t-99.5 51l-36 52l47 91q-74 20 -108 77q-52 89 -27 267l92 667h-175z" />
<glyph unicode="&#x164;" horiz-adv-x="1038" d="M38 1063l56 290h1032l-27 -290h-79l-30 191h-294l-162 -1149l141 -20l-17 -85h-447l-8 85l141 20l162 1149h-305l-75 -191h-88zM348 1752l5 32l105 10l198 -202l271 202l94 -10l-5 -32l-324 -292l-132 10z" />
<glyph unicode="&#x165;" horiz-adv-x="765" d="M88 1001l11 84h176l29 207l193 83l-41 -290h307l-11 -84h-308l-91 -653q-8 -57 -8 -102q0 -64 16 -106q27 -72 105 -72q42 0 96.5 21.5t96.5 48.5v-86q-55 -34 -120.5 -54t-132.5 -20q-156 0 -208 89q-36 60 -35 161q0 48 8 106l92 667h-175zM609 1157l53 383h166l-5 -42 l-111 -341h-103z" />
<glyph unicode="&#x166;" horiz-adv-x="1038" d="M38 1063l56 290h1032l-27 -290h-79l-30 191h-294l-79 -560h225l-16 -117h-226l-66 -472l141 -20l-17 -85h-447l-8 85l141 20l66 472h-237l16 117h238l79 560h-305l-75 -191h-88z" />
<glyph unicode="&#x167;" horiz-adv-x="765" d="M30 540l16 117h169l48 344h-175l11 84h176l29 207l193 83l-41 -290h307l-11 -84h-308l-48 -344h303l-16 -117h-303l-27 -192q-19 -137 8 -208.5t105 -71.5q42 0 96.5 21.5t96.5 48.5v-86q-55 -34 -120.5 -54t-132.5 -20q-155 0 -207.5 89t-27.5 267l28 206h-169z" />
<glyph unicode="&#x168;" horiz-adv-x="1384" d="M132 1268l17 85h447l8 -85l-141 -20l-98 -702q-9 -68 -9 -127q0 -139 53 -223q76 -119 247 -119q78 0 151.5 21.5t123.5 54.5q38 63 71.5 163.5t47.5 204.5l102 727l-141 20l17 85h398l8 -85l-141 -20l-102 -730q-40 -281 -184.5 -410.5t-408.5 -129.5q-253 0 -360 126 q-80 94 -80 264q0 57 9 123l106 757zM429 1495l4 25q8 54 28.5 94.5t50.5 68.5t66.5 42t76.5 14q65 0 123.5 -20.5t109.5 -45.5t94 -45.5t77 -20.5q36 0 66.5 32t40.5 98l99 10l-7 -47q-8 -51 -27 -91.5t-47.5 -69t-64.5 -43.5t-78 -15q-57 0 -117 20.5t-115.5 45.5 t-104 45.5t-83.5 20.5q-17 0 -33 -4.5t-29.5 -16.5t-23.5 -33t-15 -54z" />
<glyph unicode="&#x169;" horiz-adv-x="1263" d="M122 1000l17 85l231 22l81 -78l-93 -675q-10 -71 -10 -122q0 -56 12 -86q22 -60 92 -60q89 0 189 75.5t190 206.5l85 612l-141 20l17 85l231 22l81 -78l-129 -924l141 -20l-17 -85l-230 -22l-81 78l26 188q-91 -123 -204 -194.5t-226 -71.5q-133 0 -186 70 q-38 50 -38 140q0 36 6 78l97 714zM284 1282l4 25q16 108 82.5 163.5t169.5 55.5q54 0 106.5 -20.5t101.5 -45.5t92.5 -45.5t78.5 -20.5q41 0 71.5 32t41.5 98l89 10l-7 -47q-15 -102 -77 -160.5t-163 -58.5q-49 0 -104 20.5t-109 45.5t-103 45.5t-85 20.5q-18 0 -35.5 -4.5 t-31.5 -16.5t-25 -33t-16 -54z" />
<glyph unicode="&#x16a;" horiz-adv-x="1384" d="M132 1268l17 85h447l8 -85l-141 -20l-98 -702q-9 -68 -9 -127q0 -139 53 -223q76 -119 247 -119q78 0 151.5 21.5t123.5 54.5q38 63 71.5 163.5t47.5 204.5l102 727l-141 20l17 85h398l8 -85l-141 -20l-102 -730q-40 -281 -184.5 -410.5t-408.5 -129.5q-253 0 -360 126 q-80 94 -80 264q0 57 9 123l106 757zM460 1540l19 120h771l-20 -120h-770z" />
<glyph unicode="&#x16b;" horiz-adv-x="1263" d="M122 1000l17 85l231 22l81 -78l-93 -675q-10 -71 -10 -122q0 -56 12 -86q22 -60 92 -60q89 0 189 75.5t190 206.5l85 612l-141 20l17 85l231 22l81 -78l-129 -924l141 -20l-17 -85l-230 -22l-81 78l26 188q-91 -123 -204 -194.5t-226 -71.5q-133 0 -186 70 q-38 50 -38 140q0 36 6 78l97 714zM349 1353l17 110h711l-18 -110h-710z" />
<glyph unicode="&#x16c;" horiz-adv-x="1384" d="M132 1268l17 85h447l8 -85l-141 -20l-98 -702q-9 -68 -9 -127q0 -139 53 -223q76 -119 247 -119q78 0 151.5 21.5t123.5 54.5q38 63 71.5 163.5t47.5 204.5l102 727l-141 20l17 85h398l8 -85l-141 -20l-102 -730q-40 -281 -184.5 -410.5t-408.5 -129.5q-253 0 -360 126 q-80 94 -80 264q0 57 9 123l106 757zM550 1749l78 10q-2 -14 7 -40.5t35.5 -52.5t73.5 -45t121 -19q73 0 125.5 19t86 45t50.5 52.5t19 40.5l75 -10q-7 -50 -36.5 -99.5t-78.5 -89t-115 -64t-145 -24.5t-137.5 24.5t-96 64t-53.5 89t-9 99.5z" />
<glyph unicode="&#x16d;" horiz-adv-x="1263" d="M122 1000l17 85l231 22l81 -78l-93 -675q-10 -71 -10 -122q0 -56 12 -86q22 -60 92 -60q89 0 189 75.5t190 206.5l85 612l-141 20l17 85l231 22l81 -78l-129 -924l141 -20l-17 -85l-230 -22l-81 78l26 188q-91 -123 -204 -194.5t-226 -71.5q-133 0 -186 70 q-38 50 -38 140q0 36 6 78l97 714zM413 1592l68 10q-2 -16 7 -45.5t34 -59t67 -51t106 -21.5q61 0 109.5 21.5t82 51t52 59t20.5 45.5l66 -10q-8 -54 -37 -107t-75 -95t-106 -68.5t-130 -26.5t-122.5 26.5t-86.5 68.5t-48.5 95t-6.5 107z" />
<glyph unicode="&#x16e;" horiz-adv-x="1384" d="M132 1268l17 85h447l8 -85l-141 -20l-98 -702q-9 -68 -9 -127q0 -139 53 -223q76 -119 247 -119q78 0 151.5 21.5t123.5 54.5q38 63 71.5 163.5t47.5 204.5l102 727l-141 20l17 85h398l8 -85l-141 -20l-102 -730q-40 -281 -184.5 -410.5t-408.5 -129.5q-253 0 -360 126 q-80 94 -80 264q0 57 9 123l106 757zM667 1570q7 52 28.5 92t52.5 67t69 41t79 14q36 0 67 -9t53 -27.5t32 -47t5 -66.5q-8 -55 -29 -95.5t-51.5 -66.5t-68.5 -39t-79 -13q-37 0 -68.5 9.5t-53 28t-31.5 46.5t-5 66zM772 1602q-7 -53 15.5 -83.5t58.5 -30.5q17 0 32 3t26 7 q12 4 23 11q4 11 8 25q4 12 8 29t7 39q7 54 -16 84.5t-59 30.5q-17 0 -31 -3.5t-25 -7.5q-13 -4 -24 -10q-4 -7 -8 -19q-4 -11 -8 -28.5t-7 -46.5z" />
<glyph unicode="&#x16f;" horiz-adv-x="1263" d="M122 1000l17 85l231 22l81 -78l-93 -675q-10 -71 -10 -122q0 -56 12 -86q22 -60 92 -60q89 0 189 75.5t190 206.5l85 612l-141 20l17 85l231 22l81 -78l-129 -924l141 -20l-17 -85l-230 -22l-81 78l26 188q-91 -123 -204 -194.5t-226 -71.5q-133 0 -186 70 q-38 50 -38 140q0 36 6 78l97 714zM514 1436q8 59 31 103t56 73t73 43.5t82 14.5q38 0 71 -10t55.5 -30.5t33 -52.5t4.5 -77q-9 -62 -31 -106.5t-54.5 -73t-72.5 -42t-83 -13.5q-39 0 -72.5 10t-56 31t-32.5 53.5t-4 76.5zM624 1468q-10 -66 13 -103t62 -37q16 0 30 2.5 t25 6.5q12 4 23 10q7 13 13 31q5 15 11 38t11 52q11 66 -10 103t-66 37q-13 0 -24.5 -3t-21.5 -7q-11 -4 -22 -9q-9 -11 -17 -29q-7 -15 -14.5 -37.5t-12.5 -54.5z" />
<glyph unicode="&#x170;" horiz-adv-x="1384" d="M132 1268l17 85h447l8 -85l-141 -20l-98 -702q-9 -68 -9 -127q0 -139 53 -223q76 -119 247 -119q78 0 151.5 21.5t123.5 54.5q38 63 71.5 163.5t47.5 204.5l102 727l-141 20l17 85h398l8 -85l-141 -20l-102 -730q-40 -281 -184.5 -410.5t-408.5 -129.5q-253 0 -360 126 q-80 94 -80 264q0 57 9 123l106 757zM554 1471l5 32l336 281l191 -10l-9 -66l-429 -248zM972 1471l5 32l337 281l191 -10l-9 -66l-430 -248z" />
<glyph unicode="&#x171;" horiz-adv-x="1263" d="M122 1000l17 85l231 22l81 -78l-93 -675q-10 -71 -10 -122q0 -56 12 -86q22 -60 92 -60q89 0 189 75.5t190 206.5l85 612l-141 20l17 85l231 22l81 -78l-129 -924l141 -20l-17 -85l-230 -22l-81 78l26 188q-91 -123 -204 -194.5t-226 -71.5q-133 0 -186 70 q-38 50 -38 140q0 36 6 78l97 714zM397 1275l5 32l254 363l181 -10l-10 -66l-356 -329zM775 1275l5 32l254 363l181 -10l-10 -66l-356 -329z" />
<glyph unicode="&#x172;" horiz-adv-x="1384" d="M132 1268l17 85h447l8 -85l-141 -20l-98 -702q-32 -231 44 -350t247 -119q78 0 151.5 21.5t123.5 54.5q38 63 71.5 163.5t47.5 204.5l102 727l-141 20l17 85h398l8 -85l-141 -20l-102 -730q-40 -281 -185 -411q-52 -46 -119 -76q-65 -29 -119.5 -71.5t-94.5 -89.5 t-64 -95t-28 -88q-4 -34 13 -49t48 -15q29 0 58 12.5t53 27.5q28 18 55 40l-8 -73q-28 -25 -63 -44q-30 -17 -70.5 -30t-88.5 -13q-37 0 -65.5 7t-46.5 23.5t-25 43.5t-1 68q8 54 36.5 108.5t79.5 107.5q39 39 93 78q-25 -1 -51 -1q-253 0 -360 125.5t-71 387.5l106 757z " />
<glyph unicode="&#x173;" horiz-adv-x="1263" d="M122 1000l17 85l231 22l81 -78l-93 -675q-20 -147 1.5 -207.5t92.5 -60.5q89 0 189 75.5t190 206.5l85 612l-141 20l17 85l231 22l81 -78l-129 -924l141 -20l-17 -85q-48 -32 -95 -69.5t-85.5 -78t-64 -82.5t-30.5 -83q-4 -34 13 -49t48 -15q29 0 58 12.5t53 27.5 q28 18 55 40l-8 -73q-28 -25 -63 -44q-30 -17 -70.5 -30t-88.5 -13q-37 0 -65.5 7t-46.5 23.5t-25 43.5t-1 68q9 55 42.5 106.5t88.5 101.5q53 47 124 92l-69 -7l-81 78l26 188q-91 -123 -204 -194.5t-226 -71.5q-133 0 -186 70t-32 218l97 714z" />
<glyph unicode="&#x174;" horiz-adv-x="2028" d="M40 1268l17 85h417l8 -85l-141 -20l200 -1016h16l500 1121h191l176 -1121h16l454 1016l-141 20l17 85h374l8 -85l-111 -20l-569 -1248h-191l-177 1107h-16l-493 -1107h-192l-253 1248zM842 1470l5 32l323 292l132 -10l213 -282l-5 -32l-106 -10l-196 198l-273 -198z" />
<glyph unicode="&#x175;" horiz-adv-x="1565" d="M31 1000l17 85l204 22l81 -78l115 -827l384 905l105 -22l133 -950q67 100 123 210t98.5 220t70 216.5t38.5 198.5l-141 20l17 85l190 22l81 -78q0 -83 -19.5 -174t-53 -185t-78.5 -187.5t-95.5 -182.5t-104 -171t-104.5 -151l-174 22l-109 776l-329 -798l-174 22 l-138 980zM589 1275l4 32l286 373l131 -10l152 -363l-4 -32l-97 -10l-149 262l-230 -262z" />
<glyph unicode="&#x176;" horiz-adv-x="1086" d="M4 1268l17 85h401l8 -85l-111 -16l262 -530h16l394 529l-116 17l17 85h356l8 -85l-111 -20l-504 -672l-66 -471l141 -20l-17 -85h-447l-8 85l141 20l66 473l-335 670zM342 1470l5 32l323 292l132 -10l213 -282l-5 -32l-106 -10l-196 198l-273 -198z" />
<glyph unicode="&#x177;" horiz-adv-x="1204" d="M94 -387l33 140q108 -40 228 -68.5t206 -28.5q84 47 148 159.5t86 273.5l21 156q-93 -127 -205.5 -197t-224.5 -70q-133 0 -186 70q-38 49 -38 140q0 36 6 78l97 714l-141 20l17 85l231 22l81 -78l-93 -675q-10 -68 -10 -118.5t10 -83.5q19 -66 94 -66q88 1 185.5 73 t193.5 210l85 611l-141 20l17 85l231 22l81 -78l-126 -900q-41 -287 -183.5 -436.5t-359.5 -149.5q-89 0 -180 19.5t-163 50.5zM379 1275l4 32l286 373l131 -10l152 -363l-4 -32l-97 -10l-149 262l-230 -262z" />
<glyph unicode="&#x178;" horiz-adv-x="1086" d="M4 1268l17 85h401l8 -85l-111 -16l262 -530h16l394 529l-116 17l17 85h356l8 -85l-111 -20l-504 -672l-66 -471l141 -20l-17 -85h-447l-8 85l141 20l66 473l-335 670zM362 1571q0 26 5.5 49.5t14.5 41.5t21.5 28.5t27.5 10.5q26 0 49.5 -5.5t41.5 -15.5t28.5 -22.5 t10.5 -27.5q0 -27 -5.5 -50.5t-15 -41t-22 -27.5t-27.5 -10q-27 0 -51 5.5t-41 15t-27 22t-10 27.5zM798 1571q0 26 5.5 49.5t14.5 41.5t21.5 28.5t27.5 10.5q27 0 50.5 -5.5t41 -15.5t28 -22.5t10.5 -27.5q0 -27 -5.5 -50.5t-15 -41t-22 -27.5t-27.5 -10q-27 0 -50.5 5.5 t-41 15t-27.5 22t-10 27.5z" />
<glyph unicode="&#x179;" horiz-adv-x="1142" d="M14 0v95l867 1145l-3 14h-536l-99 -213l-91 12l68 300h890v-94l-868 -1146l3 -14h577l99 213l90 -12l-67 -300h-930zM552 1471l5 32l337 281l191 -10l-9 -66l-430 -248z" />
<glyph unicode="&#x17a;" horiz-adv-x="953" d="M22 0l11 95l699 910h-419l-82 -174l-103 26l50 228h767l-10 -83l-709 -922h428l82 174l103 -26l-50 -228h-767zM570 1275l5 32l254 363l181 -10l-10 -66l-356 -329z" />
<glyph unicode="&#x17b;" horiz-adv-x="1142" d="M14 0v95l867 1145l-3 14h-536l-99 -213l-91 12l68 300h890v-94l-868 -1146l3 -14h577l99 213l90 -12l-67 -300h-930zM613 1599q4 27 14.5 51t26 42t33.5 28.5t37 10.5q27 0 50 -7.5t39 -20t24 -30t5 -36.5q-4 -26 -14.5 -50t-26 -42t-33.5 -28.5t-37 -10.5q-27 0 -50 7.5 t-39 20t-24 29.5t-5 36z" />
<glyph unicode="&#x17c;" horiz-adv-x="953" d="M22 0l11 95l699 910h-419l-82 -174l-103 26l50 228h767l-10 -83l-709 -922h428l82 174l103 -26l-50 -228h-767zM540 1410q0 26 5.5 49.5t15 41.5t22 28.5t27.5 10.5q26 0 49.5 -5.5t41.5 -15t28.5 -22.5t10.5 -27q0 -27 -5.5 -51t-15 -41.5t-22.5 -27.5t-27 -10 q-27 0 -51 5.5t-41.5 15t-27.5 22t-10 27.5z" />
<glyph unicode="&#x17d;" horiz-adv-x="1142" d="M14 0v95l867 1145l-3 14h-536l-99 -213l-91 12l68 300h890v-94l-868 -1146l3 -14h577l99 213l90 -12l-67 -300h-930zM399 1752l5 32l105 10l198 -202l271 202l94 -10l-5 -32l-324 -292l-132 10z" />
<glyph unicode="&#x17e;" horiz-adv-x="953" d="M22 0l11 95l699 910h-419l-82 -174l-103 26l50 228h767l-10 -83l-709 -922h428l82 174l103 -26l-50 -228h-767zM383 1628l4 32l97 10l141 -262l238 262l93 -10l-4 -32l-286 -373l-131 10z" />
<glyph unicode="&#x17f;" horiz-adv-x="648" d="M-278 -410l45 111q42 -15 88 -26q39 -10 86.5 -17.5t94.5 -7.5q18 25 36 65q15 34 30.5 86t26.5 125l148 1075h-189l11 84h191q22 126 57.5 216.5t84 148t110 85t136.5 27.5q38 0 72 -7.5t59 -16.5q29 -11 53 -23l-40 -111q-33 14 -70 25q-32 10 -73 18t-85 8 q-25 -31 -48 -79q-20 -42 -40.5 -108t-33.5 -161l-160 -1154q-17 -121 -50 -200.5t-79.5 -126t-105 -65t-126.5 -18.5q-51 0 -93 7t-72 16q-35 11 -64 24z" />
<glyph unicode="&#x18f;" horiz-adv-x="1335" d="M134 525l25 177h891l11 81q19 141 0 235.5t-66 152t-116.5 81.5t-151.5 24q-91 0 -167.5 -17t-132.5 -37q-65 -24 -118 -54l18 96q190 111 448 111q276 0 399 -137t84 -411l-11 -78q-56 -394 -219 -582.5t-440 -188.5q-265 0 -379 136.5t-75 410.5zM327 338 q15 -94 56 -152t106 -83.5t147 -25.5q60 0 109.5 14.5t85.5 32.5q42 21 76 48q24 53 47 118q20 56 41.5 132t37.5 167h-700l-2 -19q-19 -138 -4 -232z" />
<glyph unicode="&#x192;" horiz-adv-x="744" d="M-200 -420l44 111q41 -12 84 -21q37 -8 81.5 -14t87.5 -6q17 26 34 64q14 32 28.5 81.5t24.5 118.5l89 640h-186l11 84h186l78 555q14 101 46 171.5t78 114.5t103.5 63.5t123.5 19.5q36 0 67 -6t54 -13q27 -8 50 -18l-51 -111q-34 11 -70 20q-31 8 -70 14.5t-77 6.5 q-14 -24 -27 -59q-11 -30 -23.5 -76.5t-21.5 -110.5l-80 -571h198l-11 -84h-199l-83 -601q-17 -119 -50 -198t-80 -126t-107 -66.5t-130 -19.5q-45 0 -81.5 5.5t-63.5 12.5q-32 8 -57 19z" />
<glyph unicode="&#x1a0;" horiz-adv-x="1394" d="M60 525l11 79q55 388 229 579.5t461 191.5q276 0 399 -137q30 -34 50 -75q10 4 19 9q52 25 84.5 50.5t48.5 53.5t21 64q5 35 -1 65t-16 52q-11 26 -27 45l4 30l158 57q40 -60 51.5 -114t5.5 -99q-8 -59 -36 -107.5t-82.5 -92t-141.5 -83.5q-26 -12 -56 -24 q21 -104 2 -242l-11 -78q-53 -378 -225.5 -574.5t-463.5 -196.5q-279 0 -400 137.5t-84 409.5zM257 570q-32 -234 63 -363.5t272 -129.5q76 0 151 24t134 65q53 101 93.5 228.5t58.5 255.5l18 133q33 242 -51 367.5t-283 125.5q-73 0 -148 -23.5t-137 -64.5 q-56 -108 -96 -235t-57 -250z" />
<glyph unicode="&#x1a1;" horiz-adv-x="1140" d="M90 429l14 93q40 271 188 428t363 157q194 0 281 -103q12 6 23 11q52 25 84.5 50.5t48.5 53.5t21 64q5 35 -1 65t-16 52q-11 26 -27 45l4 30l158 57q40 -60 51.5 -114t5.5 -99q-8 -59 -36 -107.5t-82.5 -92t-141.5 -83.5q-20 -9 -43 -19q38 -105 15 -270l-13 -95 q-36 -254 -189.5 -414t-360.5 -160q-203 0 -291.5 113t-55.5 338zM272 443q-24 -182 35.5 -278.5t161.5 -96.5q44 0 91.5 12.5t97.5 37.5q46 60 85.5 160t58.5 235l16 119q26 189 -23 287t-172 98q-51 0 -100.5 -14t-88.5 -35q-50 -75 -89 -182t-56 -224z" />
<glyph unicode="&#x1af;" horiz-adv-x="1524" d="M132 1268l17 85h447l8 -85l-141 -20l-98 -702q-32 -231 44 -350t247 -119q78 0 151.5 21.5t123.5 54.5q38 63 71.5 163.5t47.5 204.5l102 727l-141 20l17 85h398l8 -85l-141 -20l-14 -96q23 10 43 20q52 25 84.5 50.5t48.5 53.5t21 64q5 35 -1 65t-16 52q-11 26 -27 45 l4 30l158 57q40 -60 51.5 -114t5.5 -99q-8 -59 -36 -107.5t-82.5 -92t-141.5 -83.5q-55 -25 -127 -50l-73 -525q-40 -281 -184.5 -410.5t-408.5 -129.5q-253 0 -360 125.5t-71 387.5l106 757z" />
<glyph unicode="&#x1b0;" horiz-adv-x="1300" d="M122 1000l17 85l231 22l81 -78l-93 -675q-20 -147 1.5 -207.5t92.5 -60.5q89 0 189 75.5t190 206.5l85 612l-141 20l17 85l231 22l81 -78l-4 -29q17 8 32 15q52 25 84.5 50.5t48.5 53.5t21 64q5 35 -1 65t-16 52q-11 26 -27 45l4 30l158 57q40 -60 51.5 -114t5.5 -99 q-8 -59 -36 -107.5t-82.5 -92t-141.5 -83.5q-51 -23 -117 -47l-109 -784l141 -20l-17 -85l-230 -22l-81 78l26 188q-91 -123 -204 -194.5t-226 -71.5q-133 0 -186 70t-32 218l97 714z" />
<glyph unicode="&#x1cd;" d="M-124 85l111 20l622 1248h149l261 -1248l112 -20l-17 -85h-417l-8 85l141 20l-64 321h-476l-157 -321l142 -20l-17 -85h-374zM338 525h408l-115 579h-10zM418 1752l5 32l105 10l198 -202l271 202l94 -10l-5 -32l-324 -292l-132 10z" />
<glyph unicode="&#x1ce;" horiz-adv-x="1158" d="M92 373l26 188q37 252 177.5 399t342.5 147q81 0 179.5 -20.5t199.5 -57.5l-129 -924l142 -20l-17 -85l-230 -22l-81 78l26 190q-78 -122 -179 -195t-206 -73q-165 0 -222 95q-38 64 -38 177q0 55 9 123zM281 178q24 -92 123 -92q84 0 175 81t167 206l85 617 q-46 16 -99 24.5t-100 8.5q-55 0 -108.5 -14t-94.5 -36q-40 -66 -72.5 -159.5t-53.5 -221.5l-19 -131q-14 -102 -14 -175q0 -65 11 -108zM463 1628l4 32l97 10l141 -262l238 262l93 -10l-4 -32l-286 -373l-131 10z" />
<glyph unicode="&#x1cf;" horiz-adv-x="637" d="M4 85l141 20l161 1143l-141 20l17 85h447l8 -85l-141 -20l-161 -1143l141 -20l-17 -85h-447zM140 1752l5 32l105 10l198 -202l271 202l94 -10l-5 -32l-324 -292l-132 10z" />
<glyph unicode="&#x1d0;" horiz-adv-x="637" d="M146 1000l17 85l231 22l81 -78l-129 -924l141 -20l-17 -85l-230 -22l-81 78l128 924zM159 1628l4 32l97 10l141 -262l238 262l93 -10l-4 -32l-286 -373l-131 10z" />
<glyph unicode="&#x1d1;" horiz-adv-x="1346" d="M80 525l11 79q55 388 229 579.5t461 191.5q276 0 399 -137q93 -104 93 -287q0 -58 -9 -124l-11 -78q-53 -378 -225.5 -574.5t-463.5 -196.5q-279 0 -400 138q-93 105 -93 289q0 56 9 120zM277 570q-8 -59 -8 -111q0 -155 71 -253q95 -130 272 -129q76 0 151 24t134 65 q53 101 93.5 228.5t58.5 255.5l18 133q9 68 9 127q0 150 -60 240q-84 126 -283 126q-73 0 -148 -23.5t-137 -64.5q-56 -108 -96 -235t-57 -250zM539 1752l5 32l105 10l198 -202l271 202l94 -10l-5 -32l-324 -292l-132 10z" />
<glyph unicode="&#x1d2;" horiz-adv-x="1089" d="M90 429l14 93q40 271 188 428t363 157q205 0 291 -115q62 -84 63 -228q0 -54 -9 -117l-13 -95q-36 -254 -189.5 -414t-360.5 -160q-203 0 -291 113q-64 82 -65 224q0 53 9 114zM272 443q-7 -52 -7 -98q1 -113 43 -181q60 -96 161 -96q44 0 91.5 12.5t97.5 37.5 q46 60 85.5 160t58.5 235l16 119q9 66 9 120q0 103 -32 167q-49 98 -172 98q-51 0 -100.5 -14t-88.5 -35q-50 -75 -89 -182t-56 -224zM481 1628l4 32l97 10l141 -262l238 262l93 -10l-4 -32l-286 -373l-131 10z" />
<glyph unicode="&#x1d3;" horiz-adv-x="1384" d="M132 1268l17 85h447l8 -85l-141 -20l-98 -702q-9 -68 -9 -127q0 -139 53 -223q76 -119 247 -119q78 0 151.5 21.5t123.5 54.5q38 63 71.5 163.5t47.5 204.5l102 727l-141 20l17 85h398l8 -85l-141 -20l-102 -730q-40 -281 -184.5 -410.5t-408.5 -129.5q-253 0 -360 126 q-80 94 -80 264q0 57 9 123l106 757zM551 1752l5 32l105 10l198 -202l271 202l94 -10l-5 -32l-324 -292l-132 10z" />
<glyph unicode="&#x1d4;" horiz-adv-x="1263" d="M122 1000l17 85l231 22l81 -78l-93 -675q-10 -71 -10 -122q0 -56 12 -86q22 -60 92 -60q89 0 189 75.5t190 206.5l85 612l-141 20l17 85l231 22l81 -78l-129 -924l141 -20l-17 -85l-230 -22l-81 78l26 188q-91 -123 -204 -194.5t-226 -71.5q-133 0 -186 70 q-38 50 -38 140q0 36 6 78l97 714zM461 1628l4 32l97 10l141 -262l238 262l93 -10l-4 -32l-286 -373l-131 10z" />
<glyph unicode="&#x1d5;" horiz-adv-x="1384" d="M132 1268l17 85h447l8 -85l-141 -20l-98 -702q-9 -68 -9 -127q0 -139 53 -223q76 -119 247 -119q78 0 151.5 21.5t123.5 54.5q38 63 71.5 163.5t47.5 204.5l102 727l-141 20l17 85h398l8 -85l-141 -20l-102 -730q-40 -281 -184.5 -410.5t-408.5 -129.5q-253 0 -360 126 q-80 94 -80 264q0 57 9 123l106 757zM507 1792l19 120h771l-20 -120h-770zM520 1571q0 26 5.5 49.5t14.5 41.5t21.5 28.5t27.5 10.5q26 0 49.5 -5.5t41.5 -15.5t28.5 -22.5t10.5 -27.5q0 -27 -5.5 -50.5t-15 -41t-22 -27.5t-27.5 -10q-27 0 -51 5.5t-41 15t-27 22t-10 27.5z M956 1571q0 26 5.5 49.5t14.5 41.5t21.5 28.5t27.5 10.5q27 0 50.5 -5.5t41 -15.5t28 -22.5t10.5 -27.5q0 -27 -5.5 -50.5t-15 -41t-22 -27.5t-27.5 -10q-27 0 -50.5 5.5t-41 15t-27.5 22t-10 27.5z" />
<glyph unicode="&#x1d6;" horiz-adv-x="1263" d="M122 1000l17 85l231 22l81 -78l-93 -675q-10 -71 -10 -122q0 -56 12 -86q22 -60 92 -60q89 0 189 75.5t190 206.5l85 612l-141 20l17 85l231 22l81 -78l-129 -924l141 -20l-17 -85l-230 -22l-81 78l26 188q-91 -123 -204 -194.5t-226 -71.5q-133 0 -186 70 q-38 50 -38 140q0 36 6 78l97 714zM398 1371q0 25 5 47.5t14 39.5t21 27t26 10q25 0 47.5 -5.5t39.5 -14.5t27 -21t10 -26q0 -52 -19.5 -87.5t-47.5 -35.5q-52 0 -87.5 19t-35.5 47zM404 1640l17 110h711l-18 -110h-710zM824 1371q0 25 5 47.5t14 39.5t21 27t26 10 q25 0 47.5 -5.5t39.5 -14.5t27 -21t10 -26q0 -52 -19.5 -87.5t-47.5 -35.5q-52 0 -87.5 19t-35.5 47z" />
<glyph unicode="&#x1d7;" horiz-adv-x="1384" d="M132 1268l17 85h447l8 -85l-141 -20l-98 -702q-9 -68 -9 -127q0 -139 53 -223q76 -119 247 -119q78 0 151.5 21.5t123.5 54.5q38 63 71.5 163.5t47.5 204.5l102 727l-141 20l17 85h398l8 -85l-141 -20l-102 -730q-40 -281 -184.5 -410.5t-408.5 -129.5q-253 0 -360 126 q-80 94 -80 264q0 57 9 123l106 757zM520 1571q0 26 5.5 49.5t14.5 41.5t21.5 28.5t27.5 10.5q26 0 49.5 -5.5t41.5 -15.5t28.5 -22.5t10.5 -27.5q0 -27 -5.5 -50.5t-15 -41t-22 -27.5t-27.5 -10q-27 0 -51 5.5t-41 15t-27 22t-10 27.5zM739 1756l5 32l337 281l191 -10 l-9 -66l-430 -248zM956 1571q0 26 5.5 49.5t14.5 41.5t21.5 28.5t27.5 10.5q27 0 50.5 -5.5t41 -15.5t28 -22.5t10.5 -27.5q0 -27 -5.5 -50.5t-15 -41t-22 -27.5t-27.5 -10q-27 0 -50.5 5.5t-41 15t-27.5 22t-10 27.5z" />
<glyph unicode="&#x1d8;" horiz-adv-x="1263" d="M122 1000l17 85l231 22l81 -78l-93 -675q-10 -71 -10 -122q0 -56 12 -86q22 -60 92 -60q89 0 189 75.5t190 206.5l85 612l-141 20l17 85l231 22l81 -78l-129 -924l141 -20l-17 -85l-230 -22l-81 78l26 188q-91 -123 -204 -194.5t-226 -71.5q-133 0 -186 70 q-38 50 -38 140q0 36 6 78l97 714zM398 1371q0 25 5 47.5t14 39.5t21 27t26 10q25 0 47.5 -5.5t39.5 -14.5t27 -21t10 -26q0 -52 -19.5 -87.5t-47.5 -35.5q-52 0 -87.5 19t-35.5 47zM701 1612l5 32l254 363l181 -10l-10 -66l-356 -329zM824 1371q0 25 5 47.5t14 39.5t21 27 t26 10q25 0 47.5 -5.5t39.5 -14.5t27 -21t10 -26q0 -52 -19.5 -87.5t-47.5 -35.5q-52 0 -87.5 19t-35.5 47z" />
<glyph unicode="&#x1d9;" horiz-adv-x="1384" d="M132 1268l17 85h447l8 -85l-141 -20l-98 -702q-9 -68 -9 -127q0 -139 53 -223q76 -119 247 -119q78 0 151.5 21.5t123.5 54.5q38 63 71.5 163.5t47.5 204.5l102 727l-141 20l17 85h398l8 -85l-141 -20l-102 -730q-40 -281 -184.5 -410.5t-408.5 -129.5q-253 0 -360 126 q-80 94 -80 264q0 57 9 123l106 757zM520 1571q0 26 5.5 49.5t14.5 41.5t21.5 28.5t27.5 10.5q26 0 49.5 -5.5t41.5 -15.5t28.5 -22.5t10.5 -27.5q0 -27 -5.5 -50.5t-15 -41t-22 -27.5t-27.5 -10q-27 0 -51 5.5t-41 15t-27 22t-10 27.5zM580 2037l5 32l105 10l198 -202 l271 202l94 -10l-5 -32l-324 -292l-132 10zM956 1571q0 26 5.5 49.5t14.5 41.5t21.5 28.5t27.5 10.5q27 0 50.5 -5.5t41 -15.5t28 -22.5t10.5 -27.5q0 -27 -5.5 -50.5t-15 -41t-22 -27.5t-27.5 -10q-27 0 -50.5 5.5t-41 15t-27.5 22t-10 27.5z" />
<glyph unicode="&#x1da;" horiz-adv-x="1263" d="M122 1000l17 85l231 22l81 -78l-93 -675q-10 -71 -10 -122q0 -56 12 -86q22 -60 92 -60q89 0 189 75.5t190 206.5l85 612l-141 20l17 85l231 22l81 -78l-129 -924l141 -20l-17 -85l-230 -22l-81 78l26 188q-91 -123 -204 -194.5t-226 -71.5q-133 0 -186 70 q-38 50 -38 140q0 36 6 78l97 714zM398 1371q0 25 5 47.5t14 39.5t21 27t26 10q25 0 47.5 -5.5t39.5 -14.5t27 -21t10 -26q0 -52 -19.5 -87.5t-47.5 -35.5q-52 0 -87.5 19t-35.5 47zM524 1965l4 32l97 10l141 -262l238 262l93 -10l-4 -32l-286 -373l-131 10zM824 1371 q0 25 5 47.5t14 39.5t21 27t26 10q25 0 47.5 -5.5t39.5 -14.5t27 -21t10 -26q0 -52 -19.5 -87.5t-47.5 -35.5q-52 0 -87.5 19t-35.5 47z" />
<glyph unicode="&#x1db;" horiz-adv-x="1384" d="M132 1268l17 85h447l8 -85l-141 -20l-98 -702q-9 -68 -9 -127q0 -139 53 -223q76 -119 247 -119q78 0 151.5 21.5t123.5 54.5q38 63 71.5 163.5t47.5 204.5l102 727l-141 20l17 85h398l8 -85l-141 -20l-102 -730q-40 -281 -184.5 -410.5t-408.5 -129.5q-253 0 -360 126 q-80 94 -80 264q0 57 9 123l106 757zM520 1571q0 26 5.5 49.5t14.5 41.5t21.5 28.5t27.5 10.5q26 0 49.5 -5.5t41.5 -15.5t28.5 -22.5t10.5 -27.5q0 -27 -5.5 -50.5t-15 -41t-22 -27.5t-27.5 -10q-27 0 -51 5.5t-41 15t-27 22t-10 27.5zM556 1993l9 66l193 10l239 -281 l-5 -32l-96 -11zM956 1571q0 26 5.5 49.5t14.5 41.5t21.5 28.5t27.5 10.5q27 0 50.5 -5.5t41 -15.5t28 -22.5t10.5 -27.5q0 -27 -5.5 -50.5t-15 -41t-22 -27.5t-27.5 -10q-27 0 -50.5 5.5t-41 15t-27.5 22t-10 27.5z" />
<glyph unicode="&#x1dc;" horiz-adv-x="1263" d="M122 1000l17 85l231 22l81 -78l-93 -675q-10 -71 -10 -122q0 -56 12 -86q22 -60 92 -60q89 0 189 75.5t190 206.5l85 612l-141 20l17 85l231 22l81 -78l-129 -924l141 -20l-17 -85l-230 -22l-81 78l26 188q-91 -123 -204 -194.5t-226 -71.5q-133 0 -186 70 q-38 50 -38 140q0 36 6 78l97 714zM398 1371q0 25 5 47.5t14 39.5t21 27t26 10q25 0 47.5 -5.5t39.5 -14.5t27 -21t10 -26q0 -52 -19.5 -87.5t-47.5 -35.5q-52 0 -87.5 19t-35.5 47zM476 1931l10 66l176 10l152 -363l-5 -32l-89 -10zM824 1371q0 25 5 47.5t14 39.5t21 27 t26 10q25 0 47.5 -5.5t39.5 -14.5t27 -21t10 -26q0 -52 -19.5 -87.5t-47.5 -35.5q-52 0 -87.5 19t-35.5 47z" />
<glyph unicode="&#x1e6;" horiz-adv-x="1275" d="M71 505l13 89q55 378 240 579.5t482 201.5q100 0 191.5 -14.5t163.5 -42.5l-17 -270h-88l-45 201q-53 13 -117.5 20t-128.5 7q-81 0 -163.5 -24t-149.5 -64q-59 -98 -101.5 -223t-64.5 -282l-18 -133q-6 -48 -6 -92q0 -161 84 -258q108 -123 270 -123q48 0 100 9.5 t100 25.5l60 429l-141 20l17 85h447l8 -85l-141 -20l-61 -436q-104 -59 -224.5 -93t-232.5 -34q-263 0 -388 135q-97 105 -97 283q0 52 8 109zM530 1752l5 32l105 10l198 -202l271 202l94 -10l-5 -32l-324 -292l-132 10z" />
<glyph unicode="&#x1e7;" horiz-adv-x="1114" d="M6 -387l33 140q119 -44 236.5 -70.5t197.5 -26.5q90 52 151.5 165t82.5 268l21 156q-83 -125 -181.5 -196t-199.5 -71q-174 0 -228 100q-36 66 -36 173q0 55 10 122l26 188q35 246 174.5 396t345.5 150q85 0 187 -22t192 -56l-126 -900q-40 -288 -183.5 -437t-359.5 -149 q-93 0 -186.5 21t-156.5 49zM284 168q29 -82 121 -82q80 0 170 76.5t171 209.5l86 618q-40 14 -94 23.5t-105 9.5q-56 0 -110 -14t-93 -36q-43 -69 -77 -173t-49 -208l-19 -131q-15 -107 -15 -181q0 -71 14 -112zM451 1628l4 32l97 10l141 -262l238 262l93 -10l-4 -32 l-286 -373l-131 10z" />
<glyph unicode="&#x1f0;" horiz-adv-x="579" d="M-268 -410l45 111q43 -15 90 -26q40 -10 88.5 -17.5t95.5 -7.5q18 26 34 64q14 32 28 81.5t24 118.5l147 1066l-141 20l17 85l231 22l81 -78l-152 -1076q-17 -119 -49.5 -198t-78.5 -126t-104.5 -66.5t-126.5 -19.5q-48 0 -90 7t-73 16q-36 11 -66 24zM163 1628l4 32 l97 10l141 -262l238 262l93 -10l-4 -32l-286 -373l-131 10z" />
<glyph unicode="&#x1f4;" horiz-adv-x="1275" d="M71 505l13 89q55 378 240 579.5t482 201.5q100 0 191.5 -14.5t163.5 -42.5l-17 -270h-88l-45 201q-53 13 -117.5 20t-128.5 7q-81 0 -163.5 -24t-149.5 -64q-59 -98 -101.5 -223t-64.5 -282l-18 -133q-6 -48 -6 -92q0 -161 84 -258q108 -123 270 -123q48 0 100 9.5 t100 25.5l60 429l-141 20l17 85h447l8 -85l-141 -20l-61 -436q-104 -59 -224.5 -93t-232.5 -34q-263 0 -388 135q-97 105 -97 283q0 52 8 109zM683 1471l5 32l337 281l191 -10l-9 -66l-430 -248z" />
<glyph unicode="&#x1f5;" horiz-adv-x="1114" d="M6 -387l33 140q119 -44 236.5 -70.5t197.5 -26.5q90 52 151.5 165t82.5 268l21 156q-83 -125 -181.5 -196t-199.5 -71q-174 0 -228 100q-36 66 -36 173q0 55 10 122l26 188q35 246 174.5 396t345.5 150q85 0 187 -22t192 -56l-126 -900q-40 -288 -183.5 -437t-359.5 -149 q-93 0 -186.5 21t-156.5 49zM284 168q29 -82 121 -82q80 0 170 76.5t171 209.5l86 618q-40 14 -94 23.5t-105 9.5q-56 0 -110 -14t-93 -36q-43 -69 -77 -173t-49 -208l-19 -131q-15 -107 -15 -181q0 -71 14 -112zM638 1275l5 32l254 363l181 -10l-10 -66l-356 -329z" />
<glyph unicode="&#x1fa;" d="M-124 85l111 20l622 1248h149l261 -1248l112 -20l-17 -85h-417l-8 85l141 20l-64 321h-476l-157 -321l142 -20l-17 -85h-374zM338 525h408l-115 579h-10zM527 1570q7 52 28.5 92t52.5 67t69 41t79 14q36 0 67 -9t53 -27.5t32 -47t5 -66.5q-8 -55 -29 -95.5t-51.5 -66.5 t-68.5 -39t-79 -13q-37 0 -68.5 9.5t-53 28t-31.5 46.5t-5 66zM632 1602q-7 -53 15.5 -83.5t58.5 -30.5q17 0 32 3t26 7q12 4 23 11q4 11 8 25q4 12 8 29t7 39q7 54 -16 84.5t-59 30.5q-17 0 -31 -3.5t-25 -7.5q-13 -4 -24 -10q-4 -7 -8 -19q-4 -11 -8 -28.5t-7 -46.5z M690 1850l5 32l337 281l191 -10l-9 -66l-430 -248z" />
<glyph unicode="&#x1fb;" horiz-adv-x="1158" d="M92 373l26 188q37 252 177.5 399t342.5 147q81 0 179.5 -20.5t199.5 -57.5l-129 -924l142 -20l-17 -85l-230 -22l-81 78l26 190q-78 -122 -179 -195t-206 -73q-165 0 -222 95q-38 64 -38 177q0 55 9 123zM281 178q24 -92 123 -92q84 0 175 81t167 206l85 617 q-46 16 -99 24.5t-100 8.5q-55 0 -108.5 -14t-94.5 -36q-40 -66 -72.5 -159.5t-53.5 -221.5l-19 -131q-14 -102 -14 -175q0 -65 11 -108zM503 1436q8 59 31 103t56 73t73 43.5t82 14.5q38 0 71 -10t55.5 -30.5t33 -52.5t4.5 -77q-9 -62 -31 -106.5t-54.5 -73t-72.5 -42 t-83 -13.5q-39 0 -72.5 10t-56 31t-32.5 53.5t-4 76.5zM613 1468q-10 -66 13 -103t62 -37q16 0 30 2.5t25 6.5q12 4 23 10q7 13 13 31q5 15 11 38t11 52q11 66 -10 103t-66 37q-13 0 -24.5 -3t-21.5 -7q-11 -4 -22 -9q-9 -11 -17 -29q-7 -15 -14.5 -37.5t-12.5 -54.5z M712 1771l5 32l254 363l181 -10l-10 -66l-356 -329z" />
<glyph unicode="&#x1fc;" horiz-adv-x="1596" d="M-172 85l113 20l770 1248h841l-19 -300h-86l-40 201h-433l-70 -497h336l40 137l83 -20l-52 -355l-87 -5v144h-334l-79 -559h461l105 203l80 -13l-66 -289h-902l-8 85l141 20l45 321h-375l-196 -323l131 -18l-17 -85h-374zM352 525h329l100 707zM914 1471l5 32l337 281 l191 -10l-9 -66l-430 -248z" />
<glyph unicode="&#x1fd;" horiz-adv-x="1622" d="M44 228q12 85 57.5 152t128 114t205 72.5t290.5 25.5l16 110q11 79 7.5 138t-27 98.5t-68.5 59t-118 19.5q-32 0 -60.5 -2.5t-51.5 -5.5q-26 -4 -49 -7l-90 -232h-87l40 283q41 15 91 27q43 10 102 18.5t128 8.5q131 0 218.5 -33.5t126.5 -109.5q67 72 149.5 107.5 t175.5 35.5q158 0 232 -71.5t55 -218.5q-9 -72 -44.5 -132t-91 -102.5t-130 -66.5t-161.5 -24q-61 0 -112 3t-83 7l-8 -59q-15 -104 -1.5 -175.5t44 -115.5t72 -64t82.5 -20q50 0 96 14t81 31q41 19 78 45v-86q-35 -27 -82 -47q-40 -18 -96.5 -32.5t-128.5 -14.5 q-128 0 -205 47.5t-109 138.5q-25 -24 -64.5 -56t-93 -61t-120 -49t-145.5 -20q-60 0 -110 17t-83.5 49t-49 78.5t-6.5 105.5zM228 255q-6 -48 5 -83t32.5 -58.5t50 -34.5t58.5 -11q58 0 113.5 20t100.5 45.5t75.5 49t39.5 31.5q-18 92 0 215l10 73q-116 -1 -197.5 -12 t-132.5 -25q-61 -16 -98 -37q-13 -21 -24 -47q-10 -23 -19 -54.5t-14 -71.5zM905 583q18 -1 43 -2.5t54 -2.5t59.5 -1.5t60.5 -0.5q35 0 64.5 6t49.5 14q24 9 42 20q11 22 21 49q8 23 17 55t14 71q8 66 0.5 110t-26.5 69.5t-47 36t-61 10.5q-31 0 -58 -8t-47 -17 q-24 -11 -44 -24q-30 -43 -56 -101q-23 -50 -47 -121t-39 -163zM865 1275l5 32l254 363l181 -10l-10 -66l-356 -329z" />
<glyph unicode="&#x1fe;" horiz-adv-x="1346" d="M80 525l11 79q26 188 82 332t141.5 241.5t202 147.5t264.5 50q38 0 74 -3t68 -8l80 176h135l-2 -20l-87 -191q134 -57 188.5 -181.5t26.5 -320.5l-11 -78q-53 -377 -225 -574t-464 -197q-33 0 -63.5 2t-59.5 6l-78 -174h-134l2 20l83 184q-291 107 -234 509zM277 570 q-20 -149 9.5 -250t92.5 -160l495 1095q-32 11 -67.5 16t-73.5 5q-62 0 -114 -13.5t-90 -30.5q-45 -19 -81 -44q-33 -61 -62 -137q-26 -65 -51.5 -153.5t-39.5 -194.5zM491 95q57 -18 121 -18q62 0 114 13.5t90 30.5q45 19 81 45q33 63 62 140q25 66 50.5 153.5t39.5 190.5 l18 133q20 153 -3.5 250.5t-78.5 153.5zM714 1471l5 32l337 281l191 -10l-9 -66l-430 -248z" />
<glyph unicode="&#x1ff;" horiz-adv-x="1089" d="M90 429l14 93q22 145 72.5 254.5t123.5 183t163.5 110.5t191.5 37q33 0 63 -3l73 161h135l-2 -20l-79 -173q47 -22 81.5 -58t55 -88t25.5 -121.5t-7 -157.5l-13 -95q-17 -121 -64 -225.5t-119 -182t-165 -122t-202 -44.5q-46 0 -85 6l-77 -172h-134l2 20l85 189 q-95 51 -128 155t-10 253zM267.5 287.5q8.5 -64.5 31.5 -109.5l377 833q-26 6 -53 6q-40 0 -74 -8t-60 -17q-30 -11 -55 -24q-31 -46 -59 -107q-24 -52 -48 -127t-38 -172l-17 -119q-13 -91 -4.5 -155.5zM397 82q34 -14 72 -14q36 0 70 7.5t60 17.5q31 11 59 25q30 40 58 98 q23 50 47.5 123.5t38.5 173.5l16 119q15 115 5 188.5t-38 117.5zM591 1275l5 32l254 363l181 -10l-10 -66l-356 -329z" />
<glyph unicode="&#x218;" horiz-adv-x="1047" d="M32 41l16 259h100l45 -199q45 -12 98 -18t113 -6q68 0 134.5 10.5t118.5 27.5q20 28 40.5 75t27.5 91q3 17 3 34q0 64 -40 123q-50 74 -227 190q-207 132 -266 214q-47 65 -47 148q0 21 3 44q22 155 162 248t358 93q93 0 179.5 -14t144.5 -38l-17 -270h-88l-45 201 q-36 9 -90 15.5t-108 6.5q-65 0 -129 -10.5t-114 -27.5q-23 -40 -36.5 -77.5t-19.5 -74.5q-2 -13 -2 -26q0 -62 44 -116q54 -66 233 -182q173 -112 247 -204q59 -74 59 -166q0 -23 -4 -47q-23 -165 -165.5 -266t-358.5 -101q-109 0 -206 16.5t-163 46.5zM264 -534l53 383 h166l-5 -42l-111 -341h-103z" />
<glyph unicode="&#x219;" horiz-adv-x="923" d="M82 48l24 240h82l31 -197q33 -11 79 -17t96 -6q48 0 95 8.5t78 19.5q18 21 32.5 52t20.5 72q2 14 2 28q0 54 -31 98q-39 56 -203 160q-155 96 -201 164q-36 53 -36 120q0 19 3 38q19 122 129 200.5t286 78.5q80 0 154 -18t124 -50l-25 -241h-81l-33 199q-28 9 -70 14.5 t-85 5.5q-44 0 -88 -8.5t-71 -19.5q-21 -22 -34.5 -49t-18.5 -58q-3 -17 -3 -33q0 -55 32 -91q40 -48 170 -126q177 -108 229 -184q41 -60 41 -136q0 -20 -3 -41q-20 -139 -140.5 -216t-298.5 -77q-83 0 -159 19.5t-127 50.5zM236 -534l53 383h166l-5 -42l-111 -341h-103z " />
<glyph unicode="&#x21a;" horiz-adv-x="1038" d="M38 1063l56 290h1032l-27 -290h-79l-30 191h-294l-162 -1149l141 -20l-17 -85h-447l-8 85l141 20l162 1149h-305l-75 -191h-88zM245 -534l53 383h166l-5 -42l-111 -341h-103z" />
<glyph unicode="&#x21b;" horiz-adv-x="765" d="M88 1001l11 84h176l29 207l193 83l-41 -290h307l-11 -84h-308l-91 -653q-8 -57 -8 -102q0 -64 16 -106q27 -72 105 -72q42 0 96.5 21.5t96.5 48.5v-86q-55 -34 -120.5 -54t-132.5 -20q-156 0 -208 89q-36 60 -35 161q0 48 8 106l92 667h-175zM202 -534l53 383h166l-5 -42 l-111 -341h-103z" />
<glyph unicode="&#x237;" horiz-adv-x="579" d="M-268 -410l45 111q43 -15 90 -26q40 -10 88.5 -17.5t95.5 -7.5q18 26 34 64q14 32 28 81.5t24 118.5l147 1066l-141 20l17 85l231 22l81 -78l-152 -1076q-17 -119 -49.5 -198t-78.5 -126t-104.5 -66.5t-126.5 -19.5q-48 0 -90 7t-73 16q-36 11 -66 24z" />
<glyph unicode="&#x251;" horiz-adv-x="1158" d="M92 373l26 188q37 252 177.5 399t342.5 147q81 0 179.5 -20.5t199.5 -57.5l-129 -924l142 -20l-17 -85l-230 -22l-81 78l26 190q-78 -122 -179 -195t-206 -73q-165 0 -222 95q-38 64 -38 177q0 55 9 123zM281 178q24 -92 123 -92q84 0 175 81t167 206l85 617 q-46 16 -99 24.5t-100 8.5q-55 0 -108.5 -14t-94.5 -36q-40 -66 -72.5 -159.5t-53.5 -221.5l-19 -131q-14 -102 -14 -175q0 -65 11 -108z" />
<glyph unicode="&#x259;" horiz-adv-x="967" d="M63 268q9 72 44.5 132t91 102.5t130 66.5t161.5 24q61 0 111.5 -3.5t82.5 -6.5l9 59q15 108 4.5 180.5t-39 115.5t-71.5 61t-91 18q-50 0 -96 -14t-81 -31q-41 -20 -78 -45v86q35 26 82 47q40 17 96.5 32t128.5 15q101 0 170.5 -30.5t109 -88.5t51 -142t-3.5 -190 l-13 -93q-20 -145 -66 -254.5t-112.5 -183t-151.5 -110.5t-182 -37q-158 0 -232 71.5t-55 218.5zM247.5 184q7.5 -44 26.5 -69.5t47 -36t61 -10.5q31 0 58 7.5t47 16.5q24 11 44 25q30 43 56 101q23 50 46.5 120.5t38.5 162.5q-18 1 -43 2.5t-53.5 2.5t-59.5 2t-60 1 q-36 0 -65 -6t-49 -14q-24 -9 -42 -20q-11 -22 -21 -49q-8 -23 -17 -55.5t-14 -70.5q-8 -66 -0.5 -110z" />
<glyph unicode="&#x261;" horiz-adv-x="1116" d="M6 -387l33 140q119 -44 236.5 -70.5t197.5 -26.5q90 52 151.5 165t82.5 268l21 156q-83 -125 -181.5 -196t-199.5 -71q-174 0 -228 100q-36 66 -36 173q0 55 10 122l26 188q35 246 174.5 396t345.5 150q85 0 187 -22t192 -56l-126 -900q-40 -288 -183.5 -437t-359.5 -149 q-93 0 -186.5 21t-156.5 49zM284 168q29 -82 121 -82q80 0 170 76.5t171 209.5l86 618q-40 14 -94 23.5t-105 9.5q-56 0 -110 -14t-93 -36q-43 -69 -77 -173t-49 -208l-19 -131q-15 -107 -15 -181q0 -71 14 -112z" />
<glyph unicode="&#x2bb;" horiz-adv-x="706" d="M200.5 1134q-0.5 24 4.5 56q6 46 19 89t40.5 88t73 92.5t116.5 102.5l52 -73q-88 -66 -125.5 -116.5t-42.5 -88.5q-2 -18 11 -28t34 -16q44 -11 68.5 -34.5t20.5 -52.5q-5 -32 -16 -60.5t-27 -50.5t-34.5 -34.5t-37.5 -12.5q-36 0 -73.5 11t-58.5 37q-6 9 -12 21t-9 29 t-3.5 41z" />
<glyph unicode="&#x2bc;" horiz-adv-x="710" d="M200 1068q88 66 125.5 116.5t42.5 88.5q2 18 -11 28t-34 16q-44 11 -68.5 34.5t-20.5 52.5q4 32 15.5 60.5t27.5 50.5t34.5 34.5t37.5 12.5q36 0 73.5 -11t58.5 -37q13 -17 21 -50t-1 -97q-6 -46 -19 -89t-40.5 -88t-73 -92.5t-116.5 -102.5z" />
<glyph unicode="&#x2be;" horiz-adv-x="548" d="M235 1265l20 63q16 0 30 2.5t25 6.5q12 4 23 10q7 13 13 31q5 15 11 38t11 52q11 66 -7 103t-69 37l20 62q38 0 71 -10t55.5 -31.5t33 -56t3.5 -82.5q-8 -58 -29 -100.5t-52.5 -70t-72 -41t-86.5 -13.5z" />
<glyph unicode="&#x2bf;" horiz-adv-x="548" d="M72 1446q8 55 30.5 97t55.5 70t73 42.5t82 14.5l-20 -62q-13 0 -24.5 -3t-21.5 -7q-11 -4 -22 -9q-9 -11 -17 -29q-7 -15 -14.5 -37.5t-12.5 -54.5q-10 -66 9.5 -103t65.5 -37l-20 -63q-39 0 -72.5 10.5t-56 32t-32.5 56t-3 82.5z" />
<glyph unicode="&#x2c6;" horiz-adv-x="973" d="M200 1275l4 32l286 373l131 -10l152 -363l-4 -32l-97 -10l-149 262l-230 -262z" />
<glyph unicode="&#x2c7;" horiz-adv-x="973" d="M200 1628l4 32l97 10l141 -262l238 262l93 -10l-4 -32l-286 -373l-131 10z" />
<glyph unicode="&#x2c8;" horiz-adv-x="675" d="M250 1266l57 404h118l-57 -404h-118z" />
<glyph unicode="&#x2c9;" horiz-adv-x="1028" d="M150 1353l18 110h710l-19 -110h-709z" />
<glyph unicode="&#x2ca;" horiz-adv-x="840" d="M200 1275l5 32l254 363l181 -10l-10 -66l-356 -329z" />
<glyph unicode="&#x2cb;" horiz-adv-x="738" d="M200 1594l10 66l176 10l152 -363l-5 -32l-89 -10z" />
<glyph unicode="&#x2cc;" horiz-adv-x="675" d="M250 -593l57 404h118l-57 -404h-118z" />
<glyph unicode="&#x2d8;" horiz-adv-x="920" d="M158 1592l68 10q-2 -16 7 -45.5t34 -59t67 -51t106 -21.5q61 0 109.5 21.5t82 51t52 59t20.5 45.5l66 -10q-8 -54 -37 -107t-75 -95t-106 -68.5t-130 -26.5t-122.5 26.5t-86.5 68.5t-48.5 95t-6.5 107z" />
<glyph unicode="&#x2d9;" horiz-adv-x="700" d="M250 1410q0 26 5.5 49.5t15 41.5t22 28.5t27.5 10.5q26 0 49.5 -5.5t41.5 -15t28.5 -22.5t10.5 -27q0 -27 -5.5 -51t-15 -41.5t-22.5 -27.5t-27 -10q-27 0 -51 5.5t-41.5 15t-27.5 22t-10 27.5z" />
<glyph unicode="&#x2da;" horiz-adv-x="818" d="M206 1436q8 59 31 103t56 73t73 43.5t82 14.5q38 0 71 -10t55.5 -30.5t33 -52.5t4.5 -77q-9 -62 -31 -106.5t-54.5 -73t-72.5 -42t-83 -13.5q-39 0 -72.5 10t-56 31t-32.5 53.5t-4 76.5zM316 1468q-10 -66 13 -103t62 -37q16 0 30 2.5t25 6.5q12 4 23 10q7 13 13 31 q5 15 11 38t11 52q11 66 -10 103t-66 37q-13 0 -24.5 -3t-21.5 -7q-11 -4 -22 -9q-9 -11 -17 -29q-7 -15 -14.5 -37.5t-12.5 -54.5z" />
<glyph unicode="&#x2db;" horiz-adv-x="830" d="M206 -315q10 62 47.5 123.5t94.5 118.5t129.5 108t152.5 92v-127q-45 -28 -92.5 -63.5t-88 -76t-69 -84.5t-33.5 -89q-4 -34 13 -49t48 -15q29 0 58 12.5t53 27.5q28 18 55 40l-8 -73q-28 -25 -63 -44q-30 -17 -70.5 -30t-88.5 -13q-37 0 -65.5 7t-46.5 23.5t-25 43.5 t-1 68z" />
<glyph unicode="&#x2dc;" horiz-adv-x="1137" d="M150 1282l4 25q16 108 82.5 163.5t169.5 55.5q54 0 106.5 -20.5t101.5 -45.5t92.5 -45.5t78.5 -20.5q41 0 71.5 32t41.5 98l89 10l-7 -47q-15 -102 -77 -160.5t-163 -58.5q-49 0 -104 20.5t-109 45.5t-103 45.5t-85 20.5q-18 0 -35.5 -4.5t-31.5 -16.5t-25 -33t-16 -54z " />
<glyph unicode="&#x2dd;" horiz-adv-x="1118" d="M150 1275l5 32l254 363l181 -10l-10 -66l-356 -329zM528 1275l5 32l254 363l181 -10l-10 -66l-356 -329z" />
<glyph unicode="&#x2f3;" horiz-adv-x="818" d="M206 -405q8 59 31 103t56 73t73 43.5t82 14.5q38 0 71 -10t55.5 -30.5t33 -52.5t4.5 -77q-9 -62 -31 -106.5t-54.5 -73t-72.5 -42t-83 -13.5q-39 0 -72.5 10t-56 31t-32.5 53.5t-4 76.5zM316 -373q-10 -66 13 -103t62 -37q16 0 30 2.5t25 6.5q12 4 23 10q7 13 13 31 q5 15 11 38t11 52q11 66 -10 103t-66 37q-13 0 -24.5 -3t-21.5 -7q-11 -4 -22 -9q-9 -11 -17 -29q-7 -15 -14.5 -37.5t-12.5 -54.5z" />
<glyph unicode="&#x300;" horiz-adv-x="0" d="M-542 1594l10 66l176 10l152 -363l-5 -32l-89 -10z" />
<glyph unicode="&#x301;" horiz-adv-x="0" d="M-655 1275l5 32l254 363l181 -10l-10 -66l-356 -329z" />
<glyph unicode="&#x302;" horiz-adv-x="0" d="M-774 1275l4 32l286 373l131 -10l152 -363l-4 -32l-97 -10l-149 262l-230 -262z" />
<glyph unicode="&#x303;" horiz-adv-x="0" d="M-985 1282l4 25q16 108 82.5 163.5t169.5 55.5q54 0 106.5 -20.5t101.5 -45.5t92.5 -45.5t78.5 -20.5q41 0 71.5 32t41.5 98l89 10l-7 -47q-15 -102 -77 -160.5t-163 -58.5q-49 0 -104 20.5t-109 45.5t-103 45.5t-85 20.5q-18 0 -35.5 -4.5t-31.5 -16.5t-25 -33t-16 -54z " />
<glyph unicode="&#x304;" horiz-adv-x="0" d="M-874 1353l18 110h710l-19 -110h-709z" />
<glyph unicode="&#x306;" horiz-adv-x="0" d="M-756 1592l68 10q-2 -16 7 -45.5t34 -59t67 -51t106 -21.5q61 0 109.5 21.5t82 51t52 59t20.5 45.5l66 -10q-8 -54 -37 -107t-75 -95t-106 -68.5t-130 -26.5t-122.5 26.5t-86.5 68.5t-48.5 95t-6.5 107z" />
<glyph unicode="&#x307;" horiz-adv-x="0" d="M-450 1410q0 26 5.5 49.5t15 41.5t22 28.5t27.5 10.5q26 0 49.5 -5.5t41.5 -15t28.5 -22.5t10.5 -27q0 -27 -5.5 -51t-15 -41.5t-22.5 -27.5t-27 -10q-27 0 -51 5.5t-41.5 15t-27.5 22t-10 27.5z" />
<glyph unicode="&#x308;" horiz-adv-x="0" d="M-759 1371q0 25 5 47.5t14 39.5t21 27t26 10q25 0 47.5 -5.5t39.5 -14.5t27 -21t10 -26q0 -52 -19.5 -87.5t-47.5 -35.5q-52 0 -87.5 19t-35.5 47zM-333 1371q0 25 5 47.5t14 39.5t21 27t26 10q25 0 47.5 -5.5t39.5 -14.5t27 -21t10 -26q0 -52 -19.5 -87.5t-47.5 -35.5 q-52 0 -87.5 19t-35.5 47z" />
<glyph unicode="&#x309;" horiz-adv-x="0" d="M-600 1492l18 123q25 15 58 27q28 11 66 19.5t85 8.5q82 0 125 -34t34 -96q-8 -55 -43.5 -91t-92.5 -71q-21 -13 -34.5 -22t-21.5 -16t-11 -13t-4 -12q-2 -8 -1.5 -16t1.5 -14q1 -8 3 -14l-81 -27q-9 15 -15 31q-5 14 -9.5 29t-2.5 29q4 25 21.5 48t62.5 53q28 18 47 32 t31 26t17.5 23.5t7.5 26.5q3 22 -11 38t-49 16q-19 0 -35.5 -3t-29.5 -6q-15 -4 -28 -9l-35 -91z" />
<glyph unicode="&#x30a;" horiz-adv-x="0" d="M-618 1436q8 59 31 103t56 73t73 43.5t82 14.5q38 0 71 -10t55.5 -30.5t33 -52.5t4.5 -77q-9 -62 -31 -106.5t-54.5 -73t-72.5 -42t-83 -13.5q-39 0 -72.5 10t-56 31t-32.5 53.5t-4 76.5zM-508 1468q-10 -66 13 -103t62 -37q16 0 30 2.5t25 6.5q12 4 23 10q7 13 13 31 q5 15 11 38t11 52q11 66 -10 103t-66 37q-13 0 -24.5 -3t-21.5 -7q-11 -4 -22 -9q-9 -11 -17 -29q-7 -15 -14.5 -37.5t-12.5 -54.5z" />
<glyph unicode="&#x30b;" horiz-adv-x="0" d="M-970 1275l5 32l254 363l181 -10l-10 -66l-356 -329zM-592 1275l5 32l254 363l181 -10l-10 -66l-356 -329z" />
<glyph unicode="&#x30c;" horiz-adv-x="0" d="M-773 1628l4 32l97 10l141 -262l238 262l93 -10l-4 -32l-286 -373l-131 10z" />
<glyph unicode="&#x30f;" horiz-adv-x="1028" d="M150 1594l10 66l176 10l152 -363l-5 -32l-89 -10zM540 1594l10 66l176 10l152 -363l-5 -32l-89 -10z" />
<glyph unicode="&#x31b;" horiz-adv-x="0" d="M-671 858l14 102q76 30 128 55t84.5 50.5t48.5 53.5t21 64q5 35 -1 65t-16 52q-11 26 -27 45l4 30l158 57q40 -60 51.5 -114t5.5 -99q-8 -59 -36 -107.5t-82.5 -92t-141 -83t-211.5 -78.5z" />
<glyph unicode="&#x323;" horiz-adv-x="0" d="M-450 -318q0 26 5.5 49.5t15 41.5t22 28.5t27.5 10.5q26 0 49.5 -5.5t41.5 -15t28.5 -22.5t10.5 -27q0 -27 -5.5 -51t-15 -41.5t-22.5 -27.5t-27 -10q-27 0 -51 5.5t-41.5 15t-27.5 22t-10 27.5z" />
<glyph unicode="&#x324;" horiz-adv-x="0" d="M-759 -312q0 25 5 47.5t14 39.5t21 27t26 10q25 0 47.5 -5.5t39.5 -14.5t27 -21t10 -26q0 -52 -19.5 -87.5t-47.5 -35.5q-52 0 -87.5 19t-35.5 47zM-333 -312q0 25 5 47.5t14 39.5t21 27t26 10q25 0 47.5 -5.5t39.5 -14.5t27 -21t10 -26q0 -52 -19.5 -87.5t-47.5 -35.5 q-52 0 -87.5 19t-35.5 47z" />
<glyph unicode="&#x326;" horiz-adv-x="0" d="M-464 -534l53 383h166l-5 -42l-111 -341h-103z" />
<glyph unicode="&#x327;" horiz-adv-x="0" d="M-639 -410l23 63q25 -11 52 -20q23 -8 52.5 -14t60.5 -6q20 0 36 2t27 4q12 3 22 7q5 12 9 26q4 12 7.5 27t5.5 32q5 54 -25.5 85t-99.5 51l-36 52l72 138h132l-68 -135q40 -11 73.5 -25t56 -35t32.5 -51t4 -72q-5 -38 -24.5 -70t-52 -55.5t-76.5 -37t-99 -13.5 q-40 0 -73 7t-58 16q-29 11 -53 24z" />
<glyph unicode="&#x328;" horiz-adv-x="0" d="M-621 -315q10 62 47.5 123.5t94.5 118.5t129.5 108t152.5 92v-127q-45 -28 -92.5 -63.5t-88 -76t-69 -84.5t-33.5 -89q-4 -34 13 -49t48 -15q29 0 58 12.5t53 27.5q28 18 55 40l-8 -73q-28 -25 -63 -44q-30 -17 -70.5 -30t-88.5 -13q-37 0 -65.5 7t-46.5 23.5t-25 43.5 t-1 68z" />
<glyph unicode="&#x32e;" horiz-adv-x="0" d="M-756 -188l68 10q-2 -16 7 -45.5t34 -59t67 -51t106 -21.5q61 0 109.5 21.5t82 51t52 59t20.5 45.5l66 -10q-8 -54 -37 -107t-75 -95t-106 -68.5t-130 -26.5t-122.5 26.5t-86.5 68.5t-48.5 95t-6.5 107z" />
<glyph unicode="&#x331;" horiz-adv-x="0" d="M-872 -304l18 110h710l-18 -110h-710z" />
<glyph unicode="&#x3bc;" horiz-adv-x="1262" d="M66 -457l196 1437l-141 20l17 85l231 22l81 -78l-93 -675q-11 -79 -9.5 -131t14 -82.5t36 -42.5t57.5 -12q57 0 111 28.5t102.5 71t89.5 92t73 92.5l84 610l-141 20l17 85l231 22l81 -78l-128 -924l140 -20l-17 -85q-21 -7 -44 -11q-20 -5 -43.5 -8t-46.5 -3 q-95 0 -133 62t-18 201q-17 -20 -41 -47.5t-53.5 -56.5t-64.5 -57.5t-74 -51t-82 -36.5t-88 -14q-29 0 -53.5 7t-43 19t-30.5 26.5t-17 29.5l-11 -4l-6 -491z" />
<glyph unicode="&#x3c0;" horiz-adv-x="1492" d="M245 808q24 69 55.5 124.5t75 94.5t101.5 59.5t135 20.5q39 0 88.5 -2.5t104 -6t112 -7.5t111.5 -7.5t103 -6t87 -2.5q35 0 60 1.5t42 3.5q19 2 33 5l48 72l75 -22q-12 -40 -30.5 -82.5t-51.5 -77.5t-83.5 -57.5t-126.5 -22.5h-8l-101 -725l181 -34l-39 -136 q-16 -7 -34 -11q-15 -5 -35 -8t-40 -3q-50 0 -92 15.5t-70 45.5t-40.5 74t-4.5 102l96 686q-62 4 -122 8t-117 9q-32 -173 -72 -319.5t-82.5 -262.5t-84.5 -201t-76 -135l-184 -22l-8 70q33 40 84 116.5t106.5 187t108 254t88.5 319.5q-18 1 -35 1.5t-31 0.5q-43 0 -79 -4.5 t-67 -19t-57.5 -41t-51.5 -71.5z" />
<glyph unicode="&#x1e00;" d="M-124 85l111 20l622 1248h149l261 -1248l112 -20l-17 -85h-417l-8 85l141 20l-64 321h-476l-157 -321l142 -20l-17 -85h-374zM338 525h408l-115 579h-10zM219 -405q8 59 31 103t56 73t73 43.5t82 14.5q38 0 71 -10t55.5 -30.5t33 -52.5t4.5 -77q-9 -62 -31 -106.5 t-54.5 -73t-72.5 -42t-83 -13.5q-39 0 -72.5 10t-56 31t-32.5 53.5t-4 76.5zM329 -373q-10 -66 13 -103t62 -37q16 0 30 2.5t25 6.5q12 4 23 10q7 13 13 31q5 15 11 38t11 52q11 66 -10 103t-66 37q-13 0 -24.5 -3t-21.5 -7q-11 -4 -22 -9q-9 -11 -17 -29 q-7 -15 -14.5 -37.5t-12.5 -54.5z" />
<glyph unicode="&#x1e01;" horiz-adv-x="1158" d="M92 373l26 188q37 252 177.5 399t342.5 147q81 0 179.5 -20.5t199.5 -57.5l-129 -924l142 -20l-17 -85l-230 -22l-81 78l26 190q-78 -122 -179 -195t-206 -73q-165 0 -222 95q-38 64 -38 177q0 55 9 123zM281 178q24 -92 123 -92q84 0 175 81t167 206l85 617 q-46 16 -99 24.5t-100 8.5q-55 0 -108.5 -14t-94.5 -36q-40 -66 -72.5 -159.5t-53.5 -221.5l-19 -131q-14 -102 -14 -175q0 -65 11 -108zM248 -405q8 59 31 103t56 73t73 43.5t82 14.5q38 0 71 -10t55.5 -30.5t33 -52.5t4.5 -77q-9 -62 -31 -106.5t-54.5 -73t-72.5 -42 t-83 -13.5q-39 0 -72.5 10t-56 31t-32.5 53.5t-4 76.5zM358 -373q-10 -66 13 -103t62 -37q16 0 30 2.5t25 6.5q12 4 23 10q7 13 13 31q5 15 11 38t11 52q11 66 -10 103t-66 37q-13 0 -24.5 -3t-21.5 -7q-11 -4 -22 -9q-9 -11 -17 -29q-7 -15 -14.5 -37.5t-12.5 -54.5z" />
<glyph unicode="&#x1e0a;" horiz-adv-x="1335" d="M8 85l141 20l161 1143l-141 20l17 85h546q300 0 431 -153q100 -117 100 -321q0 -64 -10 -137l-12 -88q-44 -310 -218.5 -482t-441.5 -172h-565zM338 99h216q74 0 148.5 16t135.5 43q68 69 127 187.5t82 276.5l13 94q9 68 9 128q-1 168 -73 270q-98 140 -322 140h-173z M636 1599q4 27 14.5 51t26 42t33.5 28.5t37 10.5q27 0 50 -7.5t39 -20t24 -30t5 -36.5q-4 -26 -14.5 -50t-26 -42t-33.5 -28.5t-37 -10.5q-27 0 -50 7.5t-39 20t-24 29.5t-5 36z" />
<glyph unicode="&#x1e0c;" horiz-adv-x="1335" d="M8 85l141 20l161 1143l-141 20l17 85h546q300 0 431 -153q100 -117 100 -321q0 -64 -10 -137l-12 -88q-44 -310 -218.5 -482t-441.5 -172h-565zM338 99h216q74 0 148.5 16t135.5 43q68 69 127 187.5t82 276.5l13 94q9 68 9 128q-1 168 -73 270q-98 140 -322 140h-173z M376 -318q0 26 5.5 49.5t15 41.5t22 28.5t27.5 10.5q26 0 49.5 -5.5t41.5 -15t28.5 -22.5t10.5 -27q0 -27 -5.5 -51t-15 -41.5t-22.5 -27.5t-27 -10q-27 0 -51 5.5t-41.5 15t-27.5 22t-10 27.5z" />
<glyph unicode="&#x1e0d;" d="M92 373l26 188q37 257 176 401.5t344 144.5q49 0 101.5 -7t105.5 -19l49 354l-141 20l17 85l230 22l81 -78l-193 -1379l142 -20l-17 -85l-230 -22l-81 78l26 190q-80 -122 -179.5 -195t-202.5 -73q-170 0 -226 96q-38 65 -37 177q0 55 9 122zM284 167q30 -81 120 -81 q84 0 175.5 81.5t166.5 206.5l86 616q-38 14 -92.5 23.5t-107.5 9.5q-54 0 -108 -14t-95 -36q-40 -65 -75.5 -169t-50.5 -212l-19 -131q-15 -107 -15 -181q0 -73 15 -113zM359 -318q0 26 5.5 49.5t15 41.5t22 28.5t27.5 10.5q26 0 49.5 -5.5t41.5 -15t28.5 -22.5t10.5 -27 q0 -27 -5.5 -51t-15 -41.5t-22.5 -27.5t-27 -10q-27 0 -51 5.5t-41.5 15t-27.5 22t-10 27.5z" />
<glyph unicode="&#x1e0e;" horiz-adv-x="1335" d="M8 85l141 20l161 1143l-141 20l17 85h546q300 0 431 -153q100 -117 100 -321q0 -64 -10 -137l-12 -88q-44 -310 -218.5 -482t-441.5 -172h-565zM338 99h216q74 0 148.5 16t135.5 43q68 69 127 187.5t82 276.5l13 94q9 68 9 128q-1 168 -73 270q-98 140 -322 140h-173z M141 -304l18 110h710l-18 -110h-710z" />
<glyph unicode="&#x1e0f;" d="M92 373l26 188q37 257 176 401.5t344 144.5q49 0 101.5 -7t105.5 -19l49 354l-141 20l17 85l230 22l81 -78l-193 -1379l142 -20l-17 -85l-230 -22l-81 78l26 190q-80 -122 -179.5 -195t-202.5 -73q-170 0 -226 96q-38 65 -37 177q0 55 9 122zM284 167q30 -81 120 -81 q84 0 175.5 81.5t166.5 206.5l86 616q-38 14 -92.5 23.5t-107.5 9.5q-54 0 -108 -14t-95 -36q-40 -65 -75.5 -169t-50.5 -212l-19 -131q-15 -107 -15 -181q0 -73 15 -113zM124 -304l18 110h710l-18 -110h-710z" />
<glyph unicode="&#x1e20;" horiz-adv-x="1275" d="M71 505l13 89q55 378 240 579.5t482 201.5q100 0 191.5 -14.5t163.5 -42.5l-17 -270h-88l-45 201q-53 13 -117.5 20t-128.5 7q-81 0 -163.5 -24t-149.5 -64q-59 -98 -101.5 -223t-64.5 -282l-18 -133q-6 -48 -6 -92q0 -161 84 -258q108 -123 270 -123q48 0 100 9.5 t100 25.5l60 429l-141 20l17 85h447l8 -85l-141 -20l-61 -436q-104 -59 -224.5 -93t-232.5 -34q-263 0 -388 135q-97 105 -97 283q0 52 8 109zM439 1540l19 120h771l-20 -120h-770z" />
<glyph unicode="&#x1e21;" horiz-adv-x="1114" d="M6 -387l33 140q119 -44 236.5 -70.5t197.5 -26.5q90 52 151.5 165t82.5 268l21 156q-83 -125 -181.5 -196t-199.5 -71q-174 0 -228 100q-36 66 -36 173q0 55 10 122l26 188q35 246 174.5 396t345.5 150q85 0 187 -22t192 -56l-126 -900q-40 -288 -183.5 -437t-359.5 -149 q-93 0 -186.5 21t-156.5 49zM284 168q29 -82 121 -82q80 0 170 76.5t171 209.5l86 618q-40 14 -94 23.5t-105 9.5q-56 0 -110 -14t-93 -36q-43 -69 -77 -173t-49 -208l-19 -131q-15 -107 -15 -181q0 -71 14 -112zM339 1353l17 110h711l-18 -110h-710z" />
<glyph unicode="&#x1e24;" horiz-adv-x="1451" d="M4 85l141 20l161 1143l-141 20l17 85h447l8 -85l-141 -20l-68 -480h624l68 480l-141 20l17 85h447l8 -85l-141 -20l-161 -1143l141 -20l-17 -85h-447l-8 85l141 20l79 564h-624l-79 -564l141 -20l-17 -85h-447zM518 -318q0 26 5.5 49.5t15 41.5t22 28.5t27.5 10.5 q26 0 49.5 -5.5t41.5 -15t28.5 -22.5t10.5 -27q0 -27 -5.5 -51t-15 -41.5t-22.5 -27.5t-27 -10q-27 0 -51 5.5t-41.5 15t-27.5 22t-10 27.5z" />
<glyph unicode="&#x1e25;" horiz-adv-x="1263" d="M132 0l200 1435l-141 20l17 85l230 22l81 -78l-90 -646q90 123 204 196t228 73q135 0 187 -70q38 -50 37 -140q0 -36 -6 -78l-98 -714l142 -20l-17 -85l-230 -22l-82 78l93 675q10 72 10 123q0 50 -10 82q-20 62 -94 63q-88 0 -187.5 -75t-193.5 -210l-102 -736z M448 -318q0 26 5.5 49.5t15 41.5t22 28.5t27.5 10.5q26 0 49.5 -5.5t41.5 -15t28.5 -22.5t10.5 -27q0 -27 -5.5 -51t-15 -41.5t-22.5 -27.5t-27 -10q-27 0 -51 5.5t-41.5 15t-27.5 22t-10 27.5z" />
<glyph unicode="&#x1e2a;" horiz-adv-x="1451" d="M4 85l141 20l161 1143l-141 20l17 85h447l8 -85l-141 -20l-68 -480h624l68 480l-141 20l17 85h447l8 -85l-141 -20l-161 -1143l141 -20l-17 -85h-447l-8 85l141 20l79 564h-624l-79 -564l141 -20l-17 -85h-447zM305 -188l68 10q-2 -16 7 -45.5t34 -59t67 -51t106 -21.5 q61 0 109.5 21.5t82 51t52 59t20.5 45.5l66 -10q-8 -54 -37 -107t-75 -95t-106 -68.5t-130 -26.5t-122.5 26.5t-86.5 68.5t-48.5 95t-6.5 107z" />
<glyph unicode="&#x1e2b;" horiz-adv-x="1263" d="M132 0l200 1435l-141 20l17 85l230 22l81 -78l-90 -646q90 123 204 196t228 73q135 0 187 -70q38 -50 37 -140q0 -36 -6 -78l-98 -714l142 -20l-17 -85l-230 -22l-82 78l93 675q10 72 10 123q0 50 -10 82q-20 62 -94 63q-88 0 -187.5 -75t-193.5 -210l-102 -736z M235 -188l68 10q-2 -16 7 -45.5t34 -59t67 -51t106 -21.5q61 0 109.5 21.5t82 51t52 59t20.5 45.5l66 -10q-8 -54 -37 -107t-75 -95t-106 -68.5t-130 -26.5t-122.5 26.5t-86.5 68.5t-48.5 95t-6.5 107z" />
<glyph unicode="&#x1e36;" horiz-adv-x="976" d="M6 85l141 20l161 1143l-141 20l17 85h477l8 -85l-171 -20l-162 -1149h361l110 213l81 -12l-68 -300h-806zM283 -318q0 26 5.5 49.5t15 41.5t22 28.5t27.5 10.5q26 0 49.5 -5.5t41.5 -15t28.5 -22.5t10.5 -27q0 -27 -5.5 -51t-15 -41.5t-22.5 -27.5t-27 -10q-27 0 -51 5.5 t-41.5 15t-27.5 22t-10 27.5z" />
<glyph unicode="&#x1e37;" horiz-adv-x="620" d="M142 56l192 1379l-141 20l17 85l231 22l81 -78l-193 -1379l141 -20l-17 -85l-230 -22zM121 -318q0 26 5.5 49.5t15 41.5t22 28.5t27.5 10.5q26 0 49.5 -5.5t41.5 -15t28.5 -22.5t10.5 -27q0 -27 -5.5 -51t-15 -41.5t-22.5 -27.5t-27 -10q-27 0 -51 5.5t-41.5 15t-27.5 22 t-10 27.5z" />
<glyph unicode="&#x1e38;" horiz-adv-x="976" d="M6 85l141 20l161 1143l-141 20l17 85h477l8 -85l-171 -20l-162 -1149h361l110 213l81 -12l-68 -300h-806zM283 -318q0 26 5.5 49.5t15 41.5t22 28.5t27.5 10.5q26 0 49.5 -5.5t41.5 -15t28.5 -22.5t10.5 -27q0 -27 -5.5 -51t-15 -41.5t-22.5 -27.5t-27 -10q-27 0 -51 5.5 t-41.5 15t-27.5 22t-10 27.5zM58 1540l19 120h771l-20 -120h-770z" />
<glyph unicode="&#x1e39;" horiz-adv-x="620" d="M142 56l192 1379l-141 20l17 85l231 22l81 -78l-193 -1379l141 -20l-17 -85l-230 -22zM121 -318q0 26 5.5 49.5t15 41.5t22 28.5t27.5 10.5q26 0 49.5 -5.5t41.5 -15t28.5 -22.5t10.5 -27q0 -27 -5.5 -51t-15 -41.5t-22.5 -27.5t-27 -10q-27 0 -51 5.5t-41.5 15t-27.5 22 t-10 27.5zM60 1750l19 120h771l-20 -120h-770z" />
<glyph unicode="&#x1e3a;" horiz-adv-x="976" d="M6 85l141 20l161 1143l-141 20l17 85h477l8 -85l-171 -20l-162 -1149h361l110 213l81 -12l-68 -300h-806zM48 -304l18 110h710l-18 -110h-710z" />
<glyph unicode="&#x1e3b;" horiz-adv-x="620" d="M142 56l192 1379l-141 20l17 85l231 22l81 -78l-193 -1379l141 -20l-17 -85l-230 -22zM-114 -304l18 110h710l-18 -110h-710z" />
<glyph unicode="&#x1e3e;" horiz-adv-x="1868" d="M4 85l141 20l161 1143l-141 20l17 85h429l269 -1042h16l545 1042h419l8 -85l-141 -20l-161 -1143l141 -20l-17 -85h-447l-8 85l141 20l154 1095h-16l-637 -1200h-105l-317 1200h-16l-154 -1095l141 -20l-17 -85h-397zM913 1471l5 32l337 281l191 -10l-9 -66l-430 -248z " />
<glyph unicode="&#x1e3f;" horiz-adv-x="1933" d="M145 1000l17 85l231 22l81 -78l-27 -190q87 119 201.5 193.5t230.5 74.5q137 -1 187 -71q37 -53 37 -139q0 -28 -4 -60q94 128 207.5 199t225.5 71q136 1 188 -71q37 -51 36 -139q0 -36 -6 -78l-98 -714l141 -20l-17 -85l-230 -22l-81 78l93 675q10 72 10 124q0 49 -9 81 q-19 64 -95 63q-93 0 -195 -81t-187 -205l-83 -608l141 -20l-17 -85l-230 -22l-81 78l93 675q10 73 10.5 125t-10.5 82q-21 61 -94 61q-84 0 -183.5 -72t-197.5 -213l-103 -736l-176 22l135 980zM1039 1275l5 32l254 363l181 -10l-10 -66l-356 -329z" />
<glyph unicode="&#x1e42;" horiz-adv-x="1868" d="M4 85l141 20l161 1143l-141 20l17 85h429l269 -1042h16l545 1042h419l8 -85l-141 -20l-161 -1143l141 -20l-17 -85h-447l-8 85l141 20l154 1095h-16l-637 -1200h-105l-317 1200h-16l-154 -1095l141 -20l-17 -85h-397zM680 -318q0 26 5.5 49.5t15 41.5t22 28.5t27.5 10.5 q26 0 49.5 -5.5t41.5 -15t28.5 -22.5t10.5 -27q0 -27 -5.5 -51t-15 -41.5t-22.5 -27.5t-27 -10q-27 0 -51 5.5t-41.5 15t-27.5 22t-10 27.5z" />
<glyph unicode="&#x1e43;" horiz-adv-x="1933" d="M145 1000l17 85l231 22l81 -78l-27 -190q87 119 201.5 193.5t230.5 74.5q137 -1 187 -71q37 -53 37 -139q0 -28 -4 -60q94 128 207.5 199t225.5 71q136 1 188 -71q37 -51 36 -139q0 -36 -6 -78l-98 -714l141 -20l-17 -85l-230 -22l-81 78l93 675q10 72 10 124q0 49 -9 81 q-19 64 -95 63q-93 0 -195 -81t-187 -205l-83 -608l141 -20l-17 -85l-230 -22l-81 78l93 675q10 73 10.5 125t-10.5 82q-21 61 -94 61q-84 0 -183.5 -72t-197.5 -213l-103 -736l-176 22l135 980zM782 -318q0 26 5.5 49.5t15 41.5t22 28.5t27.5 10.5q26 0 49.5 -5.5t41.5 -15 t28.5 -22.5t10.5 -27q0 -27 -5.5 -51t-15 -41.5t-22.5 -27.5t-27 -10q-27 0 -51 5.5t-41.5 15t-27.5 22t-10 27.5z" />
<glyph unicode="&#x1e44;" horiz-adv-x="1524" d="M4 85l141 20l161 1143l-141 20l17 85h426l484 -1217h16l156 1112l-141 20l17 85h398l8 -85l-141 -20l-176 -1248h-287l-484 1218h-16l-157 -1113l141 -20l-17 -85h-397zM832 1599q4 27 14.5 51t26 42t33.5 28.5t37 10.5q27 0 50 -7.5t39 -20t24 -30t5 -36.5 q-4 -26 -14.5 -50t-26 -42t-33.5 -28.5t-37 -10.5q-27 0 -50 7.5t-39 20t-24 29.5t-5 36z" />
<glyph unicode="&#x1e45;" horiz-adv-x="1279" d="M145 1000l17 85l231 22l81 -78l-27 -190q95 127 208.5 197.5t223.5 70.5q135 0 187 -70q37 -50 37 -141q0 -35 -6 -77l-98 -714l141 -20l-17 -85l-230 -22l-81 78l93 675q10 74 10 125.5t-10 81.5q-20 60 -94 61q-88 0 -187.5 -75t-193.5 -210l-103 -736l-176 22l135 980 zM711 1410q0 26 5.5 49.5t15 41.5t22 28.5t27.5 10.5q26 0 49.5 -5.5t41.5 -15t28.5 -22.5t10.5 -27q0 -27 -5.5 -51t-15 -41.5t-22.5 -27.5t-27 -10q-27 0 -51 5.5t-41.5 15t-27.5 22t-10 27.5z" />
<glyph unicode="&#x1e46;" horiz-adv-x="1524" d="M4 85l141 20l161 1143l-141 20l17 85h426l484 -1217h16l156 1112l-141 20l17 85h398l8 -85l-141 -20l-176 -1248h-287l-484 1218h-16l-157 -1113l141 -20l-17 -85h-397zM519 -318q0 26 5.5 49.5t15 41.5t22 28.5t27.5 10.5q26 0 49.5 -5.5t41.5 -15t28.5 -22.5t10.5 -27 q0 -27 -5.5 -51t-15 -41.5t-22.5 -27.5t-27 -10q-27 0 -51 5.5t-41.5 15t-27.5 22t-10 27.5z" />
<glyph unicode="&#x1e47;" horiz-adv-x="1279" d="M145 1000l17 85l231 22l81 -78l-27 -190q95 127 208.5 197.5t223.5 70.5q135 0 187 -70q37 -50 37 -141q0 -35 -6 -77l-98 -714l141 -20l-17 -85l-230 -22l-81 78l93 675q10 74 10 125.5t-10 81.5q-20 60 -94 61q-88 0 -187.5 -75t-193.5 -210l-103 -736l-176 22l135 980 zM464 -318q0 26 5.5 49.5t15 41.5t22 28.5t27.5 10.5q26 0 49.5 -5.5t41.5 -15t28.5 -22.5t10.5 -27q0 -27 -5.5 -51t-15 -41.5t-22.5 -27.5t-27 -10q-27 0 -51 5.5t-41.5 15t-27.5 22t-10 27.5z" />
<glyph unicode="&#x1e48;" horiz-adv-x="1524" d="M4 85l141 20l161 1143l-141 20l17 85h426l484 -1217h16l156 1112l-141 20l17 85h398l8 -85l-141 -20l-176 -1248h-287l-484 1218h-16l-157 -1113l141 -20l-17 -85h-397zM284 -304l18 110h710l-18 -110h-710z" />
<glyph unicode="&#x1e49;" horiz-adv-x="1279" d="M145 1000l17 85l231 22l81 -78l-27 -190q95 127 208.5 197.5t223.5 70.5q135 0 187 -70q37 -50 37 -141q0 -35 -6 -77l-98 -714l141 -20l-17 -85l-230 -22l-81 78l93 675q10 74 10 125.5t-10 81.5q-20 60 -94 61q-88 0 -187.5 -75t-193.5 -210l-103 -736l-176 22l135 980 zM229 -304l18 110h710l-18 -110h-710z" />
<glyph unicode="&#x1e59;" horiz-adv-x="925" d="M38 85l140 20l122 875l-141 20l17 85l231 22l81 -78l-29 -209q63 136 147.5 211.5t176.5 75.5q42 0 82.5 -14.5t69.5 -37.5l-56 -237l-106 -12v173q-7 5 -20 7.5t-28 2.5q-60 0 -135.5 -86.5t-154.5 -251.5l-76 -546l142 -20l-17 -85h-438zM541 1410q0 26 5.5 49.5 t15 41.5t22 28.5t27.5 10.5q26 0 49.5 -5.5t41.5 -15t28.5 -22.5t10.5 -27q0 -27 -5.5 -51t-15 -41.5t-22.5 -27.5t-27 -10q-27 0 -51 5.5t-41.5 15t-27.5 22t-10 27.5z" />
<glyph unicode="&#x1e5a;" horiz-adv-x="1201" d="M8 85l141 20l161 1143l-141 20l17 85h498q204 0 303 -88q80 -71 80 -197q0 -31 -5 -65q-18 -125 -91.5 -219t-178.5 -137l-8 -19l217 -523l122 -20l-17 -85h-259l-255 616h-181l-72 -511l141 -20l-17 -85h-447zM425 715h125q67 0 133.5 13.5t113.5 35.5q24 42 42 97 t25 108q5 36 5 67q0 96 -46 148q-61 70 -226 70h-96zM410 -318q0 26 5.5 49.5t15 41.5t22 28.5t27.5 10.5q26 0 49.5 -5.5t41.5 -15t28.5 -22.5t10.5 -27q0 -27 -5.5 -51t-15 -41.5t-22.5 -27.5t-27 -10q-27 0 -51 5.5t-41.5 15t-27.5 22t-10 27.5z" />
<glyph unicode="&#x1e5b;" horiz-adv-x="925" d="M38 85l140 20l122 875l-141 20l17 85l231 22l81 -78l-29 -209q63 136 147.5 211.5t176.5 75.5q42 0 82.5 -14.5t69.5 -37.5l-56 -237l-106 -12v173q-7 5 -20 7.5t-28 2.5q-60 0 -135.5 -86.5t-154.5 -251.5l-76 -546l142 -20l-17 -85h-438zM123 -318q0 26 5.5 49.5 t15 41.5t22 28.5t27.5 10.5q26 0 49.5 -5.5t41.5 -15t28.5 -22.5t10.5 -27q0 -27 -5.5 -51t-15 -41.5t-22.5 -27.5t-27 -10q-27 0 -51 5.5t-41.5 15t-27.5 22t-10 27.5z" />
<glyph unicode="&#x1e5c;" horiz-adv-x="1201" d="M8 85l141 20l161 1143l-141 20l17 85h498q204 0 303 -88q80 -71 80 -197q0 -31 -5 -65q-18 -125 -91.5 -219t-178.5 -137l-8 -19l217 -523l122 -20l-17 -85h-259l-255 616h-181l-72 -511l141 -20l-17 -85h-447zM425 715h125q67 0 133.5 13.5t113.5 35.5q24 42 42 97 t25 108q5 36 5 67q0 96 -46 148q-61 70 -226 70h-96zM410 -318q0 26 5.5 49.5t15 41.5t22 28.5t27.5 10.5q26 0 49.5 -5.5t41.5 -15t28.5 -22.5t10.5 -27q0 -27 -5.5 -51t-15 -41.5t-22.5 -27.5t-27 -10q-27 0 -51 5.5t-41.5 15t-27.5 22t-10 27.5zM256 1540l19 120h771 l-20 -120h-770z" />
<glyph unicode="&#x1e5d;" horiz-adv-x="925" d="M38 85l140 20l122 875l-141 20l17 85l231 22l81 -78l-29 -209q63 136 147.5 211.5t176.5 75.5q42 0 82.5 -14.5t69.5 -37.5l-56 -237l-106 -12v173q-7 5 -20 7.5t-28 2.5q-60 0 -135.5 -86.5t-154.5 -251.5l-76 -546l142 -20l-17 -85h-438zM123 -318q0 26 5.5 49.5 t15 41.5t22 28.5t27.5 10.5q26 0 49.5 -5.5t41.5 -15t28.5 -22.5t10.5 -27q0 -27 -5.5 -51t-15 -41.5t-22.5 -27.5t-27 -10q-27 0 -51 5.5t-41.5 15t-27.5 22t-10 27.5zM272 1353l18 110h710l-19 -110h-709z" />
<glyph unicode="&#x1e5e;" horiz-adv-x="1201" d="M8 85l141 20l161 1143l-141 20l17 85h498q204 0 303 -88q80 -71 80 -197q0 -31 -5 -65q-18 -125 -91.5 -219t-178.5 -137l-8 -19l217 -523l122 -20l-17 -85h-259l-255 616h-181l-72 -511l141 -20l-17 -85h-447zM425 715h125q67 0 133.5 13.5t113.5 35.5q24 42 42 97 t25 108q5 36 5 67q0 96 -46 148q-61 70 -226 70h-96zM175 -304l18 110h710l-18 -110h-710z" />
<glyph unicode="&#x1e5f;" horiz-adv-x="925" d="M38 85l140 20l122 875l-141 20l17 85l231 22l81 -78l-29 -209q63 136 147.5 211.5t176.5 75.5q42 0 82.5 -14.5t69.5 -37.5l-56 -237l-106 -12v173q-7 5 -20 7.5t-28 2.5q-60 0 -135.5 -86.5t-154.5 -251.5l-76 -546l142 -20l-17 -85h-438zM-112 -304l18 110h710 l-18 -110h-710z" />
<glyph unicode="&#x1e60;" horiz-adv-x="1047" d="M32 41l16 259h100l45 -199q45 -12 98 -18t113 -6q68 0 134.5 10.5t118.5 27.5q20 28 40.5 75t27.5 91q3 17 3 34q0 64 -40 123q-50 74 -227 190q-207 132 -266 214q-47 65 -47 148q0 21 3 44q22 155 162 248t358 93q93 0 179.5 -14t144.5 -38l-17 -270h-88l-45 201 q-36 9 -90 15.5t-108 6.5q-65 0 -129 -10.5t-114 -27.5q-23 -40 -36.5 -77.5t-19.5 -74.5q-2 -13 -2 -26q0 -62 44 -116q54 -66 233 -182q173 -112 247 -204q59 -74 59 -166q0 -23 -4 -47q-23 -165 -165.5 -266t-358.5 -101q-109 0 -206 16.5t-163 46.5zM605 1599 q4 27 14.5 51t26 42t33.5 28.5t37 10.5q27 0 50 -7.5t39 -20t24 -30t5 -36.5q-4 -26 -14.5 -50t-26 -42t-33.5 -28.5t-37 -10.5q-27 0 -50 7.5t-39 20t-24 29.5t-5 36z" />
<glyph unicode="&#x1e61;" horiz-adv-x="923" d="M82 48l24 240h82l31 -197q33 -11 79 -17t96 -6q48 0 95 8.5t78 19.5q18 21 32.5 52t20.5 72q2 14 2 28q0 54 -31 98q-39 56 -203 160q-155 96 -201 164q-36 53 -36 120q0 19 3 38q19 122 129 200.5t286 78.5q80 0 154 -18t124 -50l-25 -241h-81l-33 199q-28 9 -70 14.5 t-85 5.5q-44 0 -88 -8.5t-71 -19.5q-21 -22 -34.5 -49t-18.5 -58q-3 -17 -3 -33q0 -55 32 -91q40 -48 170 -126q177 -108 229 -184q41 -60 41 -136q0 -20 -3 -41q-20 -139 -140.5 -216t-298.5 -77q-83 0 -159 19.5t-127 50.5zM522 1410q0 26 5.5 49.5t15 41.5t22 28.5 t27.5 10.5q26 0 49.5 -5.5t41.5 -15t28.5 -22.5t10.5 -27q0 -27 -5.5 -51t-15 -41.5t-22.5 -27.5t-27 -10q-27 0 -51 5.5t-41.5 15t-27.5 22t-10 27.5z" />
<glyph unicode="&#x1e62;" horiz-adv-x="1047" d="M32 41l16 259h100l45 -199q45 -12 98 -18t113 -6q68 0 134.5 10.5t118.5 27.5q20 28 40.5 75t27.5 91q3 17 3 34q0 64 -40 123q-50 74 -227 190q-207 132 -266 214q-47 65 -47 148q0 21 3 44q22 155 162 248t358 93q93 0 179.5 -14t144.5 -38l-17 -270h-88l-45 201 q-36 9 -90 15.5t-108 6.5q-65 0 -129 -10.5t-114 -27.5q-23 -40 -36.5 -77.5t-19.5 -74.5q-2 -13 -2 -26q0 -62 44 -116q54 -66 233 -182q173 -112 247 -204q59 -74 59 -166q0 -23 -4 -47q-23 -165 -165.5 -266t-358.5 -101q-109 0 -206 16.5t-163 46.5zM297 -318 q0 26 5.5 49.5t15 41.5t22 28.5t27.5 10.5q26 0 49.5 -5.5t41.5 -15t28.5 -22.5t10.5 -27q0 -27 -5.5 -51t-15 -41.5t-22.5 -27.5t-27 -10q-27 0 -51 5.5t-41.5 15t-27.5 22t-10 27.5z" />
<glyph unicode="&#x1e63;" horiz-adv-x="923" d="M82 48l24 240h82l31 -197q33 -11 79 -17t96 -6q48 0 95 8.5t78 19.5q18 21 32.5 52t20.5 72q2 14 2 28q0 54 -31 98q-39 56 -203 160q-155 96 -201 164q-36 53 -36 120q0 19 3 38q19 122 129 200.5t286 78.5q80 0 154 -18t124 -50l-25 -241h-81l-33 199q-28 9 -70 14.5 t-85 5.5q-44 0 -88 -8.5t-71 -19.5q-21 -22 -34.5 -49t-18.5 -58q-3 -17 -3 -33q0 -55 32 -91q40 -48 170 -126q177 -108 229 -184q41 -60 41 -136q0 -20 -3 -41q-20 -139 -140.5 -216t-298.5 -77q-83 0 -159 19.5t-127 50.5zM269 -318q0 26 5.5 49.5t15 41.5t22 28.5 t27.5 10.5q26 0 49.5 -5.5t41.5 -15t28.5 -22.5t10.5 -27q0 -27 -5.5 -51t-15 -41.5t-22.5 -27.5t-27 -10q-27 0 -51 5.5t-41.5 15t-27.5 22t-10 27.5z" />
<glyph unicode="&#x1e6c;" horiz-adv-x="1038" d="M38 1063l56 290h1032l-27 -290h-79l-30 191h-294l-162 -1149l141 -20l-17 -85h-447l-8 85l141 20l162 1149h-305l-75 -191h-88zM278 -318q0 26 5.5 49.5t15 41.5t22 28.5t27.5 10.5q26 0 49.5 -5.5t41.5 -15t28.5 -22.5t10.5 -27q0 -27 -5.5 -51t-15 -41.5t-22.5 -27.5 t-27 -10q-27 0 -51 5.5t-41.5 15t-27.5 22t-10 27.5z" />
<glyph unicode="&#x1e6d;" horiz-adv-x="765" d="M88 1001l11 84h176l29 207l193 83l-41 -290h307l-11 -84h-308l-91 -653q-8 -57 -8 -102q0 -64 16 -106q27 -72 105 -72q42 0 96.5 21.5t96.5 48.5v-86q-55 -34 -120.5 -54t-132.5 -20q-156 0 -208 89q-36 60 -35 161q0 48 8 106l92 667h-175zM235 -318q0 26 5.5 49.5 t15 41.5t22 28.5t27.5 10.5q26 0 49.5 -5.5t41.5 -15t28.5 -22.5t10.5 -27q0 -27 -5.5 -51t-15 -41.5t-22.5 -27.5t-27 -10q-27 0 -51 5.5t-41.5 15t-27.5 22t-10 27.5z" />
<glyph unicode="&#x1e6e;" horiz-adv-x="1038" d="M38 1063l56 290h1032l-27 -290h-79l-30 191h-294l-162 -1149l141 -20l-17 -85h-447l-8 85l141 20l162 1149h-305l-75 -191h-88zM43 -304l18 110h710l-18 -110h-710z" />
<glyph unicode="&#x1e6f;" horiz-adv-x="765" d="M88 1001l11 84h176l29 207l193 83l-41 -290h307l-11 -84h-308l-91 -653q-8 -57 -8 -102q0 -64 16 -106q27 -72 105 -72q42 0 96.5 21.5t96.5 48.5v-86q-55 -34 -120.5 -54t-132.5 -20q-156 0 -208 89q-36 60 -35 161q0 48 8 106l92 667h-175zM0 -304l18 110h710l-18 -110 h-710z" />
<glyph unicode="&#x1e80;" horiz-adv-x="2028" d="M40 1268l17 85h417l8 -85l-141 -20l200 -1016h16l500 1121h191l176 -1121h16l454 1016l-141 20l17 85h374l8 -85l-111 -20l-569 -1248h-191l-177 1107h-16l-493 -1107h-192l-253 1248zM825 1708l9 66l193 10l239 -281l-5 -32l-96 -11z" />
<glyph unicode="&#x1e81;" horiz-adv-x="1565" d="M31 1000l17 85l204 22l81 -78l115 -827l384 905l105 -22l133 -950q67 100 123 210t98.5 220t70 216.5t38.5 198.5l-141 20l17 85l190 22l81 -78q0 -83 -19.5 -174t-53 -185t-78.5 -187.5t-95.5 -182.5t-104 -171t-104.5 -151l-174 22l-109 776l-329 -798l-174 22 l-138 980zM629 1594l10 66l176 10l152 -363l-5 -32l-89 -10z" />
<glyph unicode="&#x1e82;" horiz-adv-x="2028" d="M40 1268l17 85h417l8 -85l-141 -20l200 -1016h16l500 1121h191l176 -1121h16l454 1016l-141 20l17 85h374l8 -85l-111 -20l-569 -1248h-191l-177 1107h-16l-493 -1107h-192l-253 1248zM1046 1471l5 32l337 281l191 -10l-9 -66l-430 -248z" />
<glyph unicode="&#x1e83;" horiz-adv-x="1565" d="M31 1000l17 85l204 22l81 -78l115 -827l384 905l105 -22l133 -950q67 100 123 210t98.5 220t70 216.5t38.5 198.5l-141 20l17 85l190 22l81 -78q0 -83 -19.5 -174t-53 -185t-78.5 -187.5t-95.5 -182.5t-104 -171t-104.5 -151l-174 22l-109 776l-329 -798l-174 22 l-138 980zM860 1275l5 32l254 363l181 -10l-10 -66l-356 -329z" />
<glyph unicode="&#x1e84;" horiz-adv-x="2028" d="M40 1268l17 85h417l8 -85l-141 -20l200 -1016h16l500 1121h191l176 -1121h16l454 1016l-141 20l17 85h374l8 -85l-111 -20l-569 -1248h-191l-177 1107h-16l-493 -1107h-192l-253 1248zM862 1571q0 26 5.5 49.5t14.5 41.5t21.5 28.5t27.5 10.5q26 0 49.5 -5.5t41.5 -15.5 t28.5 -22.5t10.5 -27.5q0 -27 -5.5 -50.5t-15 -41t-22 -27.5t-27.5 -10q-27 0 -51 5.5t-41 15t-27 22t-10 27.5zM1298 1571q0 26 5.5 49.5t14.5 41.5t21.5 28.5t27.5 10.5q27 0 50.5 -5.5t41 -15.5t28 -22.5t10.5 -27.5q0 -27 -5.5 -50.5t-15 -41t-22 -27.5t-27.5 -10 q-27 0 -50.5 5.5t-41 15t-27.5 22t-10 27.5z" />
<glyph unicode="&#x1e85;" horiz-adv-x="1565" d="M31 1000l17 85l204 22l81 -78l115 -827l384 905l105 -22l133 -950q67 100 123 210t98.5 220t70 216.5t38.5 198.5l-141 20l17 85l190 22l81 -78q0 -83 -19.5 -174t-53 -185t-78.5 -187.5t-95.5 -182.5t-104 -171t-104.5 -151l-174 22l-109 776l-329 -798l-174 22 l-138 980zM600 1371q0 25 5 47.5t14 39.5t21 27t26 10q25 0 47.5 -5.5t39.5 -14.5t27 -21t10 -26q0 -52 -19.5 -87.5t-47.5 -35.5q-52 0 -87.5 19t-35.5 47zM1026 1371q0 25 5 47.5t14 39.5t21 27t26 10q25 0 47.5 -5.5t39.5 -14.5t27 -21t10 -26q0 -52 -19.5 -87.5 t-47.5 -35.5q-52 0 -87.5 19t-35.5 47z" />
<glyph unicode="&#x1e86;" horiz-adv-x="2028" d="M40 1268l17 85h417l8 -85l-141 -20l200 -1016h16l500 1121h191l176 -1121h16l454 1016l-141 20l17 85h374l8 -85l-111 -20l-569 -1248h-191l-177 1107h-16l-493 -1107h-192l-253 1248zM1107 1599q4 27 14.5 51t26 42t33.5 28.5t37 10.5q27 0 50 -7.5t39 -20t24 -30 t5 -36.5q-4 -26 -14.5 -50t-26 -42t-33.5 -28.5t-37 -10.5q-27 0 -50 7.5t-39 20t-24 29.5t-5 36z" />
<glyph unicode="&#x1e87;" horiz-adv-x="1565" d="M31 1000l17 85l204 22l81 -78l115 -827l384 905l105 -22l133 -950q67 100 123 210t98.5 220t70 216.5t38.5 198.5l-141 20l17 85l190 22l81 -78q0 -83 -19.5 -174t-53 -185t-78.5 -187.5t-95.5 -182.5t-104 -171t-104.5 -151l-174 22l-109 776l-329 -798l-174 22 l-138 980zM830 1410q0 26 5.5 49.5t15 41.5t22 28.5t27.5 10.5q26 0 49.5 -5.5t41.5 -15t28.5 -22.5t10.5 -27q0 -27 -5.5 -51t-15 -41.5t-22.5 -27.5t-27 -10q-27 0 -51 5.5t-41.5 15t-27.5 22t-10 27.5z" />
<glyph unicode="&#x1e8e;" horiz-adv-x="1086" d="M4 1268l17 85h401l8 -85l-111 -16l262 -530h16l394 529l-116 17l17 85h356l8 -85l-111 -20l-504 -672l-66 -471l141 -20l-17 -85h-447l-8 85l141 20l66 473l-335 670zM607 1599q4 27 14.5 51t26 42t33.5 28.5t37 10.5q27 0 50 -7.5t39 -20t24 -30t5 -36.5 q-4 -26 -14.5 -50t-26 -42t-33.5 -28.5t-37 -10.5q-27 0 -50 7.5t-39 20t-24 29.5t-5 36z" />
<glyph unicode="&#x1e8f;" horiz-adv-x="1204" d="M94 -387l33 140q108 -40 228 -68.5t206 -28.5q84 47 148 159.5t86 273.5l21 156q-93 -127 -205.5 -197t-224.5 -70q-133 0 -186 70q-38 49 -38 140q0 36 6 78l97 714l-141 20l17 85l231 22l81 -78l-93 -675q-10 -68 -10 -118.5t10 -83.5q19 -66 94 -66q88 1 185.5 73 t193.5 210l85 611l-141 20l17 85l231 22l81 -78l-126 -900q-41 -287 -183.5 -436.5t-359.5 -149.5q-89 0 -180 19.5t-163 50.5zM620 1410q0 26 5.5 49.5t15 41.5t22 28.5t27.5 10.5q26 0 49.5 -5.5t41.5 -15t28.5 -22.5t10.5 -27q0 -27 -5.5 -51t-15 -41.5t-22.5 -27.5 t-27 -10q-27 0 -51 5.5t-41.5 15t-27.5 22t-10 27.5z" />
<glyph unicode="&#x1e90;" horiz-adv-x="1142" d="M14 0v95l867 1145l-3 14h-536l-99 -213l-91 12l68 300h890v-94l-868 -1146l3 -14h577l99 213l90 -12l-67 -300h-930zM348 1470l5 32l323 292l132 -10l213 -282l-5 -32l-106 -10l-196 198l-273 -198z" />
<glyph unicode="&#x1e91;" horiz-adv-x="953" d="M22 0l11 95l699 910h-419l-82 -174l-103 26l50 228h767l-10 -83l-709 -922h428l82 174l103 -26l-50 -228h-767zM299 1275l4 32l286 373l131 -10l152 -363l-4 -32l-97 -10l-149 262l-230 -262z" />
<glyph unicode="&#x1e92;" horiz-adv-x="1142" d="M14 0v95l867 1145l-3 14h-536l-99 -213l-91 12l68 300h890v-94l-868 -1146l3 -14h577l99 213l90 -12l-67 -300h-930zM349 -318q0 26 5.5 49.5t15 41.5t22 28.5t27.5 10.5q26 0 49.5 -5.5t41.5 -15t28.5 -22.5t10.5 -27q0 -27 -5.5 -51t-15 -41.5t-22.5 -27.5t-27 -10 q-27 0 -51 5.5t-41.5 15t-27.5 22t-10 27.5z" />
<glyph unicode="&#x1e93;" horiz-adv-x="953" d="M22 0l11 95l699 910h-419l-82 -174l-103 26l50 228h767l-10 -83l-709 -922h428l82 174l103 -26l-50 -228h-767zM290 -318q0 26 5.5 49.5t15 41.5t22 28.5t27.5 10.5q26 0 49.5 -5.5t41.5 -15t28.5 -22.5t10.5 -27q0 -27 -5.5 -51t-15 -41.5t-22.5 -27.5t-27 -10 q-27 0 -51 5.5t-41.5 15t-27.5 22t-10 27.5z" />
<glyph unicode="&#x1e97;" horiz-adv-x="765" d="M88 1001l11 84h176l29 207l193 83l-41 -290h307l-11 -84h-308l-91 -653q-8 -57 -8 -102q0 -64 16 -106q27 -72 105 -72q42 0 96.5 21.5t96.5 48.5v-86q-55 -34 -120.5 -54t-132.5 -20q-156 0 -208 89q-36 60 -35 161q0 48 8 106l92 667h-175zM136 1571q0 26 5.5 49.5 t14.5 41.5t21.5 28.5t27.5 10.5q26 0 49.5 -5.5t41.5 -15.5t28.5 -22.5t10.5 -27.5q0 -27 -5.5 -50.5t-15 -41t-22 -27.5t-27.5 -10q-27 0 -51 5.5t-41 15t-27 22t-10 27.5zM572 1571q0 26 5.5 49.5t14.5 41.5t21.5 28.5t27.5 10.5q27 0 50.5 -5.5t41 -15.5t28 -22.5 t10.5 -27.5q0 -27 -5.5 -50.5t-15 -41t-22 -27.5t-27.5 -10q-27 0 -50.5 5.5t-41 15t-27.5 22t-10 27.5z" />
<glyph unicode="&#x1e98;" horiz-adv-x="1565" d="M31 1000l17 85l204 22l81 -78l115 -827l384 905l105 -22l133 -950q67 100 123 210t98.5 220t70 216.5t38.5 198.5l-141 20l17 85l190 22l81 -78q0 -83 -19.5 -174t-53 -185t-78.5 -187.5t-95.5 -182.5t-104 -171t-104.5 -151l-174 22l-109 776l-329 -798l-174 22 l-138 980zM726 1436q8 59 31 103t56 73t73 43.5t82 14.5q38 0 71 -10t55.5 -30.5t33 -52.5t4.5 -77q-9 -62 -31 -106.5t-54.5 -73t-72.5 -42t-83 -13.5q-39 0 -72.5 10t-56 31t-32.5 53.5t-4 76.5zM836 1468q-10 -66 13 -103t62 -37q16 0 30 2.5t25 6.5q12 4 23 10 q7 13 13 31q5 15 11 38t11 52q11 66 -10 103t-66 37q-13 0 -24.5 -3t-21.5 -7q-11 -4 -22 -9q-9 -11 -17 -29q-7 -15 -14.5 -37.5t-12.5 -54.5z" />
<glyph unicode="&#x1e99;" horiz-adv-x="1204" d="M94 -387l33 140q108 -40 228 -68.5t206 -28.5q84 47 148 159.5t86 273.5l21 156q-93 -127 -205.5 -197t-224.5 -70q-133 0 -186 70q-38 49 -38 140q0 36 6 78l97 714l-141 20l17 85l231 22l81 -78l-93 -675q-10 -68 -10 -118.5t10 -83.5q19 -66 94 -66q88 1 185.5 73 t193.5 210l85 611l-141 20l17 85l231 22l81 -78l-126 -900q-41 -287 -183.5 -436.5t-359.5 -149.5q-89 0 -180 19.5t-163 50.5zM516 1436q8 59 31 103t56 73t73 43.5t82 14.5q38 0 71 -10t55.5 -30.5t33 -52.5t4.5 -77q-9 -62 -31 -106.5t-54.5 -73t-72.5 -42t-83 -13.5 q-39 0 -72.5 10t-56 31t-32.5 53.5t-4 76.5zM626 1468q-10 -66 13 -103t62 -37q16 0 30 2.5t25 6.5q12 4 23 10q7 13 13 31q5 15 11 38t11 52q11 66 -10 103t-66 37q-13 0 -24.5 -3t-21.5 -7q-11 -4 -22 -9q-9 -11 -17 -29q-7 -15 -14.5 -37.5t-12.5 -54.5z" />
<glyph unicode="&#x1e9e;" horiz-adv-x="1362" d="M4 85l141 20l161 1143l-141 20l17 85h1082l-13 -94l-388 -446l80 -51q73 -47 133 -93.5t100.5 -97t59 -106.5t9.5 -120q-11 -80 -46.5 -147.5t-94 -116.5t-139.5 -76t-184 -27q-80 0 -139.5 9.5t-99.5 21.5q-47 14 -80 32l16 259h90l55 -199q17 -7 42 -12 q20 -5 50.5 -8.5t68.5 -3.5q41 0 76 5.5t61 13.5q31 8 56 19q16 23 29 50q11 23 22.5 53t16.5 63q7 47 -8 91t-49.5 87t-87 84.5t-119.5 84.5l-116 74l7 98l405 454h-580l-177 -1254h-308z" />
<glyph unicode="&#x1ea0;" d="M-124 85l111 20l622 1248h149l261 -1248l112 -20l-17 -85h-417l-8 85l141 20l-64 321h-476l-157 -321l142 -20l-17 -85h-374zM338 525h408l-115 579h-10zM377 -318q0 26 5.5 49.5t15 41.5t22 28.5t27.5 10.5q26 0 49.5 -5.5t41.5 -15t28.5 -22.5t10.5 -27q0 -27 -5.5 -51 t-15 -41.5t-22.5 -27.5t-27 -10q-27 0 -51 5.5t-41.5 15t-27.5 22t-10 27.5z" />
<glyph unicode="&#x1ea1;" horiz-adv-x="1158" d="M92 373l26 188q37 252 177.5 399t342.5 147q81 0 179.5 -20.5t199.5 -57.5l-129 -924l142 -20l-17 -85l-230 -22l-81 78l26 190q-78 -122 -179 -195t-206 -73q-165 0 -222 95q-38 64 -38 177q0 55 9 123zM281 178q24 -92 123 -92q84 0 175 81t167 206l85 617 q-46 16 -99 24.5t-100 8.5q-55 0 -108.5 -14t-94.5 -36q-40 -66 -72.5 -159.5t-53.5 -221.5l-19 -131q-14 -102 -14 -175q0 -65 11 -108zM369 -318q0 26 5.5 49.5t15 41.5t22 28.5t27.5 10.5q26 0 49.5 -5.5t41.5 -15t28.5 -22.5t10.5 -27q0 -27 -5.5 -51t-15 -41.5 t-22.5 -27.5t-27 -10q-27 0 -51 5.5t-41.5 15t-27.5 22t-10 27.5z" />
<glyph unicode="&#x1ea2;" d="M-124 85l111 20l622 1248h149l261 -1248l112 -20l-17 -85h-417l-8 85l141 20l-64 321h-476l-157 -321l142 -20l-17 -85h-374zM338 525h408l-115 579h-10zM542 1687l18 123q25 15 58 27q28 11 66 19.5t85 8.5q82 0 125 -34t34 -96q-8 -55 -43.5 -91t-92.5 -71 q-21 -13 -34.5 -22t-21.5 -16t-11 -13t-4 -12q-2 -8 -1.5 -16t1.5 -14q1 -8 3 -14l-81 -27q-9 15 -15 31q-5 14 -9.5 29t-2.5 29q4 25 21.5 48t62.5 53q28 18 47 32t31 26t17.5 23.5t7.5 26.5q3 22 -11 38t-49 16q-19 0 -35.5 -3t-29.5 -6q-15 -4 -28 -9l-35 -91z" />
<glyph unicode="&#x1ea3;" horiz-adv-x="1158" d="M92 373l26 188q37 252 177.5 399t342.5 147q81 0 179.5 -20.5t199.5 -57.5l-129 -924l142 -20l-17 -85l-230 -22l-81 78l26 190q-78 -122 -179 -195t-206 -73q-165 0 -222 95q-38 64 -38 177q0 55 9 123zM281 178q24 -92 123 -92q84 0 175 81t167 206l85 617 q-46 16 -99 24.5t-100 8.5q-55 0 -108.5 -14t-94.5 -36q-40 -66 -72.5 -159.5t-53.5 -221.5l-19 -131q-14 -102 -14 -175q0 -65 11 -108zM531 1492l18 123q25 15 58 27q28 11 66 19.5t85 8.5q82 0 125 -34t34 -96q-8 -55 -43.5 -91t-92.5 -71q-21 -13 -34.5 -22t-21.5 -16 t-11 -13t-4 -12q-2 -8 -1.5 -16t1.5 -14q1 -8 3 -14l-81 -27q-9 15 -15 31q-5 14 -9.5 29t-2.5 29q4 25 21.5 48t62.5 53q28 18 47 32t31 26t17.5 23.5t7.5 26.5q3 22 -11 38t-49 16q-19 0 -35.5 -3t-29.5 -6q-15 -4 -28 -9l-35 -91z" />
<glyph unicode="&#x1ea4;" d="M-124 85l111 20l622 1248h149l261 -1248l112 -20l-17 -85h-417l-8 85l141 20l-64 321h-476l-157 -321l142 -20l-17 -85h-374zM338 525h408l-115 579h-10zM367 1470l5 32l323 292l132 -10l213 -282l-5 -32l-106 -10l-196 198l-273 -198zM949 1702l5 32l238 182l141 -10 l-9 -66l-291 -149z" />
<glyph unicode="&#x1ea5;" horiz-adv-x="1158" d="M92 373l26 188q37 252 177.5 399t342.5 147q81 0 179.5 -20.5t199.5 -57.5l-129 -924l142 -20l-17 -85l-230 -22l-81 78l26 190q-78 -122 -179 -195t-206 -73q-165 0 -222 95q-38 64 -38 177q0 55 9 123zM281 178q24 -92 123 -92q84 0 175 81t167 206l85 617 q-46 16 -99 24.5t-100 8.5q-55 0 -108.5 -14t-94.5 -36q-40 -66 -72.5 -159.5t-53.5 -221.5l-19 -131q-14 -102 -14 -175q0 -65 11 -108zM417 1275l4 32l286 373l131 -10l152 -363l-4 -32l-97 -10l-149 262l-230 -262zM953 1540l5 32l176 237l141 -10l-10 -66l-248 -203z " />
<glyph unicode="&#x1ea6;" d="M-124 85l111 20l622 1248h149l261 -1248l112 -20l-17 -85h-417l-8 85l141 20l-64 321h-476l-157 -321l142 -20l-17 -85h-374zM338 525h408l-115 579h-10zM211 1840l9 66l143 10l175 -182l-5 -32l-86 -11zM367 1470l5 32l323 292l132 -10l213 -282l-5 -32l-106 -10 l-196 198l-273 -198z" />
<glyph unicode="&#x1ea7;" horiz-adv-x="1158" d="M92 373l26 188q37 252 177.5 399t342.5 147q81 0 179.5 -20.5t199.5 -57.5l-129 -924l142 -20l-17 -85l-230 -22l-81 78l26 190q-78 -122 -179 -195t-206 -73q-165 0 -222 95q-38 64 -38 177q0 55 9 123zM281 178q24 -92 123 -92q84 0 175 81t167 206l85 617 q-46 16 -99 24.5t-100 8.5q-55 0 -108.5 -14t-94.5 -36q-40 -66 -72.5 -159.5t-53.5 -221.5l-19 -131q-14 -102 -14 -175q0 -65 11 -108zM290 1733l10 66l126 10l119 -237l-5 -32l-79 -10zM417 1275l4 32l286 373l131 -10l152 -363l-4 -32l-97 -10l-149 262l-230 -262z" />
<glyph unicode="&#x1ea8;" d="M-124 85l111 20l622 1248h149l261 -1248l112 -20l-17 -85h-417l-8 85l141 20l-64 321h-476l-157 -321l142 -20l-17 -85h-374zM338 525h408l-115 579h-10zM367 1470l5 32l323 292l132 -10l213 -282l-5 -32l-106 -10l-196 198l-273 -198zM874 1923l18 123q25 15 58 27 q28 11 66 19.5t85 8.5q82 0 125 -34t34 -96q-8 -55 -43.5 -91t-92.5 -71q-21 -13 -34.5 -22t-21.5 -16t-11 -13t-4 -12q-2 -8 -1.5 -16t1.5 -14q1 -8 3 -14l-81 -27q-9 15 -15 31q-5 14 -9.5 29t-2.5 29q4 25 21.5 48t62.5 53q28 18 47 32t31 26t17.5 23.5t7.5 26.5 q3 22 -11 38t-49 16q-19 0 -35.5 -3t-29.5 -6q-15 -4 -28 -9l-35 -91z" />
<glyph unicode="&#x1ea9;" horiz-adv-x="1158" d="M92 373l26 188q37 252 177.5 399t342.5 147q81 0 179.5 -20.5t199.5 -57.5l-129 -924l142 -20l-17 -85l-230 -22l-81 78l26 190q-78 -122 -179 -195t-206 -73q-165 0 -222 95q-38 64 -38 177q0 55 9 123zM281 178q24 -92 123 -92q84 0 175 81t167 206l85 617 q-46 16 -99 24.5t-100 8.5q-55 0 -108.5 -14t-94.5 -36q-40 -66 -72.5 -159.5t-53.5 -221.5l-19 -131q-14 -102 -14 -175q0 -65 11 -108zM417 1275l4 32l286 373l131 -10l152 -363l-4 -32l-97 -10l-149 262l-230 -262zM876 1761l18 123q25 15 58 27q28 11 66 19.5t85 8.5 q82 0 125 -34t34 -96q-8 -55 -43.5 -91t-92.5 -71q-21 -13 -34.5 -22t-21.5 -16t-11 -13t-4 -12q-2 -8 -1.5 -16t1.5 -14q1 -8 3 -14l-81 -27q-9 15 -15 31q-5 14 -9.5 29t-2.5 29q4 25 21.5 48t62.5 53q28 18 47 32t31 26t17.5 23.5t7.5 26.5q3 22 -11 38t-49 16 q-19 0 -35.5 -3t-29.5 -6q-15 -4 -28 -9l-35 -91z" />
<glyph unicode="&#x1eaa;" d="M-124 85l111 20l622 1248h149l261 -1248l112 -20l-17 -85h-417l-8 85l141 20l-64 321h-476l-157 -321l142 -20l-17 -85h-374zM338 525h408l-115 579h-10zM367 1470l5 32l323 292l132 -10l213 -282l-5 -32l-106 -10l-196 198l-273 -198zM393 1904l4 25q8 54 28.5 94.5 t50.5 68.5t66.5 42t76.5 14q65 0 123.5 -20.5t109.5 -45.5t94 -45.5t77 -20.5q36 0 66.5 32t40.5 98l99 10l-7 -47q-8 -51 -27 -91.5t-47.5 -69t-64.5 -43.5t-78 -15q-57 0 -117 20.5t-115.5 45.5t-104 45.5t-83.5 20.5q-17 0 -33 -4.5t-29.5 -16.5t-23.5 -33t-15 -54z" />
<glyph unicode="&#x1eab;" horiz-adv-x="1158" d="M92 373l26 188q37 252 177.5 399t342.5 147q81 0 179.5 -20.5t199.5 -57.5l-129 -924l142 -20l-17 -85l-230 -22l-81 78l26 190q-78 -122 -179 -195t-206 -73q-165 0 -222 95q-38 64 -38 177q0 55 9 123zM281 178q24 -92 123 -92q84 0 175 81t167 206l85 617 q-46 16 -99 24.5t-100 8.5q-55 0 -108.5 -14t-94.5 -36q-40 -66 -72.5 -159.5t-53.5 -221.5l-19 -131q-14 -102 -14 -175q0 -65 11 -108zM394 1795l4 25q16 108 82.5 163.5t169.5 55.5q54 0 106.5 -20.5t101.5 -45.5t92.5 -45.5t78.5 -20.5q41 0 71.5 32t41.5 98l89 10 l-7 -47q-15 -102 -77 -160.5t-163 -58.5q-49 0 -104 20.5t-109 45.5t-103 45.5t-85 20.5q-18 0 -35.5 -4.5t-31.5 -16.5t-25 -33t-16 -54zM417 1275l4 32l286 373l131 -10l152 -363l-4 -32l-97 -10l-149 262l-230 -262z" />
<glyph unicode="&#x1eac;" d="M-124 85l111 20l622 1248h149l261 -1248l112 -20l-17 -85h-417l-8 85l141 20l-64 321h-476l-157 -321l142 -20l-17 -85h-374zM338 525h408l-115 579h-10zM377 -318q0 26 5.5 49.5t15 41.5t22 28.5t27.5 10.5q26 0 49.5 -5.5t41.5 -15t28.5 -22.5t10.5 -27q0 -27 -5.5 -51 t-15 -41.5t-22.5 -27.5t-27 -10q-27 0 -51 5.5t-41.5 15t-27.5 22t-10 27.5zM367 1470l5 32l323 292l132 -10l213 -282l-5 -32l-106 -10l-196 198l-273 -198z" />
<glyph unicode="&#x1ead;" horiz-adv-x="1158" d="M92 373l26 188q37 252 177.5 399t342.5 147q81 0 179.5 -20.5t199.5 -57.5l-129 -924l142 -20l-17 -85l-230 -22l-81 78l26 190q-78 -122 -179 -195t-206 -73q-165 0 -222 95q-38 64 -38 177q0 55 9 123zM281 178q24 -92 123 -92q84 0 175 81t167 206l85 617 q-46 16 -99 24.5t-100 8.5q-55 0 -108.5 -14t-94.5 -36q-40 -66 -72.5 -159.5t-53.5 -221.5l-19 -131q-14 -102 -14 -175q0 -65 11 -108zM369 -318q0 26 5.5 49.5t15 41.5t22 28.5t27.5 10.5q26 0 49.5 -5.5t41.5 -15t28.5 -22.5t10.5 -27q0 -27 -5.5 -51t-15 -41.5 t-22.5 -27.5t-27 -10q-27 0 -51 5.5t-41.5 15t-27.5 22t-10 27.5zM379 1275l4 32l286 373l131 -10l152 -363l-4 -32l-97 -10l-149 262l-230 -262z" />
<glyph unicode="&#x1eae;" d="M-124 85l111 20l622 1248h149l261 -1248l112 -20l-17 -85h-417l-8 85l141 20l-64 321h-476l-157 -321l142 -20l-17 -85h-374zM338 525h408l-115 579h-10zM409 1749l78 10q-2 -14 7 -40.5t35.5 -52.5t73.5 -45t121 -19q73 0 125.5 19t86 45t50.5 52.5t19 40.5l75 -10 q-7 -50 -36.5 -99.5t-78.5 -89t-115 -64t-145 -24.5t-137.5 24.5t-96 64t-53.5 89t-9 99.5zM637 1750l5 32l337 281l191 -10l-9 -66l-430 -248z" />
<glyph unicode="&#x1eaf;" horiz-adv-x="1158" d="M92 373l26 188q37 252 177.5 399t342.5 147q81 0 179.5 -20.5t199.5 -57.5l-129 -924l142 -20l-17 -85l-230 -22l-81 78l26 190q-78 -122 -179 -195t-206 -73q-165 0 -222 95q-38 64 -38 177q0 55 9 123zM281 178q24 -92 123 -92q84 0 175 81t167 206l85 617 q-46 16 -99 24.5t-100 8.5q-55 0 -108.5 -14t-94.5 -36q-40 -66 -72.5 -159.5t-53.5 -221.5l-19 -131q-14 -102 -14 -175q0 -65 11 -108zM443 1592l68 10q-2 -16 7 -45.5t34 -59t67 -51t106 -21.5q61 0 109.5 21.5t82 51t52 59t20.5 45.5l66 -10q-8 -54 -37 -107t-75 -95 t-106 -68.5t-130 -26.5t-122.5 26.5t-86.5 68.5t-48.5 95t-6.5 107zM674 1599l5 32l254 363l181 -10l-10 -66l-356 -329z" />
<glyph unicode="&#x1eb0;" d="M-124 85l111 20l622 1248h149l261 -1248l112 -20l-17 -85h-417l-8 85l141 20l-64 321h-476l-157 -321l142 -20l-17 -85h-374zM338 525h408l-115 579h-10zM409 1749l78 10q-2 -14 7 -40.5t35.5 -52.5t73.5 -45t121 -19q73 0 125.5 19t86 45t50.5 52.5t19 40.5l75 -10 q-7 -50 -36.5 -99.5t-78.5 -89t-115 -64t-145 -24.5t-137.5 24.5t-96 64t-53.5 89t-9 99.5zM416 1987l9 66l193 10l239 -281l-5 -32l-96 -11z" />
<glyph unicode="&#x1eb1;" horiz-adv-x="1158" d="M92 373l26 188q37 252 177.5 399t342.5 147q81 0 179.5 -20.5t199.5 -57.5l-129 -924l142 -20l-17 -85l-230 -22l-81 78l26 190q-78 -122 -179 -195t-206 -73q-165 0 -222 95q-38 64 -38 177q0 55 9 123zM281 178q24 -92 123 -92q84 0 175 81t167 206l85 617 q-46 16 -99 24.5t-100 8.5q-55 0 -108.5 -14t-94.5 -36q-40 -66 -72.5 -159.5t-53.5 -221.5l-19 -131q-14 -102 -14 -175q0 -65 11 -108zM443 1592l68 10q-2 -16 7 -45.5t34 -59t67 -51t106 -21.5q61 0 109.5 21.5t82 51t52 59t20.5 45.5l66 -10q-8 -54 -37 -107t-75 -95 t-106 -68.5t-130 -26.5t-122.5 26.5t-86.5 68.5t-48.5 95t-6.5 107zM507 1919l10 66l176 10l152 -363l-5 -32l-89 -10z" />
<glyph unicode="&#x1eb2;" d="M-124 85l111 20l622 1248h149l261 -1248l112 -20l-17 -85h-417l-8 85l141 20l-64 321h-476l-157 -321l142 -20l-17 -85h-374zM338 525h408l-115 579h-10zM417 1749l78 10q-2 -14 7 -40.5t35.5 -52.5t73.5 -45t121 -19q73 0 125.5 19t86 45t50.5 52.5t19 40.5l75 -10 q-7 -50 -36.5 -99.5t-78.5 -89t-115 -64t-145 -24.5t-137.5 24.5t-96 64t-53.5 89t-9 99.5zM633 1964l18 123q25 15 58 27q28 11 66 19.5t85 8.5q82 0 125 -34t34 -96q-8 -55 -43.5 -91t-92.5 -71q-21 -13 -34.5 -22t-21.5 -16t-11 -13t-4 -12q-2 -8 -1.5 -16t1.5 -14 q1 -8 3 -14l-81 -27q-9 15 -15 31q-5 14 -9.5 29t-2.5 29q4 25 21.5 48t62.5 53q28 18 47 32t31 26t17.5 23.5t7.5 26.5q3 22 -11 38t-49 16q-19 0 -35.5 -3t-29.5 -6q-15 -4 -28 -9l-35 -91z" />
<glyph unicode="&#x1eb3;" horiz-adv-x="1158" d="M92 373l26 188q37 252 177.5 399t342.5 147q81 0 179.5 -20.5t199.5 -57.5l-129 -924l142 -20l-17 -85l-230 -22l-81 78l26 190q-78 -122 -179 -195t-206 -73q-165 0 -222 95q-38 64 -38 177q0 55 9 123zM281 178q24 -92 123 -92q84 0 175 81t167 206l85 617 q-46 16 -99 24.5t-100 8.5q-55 0 -108.5 -14t-94.5 -36q-40 -66 -72.5 -159.5t-53.5 -221.5l-19 -131q-14 -102 -14 -175q0 -65 11 -108zM443 1592l68 10q-2 -16 7 -45.5t34 -59t67 -51t106 -21.5q61 0 109.5 21.5t82 51t52 59t20.5 45.5l66 -10q-8 -54 -37 -107t-75 -95 t-106 -68.5t-130 -26.5t-122.5 26.5t-86.5 68.5t-48.5 95t-6.5 107zM621 1817l18 123q25 15 58 27q28 11 66 19.5t85 8.5q82 0 125 -34t34 -96q-8 -55 -43.5 -91t-92.5 -71q-21 -13 -34.5 -22t-21.5 -16t-11 -13t-4 -12q-2 -8 -1.5 -16t1.5 -14q1 -8 3 -14l-81 -27 q-9 15 -15 31q-5 14 -9.5 29t-2.5 29q4 25 21.5 48t62.5 53q28 18 47 32t31 26t17.5 23.5t7.5 26.5q3 22 -11 38t-49 16q-19 0 -35.5 -3t-29.5 -6q-15 -4 -28 -9l-35 -91z" />
<glyph unicode="&#x1eb4;" d="M-124 85l111 20l622 1248h149l261 -1248l112 -20l-17 -85h-417l-8 85l141 20l-64 321h-476l-157 -321l142 -20l-17 -85h-374zM338 525h408l-115 579h-10zM353 1834l4 25q8 54 28.5 94.5t50.5 68.5t66.5 42t76.5 14q65 0 123.5 -20.5t109.5 -45.5t94 -45.5t77 -20.5 q36 0 66.5 32t40.5 98l99 10l-7 -47q-8 -51 -27 -91.5t-47.5 -69t-64.5 -43.5t-78 -15q-57 0 -117 20.5t-115.5 45.5t-104 45.5t-83.5 20.5q-17 0 -33 -4.5t-29.5 -16.5t-23.5 -33t-15 -54zM409 1749l78 10q-2 -14 7 -40.5t35.5 -52.5t73.5 -45t121 -19q73 0 125.5 19t86 45 t50.5 52.5t19 40.5l75 -10q-7 -50 -36.5 -99.5t-78.5 -89t-115 -64t-145 -24.5t-137.5 24.5t-96 64t-53.5 89t-9 99.5z" />
</font>
</defs>
</svg>
