<?xml version="1.0" standalone="no"?>
<!DOCTYPE svg PUBLIC "-//W3C//DTD SVG 1.1//EN" "http://www.w3.org/Graphics/SVG/1.1/DTD/svg11.dtd" >
<svg xmlns="http://www.w3.org/2000/svg">
<metadata>
This is a custom SVG webfont generated by Font Squirrel.
Copyright   : Copyright c 2011 JM Sole infojmsolecl with Reserved Font Name Noticia Text
Designer    : JM Sole
Foundry     : JM Sole
</metadata>
<defs>
<font id="NoticiaTextBoldItalic" horiz-adv-x="1023" >
<font-face units-per-em="2048" ascent="1638" descent="-410" />
<missing-glyph horiz-adv-x="550" />
<glyph unicode=" "  horiz-adv-x="550" />
<glyph unicode="&#x09;" horiz-adv-x="550" />
<glyph unicode="&#xa0;" horiz-adv-x="550" />
<glyph unicode="!" horiz-adv-x="644" d="M108 99q0 41 9.5 78.5t26 66t38.5 45t47 16.5q43 0 80.5 -10t65 -26.5t43.5 -39t16 -47.5q0 -41 -9.5 -77.5t-26 -65t-39 -45t-47.5 -16.5q-43 0 -80 9.5t-64.5 26t-43.5 38.5t-16 47zM212 410l85 1130l310 22l17 -22l-231 -1130h-181z" />
<glyph unicode="&#x22;" horiz-adv-x="721" d="M150 1137l57 403h216l-6 -42l-124 -361h-143zM418 1137l57 403h216l-6 -42l-124 -361h-143z" />
<glyph unicode="#" horiz-adv-x="1308" d="M6 286l24 177h222l120 426h-216l25 177h241l82 287h195l-3 -20l-76 -267h286l82 287h195l-3 -20l-76 -267h188l-25 -177h-213l-120 -426h207l-24 -177h-233l-81 -286h-195l3 20l75 266h-286l-81 -286h-195l3 20l75 266h-196zM450 463h286l120 426h-286z" />
<glyph unicode="$" horiz-adv-x="1105" d="M-6 41l16 279h170l45 -199q36 -11 91 -18q44 -5 92 -6l67 479q-17 12 -35 24q-209 132 -277 219t-49 220q22 148 178 242q121 73 295 89l27 192h145l-27 -188q84 -2 167 -12q102 -13 178 -39l-17 -290h-158l-45 201q-49 12 -99 17q-22 2 -43 3l-62 -442l20 -12 q231 -144 291 -240t42 -219q-25 -170 -184 -267q-119 -72 -285 -89l-29 -211h-145l28 204q-116 2 -215 18q-111 17 -182 45zM423 1100q-13 -88 52 -153q20 -20 46 -42l49 344l-14 -2q-54 -8 -90 -19q-13 -23 -26 -60.5t-17 -67.5zM554 106q49 8 85 19q19 30 35 70.5t23 85.5 q11 78 -39 143q-18 23 -52 53z" />
<glyph unicode="%" horiz-adv-x="1626" d="M102 1059q9 65 42 122.5t82 100.5t110 68t127 25q65 0 119 -25t91 -68t53.5 -100.5t7.5 -122.5q-9 -66 -42 -123.5t-82 -100t-110 -67.5t-126 -25q-66 0 -120 25t-90.5 67.5t-53.5 100t-8 123.5zM124 0l3 20l1154 1333h215l-3 -20l-1154 -1333h-215zM291 1059 q-11 -83 18 -118t88 -35q25 0 49.5 8.5t44 26.5t33.5 47t20 71t0 71t-20.5 47t-36.5 26.5t-47 8.5q-59 0 -98 -35t-51 -118zM886 294q9 65 42 122.5t81.5 100.5t109.5 68t127 25q65 0 119 -25t91 -68t54 -100.5t8 -122.5q-9 -66 -42.5 -123.5t-82.5 -100t-110 -67.5 t-126 -25q-66 0 -120 25t-90.5 67.5t-53 100t-7.5 123.5zM1075 294q-12 -83 17 -118t88 -35q25 0 49.5 8.5t44 26.5t34 47t20.5 71t-0.5 71t-21 47t-36.5 26.5t-47 8.5q-59 0 -98 -35t-50 -118z" />
<glyph unicode="&#x26;" horiz-adv-x="1489" d="M-37 293l2 12q9 63 41.5 118.5t82.5 104.5t114 92t135 81q-70 104 -93.5 182.5t-12.5 146.5l3 18q10 62 51 121t110.5 104.5t165 73.5t214.5 28q97 0 167 -19t114 -53.5t62 -82.5t10 -107l-3 -22q-8 -60 -38 -110.5t-85 -99t-135.5 -97.5t-190.5 -105q69 -94 133.5 -180 t127.5 -158q25 43 42 91.5t25 103.5l5 37l-134 33l28 88l406 22l-26 -187q-14 -94 -64.5 -179.5t-132.5 -156.5q55 -46 107 -71t103 -25q32 0 63.5 5t56.5 12q29 7 56 17l-16 -86q-28 -19 -63 -34q-30 -13 -72 -23t-95 -10q-81 0 -160.5 25.5t-157.5 73.5 q-96 -47 -209.5 -73t-241.5 -26q-258 0 -387 79t-108 236zM269 340q-8 -51 5.5 -95t44.5 -77t78 -52t107 -19q73 0 142 19.5t130 57.5q-91 77 -176.5 175t-166.5 212q-38 -20 -66.5 -45.5t-48.5 -53t-31.5 -56t-15.5 -55.5zM533 996q0 -30 4.5 -60.5t15 -61.5t29.5 -63 q56 33 98.5 63t72 60t46.5 62t23 69l2 13q14 90 -24 134t-107 44q-23 0 -42 -4t-33 -9q-17 -5 -31 -12q-12 -19 -22 -44q-8 -21 -16.5 -51.5t-11.5 -68.5l-1 -11q-3 -30 -3 -60z" />
<glyph unicode="'" horiz-adv-x="433" d="M70 1137l57 403h216l-6 -42l-124 -361h-143z" />
<glyph unicode="(" horiz-adv-x="734" d="M87 300q-4 114 14 243q18 126 53.5 238t82.5 210t100.5 181.5t107.5 151.5q126 159 274 277l105 -60q-98 -117 -183 -269q-36 -65 -73.5 -144t-70.5 -170.5t-60 -195.5t-43 -219t-18.5 -219t5 -196t22.5 -171t33 -144q42 -152 107 -269l-121 -60q-116 114 -197 272 q-35 67 -65 150t-49.5 181.5t-23.5 212.5z" />
<glyph unicode=")" horiz-adv-x="756" d="M-90 -456q97 116 182 268q36 65 73 144t70.5 170.5t60.5 196t44 220.5q16 117 18.5 222t-5 197t-22.5 170.5t-33 143.5q-43 150 -108 265l121 60q115 -116 197 -274q34 -67 65 -150t50 -181.5t23.5 -212t-13.5 -240.5q-18 -123 -53.5 -234.5t-82.5 -209t-100.5 -181 t-107.5 -151.5q-126 -161 -274 -283z" />
<glyph unicode="*" horiz-adv-x="771" d="M40 1068l45 26l255 87l-227 86l-41 29l129 183l44 -28l171 -165l-11 249l8 57h213l-8 -57l-81 -248l217 164l52 28l79 -183l-52 -29l-249 -85l227 -85l42 -29l-130 -183l-44 28l-171 165l11 -249l-8 -57h-213l8 57l81 248l-217 -164l-52 -28z" />
<glyph unicode="+" horiz-adv-x="1073" d="M150 490v207h288v308h207v-308h288v-207h-288v-308h-207v308h-288z" />
<glyph unicode="," horiz-adv-x="627" d="M28 -340q63 43 105.5 80.5t68 71t36.5 62t11 53.5q0 24 -18.5 37t-47.5 20q-59 16 -95.5 46t-36.5 68q0 42 10 79.5t26.5 66t38.5 45t47 16.5q23 0 48 -3.5t49 -11t45 -20t38 -29.5q10 -11 20 -26.5t17.5 -38t12 -53.5t4.5 -73q0 -60 -10 -116.5t-41.5 -114.5t-90 -120.5 t-155.5 -134.5z" />
<glyph unicode="-" d="M150 490v207h733v-207h-733z" />
<glyph unicode="." horiz-adv-x="564" d="M28 99q0 41 9.5 78.5t26 66t38.5 45t47 16.5q43 0 80.5 -9.5t65 -26.5t43.5 -39.5t16 -47.5q0 -41 -9.5 -77.5t-26 -65t-39 -45t-47.5 -16.5q-43 0 -80 9.5t-64.5 26t-43.5 38.5t-16 47z" />
<glyph unicode="/" horiz-adv-x="806" d="M-120 -295l2 20l822 1815h215l-2 -20l-823 -1815h-214z" />
<glyph unicode="0" horiz-adv-x="1276" d="M80 267q-20 103 1 250l15 105q27 188 84.5 329.5t141.5 235.5t191 141t233 47q132 0 226 -30t150.5 -94.5t74.5 -167.5t-3 -248l-15 -104q-29 -197 -85.5 -339.5t-140.5 -234.5t-194.5 -135.5t-246.5 -43.5q-119 0 -209.5 29t-146.5 93t-76 167zM379 349.5 q4 -90.5 26.5 -147t61 -81t88.5 -24.5q58 0 105.5 27t85.5 90t67 167.5t50 260.5l19 140q20 147 14 239.5t-30 144.5t-63 71t-85 19q-63 0 -111 -29.5t-84.5 -94.5t-63.5 -168.5t-47 -251.5l-19 -140q-18 -132 -14 -222.5z" />
<glyph unicode="1" horiz-adv-x="814" d="M86 105l130 20l150 1061h-225v99l318 68h231l-174 -1228l132 -20l-20 -105h-537z" />
<glyph unicode="2" horiz-adv-x="1084" d="M-16 0v135q180 165 315 299t227.5 244t143.5 200t63 169q9 58 0 98t-32 65t-57.5 35.5t-77.5 10.5q-36 0 -70 -6.5t-63.5 -15.5t-57.5 -20l-87 -225h-147l36 281q60 29 125.5 50.5t146.5 38t170 16.5q107 0 190 -18.5t137.5 -56t78 -95t11.5 -135.5 q-15 -103 -78.5 -205.5t-162.5 -208t-227 -216t-273 -230.5l3 -10h417l109 213l141 -13l-71 -400h-910z" />
<glyph unicode="3" horiz-adv-x="1042" d="M-6 72l37 278h146l25 -211q23 -12 49.5 -20.5t60 -15t73.5 -6.5q45 0 85.5 15t72.5 47.5t55 84t34 125.5q11 73 0.5 128t-38 92t-68 55t-89.5 18h-109l16 119h113q51 0 89 19.5t64.5 54t42.5 81t24 100.5q15 109 -26.5 164.5t-126.5 55.5q-29 0 -54.5 -4t-47 -9 t-40.5 -12l-83 -218h-143l37 288q52 20 109.5 35.5t129 27t147.5 11.5q217 0 319.5 -83.5t78.5 -255.5q-9 -61 -37 -109.5t-66 -85.5t-81 -64t-82 -44q52 -14 97 -41t76.5 -69t45 -100t3.5 -134q-14 -101 -61.5 -178t-122.5 -129t-174 -78t-215 -26q-76 0 -142.5 14.5 t-121 33.5t-102.5 46z" />
<glyph unicode="4" horiz-adv-x="1102" d="M-6 418l710 935h264l-672 -882l4 -10h291l47 335h300l-48 -335h108l6 -105l-131 -20l-30 -211l132 -20l-20 -105h-577l-5 105l169 20l29 217h-568z" />
<glyph unicode="5" horiz-adv-x="1132" d="M31 66l36 277h156l34 -216q23 -9 47.5 -15t55 -10.5t65.5 -4.5q52 0 98.5 18t84 54t63 91t35.5 129q10 72 -2 126t-41 91t-74 55.5t-101 18.5q-48 0 -89.5 -8t-74 -18t-61.5 -23l-120 101l123 621h793l-19 -200h-644l-75 -379q33 11 93.5 22t134.5 11q104 0 195 -20.5 t155 -67.5t95 -123.5t15 -187.5q-15 -105 -66.5 -185.5t-130.5 -135t-181 -82t-218 -27.5q-85 0 -154.5 13.5t-124.5 31.5t-103 43z" />
<glyph unicode="6" horiz-adv-x="1165" d="M75.5 295.5q-13.5 97.5 2.5 212.5l9 64q27 190 104.5 339t190.5 252t253 157.5t290 54.5q38 0 71 -3.5t60 -8t51 -10.5l-10 -106l-54 4q-27 2 -58.5 3.5t-62.5 1.5q-89 0 -173 -38.5t-153 -111.5t-118 -177t-69 -235l9 -4q41 32 115 57t171 25q93 0 165.5 -25t119 -73 t65.5 -117.5t7 -157.5q-13 -94 -55.5 -171.5t-111.5 -133t-164.5 -86t-215.5 -30.5q-141 0 -232.5 39.5t-142 110t-64 168zM375.5 329.5q5.5 -80.5 26.5 -132t56 -76t81 -24.5q99 0 150 70t69 203q10 75 2 128.5t-31.5 88t-60 50.5t-83.5 16q-38 0 -73 -10t-63.5 -23 t-54.5 -30l-9 -69q-15 -111 -9.5 -191.5z" />
<glyph unicode="7" horiz-adv-x="1040" d="M106 928l60 425h958v-93l-686 -1260h-279l695 1143l-4 10h-528l-82 -225h-134z" />
<glyph unicode="8" horiz-adv-x="1124" d="M22 304q9 62 40.5 115t78.5 96.5t106 77t124 56.5q-48 29 -88.5 65.5t-67.5 81.5t-38.5 99.5t-2.5 119.5q10 73 48 138.5t102.5 115t155.5 78t207 28.5q99 0 173.5 -18t122.5 -53t68.5 -88t10.5 -123q-9 -60 -39.5 -110t-75 -90.5t-99 -71t-109.5 -52.5 q68 -33 122.5 -75.5t90.5 -95t51 -115t5 -135.5q-11 -77 -53 -144.5t-113.5 -117.5t-171.5 -79t-226 -29q-110 0 -194 20.5t-138.5 61t-77.5 101.5t-12 143zM328 346q-17 -128 25.5 -188.5t139.5 -60.5q42 0 77.5 14.5t62.5 41.5t45 64.5t24 84.5q13 94 -48.5 166.5 t-188.5 132.5q-49 -41 -87 -103.5t-50 -151.5zM478 1062q-14 -93 23.5 -153t137.5 -98q45 42 75.5 101t41.5 137q15 107 -14.5 157t-93.5 50q-71 0 -114 -53.5t-56 -140.5z" />
<glyph unicode="9" horiz-adv-x="1140" d="M36 1l9 106q24 -3 48.5 -5t53.5 -3.5t61 -1.5q105 0 195.5 39t160 109t115.5 167.5t62 214.5l-10 4q-20 -11 -48 -23.5t-65.5 -23.5t-85.5 -18.5t-108 -7.5q-73 0 -133.5 26.5t-101.5 76t-59.5 119.5t-6.5 157q14 103 56 184.5t110.5 137.5t161 86t206.5 30 q132 0 220 -34.5t137 -102t62 -166.5t-5 -228l-11 -78q-29 -204 -105 -353t-187 -245.5t-250 -143t-293 -46.5q-40 0 -74 3t-62 8t-53 12zM425.5 837q7.5 -55 28 -90.5t51.5 -52.5t69 -17q34 0 66 8t60 19t55 27l9 67q29 219 -3 338.5t-128 119.5q-48 0 -82.5 -20t-59 -57 t-39.5 -90t-24 -120q-10 -77 -2.5 -132z" />
<glyph unicode=":" horiz-adv-x="620" d="M44 99q0 41 9.5 78.5t26 66t38.5 45t47 16.5q43 0 80.5 -9.5t65 -26.5t43.5 -39.5t16 -47.5q0 -41 -9.5 -77.5t-26 -65t-39 -45t-47.5 -16.5q-43 0 -80 9.5t-64.5 26t-43.5 38.5t-16 47zM144 810q0 41 9.5 78.5t26 66t38.5 45t47 16.5q43 0 80.5 -9.5t65 -26.5 t43.5 -39.5t16 -47.5q0 -41 -9.5 -77.5t-26 -65t-39 -45t-47.5 -16.5q-43 0 -80 9.5t-64.5 26t-43.5 38.5t-16 47z" />
<glyph unicode=";" horiz-adv-x="639" d="M44 -340q63 43 105.5 80.5t68 71t36.5 62t11 53.5q0 24 -18.5 36.5t-47.5 20.5q-59 15 -95.5 45.5t-36.5 68.5q0 42 10 79.5t26.5 66t38.5 45t47 16.5q23 0 48 -3.5t49 -11t45.5 -19.5t37.5 -30q10 -11 20 -26.5t17.5 -38t12 -53.5t4.5 -73q0 -60 -10 -116.5 t-41.5 -114.5t-90 -120.5t-155.5 -134.5zM167 810q0 41 9.5 78.5t26 66t38.5 45t47 16.5q43 0 80.5 -9.5t65 -26.5t43.5 -39.5t16 -47.5q0 -41 -9.5 -77.5t-26 -65t-39 -45t-47.5 -16.5q-43 0 -80 9.5t-64.5 26t-43.5 38.5t-16 47z" />
<glyph unicode="&#x3c;" horiz-adv-x="1148" d="M130 505v196l838 374h30v-189l-632 -278v-10l632 -277v-190h-30z" />
<glyph unicode="=" horiz-adv-x="1132" d="M150 277v217h842v-217h-842zM150 740v217h842v-217h-842z" />
<glyph unicode="&#x3e;" horiz-adv-x="1148" d="M150 131v190l632 277v10l-632 278v189h30l838 -374v-196l-838 -374h-30z" />
<glyph unicode="?" horiz-adv-x="1101" d="M191 99q0 41 9.5 78.5t26 66t38.5 45t47 16.5q43 0 80.5 -10t65 -26.5t43.5 -39t16 -47.5q0 -41 -9.5 -77.5t-26 -65t-39 -45t-47.5 -16.5q-43 0 -80 9.5t-64.5 26t-43.5 38.5t-16 47zM191 1202l42 277q58 23 123 40t147 30t180 13q103 0 181.5 -19t130.5 -55.5t74.5 -91 t13.5 -124.5q-7 -53 -27.5 -99t-59 -93.5t-98.5 -101t-145 -122.5l-182 -146q-24 -19 -39.5 -35t-25.5 -30.5t-15 -29t-6 -30.5q-2 -21 3 -38t15.5 -28t25.5 -17t32 -6t38 4.5t40.5 11t40.5 15.5l-17 -101q-30 -14 -65 -24.5t-79 -18t-95 -7.5q-58 0 -104 12t-76.5 37 t-44 62t-6.5 88q6 42 22.5 79t45.5 73.5t71.5 75.5t100.5 86l206 168q41 34 69 61.5t45.5 53t27 52t13.5 58.5q4 31 -3.5 60t-28.5 51t-56 35.5t-86 13.5q-41 0 -73 -4.5t-56.5 -10t-45.5 -12.5l-104 -230z" />
<glyph unicode="@" horiz-adv-x="1922" d="M78 322q0 151 35.5 287.5t101 253.5t159 212t210.5 161.5t254.5 102.5t290.5 36q166 0 300.5 -38t230 -111t147 -181t51.5 -247q0 -119 -25 -216t-66.5 -173t-96 -132t-114 -93.5t-120.5 -57.5t-114 -24l-196 -14l-81 78l23 170q-28 -46 -58 -90.5t-69.5 -79.5 t-92.5 -56.5t-126 -21.5q-61 0 -108 19t-76.5 60.5t-40 107.5t1.5 160l12 93q15 112 57 210t110.5 170t161.5 113.5t210 41.5q72 0 143 -12.5t133 -28.5t123 -37l-108 -776q39 4 79.5 31t73 88.5t53.5 164t21 257.5q0 126 -33 217.5t-96 151t-153.5 88t-204.5 28.5 q-109 0 -204 -31t-174 -87.5t-141.5 -136t-105.5 -177t-65.5 -210t-22.5 -234.5q0 -149 45.5 -250t124.5 -163t184 -89t225 -27q101 0 189.5 17t154.5 38q77 25 143 56v-106q-71 -41 -161 -73q-77 -27 -182 -49.5t-233 -22.5q-162 0 -304 32t-248 106.5t-167 195.5t-61 298z M784 349q-2 -54 4.5 -83.5t20.5 -39.5t34 -10q28 0 61.5 28.5t67.5 71.5t65.5 93t55.5 94l60 443q-16 3 -33 5.5t-36.5 5t-42.5 2.5q-28 0 -50 -3t-40 -7t-33 -10q-23 -41 -42.5 -93t-38.5 -123t-31 -164l-9 -69q-11 -87 -13 -141z" />
<glyph unicode="A" horiz-adv-x="1277" d="M-92 105l110 20l613 1228h239l257 -1229l106 -19l-17 -105h-517l-8 105l137 19l-54 272h-437l-133 -273l133 -18l-17 -105h-404zM395 515h355l-98 492h-16z" />
<glyph unicode="B" horiz-adv-x="1217" d="M-2 105l130 20l156 1103l-131 20l20 105h544q239 0 350 -77q91 -63 91 -187q0 -27 -4 -57q-14 -103 -88.5 -182.5t-212.5 -129.5v-16q138 -26 212 -108q60 -66 60 -162q0 -23 -4 -48q-26 -175 -160.5 -280.5t-357.5 -105.5h-600zM428 119h89q64 0 123.5 5t104.5 18 q21 36 43 99t32 137q5 33 5 62q0 84 -39 134q-52 68 -181 69h-103zM519 762h81q43 0 89.5 5t83.5 14q27 47 48.5 110.5t29.5 121.5q4 27 4 51q0 76 -39 117q-51 53 -168 53h-63z" />
<glyph unicode="C" horiz-adv-x="1218" d="M58 515l12 89q53 381 249.5 576t518.5 195q114 0 213.5 -17.5t156.5 -41.5l-17 -290h-168l-46 210q-32 10 -79.5 15t-87.5 5q-78 0 -150.5 -19.5t-122.5 -48.5q-52 -115 -89.5 -243.5t-56.5 -261.5l-18 -133q-8 -57 -8 -107q-1 -143 63 -229q86 -116 267 -117 q93 0 197.5 29t194.5 75l-15 -96q-101 -58 -226.5 -92.5t-250.5 -34.5q-309 0 -441 137q-104 108 -104 293q0 51 8 107z" />
<glyph unicode="D" horiz-adv-x="1438" d="M0 105l130 20l156 1103l-131 20l20 105h596q340 1 482 -153q109 -118 109 -325q0 -63 -10 -133l-12 -88q-44 -313 -231.5 -483.5t-480.5 -170.5h-623zM430 119h163q72 0 140.5 9t123.5 30q57 75 107.5 196t71.5 268l13 94q12 84 12 154q-1 152 -55 238q-80 126 -282 126 h-137z" />
<glyph unicode="E" horiz-adv-x="1246" d="M-2 105l130 20l156 1103l-131 20l20 105h1043l-19 -320h-166l-40 201h-406l-66 -467h317l40 127l103 -20l-56 -355l-107 -5v134h-314l-74 -529h428l105 203l160 -13l-66 -309h-1052z" />
<glyph unicode="F" horiz-adv-x="1092" d="M-4 105l130 20l156 1103l-131 20l20 105h973l-19 -320h-166l-40 201h-336l-66 -467h247l40 127l103 -20l-56 -355l-107 -5v134h-244l-74 -523l182 -20l-20 -105h-587z" />
<glyph unicode="G" horiz-adv-x="1356" d="M63 505l13 89q56 378 258.5 579.5t523.5 201.5q109 0 212 -15t183 -42l-17 -290h-168l-46 206q-42 10 -92.5 16t-94.5 6q-76 0 -154.5 -20.5t-136.5 -53.5q-52 -98 -94 -228.5t-62 -270.5l-18 -133q-8 -57 -8 -108q0 -139 61 -226q83 -119 245 -119q71 0 139 14l58 410 l-131 20l20 105h537l5 -105l-131 -20l-58 -416q-112 -57 -249.5 -92t-268.5 -35q-280 0 -421 132q-113 105 -113 292q0 48 8 103z" />
<glyph unicode="H" horiz-adv-x="1529" d="M-4 105l130 20l156 1103l-131 20l20 105h537l5 -105l-131 -20l-63 -450h524l63 450l-131 20l20 105h537l5 -105l-131 -20l-156 -1103l132 -20l-20 -105h-537l-5 105l130 20l76 534h-524l-76 -534l132 -20l-20 -105h-537z" />
<glyph unicode="I" horiz-adv-x="705" d="M-4 105l130 20l156 1103l-131 20l20 105h537l5 -105l-131 -20l-156 -1103l132 -20l-20 -105h-537z" />
<glyph unicode="J" horiz-adv-x="937" d="M-6 31l16 280h146l47 -206q14 -4 34.5 -6.5t38.5 -2.5q22 0 41.5 3.5t29.5 7.5q26 41 48 111t33 151l120 859l-181 20l20 105h587l5 -105l-131 -20l-119 -850q-29 -202 -140 -301t-302 -99q-81 0 -159.5 15t-133.5 38z" />
<glyph unicode="K" horiz-adv-x="1346" d="M-8 105l130 20l156 1103l-131 20l20 105h537l5 -105l-131 -20l-71 -505l13 -6l542 514l-84 17l20 105h388l5 -105l-114 -26l-460 -426l374 -670l109 -21l-14 -105h-328l-339 611l-147 -136l-50 -350l132 -20l-20 -105h-537z" />
<glyph unicode="L" horiz-adv-x="1033" d="M-6 105l130 20l156 1103l-131 20l20 105h567l5 -105l-161 -20l-156 -1109h298l110 213l141 -12l-68 -320h-906z" />
<glyph unicode="M" horiz-adv-x="2035" d="M-4 105l130 20l156 1103l-131 20l20 105h544l240 -964h17l513 964h553l5 -105l-131 -20l-156 -1103l132 -20l-20 -105h-537l-5 105l130 20l147 1037h-16l-626 -1162h-185l-297 1162h-16l-147 -1037l132 -20l-20 -105h-427z" />
<glyph unicode="N" horiz-adv-x="1549" d="M-8 105l130 20l156 1103l-131 20l20 105h503l444 -1118h16l139 993l-131 20l20 105h428l5 -105l-131 -20l-173 -1228h-373l-445 1120h-16l-141 -995l132 -20l-20 -105h-427z" />
<glyph unicode="O" horiz-adv-x="1430" d="M63 525l11 79q52 378 242 574.5t519 196.5q307 -1 439 -139q102 -107 102 -292q0 -55 -9 -117l-11 -78q-53 -379 -245.5 -575t-510.5 -196q-315 0 -445 137q-101 106 -101 293q0 55 9 117zM370 570q-8 -62 -8 -117q0 -141 54 -231q76 -124 226 -125q68 0 137 16t121 43 q39 86 80.5 219.5t61.5 274.5l18 133q11 76 11 140q-1 136 -49 216q-70 117 -238 117q-67 0 -135 -17t-118 -41q-45 -99 -84 -229t-59 -266z" />
<glyph unicode="P" horiz-adv-x="1177" d="M-2 105l130 20l156 1103l-131 20l20 105h572q256 0 366 -87q90 -71 89 -206q0 -31 -4 -65q-28 -182 -171.5 -285.5t-336.5 -103.5h-192l-68 -481l182 -20l-20 -105h-587zM513 725h111q47 0 96 4.5t89 13.5q22 35 46 98t33 127q5 37 5 68q-1 87 -41 134q-56 64 -189 64 h-78z" />
<glyph unicode="Q" horiz-adv-x="1440" d="M59 525l11 79q53 380 244 575.5t517 195.5q303 0 437 -136q104 -105 104 -295q0 -55 -9 -117l-11 -78q-33 -237 -120 -401.5t-226 -257.5q31 -84 68 -124.5t91 -40.5q29 0 61.5 7t59.5 18l-14 -90q-42 -26 -93.5 -40t-105.5 -14q-113 0 -189 48t-113 141 q-42 -8 -85 -12.5t-90 -4.5q-314 0 -445 136q-101 106 -101 293q0 55 9 118zM358 480q28 60 90 92.5t143 32.5q142 0 216.5 -74.5t117.5 -207.5l17 -50q26 70 53.5 168.5t42.5 208.5l18 133q11 75 11 139q0 132 -47 214q-68 120 -240 120q-66 0 -132.5 -16t-120.5 -42 q-51 -115 -88 -241.5t-55 -253.5l-18 -133q-6 -43 -8 -90zM381 340q0 -21 4 -46.5t15 -50.5q37 -74 99.5 -110t138.5 -36q26 0 49 1.5t46 5.5l-41 119q-28 81 -51.5 139t-52 91t-83.5 33q-58 0 -91 -38.5t-33 -107.5z" />
<glyph unicode="R" horiz-adv-x="1279" d="M-4 105l130 20l156 1103l-131 20l20 105h565q232 1 339 -87q87 -71 87 -200q0 -30 -5 -63q-18 -126 -91 -212.5t-190 -127.5l-8 -19l226 -517l127 -22l-20 -105h-339l-255 606h-113l-68 -481l132 -20l-20 -105h-537zM511 725h74q46 0 96.5 6t98.5 20q22 42 42 104.5 t28 122.5q6 38 6 71q0 81 -36 124q-50 61 -179 61h-58z" />
<glyph unicode="S" horiz-adv-x="1203" d="M60 41l16 279h170l45 -199q36 -11 91.5 -17.5t117.5 -6.5q55 0 110 8t95 20q19 30 35 70.5t23 85.5q2 14 2 28q-1 62 -41 115q-50 65 -218 176q-209 132 -277 219q-53 68 -53 164q0 27 4 56q22 148 178 242t401 94q104 0 206 -13t178 -39l-17 -290h-158l-45 201 q-49 12 -99 17t-93 5q-55 0 -109 -8.5t-90 -19.5q-13 -23 -26 -60.5t-17 -67.5q-2 -15 -2 -29q1 -70 55 -124q66 -65 197 -147q231 -144 291 -240q46 -74 46 -164q0 -27 -4 -55q-25 -170 -184 -266.5t-404 -96.5q-131 0 -242 17.5t-182 45.5z" />
<glyph unicode="T" horiz-adv-x="1148" d="M60 1043l56 310h1112l-27 -310h-139l-30 191h-222l-157 -1109l132 -20l-20 -105h-537l-5 105l130 20l157 1109h-227l-75 -191h-148z" />
<glyph unicode="U" horiz-adv-x="1452" d="M130 1248l20 105h537l5 -105l-131 -20l-95 -682q-11 -76 -11 -139q1 -119 39 -195q58 -116 213 -115q84 0 156.5 21t118.5 55q26 50 54.5 143.5t44.5 204.5l99 707l-131 20l20 105h428l5 -105l-131 -20l-99 -710q-38 -274 -191 -407t-446 -133q-283 0 -398 126 q-88 96 -88 271q0 54 9 116l103 737z" />
<glyph unicode="V" horiz-adv-x="1311" d="M76 1248l14 105h497l11 -105l-140 -20l187 -956h16l457 957l-130 19l14 105h414l11 -105l-115 -23l-603 -1225h-271l-259 1227z" />
<glyph unicode="W" horiz-adv-x="2111" d="M60 1248l14 105h497l11 -105l-137 -20l195 -903h16l428 1028h251l191 -1028h16l386 904l-132 19l14 105h414l11 -105l-112 -22l-541 -1226h-274l-181 975h-16l-409 -975h-272l-267 1228z" />
<glyph unicode="X" horiz-adv-x="1289" d="M-56 105l115 22l451 564l-277 536l-110 21l14 105h480l11 -105l-102 -15l188 -359h16l283 360l-96 14l14 105h391l11 -105l-121 -24l-416 -513l303 -584l117 -22l-20 -105h-485l-5 105l102 14l-213 411h-16l-320 -411l103 -14l-20 -105h-393z" />
<glyph unicode="Y" horiz-adv-x="1162" d="M28 1248l14 105h481l11 -105l-105 -15l229 -463h16l345 464l-100 14l14 105h396l11 -105l-122 -24l-455 -607l-70 -492l132 -20l-20 -105h-537l-5 105l130 20l65 461l-320 640z" />
<glyph unicode="Z" horiz-adv-x="1242" d="M14 0v95l837 1125l-3 14h-456l-99 -213l-151 12l68 320h1010v-94l-838 -1126l3 -14h497l99 213l150 -12l-67 -320h-1050z" />
<glyph unicode="[" horiz-adv-x="676" d="M0 -457l298 2134h468l-14 -106h-192l-269 -1922h190l-14 -106h-467z" />
<glyph unicode="\" horiz-adv-x="770" d="M130 1520l2 20h215l313 -1815l-2 -20h-215z" />
<glyph unicode="]" horiz-adv-x="676" d="M-90 -457l14 106h191l269 1922h-190l14 106h468l-299 -2134h-467z" />
<glyph unicode="^" horiz-adv-x="984" d="M120 1049v30l381 483h122l381 -483v-30h-199l-235 294h-16l-234 -294h-200z" />
<glyph unicode="_" horiz-adv-x="1046" d="M-50 -235h1036v-144h-1036v144z" />
<glyph unicode="`" horiz-adv-x="828" d="M200 1594l10 66l286 10l132 -363l-5 -32l-149 -10z" />
<glyph unicode="a" horiz-adv-x="1244" d="M77 373l26 188q37 252 195 399t391 147q94 0 211.5 -21.5t221.5 -56.5l-126 -904l132 -20l-20 -105l-330 -22l-81 78l23 169q-82 -116 -181 -181.5t-198 -65.5q-160 0 -226 96q-46 68 -46 188q0 51 8 111zM366 200q10 -94 82 -94q51 0 130.5 79.5t164.5 207.5l82 589 q-27 8 -69 14.5t-88 6.5q-37 0 -77.5 -8t-79.5 -22q-40 -75 -69 -175t-44 -206l-18 -131q-17 -118 -17 -199q0 -34 3 -62z" />
<glyph unicode="b" horiz-adv-x="1216" d="M96 56l189 1359l-132 20l21 105l330 22l81 -78l-86 -620q86 119 187.5 181t202.5 62q154 0 217 -96q44 -66 44 -184q0 -52 -9 -115l-26 -188q-38 -255 -195 -400.5t-384 -145.5q-104 0 -224 22.5t-216 55.5zM392 101q38 -9 79.5 -14t78.5 -5q40 0 86 8.5t80 21.5 q33 71 61 168t44 213l18 131q17 119 17 198q0 38 -4 68q-12 88 -80 89q-59 0 -137.5 -77.5t-159.5 -208.5z" />
<glyph unicode="c" horiz-adv-x="965" d="M72 429l13 93q40 280 205 432.5t396 152.5q84 0 164 -14t135 -38l-56 -257l-126 -10v195q-34 7 -70 10.5t-69 3.5q-34 0 -74.5 -8t-84.5 -27q-45 -83 -76.5 -184t-48.5 -216l-16 -119q-10 -70 -10 -127q0 -82 20 -136q36 -92 184 -92q65 0 142 25t145 65v-106 q-80 -46 -178 -70t-196 -24q-232 0 -332 112q-75 84 -75 233q0 50 8 106z" />
<glyph unicode="d" horiz-adv-x="1233" d="M74 373l26 188q38 256 197.5 401t390.5 145q35 0 72 -3t79 -9l44 320l-131 20l20 105l330 22l81 -78l-190 -1359l132 -20l-20 -105l-330 -22l-81 78l24 171q-83 -123 -181.5 -186t-198.5 -63q-154 0 -222 100q-50 72 -49 194q0 47 7 101zM366 186q16 -80 78 -80 q56 0 132 71t165 216l83 594q-25 6 -66.5 11t-88.5 5q-41 0 -84.5 -9t-77.5 -24q-38 -74 -67 -171t-45 -207l-18 -131q-16 -123 -16 -200q-1 -45 5 -75z" />
<glyph unicode="e" d="M74 429l13 93q40 277 194.5 431t382.5 154q186 0 274 -70q73 -58 72 -165q0 -23 -3 -48q-23 -161 -152.5 -251.5t-335.5 -90.5q-40 0 -79 3.5t-67 8.5l-7 -51q-9 -61 -8 -112q0 -93 28 -152q46 -91 179 -91q61 0 140 23t163 67v-106q-81 -45 -183 -69.5t-207 -24.5 q-240 0 -338 114q-74 87 -73 236q0 47 7 101zM388 596q37 -4 76 -7t70 -3q29 0 55 3.5t45 9.5q28 41 48.5 92t29.5 111q5 39 5 70q0 52 -14 80q-23 46 -88 45q-29 0 -58.5 -7t-58.5 -22q-34 -75 -62.5 -169.5t-47.5 -202.5z" />
<glyph unicode="f" horiz-adv-x="746" d="M-280 -410l48 140q69 -28 140.5 -44t125.5 -16q35 44 58.5 111t34.5 145l145 1055h-189l14 104h191q45 243 155.5 360t287.5 117q65 0 129 -13t110 -34l-43 -140q-52 27 -112 43.5t-113 16.5q-44 -52 -76 -139.5t-46 -188.5l-3 -22h214l-14 -104h-215l-142 -1028 q-28 -208 -126 -309t-290 -101q-73 0 -147 12t-137 35z" />
<glyph unicode="g" horiz-adv-x="1167" d="M-20 -367l42 180q162 -66 289.5 -98t214.5 -32q59 52 102.5 155t65.5 251l18 134q-76 -118 -179.5 -181.5t-214.5 -63.5q-156 0 -216 100q-40 70 -40 183q0 51 8 112l26 188q36 249 194 397.5t392 148.5q96 0 208.5 -20.5t224.5 -57.5l-126 -900q-39 -264 -195.5 -425 t-377.5 -161q-100 0 -215 23.5t-221 66.5zM362 196q14 -90 77 -90q65 0 144 77.5t153 209.5l82 589q-30 9 -72.5 15t-83.5 6q-40 0 -85 -10t-80 -25q-32 -68 -59.5 -159t-46.5 -217l-18 -131q-15 -112 -15 -189q0 -44 4 -76z" />
<glyph unicode="h" horiz-adv-x="1346" d="M114 0l197 1415l-131 20l20 105l330 22l81 -78l-87 -625q93 121 204 184.5t225 63.5q144 0 196 -74q37 -52 37 -144q0 -39 -7 -85l-93 -679l132 -20l-20 -105l-330 -22l-82 78l93 675q14 103 14 158q0 25 -3 41q-9 50 -53 49q-64 0 -153 -76.5t-183 -210.5l-99 -714z" />
<glyph unicode="i" horiz-adv-x="704" d="M136 980l20 105l331 22l81 -78l-126 -904l131 -20l-20 -105l-330 -22l-81 78l125 904zM332 1398q0 74 29 128t69 54q73 0 127.5 -29.5t54.5 -68.5q0 -76 -29 -129t-69 -53q-76 0 -129 28.5t-53 69.5z" />
<glyph unicode="j" horiz-adv-x="661" d="M-280 -410l48 140q72 -27 144.5 -43.5t126.5 -16.5q26 34 50 99t36 145l144 1046l-131 20l20 105l331 22l81 -78l-152 -1076q-28 -206 -127.5 -308t-291.5 -102q-70 0 -144.5 13t-134.5 34zM335 1398q0 74 29 128t69 54q73 0 127.5 -29.5t54.5 -68.5q0 -76 -29 -129 t-69 -53q-76 0 -129 28.5t-53 69.5z" />
<glyph unicode="k" horiz-adv-x="1224" d="M112 0l197 1415l-131 20l20 105l331 22l81 -78l-120 -855q157 66 275.5 155.5t205.5 185.5l-98 10l20 105l188 22l137 -118q-66 -81 -170.5 -176t-250.5 -183l249 -504l139 -21l-14 -105l-293 -22l-81 78l-228 459q-24 -10 -49 -19.5t-51 -18.5l-69 -499z" />
<glyph unicode="l" horiz-adv-x="666" d="M116 56l189 1359l-131 20l20 105l331 22l81 -78l-190 -1359l131 -20l-20 -105l-330 -22z" />
<glyph unicode="m" horiz-adv-x="2015" d="M132 0l132 960l-131 20l20 105l331 22l81 -78l-24 -170q97 121 210 184.5t223 63.5q126 -1 180 -63q45 -52 44 -147q0 -20 -1 -41q94 123 206 187t225 64q138 -1 191 -71q38 -50 38 -140q0 -36 -6 -77l-95 -694l131 -20l-20 -105l-330 -22l-81 78l93 675q13 96 13 155 q0 17 -1 31q-5 62 -52 62q-61 0 -145.5 -71t-188.5 -216l-77 -567l131 -20l-20 -105l-330 -22l-81 78l93 675q13 96 13 154q0 19 -1 34q-6 60 -53 60q-62 0 -147 -71.5t-185 -215.5l-100 -714z" />
<glyph unicode="n" horiz-adv-x="1362" d="M132 0l132 960l-131 20l20 105l331 22l81 -78l-24 -170q94 118 204.5 183t218.5 65q147 0 201 -71q39 -51 39 -141q0 -35 -6 -76l-95 -694l131 -20l-20 -105l-330 -22l-81 78l93 675q13 91 13 148q0 24 -2 41q-8 59 -52 59q-55 0 -141.5 -71.5t-195.5 -215.5l-100 -714z " />
<glyph unicode="o" horiz-adv-x="1167" d="M70 429l13 93q41 279 207.5 432t403.5 153q239 0 338 -114q75 -86 75 -240q0 -50 -8 -106l-13 -95q-38 -258 -210 -416t-400 -158q-234 0 -336 110q-78 84 -78 238q0 48 8 103zM361 443q-9 -67 -9 -121q0 -91 26 -146q40 -88 130 -88q37 0 76.5 8t72.5 22q49 76 84 180.5 t50 214.5l16 119q11 76 11 136q0 81 -20 135q-34 94 -136 94q-36 0 -75 -7.5t-74 -21.5q-50 -88 -84.5 -193t-50.5 -213z" />
<glyph unicode="p" horiz-adv-x="1245" d="M-54 -330l130 20l177 1270l-131 20l20 105l330 22l81 -78l-24 -170q82 117 183.5 182.5t202.5 65.5q170 0 229 -99q39 -66 39 -176q0 -55 -10 -120l-26 -188q-37 -252 -194 -399t-385 -147q-38 0 -80 3.5t-80 9.5l-42 -301l132 -20l-20 -105h-527zM423 95q42 -7 81.5 -10 t76.5 -3q42 0 85 8t80 22q29 58 59 157t48 224l18 131q17 126 17 206q0 37 -4 64q-11 85 -73 85q-64 0 -145.5 -78.5t-160.5 -211.5z" />
<glyph unicode="q" horiz-adv-x="1174" d="M75 373l26 188q40 250 196 398t384 148q93 0 208.5 -20t230.5 -58l-187 -1339l132 -20l-20 -105h-527l-5 105l130 20l74 534q-77 -116 -176.5 -181t-201.5 -65q-168 0 -230 96q-43 67 -43 184q0 52 9 115zM366 191q15 -85 75 -85t136 70t164 217l82 594q-35 8 -75 12 t-81 4q-42 0 -87 -9.5t-78 -22.5q-44 -101 -69 -197t-37 -182l-19 -131q-17 -118 -17 -195q0 -44 6 -75z" />
<glyph unicode="r" horiz-adv-x="978" d="M34 105l130 20l116 835l-131 20l20 105l331 22l81 -78l-25 -176q54 121 132.5 187.5t169.5 66.5q42 0 82 -12t70 -32l-58 -275l-146 -12v178q-11 3 -20.5 4t-18.5 1q-48 0 -110 -83t-134 -260l-68 -491l132 -20l-20 -105h-528z" />
<glyph unicode="s" d="M72 48l24 260h122l31 -197q30 -10 75 -16.5t96 -6.5q40 0 80.5 4.5t76.5 13.5q14 21 26 50.5t17 63.5q2 13 2 26q0 48 -28 87q-35 49 -195 151q-167 104 -217 180q-40 61 -40 130q0 17 2 34q19 129 145.5 204t339.5 75q97 0 183.5 -19t144.5 -49l-25 -261h-121l-33 199 q-33 9 -75 14.5t-84 5.5q-35 0 -72 -5t-63 -13q-15 -18 -27 -44t-16 -53q-2 -14 -2 -28q0 -42 23 -74q31 -43 160 -121q200 -119 255 -203q43 -65 43 -146q0 -23 -4 -48q-19 -135 -154.5 -209.5t-350.5 -74.5q-96 0 -185 19t-154 51z" />
<glyph unicode="t" horiz-adv-x="821" d="M76 981l15 104h176l29 207l303 83l-41 -290h277l-15 -104h-276l-89 -633q-10 -67 -10 -117q0 -42 7 -74q15 -69 82 -69q51 0 101.5 20.5t95.5 49.5v-106q-52 -34 -130.5 -54t-162.5 -20q-173 0 -236 92q-44 65 -44 178q0 48 8 105l87 628h-177z" />
<glyph unicode="u" horiz-adv-x="1344" d="M124 980l20 105l331 22l78 -98l-92 -670q-11 -79 -11 -131q0 -26 3 -45q8 -57 60 -57q64 0 149 73.5t177 210.5l79 570l-131 20l20 105l331 22l81 -78l-126 -904l131 -20l-20 -105l-330 -22l-81 78l23 167q-88 -114 -202 -179.5t-233 -65.5q-137 0 -189 72 q-37 51 -37 139q0 36 6 77l95 694z" />
<glyph unicode="v" horiz-adv-x="1063" d="M32 980l14 105l284 22l81 -78l135 -853q55 85 106.5 182.5t93.5 200t72.5 205t44.5 197.5l-125 19l14 105l220 22l81 -78q0 -79 -20 -168t-54.5 -182t-80.5 -187t-99 -184.5t-109.5 -174t-111.5 -155.5l-261 22l-155 960z" />
<glyph unicode="w" horiz-adv-x="1745" d="M32 980l14 105l284 22l81 -78l124 -785l405 863l145 -22l143 -905q55 85 106.5 182t94 199t72.5 204t44 196l-125 19l14 105l220 22l81 -78q0 -79 -19.5 -168.5t-53.5 -183t-80 -188.5t-99 -185t-110 -173t-113 -153l-261 22l-108 663l-313 -685l-262 22l-154 960z" />
<glyph unicode="x" horiz-adv-x="1139" d="M-4 76q28 53 72.5 115.5t102 128.5t125.5 133t142 129l-179 377l-136 21l14 105l301 22l81 -78l166 -351q70 69 130.5 142.5t109.5 147.5l-100 12l14 105l168 22l144 -98q-29 -47 -69.5 -103t-91.5 -116t-112.5 -122t-130.5 -122l199 -421l137 -20l-14 -105l-301 -22 l-81 78l-188 396q-78 -70 -150 -158.5t-129 -176.5l102 -12l-14 -105l-168 -22z" />
<glyph unicode="y" horiz-adv-x="1283" d="M86 -367l42 180q150 -62 281.5 -96t222.5 -34q54 46 99.5 148t68.5 258l18 134q-78 -110 -191 -177.5t-236 -67.5q-143 0 -196 72q-38 51 -38 140q0 35 6 76l95 694l-132 20l20 105l331 22l81 -78l-95 -695q-12 -86 -12 -138q0 -20 2 -35q6 -55 56 -55q55 0 140 72.5 t193 212.5l79 569l-132 20l20 105l331 22l81 -78l-126 -900q-44 -276 -201.5 -431t-371.5 -155q-102 0 -216.5 23.5t-219.5 66.5z" />
<glyph unicode="z" horiz-adv-x="1067" d="M38 0l11 95l676 880h-356l-82 -174l-143 26l50 258h877l-10 -83l-686 -892h365l82 174l143 -26l-50 -258h-877z" />
<glyph unicode="{" horiz-adv-x="835" d="M84 557l15 106h96q61 0 89 24.5t36 85.5l88 624q9 60 37 111.5t70.5 89t97 58.5t114.5 21h188l-14 -106h-21q-91 0 -136 -39.5t-58 -130.5l-81 -573q-9 -62 -27.5 -103t-43 -65.5t-53 -34.5t-56.5 -10l-1 -10q28 0 53.5 -10t43 -34.5t25 -65.5t-1.5 -103l-81 -573 q-13 -91 21 -130.5t125 -39.5h21l-14 -106h-188q-60 0 -108.5 21t-81 58.5t-46.5 89t-5 111.5l88 624q8 61 -13 85.5t-82 24.5h-96z" />
<glyph unicode="|" horiz-adv-x="748" d="M290 -537v2207h168v-2207h-168z" />
<glyph unicode="}" horiz-adv-x="834" d="M-80 -457l14 106h21q90 0 135 39.5t58 130.5l81 573q9 62 29.5 103t46.5 65.5t53.5 34.5t50.5 10l1 10q-23 0 -47.5 10t-43.5 34.5t-28.5 65.5t-0.5 103l81 573q13 91 -21 130.5t-125 39.5h-21l14 106h188q60 0 108.5 -21t81 -58.5t46.5 -89t5 -111.5l-88 -624 q-8 -61 13 -85.5t82 -24.5h96l-15 -106h-96q-61 0 -89 -24.5t-36 -85.5l-88 -624q-9 -60 -37 -111.5t-70.5 -89t-97 -58.5t-114.5 -21h-187z" />
<glyph unicode="~" horiz-adv-x="1291" d="M150 499v75q0 56 20 99t54.5 72t82 43.5t103.5 14.5q37 0 83.5 -10t95 -24.5t97.5 -31.5t92.5 -31.5t78 -24.5t54.5 -10q19 0 37.5 7.5t33 22.5t23.5 37.5t9 52.5l137 10v-97q0 -53 -18 -95.5t-51 -72t-78.5 -45.5t-100.5 -16q-34 0 -80 10t-97.5 24.5t-103.5 31.5 t-98.5 31.5t-82.5 24.5t-55 10q-20 0 -39.5 -4t-34.5 -15t-24 -30t-9 -49z" />
<glyph unicode="&#xa1;" horiz-adv-x="631" d="M5 -435l228 1110h181l-84 -1110l-308 -22zM193 903q0 40 9.5 77t26 65.5t38.5 45t48 16.5q43 0 80 -9.5t64.5 -26t43.5 -38.5t16 -47q0 -41 -9.5 -78.5t-26 -66t-38.5 -45t-47 -16.5q-43 0 -80.5 10t-65 26.5t-43.5 39t-16 47.5z" />
<glyph unicode="&#xa2;" horiz-adv-x="997" d="M72 429l13 93q40 280 205 432q140 130 328 149l35 250h118l-35 -248q58 -2 114 -12q80 -14 135 -38l-56 -257l-126 -10v195q-34 7 -70 10q-7 1 -13 1l-127 -905q50 5 107 24q77 25 145 65v-106q-80 -46 -178 -70q-44 -11 -89 -17l-32 -230h-118l31 223q-223 3 -320 112 q-100 112 -67 339zM364 443q-25 -170 10 -263q25 -63 102 -83l126 894q-6 -1 -13 -2q-40 -8 -84 -27q-45 -83 -76.5 -184t-48.5 -216z" />
<glyph unicode="&#xa3;" horiz-adv-x="1108" d="M8 88l144 29q2 3 10 21.5t18 47.5t20.5 68.5t16.5 84.5q4 29 5.5 57t0.5 58t-4.5 63t-8.5 73h-121l-9 79l115 29q-6 44 -10 83t-5 76t1 72.5t8 73.5q11 76 47.5 144t102 118.5t161 80t224.5 29.5q80 0 143.5 -13t112 -30t88.5 -40l-37 -267l-148 -15l-42 236 q-15 5 -33.5 9t-45 7t-60.5 3q-38 0 -68.5 -4t-53.5 -9.5t-42 -12.5q-11 -28 -21 -59.5t-19.5 -73t-16.5 -91.5q-6 -44 -9 -79.5t-2.5 -70t4.5 -72t10 -84.5h385l-17 -119h-352q7 -59 8 -110t-6 -105q-8 -55 -21 -101.5t-26 -81.5q-15 -40 -32 -73h318l110 193l141 -22 l-66 -290h-910z" />
<glyph unicode="&#xa4;" horiz-adv-x="1128" d="M90 983l154 129l155 -184q41 20 86 30.5t95 10.5q48 0 93 -10.5t86 -30.5l154 184l155 -131l-154 -183q32 -46 49.5 -99t17.5 -111q0 -63 -20 -119.5t-55 -103.5l161 -191l-154 -128l-165 196q-78 -35 -168 -35q-45 0 -87.5 9t-80.5 26l-165 -197l-155 130l160 192 q-35 47 -54 102.5t-19 118.5q0 58 17 111.5t49 98.5zM405 588q0 -46 14 -81t37.5 -58.5t55.5 -35.5t68 -12t67.5 12t55.5 35.5t37.5 58.5t13.5 81t-13.5 81t-37.5 58.5t-55.5 35.5t-67.5 12t-68 -12t-55.5 -35.5t-37.5 -58.5t-14 -81z" />
<glyph unicode="&#xa5;" horiz-adv-x="1162" d="M28 1248l14 105h481l11 -105l-105 -15l229 -463h16l345 464l-100 14l14 105h396l11 -105l-122 -24l-429 -572h223l-16 -117h-245l-21 -148h247l-16 -117h-248l-20 -145l132 -20l-20 -105h-537l-5 105l130 20l20 145h-255l16 117h256l21 148h-258l16 117h216l-287 574z " />
<glyph unicode="&#xa6;" horiz-adv-x="748" d="M290 320h168v-857h-168v857zM290 813v857h168v-857h-168z" />
<glyph unicode="&#xa7;" horiz-adv-x="1194" d="M82 -58l59 280h130v-217q27 -7 58.5 -12t73 -8t92.5 -3q43 0 79 2.5t62 5.5t52 8q8 11 15 23.5t13.5 29.5t9.5 38q5 38 -9 70t-51.5 65t-102 71t-159.5 89q-72 38 -130 76.5t-97.5 83t-57 99t-7.5 124.5q6 44 23 81t42.5 67.5t58.5 56t72 47.5q-35 41 -49 88.5t-5 109.5 q7 51 37 99t90 85.5t153 60t226 22.5q90 0 160.5 -10.5t125.5 -24.5t100 -33l-60 -280h-131v217q-29 6 -60.5 10t-71 7.5t-84.5 3.5q-37 0 -69 -3.5t-56 -7.5t-49 -10q-8 -11 -14 -22.5t-11 -25.5t-7 -31q-5 -35 4 -62t36 -53.5t74.5 -57t120.5 -71.5q92 -52 165 -100 t122 -99t71 -107t12 -125q-6 -45 -23.5 -81.5t-43 -66.5t-58.5 -54t-72 -44q38 -44 54.5 -96t7.5 -121q-19 -137 -148.5 -200.5t-374.5 -63.5q-86 0 -158 10.5t-130 25t-110 34.5zM390 831q-5 -37 2.5 -67t35 -60t77.5 -63.5t129 -78.5q54 -31 102.5 -58.5t90.5 -55.5 q24 44 33 100q6 39 -4.5 69.5t-38 59t-73.5 57.5t-111 66q-61 34 -114 64t-97 59q-12 -21 -20 -43.5t-12 -48.5z" />
<glyph unicode="&#xa8;" horiz-adv-x="1035" d="M150 1389q0 31 8.5 58.5t23 48t34 32.5t40.5 12q31 0 58.5 -8.5t47.5 -23.5t31.5 -34.5t11.5 -41.5q0 -30 -8.5 -57t-22.5 -48t-33.5 -33t-40.5 -12q-32 0 -59 8.5t-47.5 23.5t-32 34.5t-11.5 40.5zM630 1389q0 31 8.5 58.5t22.5 48t33.5 32.5t40.5 12q31 0 58.5 -8.5 t48 -23.5t32 -34.5t11.5 -41.5q0 -30 -8.5 -57t-23 -48t-34 -33t-41.5 -12q-32 0 -59 8.5t-46.5 23.5t-31 34.5t-11.5 40.5z" />
<glyph unicode="&#xa9;" horiz-adv-x="1377" d="M120 949q0 127 48.5 239t131.5 195t195 131t239 48t239 -48t195 -131t131 -195t48 -239t-48 -239t-131 -195t-195 -131.5t-239 -48.5q-85 0 -163.5 22t-146.5 62t-124 96t-96 124t-62 146.5t-22 163.5zM297 949q0 -91 34 -170.5t93.5 -139t139 -93.5t170.5 -34 q90 0 169.5 34t139 93.5t93.5 139t34 170.5q0 90 -34 169.5t-93.5 139t-139 93.5t-169.5 34q-91 0 -170.5 -34t-139 -93.5t-93.5 -139t-34 -169.5zM419 890v63q0 171 90 261.5t248 90.5q46 0 82 -6t64 -14t50 -18l12 -203l-98 -14l-44 137q-7 3 -16 5.5t-21.5 4.5t-29.5 2 q-22 0 -39.5 -3t-30.5 -6.5t-24 -8.5q-7 -24 -12 -60.5t-8 -73t-3 -79.5v-53q0 -58 10 -98.5t28 -66t42 -37t52 -11.5q38 0 72.5 7t63 16.5t54.5 22.5v-94q-28 -17 -59.5 -29t-72 -21t-90.5 -9q-68 0 -126.5 20.5t-101.5 58.5t-67.5 92.5t-24.5 123.5z" />
<glyph unicode="&#xaa;" horiz-adv-x="1188" d="M256.5 913q-6.5 38 0.5 95l13 94q8 56 32 105.5t64.5 87t97.5 59t131 21.5q39 0 79 -6t75 -14.5t71 -18.5l-60 -428l74 -9l-13 -78l-198 -11l-41 39l9 70q-7 -9 -23.5 -27.5t-43 -36.5t-63 -31.5t-81.5 -13.5q-32 0 -58 9.5t-42.5 32.5t-23 61zM426.5 976 q-0.5 -29 3.5 -45t12.5 -21.5t20.5 -5.5q24 0 47.5 18t43.5 41.5t34.5 46.5t20.5 33l34 248q-8 2 -25.5 4.5t-40.5 2.5q-18 0 -35 -3t-28 -6.5t-21 -7.5q-10 -18 -19 -41t-17.5 -55.5t-13.5 -67.5l-9 -65q-7 -47 -7.5 -76z" />
<glyph unicode="&#xab;" horiz-adv-x="1135" d="M90 536l9 60l474 421h175l-3 -22l-359 -419l-3 -20l241 -419l-3 -22h-175zM574 548l5 36l341 389h175l-3 -22l-221 -385l112 -385l-3 -22h-175z" />
<glyph unicode="&#xac;" horiz-adv-x="1223" d="M150 610v187h923v-492h-197v305h-726z" />
<glyph unicode="&#xad;" horiz-adv-x="899" d="M130 496l30 189l629 41l-30 -189z" />
<glyph unicode="&#xae;" horiz-adv-x="1377" d="M120 949q0 127 48.5 239t131.5 195t195 131t239 48t239 -48t195 -131t131 -195t48 -239t-48 -239t-131 -195t-195 -131.5t-239 -48.5q-85 0 -163.5 22t-146.5 62t-124 96t-96 124t-62 146.5t-22 163.5zM297 949q0 -91 34 -170.5t93.5 -139t139 -93.5t170.5 -34 q90 0 169.5 34t139 93.5t93.5 139t34 170.5q0 90 -34 169.5t-93.5 139t-139 93.5t-169.5 34q-91 0 -170.5 -34t-139 -93.5t-93.5 -139t-34 -169.5zM424 700l70 15v464l-70 17l9 65h321q116 0 177.5 -42t61.5 -136q0 -66 -24.5 -105t-59.5 -66v-6l76 -195l60 -11l-9 -65h-196 l-95 261h-59v-181l70 -15l-9 -65h-314zM686 990h26q34 0 54 3q11 2 19 4q3 12 7 26l4 27q3 15 3 32q0 36 -22 60.5t-75 24.5h-16v-177z" />
<glyph unicode="&#xaf;" horiz-adv-x="1090" d="M150 1333l40 150h750l-40 -150h-750z" />
<glyph unicode="&#xb0;" horiz-adv-x="624" d="M90 1305q0 53 21 100t57 82t84.5 55t104.5 20q55 0 104 -20t85 -55t57 -82t21 -100t-21 -100t-57 -82t-85 -55t-104 -20q-56 0 -104.5 20t-84.5 55t-57 82t-21 100zM245 1305q0 -58 32 -88t80 -30t80 30t32 88t-32 88t-80 30t-80 -30t-32 -88z" />
<glyph unicode="&#xb1;" horiz-adv-x="1073" d="M150 600v187h298v318h187v-318h298v-187h-298v-318h-187v318h-298zM177 0v187h733v-187h-733z" />
<glyph unicode="&#xb2;" horiz-adv-x="581" d="M-20 1085l12 82q80 70 148 130.5t119 112.5t82 96.5t36 82.5q7 50 -15.5 69.5t-58.5 19.5q-20 0 -38.5 -3.5t-32.5 -8.5q-17 -5 -32 -12l-43 -110l-95 5l24 166q34 16 75 28q35 11 82.5 20t101.5 9q52 0 94.5 -10.5t71 -31.5t41.5 -52.5t7 -74.5q-6 -45 -35.5 -93 t-74.5 -98t-101.5 -101.5t-117.5 -105.5l1 -5h148l56 106l91 -11l-41 -210h-505z" />
<glyph unicode="&#xb3;" horiz-adv-x="548" d="M-19 1114l24 175l94 6l11 -106q14 -7 30 -11q14 -4 31.5 -7t37.5 -3q42 0 75.5 26.5t40.5 78.5q5 33 0 56.5t-18 37.5t-32 20.5t-42 6.5h-54l14 94h56q42 0 66 26.5t31 76.5q7 46 -13.5 66t-56.5 20q-17 0 -32.5 -2.5t-27.5 -5.5q-14 -4 -27 -8l-41 -106l-92 6l24 174 q34 10 72 18q32 7 74 13t87 6q118 0 172.5 -42.5t43.5 -119.5q-5 -36 -20.5 -62.5t-36 -46t-42.5 -32.5t-40 -22q25 -8 48 -21.5t39.5 -33t25 -45.5t3.5 -60q-8 -54 -34.5 -94t-68.5 -67t-96.5 -40t-117.5 -13q-40 0 -77.5 6t-66.5 14q-34 9 -64 21z" />
<glyph unicode="&#xb4;" horiz-adv-x="910" d="M200 1275l5 32l234 363l271 -10l-10 -66l-366 -329z" />
<glyph unicode="&#xb5;" horiz-adv-x="1327" d="M42 -457l197 1417l-131 20l20 105l331 22l78 -98l-92 -670q-10 -72 -11 -117.5t7 -71t24 -35t41 -9.5q27 0 59 17.5t64.5 45t63.5 61t57.5 64.5t45 56.5t26.5 37.5l80 572l-131 20l20 105l331 22l81 -78l-123 -877l158 -34l-37 -118q-27 -7 -58 -11q-26 -5 -59.5 -8 t-69.5 -3q-67 0 -109.5 24.5t-66.5 61t-32 79.5t-6 79q-8 -13 -25.5 -36t-42.5 -50t-57 -55t-69.5 -51t-80 -37.5t-87.5 -14.5q-54 0 -86 15.5t-53 42.5l-10 -10l46 -461z" />
<glyph unicode="&#xb6;" horiz-adv-x="1179" d="M108 908q16 112 65 196t123 139t169.5 82.5t203.5 27.5h624l6 -98l-157 -34l-153 -1093q-15 -104 -61 -184t-114.5 -135t-154.5 -83t-179 -28q-65 0 -117.5 7t-93 17t-73.5 23l16 112q29 -9 60.5 -15.5t71 -11t87.5 -4.5q53 0 95.5 16t75 52.5t54 95t33.5 143.5l154 1091 h-140l-104 -739h-65q-93 0 -177 24t-144.5 75t-90.5 131t-14 193z" />
<glyph unicode="&#xb7;" horiz-adv-x="722" d="M250 648q0 37 8.5 70t23.5 58.5t34.5 40.5t41.5 15q39 0 72.5 -8.5t58.5 -23.5t39 -35t14 -43q0 -36 -8.5 -69.5t-23.5 -59t-35 -40.5t-42 -15q-39 0 -72 8.5t-58 23.5t-39 35t-14 43z" />
<glyph unicode="&#xb8;" horiz-adv-x="872" d="M200 -410l13 93q26 -11 53 -19.5t59 -14.5t61 -6q22 0 39.5 2t29.5 5q4 6 7 12.5t6 16.5t5 24q3 24 -1 41.5t-18 30.5t-39 22.5t-63 16.5l-26 64l80 159h142l-72 -142q49 -9 87 -22.5t63 -34.5t35.5 -51t4.5 -71q-6 -39 -27 -71t-55.5 -54.5t-81.5 -35t-104 -12.5 q-42 0 -79 7t-66.5 17t-52.5 23z" />
<glyph unicode="&#xb9;" horiz-adv-x="446" d="M3 1085l1 79l104 17l66 467h-113l3 57l190 57h116l-82 -581l99 -17l-21 -79h-363z" />
<glyph unicode="&#xba;" horiz-adv-x="724" d="M95 941q-8 42 0 95l7 46q11 73 41 128t73.5 91.5t97.5 55t114 18.5t105 -12.5t73.5 -39.5t40 -71t3.5 -107l-6 -48q-8 -61 -35.5 -113.5t-70.5 -91t-99 -60.5t-120 -22q-69 0 -115.5 15.5t-73.5 44.5t-35 71zM263.5 972q3.5 -29 14.5 -47.5t27.5 -26.5t36.5 -8q17 0 31 2 t25 5.5t21 7.5q10 20 19 44.5t18 56t15 72.5l8 59q6 47 3 77.5t-13.5 48.5t-27 25t-36.5 7q-15 0 -27.5 -2.5t-22.5 -5.5t-18 -6q-14 -23 -25 -48.5t-21 -58t-16 -72.5l-9 -59q-6 -42 -2.5 -71z" />
<glyph unicode="&#xbb;" horiz-adv-x="1135" d="M40 159l3 22l222 385l-113 385l3 22h185l221 -389l-5 -36l-331 -389h-185zM387 115l3 22l359 419l3 20l-241 419l3 22h185l346 -421l-9 -60l-464 -421h-185z" />
<glyph unicode="&#xbc;" horiz-adv-x="1555" d="M140 0l3 20l1167 1333h145l-3 -20l-1167 -1333h-145zM155 676l1 79l104 17l66 467h-113l3 57l190 57h116l-82 -581l99 -17l-21 -79h-363zM859 244l340 433h157l-333 -411h114l15 108h180l-15 -108h86l1 -80l-101 -17l-10 -73l94 -17l-21 -79h-372l1 79l118 17l11 75h-263 z" />
<glyph unicode="&#xbd;" horiz-adv-x="1591" d="M140 0l3 20l1167 1333h145l-3 -20l-1167 -1333h-145zM155 676l1 79l104 17l66 467h-113l3 57l190 57h116l-82 -581l99 -17l-21 -79h-363zM910 0l12 82q80 70 148 130.5t119 112.5t82 96.5t36 82.5q7 50 -15.5 69.5t-58.5 19.5q-20 0 -38.5 -3.5t-32.5 -8.5 q-17 -5 -32 -12l-43 -110l-95 5l24 166q34 16 75 28q35 11 82.5 20t101.5 9q52 0 94.5 -10.5t71 -31.5t41.5 -52.5t7 -74.5q-6 -45 -35.5 -93t-74.5 -98t-101.5 -101.5t-117.5 -105.5l1 -5h148l56 106l91 -11l-41 -210h-505z" />
<glyph unicode="&#xbe;" horiz-adv-x="1585" d="M140 717l24 175l94 6l11 -106q14 -7 30 -11q14 -4 31.5 -7t37.5 -3q42 0 75.5 26.5t40.5 78.5q5 33 0 56.5t-18 37.5t-32 20.5t-42 6.5h-54l14 94h56q42 0 66 26.5t31 76.5q7 46 -13.5 66t-56.5 20q-17 0 -32.5 -2.5t-27.5 -5.5q-14 -4 -27 -8l-41 -106l-92 6l24 174 q34 10 72 18q32 7 74 13t87 6q118 0 172.5 -42.5t43.5 -119.5q-5 -36 -20.5 -62.5t-36 -46t-42.5 -32.5t-40 -22q25 -8 48 -21.5t39.5 -33t25 -45.5t3.5 -60q-8 -54 -34.5 -94t-68.5 -67t-96.5 -40t-117.5 -13q-40 0 -77.5 6t-66.5 14q-34 9 -64 21zM170 0l3 20l1167 1333 h145l-3 -20l-1167 -1333h-145zM889 244l340 433h157l-333 -411h114l15 108h180l-15 -108h86l1 -80l-101 -17l-10 -73l94 -17l-21 -79h-372l1 79l118 17l11 75h-263z" />
<glyph unicode="&#xbf;" horiz-adv-x="1031" d="M-41 -177q7 55 28 101.5t60 94t98.5 100t144.5 120.5l182 146q46 37 65 66t23 65q3 36 -17.5 54.5t-55.5 18.5q-18 0 -39.5 -5t-42 -11.5t-42.5 -14.5l17 101q30 14 65 24t78.5 18t95.5 8q60 0 105.5 -13t75.5 -38.5t43 -62.5t7 -85q-5 -39 -21 -73t-44.5 -69.5 t-71.5 -74.5t-103 -87l-206 -168q-41 -33 -68.5 -60t-45.5 -51t-27.5 -47.5t-12.5 -49.5q-5 -34 2.5 -64t28.5 -53t56 -36.5t86 -13.5q40 0 72.5 4t57 9.5t45.5 13.5l104 230l150 -17l-42 -277q-58 -24 -123 -41t-147.5 -29.5t-179.5 -12.5q-101 0 -180 16.5t-131.5 51 t-76 87.5t-13.5 125zM526 903q0 40 9.5 77t26 65.5t38.5 45t48 16.5q43 0 80 -9.5t64.5 -26t43.5 -38.5t16 -47q0 -41 -9.5 -78.5t-26 -66t-38.5 -45t-47 -16.5q-43 0 -80.5 10t-65 26.5t-43.5 39t-16 47.5z" />
<glyph unicode="&#xc0;" horiz-adv-x="1277" d="M-92 105l110 20l613 1228h239l257 -1229l106 -19l-17 -105h-517l-8 105l137 19l-54 272h-437l-133 -273l133 -18l-17 -105h-404zM395 515h355l-98 492h-16zM357 1708l9 66l283 10l219 -281l-5 -32l-146 -11z" />
<glyph unicode="&#xc1;" horiz-adv-x="1277" d="M-92 105l110 20l613 1228h239l257 -1229l106 -19l-17 -105h-517l-8 105l137 19l-54 272h-437l-133 -273l133 -18l-17 -105h-404zM395 515h355l-98 492h-16zM620 1471v32l278 281l282 -10v-66l-415 -248z" />
<glyph unicode="&#xc2;" horiz-adv-x="1277" d="M-92 105l110 20l613 1228h239l257 -1229l106 -19l-17 -105h-517l-8 105l137 19l-54 272h-437l-133 -273l133 -18l-17 -105h-404zM395 515h355l-98 492h-16zM394 1470l5 32l303 292l222 -10l213 -282l-5 -32l-156 -10l-197 185l-262 -185z" />
<glyph unicode="&#xc3;" horiz-adv-x="1277" d="M-92 105l110 20l613 1228h239l257 -1229l106 -19l-17 -105h-517l-8 105l137 19l-54 272h-437l-133 -273l133 -18l-17 -105h-404zM395 515h355l-98 492h-16zM275 1473l7 50q18 127 94 190.5t191 63.5q67 0 133 -20.5t125 -45.5t108.5 -45.5t85.5 -20.5q47 0 78.5 29.5 t41.5 90.5l118 10l-10 -72q-17 -119 -88 -186.5t-186 -67.5q-39 0 -82.5 10t-88 24.5t-88 31.5t-82.5 31.5t-71.5 24.5t-55.5 10q-24 0 -44 -4t-35.5 -15t-26 -30t-14.5 -49z" />
<glyph unicode="&#xc4;" horiz-adv-x="1277" d="M-92 105l110 20l613 1228h239l257 -1229l106 -19l-17 -105h-517l-8 105l137 19l-54 272h-437l-133 -273l133 -18l-17 -105h-404zM395 515h355l-98 492h-16zM368 1577q0 31 8.5 58.5t23 48t34 32.5t40.5 12q31 0 58.5 -8.5t47.5 -23t31.5 -34.5t11.5 -42q0 -30 -8.5 -57 t-22.5 -48t-33.5 -33t-40.5 -12q-32 0 -59 8.5t-47.5 23.5t-32 34.5t-11.5 40.5zM910 1577q0 31 8.5 58.5t22.5 48t33.5 32.5t40.5 12q31 0 58.5 -8.5t48 -23t32 -34.5t11.5 -42q0 -30 -8.5 -57t-23 -48t-34 -33t-41.5 -12q-32 0 -59 8.5t-46.5 23.5t-31 34.5t-11.5 40.5z " />
<glyph unicode="&#xc5;" horiz-adv-x="1277" d="M-92 105l110 20l613 1228h239l257 -1229l106 -19l-17 -105h-517l-8 105l137 19l-54 272h-437l-133 -273l133 -18l-17 -105h-404zM395 515h355l-98 492h-16zM545 1570q8 58 33.5 101t62 71.5t82 42.5t93.5 14q44 0 82.5 -9.5t65.5 -29.5t40 -51t7 -75q-9 -61 -33 -104.5 t-60 -71.5t-81.5 -41t-95.5 -13q-46 0 -84.5 9.5t-65.5 30t-39.5 51.5t-6.5 75zM705 1602q-7 -56 11 -85.5t53 -29.5q14 0 25 1t20 3t16 5q4 12 8 27.5t8 35t7 43.5q8 56 -11 85.5t-54 29.5q-11 0 -20 -1.5t-16.5 -3.5t-14.5 -4q-7 -12 -12.5 -27t-11 -34t-8.5 -45z" />
<glyph unicode="&#xc6;" horiz-adv-x="1836" d="M-100 105l120 20l813 1228h973l-19 -320h-146l-40 201h-386l-66 -467h297l40 127l103 -20l-56 -355l-107 -5v134h-294l-74 -529h408l105 203l140 -13l-66 -309h-1012l-5 105l130 20l40 281h-398l-185 -285l114 -16l-17 -105h-404zM478 525h337l93 661z" />
<glyph unicode="&#xc7;" horiz-adv-x="1218" d="M58 515l12 89q53 381 249.5 576t518.5 195q114 0 213.5 -17.5t156.5 -41.5l-17 -290h-168l-46 210q-32 10 -79.5 15t-87.5 5q-78 0 -150.5 -19.5t-122.5 -48.5q-52 -115 -89.5 -243.5t-56.5 -261.5l-18 -133q-30 -220 55.5 -336.5t266.5 -116.5q93 0 197.5 29t194.5 75 l-15 -96q-101 -58 -227 -93q-97 -26 -193 -32l-43 -85q49 -9 87 -22.5t63 -34.5t35.5 -51t4.5 -71q-6 -39 -27 -71t-55.5 -54.5t-81.5 -35t-104 -12.5q-42 0 -79 7t-66.5 17t-52.5 23l13 93q26 -11 53 -19.5t59 -14.5t61 -6q22 0 39.5 2t29.5 5q4 6 7 12.5t6 16.5t5 24 q3 24 -1 41.5t-18 30.5t-39 22.5t-63 16.5l-26 64l51 103q-242 17 -356 134q-132 137 -96 400z" />
<glyph unicode="&#xc8;" horiz-adv-x="1246" d="M-2 105l130 20l156 1103l-131 20l20 105h1043l-19 -320h-166l-40 201h-406l-66 -467h317l40 127l103 -20l-56 -355l-107 -5v134h-314l-74 -529h428l105 203l160 -13l-66 -309h-1052zM350 1708l9 66l283 10l219 -281l-5 -32l-146 -11z" />
<glyph unicode="&#xc9;" horiz-adv-x="1246" d="M-2 105l130 20l156 1103l-131 20l20 105h1043l-19 -320h-166l-40 201h-406l-66 -467h317l40 127l103 -20l-56 -355l-107 -5v134h-314l-74 -529h428l105 203l160 -13l-66 -309h-1052zM613 1471v32l278 281l282 -10v-66l-415 -248z" />
<glyph unicode="&#xca;" horiz-adv-x="1246" d="M-2 105l130 20l156 1103l-131 20l20 105h1043l-19 -320h-166l-40 201h-406l-66 -467h317l40 127l103 -20l-56 -355l-107 -5v134h-314l-74 -529h428l105 203l160 -13l-66 -309h-1052zM387 1470l5 32l303 292l222 -10l213 -282l-5 -32l-156 -10l-197 185l-262 -185z" />
<glyph unicode="&#xcb;" horiz-adv-x="1246" d="M-2 105l130 20l156 1103l-131 20l20 105h1043l-19 -320h-166l-40 201h-406l-66 -467h317l40 127l103 -20l-56 -355l-107 -5v134h-314l-74 -529h428l105 203l160 -13l-66 -309h-1052zM361 1577q0 31 8.5 58.5t23 48t34 32.5t40.5 12q31 0 58.5 -8.5t47.5 -23t31.5 -34.5 t11.5 -42q0 -30 -8.5 -57t-22.5 -48t-33.5 -33t-40.5 -12q-32 0 -59 8.5t-47.5 23.5t-32 34.5t-11.5 40.5zM903 1577q0 31 8.5 58.5t22.5 48t33.5 32.5t40.5 12q31 0 58.5 -8.5t48 -23t32 -34.5t11.5 -42q0 -30 -8.5 -57t-23 -48t-34 -33t-41.5 -12q-32 0 -59 8.5 t-46.5 23.5t-31 34.5t-11.5 40.5z" />
<glyph unicode="&#xcc;" horiz-adv-x="705" d="M-4 105l130 20l156 1103l-131 20l20 105h537l5 -105l-131 -20l-156 -1103l132 -20l-20 -105h-537zM61 1708l9 66l283 10l219 -281l-5 -32l-146 -11z" />
<glyph unicode="&#xcd;" horiz-adv-x="705" d="M-4 105l130 20l156 1103l-131 20l20 105h537l5 -105l-131 -20l-156 -1103l132 -20l-20 -105h-537zM324 1471v32l278 281l282 -10v-66l-415 -248z" />
<glyph unicode="&#xce;" horiz-adv-x="705" d="M-4 105l130 20l156 1103l-131 20l20 105h537l5 -105l-131 -20l-156 -1103l132 -20l-20 -105h-537zM98 1470l5 32l303 292l222 -10l213 -282l-5 -32l-156 -10l-197 185l-262 -185z" />
<glyph unicode="&#xcf;" horiz-adv-x="705" d="M-4 105l130 20l156 1103l-131 20l20 105h537l5 -105l-131 -20l-156 -1103l132 -20l-20 -105h-537zM72 1577q0 31 8.5 58.5t23 48t34 32.5t40.5 12q31 0 58.5 -8.5t47.5 -23t31.5 -34.5t11.5 -42q0 -30 -8.5 -57t-22.5 -48t-33.5 -33t-40.5 -12q-32 0 -59 8.5t-47.5 23.5 t-32 34.5t-11.5 40.5zM614 1577q0 31 8.5 58.5t22.5 48t33.5 32.5t40.5 12q31 0 58.5 -8.5t48 -23t32 -34.5t11.5 -42q0 -30 -8.5 -57t-23 -48t-34 -33t-41.5 -12q-32 0 -59 8.5t-46.5 23.5t-31 34.5t-11.5 40.5z" />
<glyph unicode="&#xd0;" horiz-adv-x="1438" d="M0 105l130 20l73 515h-167l15 110h167l68 478l-131 20l20 105h596q340 0 482 -153.5t99 -457.5l-12 -88q-44 -313 -231.5 -483.5t-480.5 -170.5h-623zM430 119h163q72 0 140.5 9t123.5 30q57 75 107.5 196t71.5 268l13 94q37 265 -42.5 391.5t-282.5 126.5h-137l-68 -484 h188l-15 -110h-189z" />
<glyph unicode="&#xd1;" horiz-adv-x="1549" d="M-8 105l130 20l156 1103l-131 20l20 105h503l444 -1118h16l139 993l-131 20l20 105h428l5 -105l-131 -20l-173 -1228h-373l-445 1120h-16l-141 -995l132 -20l-20 -105h-427zM440 1473l7 50q18 127 94 190.5t191 63.5q67 0 133 -20.5t125 -45.5t108.5 -45.5t85.5 -20.5 q47 0 78.5 29.5t41.5 90.5l118 10l-10 -72q-17 -119 -88 -186.5t-186 -67.5q-39 0 -82.5 10t-88 24.5t-88 31.5t-82.5 31.5t-71.5 24.5t-55.5 10q-24 0 -44 -4t-35.5 -15t-26 -30t-14.5 -49z" />
<glyph unicode="&#xd2;" horiz-adv-x="1430" d="M89 525l11 79q52 378 242 574.5t519 196.5q307 -1 439 -139q102 -107 102 -292q0 -55 -9 -117l-11 -78q-53 -379 -245.5 -575t-510.5 -196q-315 0 -445 137q-101 106 -101 293q0 55 9 117zM396 570q-8 -62 -8 -117q0 -141 54 -231q76 -124 226 -125q68 0 137 16t121 43 q39 86 80.5 219.5t61.5 274.5l18 133q11 76 11 140q-1 136 -49 216q-70 117 -238 117q-67 0 -135 -17t-118 -41q-45 -99 -84 -229t-59 -266zM449 1708l9 66l283 10l219 -281l-5 -32l-146 -11z" />
<glyph unicode="&#xd3;" horiz-adv-x="1430" d="M89 525l11 79q52 378 242 574.5t519 196.5q307 -1 439 -139q102 -107 102 -292q0 -55 -9 -117l-11 -78q-53 -379 -245.5 -575t-510.5 -196q-315 0 -445 137q-101 106 -101 293q0 55 9 117zM396 570q-8 -62 -8 -117q0 -141 54 -231q76 -124 226 -125q68 0 137 16t121 43 q39 86 80.5 219.5t61.5 274.5l18 133q11 76 11 140q-1 136 -49 216q-70 117 -238 117q-67 0 -135 -17t-118 -41q-45 -99 -84 -229t-59 -266zM712 1471v32l278 281l282 -10v-66l-415 -248z" />
<glyph unicode="&#xd4;" horiz-adv-x="1430" d="M89 525l11 79q52 378 242 574.5t519 196.5q307 -1 439 -139q102 -107 102 -292q0 -55 -9 -117l-11 -78q-53 -379 -245.5 -575t-510.5 -196q-315 0 -445 137q-101 106 -101 293q0 55 9 117zM396 570q-8 -62 -8 -117q0 -141 54 -231q76 -124 226 -125q68 0 137 16t121 43 q39 86 80.5 219.5t61.5 274.5l18 133q11 76 11 140q-1 136 -49 216q-70 117 -238 117q-67 0 -135 -17t-118 -41q-45 -99 -84 -229t-59 -266zM486 1470l5 32l303 292l222 -10l213 -282l-5 -32l-156 -10l-197 185l-262 -185z" />
<glyph unicode="&#xd5;" horiz-adv-x="1430" d="M89 525l11 79q52 378 242 574.5t519 196.5q307 -1 439 -139q102 -107 102 -292q0 -55 -9 -117l-11 -78q-53 -379 -245.5 -575t-510.5 -196q-315 0 -445 137q-101 106 -101 293q0 55 9 117zM396 570q-8 -62 -8 -117q0 -141 54 -231q76 -124 226 -125q68 0 137 16t121 43 q39 86 80.5 219.5t61.5 274.5l18 133q11 76 11 140q-1 136 -49 216q-70 117 -238 117q-67 0 -135 -17t-118 -41q-45 -99 -84 -229t-59 -266zM367 1473l7 50q18 127 94 190.5t191 63.5q67 0 133 -20.5t125 -45.5t108.5 -45.5t85.5 -20.5q47 0 78.5 29.5t41.5 90.5l118 10 l-10 -72q-17 -119 -88 -186.5t-186 -67.5q-39 0 -82.5 10t-88 24.5t-88 31.5t-82.5 31.5t-71.5 24.5t-55.5 10q-24 0 -44 -4t-35.5 -15t-26 -30t-14.5 -49z" />
<glyph unicode="&#xd6;" horiz-adv-x="1430" d="M89 525l11 79q52 378 242 574.5t519 196.5q307 -1 439 -139q102 -107 102 -292q0 -55 -9 -117l-11 -78q-53 -379 -245.5 -575t-510.5 -196q-315 0 -445 137q-101 106 -101 293q0 55 9 117zM396 570q-8 -62 -8 -117q0 -141 54 -231q76 -124 226 -125q68 0 137 16t121 43 q39 86 80.5 219.5t61.5 274.5l18 133q11 76 11 140q-1 136 -49 216q-70 117 -238 117q-67 0 -135 -17t-118 -41q-45 -99 -84 -229t-59 -266zM460 1577q0 31 8.5 58.5t23 48t34 32.5t40.5 12q31 0 58.5 -8.5t47.5 -23t31.5 -34.5t11.5 -42q0 -30 -8.5 -57t-22.5 -48 t-33.5 -33t-40.5 -12q-32 0 -59 8.5t-47.5 23.5t-32 34.5t-11.5 40.5zM1002 1577q0 31 8.5 58.5t22.5 48t33.5 32.5t40.5 12q31 0 58.5 -8.5t48 -23t32 -34.5t11.5 -42q0 -30 -8.5 -57t-23 -48t-34 -33t-41.5 -12q-32 0 -59 8.5t-46.5 23.5t-31 34.5t-11.5 40.5z" />
<glyph unicode="&#xd7;" horiz-adv-x="1039" d="M140 353l240 240l-240 241l144 144l240 -241l241 241l144 -144l-241 -241l241 -240l-144 -144l-241 240l-240 -240z" />
<glyph unicode="&#xd8;" horiz-adv-x="1430" d="M63 525l11 79q52 377 241 574t520 197q60 0 114 -6l77 171h135l-2 -20l-79 -175q347 -96 287 -518l-11 -78q-53 -378 -245 -574.5t-511 -196.5q-37 0 -70.5 2t-65.5 6l-78 -174h-134l2 20l81 179q-170 51 -235.5 178.5t-36.5 335.5zM369 356q16 -89 55 -147l467 1032 q-50 15 -107 15q-54 0 -100 -9t-83 -21t-70 -28q-31 -68 -56 -141.5t-49 -163t-38 -190.5l-18 -133q-17 -125 -1 -214zM526 121q52 -24 116 -24q57 0 103.5 9t84 21t70.5 29q31 69 56 143.5t48.5 163.5t37.5 187l18 133q19 144 2 238t-62 148z" />
<glyph unicode="&#xd9;" horiz-adv-x="1452" d="M130 1248l20 105h537l5 -105l-131 -20l-95 -682q-11 -76 -11 -139q1 -119 39 -195q58 -116 213 -115q84 0 156.5 21t118.5 55q26 50 54.5 143.5t44.5 204.5l99 707l-131 20l20 105h428l5 -105l-131 -20l-99 -710q-38 -274 -191 -407t-446 -133q-283 0 -398 126 q-88 96 -88 271q0 54 9 116l103 737zM489 1708l9 66l283 10l219 -281l-5 -32l-146 -11z" />
<glyph unicode="&#xda;" horiz-adv-x="1452" d="M130 1248l20 105h537l5 -105l-131 -20l-95 -682q-11 -76 -11 -139q1 -119 39 -195q58 -116 213 -115q84 0 156.5 21t118.5 55q26 50 54.5 143.5t44.5 204.5l99 707l-131 20l20 105h428l5 -105l-131 -20l-99 -710q-38 -274 -191 -407t-446 -133q-283 0 -398 126 q-88 96 -88 271q0 54 9 116l103 737zM752 1471v32l278 281l282 -10v-66l-415 -248z" />
<glyph unicode="&#xdb;" horiz-adv-x="1452" d="M130 1248l20 105h537l5 -105l-131 -20l-95 -682q-11 -76 -11 -139q1 -119 39 -195q58 -116 213 -115q84 0 156.5 21t118.5 55q26 50 54.5 143.5t44.5 204.5l99 707l-131 20l20 105h428l5 -105l-131 -20l-99 -710q-38 -274 -191 -407t-446 -133q-283 0 -398 126 q-88 96 -88 271q0 54 9 116l103 737zM526 1470l5 32l303 292l222 -10l213 -282l-5 -32l-156 -10l-197 185l-262 -185z" />
<glyph unicode="&#xdc;" horiz-adv-x="1452" d="M130 1248l20 105h537l5 -105l-131 -20l-95 -682q-11 -76 -11 -139q1 -119 39 -195q58 -116 213 -115q84 0 156.5 21t118.5 55q26 50 54.5 143.5t44.5 204.5l99 707l-131 20l20 105h428l5 -105l-131 -20l-99 -710q-38 -274 -191 -407t-446 -133q-283 0 -398 126 q-88 96 -88 271q0 54 9 116l103 737zM500 1577q0 31 8.5 58.5t23 48t34 32.5t40.5 12q31 0 58.5 -8.5t47.5 -23t31.5 -34.5t11.5 -42q0 -30 -8.5 -57t-22.5 -48t-33.5 -33t-40.5 -12q-32 0 -59 8.5t-47.5 23.5t-32 34.5t-11.5 40.5zM1042 1577q0 31 8.5 58.5t22.5 48 t33.5 32.5t40.5 12q31 0 58.5 -8.5t48 -23t32 -34.5t11.5 -42q0 -30 -8.5 -57t-23 -48t-34 -33t-41.5 -12q-32 0 -59 8.5t-46.5 23.5t-31 34.5t-11.5 40.5z" />
<glyph unicode="&#xdd;" horiz-adv-x="1162" d="M28 1248l14 105h481l11 -105l-105 -15l229 -463h16l345 464l-100 14l14 105h396l11 -105l-122 -24l-455 -607l-70 -492l132 -20l-20 -105h-537l-5 105l130 20l65 461l-320 640zM604 1471v32l278 281l282 -10v-66l-415 -248z" />
<glyph unicode="&#xde;" horiz-adv-x="1179" d="M-6 105l130 20l156 1103l-131 20l20 105h537l5 -105l-131 -20l-20 -143h121q121 0 211.5 -20t148.5 -63t81 -111t10 -164q-13 -94 -60 -166.5t-116 -122t-155 -75t-177 -25.5h-170l-30 -213l182 -20l-20 -105h-587zM471 457h89q43 0 77 2.5t58 6.5q28 4 50 9q17 30 33 65 q13 30 26 71t20 89q19 139 -36 202.5t-189 63.5h-56z" />
<glyph unicode="&#xdf;" horiz-adv-x="1296" d="M-280 -410l45 131q42 -15 84.5 -25.5t90 -18t94.5 -7.5q18 23 34.5 57t32 82.5t26.5 116.5l148 1055h-189l14 104h190l9 64q16 95 55 171.5t103 130t153.5 82.5t206.5 29q94 0 172 -19.5t131 -58.5t76.5 -98.5t10.5 -140.5q-12 -73 -38.5 -133.5t-62 -111t-79 -93.5 t-90.5 -80l132 -142q37 -42 72 -88t60.5 -95.5t37.5 -103t3 -110.5q-11 -70 -45.5 -127t-89 -97.5t-128 -63t-161.5 -22.5q-64 0 -117.5 10t-96 23t-79.5 32l32 256h133l24 -199q12 -3 27 -5.5t32.5 -4.5t38.5 -2q20 0 36 2t28 5t23 7q9 14 16.5 30.5t14.5 38t12 48.5 q7 39 0 77t-28.5 80t-58 91t-88.5 110l-92 112l19 119q52 52 90 100t64.5 96.5t42.5 100t22 110.5q7 66 1 111t-23 73t-44 40.5t-62 12.5q-26 0 -47 -3t-37.5 -6.5t-30.5 -8.5q-16 -33 -29 -70t-25.5 -83t-20.5 -100l-175 -1228q-19 -121 -56.5 -200.5t-90.5 -126 t-119.5 -65t-144.5 -18.5q-65 0 -118 7t-94.5 17t-76.5 23z" />
<glyph unicode="&#xe0;" horiz-adv-x="1244" d="M77 373l26 188q37 252 195 399t391 147q94 0 211.5 -21.5t221.5 -56.5l-126 -904l132 -20l-20 -105l-330 -22l-81 78l23 169q-82 -116 -181 -181.5t-198 -65.5q-160 0 -226 96q-46 68 -46 188q0 51 8 111zM366 200q10 -94 82 -94q51 0 130.5 79.5t164.5 207.5l82 589 q-27 8 -69 14.5t-88 6.5q-37 0 -77.5 -8t-79.5 -22q-40 -75 -69 -175t-44 -206l-18 -131q-17 -118 -17 -199q0 -34 3 -62zM389 1594l10 66l286 10l132 -363l-5 -32l-149 -10z" />
<glyph unicode="&#xe1;" horiz-adv-x="1244" d="M77 373l26 188q37 252 195 399t391 147q94 0 211.5 -21.5t221.5 -56.5l-126 -904l132 -20l-20 -105l-330 -22l-81 78l23 169q-82 -116 -181 -181.5t-198 -65.5q-160 0 -226 96q-46 68 -46 188q0 51 8 111zM366 200q10 -94 82 -94q51 0 130.5 79.5t164.5 207.5l82 589 q-27 8 -69 14.5t-88 6.5q-37 0 -77.5 -8t-79.5 -22q-40 -75 -69 -175t-44 -206l-18 -131q-17 -118 -17 -199q0 -34 3 -62zM670 1275l5 32l234 363l271 -10l-10 -66l-366 -329z" />
<glyph unicode="&#xe2;" horiz-adv-x="1244" d="M77 373l26 188q37 252 195 399t391 147q94 0 211.5 -21.5t221.5 -56.5l-126 -904l132 -20l-20 -105l-330 -22l-81 78l23 169q-82 -116 -181 -181.5t-198 -65.5q-160 0 -226 96q-46 68 -46 188q0 51 8 111zM366 200q10 -94 82 -94q51 0 130.5 79.5t164.5 207.5l82 589 q-27 8 -69 14.5t-88 6.5q-37 0 -77.5 -8t-79.5 -22q-40 -75 -69 -175t-44 -206l-18 -131q-17 -118 -17 -199q0 -34 3 -62zM379 1275l4 32l286 373l221 -10l182 -363l-4 -32l-157 -10l-170 247l-239 -247z" />
<glyph unicode="&#xe3;" horiz-adv-x="1244" d="M77 373l26 188q37 252 195 399t391 147q94 0 211.5 -21.5t221.5 -56.5l-126 -904l132 -20l-20 -105l-330 -22l-81 78l23 169q-82 -116 -181 -181.5t-198 -65.5q-160 0 -226 96q-46 68 -46 188q0 51 8 111zM366 200q10 -94 82 -94q51 0 130.5 79.5t164.5 207.5l82 589 q-27 8 -69 14.5t-88 6.5q-37 0 -77.5 -8t-79.5 -22q-40 -75 -69 -175t-44 -206l-18 -131q-17 -118 -17 -199q0 -34 3 -62zM308 1257l7 50q18 127 88.5 190.5t177.5 63.5q58 0 115 -20.5t108 -45.5t94.5 -45.5t74.5 -20.5q38 0 64 29.5t36 90.5l118 10l-10 -72 q-17 -119 -82.5 -186.5t-171.5 -67.5q-52 0 -111 20.5t-115 45.5t-104 45.5t-78 20.5q-40 0 -66 -19t-35 -79z" />
<glyph unicode="&#xe4;" horiz-adv-x="1244" d="M77 373l26 188q37 252 195 399t391 147q94 0 211.5 -21.5t221.5 -56.5l-126 -904l132 -20l-20 -105l-330 -22l-81 78l23 169q-82 -116 -181 -181.5t-198 -65.5q-160 0 -226 96q-46 68 -46 188q0 51 8 111zM366 200q10 -94 82 -94q51 0 130.5 79.5t164.5 207.5l82 589 q-27 8 -69 14.5t-88 6.5q-37 0 -77.5 -8t-79.5 -22q-40 -75 -69 -175t-44 -206l-18 -131q-17 -118 -17 -199q0 -34 3 -62zM370 1389q0 31 8.5 58.5t23 48t34 32.5t40.5 12q31 0 58.5 -8.5t47.5 -23.5t31.5 -34.5t11.5 -41.5q0 -30 -8.5 -57t-22.5 -48t-33.5 -33t-40.5 -12 q-32 0 -59 8.5t-47.5 23.5t-32 34.5t-11.5 40.5zM850 1389q0 31 8.5 58.5t22.5 48t33.5 32.5t40.5 12q31 0 58.5 -8.5t48 -23.5t32 -34.5t11.5 -41.5q0 -30 -8.5 -57t-23 -48t-34 -33t-41.5 -12q-32 0 -59 8.5t-46.5 23.5t-31 34.5t-11.5 40.5z" />
<glyph unicode="&#xe5;" horiz-adv-x="1244" d="M77 373l26 188q37 252 195 399t391 147q94 0 211.5 -21.5t221.5 -56.5l-126 -904l132 -20l-20 -105l-330 -22l-81 78l23 169q-82 -116 -181 -181.5t-198 -65.5q-160 0 -226 96q-46 68 -46 188q0 51 8 111zM366 200q10 -94 82 -94q51 0 130.5 79.5t164.5 207.5l82 589 q-27 8 -69 14.5t-88 6.5q-37 0 -77.5 -8t-79.5 -22q-40 -75 -69 -175t-44 -206l-18 -131q-17 -118 -17 -199q0 -34 3 -62zM531 1436q9 61 34.5 106t62.5 74.5t82.5 44t93.5 14.5q44 0 82 -10t65 -31t39.5 -54.5t6.5 -79.5q-9 -64 -34 -109.5t-61 -74.5t-81.5 -42.5 t-95.5 -13.5q-46 0 -84.5 10t-65 31.5t-38.5 55t-6 79.5zM691 1468q-8 -60 10.5 -92.5t56.5 -32.5q11 0 21.5 1t19 3t16.5 5q5 14 9 30.5t7.5 38t7.5 47.5q8 60 -10.5 92.5t-55.5 32.5q-11 0 -19.5 -1.5t-16 -3.5t-13.5 -4q-7 -13 -12.5 -29t-11 -37t-9.5 -50z" />
<glyph unicode="&#xe6;" horiz-adv-x="1605" d="M14 244q11 79 56.5 144.5t129.5 113t209 74t296 26.5l14 100q12 84 2.5 140.5t-34 91t-61.5 49t-81 14.5q-29 0 -58 -2.5t-54 -6t-51 -6.5l-90 -232h-127l40 303q49 15 105 26t125.5 19.5t150.5 8.5q123 0 207.5 -27.5t129.5 -89.5q71 59 156 88t180 29q85 0 150 -18 t106 -55.5t57.5 -95t5.5 -136.5q-9 -69 -48.5 -128t-101.5 -101.5t-144 -66.5t-178 -24q-57 0 -102 2.5t-74 5.5l-7 -47q-13 -93 0 -160t45.5 -110.5t80.5 -64t104 -20.5q53 0 105 14t97 32t90 44v-106q-42 -27 -93 -46t-117 -33.5t-150 -14.5q-145 0 -235.5 46.5 t-134.5 130.5q-23 -21 -62.5 -51t-93 -58t-120.5 -48t-145 -20q-70 0 -126 17t-93.5 50.5t-53.5 83.5t-7 115zM307 263q-11 -92 15 -133.5t86 -41.5q39 0 84 20.5t85.5 46.5t70 49.5t37.5 30.5q-19 86 -4 194l9 63q-90 -1 -151.5 -9t-104 -18.5t-71.5 -26.5 q-13 -21 -23.5 -46t-19 -57.5t-13.5 -71.5zM945 592q16 -1 38 -2t46 -2t49.5 -1.5t49.5 -0.5q25 0 46 2.5t37.5 6t29.5 8.5q11 22 22 50q9 24 19 58.5t16 79.5q8 60 6.5 100t-13 63.5t-32.5 33t-51 9.5q-23 0 -43 -5t-37 -10.5t-33 -13.5q-32 -45 -58.5 -98t-51.5 -122 t-40 -156z" />
<glyph unicode="&#xe7;" horiz-adv-x="965" d="M72 429l13 93q40 280 205 432.5t396 152.5q84 0 164 -14t135 -38l-56 -257l-126 -10v195q-34 7 -70 10.5t-69 3.5q-34 0 -74.5 -8t-84.5 -27q-45 -83 -76.5 -184t-48.5 -216l-16 -119q-25 -170 10.5 -262.5t183.5 -92.5q65 0 142 25t145 65v-106q-80 -46 -178 -70 q-56 -13 -112 -19l-44 -88q49 -9 87 -22.5t63 -34.5t35.5 -51t4.5 -71q-6 -39 -27 -71t-55.5 -54.5t-81.5 -35t-104 -12.5q-42 0 -79 7t-66.5 17t-52.5 23l13 93q26 -11 53 -19.5t59 -14.5t61 -6q22 0 39.5 2t29.5 5q4 6 7 12.5t6 16.5t5 24q3 24 -1 41.5t-18 30.5t-39 22.5 t-63 16.5l-26 64l51 102q-186 13 -273 110q-100 112 -67 339z" />
<glyph unicode="&#xe8;" d="M74 429l13 93q40 277 194.5 431t382.5 154q186 0 274 -70q73 -58 72 -165q0 -23 -3 -48q-23 -161 -152.5 -251.5t-335.5 -90.5q-40 0 -79 3.5t-67 8.5l-7 -51q-9 -61 -8 -112q0 -93 28 -152q46 -91 179 -91q61 0 140 23t163 67v-106q-81 -45 -183 -69.5t-207 -24.5 q-240 0 -338 114q-74 87 -73 236q0 47 7 101zM388 596q37 -4 76 -7t70 -3q29 0 55 3.5t45 9.5q28 41 48.5 92t29.5 111q5 39 5 70q0 52 -14 80q-23 46 -88 45q-29 0 -58.5 -7t-58.5 -22q-34 -75 -62.5 -169.5t-47.5 -202.5zM352 1594l10 66l286 10l132 -363l-5 -32l-149 -10 z" />
<glyph unicode="&#xe9;" d="M74 429l13 93q40 277 194.5 431t382.5 154q186 0 274 -70q73 -58 72 -165q0 -23 -3 -48q-23 -161 -152.5 -251.5t-335.5 -90.5q-40 0 -79 3.5t-67 8.5l-7 -51q-9 -61 -8 -112q0 -93 28 -152q46 -91 179 -91q61 0 140 23t163 67v-106q-81 -45 -183 -69.5t-207 -24.5 q-240 0 -338 114q-74 87 -73 236q0 47 7 101zM388 596q37 -4 76 -7t70 -3q29 0 55 3.5t45 9.5q28 41 48.5 92t29.5 111q5 39 5 70q0 52 -14 80q-23 46 -88 45q-29 0 -58.5 -7t-58.5 -22q-34 -75 -62.5 -169.5t-47.5 -202.5zM633 1275l5 32l234 363l271 -10l-10 -66 l-366 -329z" />
<glyph unicode="&#xea;" d="M74 429l13 93q40 277 194.5 431t382.5 154q186 0 274 -70q73 -58 72 -165q0 -23 -3 -48q-23 -161 -152.5 -251.5t-335.5 -90.5q-40 0 -79 3.5t-67 8.5l-7 -51q-9 -61 -8 -112q0 -93 28 -152q46 -91 179 -91q61 0 140 23t163 67v-106q-81 -45 -183 -69.5t-207 -24.5 q-240 0 -338 114q-74 87 -73 236q0 47 7 101zM388 596q37 -4 76 -7t70 -3q29 0 55 3.5t45 9.5q28 41 48.5 92t29.5 111q5 39 5 70q0 52 -14 80q-23 46 -88 45q-29 0 -58.5 -7t-58.5 -22q-34 -75 -62.5 -169.5t-47.5 -202.5zM342 1275l4 32l286 373l221 -10l182 -363l-4 -32 l-157 -10l-170 247l-239 -247z" />
<glyph unicode="&#xeb;" d="M74 429l13 93q40 277 194.5 431t382.5 154q186 0 274 -70q73 -58 72 -165q0 -23 -3 -48q-23 -161 -152.5 -251.5t-335.5 -90.5q-40 0 -79 3.5t-67 8.5l-7 -51q-9 -61 -8 -112q0 -93 28 -152q46 -91 179 -91q61 0 140 23t163 67v-106q-81 -45 -183 -69.5t-207 -24.5 q-240 0 -338 114q-74 87 -73 236q0 47 7 101zM388 596q37 -4 76 -7t70 -3q29 0 55 3.5t45 9.5q28 41 48.5 92t29.5 111q5 39 5 70q0 52 -14 80q-23 46 -88 45q-29 0 -58.5 -7t-58.5 -22q-34 -75 -62.5 -169.5t-47.5 -202.5zM333 1389q0 31 8.5 58.5t23 48t34 32.5t40.5 12 q31 0 58.5 -8.5t47.5 -23.5t31.5 -34.5t11.5 -41.5q0 -30 -8.5 -57t-22.5 -48t-33.5 -33t-40.5 -12q-32 0 -59 8.5t-47.5 23.5t-32 34.5t-11.5 40.5zM813 1389q0 31 8.5 58.5t22.5 48t33.5 32.5t40.5 12q31 0 58.5 -8.5t48 -23.5t32 -34.5t11.5 -41.5q0 -30 -8.5 -57 t-23 -48t-34 -33t-41.5 -12q-32 0 -59 8.5t-46.5 23.5t-31 34.5t-11.5 40.5z" />
<glyph unicode="&#xec;" horiz-adv-x="704" d="M136 980l20 105l331 22l81 -78l-126 -904l131 -20l-20 -105l-330 -22l-81 78l125 904zM52 1594l10 66l286 10l132 -363l-5 -32l-149 -10z" />
<glyph unicode="&#xed;" horiz-adv-x="704" d="M136 980l20 105l331 22l81 -78l-126 -904l131 -20l-20 -105l-330 -22l-81 78l125 904zM332 1275l5 32l234 363l271 -10l-10 -66l-366 -329z" />
<glyph unicode="&#xee;" horiz-adv-x="704" d="M136 980l20 105l331 22l81 -78l-126 -904l131 -20l-20 -105l-330 -22l-81 78l125 904zM42 1275l4 32l286 373l221 -10l182 -363l-4 -32l-157 -10l-170 247l-239 -247z" />
<glyph unicode="&#xef;" horiz-adv-x="704" d="M136 980l20 105l331 22l81 -78l-126 -904l131 -20l-20 -105l-330 -22l-81 78l125 904zM33 1389q0 31 8.5 58.5t23 48t34 32.5t40.5 12q31 0 58.5 -8.5t47.5 -23.5t31.5 -34.5t11.5 -41.5q0 -30 -8.5 -57t-22.5 -48t-33.5 -33t-40.5 -12q-32 0 -59 8.5t-47.5 23.5 t-32 34.5t-11.5 40.5zM513 1389q0 31 8.5 58.5t22.5 48t33.5 32.5t40.5 12q31 0 58.5 -8.5t48 -23.5t32 -34.5t11.5 -41.5q0 -30 -8.5 -57t-23 -48t-34 -33t-41.5 -12q-32 0 -59 8.5t-46.5 23.5t-31 34.5t-11.5 40.5z" />
<glyph unicode="&#xf0;" horiz-adv-x="1169" d="M69.5 239q-14.5 84 1.5 190l14 93q22 145 77.5 255t136 183t180 110t209.5 37q24 0 47.5 -3.5t43 -8t39.5 -10.5q-16 60 -44.5 112.5t-67.5 100.5l-276 -123l-33 104l231 102q-45 42 -94.5 78.5t-101.5 70.5l142 32q113 -47 205 -113l250 111l33 -103l-191 -85 q74 -71 124.5 -154t78.5 -175t34.5 -192t-7.5 -204l-13 -95q-17 -121 -69 -226t-132.5 -182t-184.5 -121.5t-224 -44.5q-125 0 -210.5 30.5t-134.5 88.5t-63.5 142zM356 274q7 -68 29 -109.5t56 -59t74 -17.5q28 0 54 4.5t48 10.5t42 15q28 44 52 99t46.5 128t35.5 168 l16 119q15 110 9 180.5t-27.5 111.5t-56.5 57t-78 16q-28 0 -53 -5t-46.5 -10.5t-41.5 -13.5q-28 -49 -52 -107t-47 -132.5t-36 -166.5l-17 -119q-14 -101 -7 -169z" />
<glyph unicode="&#xf1;" horiz-adv-x="1362" d="M132 0l132 960l-131 20l20 105l331 22l81 -78l-24 -170q94 118 204.5 183t218.5 65q147 0 201 -71q39 -51 39 -141q0 -35 -6 -76l-95 -694l131 -20l-20 -105l-330 -22l-81 78l93 675q13 91 13 148q0 24 -2 41q-8 59 -52 59q-55 0 -141.5 -71.5t-195.5 -215.5l-100 -714z M401 1257l7 50q18 127 88.5 190.5t177.5 63.5q58 0 115 -20.5t108 -45.5t94.5 -45.5t74.5 -20.5q38 0 64 29.5t36 90.5l118 10l-10 -72q-17 -119 -82.5 -186.5t-171.5 -67.5q-52 0 -111 20.5t-115 45.5t-104 45.5t-78 20.5q-40 0 -66 -19t-35 -79z" />
<glyph unicode="&#xf2;" horiz-adv-x="1167" d="M70 429l13 93q41 279 207.5 432t403.5 153q239 0 338 -114q75 -86 75 -240q0 -50 -8 -106l-13 -95q-38 -258 -210 -416t-400 -158q-234 0 -336 110q-78 84 -78 238q0 48 8 103zM361 443q-9 -67 -9 -121q0 -91 26 -146q40 -88 130 -88q37 0 76.5 8t72.5 22q49 76 84 180.5 t50 214.5l16 119q11 76 11 136q0 81 -20 135q-34 94 -136 94q-36 0 -75 -7.5t-74 -21.5q-50 -88 -84.5 -193t-50.5 -213zM401 1594l10 66l286 10l132 -363l-5 -32l-149 -10z" />
<glyph unicode="&#xf3;" horiz-adv-x="1167" d="M70 429l13 93q41 279 207.5 432t403.5 153q239 0 338 -114q75 -86 75 -240q0 -50 -8 -106l-13 -95q-38 -258 -210 -416t-400 -158q-234 0 -336 110q-78 84 -78 238q0 48 8 103zM361 443q-9 -67 -9 -121q0 -91 26 -146q40 -88 130 -88q37 0 76.5 8t72.5 22q49 76 84 180.5 t50 214.5l16 119q11 76 11 136q0 81 -20 135q-34 94 -136 94q-36 0 -75 -7.5t-74 -21.5q-50 -88 -84.5 -193t-50.5 -213zM682 1275l5 32l234 363l271 -10l-10 -66l-366 -329z" />
<glyph unicode="&#xf4;" horiz-adv-x="1167" d="M70 429l13 93q41 279 207.5 432t403.5 153q239 0 338 -114q75 -86 75 -240q0 -50 -8 -106l-13 -95q-38 -258 -210 -416t-400 -158q-234 0 -336 110q-78 84 -78 238q0 48 8 103zM361 443q-9 -67 -9 -121q0 -91 26 -146q40 -88 130 -88q37 0 76.5 8t72.5 22q49 76 84 180.5 t50 214.5l16 119q11 76 11 136q0 81 -20 135q-34 94 -136 94q-36 0 -75 -7.5t-74 -21.5q-50 -88 -84.5 -193t-50.5 -213zM391 1275l4 32l286 373l221 -10l182 -363l-4 -32l-157 -10l-170 247l-239 -247z" />
<glyph unicode="&#xf5;" horiz-adv-x="1167" d="M70 429l13 93q41 279 207.5 432t403.5 153q239 0 338 -114q75 -86 75 -240q0 -50 -8 -106l-13 -95q-38 -258 -210 -416t-400 -158q-234 0 -336 110q-78 84 -78 238q0 48 8 103zM361 443q-9 -67 -9 -121q0 -91 26 -146q40 -88 130 -88q37 0 76.5 8t72.5 22q49 76 84 180.5 t50 214.5l16 119q11 76 11 136q0 81 -20 135q-34 94 -136 94q-36 0 -75 -7.5t-74 -21.5q-50 -88 -84.5 -193t-50.5 -213zM320 1257l7 50q18 127 88.5 190.5t177.5 63.5q58 0 115 -20.5t108 -45.5t94.5 -45.5t74.5 -20.5q38 0 64 29.5t36 90.5l118 10l-10 -72 q-17 -119 -82.5 -186.5t-171.5 -67.5q-52 0 -111 20.5t-115 45.5t-104 45.5t-78 20.5q-40 0 -66 -19t-35 -79z" />
<glyph unicode="&#xf6;" horiz-adv-x="1167" d="M70 429l13 93q41 279 207.5 432t403.5 153q239 0 338 -114q75 -86 75 -240q0 -50 -8 -106l-13 -95q-38 -258 -210 -416t-400 -158q-234 0 -336 110q-78 84 -78 238q0 48 8 103zM361 443q-9 -67 -9 -121q0 -91 26 -146q40 -88 130 -88q37 0 76.5 8t72.5 22q49 76 84 180.5 t50 214.5l16 119q11 76 11 136q0 81 -20 135q-34 94 -136 94q-36 0 -75 -7.5t-74 -21.5q-50 -88 -84.5 -193t-50.5 -213zM382 1389q0 31 8.5 58.5t23 48t34 32.5t40.5 12q31 0 58.5 -8.5t47.5 -23.5t31.5 -34.5t11.5 -41.5q0 -30 -8.5 -57t-22.5 -48t-33.5 -33t-40.5 -12 q-32 0 -59 8.5t-47.5 23.5t-32 34.5t-11.5 40.5zM862 1389q0 31 8.5 58.5t22.5 48t33.5 32.5t40.5 12q31 0 58.5 -8.5t48 -23.5t32 -34.5t11.5 -41.5q0 -30 -8.5 -57t-23 -48t-34 -33t-41.5 -12q-32 0 -59 8.5t-46.5 23.5t-31 34.5t-11.5 40.5z" />
<glyph unicode="&#xf7;" horiz-adv-x="1183" d="M150 500v187h893v-187h-893zM475 176q0 33 7.5 63.5t20.5 53t31 36t38 13.5q35 0 65 -8t52.5 -21.5t35 -32t12.5 -38.5q0 -32 -7.5 -61.5t-21 -52t-31.5 -36t-39 -13.5q-34 0 -64 7.5t-52 20.5t-34.5 31t-12.5 38zM475 941q0 33 8 63.5t21 53t30.5 36t37.5 13.5 q35 0 65 -8t52.5 -21.5t35 -31.5t12.5 -39q0 -32 -8 -61.5t-21.5 -52t-31.5 -36t-38 -13.5q-34 0 -64 7.5t-52 21t-34.5 31t-12.5 37.5z" />
<glyph unicode="&#xf8;" horiz-adv-x="1167" d="M70 429l13 93q20 146 76 255.5t137.5 183t183 110t214.5 36.5q17 0 32.5 -0.5t30.5 -1.5l73 160h135l-2 -20l-74 -164q61 -19 106.5 -54t72.5 -88.5t35.5 -125.5t-4.5 -166l-13 -95q-17 -121 -69 -226t-132.5 -182t-184.5 -121.5t-224 -44.5q-23 0 -44 1t-41 3l-77 -170 h-134l2 20l80 178q-125 46 -170 153.5t-22 265.5zM351 320q1 -53 9 -93l346 765q-23 5 -44 5q-32 0 -59 -5t-49 -10.5t-41 -13.5q-28 -49 -52 -107t-47 -132.5t-36 -166.5l-17 -119q-11 -70 -10 -123zM445 101q14 -7 30 -10t33 -3q31 0 58.5 4.5t49.5 10.5t41 15 q28 44 52 99t46.5 128t35.5 168l16 119q12 90 10 153t-15 105z" />
<glyph unicode="&#xf9;" horiz-adv-x="1344" d="M124 980l20 105l331 22l78 -98l-92 -670q-11 -79 -11 -131q0 -26 3 -45q8 -57 60 -57q64 0 149 73.5t177 210.5l79 570l-131 20l20 105l331 22l81 -78l-126 -904l131 -20l-20 -105l-330 -22l-81 78l23 167q-88 -114 -202 -179.5t-233 -65.5q-137 0 -189 72 q-37 51 -37 139q0 36 6 77l95 694zM397 1594l10 66l286 10l132 -363l-5 -32l-149 -10z" />
<glyph unicode="&#xfa;" horiz-adv-x="1344" d="M124 980l20 105l331 22l78 -98l-92 -670q-11 -79 -11 -131q0 -26 3 -45q8 -57 60 -57q64 0 149 73.5t177 210.5l79 570l-131 20l20 105l331 22l81 -78l-126 -904l131 -20l-20 -105l-330 -22l-81 78l23 167q-88 -114 -202 -179.5t-233 -65.5q-137 0 -189 72 q-37 51 -37 139q0 36 6 77l95 694zM678 1275l5 32l234 363l271 -10l-10 -66l-366 -329z" />
<glyph unicode="&#xfb;" horiz-adv-x="1344" d="M124 980l20 105l331 22l78 -98l-92 -670q-11 -79 -11 -131q0 -26 3 -45q8 -57 60 -57q64 0 149 73.5t177 210.5l79 570l-131 20l20 105l331 22l81 -78l-126 -904l131 -20l-20 -105l-330 -22l-81 78l23 167q-88 -114 -202 -179.5t-233 -65.5q-137 0 -189 72 q-37 51 -37 139q0 36 6 77l95 694zM387 1275l4 32l286 373l221 -10l182 -363l-4 -32l-157 -10l-170 247l-239 -247z" />
<glyph unicode="&#xfc;" horiz-adv-x="1344" d="M124 980l20 105l331 22l78 -98l-92 -670q-11 -79 -11 -131q0 -26 3 -45q8 -57 60 -57q64 0 149 73.5t177 210.5l79 570l-131 20l20 105l331 22l81 -78l-126 -904l131 -20l-20 -105l-330 -22l-81 78l23 167q-88 -114 -202 -179.5t-233 -65.5q-137 0 -189 72 q-37 51 -37 139q0 36 6 77l95 694zM378 1389q0 31 8.5 58.5t23 48t34 32.5t40.5 12q31 0 58.5 -8.5t47.5 -23.5t31.5 -34.5t11.5 -41.5q0 -30 -8.5 -57t-22.5 -48t-33.5 -33t-40.5 -12q-32 0 -59 8.5t-47.5 23.5t-32 34.5t-11.5 40.5zM858 1389q0 31 8.5 58.5t22.5 48 t33.5 32.5t40.5 12q31 0 58.5 -8.5t48 -23.5t32 -34.5t11.5 -41.5q0 -30 -8.5 -57t-23 -48t-34 -33t-41.5 -12q-32 0 -59 8.5t-46.5 23.5t-31 34.5t-11.5 40.5z" />
<glyph unicode="&#xfd;" horiz-adv-x="1283" d="M86 -367l42 180q150 -62 281.5 -96t222.5 -34q54 46 99.5 148t68.5 258l18 134q-78 -110 -191 -177.5t-236 -67.5q-143 0 -196 72q-38 51 -38 140q0 35 6 76l95 694l-132 20l20 105l331 22l81 -78l-95 -695q-12 -86 -12 -138q0 -20 2 -35q6 -55 56 -55q55 0 140 72.5 t193 212.5l79 569l-132 20l20 105l331 22l81 -78l-126 -900q-44 -276 -201.5 -431t-371.5 -155q-102 0 -216.5 23.5t-219.5 66.5zM680 1275l5 32l234 363l271 -10l-10 -66l-366 -329z" />
<glyph unicode="&#xfe;" horiz-adv-x="1216" d="M-86 -330l130 20l241 1725l-132 20l21 105l330 22l81 -78l-88 -624q8 11 25 33.5t42.5 50t59 56.5t74 53t87 39t98.5 15q78 0 133.5 -21t88 -67.5t42 -122t-5.5 -184.5l-26 -188q-15 -113 -60.5 -212t-119 -173.5t-173.5 -117.5t-226 -43q-41 0 -81 3.5t-79 9.5l-42 -301 l132 -20l-20 -105h-527zM391 95q4 -1 17.5 -3t34.5 -4.5t48.5 -4t57.5 -1.5q35 0 64.5 4.5t54 10.5t46.5 15q21 45 39.5 99t37 124t30.5 158l18 131q15 108 17 177t-6.5 108.5t-27 54.5t-43.5 15q-34 0 -68.5 -19.5t-67 -49.5t-62 -65.5t-52 -68t-37 -56.5t-18.5 -30z" />
<glyph unicode="&#xff;" horiz-adv-x="1283" d="M86 -367l42 180q150 -62 281.5 -96t222.5 -34q54 46 99.5 148t68.5 258l18 134q-78 -110 -191 -177.5t-236 -67.5q-143 0 -196 72q-38 51 -38 140q0 35 6 76l95 694l-132 20l20 105l331 22l81 -78l-95 -695q-12 -86 -12 -138q0 -20 2 -35q6 -55 56 -55q55 0 140 72.5 t193 212.5l79 569l-132 20l20 105l331 22l81 -78l-126 -900q-44 -276 -201.5 -431t-371.5 -155q-102 0 -216.5 23.5t-219.5 66.5zM380 1389q0 31 8.5 58.5t23 48t34 32.5t40.5 12q31 0 58.5 -8.5t47.5 -23.5t31.5 -34.5t11.5 -41.5q0 -30 -8.5 -57t-22.5 -48t-33.5 -33 t-40.5 -12q-32 0 -59 8.5t-47.5 23.5t-32 34.5t-11.5 40.5zM860 1389q0 31 8.5 58.5t22.5 48t33.5 32.5t40.5 12q31 0 58.5 -8.5t48 -23.5t32 -34.5t11.5 -41.5q0 -30 -8.5 -57t-23 -48t-34 -33t-41.5 -12q-32 0 -59 8.5t-46.5 23.5t-31 34.5t-11.5 40.5z" />
<glyph unicode="&#x100;" horiz-adv-x="1277" d="M-92 105l110 20l613 1228h239l257 -1229l106 -19l-17 -105h-517l-8 105l137 19l-54 272h-437l-133 -273l133 -18l-17 -105h-404zM395 515h355l-98 492h-16zM360 1530l19 150h810l-19 -150h-810z" />
<glyph unicode="&#x101;" horiz-adv-x="1244" d="M77 373l26 188q37 252 195 399t391 147q94 0 211.5 -21.5t221.5 -56.5l-126 -904l132 -20l-20 -105l-330 -22l-81 78l23 169q-82 -116 -181 -181.5t-198 -65.5q-160 0 -226 96q-46 68 -46 188q0 51 8 111zM366 200q10 -94 82 -94q51 0 130.5 79.5t164.5 207.5l82 589 q-27 8 -69 14.5t-88 6.5q-37 0 -77.5 -8t-79.5 -22q-40 -75 -69 -175t-44 -206l-18 -131q-17 -118 -17 -199q0 -34 3 -62zM365 1333l40 150h750l-40 -150h-750z" />
<glyph unicode="&#x102;" horiz-adv-x="1277" d="M-92 105l110 20l613 1228h239l257 -1229l106 -19l-17 -105h-517l-8 105l137 19l-54 272h-437l-133 -273l133 -18l-17 -105h-404zM395 515h355l-98 492h-16zM452 1749l108 10q-2 -12 4.5 -34.5t30.5 -44t70.5 -37.5t124.5 -16t128.5 16t81 37.5t43.5 44t15 34.5l105 -10 q-6 -47 -35 -98.5t-79 -94.5t-121 -71t-162 -28t-153.5 28t-100.5 71t-52 94.5t-8 98.5z" />
<glyph unicode="&#x103;" horiz-adv-x="1244" d="M77 373l26 188q37 252 195 399t391 147q94 0 211.5 -21.5t221.5 -56.5l-126 -904l132 -20l-20 -105l-330 -22l-81 78l23 169q-82 -116 -181 -181.5t-198 -65.5q-160 0 -226 96q-46 68 -46 188q0 51 8 111zM366 200q10 -94 82 -94q51 0 130.5 79.5t164.5 207.5l82 589 q-27 8 -69 14.5t-88 6.5q-37 0 -77.5 -8t-79.5 -22q-40 -75 -69 -175t-44 -206l-18 -131q-17 -118 -17 -199q0 -34 3 -62zM442 1592l108 10q-3 -18 4.5 -45t30 -52t62 -42.5t100.5 -17.5t105 17.5t73.5 42.5t44.5 52t18 45l106 -10q-8 -59 -37.5 -117.5t-77.5 -105 t-113 -75.5t-144 -29t-136 29t-91.5 75.5t-47.5 105t-5 117.5z" />
<glyph unicode="&#x104;" horiz-adv-x="1277" d="M-92 105l110 20l613 1228h239l257 -1229l106 -19l-17 -105h-363q-92 -67 -149.5 -138t-67.5 -136q-6 -41 6.5 -57t42.5 -16q23 0 52 12.5t57.5 29t60.5 38.5l-16 -103q-32 -25 -68.5 -43t-82 -31t-100.5 -13q-40 0 -70.5 7t-49.5 23t-26.5 43t-2.5 68q7 57 41 114 t86.5 111.5t120 105.5t143.5 98l-56 283h-437l-133 -273l133 -18l-17 -105h-404zM395 515h355l-98 492h-16z" />
<glyph unicode="&#x105;" horiz-adv-x="1244" d="M73 193.5q-11 74.5 4 179.5l26 188q15 112 60.5 211.5t120 174t176 117.5t229.5 43q80 0 157 -12.5t144 -28.5t132 -37l-126 -904l132 -20l-20 -105q-92 -67 -149.5 -138t-67.5 -136q-6 -41 6.5 -57t42.5 -16q23 0 52 12.5t57.5 29t60.5 38.5l-16 -103q-32 -25 -68.5 -43 t-82 -31t-100.5 -13q-40 0 -70.5 7t-49.5 23t-26.5 43t-2.5 68q11 84 77 159t168 146l-161 -11l-81 78l23 169q-7 -10 -24 -32.5t-42.5 -50t-59 -56.5t-73 -53t-85 -39.5t-95.5 -15.5q-77 0 -133.5 22.5t-90 70.5t-44.5 122.5zM363 286q-2 -69 7 -109t28.5 -55.5t49.5 -15.5 q26 0 56.5 19t61.5 48.5t61 64.5t54 67t40.5 56t21.5 32l82 589q-16 5 -58.5 13t-98.5 8q-31 0 -59 -5t-52 -11t-46 -14q-23 -42 -42.5 -94.5t-38.5 -123t-32 -163.5l-18 -131q-15 -106 -17 -175z" />
<glyph unicode="&#x106;" horiz-adv-x="1218" d="M58 515l12 89q53 381 249.5 576t518.5 195q114 0 213.5 -17.5t156.5 -41.5l-17 -290h-168l-46 210q-32 10 -79.5 15t-87.5 5q-78 0 -150.5 -19.5t-122.5 -48.5q-52 -115 -89.5 -243.5t-56.5 -261.5l-18 -133q-8 -57 -8 -107q-1 -143 63 -229q86 -116 267 -117 q93 0 197.5 29t194.5 75l-15 -96q-101 -58 -226.5 -92.5t-250.5 -34.5q-309 0 -441 137q-104 108 -104 293q0 51 8 107zM737 1471v32l278 281l282 -10v-66l-415 -248z" />
<glyph unicode="&#x107;" horiz-adv-x="965" d="M72 429l13 93q40 280 205 432.5t396 152.5q84 0 164 -14t135 -38l-56 -257l-126 -10v195q-34 7 -70 10.5t-69 3.5q-34 0 -74.5 -8t-84.5 -27q-45 -83 -76.5 -184t-48.5 -216l-16 -119q-10 -70 -10 -127q0 -82 20 -136q36 -92 184 -92q65 0 142 25t145 65v-106 q-80 -46 -178 -70t-196 -24q-232 0 -332 112q-75 84 -75 233q0 50 8 106zM639 1275l5 32l234 363l271 -10l-10 -66l-366 -329z" />
<glyph unicode="&#x108;" horiz-adv-x="1218" d="M58 515l12 89q53 381 249.5 576t518.5 195q114 0 213.5 -17.5t156.5 -41.5l-17 -290h-168l-46 210q-32 10 -79.5 15t-87.5 5q-78 0 -150.5 -19.5t-122.5 -48.5q-52 -115 -89.5 -243.5t-56.5 -261.5l-18 -133q-8 -57 -8 -107q-1 -143 63 -229q86 -116 267 -117 q93 0 197.5 29t194.5 75l-15 -96q-101 -58 -226.5 -92.5t-250.5 -34.5q-309 0 -441 137q-104 108 -104 293q0 51 8 107zM511 1470l5 32l303 292l222 -10l213 -282l-5 -32l-156 -10l-197 185l-262 -185z" />
<glyph unicode="&#x109;" horiz-adv-x="965" d="M72 429l13 93q40 280 205 432.5t396 152.5q84 0 164 -14t135 -38l-56 -257l-126 -10v195q-34 7 -70 10.5t-69 3.5q-34 0 -74.5 -8t-84.5 -27q-45 -83 -76.5 -184t-48.5 -216l-16 -119q-10 -70 -10 -127q0 -82 20 -136q36 -92 184 -92q65 0 142 25t145 65v-106 q-80 -46 -178 -70t-196 -24q-232 0 -332 112q-75 84 -75 233q0 50 8 106zM348 1275l4 32l286 373l221 -10l182 -363l-4 -32l-157 -10l-170 247l-239 -247z" />
<glyph unicode="&#x10a;" horiz-adv-x="1218" d="M58 515l12 89q53 381 249.5 576t518.5 195q114 0 213.5 -17.5t156.5 -41.5l-17 -290h-168l-46 210q-32 10 -79.5 15t-87.5 5q-78 0 -150.5 -19.5t-122.5 -48.5q-52 -115 -89.5 -243.5t-56.5 -261.5l-18 -133q-8 -57 -8 -107q-1 -143 63 -229q86 -116 267 -117 q93 0 197.5 29t194.5 75l-15 -96q-101 -58 -226.5 -92.5t-250.5 -34.5q-309 0 -441 137q-104 108 -104 293q0 51 8 107zM776 1584q0 34 9.5 64t25.5 53t37.5 36.5t45.5 13.5q34 0 64.5 -9.5t53 -25.5t35.5 -37.5t13 -46.5q0 -33 -9.5 -63.5t-25.5 -53t-37.5 -36t-45.5 -13.5 q-35 0 -65 9.5t-52.5 25.5t-35.5 37.5t-13 45.5z" />
<glyph unicode="&#x10b;" horiz-adv-x="965" d="M72 429l13 93q40 280 205 432.5t396 152.5q84 0 164 -14t135 -38l-56 -257l-126 -10v195q-34 7 -70 10.5t-69 3.5q-34 0 -74.5 -8t-84.5 -27q-45 -83 -76.5 -184t-48.5 -216l-16 -119q-10 -70 -10 -127q0 -82 20 -136q36 -92 184 -92q65 0 142 25t145 65v-106 q-80 -46 -178 -70t-196 -24q-232 0 -332 112q-75 84 -75 233q0 50 8 106zM588 1395q0 34 9.5 64t25.5 53t37.5 36.5t45.5 13.5q34 0 64.5 -9.5t53 -25.5t35.5 -37.5t13 -46.5q0 -33 -9.5 -63.5t-25.5 -53t-37.5 -36t-45.5 -13.5q-35 0 -65 9.5t-52.5 25.5t-35.5 37.5 t-13 45.5z" />
<glyph unicode="&#x10c;" horiz-adv-x="1218" d="M58 515l12 89q53 381 249.5 576t518.5 195q114 0 213.5 -17.5t156.5 -41.5l-17 -290h-168l-46 210q-32 10 -79.5 15t-87.5 5q-78 0 -150.5 -19.5t-122.5 -48.5q-52 -115 -89.5 -243.5t-56.5 -261.5l-18 -133q-8 -57 -8 -107q-1 -143 63 -229q86 -116 267 -117 q93 0 197.5 29t194.5 75l-15 -96q-101 -58 -226.5 -92.5t-250.5 -34.5q-309 0 -441 137q-104 108 -104 293q0 51 8 107zM542 1752l5 32l155 10l196 -185l263 185l124 -10l-5 -32l-304 -292l-222 10z" />
<glyph unicode="&#x10d;" horiz-adv-x="965" d="M72 429l13 93q40 280 205 432.5t396 152.5q84 0 164 -14t135 -38l-56 -257l-126 -10v195q-34 7 -70 10.5t-69 3.5q-34 0 -74.5 -8t-84.5 -27q-45 -83 -76.5 -184t-48.5 -216l-16 -119q-10 -70 -10 -127q0 -82 20 -136q36 -92 184 -92q65 0 142 25t145 65v-106 q-80 -46 -178 -70t-196 -24q-232 0 -332 112q-75 84 -75 233q0 50 8 106zM402 1628l4 32l157 10l169 -248l240 248l123 -10l-4 -32l-286 -373l-221 10z" />
<glyph unicode="&#x10e;" horiz-adv-x="1438" d="M0 105l130 20l156 1103l-131 20l20 105h596q340 1 482 -153q109 -118 109 -325q0 -63 -10 -133l-12 -88q-44 -313 -231.5 -483.5t-480.5 -170.5h-623zM430 119h163q72 0 140.5 9t123.5 30q57 75 107.5 196t71.5 268l13 94q12 84 12 154q-1 152 -55 238q-80 126 -282 126 h-137zM416 1752l5 32l155 10l196 -185l263 185l124 -10l-5 -32l-304 -292l-222 10z" />
<glyph unicode="&#x10f;" horiz-adv-x="1233" d="M74 373l26 188q38 256 197.5 401t390.5 145q35 0 72 -3t79 -9l44 320l-131 20l20 105l330 22l81 -78l-190 -1359l132 -20l-20 -105l-330 -22l-81 78l24 171q-83 -123 -181.5 -186t-198.5 -63q-154 0 -222 100q-50 72 -49 194q0 47 7 101zM366 186q16 -80 78 -80 q56 0 132 71t165 216l83 594q-25 6 -66.5 11t-88.5 5q-41 0 -84.5 -9t-77.5 -24q-38 -74 -67 -171t-45 -207l-18 -131q-16 -123 -16 -200q-1 -45 5 -75zM1254 1157l53 383h226l-5 -42l-111 -341h-163z" />
<glyph unicode="&#x110;" horiz-adv-x="1438" d="M0 105l130 20l73 515h-167l15 110h167l68 478l-131 20l20 105h596q340 0 482 -153.5t99 -457.5l-12 -88q-44 -313 -231.5 -483.5t-480.5 -170.5h-623zM430 119h163q72 0 140.5 9t123.5 30q57 75 107.5 196t71.5 268l13 94q37 265 -42.5 391.5t-282.5 126.5h-137l-68 -484 h188l-15 -110h-189z" />
<glyph unicode="&#x111;" horiz-adv-x="1233" d="M74 373l26 188q38 256 197.5 401t390.5 145q35 0 72 -3t79 -9l18 136h-319l14 107h320l11 77l-131 20l20 105l330 22l81 -78l-21 -146h113l-14 -107h-114l-154 -1106l132 -20l-20 -105l-330 -22l-81 78l24 171q-83 -123 -181.5 -186t-198.5 -63q-153 0 -221.5 99.5 t-42.5 295.5zM366.5 185.5q15.5 -79.5 77.5 -79.5q56 0 132 71t165 216l83 594q-25 6 -66.5 11t-88.5 5q-41 0 -84.5 -9t-77.5 -24q-38 -74 -67 -171t-45 -207l-18 -131q-26 -196 -10.5 -275.5z" />
<glyph unicode="&#x112;" horiz-adv-x="1246" d="M-2 105l130 20l156 1103l-131 20l20 105h1043l-19 -320h-166l-40 201h-406l-66 -467h317l40 127l103 -20l-56 -355l-107 -5v134h-314l-74 -529h428l105 203l160 -13l-66 -309h-1052zM353 1530l19 150h810l-19 -150h-810z" />
<glyph unicode="&#x113;" d="M74 429l13 93q40 277 194.5 431t382.5 154q186 0 274 -70q73 -58 72 -165q0 -23 -3 -48q-23 -161 -152.5 -251.5t-335.5 -90.5q-40 0 -79 3.5t-67 8.5l-7 -51q-9 -61 -8 -112q0 -93 28 -152q46 -91 179 -91q61 0 140 23t163 67v-106q-81 -45 -183 -69.5t-207 -24.5 q-240 0 -338 114q-74 87 -73 236q0 47 7 101zM388 596q37 -4 76 -7t70 -3q29 0 55 3.5t45 9.5q28 41 48.5 92t29.5 111q5 39 5 70q0 52 -14 80q-23 46 -88 45q-29 0 -58.5 -7t-58.5 -22q-34 -75 -62.5 -169.5t-47.5 -202.5zM328 1333l40 150h750l-40 -150h-750z" />
<glyph unicode="&#x114;" horiz-adv-x="1246" d="M-2 105l130 20l156 1103l-131 20l20 105h1043l-19 -320h-166l-40 201h-406l-66 -467h317l40 127l103 -20l-56 -355l-107 -5v134h-314l-74 -529h428l105 203l160 -13l-66 -309h-1052zM445 1749l108 10q-2 -12 4.5 -34.5t30.5 -44t70.5 -37.5t124.5 -16t128.5 16t81 37.5 t43.5 44t15 34.5l105 -10q-6 -47 -35 -98.5t-79 -94.5t-121 -71t-162 -28t-153.5 28t-100.5 71t-52 94.5t-8 98.5z" />
<glyph unicode="&#x115;" d="M74 429l13 93q40 277 194.5 431t382.5 154q186 0 274 -70q73 -58 72 -165q0 -23 -3 -48q-23 -161 -152.5 -251.5t-335.5 -90.5q-40 0 -79 3.5t-67 8.5l-7 -51q-9 -61 -8 -112q0 -93 28 -152q46 -91 179 -91q61 0 140 23t163 67v-106q-81 -45 -183 -69.5t-207 -24.5 q-240 0 -338 114q-74 87 -73 236q0 47 7 101zM388 596q37 -4 76 -7t70 -3q29 0 55 3.5t45 9.5q28 41 48.5 92t29.5 111q5 39 5 70q0 52 -14 80q-23 46 -88 45q-29 0 -58.5 -7t-58.5 -22q-34 -75 -62.5 -169.5t-47.5 -202.5zM405 1592l108 10q-3 -18 4.5 -45t30 -52t62 -42.5 t100.5 -17.5t105 17.5t73.5 42.5t44.5 52t18 45l106 -10q-8 -59 -37.5 -117.5t-77.5 -105t-113 -75.5t-144 -29t-136 29t-91.5 75.5t-47.5 105t-5 117.5z" />
<glyph unicode="&#x116;" horiz-adv-x="1246" d="M-2 105l130 20l156 1103l-131 20l20 105h1043l-19 -320h-166l-40 201h-406l-66 -467h317l40 127l103 -20l-56 -355l-107 -5v134h-314l-74 -529h428l105 203l160 -13l-66 -309h-1052zM652 1584q0 34 9.5 64t25.5 53t37.5 36.5t45.5 13.5q34 0 64.5 -9.5t53 -25.5 t35.5 -37.5t13 -46.5q0 -33 -9.5 -63.5t-25.5 -53t-37.5 -36t-45.5 -13.5q-35 0 -65 9.5t-52.5 25.5t-35.5 37.5t-13 45.5z" />
<glyph unicode="&#x117;" d="M74 429l13 93q40 277 194.5 431t382.5 154q186 0 274 -70q73 -58 72 -165q0 -23 -3 -48q-23 -161 -152.5 -251.5t-335.5 -90.5q-40 0 -79 3.5t-67 8.5l-7 -51q-9 -61 -8 -112q0 -93 28 -152q46 -91 179 -91q61 0 140 23t163 67v-106q-81 -45 -183 -69.5t-207 -24.5 q-240 0 -338 114q-74 87 -73 236q0 47 7 101zM388 596q37 -4 76 -7t70 -3q29 0 55 3.5t45 9.5q28 41 48.5 92t29.5 111q5 39 5 70q0 52 -14 80q-23 46 -88 45q-29 0 -58.5 -7t-58.5 -22q-34 -75 -62.5 -169.5t-47.5 -202.5zM582 1395q0 34 9.5 64t25.5 53t37.5 36.5 t45.5 13.5q34 0 64.5 -9.5t53 -25.5t35.5 -37.5t13 -46.5q0 -33 -9.5 -63.5t-25.5 -53t-37.5 -36t-45.5 -13.5q-35 0 -65 9.5t-52.5 25.5t-35.5 37.5t-13 45.5z" />
<glyph unicode="&#x118;" horiz-adv-x="1246" d="M-2 105l130 20l156 1103l-131 20l20 105h1043l-19 -320h-166l-40 201h-406l-66 -467h317l40 127l103 -20l-56 -355l-107 -5v134h-314l-74 -529h428l105 203l160 -13l-66 -309q-92 -67 -149.5 -138t-67.5 -136q-6 -41 6.5 -57t42.5 -16q22 0 51 12t57.5 28.5t61.5 39.5 l-16 -103q-33 -25 -69.5 -43t-82.5 -31t-99 -13q-40 0 -70.5 7t-49.5 23t-26.5 43t-2.5 68q8 59 44 118t91 115q42 42 93 83h-866z" />
<glyph unicode="&#x119;" d="M74 429l13 93q20 145 72.5 255t128.5 183t172 110t204 37q184 0 273 -70t70 -213q-12 -82 -51.5 -146t-103 -107.5t-148 -66t-185.5 -22.5q-45 0 -82.5 3.5t-63.5 8.5l-7 -51q-15 -105 -5.5 -174t37 -109t71 -56t96.5 -16t106.5 14t101 32t95.5 44v-106 q-94 -91 -150.5 -178t-66.5 -168q-6 -41 6.5 -57t42.5 -16q23 0 52 12.5t57.5 29t60.5 38.5l-16 -103q-32 -25 -68.5 -43t-82 -31t-100.5 -13q-40 0 -70.5 7t-49.5 23t-26.5 43t-2.5 68q10 82 60 158.5t127 150.5q-36 -7 -77 -11t-86 -4q-122 0 -206 29.5t-133 86.5 t-64.5 141t-0.5 194zM388 596q14 -2 32 -3.5t37.5 -3t39 -2.5t37.5 -1q24 0 42.5 2t32.5 4.5t25 6.5q18 24 33 56q13 27 25.5 64.5t19.5 82.5q15 106 -9.5 150.5t-87.5 44.5q-26 0 -47 -5t-38 -10.5t-32 -13.5q-20 -44 -38.5 -97t-38 -121.5t-33.5 -153.5z" />
<glyph unicode="&#x11a;" horiz-adv-x="1246" d="M-2 105l130 20l156 1103l-131 20l20 105h1043l-19 -320h-166l-40 201h-406l-66 -467h317l40 127l103 -20l-56 -355l-107 -5v134h-314l-74 -529h428l105 203l160 -13l-66 -309h-1052zM418 1752l5 32l155 10l196 -185l263 185l124 -10l-5 -32l-304 -292l-222 10z" />
<glyph unicode="&#x11b;" d="M74 429l13 93q40 277 194.5 431t382.5 154q186 0 274 -70q73 -58 72 -165q0 -23 -3 -48q-23 -161 -152.5 -251.5t-335.5 -90.5q-40 0 -79 3.5t-67 8.5l-7 -51q-9 -61 -8 -112q0 -93 28 -152q46 -91 179 -91q61 0 140 23t163 67v-106q-81 -45 -183 -69.5t-207 -24.5 q-240 0 -338 114q-74 87 -73 236q0 47 7 101zM388 596q37 -4 76 -7t70 -3q29 0 55 3.5t45 9.5q28 41 48.5 92t29.5 111q5 39 5 70q0 52 -14 80q-23 46 -88 45q-29 0 -58.5 -7t-58.5 -22q-34 -75 -62.5 -169.5t-47.5 -202.5zM396 1628l4 32l157 10l169 -248l240 248l123 -10 l-4 -32l-286 -373l-221 10z" />
<glyph unicode="&#x11c;" horiz-adv-x="1356" d="M63 505l13 89q56 378 258.5 579.5t523.5 201.5q109 0 212 -15t183 -42l-17 -290h-168l-46 206q-42 10 -92.5 16t-94.5 6q-76 0 -154.5 -20.5t-136.5 -53.5q-52 -98 -94 -228.5t-62 -270.5l-18 -133q-8 -57 -8 -108q0 -139 61 -226q83 -119 245 -119q71 0 139 14l58 410 l-131 20l20 105h537l5 -105l-131 -20l-58 -416q-112 -57 -249.5 -92t-268.5 -35q-280 0 -421 132q-113 105 -113 292q0 48 8 103zM506 1470l5 32l303 292l222 -10l213 -282l-5 -32l-156 -10l-197 185l-262 -185z" />
<glyph unicode="&#x11d;" horiz-adv-x="1167" d="M-20 -367l42 180q162 -66 289.5 -98t214.5 -32q59 52 102.5 155t65.5 251l18 134q-76 -118 -179.5 -181.5t-214.5 -63.5q-156 0 -216 100q-40 70 -40 183q0 51 8 112l26 188q36 249 194 397.5t392 148.5q96 0 208.5 -20.5t224.5 -57.5l-126 -900q-39 -264 -195.5 -425 t-377.5 -161q-100 0 -215 23.5t-221 66.5zM362 196q14 -90 77 -90q65 0 144 77.5t153 209.5l82 589q-30 9 -72.5 15t-83.5 6q-40 0 -85 -10t-80 -25q-32 -68 -59.5 -159t-46.5 -217l-18 -131q-15 -112 -15 -189q0 -44 4 -76zM359 1275l4 32l286 373l221 -10l182 -363l-4 -32 l-157 -10l-170 247l-239 -247z" />
<glyph unicode="&#x11e;" horiz-adv-x="1356" d="M63 505l13 89q56 378 258.5 579.5t523.5 201.5q109 0 212 -15t183 -42l-17 -290h-168l-46 206q-42 10 -92.5 16t-94.5 6q-76 0 -154.5 -20.5t-136.5 -53.5q-52 -98 -94 -228.5t-62 -270.5l-18 -133q-8 -57 -8 -108q0 -139 61 -226q83 -119 245 -119q71 0 139 14l58 410 l-131 20l20 105h537l5 -105l-131 -20l-58 -416q-112 -57 -249.5 -92t-268.5 -35q-280 0 -421 132q-113 105 -113 292q0 48 8 103zM564 1749l108 10q-2 -12 4.5 -34.5t30.5 -44t70.5 -37.5t124.5 -16t128.5 16t81 37.5t43.5 44t15 34.5l105 -10q-6 -47 -35 -98.5t-79 -94.5 t-121 -71t-162 -28t-153.5 28t-100.5 71t-52 94.5t-8 98.5z" />
<glyph unicode="&#x11f;" horiz-adv-x="1167" d="M-20 -367l42 180q162 -66 289.5 -98t214.5 -32q59 52 102.5 155t65.5 251l18 134q-76 -118 -179.5 -181.5t-214.5 -63.5q-156 0 -216 100q-40 70 -40 183q0 51 8 112l26 188q36 249 194 397.5t392 148.5q96 0 208.5 -20.5t224.5 -57.5l-126 -900q-39 -264 -195.5 -425 t-377.5 -161q-100 0 -215 23.5t-221 66.5zM362 196q14 -90 77 -90q65 0 144 77.5t153 209.5l82 589q-30 9 -72.5 15t-83.5 6q-40 0 -85 -10t-80 -25q-32 -68 -59.5 -159t-46.5 -217l-18 -131q-15 -112 -15 -189q0 -44 4 -76zM422 1592l108 10q-3 -18 4.5 -45t30 -52 t62 -42.5t100.5 -17.5t105 17.5t73.5 42.5t44.5 52t18 45l106 -10q-8 -59 -37.5 -117.5t-77.5 -105t-113 -75.5t-144 -29t-136 29t-91.5 75.5t-47.5 105t-5 117.5z" />
<glyph unicode="&#x120;" horiz-adv-x="1356" d="M63 505l13 89q56 378 258.5 579.5t523.5 201.5q109 0 212 -15t183 -42l-17 -290h-168l-46 206q-42 10 -92.5 16t-94.5 6q-76 0 -154.5 -20.5t-136.5 -53.5q-52 -98 -94 -228.5t-62 -270.5l-18 -133q-8 -57 -8 -108q0 -139 61 -226q83 -119 245 -119q71 0 139 14l58 410 l-131 20l20 105h537l5 -105l-131 -20l-58 -416q-112 -57 -249.5 -92t-268.5 -35q-280 0 -421 132q-113 105 -113 292q0 48 8 103zM771 1584q0 34 9.5 64t25.5 53t37.5 36.5t45.5 13.5q34 0 64.5 -9.5t53 -25.5t35.5 -37.5t13 -46.5q0 -33 -9.5 -63.5t-25.5 -53t-37.5 -36 t-45.5 -13.5q-35 0 -65 9.5t-52.5 25.5t-35.5 37.5t-13 45.5z" />
<glyph unicode="&#x121;" horiz-adv-x="1167" d="M-20 -367l42 180q162 -66 289.5 -98t214.5 -32q59 52 102.5 155t65.5 251l18 134q-76 -118 -179.5 -181.5t-214.5 -63.5q-156 0 -216 100q-40 70 -40 183q0 51 8 112l26 188q36 249 194 397.5t392 148.5q96 0 208.5 -20.5t224.5 -57.5l-126 -900q-39 -264 -195.5 -425 t-377.5 -161q-100 0 -215 23.5t-221 66.5zM362 196q14 -90 77 -90q65 0 144 77.5t153 209.5l82 589q-30 9 -72.5 15t-83.5 6q-40 0 -85 -10t-80 -25q-32 -68 -59.5 -159t-46.5 -217l-18 -131q-15 -112 -15 -189q0 -44 4 -76zM599 1395q0 34 9.5 64t25.5 53t37.5 36.5 t45.5 13.5q34 0 64.5 -9.5t53 -25.5t35.5 -37.5t13 -46.5q0 -33 -9.5 -63.5t-25.5 -53t-37.5 -36t-45.5 -13.5q-35 0 -65 9.5t-52.5 25.5t-35.5 37.5t-13 45.5z" />
<glyph unicode="&#x122;" horiz-adv-x="1356" d="M63 505l13 89q56 378 258.5 579.5t523.5 201.5q109 0 212 -15t183 -42l-17 -290h-168l-46 206q-42 10 -92.5 16t-94.5 6q-76 0 -154.5 -20.5t-136.5 -53.5q-52 -98 -94 -228.5t-62 -270.5l-18 -133q-8 -57 -8 -108q0 -139 61 -226q83 -119 245 -119q71 0 139 14l58 410 l-131 20l20 105h537l5 -105l-131 -20l-58 -416q-112 -57 -249.5 -92t-268.5 -35q-280 0 -421 132q-113 105 -113 292q0 48 8 103zM439 -511l53 383h206l-8 -62l-108 -321h-143z" />
<glyph unicode="&#x123;" horiz-adv-x="1167" d="M-20 -367l42 180q162 -66 289.5 -98t214.5 -32q59 52 102.5 155t65.5 251l18 134q-76 -118 -179.5 -181.5t-214.5 -63.5q-156 0 -216 100q-40 70 -40 183q0 51 8 112l26 188q36 249 194 397.5t392 148.5q96 0 208.5 -20.5t224.5 -57.5l-126 -900q-39 -264 -195.5 -425 t-377.5 -161q-100 0 -215 23.5t-221 66.5zM362 196q14 -90 77 -90q65 0 144 77.5t153 209.5l82 589q-30 9 -72.5 15t-83.5 6q-40 0 -85 -10t-80 -25q-32 -68 -59.5 -159t-46.5 -217l-18 -131q-15 -112 -15 -189q0 -44 4 -76zM869.969 1670.97l-52.9971 -382.977h-205.987 l8 61.9961l107.993 320.98h142.991z" />
<glyph unicode="&#x124;" horiz-adv-x="1529" d="M-4 105l130 20l156 1103l-131 20l20 105h537l5 -105l-131 -20l-63 -450h524l63 450l-131 20l20 105h537l5 -105l-131 -20l-156 -1103l132 -20l-20 -105h-537l-5 105l130 20l76 534h-524l-76 -534l132 -20l-20 -105h-537zM531 1470l5 32l303 292l222 -10l213 -282l-5 -32 l-156 -10l-197 185l-262 -185z" />
<glyph unicode="&#x125;" horiz-adv-x="1346" d="M114 0l197 1415l-131 20l20 105l330 22l81 -78l-87 -625q93 121 204 184.5t225 63.5q144 0 196 -74q37 -52 37 -144q0 -39 -7 -85l-93 -679l132 -20l-20 -105l-330 -22l-82 78l93 675q14 103 14 158q0 25 -3 41q-9 50 -53 49q-64 0 -153 -76.5t-183 -210.5l-99 -714z M105 1680l5 32l303 292l222 -10l213 -282l-5 -32l-156 -10l-197 185l-262 -185z" />
<glyph unicode="&#x126;" horiz-adv-x="1529" d="M-4 105l130 20l118 839h-144l21 120h140l21 144l-131 20l20 105h537l5 -105l-131 -20l-20 -144h524l20 144l-131 20l20 105h537l5 -105l-131 -20l-21 -144h144l-21 -120h-140l-118 -839l132 -20l-20 -105h-537l-5 105l130 20l76 534h-524l-76 -534l132 -20l-20 -105h-537 zM519 778h524l26 186h-524z" />
<glyph unicode="&#x127;" horiz-adv-x="1346" d="M114 0l170 1226h-160l21 127h157l9 62l-131 20l20 105l330 22l81 -78l-19 -131h246l-21 -127h-242l-51 -367q93 121 204 184.5t225 63.5q144 0 196 -74t30 -229l-93 -679l132 -20l-20 -105l-330 -22l-82 78l93 675q20 149 11 198.5t-53 49.5q-64 0 -153 -76.5 t-183 -210.5l-99 -714z" />
<glyph unicode="&#x128;" horiz-adv-x="705" d="M-4 105l130 20l156 1103l-131 20l20 105h537l5 -105l-131 -20l-156 -1103l132 -20l-20 -105h-537zM-21 1473l7 50q18 127 94 190.5t191 63.5q67 0 133 -20.5t125 -45.5t108.5 -45.5t85.5 -20.5q47 0 78.5 29.5t41.5 90.5l118 10l-10 -72q-17 -119 -88 -186.5t-186 -67.5 q-39 0 -82.5 10t-88 24.5t-88 31.5t-82.5 31.5t-71.5 24.5t-55.5 10q-24 0 -44 -4t-35.5 -15t-26 -30t-14.5 -49z" />
<glyph unicode="&#x129;" horiz-adv-x="704" d="M136 980l20 105l331 22l81 -78l-126 -904l131 -20l-20 -105l-330 -22l-81 78l125 904zM-29 1257l7 50q18 127 88.5 190.5t177.5 63.5q58 0 115 -20.5t108 -45.5t94.5 -45.5t74.5 -20.5q38 0 64 29.5t36 90.5l118 10l-10 -72q-17 -119 -82.5 -186.5t-171.5 -67.5 q-52 0 -111 20.5t-115 45.5t-104 45.5t-78 20.5q-40 0 -66 -19t-35 -79z" />
<glyph unicode="&#x12a;" horiz-adv-x="705" d="M-4 105l130 20l156 1103l-131 20l20 105h537l5 -105l-131 -20l-156 -1103l132 -20l-20 -105h-537zM64 1530l19 150h810l-19 -150h-810z" />
<glyph unicode="&#x12b;" horiz-adv-x="704" d="M136 980l20 105l331 22l81 -78l-126 -904l131 -20l-20 -105l-330 -22l-81 78l125 904zM28 1333l40 150h750l-40 -150h-750z" />
<glyph unicode="&#x12c;" horiz-adv-x="705" d="M-4 105l130 20l156 1103l-131 20l20 105h537l5 -105l-131 -20l-156 -1103l132 -20l-20 -105h-537zM156 1749l108 10q-2 -12 4.5 -34.5t30.5 -44t70.5 -37.5t124.5 -16t128.5 16t81 37.5t43.5 44t15 34.5l105 -10q-6 -47 -35 -98.5t-79 -94.5t-121 -71t-162 -28t-153.5 28 t-100.5 71t-52 94.5t-8 98.5z" />
<glyph unicode="&#x12d;" horiz-adv-x="704" d="M136 980l20 105l331 22l81 -78l-126 -904l131 -20l-20 -105l-330 -22l-81 78l125 904zM105 1592l108 10q-3 -18 4.5 -45t30 -52t62 -42.5t100.5 -17.5t105 17.5t73.5 42.5t44.5 52t18 45l106 -10q-8 -59 -37.5 -117.5t-77.5 -105t-113 -75.5t-144 -29t-136 29t-91.5 75.5 t-47.5 105t-5 117.5z" />
<glyph unicode="&#x12e;" horiz-adv-x="705" d="M-58 -316q8 59 44 118t91 115q42 42 93 83h-169l-5 105l130 20l156 1103l-131 20l20 105h537l5 -105l-131 -20l-156 -1103l132 -20l-20 -105h-182q-92 -67 -149.5 -138t-67.5 -136q-6 -41 6.5 -57t42.5 -16q22 0 51 12t57.5 28.5t61.5 39.5l-16 -103q-33 -25 -69.5 -43 t-82.5 -31t-99 -13q-40 0 -70.5 7t-49.5 23t-26.5 43t-2.5 68z" />
<glyph unicode="&#x12f;" horiz-adv-x="704" d="M136 980l20 105l331 22l81 -78l-126 -904l131 -20l-20 -105q-92 -67 -149.5 -138t-67.5 -136q-6 -41 6.5 -57t42.5 -16q23 0 52 12.5t57.5 29t60.5 38.5l-16 -103q-32 -25 -68.5 -43t-82 -31t-100.5 -13q-40 0 -70.5 7t-49.5 23t-26.5 43t-2.5 68q11 84 77 159t168 146 l-161 -11l-81 78l125 904zM332 1398q0 74 29 128t69 54q73 0 127.5 -29.5t54.5 -68.5q0 -76 -29 -129t-69 -53q-76 0 -129 28.5t-53 69.5z" />
<glyph unicode="&#x130;" horiz-adv-x="705" d="M-4 105l130 20l156 1103l-131 20l20 105h537l5 -105l-131 -20l-156 -1103l132 -20l-20 -105h-537zM363 1584q0 34 9.5 64t25.5 53t37.5 36.5t45.5 13.5q34 0 64.5 -9.5t53 -25.5t35.5 -37.5t13 -46.5q0 -33 -9.5 -63.5t-25.5 -53t-37.5 -36t-45.5 -13.5q-35 0 -65 9.5 t-52.5 25.5t-35.5 37.5t-13 45.5z" />
<glyph unicode="&#x131;" horiz-adv-x="704" d="M136 980l20 105l331 22l81 -78l-126 -904l131 -20l-20 -105l-330 -22l-81 78l125 904z" />
<glyph unicode="&#x132;" horiz-adv-x="1642" d="M-4 105l130 20l156 1103l-131 20l20 105h537l5 -105l-131 -20l-156 -1103l132 -20l-20 -105h-537zM699 31l16 280h146l47 -206q14 -4 34.5 -6.5t38.5 -2.5q22 0 41.5 3.5t29.5 7.5q26 41 48 111t33 151l120 859l-181 20l20 105h587l5 -105l-131 -20l-119 -850 q-29 -202 -140 -301t-302 -99q-81 0 -159.5 15t-133.5 38z" />
<glyph unicode="&#x133;" horiz-adv-x="1365" d="M136 980l20 105l331 22l81 -78l-126 -904l131 -20l-20 -105l-330 -22l-81 78l125 904zM332 1398q0 74 29 128t69 54q73 0 127.5 -29.5t54.5 -68.5q0 -76 -29 -129t-69 -53q-76 0 -129 28.5t-53 69.5zM424 -410l48 140q72 -27 144.5 -43.5t126.5 -16.5q26 34 50 99t36 145 l144 1046l-131 20l20 105l331 22l81 -78l-152 -1076q-28 -206 -127.5 -308t-291.5 -102q-70 0 -144.5 13t-134.5 34zM1039 1398q0 74 29 128t69 54q73 0 127.5 -29.5t54.5 -68.5q0 -76 -29 -129t-69 -53q-76 0 -129 28.5t-53 69.5z" />
<glyph unicode="&#x134;" horiz-adv-x="937" d="M-6 31l16 280h146l47 -206q14 -4 34.5 -6.5t38.5 -2.5q22 0 41.5 3.5t29.5 7.5q26 41 48 111t33 151l120 859l-181 20l20 105h587l5 -105l-131 -20l-119 -850q-29 -202 -140 -301t-302 -99q-81 0 -159.5 15t-133.5 38zM347 1470l5 32l303 292l222 -10l213 -282l-5 -32 l-156 -10l-197 185l-262 -185z" />
<glyph unicode="&#x135;" horiz-adv-x="661" d="M-280 -410l48 140q45 -17 88.5 -29t90.5 -21.5t92 -9.5q18 24 33 56.5t29 78.5t24 109l144 1046l-131 20l20 105l331 22l81 -78l-152 -1076q-17 -120 -54.5 -199t-92 -126t-124 -66t-148.5 -19q-57 0 -107.5 7t-92 17t-79.5 23zM54 1275l4 32l286 373l221 -10l182 -363 l-4 -32l-157 -10l-170 247l-239 -247z" />
<glyph unicode="&#x136;" horiz-adv-x="1346" d="M-8 105l130 20l156 1103l-131 20l20 105h537l5 -105l-131 -20l-71 -505l13 -6l542 514l-84 17l20 105h388l5 -105l-114 -26l-460 -426l374 -670l109 -21l-14 -105h-328l-339 611l-147 -136l-50 -350l132 -20l-20 -105h-537zM452 -511l53 383h206l-8 -62l-108 -321h-143z " />
<glyph unicode="&#x137;" horiz-adv-x="1224" d="M112 0l197 1415l-131 20l20 105l331 22l81 -78l-120 -855q157 66 275.5 155.5t205.5 185.5l-98 10l20 105l188 22l137 -118q-66 -81 -170.5 -176t-250.5 -183l249 -504l139 -21l-14 -105l-293 -22l-81 78l-228 459q-24 -10 -49 -19.5t-51 -18.5l-69 -499zM381 -511 l53 383h206l-8 -62l-108 -321h-143z" />
<glyph unicode="&#x138;" horiz-adv-x="1342" d="M34 105l130 20l116 835l-131 20l20 105l331 22l81 -78l-64 -462q51 10 93.5 38.5t79.5 68t70.5 87t67 96t69.5 93.5t77.5 80t91 56t110.5 21q37 0 68.5 -7t53 -22t32 -37.5t4.5 -52.5q-5 -26 -18 -54t-32 -50.5t-42.5 -37t-49.5 -14.5q-36 0 -60.5 16t-48.5 50 q-23 0 -47.5 -23.5t-52.5 -61.5t-60.5 -85.5t-72.5 -96.5l250 -505l139 -21l-14 -105l-293 -22l-81 78l-199 400q-35 -20 -74 -33t-84 -18l-39 -280l132 -20l-20 -105h-528z" />
<glyph unicode="&#x139;" horiz-adv-x="1033" d="M-6 105l130 20l156 1103l-131 20l20 105h567l5 -105l-161 -20l-156 -1109h298l110 213l141 -12l-68 -320h-906zM334 1471v32l278 281l282 -10v-66l-415 -248z" />
<glyph unicode="&#x13a;" horiz-adv-x="666" d="M116 56l189 1359l-131 20l20 105l331 22l81 -78l-190 -1359l131 -20l-20 -105l-330 -22zM330 1681v32l278 281l282 -10v-66l-415 -248z" />
<glyph unicode="&#x13b;" horiz-adv-x="1033" d="M-6 105l130 20l156 1103l-131 20l20 105h567l5 -105l-161 -20l-156 -1109h298l110 213l141 -12l-68 -320h-906zM268 -511l53 383h206l-8 -62l-108 -321h-143z" />
<glyph unicode="&#x13c;" horiz-adv-x="666" d="M116 56l189 1359l-131 20l20 105l331 22l81 -78l-190 -1359l131 -20l-20 -105l-330 -22zM100 -511l53 383h206l-8 -62l-108 -321h-143z" />
<glyph unicode="&#x13d;" horiz-adv-x="1033" d="M-6 105l130 20l156 1103l-131 20l20 105h567l5 -105l-161 -20l-156 -1109h298l110 213l141 -12l-68 -320h-906zM792 1157l53 383h226l-5 -42l-111 -341h-163z" />
<glyph unicode="&#x13e;" horiz-adv-x="828" d="M116 56l189 1359l-131 20l20 105l331 22l81 -78l-190 -1359l131 -20l-20 -105l-330 -22zM683 1157l53 383h226l-5 -42l-111 -341h-163z" />
<glyph unicode="&#x13f;" horiz-adv-x="1033" d="M-6 105l130 20l156 1103l-131 20l20 105h567l5 -105l-161 -20l-156 -1109h298l110 213l141 -12l-68 -320h-906zM768 648q0 37 8.5 70t23.5 58.5t34.5 40.5t41.5 15q39 0 72.5 -8.5t58.5 -23.5t39 -35t14 -43q0 -36 -8.5 -69.5t-23.5 -59t-35 -40.5t-42 -15q-39 0 -72 8.5 t-58 23.5t-39 35t-14 43z" />
<glyph unicode="&#x140;" horiz-adv-x="768" d="M116 56l189 1359l-131 20l20 105l331 22l81 -78l-190 -1359l131 -20l-20 -105l-330 -22zM584 648q0 37 8.5 70t23.5 58.5t34.5 40.5t41.5 15q39 0 72.5 -8.5t58.5 -23.5t39 -35t14 -43q0 -36 -8.5 -69.5t-23.5 -59t-35 -40.5t-42 -15q-39 0 -72 8.5t-58 23.5t-39 35 t-14 43z" />
<glyph unicode="&#x141;" horiz-adv-x="1033" d="M-6 105l130 20l52 372l-162 -87l19 139l163 87l84 592l-131 20l20 105h567l5 -105l-161 -20l-59 -418l300 161l-19 -138l-300 -161l-78 -553h298l110 213l141 -12l-68 -320h-906z" />
<glyph unicode="&#x142;" horiz-adv-x="666" d="M-6 545l20 139l204 109l87 622l-131 20l20 105l331 22l81 -78l-73 -524l194 104l-19 -138l-195 -104l-97 -697l131 -20l-20 -105l-330 -22l-81 78l83 598z" />
<glyph unicode="&#x143;" horiz-adv-x="1549" d="M-8 105l130 20l156 1103l-131 20l20 105h503l444 -1118h16l139 993l-131 20l20 105h428l5 -105l-131 -20l-173 -1228h-373l-445 1120h-16l-141 -995l132 -20l-20 -105h-427zM785 1471v32l278 281l282 -10v-66l-415 -248z" />
<glyph unicode="&#x144;" horiz-adv-x="1362" d="M132 0l132 960l-131 20l20 105l331 22l81 -78l-24 -170q94 118 204.5 183t218.5 65q147 0 201 -71q39 -51 39 -141q0 -35 -6 -76l-95 -694l131 -20l-20 -105l-330 -22l-81 78l93 675q13 91 13 148q0 24 -2 41q-8 59 -52 59q-55 0 -141.5 -71.5t-195.5 -215.5l-100 -714z M763 1275l5 32l234 363l271 -10l-10 -66l-366 -329z" />
<glyph unicode="&#x145;" horiz-adv-x="1549" d="M-8 105l130 20l156 1103l-131 20l20 105h503l444 -1118h16l139 993l-131 20l20 105h428l5 -105l-131 -20l-173 -1228h-373l-445 1120h-16l-141 -995l132 -20l-20 -105h-427zM486 -511l53 383h206l-8 -62l-108 -321h-143z" />
<glyph unicode="&#x146;" horiz-adv-x="1362" d="M132 0l132 960l-131 20l20 105l331 22l81 -78l-24 -170q94 118 204.5 183t218.5 65q147 0 201 -71q39 -51 39 -141q0 -35 -6 -76l-95 -694l131 -20l-20 -105l-330 -22l-81 78l93 675q13 91 13 148q0 24 -2 41q-8 59 -52 59q-55 0 -141.5 -71.5t-195.5 -215.5l-100 -714z M461 -511l53 383h206l-8 -62l-108 -321h-143z" />
<glyph unicode="&#x147;" horiz-adv-x="1549" d="M-8 105l130 20l156 1103l-131 20l20 105h503l444 -1118h16l139 993l-131 20l20 105h428l5 -105l-131 -20l-173 -1228h-373l-445 1120h-16l-141 -995l132 -20l-20 -105h-427zM590 1752l5 32l155 10l196 -185l263 185l124 -10l-5 -32l-304 -292l-222 10z" />
<glyph unicode="&#x148;" horiz-adv-x="1362" d="M132 0l132 960l-131 20l20 105l331 22l81 -78l-24 -170q94 118 204.5 183t218.5 65q147 0 201 -71q39 -51 39 -141q0 -35 -6 -76l-95 -694l131 -20l-20 -105l-330 -22l-81 78l93 675q13 91 13 148q0 24 -2 41q-8 59 -52 59q-55 0 -141.5 -71.5t-195.5 -215.5l-100 -714z M526 1628l4 32l157 10l169 -248l240 248l123 -10l-4 -32l-286 -373l-221 10z" />
<glyph unicode="&#x149;" horiz-adv-x="1362" d="M132 0l132 960l-131 20l20 105l331 22l81 -78l-24 -170q94 118 204.5 183t218.5 65q147 0 201 -71q39 -51 39 -141q0 -35 -6 -76l-95 -694l131 -20l-20 -105l-330 -22l-81 78l93 675q13 91 13 148q0 24 -2 41q-8 59 -52 59q-55 0 -141.5 -71.5t-195.5 -215.5l-100 -714z " />
<glyph unicode="&#x14a;" horiz-adv-x="1549" d="M-8 105l130 20l156 1103l-131 20l20 105h503l444 -1118h16l139 993l-131 20l20 105h428l5 -105l-131 -20l-173 -1228q-17 -120 -56 -206t-94.5 -142t-126 -82.5t-149.5 -26.5q-59 0 -111 10t-95.5 24t-82.5 33l48 140q60 -22 115.5 -38.5t112.5 -29t103 -12.5 q32 23 57 54.5t47.5 77.5t31.5 112l12 86h-185l-445 1120h-16l-141 -995l132 -20l-20 -105h-427z" />
<glyph unicode="&#x14b;" horiz-adv-x="1330" d="M132 0l132 960l-131 20l20 105l331 22l81 -78l-24 -170q8 10 27 32.5t47.5 50.5t65.5 57t81.5 53t95 39.5t106.5 15.5q69 0 118 -15.5t78.5 -50t39 -89.5t-1.5 -133l-112 -819q-17 -120 -55.5 -206t-94.5 -142t-126.5 -82.5t-149.5 -26.5q-57 0 -107.5 7t-92 17t-79.5 23 l48 140q45 -17 88.5 -29t90.5 -21.5t92 -9.5q18 24 33 56.5t29 78.5t23 109l111 817q10 72 12.5 120t-2.5 76.5t-18 40t-33 11.5q-31 0 -66.5 -19.5t-71.5 -49t-70 -65t-61 -67.5t-45 -56t-23 -30l-100 -714z" />
<glyph unicode="&#x14c;" horiz-adv-x="1430" d="M89 525l11 79q52 378 242 574.5t519 196.5q307 -1 439 -139q102 -107 102 -292q0 -55 -9 -117l-11 -78q-53 -379 -245.5 -575t-510.5 -196q-315 0 -445 137q-101 106 -101 293q0 55 9 117zM396 570q-8 -62 -8 -117q0 -141 54 -231q76 -124 226 -125q68 0 137 16t121 43 q39 86 80.5 219.5t61.5 274.5l18 133q11 76 11 140q-1 136 -49 216q-70 117 -238 117q-67 0 -135 -17t-118 -41q-45 -99 -84 -229t-59 -266zM452 1530l19 150h810l-19 -150h-810z" />
<glyph unicode="&#x14d;" horiz-adv-x="1167" d="M70 429l13 93q41 279 207.5 432t403.5 153q239 0 338 -114q75 -86 75 -240q0 -50 -8 -106l-13 -95q-38 -258 -210 -416t-400 -158q-234 0 -336 110q-78 84 -78 238q0 48 8 103zM361 443q-9 -67 -9 -121q0 -91 26 -146q40 -88 130 -88q37 0 76.5 8t72.5 22q49 76 84 180.5 t50 214.5l16 119q11 76 11 136q0 81 -20 135q-34 94 -136 94q-36 0 -75 -7.5t-74 -21.5q-50 -88 -84.5 -193t-50.5 -213zM377 1333l40 150h750l-40 -150h-750z" />
<glyph unicode="&#x14e;" horiz-adv-x="1430" d="M89 525l11 79q52 378 242 574.5t519 196.5q307 -1 439 -139q102 -107 102 -292q0 -55 -9 -117l-11 -78q-53 -379 -245.5 -575t-510.5 -196q-315 0 -445 137q-101 106 -101 293q0 55 9 117zM396 570q-8 -62 -8 -117q0 -141 54 -231q76 -124 226 -125q68 0 137 16t121 43 q39 86 80.5 219.5t61.5 274.5l18 133q11 76 11 140q-1 136 -49 216q-70 117 -238 117q-67 0 -135 -17t-118 -41q-45 -99 -84 -229t-59 -266zM544 1749l108 10q-2 -12 4.5 -34.5t30.5 -44t70.5 -37.5t124.5 -16t128.5 16t81 37.5t43.5 44t15 34.5l105 -10q-6 -47 -35 -98.5 t-79 -94.5t-121 -71t-162 -28t-153.5 28t-100.5 71t-52 94.5t-8 98.5z" />
<glyph unicode="&#x14f;" horiz-adv-x="1167" d="M70 429l13 93q41 279 207.5 432t403.5 153q239 0 338 -114q75 -86 75 -240q0 -50 -8 -106l-13 -95q-38 -258 -210 -416t-400 -158q-234 0 -336 110q-78 84 -78 238q0 48 8 103zM361 443q-9 -67 -9 -121q0 -91 26 -146q40 -88 130 -88q37 0 76.5 8t72.5 22q49 76 84 180.5 t50 214.5l16 119q11 76 11 136q0 81 -20 135q-34 94 -136 94q-36 0 -75 -7.5t-74 -21.5q-50 -88 -84.5 -193t-50.5 -213zM454 1592l108 10q-3 -18 4.5 -45t30 -52t62 -42.5t100.5 -17.5t105 17.5t73.5 42.5t44.5 52t18 45l106 -10q-8 -59 -37.5 -117.5t-77.5 -105 t-113 -75.5t-144 -29t-136 29t-91.5 75.5t-47.5 105t-5 117.5z" />
<glyph unicode="&#x150;" horiz-adv-x="1430" d="M89 525l11 79q52 378 242 574.5t519 196.5q307 -1 439 -139q102 -107 102 -292q0 -55 -9 -117l-11 -78q-53 -379 -245.5 -575t-510.5 -196q-315 0 -445 137q-101 106 -101 293q0 55 9 117zM396 570q-8 -62 -8 -117q0 -141 54 -231q76 -124 226 -125q68 0 137 16t121 43 q39 86 80.5 219.5t61.5 274.5l18 133q11 76 11 140q-1 136 -49 216q-70 117 -238 117q-67 0 -135 -17t-118 -41q-45 -99 -84 -229t-59 -266zM548 1471v32l278 281l282 -10v-66l-415 -248zM972 1471v32l278 281l282 -10v-66l-415 -248z" />
<glyph unicode="&#x151;" horiz-adv-x="1167" d="M70 429l13 93q41 279 207.5 432t403.5 153q239 0 338 -114q75 -86 75 -240q0 -50 -8 -106l-13 -95q-38 -258 -210 -416t-400 -158q-234 0 -336 110q-78 84 -78 238q0 48 8 103zM361 443q-9 -67 -9 -121q0 -91 26 -146q40 -88 130 -88q37 0 76.5 8t72.5 22q49 76 84 180.5 t50 214.5l16 119q11 76 11 136q0 81 -20 135q-34 94 -136 94q-36 0 -75 -7.5t-74 -21.5q-50 -88 -84.5 -193t-50.5 -213zM508 1275l5 32l234 363l271 -10l-10 -66l-366 -329zM884 1275l5 32l234 363l271 -10l-10 -66l-366 -329z" />
<glyph unicode="&#x152;" horiz-adv-x="1938" d="M63 525l11 79q52 377 241 574t520 197q42 0 81.5 -3.5t72 -8t63.5 -10.5h856l-19 -320h-146l-40 201h-386l-66 -467h297l40 127l103 -20l-56 -355l-107 -5v134h-294l-74 -529h408l105 203l140 -13l-66 -309h-904q-59 -14 -118.5 -18t-124.5 -4q-315 0 -445 137t-92 410z M369 357.5q16 -89.5 54.5 -147t95.5 -85.5t123 -28q69 0 125.5 9.5t93.5 20.5l153 1089q-12 4 -34.5 11t-52.5 13.5t-66.5 11t-76.5 4.5q-54 0 -100 -9t-83 -21t-70 -28q-31 -68 -56 -141.5t-49 -163t-38 -190.5l-18 -133q-17 -123 -1 -212.5z" />
<glyph unicode="&#x153;" horiz-adv-x="1728" d="M70 429l13 93q41 279 207.5 432t403.5 153q238 0 338 -114q141 114 337 114q185 0 273.5 -70t69.5 -213q-23 -161 -152.5 -251.5t-335.5 -90.5q-40 0 -79 3.5t-67 8.5l-7 -51q-25 -173 20.5 -264t178.5 -91q61 0 140 23t163 67v-106q-81 -45 -183 -69.5t-207 -24.5 q-240 0 -338 114q-4 5 -8 11q-159 -125 -361 -125q-233 0 -335.5 110.5t-70.5 340.5zM361 443q-24 -179 16.5 -267t130.5 -88q37 0 76.5 8t72.5 22q49 76 84 180q30 90 45 185l21 149q25 177 -8.5 271t-136.5 94q-36 0 -75 -7.5t-74 -21.5q-50 -88 -84.5 -193t-50.5 -213z M1093 596q37 -4 76 -7t70 -3q29 0 55 3.5t45 9.5q28 41 48.5 92t29.5 111q14 104 -9 149.5t-88 45.5q-29 0 -58.5 -7t-58.5 -22q-34 -75 -62.5 -169.5t-47.5 -202.5z" />
<glyph unicode="&#x154;" horiz-adv-x="1279" d="M-4 105l130 20l156 1103l-131 20l20 105h565q232 1 339 -87q87 -71 87 -200q0 -30 -5 -63q-18 -126 -91 -212.5t-190 -127.5l-8 -19l226 -517l127 -22l-20 -105h-339l-255 606h-113l-68 -481l132 -20l-20 -105h-537zM511 725h74q46 0 96.5 6t98.5 20q22 42 42 104.5 t28 122.5q6 38 6 71q0 81 -36 124q-50 61 -179 61h-58zM532 1471v32l278 281l282 -10v-66l-415 -248z" />
<glyph unicode="&#x155;" horiz-adv-x="978" d="M34 105l130 20l116 835l-131 20l20 105l331 22l81 -78l-25 -176q54 121 132.5 187.5t169.5 66.5q42 0 82 -12t70 -32l-58 -275l-146 -12v178q-11 3 -20.5 4t-18.5 1q-48 0 -110 -83t-134 -260l-68 -491l132 -20l-20 -105h-528zM589 1275l5 32l234 363l271 -10l-10 -66 l-366 -329z" />
<glyph unicode="&#x156;" horiz-adv-x="1279" d="M-4 105l130 20l156 1103l-131 20l20 105h565q232 1 339 -87q87 -71 87 -200q0 -30 -5 -63q-18 -126 -91 -212.5t-190 -127.5l-8 -19l226 -517l127 -22l-20 -105h-339l-255 606h-113l-68 -481l132 -20l-20 -105h-537zM511 725h74q46 0 96.5 6t98.5 20q22 42 42 104.5 t28 122.5q6 38 6 71q0 81 -36 124q-50 61 -179 61h-58zM395 -511l53 383h206l-8 -62l-108 -321h-143z" />
<glyph unicode="&#x157;" horiz-adv-x="978" d="M34 105l130 20l116 835l-131 20l20 105l331 22l81 -78l-25 -176q54 121 132.5 187.5t169.5 66.5q42 0 82 -12t70 -32l-58 -275l-146 -12v178q-11 3 -20.5 4t-18.5 1q-48 0 -110 -83t-134 -260l-68 -491l132 -20l-20 -105h-528zM116 -511l53 383h206l-8 -62l-108 -321 h-143z" />
<glyph unicode="&#x158;" horiz-adv-x="1279" d="M-4 105l130 20l156 1103l-131 20l20 105h565q232 1 339 -87q87 -71 87 -200q0 -30 -5 -63q-18 -126 -91 -212.5t-190 -127.5l-8 -19l226 -517l127 -22l-20 -105h-339l-255 606h-113l-68 -481l132 -20l-20 -105h-537zM511 725h74q46 0 96.5 6t98.5 20q22 42 42 104.5 t28 122.5q6 38 6 71q0 81 -36 124q-50 61 -179 61h-58zM337 1752l5 32l155 10l196 -185l263 185l124 -10l-5 -32l-304 -292l-222 10z" />
<glyph unicode="&#x159;" horiz-adv-x="978" d="M34 105l130 20l116 835l-131 20l20 105l331 22l81 -78l-25 -176q54 121 132.5 187.5t169.5 66.5q42 0 82 -12t70 -32l-58 -275l-146 -12v178q-11 3 -20.5 4t-18.5 1q-48 0 -110 -83t-134 -260l-68 -491l132 -20l-20 -105h-528zM352 1628l4 32l157 10l169 -248l240 248 l123 -10l-4 -32l-286 -373l-221 10z" />
<glyph unicode="&#x15a;" horiz-adv-x="1203" d="M60 41l16 279h170l45 -199q36 -11 91.5 -17.5t117.5 -6.5q55 0 110 8t95 20q19 30 35 70.5t23 85.5q2 14 2 28q-1 62 -41 115q-50 65 -218 176q-209 132 -277 219q-53 68 -53 164q0 27 4 56q22 148 178 242t401 94q104 0 206 -13t178 -39l-17 -290h-158l-45 201 q-49 12 -99 17t-93 5q-55 0 -109 -8.5t-90 -19.5q-13 -23 -26 -60.5t-17 -67.5q-2 -15 -2 -29q1 -70 55 -124q66 -65 197 -147q231 -144 291 -240q46 -74 46 -164q0 -27 -4 -55q-25 -170 -184 -266.5t-404 -96.5q-131 0 -242 17.5t-182 45.5zM629 1471v32l278 281l282 -10 v-66l-415 -248z" />
<glyph unicode="&#x15b;" d="M72 48l24 260h122l31 -197q30 -10 75 -16.5t96 -6.5q40 0 80.5 4.5t76.5 13.5q14 21 26 50.5t17 63.5q2 13 2 26q0 48 -28 87q-35 49 -195 151q-167 104 -217 180q-40 61 -40 130q0 17 2 34q19 129 145.5 204t339.5 75q97 0 183.5 -19t144.5 -49l-25 -261h-121l-33 199 q-33 9 -75 14.5t-84 5.5q-35 0 -72 -5t-63 -13q-15 -18 -27 -44t-16 -53q-2 -14 -2 -28q0 -42 23 -74q31 -43 160 -121q200 -119 255 -203q43 -65 43 -146q0 -23 -4 -48q-19 -135 -154.5 -209.5t-350.5 -74.5q-96 0 -185 19t-154 51zM577 1275l5 32l234 363l271 -10l-10 -66 l-366 -329z" />
<glyph unicode="&#x15c;" horiz-adv-x="1203" d="M60 41l16 279h170l45 -199q36 -11 91.5 -17.5t117.5 -6.5q55 0 110 8t95 20q19 30 35 70.5t23 85.5q2 14 2 28q-1 62 -41 115q-50 65 -218 176q-209 132 -277 219q-53 68 -53 164q0 27 4 56q22 148 178 242t401 94q104 0 206 -13t178 -39l-17 -290h-158l-45 201 q-49 12 -99 17t-93 5q-55 0 -109 -8.5t-90 -19.5q-13 -23 -26 -60.5t-17 -67.5q-2 -15 -2 -29q1 -70 55 -124q66 -65 197 -147q231 -144 291 -240q46 -74 46 -164q0 -27 -4 -55q-25 -170 -184 -266.5t-404 -96.5q-131 0 -242 17.5t-182 45.5zM403 1470l5 32l303 292l222 -10 l213 -282l-5 -32l-156 -10l-197 185l-262 -185z" />
<glyph unicode="&#x15d;" d="M72 48l24 260h122l31 -197q30 -10 75 -16.5t96 -6.5q40 0 80.5 4.5t76.5 13.5q14 21 26 50.5t17 63.5q2 13 2 26q0 48 -28 87q-35 49 -195 151q-167 104 -217 180q-40 61 -40 130q0 17 2 34q19 129 145.5 204t339.5 75q97 0 183.5 -19t144.5 -49l-25 -261h-121l-33 199 q-33 9 -75 14.5t-84 5.5q-35 0 -72 -5t-63 -13q-15 -18 -27 -44t-16 -53q-2 -14 -2 -28q0 -42 23 -74q31 -43 160 -121q200 -119 255 -203q43 -65 43 -146q0 -23 -4 -48q-19 -135 -154.5 -209.5t-350.5 -74.5q-96 0 -185 19t-154 51zM286 1275l4 32l286 373l221 -10 l182 -363l-4 -32l-157 -10l-170 247l-239 -247z" />
<glyph unicode="&#x15e;" horiz-adv-x="1203" d="M60 41l16 279h170l45 -199q36 -11 91.5 -17.5t117.5 -6.5q55 0 110 8t95 20q19 30 35 70.5t23 85.5q11 78 -38.5 143t-218.5 176q-209 132 -277 219t-49 220q22 148 178 242t401 94q104 0 206 -13t178 -39l-17 -290h-158l-45 201q-49 12 -99 17t-93 5q-55 0 -109 -8.5 t-90 -19.5q-13 -23 -26 -60.5t-17 -67.5q-13 -88 52.5 -153t197.5 -147q231 -144 291 -240t42 -219q-25 -170 -184 -267q-121 -73 -292 -90l-45 -89q49 -9 87 -22.5t63 -34.5t35.5 -51t4.5 -71q-6 -39 -27 -71t-55.5 -54.5t-81.5 -35t-104 -12.5q-42 0 -79 7t-66.5 17 t-52.5 23l13 93q26 -11 53 -19.5t59 -14.5t61 -6q22 0 39.5 2t29.5 5q4 6 7 12.5t6 16.5t5 24q3 24 -1 41.5t-18 30.5t-39 22.5t-63 16.5l-26 64l50 100q-112 2 -209 18q-111 17 -182 45z" />
<glyph unicode="&#x15f;" d="M72 48l24 260h122l31 -197q30 -10 75 -16.5t96 -6.5q40 0 80.5 4.5t76.5 13.5q14 21 26 50.5t17 63.5q9 64 -26 113t-195 151q-168 104 -217.5 179.5t-37.5 164.5q19 129 145.5 204t339.5 75q97 0 183.5 -19t144.5 -49l-25 -261h-121l-33 199q-33 9 -75 14.5t-84 5.5 q-35 0 -72 -5t-63 -13q-15 -18 -27 -44t-16 -53q-10 -59 21 -102t160 -121q200 -119 255 -203.5t39 -193.5q-19 -135 -155 -210q-95 -52 -231 -67l-45 -90q49 -9 87 -22.5t63 -34.5t35.5 -51t4.5 -71q-6 -39 -27 -71t-55.5 -54.5t-81.5 -35t-104 -12.5q-42 0 -79 7t-66.5 17 t-52.5 23l13 93q26 -11 53 -19.5t59 -14.5t61 -6q22 0 39.5 2t29.5 5q4 6 7 12.5t6 16.5t5 24q3 24 -1 41.5t-18 30.5t-39 22.5t-63 16.5l-26 64l50 100q-82 3 -159 19q-89 19 -154 51z" />
<glyph unicode="&#x160;" horiz-adv-x="1203" d="M60 41l16 279h170l45 -199q36 -11 91.5 -17.5t117.5 -6.5q55 0 110 8t95 20q19 30 35 70.5t23 85.5q2 14 2 28q-1 62 -41 115q-50 65 -218 176q-209 132 -277 219q-53 68 -53 164q0 27 4 56q22 148 178 242t401 94q104 0 206 -13t178 -39l-17 -290h-158l-45 201 q-49 12 -99 17t-93 5q-55 0 -109 -8.5t-90 -19.5q-13 -23 -26 -60.5t-17 -67.5q-2 -15 -2 -29q1 -70 55 -124q66 -65 197 -147q231 -144 291 -240q46 -74 46 -164q0 -27 -4 -55q-25 -170 -184 -266.5t-404 -96.5q-131 0 -242 17.5t-182 45.5zM434 1752l5 32l155 10l196 -185 l263 185l124 -10l-5 -32l-304 -292l-222 10z" />
<glyph unicode="&#x161;" d="M72 48l24 260h122l31 -197q30 -10 75 -16.5t96 -6.5q40 0 80.5 4.5t76.5 13.5q14 21 26 50.5t17 63.5q2 13 2 26q0 48 -28 87q-35 49 -195 151q-167 104 -217 180q-40 61 -40 130q0 17 2 34q19 129 145.5 204t339.5 75q97 0 183.5 -19t144.5 -49l-25 -261h-121l-33 199 q-33 9 -75 14.5t-84 5.5q-35 0 -72 -5t-63 -13q-15 -18 -27 -44t-16 -53q-2 -14 -2 -28q0 -42 23 -74q31 -43 160 -121q200 -119 255 -203q43 -65 43 -146q0 -23 -4 -48q-19 -135 -154.5 -209.5t-350.5 -74.5q-96 0 -185 19t-154 51zM340 1628l4 32l157 10l169 -248l240 248 l123 -10l-4 -32l-286 -373l-221 10z" />
<glyph unicode="&#x162;" horiz-adv-x="1148" d="M60 1043l56 310h1112l-27 -310h-139l-30 191h-222l-157 -1109l132 -20l-20 -105h-206l-53 -105q49 -9 87 -22.5t63 -34.5t35.5 -51t4.5 -71q-6 -39 -27 -71t-55.5 -54.5t-81.5 -35t-104 -12.5q-42 0 -79 7t-66.5 17t-52.5 23l13 93q26 -11 53 -19.5t59 -14.5t61 -6 q22 0 39.5 2t29.5 5q4 6 7 12.5t6 16.5t5 24q3 24 -1 41.5t-18 30.5t-39 22.5t-63 16.5l-26 64l61 122h-189l-5 105l130 20l157 1109h-227l-75 -191h-148z" />
<glyph unicode="&#x163;" horiz-adv-x="821" d="M76 981l15 104h176l29 207l303 83l-41 -290h277l-15 -104h-276l-89 -633q-18 -122 -3 -191t82 -69q51 0 101.5 20.5t95.5 49.5v-106q-52 -34 -131 -54q-51 -13 -104 -17l-43 -86q49 -9 87 -22.5t63 -34.5t35.5 -51t4.5 -71q-6 -39 -27 -71t-55.5 -54.5t-81.5 -35 t-104 -12.5q-42 0 -79 7t-66.5 17t-52.5 23l13 93q26 -11 53 -19.5t59 -14.5t61 -6q22 0 39.5 2t29.5 5q4 6 7 12.5t6 16.5t5 24q3 24 -1 41.5t-18 30.5t-39 22.5t-63 16.5l-26 64l53 106q-107 17 -154 86q-63 93 -36 283l87 628h-177z" />
<glyph unicode="&#x164;" horiz-adv-x="1148" d="M60 1043l56 310h1112l-27 -310h-139l-30 191h-222l-157 -1109l132 -20l-20 -105h-537l-5 105l130 20l157 1109h-227l-75 -191h-148zM365 1752l5 32l155 10l196 -185l263 185l124 -10l-5 -32l-304 -292l-222 10z" />
<glyph unicode="&#x165;" horiz-adv-x="821" d="M76 981l15 104h176l29 207l303 83l-41 -290h277l-15 -104h-276l-89 -633q-10 -67 -10 -117q0 -42 7 -74q15 -69 82 -69q51 0 101.5 20.5t95.5 49.5v-106q-52 -34 -130.5 -54t-162.5 -20q-173 0 -236 92q-44 65 -44 178q0 48 8 105l87 628h-177zM694 1157l53 383h226 l-5 -42l-111 -341h-163z" />
<glyph unicode="&#x166;" horiz-adv-x="1148" d="M60 1043l56 310h1112l-27 -310h-139l-30 191h-222l-75 -530h214l-19 -137h-215l-62 -442l132 -20l-20 -105h-537l-5 105l130 20l62 442h-228l19 137h229l75 530h-227l-75 -191h-148z" />
<glyph unicode="&#x167;" horiz-adv-x="821" d="M-2 509l19 137h189l47 335h-177l15 104h176l29 207l303 83l-41 -290h277l-15 -104h-276l-47 -335h263l-19 -137h-264l-22 -161q-18 -122 -3 -191t82 -69q51 0 101.5 20.5t95.5 49.5v-106q-52 -34 -130.5 -54t-162.5 -20q-173 0 -236 92.5t-36 282.5l21 156h-189z" />
<glyph unicode="&#x168;" horiz-adv-x="1452" d="M130 1248l20 105h537l5 -105l-131 -20l-95 -682q-11 -76 -11 -139q1 -119 39 -195q58 -116 213 -115q84 0 156.5 21t118.5 55q26 50 54.5 143.5t44.5 204.5l99 707l-131 20l20 105h428l5 -105l-131 -20l-99 -710q-38 -274 -191 -407t-446 -133q-283 0 -398 126 q-88 96 -88 271q0 54 9 116l103 737zM407 1473l7 50q18 127 94 190.5t191 63.5q67 0 133 -20.5t125 -45.5t108.5 -45.5t85.5 -20.5q47 0 78.5 29.5t41.5 90.5l118 10l-10 -72q-17 -119 -88 -186.5t-186 -67.5q-39 0 -82.5 10t-88 24.5t-88 31.5t-82.5 31.5t-71.5 24.5 t-55.5 10q-24 0 -44 -4t-35.5 -15t-26 -30t-14.5 -49z" />
<glyph unicode="&#x169;" horiz-adv-x="1344" d="M124 980l20 105l331 22l78 -98l-92 -670q-11 -79 -11 -131q0 -26 3 -45q8 -57 60 -57q64 0 149 73.5t177 210.5l79 570l-131 20l20 105l331 22l81 -78l-126 -904l131 -20l-20 -105l-330 -22l-81 78l23 167q-88 -114 -202 -179.5t-233 -65.5q-137 0 -189 72 q-37 51 -37 139q0 36 6 77l95 694zM316 1257l7 50q18 127 88.5 190.5t177.5 63.5q58 0 115 -20.5t108 -45.5t94.5 -45.5t74.5 -20.5q38 0 64 29.5t36 90.5l118 10l-10 -72q-17 -119 -82.5 -186.5t-171.5 -67.5q-52 0 -111 20.5t-115 45.5t-104 45.5t-78 20.5q-40 0 -66 -19 t-35 -79z" />
<glyph unicode="&#x16a;" horiz-adv-x="1452" d="M130 1248l20 105h537l5 -105l-131 -20l-95 -682q-11 -76 -11 -139q1 -119 39 -195q58 -116 213 -115q84 0 156.5 21t118.5 55q26 50 54.5 143.5t44.5 204.5l99 707l-131 20l20 105h428l5 -105l-131 -20l-99 -710q-38 -274 -191 -407t-446 -133q-283 0 -398 126 q-88 96 -88 271q0 54 9 116l103 737zM492 1530l19 150h810l-19 -150h-810z" />
<glyph unicode="&#x16b;" horiz-adv-x="1344" d="M124 980l20 105l331 22l78 -98l-92 -670q-11 -79 -11 -131q0 -26 3 -45q8 -57 60 -57q64 0 149 73.5t177 210.5l79 570l-131 20l20 105l331 22l81 -78l-126 -904l131 -20l-20 -105l-330 -22l-81 78l23 167q-88 -114 -202 -179.5t-233 -65.5q-137 0 -189 72 q-37 51 -37 139q0 36 6 77l95 694zM373 1333l40 150h750l-40 -150h-750z" />
<glyph unicode="&#x16c;" horiz-adv-x="1452" d="M130 1248l20 105h537l5 -105l-131 -20l-95 -682q-11 -76 -11 -139q1 -119 39 -195q58 -116 213 -115q84 0 156.5 21t118.5 55q26 50 54.5 143.5t44.5 204.5l99 707l-131 20l20 105h428l5 -105l-131 -20l-99 -710q-38 -274 -191 -407t-446 -133q-283 0 -398 126 q-88 96 -88 271q0 54 9 116l103 737zM584 1749l108 10q-2 -12 4.5 -34.5t30.5 -44t70.5 -37.5t124.5 -16t128.5 16t81 37.5t43.5 44t15 34.5l105 -10q-6 -47 -35 -98.5t-79 -94.5t-121 -71t-162 -28t-153.5 28t-100.5 71t-52 94.5t-8 98.5z" />
<glyph unicode="&#x16d;" horiz-adv-x="1344" d="M124 980l20 105l331 22l78 -98l-92 -670q-11 -79 -11 -131q0 -26 3 -45q8 -57 60 -57q64 0 149 73.5t177 210.5l79 570l-131 20l20 105l331 22l81 -78l-126 -904l131 -20l-20 -105l-330 -22l-81 78l23 167q-88 -114 -202 -179.5t-233 -65.5q-137 0 -189 72 q-37 51 -37 139q0 36 6 77l95 694zM450 1592l108 10q-3 -18 4.5 -45t30 -52t62 -42.5t100.5 -17.5t105 17.5t73.5 42.5t44.5 52t18 45l106 -10q-8 -59 -37.5 -117.5t-77.5 -105t-113 -75.5t-144 -29t-136 29t-91.5 75.5t-47.5 105t-5 117.5z" />
<glyph unicode="&#x16e;" horiz-adv-x="1452" d="M130 1248l20 105h537l5 -105l-131 -20l-95 -682q-11 -76 -11 -139q1 -119 39 -195q58 -116 213 -115q84 0 156.5 21t118.5 55q26 50 54.5 143.5t44.5 204.5l99 707l-131 20l20 105h428l5 -105l-131 -20l-99 -710q-38 -274 -191 -407t-446 -133q-283 0 -398 126 q-88 96 -88 271q0 54 9 116l103 737zM677 1570q8 58 33.5 101t62 71.5t82 42.5t93.5 14q44 0 82.5 -9.5t65.5 -29.5t40 -51t7 -75q-9 -61 -33 -104.5t-60 -71.5t-81.5 -41t-95.5 -13q-46 0 -84.5 9.5t-65.5 30t-39.5 51.5t-6.5 75zM837 1602q-7 -56 11 -85.5t53 -29.5 q14 0 25 1t20 3t16 5q4 12 8 27.5t8 35t7 43.5q8 56 -11 85.5t-54 29.5q-11 0 -20 -1.5t-16.5 -3.5t-14.5 -4q-7 -12 -12.5 -27t-11 -34t-8.5 -45z" />
<glyph unicode="&#x16f;" horiz-adv-x="1344" d="M124 980l20 105l331 22l78 -98l-92 -670q-11 -79 -11 -131q0 -26 3 -45q8 -57 60 -57q64 0 149 73.5t177 210.5l79 570l-131 20l20 105l331 22l81 -78l-126 -904l131 -20l-20 -105l-330 -22l-81 78l23 167q-88 -114 -202 -179.5t-233 -65.5q-137 0 -189 72 q-37 51 -37 139q0 36 6 77l95 694zM539 1436q9 61 34.5 106t62.5 74.5t82.5 44t93.5 14.5q44 0 82 -10t65 -31t39.5 -54.5t6.5 -79.5q-9 -64 -34 -109.5t-61 -74.5t-81.5 -42.5t-95.5 -13.5q-46 0 -84.5 10t-65 31.5t-38.5 55t-6 79.5zM699 1468q-8 -60 10.5 -92.5 t56.5 -32.5q11 0 21.5 1t19 3t16.5 5q5 14 9 30.5t7.5 38t7.5 47.5q8 60 -10.5 92.5t-55.5 32.5q-11 0 -19.5 -1.5t-16 -3.5t-13.5 -4q-7 -13 -12.5 -29t-11 -37t-9.5 -50z" />
<glyph unicode="&#x170;" horiz-adv-x="1452" d="M130 1248l20 105h537l5 -105l-131 -20l-95 -682q-11 -76 -11 -139q1 -119 39 -195q58 -116 213 -115q84 0 156.5 21t118.5 55q26 50 54.5 143.5t44.5 204.5l99 707l-131 20l20 105h428l5 -105l-131 -20l-99 -710q-38 -274 -191 -407t-446 -133q-283 0 -398 126 q-88 96 -88 271q0 54 9 116l103 737zM570 1471v32l278 281l282 -10v-66l-415 -248zM994 1471v32l278 281l282 -10v-66l-415 -248z" />
<glyph unicode="&#x171;" horiz-adv-x="1344" d="M124 980l20 105l331 22l78 -98l-92 -670q-11 -79 -11 -131q0 -26 3 -45q8 -57 60 -57q64 0 149 73.5t177 210.5l79 570l-131 20l20 105l331 22l81 -78l-126 -904l131 -20l-20 -105l-330 -22l-81 78l23 167q-88 -114 -202 -179.5t-233 -65.5q-137 0 -189 72 q-37 51 -37 139q0 36 6 77l95 694zM472 1275l5 32l234 363l271 -10l-10 -66l-366 -329zM848 1275l5 32l234 363l271 -10l-10 -66l-366 -329z" />
<glyph unicode="&#x172;" horiz-adv-x="1452" d="M130 1248l20 105h537l5 -105l-131 -20l-95 -682q-18 -130 -6.5 -216.5t46 -138t86.5 -73t115 -21.5q69 0 120 12t88.5 27.5t66.5 36.5q20 40 37 89t34 113.5t28 145.5l99 707l-131 20l20 105h428l5 -105l-131 -20l-99 -710q-27 -189 -105.5 -310.5t-222.5 -178.5 q-73 -35 -123 -75t-81.5 -80.5t-47.5 -78.5t-20 -69q-6 -41 6.5 -57t42.5 -16q23 0 52 12.5t57.5 29t60.5 38.5l-16 -103q-32 -25 -68.5 -43t-82 -31t-100.5 -13q-40 0 -70.5 7t-49.5 23t-26.5 43t-2.5 68q11 80 62.5 151.5t142.5 143.5q-11 0 -22.5 -0.5t-22.5 -0.5 q-136 0 -234.5 29.5t-159 92t-81.5 159.5t-2 232l103 737z" />
<glyph unicode="&#x173;" horiz-adv-x="1344" d="M124 980l20 105l331 22l78 -98l-92 -670q-10 -72 -11 -117.5t6 -71t21.5 -35t35.5 -9.5q33 0 68.5 18t69 46t64.5 61.5t56.5 65t43 57t24.5 36.5l79 570l-131 20l20 105l331 22l81 -78l-126 -904l131 -20l-20 -105q-92 -67 -149.5 -138t-67.5 -136q-6 -41 6.5 -57 t42.5 -16q23 0 52 12.5t57.5 29t60.5 38.5l-16 -103q-32 -25 -68.5 -43t-82 -31t-100.5 -13q-40 0 -70.5 7t-49.5 23t-26.5 43t-2.5 68q11 84 77 159t168 146l-161 -11l-81 78l23 167q-9 -12 -28 -34.5t-48 -50t-66.5 -56t-83 -51.5t-98 -38t-111.5 -15q-63 0 -109.5 15.5 t-74.5 50t-37.5 89.5t1.5 133l95 694z" />
<glyph unicode="&#x174;" horiz-adv-x="2111" d="M60 1248l14 105h497l11 -105l-137 -20l195 -903h16l428 1028h251l191 -1028h16l386 904l-132 19l14 105h414l11 -105l-112 -22l-541 -1226h-274l-181 975h-16l-409 -975h-272l-267 1228zM884 1470l5 32l303 292l222 -10l213 -282l-5 -32l-156 -10l-197 185l-262 -185z " />
<glyph unicode="&#x175;" horiz-adv-x="1745" d="M32 980l14 105l284 22l81 -78l124 -785l405 863l145 -22l143 -905q55 85 106.5 182t94 199t72.5 204t44 196l-125 19l14 105l220 22l81 -78q0 -79 -19.5 -168.5t-53.5 -183t-80 -188.5t-99 -185t-110 -173t-113 -153l-261 22l-108 663l-313 -685l-262 22l-154 960z M652 1275l4 32l286 373l221 -10l182 -363l-4 -32l-157 -10l-170 247l-239 -247z" />
<glyph unicode="&#x176;" horiz-adv-x="1162" d="M28 1248l14 105h481l11 -105l-105 -15l229 -463h16l345 464l-100 14l14 105h396l11 -105l-122 -24l-455 -607l-70 -492l132 -20l-20 -105h-537l-5 105l130 20l65 461l-320 640zM378 1470l5 32l303 292l222 -10l213 -282l-5 -32l-156 -10l-197 185l-262 -185z" />
<glyph unicode="&#x177;" horiz-adv-x="1283" d="M86 -367l42 180q150 -62 281.5 -96t222.5 -34q54 46 99.5 148t68.5 258l18 134q-78 -110 -191 -177.5t-236 -67.5q-143 0 -196 72q-38 51 -38 140q0 35 6 76l95 694l-132 20l20 105l331 22l81 -78l-95 -695q-12 -86 -12 -138q0 -20 2 -35q6 -55 56 -55q55 0 140 72.5 t193 212.5l79 569l-132 20l20 105l331 22l81 -78l-126 -900q-44 -276 -201.5 -431t-371.5 -155q-102 0 -216.5 23.5t-219.5 66.5zM389 1275l4 32l286 373l221 -10l182 -363l-4 -32l-157 -10l-170 247l-239 -247z" />
<glyph unicode="&#x178;" horiz-adv-x="1162" d="M28 1248l14 105h481l11 -105l-105 -15l229 -463h16l345 464l-100 14l14 105h396l11 -105l-122 -24l-455 -607l-70 -492l132 -20l-20 -105h-537l-5 105l130 20l65 461l-320 640zM352 1577q0 31 8.5 58.5t23 48t34 32.5t40.5 12q31 0 58.5 -8.5t47.5 -23t31.5 -34.5 t11.5 -42q0 -30 -8.5 -57t-22.5 -48t-33.5 -33t-40.5 -12q-32 0 -59 8.5t-47.5 23.5t-32 34.5t-11.5 40.5zM894 1577q0 31 8.5 58.5t22.5 48t33.5 32.5t40.5 12q31 0 58.5 -8.5t48 -23t32 -34.5t11.5 -42q0 -30 -8.5 -57t-23 -48t-34 -33t-41.5 -12q-32 0 -59 8.5 t-46.5 23.5t-31 34.5t-11.5 40.5z" />
<glyph unicode="&#x179;" horiz-adv-x="1242" d="M14 0v95l837 1125l-3 14h-456l-99 -213l-151 12l68 320h1010v-94l-838 -1126l3 -14h497l99 213l150 -12l-67 -320h-1050zM604 1471v32l278 281l282 -10v-66l-415 -248z" />
<glyph unicode="&#x17a;" horiz-adv-x="1067" d="M38 0l11 95l676 880h-356l-82 -174l-143 26l50 258h877l-10 -83l-686 -892h365l82 174l143 -26l-50 -258h-877zM616 1275l5 32l234 363l271 -10l-10 -66l-366 -329z" />
<glyph unicode="&#x17b;" horiz-adv-x="1242" d="M14 0v95l837 1125l-3 14h-456l-99 -213l-151 12l68 320h1010v-94l-838 -1126l3 -14h497l99 213l150 -12l-67 -320h-1050zM643 1584q0 34 9.5 64t25.5 53t37.5 36.5t45.5 13.5q34 0 64.5 -9.5t53 -25.5t35.5 -37.5t13 -46.5q0 -33 -9.5 -63.5t-25.5 -53t-37.5 -36 t-45.5 -13.5q-35 0 -65 9.5t-52.5 25.5t-35.5 37.5t-13 45.5z" />
<glyph unicode="&#x17c;" horiz-adv-x="1067" d="M38 0l11 95l676 880h-356l-82 -174l-143 26l50 258h877l-10 -83l-686 -892h365l82 174l143 -26l-50 -258h-877zM565 1395q0 34 9.5 64t25.5 53t37.5 36.5t45.5 13.5q34 0 64.5 -9.5t53 -25.5t35.5 -37.5t13 -46.5q0 -33 -9.5 -63.5t-25.5 -53t-37.5 -36t-45.5 -13.5 q-35 0 -65 9.5t-52.5 25.5t-35.5 37.5t-13 45.5z" />
<glyph unicode="&#x17d;" horiz-adv-x="1242" d="M14 0v95l837 1125l-3 14h-456l-99 -213l-151 12l68 320h1010v-94l-838 -1126l3 -14h497l99 213l150 -12l-67 -320h-1050zM409 1752l5 32l155 10l196 -185l263 185l124 -10l-5 -32l-304 -292l-222 10z" />
<glyph unicode="&#x17e;" horiz-adv-x="1067" d="M38 0l11 95l676 880h-356l-82 -174l-143 26l50 258h877l-10 -83l-686 -892h365l82 174l143 -26l-50 -258h-877zM379 1628l4 32l157 10l169 -248l240 248l123 -10l-4 -32l-286 -373l-221 10z" />
<glyph unicode="&#x17f;" horiz-adv-x="746" d="M-280 -410l48 140q42 -17 87 -30q38 -11 85.5 -20.5t93.5 -9.5q19 23 37 60q15 31 30.5 79.5t25.5 116.5l145 1055h-189l14 104h191q23 126 63.5 216.5t96.5 148.5t127 85t156 27q54 0 98 -7.5t76 -16.5q37 -11 65 -23l-43 -140q-32 17 -69 30q-32 11 -72.5 20.5 t-83.5 9.5q-26 -28 -49 -74q-20 -39 -40.5 -101.5t-32.5 -152.5l-160 -1154q-17 -122 -54 -201t-91 -125.5t-123 -65t-148 -18.5q-63 0 -114.5 7t-89.5 16q-44 11 -80 24z" />
<glyph unicode="&#x18f;" horiz-adv-x="1335" d="M74 525l13 90l13 97h901l10 71q19 137 2.5 228t-60.5 145.5t-111 77t-149 22.5q-94 0 -176.5 -17t-149.5 -39t-128 -52l18 116q49 24 109 44.5t124.5 35.5t131 23t127.5 8q166 0 282.5 -36t186.5 -105.5t94.5 -172t5.5 -234.5l-11 -78q-28 -197 -86.5 -342.5 t-148.5 -240.5t-211 -141.5t-273 -46.5q-299 0 -426 137t-88 410zM372.5 344q9.5 -91 42.5 -145.5t86 -78t121 -23.5q54 0 96 8t74 18.5t59 25.5q25 53 47 115t44.5 140.5t39.5 174.5l-600 -1l-1 -8q-18 -135 -8.5 -226z" />
<glyph unicode="&#x192;" horiz-adv-x="974" d="M-120 -420l53 121q41 -12 81 -20.5t84.5 -14.5t87.5 -6q14 21 26 51.5t24.5 72.5t20.5 100l92 650h-223l17 124h223l76 535q14 101 50 171.5t88.5 114.5t120.5 63.5t147 19.5q48 0 88.5 -6t74 -13.5t63.5 -17.5l-60 -121q-34 11 -67.5 19.5t-72.5 15t-77 6.5 q-12 -23 -22.5 -54.5t-21.5 -76t-19 -105.5l-78 -551h211l-17 -124h-211l-82 -581q-17 -119 -53.5 -198t-90 -126t-123.5 -66.5t-153 -19.5q-57 0 -104.5 5.5t-84.5 13t-68 18.5z" />
<glyph unicode="&#x1a0;" horiz-adv-x="1465" d="M46 525l11 79q52 378 242 574.5t519 196.5q307 0 439 -139q17 -18 31 -37q14 9 25 18q33 27 49.5 56.5t21.5 66.5q5 33 -1.5 61t-17 50t-26.5 41l5 40l218 57q40 -60 52 -114t5 -99q-9 -62 -40 -113.5t-94 -97.5q-57 -42 -144 -80q30 -109 9 -258l-11 -78 q-53 -379 -245.5 -575t-510.5 -196q-315 0 -445 137t-92 410zM353 570q-29 -224 46.5 -348.5t225.5 -124.5q68 0 137 16t121 43q39 86 80.5 219.5t61.5 274.5l18 133q33 239 -37.5 356t-238.5 117q-67 0 -135 -17t-118 -41q-45 -99 -84 -229t-59 -266z" />
<glyph unicode="&#x1a1;" horiz-adv-x="1120" d="M31 429l13 93q41 279 207.5 432t403.5 153q199 0 300 -79q27 16 47 32q33 27 49.5 56.5t21.5 66.5q5 33 -1.5 61t-17 50t-26.5 41l5 40l218 57q40 -60 52 -114t5 -99q-9 -62 -40 -113.5t-94 -97.5q-56 -41 -140 -78q50 -108 26 -283l-13 -95q-38 -258 -210 -416 t-400 -158q-233 0 -335.5 110.5t-70.5 340.5zM322 443q-24 -179 16.5 -267t130.5 -88q37 0 76.5 8t72.5 22q49 76 84 180.5t50 214.5l16 119q25 177 -8.5 271t-136.5 94q-36 0 -75 -7.5t-74 -21.5q-50 -88 -84.5 -193t-50.5 -213z" />
<glyph unicode="&#x1af;" horiz-adv-x="1643" d="M79 1248l20 105h537l5 -105l-131 -20l-95 -682q-31 -218 27.5 -333.5t213.5 -115.5q84 0 156.5 21t118.5 55q26 50 54.5 143.5t44.5 204.5l99 707l-131 20l20 105h428l5 -105l-131 -20l-12 -84l40 20q52 27 84.5 53.5t49 56t21.5 66.5q5 33 -1.5 61t-17 50t-26.5 41l5 40 l218 57q40 -60 52 -114t5 -99q-9 -62 -40 -113.5t-93.5 -97t-160.5 -87.5q-66 -28 -153 -57l-70 -503q-38 -274 -191 -407t-446 -133q-283 0 -398 126.5t-79 386.5l103 737z" />
<glyph unicode="&#x1b0;" horiz-adv-x="1430" d="M69 980l20 105l331 22l78 -98l-92 -670q-16 -119 -8 -176t60 -57q64 0 149 73.5t177 210.5l79 570l-131 20l20 105l331 22l81 -78l-5 -32q11 5 20 10q52 27 84.5 53.5t49 56t21.5 66.5q5 33 -1.5 61t-17 50t-26.5 41l5 40l218 57q40 -60 52 -114t5 -99q-9 -62 -40 -113.5 t-93.5 -97t-160.5 -87.5q-58 -25 -133 -50l-104 -746l131 -20l-20 -105l-330 -22l-81 78l23 167q-88 -114 -202 -179.5t-233 -65.5q-138 0 -189.5 72.5t-30.5 215.5l95 694z" />
<glyph unicode="&#x1cd;" horiz-adv-x="1277" d="M-92 105l110 20l613 1228h239l257 -1229l106 -19l-17 -105h-517l-8 105l137 19l-54 272h-437l-133 -273l133 -18l-17 -105h-404zM395 515h355l-98 492h-16zM425 1752l5 32l155 10l196 -185l263 185l124 -10l-5 -32l-304 -292l-222 10z" />
<glyph unicode="&#x1ce;" horiz-adv-x="1244" d="M77 373l26 188q37 252 195 399t391 147q94 0 211.5 -21.5t221.5 -56.5l-126 -904l132 -20l-20 -105l-330 -22l-81 78l23 169q-82 -116 -181 -181.5t-198 -65.5q-160 0 -226 96q-46 68 -46 188q0 51 8 111zM366 200q10 -94 82 -94q51 0 130.5 79.5t164.5 207.5l82 589 q-27 8 -69 14.5t-88 6.5q-37 0 -77.5 -8t-79.5 -22q-40 -75 -69 -175t-44 -206l-18 -131q-17 -118 -17 -199q0 -34 3 -62zM433 1628l4 32l157 10l169 -248l240 248l123 -10l-4 -32l-286 -373l-221 10z" />
<glyph unicode="&#x1cf;" horiz-adv-x="705" d="M-4 105l130 20l156 1103l-131 20l20 105h537l5 -105l-131 -20l-156 -1103l132 -20l-20 -105h-537zM129 1752l5 32l155 10l196 -185l263 185l124 -10l-5 -32l-304 -292l-222 10z" />
<glyph unicode="&#x1d0;" horiz-adv-x="704" d="M136 980l20 105l331 22l81 -78l-126 -904l131 -20l-20 -105l-330 -22l-81 78l125 904zM96 1628l4 32l157 10l169 -248l240 248l123 -10l-4 -32l-286 -373l-221 10z" />
<glyph unicode="&#x1d1;" horiz-adv-x="1430" d="M89 525l11 79q52 378 242 574.5t519 196.5q307 -1 439 -139q102 -107 102 -292q0 -55 -9 -117l-11 -78q-53 -379 -245.5 -575t-510.5 -196q-315 0 -445 137q-101 106 -101 293q0 55 9 117zM396 570q-8 -62 -8 -117q0 -141 54 -231q76 -124 226 -125q68 0 137 16t121 43 q39 86 80.5 219.5t61.5 274.5l18 133q11 76 11 140q-1 136 -49 216q-70 117 -238 117q-67 0 -135 -17t-118 -41q-45 -99 -84 -229t-59 -266zM517 1752l5 32l155 10l196 -185l263 185l124 -10l-5 -32l-304 -292l-222 10z" />
<glyph unicode="&#x1d2;" horiz-adv-x="1167" d="M70 429l13 93q41 279 207.5 432t403.5 153q239 0 338 -114q75 -86 75 -240q0 -50 -8 -106l-13 -95q-38 -258 -210 -416t-400 -158q-234 0 -336 110q-78 84 -78 238q0 48 8 103zM361 443q-9 -67 -9 -121q0 -91 26 -146q40 -88 130 -88q37 0 76.5 8t72.5 22q49 76 84 180.5 t50 214.5l16 119q11 76 11 136q0 81 -20 135q-34 94 -136 94q-36 0 -75 -7.5t-74 -21.5q-50 -88 -84.5 -193t-50.5 -213zM445 1628l4 32l157 10l169 -248l240 248l123 -10l-4 -32l-286 -373l-221 10z" />
<glyph unicode="&#x1d3;" horiz-adv-x="1452" d="M130 1248l20 105h537l5 -105l-131 -20l-95 -682q-11 -76 -11 -139q1 -119 39 -195q58 -116 213 -115q84 0 156.5 21t118.5 55q26 50 54.5 143.5t44.5 204.5l99 707l-131 20l20 105h428l5 -105l-131 -20l-99 -710q-38 -274 -191 -407t-446 -133q-283 0 -398 126 q-88 96 -88 271q0 54 9 116l103 737zM557 1752l5 32l155 10l196 -185l263 185l124 -10l-5 -32l-304 -292l-222 10z" />
<glyph unicode="&#x1d4;" horiz-adv-x="1344" d="M124 980l20 105l331 22l78 -98l-92 -670q-11 -79 -11 -131q0 -26 3 -45q8 -57 60 -57q64 0 149 73.5t177 210.5l79 570l-131 20l20 105l331 22l81 -78l-126 -904l131 -20l-20 -105l-330 -22l-81 78l23 167q-88 -114 -202 -179.5t-233 -65.5q-137 0 -189 72 q-37 51 -37 139q0 36 6 77l95 694zM441 1628l4 32l157 10l169 -248l240 248l123 -10l-4 -32l-286 -373l-221 10z" />
<glyph unicode="&#x1d5;" horiz-adv-x="1452" d="M130 1248l20 105h537l5 -105l-131 -20l-95 -682q-11 -76 -11 -139q1 -119 39 -195q58 -116 213 -115q84 0 156.5 21t118.5 55q26 50 54.5 143.5t44.5 204.5l99 707l-131 20l20 105h428l5 -105l-131 -20l-99 -710q-38 -274 -191 -407t-446 -133q-283 0 -398 126 q-88 96 -88 271q0 54 9 116l103 737zM500 1577q0 31 8.5 58.5t23 48t34 32.5t40.5 12q31 0 58.5 -8.5t47.5 -23t31.5 -34.5t11.5 -42q0 -30 -8.5 -57t-22.5 -48t-33.5 -33t-40.5 -12q-32 0 -59 8.5t-47.5 23.5t-32 34.5t-11.5 40.5zM535 1784l19 150h810l-19 -150h-810z M1042 1577q0 31 8.5 58.5t22.5 48t33.5 32.5t40.5 12q31 0 58.5 -8.5t48 -23t32 -34.5t11.5 -42q0 -30 -8.5 -57t-23 -48t-34 -33t-41.5 -12q-32 0 -59 8.5t-46.5 23.5t-31 34.5t-11.5 40.5z" />
<glyph unicode="&#x1d6;" horiz-adv-x="1344" d="M124 980l20 105l331 22l78 -98l-92 -670q-11 -79 -11 -131q0 -26 3 -45q8 -57 60 -57q64 0 149 73.5t177 210.5l79 570l-131 20l20 105l331 22l81 -78l-126 -904l131 -20l-20 -105l-330 -22l-81 78l23 167q-88 -114 -202 -179.5t-233 -65.5q-137 0 -189 72 q-37 51 -37 139q0 36 6 77l95 694zM388 1389q0 31 8.5 58.5t23 48t34 32.5t40.5 12q31 0 58.5 -8.5t47.5 -23.5t31.5 -34.5t11.5 -41.5q0 -30 -8.5 -57t-22.5 -48t-33.5 -33t-40.5 -12q-32 0 -59 8.5t-47.5 23.5t-32 34.5t-11.5 40.5zM424 1634l40 150h750l-40 -150h-750z M868 1389q0 31 8.5 58.5t22.5 48t33.5 32.5t40.5 12q31 0 58.5 -8.5t48 -23.5t32 -34.5t11.5 -41.5q0 -30 -8.5 -57t-23 -48t-34 -33t-41.5 -12q-32 0 -59 8.5t-46.5 23.5t-31 34.5t-11.5 40.5z" />
<glyph unicode="&#x1d7;" horiz-adv-x="1452" d="M130 1248l20 105h537l5 -105l-131 -20l-95 -682q-11 -76 -11 -139q1 -119 39 -195q58 -116 213 -115q84 0 156.5 21t118.5 55q26 50 54.5 143.5t44.5 204.5l99 707l-131 20l20 105h428l5 -105l-131 -20l-99 -710q-38 -274 -191 -407t-446 -133q-283 0 -398 126 q-88 96 -88 271q0 54 9 116l103 737zM500 1577q0 31 8.5 58.5t23 48t34 32.5t40.5 12q31 0 58.5 -8.5t47.5 -23t31.5 -34.5t11.5 -42q0 -30 -8.5 -57t-22.5 -48t-33.5 -33t-40.5 -12q-32 0 -59 8.5t-47.5 23.5t-32 34.5t-11.5 40.5zM799 1756v32l278 281l282 -10v-66 l-415 -248zM1042 1577q0 31 8.5 58.5t22.5 48t33.5 32.5t40.5 12q31 0 58.5 -8.5t48 -23t32 -34.5t11.5 -42q0 -30 -8.5 -57t-23 -48t-34 -33t-41.5 -12q-32 0 -59 8.5t-46.5 23.5t-31 34.5t-11.5 40.5z" />
<glyph unicode="&#x1d8;" horiz-adv-x="1344" d="M124 980l20 105l331 22l78 -98l-92 -670q-11 -79 -11 -131q0 -26 3 -45q8 -57 60 -57q64 0 149 73.5t177 210.5l79 570l-131 20l20 105l331 22l81 -78l-126 -904l131 -20l-20 -105l-330 -22l-81 78l23 167q-88 -114 -202 -179.5t-233 -65.5q-137 0 -189 72 q-37 51 -37 139q0 36 6 77l95 694zM388 1389q0 31 8.5 58.5t23 48t34 32.5t40.5 12q31 0 58.5 -8.5t47.5 -23.5t31.5 -34.5t11.5 -41.5q0 -30 -8.5 -57t-22.5 -48t-33.5 -33t-40.5 -12q-32 0 -59 8.5t-47.5 23.5t-32 34.5t-11.5 40.5zM718 1612l5 32l234 363l271 -10 l-10 -66l-366 -329zM868 1389q0 31 8.5 58.5t22.5 48t33.5 32.5t40.5 12q31 0 58.5 -8.5t48 -23.5t32 -34.5t11.5 -41.5q0 -30 -8.5 -57t-23 -48t-34 -33t-41.5 -12q-32 0 -59 8.5t-46.5 23.5t-31 34.5t-11.5 40.5z" />
<glyph unicode="&#x1d9;" horiz-adv-x="1452" d="M130 1248l20 105h537l5 -105l-131 -20l-95 -682q-11 -76 -11 -139q1 -119 39 -195q58 -116 213 -115q84 0 156.5 21t118.5 55q26 50 54.5 143.5t44.5 204.5l99 707l-131 20l20 105h428l5 -105l-131 -20l-99 -710q-38 -274 -191 -407t-446 -133q-283 0 -398 126 q-88 96 -88 271q0 54 9 116l103 737zM500 1577q0 31 8.5 58.5t23 48t34 32.5t40.5 12q31 0 58.5 -8.5t47.5 -23t31.5 -34.5t11.5 -42q0 -30 -8.5 -57t-22.5 -48t-33.5 -33t-40.5 -12q-32 0 -59 8.5t-47.5 23.5t-32 34.5t-11.5 40.5zM582 2037l5 32l155 10l196 -185l263 185 l124 -10l-5 -32l-304 -292l-222 10zM1042 1577q0 31 8.5 58.5t22.5 48t33.5 32.5t40.5 12q31 0 58.5 -8.5t48 -23t32 -34.5t11.5 -42q0 -30 -8.5 -57t-23 -48t-34 -33t-41.5 -12q-32 0 -59 8.5t-46.5 23.5t-31 34.5t-11.5 40.5z" />
<glyph unicode="&#x1da;" horiz-adv-x="1344" d="M124 980l20 105l331 22l78 -98l-92 -670q-11 -79 -11 -131q0 -26 3 -45q8 -57 60 -57q64 0 149 73.5t177 210.5l79 570l-131 20l20 105l331 22l81 -78l-126 -904l131 -20l-20 -105l-330 -22l-81 78l23 167q-88 -114 -202 -179.5t-233 -65.5q-137 0 -189 72 q-37 51 -37 139q0 36 6 77l95 694zM388 1389q0 31 8.5 58.5t23 48t34 32.5t40.5 12q31 0 58.5 -8.5t47.5 -23.5t31.5 -34.5t11.5 -41.5q0 -30 -8.5 -57t-22.5 -48t-33.5 -33t-40.5 -12q-32 0 -59 8.5t-47.5 23.5t-32 34.5t-11.5 40.5zM484 1965l4 32l157 10l169 -248 l240 248l123 -10l-4 -32l-286 -373l-221 10zM868 1389q0 31 8.5 58.5t22.5 48t33.5 32.5t40.5 12q31 0 58.5 -8.5t48 -23.5t32 -34.5t11.5 -41.5q0 -30 -8.5 -57t-23 -48t-34 -33t-41.5 -12q-32 0 -59 8.5t-46.5 23.5t-31 34.5t-11.5 40.5z" />
<glyph unicode="&#x1db;" horiz-adv-x="1452" d="M130 1248l20 105h537l5 -105l-131 -20l-95 -682q-11 -76 -11 -139q1 -119 39 -195q58 -116 213 -115q84 0 156.5 21t118.5 55q26 50 54.5 143.5t44.5 204.5l99 707l-131 20l20 105h428l5 -105l-131 -20l-99 -710q-38 -274 -191 -407t-446 -133q-283 0 -398 126 q-88 96 -88 271q0 54 9 116l103 737zM500 1577q0 31 8.5 58.5t23 48t34 32.5t40.5 12q31 0 58.5 -8.5t47.5 -23t31.5 -34.5t11.5 -42q0 -30 -8.5 -57t-22.5 -48t-33.5 -33t-40.5 -12q-32 0 -59 8.5t-47.5 23.5t-32 34.5t-11.5 40.5zM522 1993l9 66l283 10l219 -281l-5 -32 l-146 -11zM1042 1577q0 31 8.5 58.5t22.5 48t33.5 32.5t40.5 12q31 0 58.5 -8.5t48 -23t32 -34.5t11.5 -42q0 -30 -8.5 -57t-23 -48t-34 -33t-41.5 -12q-32 0 -59 8.5t-46.5 23.5t-31 34.5t-11.5 40.5z" />
<glyph unicode="&#x1dc;" horiz-adv-x="1344" d="M124 980l20 105l331 22l78 -98l-92 -670q-11 -79 -11 -131q0 -26 3 -45q8 -57 60 -57q64 0 149 73.5t177 210.5l79 570l-131 20l20 105l331 22l81 -78l-126 -904l131 -20l-20 -105l-330 -22l-81 78l23 167q-88 -114 -202 -179.5t-233 -65.5q-137 0 -189 72 q-37 51 -37 139q0 36 6 77l95 694zM388 1389q0 31 8.5 58.5t23 48t34 32.5t40.5 12q31 0 58.5 -8.5t47.5 -23.5t31.5 -34.5t11.5 -41.5q0 -30 -8.5 -57t-22.5 -48t-33.5 -33t-40.5 -12q-32 0 -59 8.5t-47.5 23.5t-32 34.5t-11.5 40.5zM446 1931l10 66l286 10l132 -363 l-5 -32l-149 -10zM868 1389q0 31 8.5 58.5t22.5 48t33.5 32.5t40.5 12q31 0 58.5 -8.5t48 -23.5t32 -34.5t11.5 -41.5q0 -30 -8.5 -57t-23 -48t-34 -33t-41.5 -12q-32 0 -59 8.5t-46.5 23.5t-31 34.5t-11.5 40.5z" />
<glyph unicode="&#x1e6;" horiz-adv-x="1356" d="M63 505l13 89q56 378 258.5 579.5t523.5 201.5q109 0 212 -15t183 -42l-17 -290h-168l-46 206q-42 10 -92.5 16t-94.5 6q-76 0 -154.5 -20.5t-136.5 -53.5q-52 -98 -94 -228.5t-62 -270.5l-18 -133q-8 -57 -8 -108q0 -139 61 -226q83 -119 245 -119q71 0 139 14l58 410 l-131 20l20 105h537l5 -105l-131 -20l-58 -416q-112 -57 -249.5 -92t-268.5 -35q-280 0 -421 132q-113 105 -113 292q0 48 8 103zM537 1752l5 32l155 10l196 -185l263 185l124 -10l-5 -32l-304 -292l-222 10z" />
<glyph unicode="&#x1e7;" horiz-adv-x="1167" d="M-20 -367l42 180q162 -66 289.5 -98t214.5 -32q59 52 102.5 155t65.5 251l18 134q-76 -118 -179.5 -181.5t-214.5 -63.5q-156 0 -216 100q-40 70 -40 183q0 51 8 112l26 188q36 249 194 397.5t392 148.5q96 0 208.5 -20.5t224.5 -57.5l-126 -900q-39 -264 -195.5 -425 t-377.5 -161q-100 0 -215 23.5t-221 66.5zM362 196q14 -90 77 -90q65 0 144 77.5t153 209.5l82 589q-30 9 -72.5 15t-83.5 6q-40 0 -85 -10t-80 -25q-32 -68 -59.5 -159t-46.5 -217l-18 -131q-15 -112 -15 -189q0 -44 4 -76zM413 1628l4 32l157 10l169 -248l240 248l123 -10 l-4 -32l-286 -373l-221 10z" />
<glyph unicode="&#x1f0;" horiz-adv-x="661" d="M-280 -410l48 140q45 -17 88.5 -29t90.5 -21.5t92 -9.5q18 24 33 56.5t29 78.5t24 109l144 1046l-131 20l20 105l331 22l81 -78l-152 -1076q-17 -120 -54.5 -199t-92 -126t-124 -66t-148.5 -19q-57 0 -107.5 7t-92 17t-79.5 23zM108 1628l4 32l157 10l169 -248l240 248 l123 -10l-4 -32l-286 -373l-221 10z" />
<glyph unicode="&#x1f4;" horiz-adv-x="1356" d="M63 505l13 89q56 378 258.5 579.5t523.5 201.5q109 0 212 -15t183 -42l-17 -290h-168l-46 206q-42 10 -92.5 16t-94.5 6q-76 0 -154.5 -20.5t-136.5 -53.5q-52 -98 -94 -228.5t-62 -270.5l-18 -133q-8 -57 -8 -108q0 -139 61 -226q83 -119 245 -119q71 0 139 14l58 410 l-131 20l20 105h537l5 -105l-131 -20l-58 -416q-112 -57 -249.5 -92t-268.5 -35q-280 0 -421 132q-113 105 -113 292q0 48 8 103zM732 1471v32l278 281l282 -10v-66l-415 -248z" />
<glyph unicode="&#x1f5;" horiz-adv-x="1167" d="M-20 -367l42 180q162 -66 289.5 -98t214.5 -32q59 52 102.5 155t65.5 251l18 134q-76 -118 -179.5 -181.5t-214.5 -63.5q-156 0 -216 100q-40 70 -40 183q0 51 8 112l26 188q36 249 194 397.5t392 148.5q96 0 208.5 -20.5t224.5 -57.5l-126 -900q-39 -264 -195.5 -425 t-377.5 -161q-100 0 -215 23.5t-221 66.5zM362 196q14 -90 77 -90q65 0 144 77.5t153 209.5l82 589q-30 9 -72.5 15t-83.5 6q-40 0 -85 -10t-80 -25q-32 -68 -59.5 -159t-46.5 -217l-18 -131q-15 -112 -15 -189q0 -44 4 -76zM650 1275l5 32l234 363l271 -10l-10 -66 l-366 -329z" />
<glyph unicode="&#x1fa;" horiz-adv-x="1277" d="M-92 105l110 20l613 1228h239l257 -1229l106 -19l-17 -105h-517l-8 105l137 19l-54 272h-437l-133 -273l133 -18l-17 -105h-404zM395 515h355l-98 492h-16zM571 1570q8 58 33.5 101t62 71.5t82 42.5t93.5 14q44 0 82.5 -9.5t65.5 -29.5t40 -51t7 -75q-9 -61 -33 -104.5 t-60 -71.5t-81.5 -41t-95.5 -13q-46 0 -84.5 9.5t-65.5 30t-39.5 51.5t-6.5 75zM731 1602q-7 -56 11 -85.5t53 -29.5q14 0 25 1t20 3t16 5q4 12 8 27.5t8 35t7 43.5q8 56 -11 85.5t-54 29.5q-11 0 -20 -1.5t-16.5 -3.5t-14.5 -4q-7 -12 -12.5 -27t-11 -34t-8.5 -45z M761 1850v32l278 281l282 -10v-66l-415 -248z" />
<glyph unicode="&#x1fb;" horiz-adv-x="1244" d="M77 373l26 188q37 252 195 399t391 147q94 0 211.5 -21.5t221.5 -56.5l-126 -904l132 -20l-20 -105l-330 -22l-81 78l23 169q-82 -116 -181 -181.5t-198 -65.5q-160 0 -226 96q-46 68 -46 188q0 51 8 111zM366 200q10 -94 82 -94q51 0 130.5 79.5t164.5 207.5l82 589 q-27 8 -69 14.5t-88 6.5q-37 0 -77.5 -8t-79.5 -22q-40 -75 -69 -175t-44 -206l-18 -131q-17 -118 -17 -199q0 -34 3 -62zM576 1436q9 61 34.5 106t62.5 74.5t82.5 44t93.5 14.5q44 0 82 -10t65 -31t39.5 -54.5t6.5 -79.5q-9 -64 -34 -109.5t-61 -74.5t-81.5 -42.5 t-95.5 -13.5q-46 0 -84.5 10t-65 31.5t-38.5 55t-6 79.5zM736 1468q-8 -60 10.5 -92.5t56.5 -32.5q11 0 21.5 1t19 3t16.5 5q5 14 9 30.5t7.5 38t7.5 47.5q8 60 -10.5 92.5t-55.5 32.5q-11 0 -19.5 -1.5t-16 -3.5t-13.5 -4q-7 -13 -12.5 -29t-11 -37t-9.5 -50zM805 1771 l5 32l234 363l271 -10l-10 -66l-366 -329z" />
<glyph unicode="&#x1fc;" horiz-adv-x="1836" d="M-100 105l120 20l813 1228h973l-19 -320h-146l-40 201h-386l-66 -467h297l40 127l103 -20l-56 -355l-107 -5v134h-294l-74 -529h408l105 203l140 -13l-66 -309h-1012l-5 105l130 20l40 281h-398l-185 -285l114 -16l-17 -105h-404zM478 525h337l93 661zM1060 1471v32 l278 281l282 -10v-66l-415 -248z" />
<glyph unicode="&#x1fd;" horiz-adv-x="1605" d="M14 244q11 79 56.5 144.5t129.5 113t209 74t296 26.5l14 100q12 84 2.5 140.5t-34 91t-61.5 49t-81 14.5q-29 0 -58 -2.5t-54 -6t-51 -6.5l-90 -232h-127l40 303q49 15 105 26t125.5 19.5t150.5 8.5q123 0 207.5 -27.5t129.5 -89.5q71 59 156 88t180 29q85 0 150 -18 t106 -55.5t57.5 -95t5.5 -136.5q-9 -69 -48.5 -128t-101.5 -101.5t-144 -66.5t-178 -24q-57 0 -102 2.5t-74 5.5l-7 -47q-13 -93 0 -160t45.5 -110.5t80.5 -64t104 -20.5q53 0 105 14t97 32t90 44v-106q-42 -27 -93 -46t-117 -33.5t-150 -14.5q-145 0 -235.5 46.5 t-134.5 130.5q-23 -21 -62.5 -51t-93 -58t-120.5 -48t-145 -20q-70 0 -126 17t-93.5 50.5t-53.5 83.5t-7 115zM307 263q-11 -92 15 -133.5t86 -41.5q39 0 84 20.5t85.5 46.5t70 49.5t37.5 30.5q-19 86 -4 194l9 63q-90 -1 -151.5 -9t-104 -18.5t-71.5 -26.5 q-13 -21 -23.5 -46t-19 -57.5t-13.5 -71.5zM945 592q16 -1 38 -2t46 -2t49.5 -1.5t49.5 -0.5q25 0 46 2.5t37.5 6t29.5 8.5q11 22 22 50q9 24 19 58.5t16 79.5q8 60 6.5 100t-13 63.5t-32.5 33t-51 9.5q-23 0 -43 -5t-37 -10.5t-33 -13.5q-32 -45 -58.5 -98t-51.5 -122 t-40 -156zM853 1275l5 32l234 363l271 -10l-10 -66l-366 -329z" />
<glyph unicode="&#x1fe;" horiz-adv-x="1431" d="M64 525l11 79q52 377 241 574t520 197q60 0 114 -6l77 171h135l-2 -20l-79 -175q347 -96 287 -518l-11 -78q-53 -378 -245 -574.5t-511 -196.5q-37 0 -70.5 2t-65.5 6l-78 -174h-134l2 20l81 179q-170 51 -235.5 178.5t-36.5 335.5zM370 356q16 -89 55 -147l467 1032 q-50 15 -107 15q-54 0 -100 -9t-83 -21t-70 -28q-31 -68 -56 -141.5t-49 -163t-38 -190.5l-18 -133q-17 -125 -1 -214zM527 121q52 -24 116 -24q57 0 103.5 9t84 21t70.5 29q31 69 56 143.5t48.5 163.5t37.5 187l18 133q19 144 2 238t-62 148zM712 1471v32l278 281l282 -10 v-66l-415 -248z" />
<glyph unicode="&#x1ff;" horiz-adv-x="1167" d="M70 429l13 93q20 146 76 255.5t137.5 183t183 110t214.5 36.5q17 0 32.5 -0.5t30.5 -1.5l73 160h135l-2 -20l-74 -164q61 -19 106.5 -54t72.5 -88.5t35.5 -125.5t-4.5 -166l-13 -95q-17 -121 -69 -226t-132.5 -182t-184.5 -121.5t-224 -44.5q-23 0 -44 1t-41 3l-77 -170 h-134l2 20l80 178q-125 46 -170 153.5t-22 265.5zM351 320q1 -53 9 -93l346 765q-23 5 -44 5q-32 0 -59 -5t-49 -10.5t-41 -13.5q-28 -49 -52 -107t-47 -132.5t-36 -166.5l-17 -119q-11 -70 -10 -123zM445 101q14 -7 30 -10t33 -3q31 0 58.5 4.5t49.5 10.5t41 15 q28 44 52 99t46.5 128t35.5 168l16 119q12 90 10 153t-15 105zM622 1275l5 32l234 363l271 -10l-10 -66l-366 -329z" />
<glyph unicode="&#x218;" horiz-adv-x="1203" d="M60 41l16 279h170l45 -199q36 -11 91.5 -17.5t117.5 -6.5q55 0 110 8t95 20q19 30 35 70.5t23 85.5q2 14 2 28q-1 62 -41 115q-50 65 -218 176q-209 132 -277 219q-53 68 -53 164q0 27 4 56q22 148 178 242t401 94q104 0 206 -13t178 -39l-17 -290h-158l-45 201 q-49 12 -99 17t-93 5q-55 0 -109 -8.5t-90 -19.5q-13 -23 -26 -60.5t-17 -67.5q-2 -15 -2 -29q1 -70 55 -124q66 -65 197 -147q231 -144 291 -240q46 -74 46 -164q0 -27 -4 -55q-25 -170 -184 -266.5t-404 -96.5q-131 0 -242 17.5t-182 45.5zM335 -511l53 383h206l-8 -62 l-108 -321h-143z" />
<glyph unicode="&#x219;" d="M72 48l24 260h122l31 -197q30 -10 75 -16.5t96 -6.5q40 0 80.5 4.5t76.5 13.5q14 21 26 50.5t17 63.5q2 13 2 26q0 48 -28 87q-35 49 -195 151q-167 104 -217 180q-40 61 -40 130q0 17 2 34q19 129 145.5 204t339.5 75q97 0 183.5 -19t144.5 -49l-25 -261h-121l-33 199 q-33 9 -75 14.5t-84 5.5q-35 0 -72 -5t-63 -13q-15 -18 -27 -44t-16 -53q-2 -14 -2 -28q0 -42 23 -74q31 -43 160 -121q200 -119 255 -203q43 -65 43 -146q0 -23 -4 -48q-19 -135 -154.5 -209.5t-350.5 -74.5q-96 0 -185 19t-154 51zM269 -511l53 383h206l-8 -62l-108 -321 h-143z" />
<glyph unicode="&#x21a;" horiz-adv-x="1148" d="M60 1043l56 310h1112l-27 -310h-139l-30 191h-222l-157 -1109l132 -20l-20 -105h-537l-5 105l130 20l157 1109h-227l-75 -191h-148zM290 -511l53 383h206l-8 -62l-108 -321h-143z" />
<glyph unicode="&#x21b;" horiz-adv-x="821" d="M76 981l15 104h176l29 207l303 83l-41 -290h277l-15 -104h-276l-89 -633q-10 -67 -10 -117q0 -42 7 -74q15 -69 82 -69q51 0 101.5 20.5t95.5 49.5v-106q-52 -34 -130.5 -54t-162.5 -20q-173 0 -236 92q-44 65 -44 178q0 48 8 105l87 628h-177zM237 -511l53 383h206 l-8 -62l-108 -321h-143z" />
<glyph unicode="&#x237;" horiz-adv-x="661" d="M-280 -410l48 140q45 -17 88.5 -29t90.5 -21.5t92 -9.5q18 24 33 56.5t29 78.5t24 109l144 1046l-131 20l20 105l331 22l81 -78l-152 -1076q-17 -120 -54.5 -199t-92 -126t-124 -66t-148.5 -19q-57 0 -107.5 7t-92 17t-79.5 23z" />
<glyph unicode="&#x251;" horiz-adv-x="1244" d="M77 373l26 188q37 252 195 399t391 147q94 0 211.5 -21.5t221.5 -56.5l-126 -904l132 -20l-20 -105l-330 -22l-81 78l23 169q-82 -116 -181 -181.5t-198 -65.5q-160 0 -226 96q-46 68 -46 188q0 51 8 111zM366 200q10 -94 82 -94q51 0 130.5 79.5t164.5 207.5l82 589 q-27 8 -69 14.5t-88 6.5q-37 0 -77.5 -8t-79.5 -22q-40 -75 -69 -175t-44 -206l-18 -131q-17 -118 -17 -199q0 -34 3 -62z" />
<glyph unicode="&#x259;" horiz-adv-x="967" d="M0 261q12 82 51.5 146t103 107.5t148 66t185.5 22.5q45 0 82 -4t63 -8l8 51q15 105 5.5 174t-37 109t-71 56t-96.5 16q-51 0 -104 -14t-101.5 -32.5t-97.5 -43.5v106q46 26 101.5 45t127.5 34t161 15q121 0 205.5 -29.5t133.5 -86.5t64.5 -141t0.5 -194l-13 -93 q-21 -154 -69.5 -264.5t-122 -182t-170.5 -105t-215 -33.5q-185 0 -274 70t-69 213zM295 283q-15 -106 9.5 -150.5t87.5 -44.5q26 0 47 3.5t38 8.5t32 13q20 41 38.5 92.5t37.5 121t34 162.5q-24 4 -59.5 7t-73.5 3q-27 0 -48.5 -2.5t-38.5 -5t-31 -5.5q-16 -23 -29 -51.5 t-25 -66t-19 -85.5z" />
<glyph unicode="&#x261;" horiz-adv-x="1167" d="M-20 -367l42 180q162 -66 289.5 -98t214.5 -32q59 52 102.5 155t65.5 251l18 134q-76 -118 -179.5 -181.5t-214.5 -63.5q-156 0 -216 100q-40 70 -40 183q0 51 8 112l26 188q36 249 194 397.5t392 148.5q96 0 208.5 -20.5t224.5 -57.5l-126 -900q-39 -264 -195.5 -425 t-377.5 -161q-100 0 -215 23.5t-221 66.5zM362 196q14 -90 77 -90q65 0 144 77.5t153 209.5l82 589q-30 9 -72.5 15t-83.5 6q-40 0 -85 -10t-80 -25q-32 -68 -59.5 -159t-46.5 -217l-18 -131q-15 -112 -15 -189q0 -44 4 -76z" />
<glyph unicode="&#x2bb;" horiz-adv-x="799" d="M200.5 1003q-0.5 31 5.5 73q8 60 25 116.5t52.5 114.5t95 120.5t152.5 134.5l68 -96q-57 -43 -97 -80.5t-66 -71t-39 -62t-16 -53.5q-4 -24 13 -36.5t45 -20.5q57 -15 89 -45.5t27 -68.5q-6 -42 -21 -79.5t-36 -66t-45.5 -45t-49.5 -16.5q-47 0 -95 14.5t-76 49.5 q-8 11 -15 26.5t-11.5 38t-5 53.5z" />
<glyph unicode="&#x2bc;" horiz-adv-x="800" d="M200 917q57 43 97 80.5t66 71t39 62t16 53.5q4 24 -13 36.5t-45 20.5q-57 15 -89 45.5t-27 68.5q6 42 21 79.5t36 66t45.5 45t49.5 16.5q47 0 95 -14.5t76 -49.5q8 -11 15.5 -26.5t12 -38t5 -53.5t-5.5 -73q-9 -60 -26 -116.5t-52.5 -114.5t-95 -120.5t-152.5 -134.5z " />
<glyph unicode="&#x2be;" horiz-adv-x="548" d="M244 1260l13 93q29 0 44.5 4t22.5 7q4 11 8 26t8 34t8 44q8 62 -10.5 88.5t-47.5 26.5l13 92q46 0 85.5 -11t67.5 -34.5t41 -60.5t6 -89q-8 -59 -31.5 -100.5t-58 -68t-78 -39t-91.5 -12.5z" />
<glyph unicode="&#x2bf;" horiz-adv-x="548" d="M43 1456q8 58 32.5 101t60 71.5t79 42.5t89.5 14l-14 -102q-13 0 -23 -1.5t-18.5 -3.5t-15.5 -4q-7 -11 -12.5 -23t-10.5 -27.5t-8 -35.5q-5 -35 -2.5 -60.5t10.5 -42t20.5 -24.5t26.5 -8l-14 -103q-48 0 -88.5 12t-67.5 37t-39.5 64t-4.5 93z" />
<glyph unicode="&#x2c6;" horiz-adv-x="914" d="M93 1275l4 32l286 373l221 -10l182 -363l-4 -32l-157 -10l-170 247l-239 -247z" />
<glyph unicode="&#x2c7;" horiz-adv-x="1093" d="M200 1628l4 32l157 10l169 -248l240 248l123 -10l-4 -32l-286 -373l-221 10z" />
<glyph unicode="&#x2c8;" horiz-adv-x="715" d="M250 1266l57 404h158l-57 -404h-158z" />
<glyph unicode="&#x2c9;" horiz-adv-x="1090" d="M150 1333l40 150h750l-40 -150h-750z" />
<glyph unicode="&#x2ca;" horiz-adv-x="910" d="M200 1275l5 32l234 363l271 -10l-10 -66l-366 -329z" />
<glyph unicode="&#x2cb;" horiz-adv-x="828" d="M200 1594l10 66l286 10l132 -363l-5 -32l-149 -10z" />
<glyph unicode="&#x2cc;" horiz-adv-x="715" d="M250 -593l57 404h158l-57 -404h-158z" />
<glyph unicode="&#x2d8;" horiz-adv-x="960" d="M158 1592l108 10q-3 -18 4.5 -45t30 -52t62 -42.5t100.5 -17.5t105 17.5t73.5 42.5t44.5 52t18 45l106 -10q-8 -59 -37.5 -117.5t-77.5 -105t-113 -75.5t-144 -29t-136 29t-91.5 75.5t-47.5 105t-5 117.5z" />
<glyph unicode="&#x2d9;" horiz-adv-x="784" d="M250 1395q0 34 9.5 64t25.5 53t37.5 36.5t45.5 13.5q34 0 64.5 -9.5t53 -25.5t35.5 -37.5t13 -46.5q0 -33 -9.5 -63.5t-25.5 -53t-37.5 -36t-45.5 -13.5q-35 0 -65 9.5t-52.5 25.5t-35.5 37.5t-13 45.5z" />
<glyph unicode="&#x2da;" horiz-adv-x="878" d="M206 1436q9 61 34.5 106t62.5 74.5t82.5 44t93.5 14.5q44 0 82 -10t65 -31t39.5 -54.5t6.5 -79.5q-9 -64 -34 -109.5t-61 -74.5t-81.5 -42.5t-95.5 -13.5q-46 0 -84.5 10t-65 31.5t-38.5 55t-6 79.5zM366 1468q-8 -60 10.5 -92.5t56.5 -32.5q11 0 21.5 1t19 3t16.5 5 q5 14 9 30.5t7.5 38t7.5 47.5q8 60 -10.5 92.5t-55.5 32.5q-11 0 -19.5 -1.5t-16 -3.5t-13.5 -4q-7 -13 -12.5 -29t-11 -37t-9.5 -50z" />
<glyph unicode="&#x2db;" horiz-adv-x="821" d="M205 -316q8 59 44 118t91.5 115t127 109t151.5 101v-127q-92 -67 -149.5 -138t-67.5 -136q-6 -41 6.5 -57t42.5 -16q22 0 51 12t57.5 28.5t61.5 39.5l-16 -103q-33 -25 -69.5 -43t-82.5 -31t-99 -13q-40 0 -70.5 7t-49.5 23t-26.5 43t-2.5 68z" />
<glyph unicode="&#x2dc;" horiz-adv-x="1183" d="M150 1257l7 50q18 127 88.5 190.5t177.5 63.5q58 0 115 -20.5t108 -45.5t94.5 -45.5t74.5 -20.5q38 0 64 29.5t36 90.5l118 10l-10 -72q-17 -119 -82.5 -186.5t-171.5 -67.5q-52 0 -111 20.5t-115 45.5t-104 45.5t-78 20.5q-40 0 -66 -19t-35 -79z" />
<glyph unicode="&#x2dd;" horiz-adv-x="1186" d="M150 1275l5 32l234 363l271 -10l-10 -66l-366 -329zM526 1275l5 32l234 363l271 -10l-10 -66l-366 -329z" />
<glyph unicode="&#x2f3;" horiz-adv-x="878" d="M206 -405q9 61 34.5 106t62.5 74.5t82.5 44t93.5 14.5q44 0 82 -10t65 -31t39.5 -54.5t6.5 -79.5q-9 -64 -34 -109.5t-61 -74.5t-81.5 -42.5t-95.5 -13.5q-46 0 -84.5 10t-65 31.5t-38.5 55t-6 79.5zM366 -373q-8 -60 10.5 -92.5t56.5 -32.5q11 0 19.5 1t18.5 3t19 5 q5 16 9 32t8 36.5t7 47.5q8 60 -10.5 92.5t-55.5 32.5q-11 0 -19.5 -1.5t-16 -3.5t-13.5 -4q-7 -13 -12.5 -29t-11 -37t-9.5 -50z" />
<glyph unicode="&#x300;" horiz-adv-x="0" d="M-622 1594l10 66l286 10l132 -363l-5 -32l-149 -10z" />
<glyph unicode="&#x301;" horiz-adv-x="0" d="M-712 1275l5 32l234 363l271 -10l-10 -66l-366 -329z" />
<glyph unicode="&#x302;" horiz-adv-x="0" d="M-899 1275l4 32l286 373l221 -10l182 -363l-4 -32l-157 -10l-170 247l-239 -247z" />
<glyph unicode="&#x303;" horiz-adv-x="0" d="M-1040 1257l7 50q18 127 88.5 190.5t177.5 63.5q58 0 115 -20.5t108 -45.5t94.5 -45.5t74.5 -20.5q38 0 64 29.5t36 90.5l118 10l-10 -72q-17 -119 -82.5 -186.5t-171.5 -67.5q-52 0 -111 20.5t-115 45.5t-104 45.5t-78 20.5q-40 0 -66 -19t-35 -79z" />
<glyph unicode="&#x304;" horiz-adv-x="0" d="M-937 1333l40 150h750l-40 -150h-750z" />
<glyph unicode="&#x306;" horiz-adv-x="0" d="M-806 1592l108 10q-3 -18 4.5 -45t30 -52t62 -42.5t100.5 -17.5t105 17.5t73.5 42.5t44.5 52t18 45l106 -10q-8 -59 -37.5 -117.5t-77.5 -105t-113 -75.5t-144 -29t-136 29t-91.5 75.5t-47.5 105t-5 117.5z" />
<glyph unicode="&#x307;" horiz-adv-x="0" d="M-512 1395q0 34 9.5 64t25.5 53t37.5 36.5t45.5 13.5q34 0 64.5 -9.5t53 -25.5t35.5 -37.5t13 -46.5q0 -33 -9.5 -63.5t-25.5 -53t-37.5 -36t-45.5 -13.5q-35 0 -65 9.5t-52.5 25.5t-35.5 37.5t-13 45.5z" />
<glyph unicode="&#x308;" horiz-adv-x="0" d="M-888 1389q0 31 8.5 58.5t23 48t34 32.5t40.5 12q31 0 58.5 -8.5t47.5 -23.5t31.5 -34.5t11.5 -41.5q0 -30 -8.5 -57t-22.5 -48t-33.5 -33t-40.5 -12q-32 0 -59 8.5t-47.5 23.5t-32 34.5t-11.5 40.5zM-408 1389q0 31 8.5 58.5t22.5 48t33.5 32.5t40.5 12q31 0 58.5 -8.5 t48 -23.5t32 -34.5t11.5 -41.5q0 -30 -8.5 -57t-23 -48t-34 -33t-41.5 -12q-32 0 -59 8.5t-46.5 23.5t-31 34.5t-11.5 40.5z" />
<glyph unicode="&#x309;" horiz-adv-x="0" d="M-627 1482l19 133q31 15 66 26.5t78 20t93 8.5q87 0 132.5 -35.5t36.5 -105.5q-7 -52 -44 -90t-93 -67q-25 -13 -41.5 -22.5t-27 -17.5t-15.5 -14.5t-6 -13.5q-2 -11 0.5 -19.5t4.5 -13.5l-95 -27q-9 14 -14 29t-8 31.5t0 33.5q1 13 5.5 27t14 28t25.5 29.5t41 31.5 q44 28 60.5 45t18.5 37t-7.5 35t-37.5 15q-13 0 -24 -2.5t-21 -6t-18 -6.5l-36 -94z" />
<glyph unicode="&#x30a;" horiz-adv-x="0" d="M-664 1436q9 61 34.5 106t62.5 74.5t82.5 44t93.5 14.5q44 0 82 -10t65 -31t39.5 -54.5t6.5 -79.5q-9 -64 -34 -109.5t-61 -74.5t-81.5 -42.5t-95.5 -13.5q-46 0 -84.5 10t-65 31.5t-38.5 55t-6 79.5zM-504 1468q-8 -60 10.5 -92.5t56.5 -32.5q11 0 21.5 1t19 3t16.5 5 q5 14 9 30.5t7.5 38t7.5 47.5q8 60 -10.5 92.5t-55.5 32.5q-11 0 -19.5 -1.5t-16 -3.5t-13.5 -4q-7 -13 -12.5 -29t-11 -37t-9.5 -50z" />
<glyph unicode="&#x30b;" horiz-adv-x="0" d="M-1043 1275l5 32l234 363l271 -10l-10 -66l-366 -329zM-667 1275l5 32l234 363l271 -10l-10 -66l-366 -329z" />
<glyph unicode="&#x30c;" horiz-adv-x="0" d="M-896 1628l4 32l157 10l169 -248l240 248l123 -10l-4 -32l-286 -373l-221 10z" />
<glyph unicode="&#x30f;" horiz-adv-x="1118" d="M150 1594l10 66l286 10l132 -363l-5 -32l-149 -10zM540 1594l10 66l286 10l132 -363l-5 -32l-149 -10z" />
<glyph unicode="&#x31b;" horiz-adv-x="0" d="M-736 838l17 112q75 31 126.5 57.5t84 53t49 56t21.5 66.5q5 33 -1.5 61t-17 50t-26.5 41l5 40l218 57q40 -60 52 -114t5 -99q-9 -62 -40 -113.5t-93.5 -97t-160 -87t-239.5 -83.5z" />
<glyph unicode="&#x323;" horiz-adv-x="0" d="M-528 -339q0 34 9.5 64t25.5 53t37.5 36.5t45.5 13.5q34 0 64.5 -9.5t53 -25.5t35.5 -37.5t13 -46.5q0 -33 -9.5 -63.5t-25.5 -53t-37.5 -36t-45.5 -13.5q-35 0 -65 9.5t-52.5 25.5t-35.5 37.5t-13 45.5z" />
<glyph unicode="&#x324;" horiz-adv-x="0" d="M-884 -291q0 31 8.5 58.5t23 48t34 32.5t40.5 12q31 0 58.5 -8.5t47.5 -23.5t31.5 -34.5t11.5 -41.5q0 -30 -8.5 -57t-22.5 -48t-33.5 -33t-40.5 -12q-32 0 -59 8.5t-47.5 23.5t-32 34.5t-11.5 40.5zM-404 -291q0 31 8.5 58.5t22.5 48t33.5 32.5t40.5 12q31 0 58.5 -8.5 t48 -23.5t32 -34.5t11.5 -41.5q0 -30 -8.5 -57t-23 -48t-34 -33t-41.5 -12q-32 0 -59 8.5t-46.5 23.5t-31 34.5t-11.5 40.5z" />
<glyph unicode="&#x326;" horiz-adv-x="0" d="M-513 -511l53 383h206l-8 -62l-108 -321h-143z" />
<glyph unicode="&#x327;" horiz-adv-x="0" d="M-671 -410l13 93q26 -11 53 -19.5t59 -14.5t61 -6q22 0 39.5 2t29.5 5q4 6 7 12.5t6 16.5t5 24q3 24 -1 41.5t-18 30.5t-39 22.5t-63 16.5l-26 64l80 159h142l-72 -142q49 -9 87 -22.5t63 -34.5t35.5 -51t4.5 -71q-6 -39 -27 -71t-55.5 -54.5t-81.5 -35t-104 -12.5 q-42 0 -79 7t-66.5 17t-52.5 23z" />
<glyph unicode="&#x328;" horiz-adv-x="0" d="M-619 -316q8 59 44 118t91.5 115t127 109t151.5 101v-127q-92 -67 -149.5 -138t-67.5 -136q-6 -41 6.5 -57t42.5 -16q22 0 51 12t57.5 28.5t61.5 39.5l-16 -103q-33 -25 -69.5 -43t-82.5 -31t-99 -13q-40 0 -70.5 7t-49.5 23t-26.5 43t-2.5 68z" />
<glyph unicode="&#x32e;" horiz-adv-x="0" d="M-808 -176l108 10q-3 -18 4.5 -45t30 -52t62 -42.5t100.5 -17.5t105 17.5t73.5 42.5t44.5 52t18 45l106 -10q-8 -59 -37.5 -117.5t-77.5 -105t-113 -75.5t-144 -29t-136 29t-91.5 75.5t-47.5 105t-5 117.5z" />
<glyph unicode="&#x331;" horiz-adv-x="0" d="M-942 -338l40 150h750l-40 -150h-750z" />
<glyph unicode="&#x3bc;" horiz-adv-x="1409" d="M58 -457l197 1417l-131 20l20 105l331 22l78 -98l-92 -670q-10 -72 -11 -117.5t7 -71t24 -35t41 -9.5q27 0 59 17.5t64.5 45t63.5 61t57.5 64.5t45 56.5t26.5 37.5l80 572l-131 20l20 105l331 22l81 -78l-123 -877l158 -34l-37 -118q-27 -7 -58 -11q-26 -5 -59.5 -8 t-69.5 -3q-67 0 -109.5 24.5t-66.5 61t-32 79.5t-6 79q-8 -13 -25.5 -36t-42.5 -50t-57 -55t-69.5 -51t-80 -37.5t-87.5 -14.5q-54 0 -86 15.5t-53 42.5l-10 -10l46 -461z" />
<glyph unicode="&#x3c0;" horiz-adv-x="1461" d="M140 88q31 36 78.5 100t99 155.5t102 210.5t88.5 263h-6q-51 0 -92 -4.5t-75 -19t-63 -41t-56 -71.5l-71 17q27 96 63 171.5t85.5 128.5t114.5 81t149 28q42 0 95 -2.5t111.5 -6t119.5 -7.5t119 -7.5t109.5 -6t91.5 -2.5q45 0 77.5 1.5t54.5 3.5q26 2 43 5l48 72l75 -22 q-15 -56 -38.5 -117.5t-62.5 -113t-97.5 -85t-145.5 -34.5l-86 -615l191 -34l-39 -136q-24 -7 -51 -11q-23 -5 -53 -8t-62 -3q-70 0 -124 15.5t-89 47t-49.5 79t-5.5 111.5l79 565q-46 3 -89.5 6.5t-85.5 5.5q-32 -151 -70 -279t-77 -230t-77 -177.5t-70 -121.5l-254 -22z " />
<glyph unicode="&#x1e00;" horiz-adv-x="1277" d="M-92 105l110 20l613 1228h239l257 -1229l106 -19l-17 -105h-517l-8 105l137 19l-54 272h-437l-133 -273l133 -18l-17 -105h-404zM395 515h355l-98 492h-16zM208 -405q9 61 34.5 106t62.5 74.5t82.5 44t93.5 14.5q44 0 82 -10t65 -31t39.5 -54.5t6.5 -79.5 q-9 -64 -34 -109.5t-61 -74.5t-81.5 -42.5t-95.5 -13.5q-46 0 -84.5 10t-65 31.5t-38.5 55t-6 79.5zM368 -373q-8 -60 10.5 -92.5t56.5 -32.5q11 0 19.5 1t18.5 3t19 5q5 16 9 32t8 36.5t7 47.5q8 60 -10.5 92.5t-55.5 32.5q-11 0 -19.5 -1.5t-16 -3.5t-13.5 -4 q-7 -13 -12.5 -29t-11 -37t-9.5 -50z" />
<glyph unicode="&#x1e01;" horiz-adv-x="1244" d="M77 373l26 188q37 252 195 399t391 147q94 0 211.5 -21.5t221.5 -56.5l-126 -904l132 -20l-20 -105l-330 -22l-81 78l23 169q-82 -116 -181 -181.5t-198 -65.5q-160 0 -226 96q-46 68 -46 188q0 51 8 111zM366 200q10 -94 82 -94q51 0 130.5 79.5t164.5 207.5l82 589 q-27 8 -69 14.5t-88 6.5q-37 0 -77.5 -8t-79.5 -22q-40 -75 -69 -175t-44 -206l-18 -131q-17 -118 -17 -199q0 -34 3 -62zM238 -405q9 61 34.5 106t62.5 74.5t82.5 44t93.5 14.5q44 0 82 -10t65 -31t39.5 -54.5t6.5 -79.5q-9 -64 -34 -109.5t-61 -74.5t-81.5 -42.5 t-95.5 -13.5q-46 0 -84.5 10t-65 31.5t-38.5 55t-6 79.5zM398 -373q-8 -60 10.5 -92.5t56.5 -32.5q11 0 19.5 1t18.5 3t19 5q5 16 9 32t8 36.5t7 47.5q8 60 -10.5 92.5t-55.5 32.5q-11 0 -19.5 -1.5t-16 -3.5t-13.5 -4q-7 -13 -12.5 -29t-11 -37t-9.5 -50z" />
<glyph unicode="&#x1e0a;" horiz-adv-x="1438" d="M0 105l130 20l156 1103l-131 20l20 105h596q340 1 482 -153q109 -118 109 -325q0 -63 -10 -133l-12 -88q-44 -313 -231.5 -483.5t-480.5 -170.5h-623zM430 119h163q72 0 140.5 9t123.5 30q57 75 107.5 196t71.5 268l13 94q12 84 12 154q-1 152 -55 238q-80 126 -282 126 h-137zM650 1584q0 34 9.5 64t25.5 53t37.5 36.5t45.5 13.5q34 0 64.5 -9.5t53 -25.5t35.5 -37.5t13 -46.5q0 -33 -9.5 -63.5t-25.5 -53t-37.5 -36t-45.5 -13.5q-35 0 -65 9.5t-52.5 25.5t-35.5 37.5t-13 45.5z" />
<glyph unicode="&#x1e0c;" horiz-adv-x="1438" d="M0 105l130 20l156 1103l-131 20l20 105h596q340 1 482 -153q109 -118 109 -325q0 -63 -10 -133l-12 -88q-44 -313 -231.5 -483.5t-480.5 -170.5h-623zM430 119h163q72 0 140.5 9t123.5 30q57 75 107.5 196t71.5 268l13 94q12 84 12 154q-1 152 -55 238q-80 126 -282 126 h-137zM369 -339q0 34 9.5 64t25.5 53t37.5 36.5t45.5 13.5q34 0 64.5 -9.5t53 -25.5t35.5 -37.5t13 -46.5q0 -33 -9.5 -63.5t-25.5 -53t-37.5 -36t-45.5 -13.5q-35 0 -65 9.5t-52.5 25.5t-35.5 37.5t-13 45.5z" />
<glyph unicode="&#x1e0d;" horiz-adv-x="1233" d="M74 373l26 188q38 256 197.5 401t390.5 145q35 0 72 -3t79 -9l44 320l-131 20l20 105l330 22l81 -78l-190 -1359l132 -20l-20 -105l-330 -22l-81 78l24 171q-83 -123 -181.5 -186t-198.5 -63q-154 0 -222 100q-50 72 -49 194q0 47 7 101zM366 186q16 -80 78 -80 q56 0 132 71t165 216l83 594q-25 6 -66.5 11t-88.5 5q-41 0 -84.5 -9t-77.5 -24q-38 -74 -67 -171t-45 -207l-18 -131q-16 -123 -16 -200q-1 -45 5 -75zM355 -339q0 34 9.5 64t25.5 53t37.5 36.5t45.5 13.5q34 0 64.5 -9.5t53 -25.5t35.5 -37.5t13 -46.5q0 -33 -9.5 -63.5 t-25.5 -53t-37.5 -36t-45.5 -13.5q-35 0 -65 9.5t-52.5 25.5t-35.5 37.5t-13 45.5z" />
<glyph unicode="&#x1e0e;" horiz-adv-x="1438" d="M0 105l130 20l156 1103l-131 20l20 105h596q340 1 482 -153q109 -118 109 -325q0 -63 -10 -133l-12 -88q-44 -313 -231.5 -483.5t-480.5 -170.5h-623zM430 119h163q72 0 140.5 9t123.5 30q57 75 107.5 196t71.5 268l13 94q12 84 12 154q-1 152 -55 238q-80 126 -282 126 h-137zM142 -338l40 150h750l-40 -150h-750z" />
<glyph unicode="&#x1e0f;" horiz-adv-x="1233" d="M74 373l26 188q38 256 197.5 401t390.5 145q35 0 72 -3t79 -9l44 320l-131 20l20 105l330 22l81 -78l-190 -1359l132 -20l-20 -105l-330 -22l-81 78l24 171q-83 -123 -181.5 -186t-198.5 -63q-154 0 -222 100q-50 72 -49 194q0 47 7 101zM366 186q16 -80 78 -80 q56 0 132 71t165 216l83 594q-25 6 -66.5 11t-88.5 5q-41 0 -84.5 -9t-77.5 -24q-38 -74 -67 -171t-45 -207l-18 -131q-16 -123 -16 -200q-1 -45 5 -75zM128 -338l40 150h750l-40 -150h-750z" />
<glyph unicode="&#x1e20;" horiz-adv-x="1356" d="M63 505l13 89q56 378 258.5 579.5t523.5 201.5q109 0 212 -15t183 -42l-17 -290h-168l-46 206q-42 10 -92.5 16t-94.5 6q-76 0 -154.5 -20.5t-136.5 -53.5q-52 -98 -94 -228.5t-62 -270.5l-18 -133q-8 -57 -8 -108q0 -139 61 -226q83 -119 245 -119q71 0 139 14l58 410 l-131 20l20 105h537l5 -105l-131 -20l-58 -416q-112 -57 -249.5 -92t-268.5 -35q-280 0 -421 132q-113 105 -113 292q0 48 8 103zM472 1530l19 150h810l-19 -150h-810z" />
<glyph unicode="&#x1e21;" horiz-adv-x="1167" d="M-20 -367l42 180q162 -66 289.5 -98t214.5 -32q59 52 102.5 155t65.5 251l18 134q-76 -118 -179.5 -181.5t-214.5 -63.5q-156 0 -216 100q-40 70 -40 183q0 51 8 112l26 188q36 249 194 397.5t392 148.5q96 0 208.5 -20.5t224.5 -57.5l-126 -900q-39 -264 -195.5 -425 t-377.5 -161q-100 0 -215 23.5t-221 66.5zM362 196q14 -90 77 -90q65 0 144 77.5t153 209.5l82 589q-30 9 -72.5 15t-83.5 6q-40 0 -85 -10t-80 -25q-32 -68 -59.5 -159t-46.5 -217l-18 -131q-15 -112 -15 -189q0 -44 4 -76zM345 1333l40 150h750l-40 -150h-750z" />
<glyph unicode="&#x1e24;" horiz-adv-x="1529" d="M-4 105l130 20l156 1103l-131 20l20 105h537l5 -105l-131 -20l-63 -450h524l63 450l-131 20l20 105h537l5 -105l-131 -20l-156 -1103l132 -20l-20 -105h-537l-5 105l130 20l76 534h-524l-76 -534l132 -20l-20 -105h-537zM511 -339q0 34 9.5 64t25.5 53t37.5 36.5 t45.5 13.5q34 0 64.5 -9.5t53 -25.5t35.5 -37.5t13 -46.5q0 -33 -9.5 -63.5t-25.5 -53t-37.5 -36t-45.5 -13.5q-35 0 -65 9.5t-52.5 25.5t-35.5 37.5t-13 45.5z" />
<glyph unicode="&#x1e25;" horiz-adv-x="1346" d="M114 0l197 1415l-131 20l20 105l330 22l81 -78l-87 -625q93 121 204 184.5t225 63.5q144 0 196 -74q37 -52 37 -144q0 -39 -7 -85l-93 -679l132 -20l-20 -105l-330 -22l-82 78l93 675q14 103 14 158q0 25 -3 41q-9 50 -53 49q-64 0 -153 -76.5t-183 -210.5l-99 -714z M446 -339q0 34 9.5 64t25.5 53t37.5 36.5t45.5 13.5q34 0 64.5 -9.5t53 -25.5t35.5 -37.5t13 -46.5q0 -33 -9.5 -63.5t-25.5 -53t-37.5 -36t-45.5 -13.5q-35 0 -65 9.5t-52.5 25.5t-35.5 37.5t-13 45.5z" />
<glyph unicode="&#x1e2a;" horiz-adv-x="1529" d="M-4 105l130 20l156 1103l-131 20l20 105h537l5 -105l-131 -20l-63 -450h524l63 450l-131 20l20 105h537l5 -105l-131 -20l-156 -1103l132 -20l-20 -105h-537l-5 105l130 20l76 534h-524l-76 -534l132 -20l-20 -105h-537zM324 -176l108 10q-3 -18 4.5 -45t30 -52t62 -42.5 t100.5 -17.5t105 17.5t73.5 42.5t44.5 52t18 45l106 -10q-8 -59 -37.5 -117.5t-77.5 -105t-113 -75.5t-144 -29t-136 29t-91.5 75.5t-47.5 105t-5 117.5z" />
<glyph unicode="&#x1e2b;" horiz-adv-x="1346" d="M114 0l197 1415l-131 20l20 105l330 22l81 -78l-87 -625q93 121 204 184.5t225 63.5q144 0 196 -74q37 -52 37 -144q0 -39 -7 -85l-93 -679l132 -20l-20 -105l-330 -22l-82 78l93 675q14 103 14 158q0 25 -3 41q-9 50 -53 49q-64 0 -153 -76.5t-183 -210.5l-99 -714z M259 -176l108 10q-3 -18 4.5 -45t30 -52t62 -42.5t100.5 -17.5t105 17.5t73.5 42.5t44.5 52t18 45l106 -10q-8 -59 -37.5 -117.5t-77.5 -105t-113 -75.5t-144 -29t-136 29t-91.5 75.5t-47.5 105t-5 117.5z" />
<glyph unicode="&#x1e36;" horiz-adv-x="1033" d="M-6 105l130 20l156 1103l-131 20l20 105h567l5 -105l-161 -20l-156 -1109h298l110 213l141 -12l-68 -320h-906zM272 -339q0 34 9.5 64t25.5 53t37.5 36.5t45.5 13.5q34 0 64.5 -9.5t53 -25.5t35.5 -37.5t13 -46.5q0 -33 -9.5 -63.5t-25.5 -53t-37.5 -36t-45.5 -13.5 q-35 0 -65 9.5t-52.5 25.5t-35.5 37.5t-13 45.5z" />
<glyph unicode="&#x1e37;" horiz-adv-x="666" d="M116 56l189 1359l-131 20l20 105l331 22l81 -78l-190 -1359l131 -20l-20 -105l-330 -22zM104 -339q0 34 9.5 64t25.5 53t37.5 36.5t45.5 13.5q34 0 64.5 -9.5t53 -25.5t35.5 -37.5t13 -46.5q0 -33 -9.5 -63.5t-25.5 -53t-37.5 -36t-45.5 -13.5q-35 0 -65 9.5t-52.5 25.5 t-35.5 37.5t-13 45.5z" />
<glyph unicode="&#x1e38;" horiz-adv-x="1033" d="M-6 105l130 20l156 1103l-131 20l20 105h567l5 -105l-161 -20l-156 -1109h298l110 213l141 -12l-68 -320h-906zM272 -339q0 34 9.5 64t25.5 53t37.5 36.5t45.5 13.5q34 0 64.5 -9.5t53 -25.5t35.5 -37.5t13 -46.5q0 -33 -9.5 -63.5t-25.5 -53t-37.5 -36t-45.5 -13.5 q-35 0 -65 9.5t-52.5 25.5t-35.5 37.5t-13 45.5zM74 1530l19 150h810l-19 -150h-810z" />
<glyph unicode="&#x1e39;" horiz-adv-x="666" d="M116 56l189 1359l-131 20l20 105l331 22l81 -78l-190 -1359l131 -20l-20 -105l-330 -22zM104 -339q0 34 9.5 64t25.5 53t37.5 36.5t45.5 13.5q34 0 64.5 -9.5t53 -25.5t35.5 -37.5t13 -46.5q0 -33 -9.5 -63.5t-25.5 -53t-37.5 -36t-45.5 -13.5q-35 0 -65 9.5t-52.5 25.5 t-35.5 37.5t-13 45.5zM70 1740l19 150h810l-19 -150h-810z" />
<glyph unicode="&#x1e3a;" horiz-adv-x="1033" d="M-6 105l130 20l156 1103l-131 20l20 105h567l5 -105l-161 -20l-156 -1109h298l110 213l141 -12l-68 -320h-906zM45 -338l40 150h750l-40 -150h-750z" />
<glyph unicode="&#x1e3b;" horiz-adv-x="666" d="M116 56l189 1359l-131 20l20 105l331 22l81 -78l-190 -1359l131 -20l-20 -105l-330 -22zM-123 -338l40 150h750l-40 -150h-750z" />
<glyph unicode="&#x1e3e;" horiz-adv-x="2035" d="M-4 105l130 20l156 1103l-131 20l20 105h544l240 -964h17l513 964h553l5 -105l-131 -20l-156 -1103l132 -20l-20 -105h-537l-5 105l130 20l147 1037h-16l-626 -1162h-185l-297 1162h-16l-147 -1037l132 -20l-20 -105h-427zM1020 1471v32l278 281l282 -10v-66l-415 -248z " />
<glyph unicode="&#x1e3f;" horiz-adv-x="2015" d="M132 0l132 960l-131 20l20 105l331 22l81 -78l-24 -170q97 121 210 184.5t223 63.5q126 -1 180 -63q45 -52 44 -147q0 -20 -1 -41q94 123 206 187t225 64q138 -1 191 -71q38 -50 38 -140q0 -36 -6 -77l-95 -694l131 -20l-20 -105l-330 -22l-81 78l93 675q13 96 13 155 q0 17 -1 31q-5 62 -52 62q-61 0 -145.5 -71t-188.5 -216l-77 -567l131 -20l-20 -105l-330 -22l-81 78l93 675q13 96 13 154q0 19 -1 34q-6 60 -53 60q-62 0 -147 -71.5t-185 -215.5l-100 -714zM1060 1275l5 32l234 363l271 -10l-10 -66l-366 -329z" />
<glyph unicode="&#x1e42;" horiz-adv-x="2035" d="M-4 105l130 20l156 1103l-131 20l20 105h544l240 -964h17l513 964h553l5 -105l-131 -20l-156 -1103l132 -20l-20 -105h-537l-5 105l130 20l147 1037h-16l-626 -1162h-185l-297 1162h-16l-147 -1037l132 -20l-20 -105h-427zM698 -339q0 34 9.5 64t25.5 53t37.5 36.5 t45.5 13.5q34 0 64.5 -9.5t53 -25.5t35.5 -37.5t13 -46.5q0 -33 -9.5 -63.5t-25.5 -53t-37.5 -36t-45.5 -13.5q-35 0 -65 9.5t-52.5 25.5t-35.5 37.5t-13 45.5z" />
<glyph unicode="&#x1e43;" horiz-adv-x="2015" d="M132 0l132 960l-131 20l20 105l331 22l81 -78l-24 -170q97 121 210 184.5t223 63.5q126 -1 180 -63q45 -52 44 -147q0 -20 -1 -41q94 123 206 187t225 64q138 -1 191 -71q38 -50 38 -140q0 -36 -6 -77l-95 -694l131 -20l-20 -105l-330 -22l-81 78l93 675q13 96 13 155 q0 17 -1 31q-5 62 -52 62q-61 0 -145.5 -71t-188.5 -216l-77 -567l131 -20l-20 -105l-330 -22l-81 78l93 675q13 96 13 154q0 19 -1 34q-6 60 -53 60q-62 0 -147 -71.5t-185 -215.5l-100 -714zM777 -339q0 34 9.5 64t25.5 53t37.5 36.5t45.5 13.5q34 0 64.5 -9.5t53 -25.5 t35.5 -37.5t13 -46.5q0 -33 -9.5 -63.5t-25.5 -53t-37.5 -36t-45.5 -13.5q-35 0 -65 9.5t-52.5 25.5t-35.5 37.5t-13 45.5z" />
<glyph unicode="&#x1e44;" horiz-adv-x="1549" d="M-8 105l130 20l156 1103l-131 20l20 105h503l444 -1118h16l139 993l-131 20l20 105h428l5 -105l-131 -20l-173 -1228h-373l-445 1120h-16l-141 -995l132 -20l-20 -105h-427zM824 1584q0 34 9.5 64t25.5 53t37.5 36.5t45.5 13.5q34 0 64.5 -9.5t53 -25.5t35.5 -37.5 t13 -46.5q0 -33 -9.5 -63.5t-25.5 -53t-37.5 -36t-45.5 -13.5q-35 0 -65 9.5t-52.5 25.5t-35.5 37.5t-13 45.5z" />
<glyph unicode="&#x1e45;" horiz-adv-x="1362" d="M132 0l132 960l-131 20l20 105l331 22l81 -78l-24 -170q94 118 204.5 183t218.5 65q147 0 201 -71q39 -51 39 -141q0 -35 -6 -76l-95 -694l131 -20l-20 -105l-330 -22l-81 78l93 675q13 91 13 148q0 24 -2 41q-8 59 -52 59q-55 0 -141.5 -71.5t-195.5 -215.5l-100 -714z M712 1395q0 34 9.5 64t25.5 53t37.5 36.5t45.5 13.5q34 0 64.5 -9.5t53 -25.5t35.5 -37.5t13 -46.5q0 -33 -9.5 -63.5t-25.5 -53t-37.5 -36t-45.5 -13.5q-35 0 -65 9.5t-52.5 25.5t-35.5 37.5t-13 45.5z" />
<glyph unicode="&#x1e46;" horiz-adv-x="1549" d="M-8 105l130 20l156 1103l-131 20l20 105h503l444 -1118h16l139 993l-131 20l20 105h428l5 -105l-131 -20l-173 -1228h-373l-445 1120h-16l-141 -995l132 -20l-20 -105h-427zM490 -339q0 34 9.5 64t25.5 53t37.5 36.5t45.5 13.5q34 0 64.5 -9.5t53 -25.5t35.5 -37.5 t13 -46.5q0 -33 -9.5 -63.5t-25.5 -53t-37.5 -36t-45.5 -13.5q-35 0 -65 9.5t-52.5 25.5t-35.5 37.5t-13 45.5z" />
<glyph unicode="&#x1e47;" horiz-adv-x="1362" d="M132 0l132 960l-131 20l20 105l331 22l81 -78l-24 -170q94 118 204.5 183t218.5 65q147 0 201 -71q39 -51 39 -141q0 -35 -6 -76l-95 -694l131 -20l-20 -105l-330 -22l-81 78l93 675q13 91 13 148q0 24 -2 41q-8 59 -52 59q-55 0 -141.5 -71.5t-195.5 -215.5l-100 -714z M465 -339q0 34 9.5 64t25.5 53t37.5 36.5t45.5 13.5q34 0 64.5 -9.5t53 -25.5t35.5 -37.5t13 -46.5q0 -33 -9.5 -63.5t-25.5 -53t-37.5 -36t-45.5 -13.5q-35 0 -65 9.5t-52.5 25.5t-35.5 37.5t-13 45.5z" />
<glyph unicode="&#x1e48;" horiz-adv-x="1549" d="M-8 105l130 20l156 1103l-131 20l20 105h503l444 -1118h16l139 993l-131 20l20 105h428l5 -105l-131 -20l-173 -1228h-373l-445 1120h-16l-141 -995l132 -20l-20 -105h-427zM263 -338l40 150h750l-40 -150h-750z" />
<glyph unicode="&#x1e49;" horiz-adv-x="1362" d="M132 0l132 960l-131 20l20 105l331 22l81 -78l-24 -170q94 118 204.5 183t218.5 65q147 0 201 -71q39 -51 39 -141q0 -35 -6 -76l-95 -694l131 -20l-20 -105l-330 -22l-81 78l93 675q13 91 13 148q0 24 -2 41q-8 59 -52 59q-55 0 -141.5 -71.5t-195.5 -215.5l-100 -714z M238 -338l40 150h750l-40 -150h-750z" />
<glyph unicode="&#x1e59;" horiz-adv-x="978" d="M34 105l130 20l116 835l-131 20l20 105l331 22l81 -78l-25 -176q54 121 132.5 187.5t169.5 66.5q42 0 82 -12t70 -32l-58 -275l-146 -12v178q-11 3 -20.5 4t-18.5 1q-48 0 -110 -83t-134 -260l-68 -491l132 -20l-20 -105h-528zM538 1395q0 34 9.5 64t25.5 53t37.5 36.5 t45.5 13.5q34 0 64.5 -9.5t53 -25.5t35.5 -37.5t13 -46.5q0 -33 -9.5 -63.5t-25.5 -53t-37.5 -36t-45.5 -13.5q-35 0 -65 9.5t-52.5 25.5t-35.5 37.5t-13 45.5z" />
<glyph unicode="&#x1e5a;" horiz-adv-x="1279" d="M-4 105l130 20l156 1103l-131 20l20 105h565q232 1 339 -87q87 -71 87 -200q0 -30 -5 -63q-18 -126 -91 -212.5t-190 -127.5l-8 -19l226 -517l127 -22l-20 -105h-339l-255 606h-113l-68 -481l132 -20l-20 -105h-537zM511 725h74q46 0 96.5 6t98.5 20q22 42 42 104.5 t28 122.5q6 38 6 71q0 81 -36 124q-50 61 -179 61h-58zM399 -339q0 34 9.5 64t25.5 53t37.5 36.5t45.5 13.5q34 0 64.5 -9.5t53 -25.5t35.5 -37.5t13 -46.5q0 -33 -9.5 -63.5t-25.5 -53t-37.5 -36t-45.5 -13.5q-35 0 -65 9.5t-52.5 25.5t-35.5 37.5t-13 45.5z" />
<glyph unicode="&#x1e5b;" horiz-adv-x="978" d="M34 105l130 20l116 835l-131 20l20 105l331 22l81 -78l-25 -176q54 121 132.5 187.5t169.5 66.5q42 0 82 -12t70 -32l-58 -275l-146 -12v178q-11 3 -20.5 4t-18.5 1q-48 0 -110 -83t-134 -260l-68 -491l132 -20l-20 -105h-528zM120 -339q0 34 9.5 64t25.5 53t37.5 36.5 t45.5 13.5q34 0 64.5 -9.5t53 -25.5t35.5 -37.5t13 -46.5q0 -33 -9.5 -63.5t-25.5 -53t-37.5 -36t-45.5 -13.5q-35 0 -65 9.5t-52.5 25.5t-35.5 37.5t-13 45.5z" />
<glyph unicode="&#x1e5c;" horiz-adv-x="1279" d="M-4 105l130 20l156 1103l-131 20l20 105h565q232 1 339 -87q87 -71 87 -200q0 -30 -5 -63q-18 -126 -91 -212.5t-190 -127.5l-8 -19l226 -517l127 -22l-20 -105h-339l-255 606h-113l-68 -481l132 -20l-20 -105h-537zM511 725h74q46 0 96.5 6t98.5 20q22 42 42 104.5 t28 122.5q6 38 6 71q0 81 -36 124q-50 61 -179 61h-58zM399 -339q0 34 9.5 64t25.5 53t37.5 36.5t45.5 13.5q34 0 64.5 -9.5t53 -25.5t35.5 -37.5t13 -46.5q0 -33 -9.5 -63.5t-25.5 -53t-37.5 -36t-45.5 -13.5q-35 0 -65 9.5t-52.5 25.5t-35.5 37.5t-13 45.5zM272 1530 l19 150h810l-19 -150h-810z" />
<glyph unicode="&#x1e5d;" horiz-adv-x="978" d="M34 105l130 20l116 835l-131 20l20 105l331 22l81 -78l-25 -176q54 121 132.5 187.5t169.5 66.5q42 0 82 -12t70 -32l-58 -275l-146 -12v178q-11 3 -20.5 4t-18.5 1q-48 0 -110 -83t-134 -260l-68 -491l132 -20l-20 -105h-528zM120 -339q0 34 9.5 64t25.5 53t37.5 36.5 t45.5 13.5q34 0 64.5 -9.5t53 -25.5t35.5 -37.5t13 -46.5q0 -33 -9.5 -63.5t-25.5 -53t-37.5 -36t-45.5 -13.5q-35 0 -65 9.5t-52.5 25.5t-35.5 37.5t-13 45.5z" />
<glyph unicode="&#x1e5e;" horiz-adv-x="1279" d="M-4 105l130 20l156 1103l-131 20l20 105h565q232 1 339 -87q87 -71 87 -200q0 -30 -5 -63q-18 -126 -91 -212.5t-190 -127.5l-8 -19l226 -517l127 -22l-20 -105h-339l-255 606h-113l-68 -481l132 -20l-20 -105h-537zM511 725h74q46 0 96.5 6t98.5 20q22 42 42 104.5 t28 122.5q6 38 6 71q0 81 -36 124q-50 61 -179 61h-58zM172 -338l40 150h750l-40 -150h-750z" />
<glyph unicode="&#x1e5f;" horiz-adv-x="978" d="M34 105l130 20l116 835l-131 20l20 105l331 22l81 -78l-25 -176q54 121 132.5 187.5t169.5 66.5q42 0 82 -12t70 -32l-58 -275l-146 -12v178q-11 3 -20.5 4t-18.5 1q-48 0 -110 -83t-134 -260l-68 -491l132 -20l-20 -105h-528zM-107 -338l40 150h750l-40 -150h-750z" />
<glyph unicode="&#x1e60;" horiz-adv-x="1203" d="M60 41l16 279h170l45 -199q36 -11 91.5 -17.5t117.5 -6.5q55 0 110 8t95 20q19 30 35 70.5t23 85.5q2 14 2 28q-1 62 -41 115q-50 65 -218 176q-209 132 -277 219q-53 68 -53 164q0 27 4 56q22 148 178 242t401 94q104 0 206 -13t178 -39l-17 -290h-158l-45 201 q-49 12 -99 17t-93 5q-55 0 -109 -8.5t-90 -19.5q-13 -23 -26 -60.5t-17 -67.5q-2 -15 -2 -29q1 -70 55 -124q66 -65 197 -147q231 -144 291 -240q46 -74 46 -164q0 -27 -4 -55q-25 -170 -184 -266.5t-404 -96.5q-131 0 -242 17.5t-182 45.5zM668 1584q0 34 9.5 64t25.5 53 t37.5 36.5t45.5 13.5q34 0 64.5 -9.5t53 -25.5t35.5 -37.5t13 -46.5q0 -33 -9.5 -63.5t-25.5 -53t-37.5 -36t-45.5 -13.5q-35 0 -65 9.5t-52.5 25.5t-35.5 37.5t-13 45.5z" />
<glyph unicode="&#x1e61;" d="M72 48l24 260h122l31 -197q30 -10 75 -16.5t96 -6.5q40 0 80.5 4.5t76.5 13.5q14 21 26 50.5t17 63.5q2 13 2 26q0 48 -28 87q-35 49 -195 151q-167 104 -217 180q-40 61 -40 130q0 17 2 34q19 129 145.5 204t339.5 75q97 0 183.5 -19t144.5 -49l-25 -261h-121l-33 199 q-33 9 -75 14.5t-84 5.5q-35 0 -72 -5t-63 -13q-15 -18 -27 -44t-16 -53q-2 -14 -2 -28q0 -42 23 -74q31 -43 160 -121q200 -119 255 -203q43 -65 43 -146q0 -23 -4 -48q-19 -135 -154.5 -209.5t-350.5 -74.5q-96 0 -185 19t-154 51zM526 1395q0 34 9.5 64t25.5 53 t37.5 36.5t45.5 13.5q34 0 64.5 -9.5t53 -25.5t35.5 -37.5t13 -46.5q0 -33 -9.5 -63.5t-25.5 -53t-37.5 -36t-45.5 -13.5q-35 0 -65 9.5t-52.5 25.5t-35.5 37.5t-13 45.5z" />
<glyph unicode="&#x1e62;" horiz-adv-x="1203" d="M60 41l16 279h170l45 -199q36 -11 91.5 -17.5t117.5 -6.5q55 0 110 8t95 20q19 30 35 70.5t23 85.5q2 14 2 28q-1 62 -41 115q-50 65 -218 176q-209 132 -277 219q-53 68 -53 164q0 27 4 56q22 148 178 242t401 94q104 0 206 -13t178 -39l-17 -290h-158l-45 201 q-49 12 -99 17t-93 5q-55 0 -109 -8.5t-90 -19.5q-13 -23 -26 -60.5t-17 -67.5q-2 -15 -2 -29q1 -70 55 -124q66 -65 197 -147q231 -144 291 -240q46 -74 46 -164q0 -27 -4 -55q-25 -170 -184 -266.5t-404 -96.5q-131 0 -242 17.5t-182 45.5zM339 -339q0 34 9.5 64t25.5 53 t37.5 36.5t45.5 13.5q34 0 64.5 -9.5t53 -25.5t35.5 -37.5t13 -46.5q0 -33 -9.5 -63.5t-25.5 -53t-37.5 -36t-45.5 -13.5q-35 0 -65 9.5t-52.5 25.5t-35.5 37.5t-13 45.5z" />
<glyph unicode="&#x1e63;" d="M72 48l24 260h122l31 -197q30 -10 75 -16.5t96 -6.5q40 0 80.5 4.5t76.5 13.5q14 21 26 50.5t17 63.5q2 13 2 26q0 48 -28 87q-35 49 -195 151q-167 104 -217 180q-40 61 -40 130q0 17 2 34q19 129 145.5 204t339.5 75q97 0 183.5 -19t144.5 -49l-25 -261h-121l-33 199 q-33 9 -75 14.5t-84 5.5q-35 0 -72 -5t-63 -13q-15 -18 -27 -44t-16 -53q-2 -14 -2 -28q0 -42 23 -74q31 -43 160 -121q200 -119 255 -203q43 -65 43 -146q0 -23 -4 -48q-19 -135 -154.5 -209.5t-350.5 -74.5q-96 0 -185 19t-154 51zM273 -339q0 34 9.5 64t25.5 53 t37.5 36.5t45.5 13.5q34 0 64.5 -9.5t53 -25.5t35.5 -37.5t13 -46.5q0 -33 -9.5 -63.5t-25.5 -53t-37.5 -36t-45.5 -13.5q-35 0 -65 9.5t-52.5 25.5t-35.5 37.5t-13 45.5z" />
<glyph unicode="&#x1e6c;" horiz-adv-x="1148" d="M60 1043l56 310h1112l-27 -310h-139l-30 191h-222l-157 -1109l132 -20l-20 -105h-537l-5 105l130 20l157 1109h-227l-75 -191h-148zM294 -339q0 34 9.5 64t25.5 53t37.5 36.5t45.5 13.5q34 0 64.5 -9.5t53 -25.5t35.5 -37.5t13 -46.5q0 -33 -9.5 -63.5t-25.5 -53 t-37.5 -36t-45.5 -13.5q-35 0 -65 9.5t-52.5 25.5t-35.5 37.5t-13 45.5z" />
<glyph unicode="&#x1e6d;" horiz-adv-x="821" d="M76 981l15 104h176l29 207l303 83l-41 -290h277l-15 -104h-276l-89 -633q-10 -67 -10 -117q0 -42 7 -74q15 -69 82 -69q51 0 101.5 20.5t95.5 49.5v-106q-52 -34 -130.5 -54t-162.5 -20q-173 0 -236 92q-44 65 -44 178q0 48 8 105l87 628h-177zM241 -339q0 34 9.5 64 t25.5 53t37.5 36.5t45.5 13.5q34 0 64.5 -9.5t53 -25.5t35.5 -37.5t13 -46.5q0 -33 -9.5 -63.5t-25.5 -53t-37.5 -36t-45.5 -13.5q-35 0 -65 9.5t-52.5 25.5t-35.5 37.5t-13 45.5z" />
<glyph unicode="&#x1e6e;" horiz-adv-x="1148" d="M60 1043l56 310h1112l-27 -310h-139l-30 191h-222l-157 -1109l132 -20l-20 -105h-537l-5 105l130 20l157 1109h-227l-75 -191h-148zM67 -338l40 150h750l-40 -150h-750z" />
<glyph unicode="&#x1e6f;" horiz-adv-x="821" d="M76 981l15 104h176l29 207l303 83l-41 -290h277l-15 -104h-276l-89 -633q-10 -67 -10 -117q0 -42 7 -74q15 -69 82 -69q51 0 101.5 20.5t95.5 49.5v-106q-52 -34 -130.5 -54t-162.5 -20q-173 0 -236 92q-44 65 -44 178q0 48 8 105l87 628h-177zM14 -338l40 150h750 l-40 -150h-750z" />
<glyph unicode="&#x1e80;" horiz-adv-x="2111" d="M60 1248l14 105h497l11 -105l-137 -20l195 -903h16l428 1028h251l191 -1028h16l386 904l-132 19l14 105h414l11 -105l-112 -22l-541 -1226h-274l-181 975h-16l-409 -975h-272l-267 1228zM847 1708l9 66l283 10l219 -281l-5 -32l-146 -11z" />
<glyph unicode="&#x1e81;" horiz-adv-x="1745" d="M32 980l14 105l284 22l81 -78l124 -785l405 863l145 -22l143 -905q55 85 106.5 182t94 199t72.5 204t44 196l-125 19l14 105l220 22l81 -78q0 -79 -19.5 -168.5t-53.5 -183t-80 -188.5t-99 -185t-110 -173t-113 -153l-261 22l-108 663l-313 -685l-262 22l-154 960z M662 1594l10 66l286 10l132 -363l-5 -32l-149 -10z" />
<glyph unicode="&#x1e82;" horiz-adv-x="2111" d="M60 1248l14 105h497l11 -105l-137 -20l195 -903h16l428 1028h251l191 -1028h16l386 904l-132 19l14 105h414l11 -105l-112 -22l-541 -1226h-274l-181 975h-16l-409 -975h-272l-267 1228zM1110 1471v32l278 281l282 -10v-66l-415 -248z" />
<glyph unicode="&#x1e83;" horiz-adv-x="1745" d="M32 980l14 105l284 22l81 -78l124 -785l405 863l145 -22l143 -905q55 85 106.5 182t94 199t72.5 204t44 196l-125 19l14 105l220 22l81 -78q0 -79 -19.5 -168.5t-53.5 -183t-80 -188.5t-99 -185t-110 -173t-113 -153l-261 22l-108 663l-313 -685l-262 22l-154 960z M943 1275l5 32l234 363l271 -10l-10 -66l-366 -329z" />
<glyph unicode="&#x1e84;" horiz-adv-x="2111" d="M60 1248l14 105h497l11 -105l-137 -20l195 -903h16l428 1028h251l191 -1028h16l386 904l-132 19l14 105h414l11 -105l-112 -22l-541 -1226h-274l-181 975h-16l-409 -975h-272l-267 1228zM858 1577q0 31 8.5 58.5t23 48t34 32.5t40.5 12q31 0 58.5 -8.5t47.5 -23 t31.5 -34.5t11.5 -42q0 -30 -8.5 -57t-22.5 -48t-33.5 -33t-40.5 -12q-32 0 -59 8.5t-47.5 23.5t-32 34.5t-11.5 40.5zM1400 1577q0 31 8.5 58.5t22.5 48t33.5 32.5t40.5 12q31 0 58.5 -8.5t48 -23t32 -34.5t11.5 -42q0 -30 -8.5 -57t-23 -48t-34 -33t-41.5 -12 q-32 0 -59 8.5t-46.5 23.5t-31 34.5t-11.5 40.5z" />
<glyph unicode="&#x1e85;" horiz-adv-x="1745" d="M32 980l14 105l284 22l81 -78l124 -785l405 863l145 -22l143 -905q55 85 106.5 182t94 199t72.5 204t44 196l-125 19l14 105l220 22l81 -78q0 -79 -19.5 -168.5t-53.5 -183t-80 -188.5t-99 -185t-110 -173t-113 -153l-261 22l-108 663l-313 -685l-262 22l-154 960z M643 1389q0 31 8.5 58.5t23 48t34 32.5t40.5 12q31 0 58.5 -8.5t47.5 -23.5t31.5 -34.5t11.5 -41.5q0 -30 -8.5 -57t-22.5 -48t-33.5 -33t-40.5 -12q-32 0 -59 8.5t-47.5 23.5t-32 34.5t-11.5 40.5zM1123 1389q0 31 8.5 58.5t22.5 48t33.5 32.5t40.5 12q31 0 58.5 -8.5 t48 -23.5t32 -34.5t11.5 -41.5q0 -30 -8.5 -57t-23 -48t-34 -33t-41.5 -12q-32 0 -59 8.5t-46.5 23.5t-31 34.5t-11.5 40.5z" />
<glyph unicode="&#x1e86;" horiz-adv-x="2111" d="M60 1248l14 105h497l11 -105l-137 -20l195 -903h16l428 1028h251l191 -1028h16l386 904l-132 19l14 105h414l11 -105l-112 -22l-541 -1226h-274l-181 975h-16l-409 -975h-272l-267 1228zM1149 1584q0 34 9.5 64t25.5 53t37.5 36.5t45.5 13.5q34 0 64.5 -9.5t53 -25.5 t35.5 -37.5t13 -46.5q0 -33 -9.5 -63.5t-25.5 -53t-37.5 -36t-45.5 -13.5q-35 0 -65 9.5t-52.5 25.5t-35.5 37.5t-13 45.5z" />
<glyph unicode="&#x1e87;" horiz-adv-x="1745" d="M32 980l14 105l284 22l81 -78l124 -785l405 863l145 -22l143 -905q55 85 106.5 182t94 199t72.5 204t44 196l-125 19l14 105l220 22l81 -78q0 -79 -19.5 -168.5t-53.5 -183t-80 -188.5t-99 -185t-110 -173t-113 -153l-261 22l-108 663l-313 -685l-262 22l-154 960z M892 1395q0 34 9.5 64t25.5 53t37.5 36.5t45.5 13.5q34 0 64.5 -9.5t53 -25.5t35.5 -37.5t13 -46.5q0 -33 -9.5 -63.5t-25.5 -53t-37.5 -36t-45.5 -13.5q-35 0 -65 9.5t-52.5 25.5t-35.5 37.5t-13 45.5z" />
<glyph unicode="&#x1e8e;" horiz-adv-x="1162" d="M28 1248l14 105h481l11 -105l-105 -15l229 -463h16l345 464l-100 14l14 105h396l11 -105l-122 -24l-455 -607l-70 -492l132 -20l-20 -105h-537l-5 105l130 20l65 461l-320 640zM643 1584q0 34 9.5 64t25.5 53t37.5 36.5t45.5 13.5q34 0 64.5 -9.5t53 -25.5t35.5 -37.5 t13 -46.5q0 -33 -9.5 -63.5t-25.5 -53t-37.5 -36t-45.5 -13.5q-35 0 -65 9.5t-52.5 25.5t-35.5 37.5t-13 45.5z" />
<glyph unicode="&#x1e8f;" horiz-adv-x="1283" d="M86 -367l42 180q150 -62 281.5 -96t222.5 -34q54 46 99.5 148t68.5 258l18 134q-78 -110 -191 -177.5t-236 -67.5q-143 0 -196 72q-38 51 -38 140q0 35 6 76l95 694l-132 20l20 105l331 22l81 -78l-95 -695q-12 -86 -12 -138q0 -20 2 -35q6 -55 56 -55q55 0 140 72.5 t193 212.5l79 569l-132 20l20 105l331 22l81 -78l-126 -900q-44 -276 -201.5 -431t-371.5 -155q-102 0 -216.5 23.5t-219.5 66.5zM629 1395q0 34 9.5 64t25.5 53t37.5 36.5t45.5 13.5q34 0 64.5 -9.5t53 -25.5t35.5 -37.5t13 -46.5q0 -33 -9.5 -63.5t-25.5 -53t-37.5 -36 t-45.5 -13.5q-35 0 -65 9.5t-52.5 25.5t-35.5 37.5t-13 45.5z" />
<glyph unicode="&#x1e90;" horiz-adv-x="1242" d="M14 0v95l837 1125l-3 14h-456l-99 -213l-151 12l68 320h1010v-94l-838 -1126l3 -14h497l99 213l150 -12l-67 -320h-1050zM378 1470l5 32l303 292l222 -10l213 -282l-5 -32l-156 -10l-197 185l-262 -185z" />
<glyph unicode="&#x1e91;" horiz-adv-x="1067" d="M38 0l11 95l676 880h-356l-82 -174l-143 26l50 258h877l-10 -83l-686 -892h365l82 174l143 -26l-50 -258h-877zM325 1275l4 32l286 373l221 -10l182 -363l-4 -32l-157 -10l-170 247l-239 -247z" />
<glyph unicode="&#x1e92;" horiz-adv-x="1242" d="M14 0v95l837 1125l-3 14h-456l-99 -213l-151 12l68 320h1010v-94l-838 -1126l3 -14h497l99 213l150 -12l-67 -320h-1050zM358 -339q0 34 9.5 64t25.5 53t37.5 36.5t45.5 13.5q34 0 64.5 -9.5t53 -25.5t35.5 -37.5t13 -46.5q0 -33 -9.5 -63.5t-25.5 -53t-37.5 -36 t-45.5 -13.5q-35 0 -65 9.5t-52.5 25.5t-35.5 37.5t-13 45.5z" />
<glyph unicode="&#x1e93;" horiz-adv-x="1067" d="M38 0l11 95l676 880h-356l-82 -174l-143 26l50 258h877l-10 -83l-686 -892h365l82 174l143 -26l-50 -258h-877zM315 -339q0 34 9.5 64t25.5 53t37.5 36.5t45.5 13.5q34 0 64.5 -9.5t53 -25.5t35.5 -37.5t13 -46.5q0 -33 -9.5 -63.5t-25.5 -53t-37.5 -36t-45.5 -13.5 q-35 0 -65 9.5t-52.5 25.5t-35.5 37.5t-13 45.5z" />
<glyph unicode="&#x1e97;" horiz-adv-x="821" d="M76 981l15 104h176l29 207l303 83l-41 -290h277l-15 -104h-276l-89 -633q-10 -67 -10 -117q0 -42 7 -74q15 -69 82 -69q51 0 101.5 20.5t95.5 49.5v-106q-52 -34 -130.5 -54t-162.5 -20q-173 0 -236 92q-44 65 -44 178q0 48 8 105l87 628h-177zM117 1577q0 31 8.5 58.5 t23 48t34 32.5t40.5 12q31 0 58.5 -8.5t47.5 -23t31.5 -34.5t11.5 -42q0 -30 -8.5 -57t-22.5 -48t-33.5 -33t-40.5 -12q-32 0 -59 8.5t-47.5 23.5t-32 34.5t-11.5 40.5zM659 1577q0 31 8.5 58.5t22.5 48t33.5 32.5t40.5 12q31 0 58.5 -8.5t48 -23t32 -34.5t11.5 -42 q0 -30 -8.5 -57t-23 -48t-34 -33t-41.5 -12q-32 0 -59 8.5t-46.5 23.5t-31 34.5t-11.5 40.5z" />
<glyph unicode="&#x1e98;" horiz-adv-x="1745" d="M32 980l14 105l284 22l81 -78l124 -785l405 863l145 -22l143 -905q55 85 106.5 182t94 199t72.5 204t44 196l-125 19l14 105l220 22l81 -78q0 -79 -19.5 -168.5t-53.5 -183t-80 -188.5t-99 -185t-110 -173t-113 -153l-261 22l-108 663l-313 -685l-262 22l-154 960z M804 1436q9 61 34.5 106t62.5 74.5t82.5 44t93.5 14.5q44 0 82 -10t65 -31t39.5 -54.5t6.5 -79.5q-9 -64 -34 -109.5t-61 -74.5t-81.5 -42.5t-95.5 -13.5q-46 0 -84.5 10t-65 31.5t-38.5 55t-6 79.5zM964 1468q-8 -60 10.5 -92.5t56.5 -32.5q11 0 21.5 1t19 3t16.5 5 q5 14 9 30.5t7.5 38t7.5 47.5q8 60 -10.5 92.5t-55.5 32.5q-11 0 -19.5 -1.5t-16 -3.5t-13.5 -4q-7 -13 -12.5 -29t-11 -37t-9.5 -50z" />
<glyph unicode="&#x1e99;" horiz-adv-x="1283" d="M86 -367l42 180q150 -62 281.5 -96t222.5 -34q54 46 99.5 148t68.5 258l18 134q-78 -110 -191 -177.5t-236 -67.5q-143 0 -196 72q-38 51 -38 140q0 35 6 76l95 694l-132 20l20 105l331 22l81 -78l-95 -695q-12 -86 -12 -138q0 -20 2 -35q6 -55 56 -55q55 0 140 72.5 t193 212.5l79 569l-132 20l20 105l331 22l81 -78l-126 -900q-44 -276 -201.5 -431t-371.5 -155q-102 0 -216.5 23.5t-219.5 66.5zM541 1436q9 61 34.5 106t62.5 74.5t82.5 44t93.5 14.5q44 0 82 -10t65 -31t39.5 -54.5t6.5 -79.5q-9 -64 -34 -109.5t-61 -74.5t-81.5 -42.5 t-95.5 -13.5q-46 0 -84.5 10t-65 31.5t-38.5 55t-6 79.5zM701 1468q-8 -60 10.5 -92.5t56.5 -32.5q11 0 21.5 1t19 3t16.5 5q5 14 9 30.5t7.5 38t7.5 47.5q8 60 -10.5 92.5t-55.5 32.5q-11 0 -19.5 -1.5t-16 -3.5t-13.5 -4q-7 -13 -12.5 -29t-11 -37t-9.5 -50z" />
<glyph unicode="&#x1e9e;" horiz-adv-x="1362" d="M-43 105l130 20l156 1103l-131 20l20 105h1182l-13 -94l-365 -404l47 -33q77 -54 140.5 -108t107 -111.5t64 -121t10.5 -136.5q-13 -80 -51 -147.5t-101.5 -116.5t-151.5 -76t-200 -27q-77 0 -134.5 9.5t-100 22.5t-74.5 31l16 279h130l58 -207q11 -4 26 -7.5t35 -6 t47 -2.5q26 0 48 2.5t40 6.5t35 9q14 16 25.5 35.5t22 46t16.5 61.5q9 54 -2 102t-38.5 92t-71 85t-98.5 81l-116 84l7 98l379 424h-508l-173 -1224h-408z" />
<glyph unicode="&#x1ea0;" horiz-adv-x="1277" d="M-92 105l110 20l613 1228h239l257 -1229l106 -19l-17 -105h-517l-8 105l137 19l-54 272h-437l-133 -273l133 -18l-17 -105h-404zM395 515h355l-98 492h-16zM383 -339q0 34 9.5 64t25.5 53t37.5 36.5t45.5 13.5q34 0 64.5 -9.5t53 -25.5t35.5 -37.5t13 -46.5 q0 -33 -9.5 -63.5t-25.5 -53t-37.5 -36t-45.5 -13.5q-35 0 -65 9.5t-52.5 25.5t-35.5 37.5t-13 45.5z" />
<glyph unicode="&#x1ea1;" horiz-adv-x="1244" d="M77 373l26 188q37 252 195 399t391 147q94 0 211.5 -21.5t221.5 -56.5l-126 -904l132 -20l-20 -105l-330 -22l-81 78l23 169q-82 -116 -181 -181.5t-198 -65.5q-160 0 -226 96q-46 68 -46 188q0 51 8 111zM366 200q10 -94 82 -94q51 0 130.5 79.5t164.5 207.5l82 589 q-27 8 -69 14.5t-88 6.5q-37 0 -77.5 -8t-79.5 -22q-40 -75 -69 -175t-44 -206l-18 -131q-17 -118 -17 -199q0 -34 3 -62zM368 -339q0 34 9.5 64t25.5 53t37.5 36.5t45.5 13.5q34 0 64.5 -9.5t53 -25.5t35.5 -37.5t13 -46.5q0 -33 -9.5 -63.5t-25.5 -53t-37.5 -36 t-45.5 -13.5q-35 0 -65 9.5t-52.5 25.5t-35.5 37.5t-13 45.5z" />
<glyph unicode="&#x1ea2;" horiz-adv-x="1277" d="M-92 105l110 20l613 1228h239l257 -1229l106 -19l-17 -105h-517l-8 105l137 19l-54 272h-437l-133 -273l133 -18l-17 -105h-404zM395 515h355l-98 492h-16zM583 1677l19 133q31 15 66 26.5t78 20t93 8.5q87 0 132.5 -35.5t36.5 -105.5q-7 -52 -44 -90t-93 -67 q-25 -13 -41.5 -22.5t-27 -17.5t-15.5 -14.5t-6 -13.5q-2 -11 0.5 -19.5t4.5 -13.5l-95 -27q-9 14 -14 29t-8 31.5t0 33.5q1 13 5.5 27t14 28t25.5 29.5t41 31.5q44 28 60.5 45t18.5 37t-7.5 35t-37.5 15q-13 0 -24 -2.5t-21 -6t-18 -6.5l-36 -94z" />
<glyph unicode="&#x1ea3;" horiz-adv-x="1244" d="M77 373l26 188q37 252 195 399t391 147q94 0 211.5 -21.5t221.5 -56.5l-126 -904l132 -20l-20 -105l-330 -22l-81 78l23 169q-82 -116 -181 -181.5t-198 -65.5q-160 0 -226 96q-46 68 -46 188q0 51 8 111zM366 200q10 -94 82 -94q51 0 130.5 79.5t164.5 207.5l82 589 q-27 8 -69 14.5t-88 6.5q-37 0 -77.5 -8t-79.5 -22q-40 -75 -69 -175t-44 -206l-18 -131q-17 -118 -17 -199q0 -34 3 -62zM565 1482l19 133q31 15 66 26.5t78 20t93 8.5q87 0 132.5 -35.5t36.5 -105.5q-7 -52 -44 -90t-93 -67q-25 -13 -41.5 -22.5t-27 -17.5t-15.5 -14.5 t-6 -13.5q-2 -11 0.5 -19.5t4.5 -13.5l-95 -27q-9 14 -14 29t-8 31.5t0 33.5q1 13 5.5 27t14 28t25.5 29.5t41 31.5q44 28 60.5 45t18.5 37t-7.5 35t-37.5 15q-13 0 -24 -2.5t-21 -6t-18 -6.5l-36 -94z" />
<glyph unicode="&#x1ea4;" horiz-adv-x="1277" d="M-92 105l110 20l613 1228h239l257 -1229l106 -19l-17 -105h-517l-8 105l137 19l-54 272h-437l-133 -273l133 -18l-17 -105h-404zM395 515h355l-98 492h-16zM394 1470l5 32l303 292l222 -10l213 -282l-5 -32l-156 -10l-197 185l-262 -185zM1046 1702v32l200 182l232 -10 v-66l-307 -149z" />
<glyph unicode="&#x1ea5;" horiz-adv-x="1244" d="M77 373l26 188q37 252 195 399t391 147q94 0 211.5 -21.5t221.5 -56.5l-126 -904l132 -20l-20 -105l-330 -22l-81 78l23 169q-82 -116 -181 -181.5t-198 -65.5q-160 0 -226 96q-46 68 -46 188q0 51 8 111zM366 200q10 -94 82 -94q51 0 130.5 79.5t164.5 207.5l82 589 q-27 8 -69 14.5t-88 6.5q-37 0 -77.5 -8t-79.5 -22q-40 -75 -69 -175t-44 -206l-18 -131q-17 -118 -17 -199q0 -34 3 -62zM417 1275l4 32l286 373l221 -10l182 -363l-4 -32l-157 -10l-170 247l-239 -247zM1053 1540l5 32l173 237l221 -10l-10 -66l-275 -203z" />
<glyph unicode="&#x1ea6;" horiz-adv-x="1277" d="M-92 105l110 20l613 1228h239l257 -1229l106 -19l-17 -105h-517l-8 105l137 19l-54 272h-437l-133 -273l133 -18l-17 -105h-404zM395 515h355l-98 492h-16zM188 1840l9 66l213 10l142 -182l-5 -32l-116 -11zM394 1470l5 32l303 292l222 -10l213 -282l-5 -32l-156 -10 l-197 185l-262 -185z" />
<glyph unicode="&#x1ea7;" horiz-adv-x="1244" d="M77 373l26 188q37 252 195 399t391 147q94 0 211.5 -21.5t221.5 -56.5l-126 -904l132 -20l-20 -105l-330 -22l-81 78l23 169q-82 -116 -181 -181.5t-198 -65.5q-160 0 -226 96q-46 68 -46 188q0 51 8 111zM366 200q10 -94 82 -94q51 0 130.5 79.5t164.5 207.5l82 589 q-27 8 -69 14.5t-88 6.5q-37 0 -77.5 -8t-79.5 -22q-40 -75 -69 -175t-44 -206l-18 -131q-17 -118 -17 -199q0 -34 3 -62zM192 1733l10 66l236 10l107 -237l-5 -32l-129 -10zM417 1275l4 32l286 373l221 -10l182 -363l-4 -32l-157 -10l-170 247l-239 -247z" />
<glyph unicode="&#x1ea8;" horiz-adv-x="1277" d="M-92 105l110 20l613 1228h239l257 -1229l106 -19l-17 -105h-517l-8 105l137 19l-54 272h-437l-133 -273l133 -18l-17 -105h-404zM395 515h355l-98 492h-16zM394 1470l5 32l303 292l222 -10l213 -282l-5 -32l-156 -10l-197 185l-262 -185zM958 1913l19 133q31 15 66 26.5 t78 20t93 8.5q87 0 132.5 -35.5t36.5 -105.5q-7 -52 -44 -90t-93 -67q-25 -13 -41.5 -22.5t-27 -17.5t-15.5 -14.5t-6 -13.5q-2 -11 0.5 -19.5t4.5 -13.5l-95 -27q-9 14 -14 29t-8 31.5t0 33.5q1 13 5.5 27t14 28t25.5 29.5t41 31.5q44 28 60.5 45t18.5 37t-7.5 35t-37.5 15 q-13 0 -24 -2.5t-21 -6t-18 -6.5l-36 -94z" />
<glyph unicode="&#x1ea9;" horiz-adv-x="1244" d="M77 373l26 188q37 252 195 399t391 147q94 0 211.5 -21.5t221.5 -56.5l-126 -904l132 -20l-20 -105l-330 -22l-81 78l23 169q-82 -116 -181 -181.5t-198 -65.5q-160 0 -226 96q-46 68 -46 188q0 51 8 111zM366 200q10 -94 82 -94q51 0 130.5 79.5t164.5 207.5l82 589 q-27 8 -69 14.5t-88 6.5q-37 0 -77.5 -8t-79.5 -22q-40 -75 -69 -175t-44 -206l-18 -131q-17 -118 -17 -199q0 -34 3 -62zM417 1275l4 32l286 373l221 -10l182 -363l-4 -32l-157 -10l-170 247l-239 -247zM959 1751l19 133q31 15 66 26.5t78 20t93 8.5q87 0 132.5 -35.5 t36.5 -105.5q-7 -52 -44 -90t-93 -67q-25 -13 -41.5 -22.5t-27 -17.5t-15.5 -14.5t-6 -13.5q-2 -11 0.5 -19.5t4.5 -13.5l-95 -27q-9 14 -14 29t-8 31.5t0 33.5q1 13 5.5 27t14 28t25.5 29.5t41 31.5q44 28 60.5 45t18.5 37t-7.5 35t-37.5 15q-13 0 -24 -2.5t-21 -6 t-18 -6.5l-36 -94z" />
<glyph unicode="&#x1eaa;" horiz-adv-x="1277" d="M-92 105l110 20l613 1228h239l257 -1229l106 -19l-17 -105h-517l-8 105l137 19l-54 272h-437l-133 -273l133 -18l-17 -105h-404zM395 515h355l-98 492h-16zM364 1879l7 50q18 127 94 190.5t191 63.5q67 0 133 -20.5t125 -45.5t108.5 -45.5t85.5 -20.5q47 0 78.5 29.5 t41.5 90.5l118 10l-10 -72q-17 -119 -88 -186.5t-186 -67.5q-39 0 -82.5 10t-88 24.5t-88 31.5t-82.5 31.5t-71.5 24.5t-55.5 10q-24 0 -44 -4t-35.5 -15t-26 -30t-14.5 -49zM394 1470l5 32l303 292l222 -10l213 -282l-5 -32l-156 -10l-197 185l-262 -185z" />
<glyph unicode="&#x1eab;" horiz-adv-x="1244" d="M77 373l26 188q37 252 195 399t391 147q94 0 211.5 -21.5t221.5 -56.5l-126 -904l132 -20l-20 -105l-330 -22l-81 78l23 169q-82 -116 -181 -181.5t-198 -65.5q-160 0 -226 96q-46 68 -46 188q0 51 8 111zM366 200q10 -94 82 -94q51 0 130.5 79.5t164.5 207.5l82 589 q-27 8 -69 14.5t-88 6.5q-37 0 -77.5 -8t-79.5 -22q-40 -75 -69 -175t-44 -206l-18 -131q-17 -118 -17 -199q0 -34 3 -62zM397 1765l7 50q18 127 88.5 190.5t177.5 63.5q58 0 115 -20.5t108 -45.5t94.5 -45.5t74.5 -20.5q38 0 64 29.5t36 90.5l118 10l-10 -72 q-17 -119 -82.5 -186.5t-171.5 -67.5q-52 0 -111 20.5t-115 45.5t-104 45.5t-78 20.5q-40 0 -66 -19t-35 -79zM417 1275l4 32l286 373l221 -10l182 -363l-4 -32l-157 -10l-170 247l-239 -247z" />
<glyph unicode="&#x1eac;" horiz-adv-x="1277" d="M-92 105l110 20l613 1228h239l257 -1229l106 -19l-17 -105h-517l-8 105l137 19l-54 272h-437l-133 -273l133 -18l-17 -105h-404zM395 515h355l-98 492h-16zM383 -339q0 34 9.5 64t25.5 53t37.5 36.5t45.5 13.5q34 0 64.5 -9.5t53 -25.5t35.5 -37.5t13 -46.5 q0 -33 -9.5 -63.5t-25.5 -53t-37.5 -36t-45.5 -13.5q-35 0 -65 9.5t-52.5 25.5t-35.5 37.5t-13 45.5zM394 1470l5 32l303 292l222 -10l213 -282l-5 -32l-156 -10l-197 185l-262 -185z" />
<glyph unicode="&#x1ead;" horiz-adv-x="1244" d="M77 373l26 188q37 252 195 399t391 147q94 0 211.5 -21.5t221.5 -56.5l-126 -904l132 -20l-20 -105l-330 -22l-81 78l23 169q-82 -116 -181 -181.5t-198 -65.5q-160 0 -226 96q-46 68 -46 188q0 51 8 111zM366 200q10 -94 82 -94q51 0 130.5 79.5t164.5 207.5l82 589 q-27 8 -69 14.5t-88 6.5q-37 0 -77.5 -8t-79.5 -22q-40 -75 -69 -175t-44 -206l-18 -131q-17 -118 -17 -199q0 -34 3 -62zM360 -339q0 34 9.5 64t25.5 53t37.5 36.5t45.5 13.5q34 0 64.5 -9.5t53 -25.5t35.5 -37.5t13 -46.5q0 -33 -9.5 -63.5t-25.5 -53t-37.5 -36 t-45.5 -13.5q-35 0 -65 9.5t-52.5 25.5t-35.5 37.5t-13 45.5zM395 1275l4 32l286 373l221 -10l182 -363l-4 -32l-157 -10l-170 247l-239 -247z" />
<glyph unicode="&#x1eae;" horiz-adv-x="1277" d="M-92 105l110 20l613 1228h239l257 -1229l106 -19l-17 -105h-517l-8 105l137 19l-54 272h-437l-133 -273l133 -18l-17 -105h-404zM395 515h355l-98 492h-16zM444 1749l108 10q-2 -12 4.5 -34.5t30.5 -44t70.5 -37.5t124.5 -16t128.5 16t81 37.5t43.5 44t15 34.5l105 -10 q-6 -47 -35 -98.5t-79 -94.5t-121 -71t-162 -28t-153.5 28t-100.5 71t-52 94.5t-8 98.5zM681 1750v32l278 281l282 -10v-66l-415 -248z" />
<glyph unicode="&#x1eaf;" horiz-adv-x="1244" d="M77 373l26 188q37 252 195 399t391 147q94 0 211.5 -21.5t221.5 -56.5l-126 -904l132 -20l-20 -105l-330 -22l-81 78l23 169q-82 -116 -181 -181.5t-198 -65.5q-160 0 -226 96q-46 68 -46 188q0 51 8 111zM366 200q10 -94 82 -94q51 0 130.5 79.5t164.5 207.5l82 589 q-27 8 -69 14.5t-88 6.5q-37 0 -77.5 -8t-79.5 -22q-40 -75 -69 -175t-44 -206l-18 -131q-17 -118 -17 -199q0 -34 3 -62zM470 1592l108 10q-3 -18 4.5 -45t30 -52t62 -42.5t100.5 -17.5t105 17.5t73.5 42.5t44.5 52t18 45l106 -10q-8 -59 -37.5 -117.5t-77.5 -105 t-113 -75.5t-144 -29t-136 29t-91.5 75.5t-47.5 105t-5 117.5zM719 1600l5 32l234 363l271 -10l-10 -66l-366 -329z" />
<glyph unicode="&#x1eb0;" horiz-adv-x="1277" d="M-92 105l110 20l613 1228h239l257 -1229l106 -19l-17 -105h-517l-8 105l137 19l-54 272h-437l-133 -273l133 -18l-17 -105h-404zM395 515h355l-98 492h-16zM418 1987l9 66l283 10l219 -281l-5 -32l-146 -11zM444 1749l108 10q-2 -12 4.5 -34.5t30.5 -44t70.5 -37.5 t124.5 -16t128.5 16t81 37.5t43.5 44t15 34.5l105 -10q-6 -47 -35 -98.5t-79 -94.5t-121 -71t-162 -28t-153.5 28t-100.5 71t-52 94.5t-8 98.5z" />
<glyph unicode="&#x1eb1;" horiz-adv-x="1244" d="M77 373l26 188q37 252 195 399t391 147q94 0 211.5 -21.5t221.5 -56.5l-126 -904l132 -20l-20 -105l-330 -22l-81 78l23 169q-82 -116 -181 -181.5t-198 -65.5q-160 0 -226 96q-46 68 -46 188q0 51 8 111zM366 200q10 -94 82 -94q51 0 130.5 79.5t164.5 207.5l82 589 q-27 8 -69 14.5t-88 6.5q-37 0 -77.5 -8t-79.5 -22q-40 -75 -69 -175t-44 -206l-18 -131q-17 -118 -17 -199q0 -34 3 -62zM470 1592l108 10q-3 -18 4.5 -45t30 -52t62 -42.5t100.5 -17.5t105 17.5t73.5 42.5t44.5 52t18 45l106 -10q-8 -59 -37.5 -117.5t-77.5 -105 t-113 -75.5t-144 -29t-136 29t-91.5 75.5t-47.5 105t-5 117.5zM483 1919l10 66l286 10l132 -363l-5 -32l-149 -10z" />
<glyph unicode="&#x1eb2;" horiz-adv-x="1277" d="M-92 105l110 20l613 1228h239l257 -1229l106 -19l-17 -105h-517l-8 105l137 19l-54 272h-437l-133 -273l133 -18l-17 -105h-404zM395 515h355l-98 492h-16zM452 1749l108 10q-2 -12 4.5 -34.5t30.5 -44t70.5 -37.5t124.5 -16t128.5 16t81 37.5t43.5 44t15 34.5l105 -10 q-6 -47 -35 -98.5t-79 -94.5t-121 -71t-162 -28t-153.5 28t-100.5 71t-52 94.5t-8 98.5zM668 1954l19 133q31 15 66 26.5t78 20t93 8.5q87 0 132.5 -35.5t36.5 -105.5q-7 -52 -44 -90t-93 -67q-25 -13 -41.5 -22.5t-27 -17.5t-15.5 -14.5t-6 -13.5q-2 -11 0.5 -19.5 t4.5 -13.5l-95 -27q-9 14 -14 29t-8 31.5t0 33.5q1 13 5.5 27t14 28t25.5 29.5t41 31.5q44 28 60.5 45t18.5 37t-7.5 35t-37.5 15q-13 0 -24 -2.5t-21 -6t-18 -6.5l-36 -94z" />
<glyph unicode="&#x1eb3;" horiz-adv-x="1244" d="M77 373l26 188q37 252 195 399t391 147q94 0 211.5 -21.5t221.5 -56.5l-126 -904l132 -20l-20 -105l-330 -22l-81 78l23 169q-82 -116 -181 -181.5t-198 -65.5q-160 0 -226 96q-46 68 -46 188q0 51 8 111zM366 200q10 -94 82 -94q51 0 130.5 79.5t164.5 207.5l82 589 q-27 8 -69 14.5t-88 6.5q-37 0 -77.5 -8t-79.5 -22q-40 -75 -69 -175t-44 -206l-18 -131q-17 -118 -17 -199q0 -34 3 -62zM470 1592l108 10q-3 -18 4.5 -45t30 -52t62 -42.5t100.5 -17.5t105 17.5t73.5 42.5t44.5 52t18 45l106 -10q-8 -59 -37.5 -117.5t-77.5 -105 t-113 -75.5t-144 -29t-136 29t-91.5 75.5t-47.5 105t-5 117.5zM649 1807l19 133q31 15 66 26.5t78 20t93 8.5q87 0 132.5 -35.5t36.5 -105.5q-7 -52 -44 -90t-93 -67q-25 -13 -41.5 -22.5t-27 -17.5t-15.5 -14.5t-6 -13.5q-2 -11 0.5 -19.5t4.5 -13.5l-95 -27q-9 14 -14 29 t-8 31.5t0 33.5q1 13 5.5 27t14 28t25.5 29.5t41 31.5q44 28 60.5 45t18.5 37t-7.5 35t-37.5 15q-13 0 -24 -2.5t-21 -6t-18 -6.5l-36 -94z" />
<glyph unicode="&#x1eb4;" horiz-adv-x="1277" d="M-92 105l110 20l613 1228h239l257 -1229l106 -19l-17 -105h-517l-8 105l137 19l-54 272h-437l-133 -273l133 -18l-17 -105h-404zM395 515h355l-98 492h-16zM344 1836l7 50q18 127 94 190.5t191 63.5q67 0 133 -20.5t125 -45.5t108.5 -45.5t85.5 -20.5q47 0 78.5 29.5 t41.5 90.5l118 10l-10 -72q-17 -119 -88 -186.5t-186 -67.5q-39 0 -82.5 10t-88 24.5t-88 31.5t-82.5 31.5t-71.5 24.5t-55.5 10q-24 0 -44 -4t-35.5 -15t-26 -30t-14.5 -49zM444 1749l108 10q-2 -12 4.5 -34.5t30.5 -44t70.5 -37.5t124.5 -16t128.5 16t81 37.5t43.5 44 t15 34.5l105 -10q-6 -47 -35 -98.5t-79 -94.5t-121 -71t-162 -28t-153.5 28t-100.5 71t-52 94.5t-8 98.5z" />
</font>
</defs>
</svg>
